%
M48
M72
T01C0.01378
T02C0.02400
T03C0.03200
T04C0.03937
T05C0.05600
%
T01
X199342Y115300
X259942Y122500
X284542Y122500
X345142Y156100
X348742Y159700
X326542Y174700
X330142Y178300
X291742Y192700
X214942Y196900
X212542Y187300
X210742Y158500
X137542Y151900
X120742Y163300
X124342Y166900
X129142Y175300
X372142Y133900
X417142Y179500
T02
X423342Y141300
X403342Y131300
X373342Y141300
X373342Y111300
X403342Y101300
X423342Y111300
X423342Y81300
X403342Y71300
X373342Y81300
T03
X338342Y106300
X298342Y106300
X293342Y126300
X293342Y141300
X333342Y141300
X338342Y176300
X338342Y186300
X338342Y196300
X338342Y206300
X338342Y216300
X338342Y226300
X338342Y236300
X308342Y236300
X308342Y226300
X308342Y216300
X308342Y206300
X308342Y196300
X308342Y186300
X308342Y176300
X253342Y171300
X253342Y181300
X253342Y191300
X253342Y201300
X253342Y211300
X253342Y221300
X223342Y221300
X223342Y211300
X223342Y201300
X223342Y191300
X223342Y181300
X223342Y171300
X223342Y161300
X253342Y161300
X253342Y126300
X268342Y106300
X228342Y106300
X208342Y106300
X218342Y126300
X183342Y146300
X178342Y126300
X168342Y106300
X148342Y106300
X148342Y126300
X143342Y146300
X108342Y126300
X108342Y106300
X148342Y171300
X148342Y181300
X148342Y191300
X148342Y201300
X148342Y211300
X148342Y221300
X148342Y231300
X178342Y231300
X178342Y221300
X178342Y211300
X178342Y201300
X178342Y191300
X178342Y181300
X178342Y171300
X263342Y41300
X273342Y41300
X283342Y41300
X293342Y41300
X303342Y41300
X313342Y41300
X323342Y41300
X333342Y41300
X343342Y41300
X378342Y196300
X388342Y196300
T04
X68342Y26300
X83342Y176300
X83342Y186300
X83342Y196300
X68342Y241300
X388342Y41300
X398342Y41300
X408342Y41300
X438342Y26300
X428342Y181300
X428342Y191300
X428342Y201300
X443342Y241300
T05
X158342Y51300
X98342Y51300
M30
