G75*
%MOIN*%
%OFA0B0*%
%FSLAX25Y25*%
%IPPOS*%
%LPD*%
%AMOC8*
5,1,8,0,0,1.08239X$1,22.5*
%
%ADD10C,0.04737*%
%ADD11C,0.06737*%
%ADD12R,0.09800X0.09800*%
%ADD13C,0.06000*%
%ADD14OC8,0.06000*%
%ADD15C,0.05200*%
%ADD16C,0.03778*%
D10*
X0058342Y0026300D03*
X0058342Y0241300D03*
X0428342Y0026300D03*
X0433342Y0241300D03*
D11*
X0421310Y0201300D02*
X0415373Y0201300D01*
X0415373Y0191300D02*
X0421310Y0191300D01*
X0421310Y0181300D02*
X0415373Y0181300D01*
X0398342Y0044269D02*
X0398342Y0038331D01*
X0388342Y0038331D02*
X0388342Y0044269D01*
X0378342Y0044269D02*
X0378342Y0038331D01*
X0076310Y0176300D02*
X0070373Y0176300D01*
X0070373Y0186300D02*
X0076310Y0186300D01*
X0076310Y0196300D02*
X0070373Y0196300D01*
D12*
X0088342Y0051300D03*
X0148342Y0051300D03*
D13*
X0253342Y0043900D02*
X0253342Y0038700D01*
X0263342Y0038700D02*
X0263342Y0043900D01*
X0273342Y0043900D02*
X0273342Y0038700D01*
X0283342Y0038700D02*
X0283342Y0043900D01*
X0293342Y0043900D02*
X0293342Y0038700D01*
X0303342Y0038700D02*
X0303342Y0043900D01*
X0313342Y0043900D02*
X0313342Y0038700D01*
X0323342Y0038700D02*
X0323342Y0043900D01*
X0333342Y0043900D02*
X0333342Y0038700D01*
X0245942Y0161300D02*
X0240742Y0161300D01*
X0240742Y0171300D02*
X0245942Y0171300D01*
X0245942Y0181300D02*
X0240742Y0181300D01*
X0240742Y0191300D02*
X0245942Y0191300D01*
X0245942Y0201300D02*
X0240742Y0201300D01*
X0240742Y0211300D02*
X0245942Y0211300D01*
X0245942Y0221300D02*
X0240742Y0221300D01*
X0215942Y0221300D02*
X0210742Y0221300D01*
X0210742Y0211300D02*
X0215942Y0211300D01*
X0215942Y0201300D02*
X0210742Y0201300D01*
X0210742Y0191300D02*
X0215942Y0191300D01*
X0215942Y0181300D02*
X0210742Y0181300D01*
X0210742Y0171300D02*
X0215942Y0171300D01*
X0215942Y0161300D02*
X0210742Y0161300D01*
X0170942Y0171300D02*
X0165742Y0171300D01*
X0165742Y0181300D02*
X0170942Y0181300D01*
X0170942Y0191300D02*
X0165742Y0191300D01*
X0165742Y0201300D02*
X0170942Y0201300D01*
X0170942Y0211300D02*
X0165742Y0211300D01*
X0165742Y0221300D02*
X0170942Y0221300D01*
X0170942Y0231300D02*
X0165742Y0231300D01*
X0140942Y0231300D02*
X0135742Y0231300D01*
X0135742Y0221300D02*
X0140942Y0221300D01*
X0140942Y0211300D02*
X0135742Y0211300D01*
X0135742Y0201300D02*
X0140942Y0201300D01*
X0140942Y0191300D02*
X0135742Y0191300D01*
X0135742Y0181300D02*
X0140942Y0181300D01*
X0140942Y0171300D02*
X0135742Y0171300D01*
X0295742Y0176300D02*
X0300942Y0176300D01*
X0300942Y0186300D02*
X0295742Y0186300D01*
X0295742Y0196300D02*
X0300942Y0196300D01*
X0300942Y0206300D02*
X0295742Y0206300D01*
X0295742Y0216300D02*
X0300942Y0216300D01*
X0300942Y0226300D02*
X0295742Y0226300D01*
X0295742Y0236300D02*
X0300942Y0236300D01*
X0325742Y0236300D02*
X0330942Y0236300D01*
X0330942Y0226300D02*
X0325742Y0226300D01*
X0325742Y0216300D02*
X0330942Y0216300D01*
X0330942Y0206300D02*
X0325742Y0206300D01*
X0325742Y0196300D02*
X0330942Y0196300D01*
X0330942Y0186300D02*
X0325742Y0186300D01*
X0325742Y0176300D02*
X0330942Y0176300D01*
D14*
X0368342Y0196300D03*
X0378342Y0196300D03*
X0323342Y0141300D03*
X0283342Y0141300D03*
X0283342Y0126300D03*
X0288342Y0106300D03*
X0258342Y0106300D03*
X0243342Y0126300D03*
X0218342Y0106300D03*
X0198342Y0106300D03*
X0208342Y0126300D03*
X0173342Y0146300D03*
X0168342Y0126300D03*
X0158342Y0106300D03*
X0138342Y0106300D03*
X0138342Y0126300D03*
X0133342Y0146300D03*
X0098342Y0126300D03*
X0098342Y0106300D03*
X0328342Y0106300D03*
D15*
X0363342Y0111300D03*
X0393342Y0101300D03*
X0413342Y0111300D03*
X0393342Y0131300D03*
X0413342Y0141300D03*
X0363342Y0141300D03*
X0363342Y0081300D03*
X0393342Y0071300D03*
X0413342Y0081300D03*
D16*
X0362142Y0133900D03*
X0335142Y0156100D03*
X0338742Y0159700D03*
X0316542Y0174700D03*
X0320142Y0178300D03*
X0281742Y0192700D03*
X0204942Y0196900D03*
X0202542Y0187300D03*
X0200742Y0158500D03*
X0249942Y0122500D03*
X0274542Y0122500D03*
X0189342Y0115300D03*
X0127542Y0151900D03*
X0110742Y0163300D03*
X0114342Y0166900D03*
X0119142Y0175300D03*
X0407142Y0179500D03*
M02*
