%
M48
M72
T01C0.01378
T02C0.02400
T03C0.03200
T04C0.03937
T05C0.04000
T06C0.05600
%
T01
X184542Y60300
X204942Y84900
X215142Y96300
X254142Y96300
X299742Y101100
X253542Y143700
X258942Y158700
X239142Y170700
X219942Y167100
X218142Y170700
X215142Y157500
X205542Y149100
X203142Y152100
X209742Y145500
X195942Y135900
X192342Y139500
X171942Y170100
X183342Y172500
X189342Y173700
X192342Y188700
X188142Y197700
X179142Y204900
X152742Y188700
X116742Y184500
X176142Y226500
X150942Y258900
X146142Y288900
X165342Y298500
X194142Y278100
X245142Y234900
X234342Y226500
X244542Y216300
X263142Y221700
X272142Y210900
X278742Y225300
X315942Y218700
X350742Y206100
X379542Y195300
X415542Y165300
X387342Y132300
X399342Y120300
X371142Y114300
X362142Y80700
X364542Y70500
X362142Y57300
X303942Y56100
X288342Y151500
X285342Y158100
X291342Y161700
X264342Y188700
X275742Y260100
X305742Y288900
T02
X393342Y261300
X423342Y251300
X443342Y261300
X448342Y171300
X428342Y161300
X398342Y171300
X398342Y81300
X428342Y71300
X448342Y81300
T03
X448342Y106300
X458342Y106300
X438342Y106300
X428342Y106300
X418342Y106300
X408342Y106300
X398342Y106300
X368342Y106300
X368342Y131300
X368342Y151300
X368342Y171300
X368342Y191300
X368342Y211300
X368342Y231300
X363342Y256300
X388342Y286300
X398342Y286300
X408342Y286300
X418342Y286300
X428342Y286300
X438342Y286300
X448342Y286300
X448342Y316300
X438342Y316300
X428342Y316300
X418342Y316300
X408342Y316300
X398342Y316300
X388342Y316300
X358342Y316300
X348342Y316300
X313342Y256300
X318342Y231300
X308342Y231300
X308342Y211300
X318342Y211300
X318342Y191300
X308342Y191300
X308342Y171300
X318342Y171300
X318342Y151300
X308342Y151300
X308342Y131300
X318342Y131300
X318342Y106300
X308342Y106300
X258342Y106300
X248342Y106300
X248342Y131300
X258342Y131300
X258342Y151300
X248342Y151300
X248342Y171300
X258342Y171300
X258342Y191300
X248342Y191300
X248342Y211300
X258342Y211300
X258342Y231300
X248342Y231300
X198342Y231300
X178342Y216300
X198342Y211300
X178342Y196300
X158342Y196300
X148342Y196300
X138342Y196300
X128342Y196300
X118342Y196300
X108342Y196300
X98342Y196300
X98342Y166300
X108342Y166300
X108342Y136300
X118342Y136300
X128342Y136300
X138342Y136300
X148342Y136300
X158342Y136300
X178342Y131300
X198342Y131300
X198342Y151300
X178342Y156300
X198342Y171300
X178342Y176300
X198342Y191300
X158342Y226300
X148342Y226300
X138342Y226300
X128342Y226300
X118342Y226300
X108342Y226300
X98342Y226300
X98342Y251300
X108342Y251300
X108342Y281300
X118342Y281300
X128342Y281300
X138342Y281300
X148342Y281300
X158342Y281300
X158342Y311300
X148342Y311300
X138342Y311300
X128342Y311300
X118342Y311300
X108342Y311300
X98342Y311300
X98342Y281300
X98342Y136300
X98342Y106300
X108342Y106300
X118342Y106300
X128342Y106300
X138342Y106300
X148342Y106300
X158342Y106300
X178342Y111300
X198342Y106300
X253342Y46300
X263342Y46300
X273342Y46300
X283342Y46300
X293342Y46300
X303342Y46300
X313342Y46300
X323342Y46300
X333342Y46300
X398342Y136300
X408342Y136300
X418342Y136300
X428342Y136300
X438342Y136300
X448342Y136300
X458342Y136300
X458342Y196300
X448342Y196300
X438342Y196300
X428342Y196300
X418342Y196300
X408342Y196300
X398342Y196300
X398342Y226300
X408342Y226300
X418342Y226300
X428342Y226300
X438342Y226300
X448342Y226300
X458342Y226300
T04
X88342Y31300
X358342Y46300
X368342Y46300
X378342Y46300
X398342Y46300
X408342Y46300
X418342Y46300
X428342Y46300
X438342Y46300
X448342Y46300
X463342Y31300
X333342Y311300
X323342Y311300
X313342Y311300
X293342Y311300
X283342Y311300
X273342Y311300
X263342Y311300
X228342Y311300
X218342Y311300
X208342Y311300
X88342Y326300
X463342Y326300
T05
X277842Y266300
X188842Y266300
T06
X163342Y51300
X103342Y51300
M30
