%
M48
M72
T01C0.01378
T02C0.02400
T03C0.03200
T04C0.03937
T05C0.04000
T06C0.05600
%
T01
X199542Y60300
X219942Y84900
X230142Y96300
X269142Y96300
X314742Y101100
X318942Y56100
X260142Y41100
X377142Y57300
X379542Y70500
X377142Y80700
X386142Y114300
X402342Y132300
X414342Y120300
X430542Y165300
X394542Y195300
X365742Y206100
X330942Y218700
X293742Y225300
X278142Y221700
X287142Y210900
X259542Y216300
X249342Y226500
X260142Y234900
X209142Y278100
X206742Y284100
X237942Y291300
X244542Y297900
X320742Y288900
X203142Y197700
X194142Y204900
X207342Y188700
X204342Y173700
X198342Y172500
X186942Y170100
X167742Y188700
X131742Y184500
X191142Y226500
X165942Y258900
X158142Y280500
X279342Y188700
X254142Y170700
X234942Y167100
X233142Y170700
X230142Y157500
X220542Y149100
X218142Y152100
X224742Y145500
X210942Y135900
X207342Y139500
X268542Y143700
X273942Y158700
X300342Y158100
X306342Y161700
X303342Y151500
T02
X413342Y171300
X443342Y161300
X463342Y171300
X438342Y251300
X458342Y261300
X408342Y261300
X413342Y81300
X443342Y71300
X463342Y81300
T03
X463342Y106300
X473342Y106300
X453342Y106300
X443342Y106300
X433342Y106300
X423342Y106300
X413342Y106300
X383342Y106300
X383342Y131300
X383342Y151300
X383342Y171300
X383342Y191300
X383342Y211300
X383342Y231300
X378342Y256300
X413342Y226300
X423342Y226300
X433342Y226300
X443342Y226300
X453342Y226300
X463342Y226300
X473342Y226300
X473342Y196300
X463342Y196300
X453342Y196300
X443342Y196300
X433342Y196300
X423342Y196300
X413342Y196300
X413342Y136300
X423342Y136300
X433342Y136300
X443342Y136300
X453342Y136300
X463342Y136300
X473342Y136300
X348342Y46300
X338342Y46300
X328342Y46300
X318342Y46300
X308342Y46300
X298342Y46300
X288342Y46300
X278342Y46300
X268342Y46300
X273342Y106300
X263342Y106300
X263342Y131300
X273342Y131300
X273342Y151300
X263342Y151300
X263342Y171300
X273342Y171300
X273342Y191300
X263342Y191300
X263342Y211300
X273342Y211300
X273342Y231300
X263342Y231300
X213342Y231300
X193342Y216300
X213342Y211300
X193342Y196300
X173342Y196300
X163342Y196300
X153342Y196300
X143342Y196300
X133342Y196300
X123342Y196300
X113342Y196300
X113342Y166300
X123342Y166300
X123342Y136300
X113342Y136300
X133342Y136300
X143342Y136300
X153342Y136300
X163342Y136300
X173342Y136300
X193342Y131300
X213342Y131300
X213342Y151300
X193342Y156300
X213342Y171300
X193342Y176300
X213342Y191300
X173342Y226300
X163342Y226300
X153342Y226300
X143342Y226300
X133342Y226300
X123342Y226300
X113342Y226300
X113342Y251300
X123342Y251300
X123342Y281300
X113342Y281300
X133342Y281300
X143342Y281300
X153342Y281300
X163342Y281300
X173342Y281300
X173342Y311300
X163342Y311300
X153342Y311300
X143342Y311300
X133342Y311300
X123342Y311300
X113342Y311300
X323342Y231300
X333342Y231300
X333342Y211300
X323342Y211300
X323342Y191300
X333342Y191300
X333342Y171300
X323342Y171300
X323342Y151300
X333342Y151300
X333342Y131300
X323342Y131300
X323342Y106300
X333342Y106300
X213342Y106300
X193342Y111300
X173342Y106300
X163342Y106300
X153342Y106300
X143342Y106300
X133342Y106300
X123342Y106300
X113342Y106300
X328342Y256300
X403342Y286300
X413342Y286300
X423342Y286300
X433342Y286300
X443342Y286300
X453342Y286300
X463342Y286300
X463342Y316300
X453342Y316300
X443342Y316300
X433342Y316300
X423342Y316300
X413342Y316300
X403342Y316300
X373342Y316300
X363342Y316300
T04
X103342Y31300
X373342Y46300
X383342Y46300
X393342Y46300
X413342Y46300
X423342Y46300
X433342Y46300
X443342Y46300
X453342Y46300
X463342Y46300
X478342Y31300
X348342Y311300
X338342Y311300
X328342Y311300
X308342Y311300
X298342Y311300
X288342Y311300
X278342Y311300
X243342Y311300
X233342Y311300
X223342Y311300
X103342Y326300
X478342Y326300
T05
X292842Y266300
X203842Y266300
T06
X178342Y51300
X118342Y51300
M30
