%
M48
M72
T01C0.03200
T02C0.03600
T03C0.03937
T04C0.04000
T05C0.04724
T06C0.05600
%
T01
X143342Y246300
X153342Y246300
X163342Y246300
X173342Y246300
X203342Y256300
X173342Y276300
X163342Y276300
X153342Y276300
X143342Y276300
X118342Y266300
X88342Y296300
X78342Y296300
X68342Y266300
X208342Y296300
X228342Y296300
X253342Y311300
X263342Y311300
X273342Y311300
X283342Y311300
X293342Y311300
X288342Y281300
X268342Y281300
X253342Y256300
X293342Y256300
X343342Y256300
X373342Y256300
X388342Y291300
X398342Y291300
X423342Y256300
X353342Y296300
X333342Y296300
T02
X248342Y71300
X218342Y71300
T03
X73342Y36300
X83342Y36300
X93342Y36300
X58342Y196300
X153342Y306300
X163342Y306300
X173342Y306300
X58342Y316300
X428342Y316300
X428342Y206300
T04
X247842Y31300
X188842Y31300
T05
X203066Y102009
X214877Y102009
X226688Y102009
X238499Y102009
X258184Y102009
X289680Y102009
X254247Y196497
X242436Y196497
X230625Y196497
X203066Y196497
T06
X303342Y41300
X363342Y41300
M30
