G75*
%MOIN*%
%OFA0B0*%
%FSLAX25Y25*%
%IPPOS*%
%LPD*%
%AMOC8*
5,1,8,0,0,1.08239X$1,22.5*
%
%ADD10C,0.04737*%
%ADD11R,0.09800X0.09800*%
%ADD12C,0.06000*%
%ADD13C,0.06000*%
%ADD14C,0.06737*%
%ADD15OC8,0.06000*%
%ADD16C,0.06343*%
D10*
X0058342Y0051300D03*
X0058342Y0256300D03*
X0348342Y0051300D03*
X0353342Y0256300D03*
D11*
X0083342Y0111300D03*
X0083342Y0051300D03*
D12*
X0253342Y0166300D03*
X0263342Y0166300D03*
X0273342Y0166300D03*
X0283342Y0166300D03*
X0283342Y0196300D03*
X0273342Y0196300D03*
X0263342Y0196300D03*
X0253342Y0196300D03*
D13*
X0215942Y0156300D02*
X0210742Y0156300D01*
X0210742Y0146300D02*
X0215942Y0146300D01*
X0215942Y0136300D02*
X0210742Y0136300D01*
X0210742Y0126300D02*
X0215942Y0126300D01*
X0215942Y0116300D02*
X0210742Y0116300D01*
X0210742Y0106300D02*
X0215942Y0106300D01*
X0215942Y0096300D02*
X0210742Y0096300D01*
X0185942Y0096300D02*
X0180742Y0096300D01*
X0180742Y0106300D02*
X0185942Y0106300D01*
X0185942Y0116300D02*
X0180742Y0116300D01*
X0180742Y0126300D02*
X0185942Y0126300D01*
X0185942Y0136300D02*
X0180742Y0136300D01*
X0180742Y0146300D02*
X0185942Y0146300D01*
X0185942Y0156300D02*
X0180742Y0156300D01*
X0155942Y0156300D02*
X0150742Y0156300D01*
X0150742Y0146300D02*
X0155942Y0146300D01*
X0155942Y0136300D02*
X0150742Y0136300D01*
X0150742Y0126300D02*
X0155942Y0126300D01*
X0155942Y0116300D02*
X0150742Y0116300D01*
X0150742Y0106300D02*
X0155942Y0106300D01*
X0155942Y0096300D02*
X0150742Y0096300D01*
X0125942Y0096300D02*
X0120742Y0096300D01*
X0120742Y0106300D02*
X0125942Y0106300D01*
X0125942Y0116300D02*
X0120742Y0116300D01*
X0120742Y0126300D02*
X0125942Y0126300D01*
X0125942Y0136300D02*
X0120742Y0136300D01*
X0120742Y0146300D02*
X0125942Y0146300D01*
X0125942Y0156300D02*
X0120742Y0156300D01*
X0243342Y0068900D02*
X0243342Y0063700D01*
X0253342Y0063700D02*
X0253342Y0068900D01*
X0263342Y0068900D02*
X0263342Y0063700D01*
X0273342Y0063700D02*
X0273342Y0068900D01*
X0283342Y0068900D02*
X0283342Y0063700D01*
X0293342Y0063700D02*
X0293342Y0068900D01*
X0303342Y0068900D02*
X0303342Y0063700D01*
X0313342Y0063700D02*
X0313342Y0068900D01*
X0323342Y0068900D02*
X0323342Y0063700D01*
D14*
X0208342Y0063331D02*
X0208342Y0069269D01*
X0198342Y0069269D02*
X0198342Y0063331D01*
X0188342Y0063331D02*
X0188342Y0069269D01*
X0086310Y0171300D02*
X0080373Y0171300D01*
X0080373Y0181300D02*
X0086310Y0181300D01*
X0086310Y0191300D02*
X0080373Y0191300D01*
X0168342Y0243331D02*
X0168342Y0249269D01*
X0178342Y0249269D02*
X0178342Y0243331D01*
X0188342Y0243331D02*
X0188342Y0249269D01*
X0340373Y0191300D02*
X0346310Y0191300D01*
X0346310Y0181300D02*
X0340373Y0181300D01*
X0340373Y0171300D02*
X0346310Y0171300D01*
D15*
X0313342Y0161300D03*
X0298342Y0146300D03*
X0248342Y0146300D03*
X0208342Y0176300D03*
X0208342Y0211300D03*
X0243342Y0211300D03*
X0243342Y0231300D03*
X0293342Y0231300D03*
X0293342Y0211300D03*
X0313342Y0211300D03*
X0158342Y0211300D03*
X0158342Y0196300D03*
X0158342Y0176300D03*
X0108342Y0196300D03*
X0133342Y0226300D03*
X0128342Y0251300D03*
X0083342Y0226300D03*
X0078342Y0251300D03*
D16*
X0293342Y0126300D03*
X0323342Y0116300D03*
X0343342Y0126300D03*
M02*
