G75*
%MOIN*%
%OFA0B0*%
%FSLAX25Y25*%
%IPPOS*%
%LPD*%
%AMOC8*
5,1,8,0,0,1.08239X$1,22.5*
%
%ADD10R,0.09800X0.09800*%
%ADD11C,0.05950*%
%ADD12OC8,0.06000*%
%ADD13C,0.06737*%
%ADD14C,0.06000*%
%ADD15C,0.06800*%
%ADD16C,0.03778*%
D10*
X0021000Y0036000D03*
X0081000Y0036000D03*
D11*
X0126000Y0071000D03*
X0136000Y0071000D03*
X0171000Y0071000D03*
X0181000Y0071000D03*
X0181000Y0101000D03*
X0171000Y0101000D03*
X0166000Y0116000D03*
X0176000Y0116000D03*
X0136000Y0101000D03*
X0126000Y0101000D03*
X0121000Y0116000D03*
X0131000Y0116000D03*
X0131000Y0146000D03*
X0121000Y0146000D03*
X0081000Y0146000D03*
X0071000Y0146000D03*
X0071000Y0116000D03*
X0081000Y0116000D03*
X0081000Y0106000D03*
X0071000Y0106000D03*
X0071000Y0076000D03*
X0081000Y0076000D03*
X0166000Y0146000D03*
X0176000Y0146000D03*
X0171000Y0171000D03*
X0161000Y0171000D03*
X0161000Y0201000D03*
X0171000Y0201000D03*
D12*
X0116000Y0206000D03*
X0076000Y0206000D03*
X0066000Y0206000D03*
X0026000Y0206000D03*
X0026000Y0181000D03*
X0026000Y0161000D03*
X0066000Y0161000D03*
X0081000Y0161000D03*
X0076000Y0181000D03*
X0066000Y0181000D03*
X0116000Y0181000D03*
X0121000Y0161000D03*
X0276000Y0161000D03*
X0276000Y0181000D03*
X0276000Y0201000D03*
X0316000Y0201000D03*
X0336000Y0201000D03*
X0336000Y0181000D03*
X0316000Y0181000D03*
X0316000Y0161000D03*
X0336000Y0161000D03*
X0346000Y0141000D03*
X0376000Y0161000D03*
X0376000Y0181000D03*
X0376000Y0201000D03*
X0306000Y0141000D03*
X0296000Y0111000D03*
X0276000Y0111000D03*
X0331000Y0111000D03*
X0381000Y0111000D03*
D13*
X0373969Y0071000D02*
X0368031Y0071000D01*
X0368031Y0061000D02*
X0373969Y0061000D01*
X0373969Y0051000D02*
X0368031Y0051000D01*
X0368031Y0041000D02*
X0373969Y0041000D01*
X0373969Y0031000D02*
X0368031Y0031000D01*
X0368031Y0021000D02*
X0373969Y0021000D01*
X0331000Y0028031D02*
X0331000Y0033969D01*
X0321000Y0033969D02*
X0321000Y0028031D01*
X0311000Y0028031D02*
X0311000Y0033969D01*
X0301000Y0033969D02*
X0301000Y0028031D01*
X0291000Y0028031D02*
X0291000Y0033969D01*
X0281000Y0033969D02*
X0281000Y0028031D01*
X0028969Y0116000D02*
X0023031Y0116000D01*
X0023031Y0126000D02*
X0028969Y0126000D01*
D14*
X0213400Y0136000D02*
X0218600Y0136000D01*
X0218600Y0146000D02*
X0213400Y0146000D01*
X0213400Y0156000D02*
X0218600Y0156000D01*
X0218600Y0166000D02*
X0213400Y0166000D01*
X0213400Y0176000D02*
X0218600Y0176000D01*
X0218600Y0186000D02*
X0213400Y0186000D01*
X0213400Y0196000D02*
X0218600Y0196000D01*
X0243400Y0196000D02*
X0248600Y0196000D01*
X0248600Y0186000D02*
X0243400Y0186000D01*
X0243400Y0176000D02*
X0248600Y0176000D01*
X0248600Y0166000D02*
X0243400Y0166000D01*
X0243400Y0156000D02*
X0248600Y0156000D01*
X0248600Y0146000D02*
X0243400Y0146000D01*
X0243400Y0136000D02*
X0248600Y0136000D01*
X0248600Y0106000D02*
X0243400Y0106000D01*
X0243400Y0096000D02*
X0248600Y0096000D01*
X0248600Y0086000D02*
X0243400Y0086000D01*
X0243400Y0076000D02*
X0248600Y0076000D01*
X0248600Y0066000D02*
X0243400Y0066000D01*
X0243400Y0056000D02*
X0248600Y0056000D01*
X0248600Y0046000D02*
X0243400Y0046000D01*
X0218600Y0046000D02*
X0213400Y0046000D01*
X0213400Y0056000D02*
X0218600Y0056000D01*
X0218600Y0066000D02*
X0213400Y0066000D01*
X0213400Y0076000D02*
X0218600Y0076000D01*
X0218600Y0086000D02*
X0213400Y0086000D01*
X0213400Y0096000D02*
X0218600Y0096000D01*
X0218600Y0106000D02*
X0213400Y0106000D01*
D15*
X0216000Y0223000D02*
X0216000Y0229000D01*
X0206000Y0229000D02*
X0206000Y0223000D01*
X0196000Y0223000D02*
X0196000Y0229000D01*
X0186000Y0229000D02*
X0186000Y0223000D01*
X0176000Y0223000D02*
X0176000Y0229000D01*
X0166000Y0229000D02*
X0166000Y0223000D01*
X0226000Y0223000D02*
X0226000Y0229000D01*
D16*
X0224800Y0094000D03*
X0203200Y0093400D03*
M02*
