%
M48
M72
T01C0.01378
T02C0.03150
T03C0.03200
T04C0.03937
T05C0.04000
T06C0.05600
%
T01
X203200Y93400
X224800Y94000
T02
X181000Y101000
X171000Y101000
X166000Y116000
X176000Y116000
X136000Y101000
X126000Y101000
X121000Y116000
X131000Y116000
X131000Y146000
X121000Y146000
X81000Y146000
X71000Y146000
X71000Y116000
X81000Y116000
X81000Y106000
X71000Y106000
X71000Y76000
X81000Y76000
X126000Y71000
X136000Y71000
X171000Y71000
X181000Y71000
X176000Y146000
X166000Y146000
X161000Y171000
X171000Y171000
X171000Y201000
X161000Y201000
T03
X116000Y206000
X76000Y206000
X66000Y206000
X26000Y206000
X26000Y181000
X26000Y161000
X66000Y161000
X81000Y161000
X76000Y181000
X66000Y181000
X116000Y181000
X121000Y161000
X216000Y156000
X216000Y146000
X216000Y136000
X246000Y136000
X246000Y146000
X246000Y156000
X246000Y166000
X246000Y176000
X246000Y186000
X246000Y196000
X276000Y201000
X276000Y181000
X276000Y161000
X306000Y141000
X316000Y161000
X336000Y161000
X336000Y181000
X316000Y181000
X316000Y201000
X336000Y201000
X376000Y201000
X376000Y181000
X376000Y161000
X346000Y141000
X331000Y111000
X296000Y111000
X276000Y111000
X246000Y106000
X246000Y96000
X246000Y86000
X246000Y76000
X246000Y66000
X246000Y56000
X246000Y46000
X216000Y46000
X216000Y56000
X216000Y66000
X216000Y76000
X216000Y86000
X216000Y96000
X216000Y106000
X216000Y166000
X216000Y176000
X216000Y186000
X216000Y196000
X381000Y111000
T04
X371000Y71000
X371000Y61000
X371000Y51000
X371000Y41000
X371000Y31000
X371000Y21000
X331000Y31000
X321000Y31000
X311000Y31000
X301000Y31000
X291000Y31000
X281000Y31000
X26000Y116000
X26000Y126000
T05
X166000Y226000
X176000Y226000
X186000Y226000
X196000Y226000
X206000Y226000
X216000Y226000
X226000Y226000
T06
X21000Y36000
X81000Y36000
M30
