G75*
%MOIN*%
%OFA0B0*%
%FSLAX25Y25*%
%IPPOS*%
%LPD*%
%AMOC8*
5,1,8,0,0,1.08239X$1,22.5*
%
%ADD10R,0.09000X0.09000*%
%ADD11C,0.05150*%
%ADD12OC8,0.05200*%
%ADD13C,0.05937*%
%ADD14C,0.05200*%
%ADD15C,0.06000*%
%ADD16C,0.00600*%
%ADD17C,0.02978*%
D10*
X0021000Y0036000D03*
X0081000Y0036000D03*
D11*
X0126000Y0071000D03*
X0136000Y0071000D03*
X0171000Y0071000D03*
X0181000Y0071000D03*
X0181000Y0101000D03*
X0171000Y0101000D03*
X0166000Y0116000D03*
X0176000Y0116000D03*
X0136000Y0101000D03*
X0126000Y0101000D03*
X0121000Y0116000D03*
X0131000Y0116000D03*
X0131000Y0146000D03*
X0121000Y0146000D03*
X0081000Y0146000D03*
X0071000Y0146000D03*
X0071000Y0116000D03*
X0081000Y0116000D03*
X0081000Y0106000D03*
X0071000Y0106000D03*
X0071000Y0076000D03*
X0081000Y0076000D03*
X0166000Y0146000D03*
X0176000Y0146000D03*
X0171000Y0171000D03*
X0161000Y0171000D03*
X0161000Y0201000D03*
X0171000Y0201000D03*
D12*
X0116000Y0206000D03*
X0076000Y0206000D03*
X0066000Y0206000D03*
X0026000Y0206000D03*
X0026000Y0181000D03*
X0026000Y0161000D03*
X0066000Y0161000D03*
X0081000Y0161000D03*
X0076000Y0181000D03*
X0066000Y0181000D03*
X0116000Y0181000D03*
X0121000Y0161000D03*
X0276000Y0161000D03*
X0276000Y0181000D03*
X0276000Y0201000D03*
X0316000Y0201000D03*
X0336000Y0201000D03*
X0336000Y0181000D03*
X0316000Y0181000D03*
X0316000Y0161000D03*
X0336000Y0161000D03*
X0346000Y0141000D03*
X0376000Y0161000D03*
X0376000Y0181000D03*
X0376000Y0201000D03*
X0306000Y0141000D03*
X0296000Y0111000D03*
X0276000Y0111000D03*
X0331000Y0111000D03*
X0381000Y0111000D03*
D13*
X0373969Y0071000D02*
X0368031Y0071000D01*
X0368031Y0061000D02*
X0373969Y0061000D01*
X0373969Y0051000D02*
X0368031Y0051000D01*
X0368031Y0041000D02*
X0373969Y0041000D01*
X0373969Y0031000D02*
X0368031Y0031000D01*
X0368031Y0021000D02*
X0373969Y0021000D01*
X0331000Y0028031D02*
X0331000Y0033969D01*
X0321000Y0033969D02*
X0321000Y0028031D01*
X0311000Y0028031D02*
X0311000Y0033969D01*
X0301000Y0033969D02*
X0301000Y0028031D01*
X0291000Y0028031D02*
X0291000Y0033969D01*
X0281000Y0033969D02*
X0281000Y0028031D01*
X0028969Y0116000D02*
X0023031Y0116000D01*
X0023031Y0126000D02*
X0028969Y0126000D01*
D14*
X0213400Y0136000D02*
X0218600Y0136000D01*
X0218600Y0146000D02*
X0213400Y0146000D01*
X0213400Y0156000D02*
X0218600Y0156000D01*
X0218600Y0166000D02*
X0213400Y0166000D01*
X0213400Y0176000D02*
X0218600Y0176000D01*
X0218600Y0186000D02*
X0213400Y0186000D01*
X0213400Y0196000D02*
X0218600Y0196000D01*
X0243400Y0196000D02*
X0248600Y0196000D01*
X0248600Y0186000D02*
X0243400Y0186000D01*
X0243400Y0176000D02*
X0248600Y0176000D01*
X0248600Y0166000D02*
X0243400Y0166000D01*
X0243400Y0156000D02*
X0248600Y0156000D01*
X0248600Y0146000D02*
X0243400Y0146000D01*
X0243400Y0136000D02*
X0248600Y0136000D01*
X0248600Y0106000D02*
X0243400Y0106000D01*
X0243400Y0096000D02*
X0248600Y0096000D01*
X0248600Y0086000D02*
X0243400Y0086000D01*
X0243400Y0076000D02*
X0248600Y0076000D01*
X0248600Y0066000D02*
X0243400Y0066000D01*
X0243400Y0056000D02*
X0248600Y0056000D01*
X0248600Y0046000D02*
X0243400Y0046000D01*
X0218600Y0046000D02*
X0213400Y0046000D01*
X0213400Y0056000D02*
X0218600Y0056000D01*
X0218600Y0066000D02*
X0213400Y0066000D01*
X0213400Y0076000D02*
X0218600Y0076000D01*
X0218600Y0086000D02*
X0213400Y0086000D01*
X0213400Y0096000D02*
X0218600Y0096000D01*
X0218600Y0106000D02*
X0213400Y0106000D01*
D15*
X0216000Y0223000D02*
X0216000Y0229000D01*
X0206000Y0229000D02*
X0206000Y0223000D01*
X0196000Y0223000D02*
X0196000Y0229000D01*
X0186000Y0229000D02*
X0186000Y0223000D01*
X0176000Y0223000D02*
X0176000Y0229000D01*
X0166000Y0229000D02*
X0166000Y0223000D01*
X0226000Y0223000D02*
X0226000Y0229000D01*
D16*
X0226000Y0226000D02*
X0218800Y0218800D01*
X0183400Y0218800D01*
X0166000Y0201400D01*
X0161200Y0201400D01*
X0161000Y0201000D01*
X0155800Y0206200D02*
X0116200Y0206200D01*
X0116000Y0206000D01*
X0095800Y0226000D02*
X0076000Y0206200D01*
X0076000Y0206000D01*
X0071200Y0205600D02*
X0080800Y0196000D01*
X0216000Y0196000D01*
X0216000Y0186000D02*
X0215800Y0185800D01*
X0115600Y0185800D01*
X0086800Y0157000D01*
X0076600Y0157000D01*
X0067000Y0147400D01*
X0067000Y0104800D01*
X0070600Y0101200D01*
X0070600Y0076000D01*
X0071000Y0076000D01*
X0080800Y0076000D02*
X0081000Y0076000D01*
X0080800Y0076000D02*
X0080800Y0046600D01*
X0075400Y0041200D01*
X0075400Y0031000D01*
X0076000Y0030400D01*
X0086200Y0030400D01*
X0122200Y0066400D01*
X0122200Y0072400D01*
X0131800Y0082000D01*
X0262000Y0082000D01*
X0317200Y0137200D01*
X0357400Y0137200D01*
X0379600Y0159400D01*
X0379600Y0197200D01*
X0376000Y0200800D01*
X0376000Y0201000D01*
X0376000Y0181000D02*
X0344200Y0181000D01*
X0315400Y0152200D01*
X0244600Y0152200D01*
X0208600Y0116200D01*
X0176200Y0116200D01*
X0176000Y0116000D01*
X0165400Y0112000D02*
X0156400Y0112000D01*
X0122800Y0145600D01*
X0121000Y0145600D01*
X0121000Y0146000D01*
X0117400Y0144400D02*
X0117400Y0157000D01*
X0121000Y0160600D01*
X0121000Y0161000D01*
X0125800Y0171400D02*
X0116200Y0181000D01*
X0116000Y0181000D01*
X0125800Y0171400D02*
X0160600Y0171400D01*
X0161000Y0171000D01*
X0171000Y0171000D02*
X0171400Y0170800D01*
X0306400Y0170800D01*
X0316000Y0161200D01*
X0316000Y0161000D01*
X0325600Y0160600D02*
X0306000Y0141000D01*
X0309400Y0131200D02*
X0319000Y0140800D01*
X0346000Y0140800D01*
X0346000Y0141000D01*
X0333400Y0157000D02*
X0372400Y0157000D01*
X0376000Y0160600D01*
X0376000Y0161000D01*
X0336000Y0161000D02*
X0335800Y0160600D01*
X0325600Y0160600D01*
X0333400Y0157000D02*
X0308800Y0132400D01*
X0234400Y0132400D01*
X0199000Y0097000D01*
X0169600Y0097000D01*
X0151000Y0115600D01*
X0131200Y0115600D01*
X0131000Y0116000D01*
X0121000Y0116000D02*
X0121000Y0140800D01*
X0117400Y0144400D01*
X0099400Y0115600D02*
X0081400Y0115600D01*
X0081000Y0116000D01*
X0071200Y0115600D02*
X0071200Y0110800D01*
X0074800Y0107200D01*
X0074800Y0042400D01*
X0074200Y0041800D01*
X0074200Y0030400D01*
X0098800Y0005800D01*
X0355600Y0005800D01*
X0370600Y0020800D01*
X0371000Y0021000D01*
X0371000Y0031000D02*
X0341800Y0031000D01*
X0333400Y0022600D01*
X0174400Y0022600D01*
X0126000Y0071000D01*
X0141400Y0093400D02*
X0203200Y0093400D01*
X0208000Y0095800D02*
X0214600Y0102400D01*
X0232600Y0102400D01*
X0261400Y0131200D01*
X0309400Y0131200D01*
X0296000Y0111000D02*
X0301000Y0106000D01*
X0301000Y0031000D01*
X0321000Y0031000D02*
X0321400Y0031000D01*
X0380800Y0090400D01*
X0380800Y0110800D01*
X0381000Y0111000D01*
X0276000Y0111000D02*
X0275800Y0110800D01*
X0242800Y0110800D01*
X0228400Y0096400D01*
X0216400Y0096400D01*
X0216000Y0096000D01*
X0208000Y0095800D02*
X0119200Y0095800D01*
X0099400Y0115600D01*
X0104800Y0112000D02*
X0071200Y0145600D01*
X0071000Y0146000D01*
X0071000Y0116000D02*
X0071200Y0115600D01*
X0104800Y0112000D02*
X0120400Y0112000D01*
X0131200Y0101200D01*
X0136000Y0101200D01*
X0136000Y0101000D01*
X0141400Y0093400D02*
X0084400Y0036400D01*
X0081400Y0036400D01*
X0081000Y0036000D01*
X0165400Y0112000D02*
X0176200Y0101200D01*
X0181000Y0101200D01*
X0181000Y0101000D01*
X0216000Y0086000D02*
X0216400Y0086200D01*
X0224200Y0094000D01*
X0224800Y0094000D01*
X0259600Y0201400D02*
X0227800Y0233200D01*
X0173200Y0233200D01*
X0166000Y0226000D01*
X0095800Y0226000D01*
X0066400Y0205600D02*
X0066000Y0206000D01*
X0066400Y0205600D02*
X0071200Y0205600D01*
X0155800Y0206200D02*
X0175600Y0226000D01*
X0176000Y0226000D01*
X0259600Y0201400D02*
X0275800Y0201400D01*
X0276000Y0201000D01*
D17*
X0224800Y0094000D03*
X0203200Y0093400D03*
M02*
