G75*
%MOIN*%
%OFA0B0*%
%FSLAX25Y25*%
%IPPOS*%
%LPD*%
%AMOC8*
5,1,8,0,0,1.08239X$1,22.5*
%
%ADD10C,0.00000*%
%ADD11C,0.01200*%
%ADD12C,0.00800*%
%ADD13C,0.00600*%
%ADD14C,0.00500*%
%ADD15R,0.03400X0.02400*%
%ADD16C,0.01000*%
%ADD17C,0.00400*%
%ADD18C,0.02400*%
D10*
X0001000Y0001000D02*
X0001000Y0240961D01*
X0394701Y0240961D01*
X0394701Y0001000D01*
X0001000Y0001000D01*
D11*
X0013000Y0022000D02*
X0013000Y0026000D01*
X0011000Y0026000D01*
X0011000Y0046000D01*
X0013000Y0046000D01*
X0013000Y0050000D01*
X0025000Y0050000D01*
X0025000Y0046000D01*
X0025000Y0045000D01*
X0013000Y0045000D01*
X0013000Y0046000D01*
X0025000Y0046000D02*
X0027000Y0046000D01*
X0075000Y0046000D01*
X0077000Y0046000D01*
X0077000Y0050000D01*
X0089000Y0050000D01*
X0089000Y0046000D01*
X0091000Y0046000D01*
X0091000Y0026000D01*
X0089000Y0026000D01*
X0089000Y0022000D01*
X0077000Y0022000D01*
X0077000Y0026000D01*
X0077000Y0027000D01*
X0089000Y0027000D01*
X0089000Y0026000D01*
X0077000Y0026000D02*
X0075000Y0026000D01*
X0027000Y0026000D01*
X0025000Y0026000D01*
X0025000Y0022000D01*
X0013000Y0022000D01*
X0012000Y0024000D02*
X0009000Y0024000D01*
X0009000Y0029000D01*
X0013000Y0027000D02*
X0013000Y0026000D01*
X0013000Y0027000D02*
X0025000Y0027000D01*
X0025000Y0026000D01*
X0027000Y0026000D02*
X0027000Y0046000D01*
X0075000Y0046000D02*
X0075000Y0026000D01*
X0093000Y0043000D02*
X0093000Y0048000D01*
X0090000Y0048000D01*
X0089000Y0046000D02*
X0089000Y0045000D01*
X0077000Y0045000D01*
X0077000Y0046000D01*
X0284800Y0108500D02*
X0284800Y0111000D01*
X0284800Y0113500D01*
X0287300Y0113500D02*
X0287300Y0111000D01*
X0287300Y0108500D01*
D12*
X0041352Y0051400D02*
X0036240Y0051400D01*
X0038796Y0051400D02*
X0038796Y0060600D01*
X0036240Y0058556D01*
X0033489Y0060600D02*
X0029400Y0060600D01*
X0029400Y0051400D01*
X0029400Y0056511D02*
X0033489Y0056511D01*
D13*
X0066886Y0078480D02*
X0066886Y0082614D01*
X0066886Y0086728D01*
X0066886Y0103520D01*
X0085114Y0103520D01*
X0085114Y0078480D01*
X0066886Y0078480D01*
X0066886Y0082614D02*
X0066976Y0082616D01*
X0067065Y0082622D01*
X0067154Y0082632D01*
X0067243Y0082645D01*
X0067331Y0082663D01*
X0067418Y0082684D01*
X0067505Y0082709D01*
X0067590Y0082738D01*
X0067673Y0082771D01*
X0067755Y0082807D01*
X0067836Y0082846D01*
X0067915Y0082890D01*
X0067991Y0082936D01*
X0068066Y0082986D01*
X0068138Y0083039D01*
X0068208Y0083095D01*
X0068276Y0083154D01*
X0068341Y0083216D01*
X0068403Y0083281D01*
X0068462Y0083349D01*
X0068518Y0083419D01*
X0068571Y0083491D01*
X0068621Y0083566D01*
X0068667Y0083643D01*
X0068711Y0083721D01*
X0068750Y0083802D01*
X0068786Y0083884D01*
X0068819Y0083967D01*
X0068848Y0084052D01*
X0068873Y0084139D01*
X0068894Y0084226D01*
X0068912Y0084314D01*
X0068925Y0084403D01*
X0068935Y0084492D01*
X0068941Y0084581D01*
X0068943Y0084671D01*
X0068941Y0084761D01*
X0068935Y0084850D01*
X0068925Y0084939D01*
X0068912Y0085028D01*
X0068894Y0085116D01*
X0068873Y0085203D01*
X0068848Y0085290D01*
X0068819Y0085375D01*
X0068786Y0085458D01*
X0068750Y0085540D01*
X0068711Y0085621D01*
X0068667Y0085700D01*
X0068621Y0085776D01*
X0068571Y0085851D01*
X0068518Y0085923D01*
X0068462Y0085993D01*
X0068403Y0086061D01*
X0068341Y0086126D01*
X0068276Y0086188D01*
X0068208Y0086247D01*
X0068138Y0086303D01*
X0068066Y0086356D01*
X0067991Y0086406D01*
X0067915Y0086452D01*
X0067836Y0086496D01*
X0067755Y0086535D01*
X0067673Y0086571D01*
X0067590Y0086604D01*
X0067505Y0086633D01*
X0067418Y0086658D01*
X0067331Y0086679D01*
X0067243Y0086697D01*
X0067154Y0086710D01*
X0067065Y0086720D01*
X0066976Y0086726D01*
X0066886Y0086728D01*
X0066886Y0118480D02*
X0066886Y0122614D01*
X0066886Y0126728D01*
X0066886Y0143520D01*
X0085114Y0143520D01*
X0085114Y0118480D01*
X0066886Y0118480D01*
X0066886Y0122614D02*
X0066976Y0122616D01*
X0067065Y0122622D01*
X0067154Y0122632D01*
X0067243Y0122645D01*
X0067331Y0122663D01*
X0067418Y0122684D01*
X0067505Y0122709D01*
X0067590Y0122738D01*
X0067673Y0122771D01*
X0067755Y0122807D01*
X0067836Y0122846D01*
X0067915Y0122890D01*
X0067991Y0122936D01*
X0068066Y0122986D01*
X0068138Y0123039D01*
X0068208Y0123095D01*
X0068276Y0123154D01*
X0068341Y0123216D01*
X0068403Y0123281D01*
X0068462Y0123349D01*
X0068518Y0123419D01*
X0068571Y0123491D01*
X0068621Y0123566D01*
X0068667Y0123643D01*
X0068711Y0123721D01*
X0068750Y0123802D01*
X0068786Y0123884D01*
X0068819Y0123967D01*
X0068848Y0124052D01*
X0068873Y0124139D01*
X0068894Y0124226D01*
X0068912Y0124314D01*
X0068925Y0124403D01*
X0068935Y0124492D01*
X0068941Y0124581D01*
X0068943Y0124671D01*
X0068941Y0124761D01*
X0068935Y0124850D01*
X0068925Y0124939D01*
X0068912Y0125028D01*
X0068894Y0125116D01*
X0068873Y0125203D01*
X0068848Y0125290D01*
X0068819Y0125375D01*
X0068786Y0125458D01*
X0068750Y0125540D01*
X0068711Y0125621D01*
X0068667Y0125700D01*
X0068621Y0125776D01*
X0068571Y0125851D01*
X0068518Y0125923D01*
X0068462Y0125993D01*
X0068403Y0126061D01*
X0068341Y0126126D01*
X0068276Y0126188D01*
X0068208Y0126247D01*
X0068138Y0126303D01*
X0068066Y0126356D01*
X0067991Y0126406D01*
X0067915Y0126452D01*
X0067836Y0126496D01*
X0067755Y0126535D01*
X0067673Y0126571D01*
X0067590Y0126604D01*
X0067505Y0126633D01*
X0067418Y0126658D01*
X0067331Y0126679D01*
X0067243Y0126697D01*
X0067154Y0126710D01*
X0067065Y0126720D01*
X0066976Y0126726D01*
X0066886Y0126728D01*
X0057500Y0156500D02*
X0056000Y0156500D01*
X0055500Y0157000D01*
X0036500Y0157000D01*
X0036000Y0156500D01*
X0034500Y0156500D01*
X0034440Y0156502D01*
X0034379Y0156507D01*
X0034320Y0156516D01*
X0034261Y0156529D01*
X0034202Y0156545D01*
X0034145Y0156565D01*
X0034090Y0156588D01*
X0034035Y0156615D01*
X0033983Y0156644D01*
X0033932Y0156677D01*
X0033883Y0156713D01*
X0033837Y0156751D01*
X0033793Y0156793D01*
X0033751Y0156837D01*
X0033713Y0156883D01*
X0033677Y0156932D01*
X0033644Y0156983D01*
X0033615Y0157035D01*
X0033588Y0157090D01*
X0033565Y0157145D01*
X0033545Y0157202D01*
X0033529Y0157261D01*
X0033516Y0157320D01*
X0033507Y0157379D01*
X0033502Y0157440D01*
X0033500Y0157500D01*
X0033500Y0164500D01*
X0033502Y0164560D01*
X0033507Y0164621D01*
X0033516Y0164680D01*
X0033529Y0164739D01*
X0033545Y0164798D01*
X0033565Y0164855D01*
X0033588Y0164910D01*
X0033615Y0164965D01*
X0033644Y0165017D01*
X0033677Y0165068D01*
X0033713Y0165117D01*
X0033751Y0165163D01*
X0033793Y0165207D01*
X0033837Y0165249D01*
X0033883Y0165287D01*
X0033932Y0165323D01*
X0033983Y0165356D01*
X0034035Y0165385D01*
X0034090Y0165412D01*
X0034145Y0165435D01*
X0034202Y0165455D01*
X0034261Y0165471D01*
X0034320Y0165484D01*
X0034379Y0165493D01*
X0034440Y0165498D01*
X0034500Y0165500D01*
X0036000Y0165500D01*
X0036500Y0165000D01*
X0055500Y0165000D01*
X0056000Y0165500D01*
X0057500Y0165500D01*
X0057560Y0165498D01*
X0057621Y0165493D01*
X0057680Y0165484D01*
X0057739Y0165471D01*
X0057798Y0165455D01*
X0057855Y0165435D01*
X0057910Y0165412D01*
X0057965Y0165385D01*
X0058017Y0165356D01*
X0058068Y0165323D01*
X0058117Y0165287D01*
X0058163Y0165249D01*
X0058207Y0165207D01*
X0058249Y0165163D01*
X0058287Y0165117D01*
X0058323Y0165068D01*
X0058356Y0165017D01*
X0058385Y0164965D01*
X0058412Y0164910D01*
X0058435Y0164855D01*
X0058455Y0164798D01*
X0058471Y0164739D01*
X0058484Y0164680D01*
X0058493Y0164621D01*
X0058498Y0164560D01*
X0058500Y0164500D01*
X0058500Y0157500D01*
X0058498Y0157440D01*
X0058493Y0157379D01*
X0058484Y0157320D01*
X0058471Y0157261D01*
X0058455Y0157202D01*
X0058435Y0157145D01*
X0058412Y0157090D01*
X0058385Y0157035D01*
X0058356Y0156983D01*
X0058323Y0156932D01*
X0058287Y0156883D01*
X0058249Y0156837D01*
X0058207Y0156793D01*
X0058163Y0156751D01*
X0058117Y0156713D01*
X0058068Y0156677D01*
X0058017Y0156644D01*
X0057965Y0156615D01*
X0057910Y0156588D01*
X0057855Y0156565D01*
X0057798Y0156545D01*
X0057739Y0156529D01*
X0057680Y0156516D01*
X0057621Y0156507D01*
X0057560Y0156502D01*
X0057500Y0156500D01*
X0057500Y0176500D02*
X0056000Y0176500D01*
X0055500Y0177000D01*
X0036500Y0177000D01*
X0036000Y0176500D01*
X0034500Y0176500D01*
X0034440Y0176502D01*
X0034379Y0176507D01*
X0034320Y0176516D01*
X0034261Y0176529D01*
X0034202Y0176545D01*
X0034145Y0176565D01*
X0034090Y0176588D01*
X0034035Y0176615D01*
X0033983Y0176644D01*
X0033932Y0176677D01*
X0033883Y0176713D01*
X0033837Y0176751D01*
X0033793Y0176793D01*
X0033751Y0176837D01*
X0033713Y0176883D01*
X0033677Y0176932D01*
X0033644Y0176983D01*
X0033615Y0177035D01*
X0033588Y0177090D01*
X0033565Y0177145D01*
X0033545Y0177202D01*
X0033529Y0177261D01*
X0033516Y0177320D01*
X0033507Y0177379D01*
X0033502Y0177440D01*
X0033500Y0177500D01*
X0033500Y0184500D01*
X0033502Y0184560D01*
X0033507Y0184621D01*
X0033516Y0184680D01*
X0033529Y0184739D01*
X0033545Y0184798D01*
X0033565Y0184855D01*
X0033588Y0184910D01*
X0033615Y0184965D01*
X0033644Y0185017D01*
X0033677Y0185068D01*
X0033713Y0185117D01*
X0033751Y0185163D01*
X0033793Y0185207D01*
X0033837Y0185249D01*
X0033883Y0185287D01*
X0033932Y0185323D01*
X0033983Y0185356D01*
X0034035Y0185385D01*
X0034090Y0185412D01*
X0034145Y0185435D01*
X0034202Y0185455D01*
X0034261Y0185471D01*
X0034320Y0185484D01*
X0034379Y0185493D01*
X0034440Y0185498D01*
X0034500Y0185500D01*
X0036000Y0185500D01*
X0036500Y0185000D01*
X0055500Y0185000D01*
X0056000Y0185500D01*
X0057500Y0185500D01*
X0057560Y0185498D01*
X0057621Y0185493D01*
X0057680Y0185484D01*
X0057739Y0185471D01*
X0057798Y0185455D01*
X0057855Y0185435D01*
X0057910Y0185412D01*
X0057965Y0185385D01*
X0058017Y0185356D01*
X0058068Y0185323D01*
X0058117Y0185287D01*
X0058163Y0185249D01*
X0058207Y0185207D01*
X0058249Y0185163D01*
X0058287Y0185117D01*
X0058323Y0185068D01*
X0058356Y0185017D01*
X0058385Y0184965D01*
X0058412Y0184910D01*
X0058435Y0184855D01*
X0058455Y0184798D01*
X0058471Y0184739D01*
X0058484Y0184680D01*
X0058493Y0184621D01*
X0058498Y0184560D01*
X0058500Y0184500D01*
X0058500Y0177500D01*
X0058498Y0177440D01*
X0058493Y0177379D01*
X0058484Y0177320D01*
X0058471Y0177261D01*
X0058455Y0177202D01*
X0058435Y0177145D01*
X0058412Y0177090D01*
X0058385Y0177035D01*
X0058356Y0176983D01*
X0058323Y0176932D01*
X0058287Y0176883D01*
X0058249Y0176837D01*
X0058207Y0176793D01*
X0058163Y0176751D01*
X0058117Y0176713D01*
X0058068Y0176677D01*
X0058017Y0176644D01*
X0057965Y0176615D01*
X0057910Y0176588D01*
X0057855Y0176565D01*
X0057798Y0176545D01*
X0057739Y0176529D01*
X0057680Y0176516D01*
X0057621Y0176507D01*
X0057560Y0176502D01*
X0057500Y0176500D01*
X0083500Y0177500D02*
X0083500Y0184500D01*
X0083502Y0184560D01*
X0083507Y0184621D01*
X0083516Y0184680D01*
X0083529Y0184739D01*
X0083545Y0184798D01*
X0083565Y0184855D01*
X0083588Y0184910D01*
X0083615Y0184965D01*
X0083644Y0185017D01*
X0083677Y0185068D01*
X0083713Y0185117D01*
X0083751Y0185163D01*
X0083793Y0185207D01*
X0083837Y0185249D01*
X0083883Y0185287D01*
X0083932Y0185323D01*
X0083983Y0185356D01*
X0084035Y0185385D01*
X0084090Y0185412D01*
X0084145Y0185435D01*
X0084202Y0185455D01*
X0084261Y0185471D01*
X0084320Y0185484D01*
X0084379Y0185493D01*
X0084440Y0185498D01*
X0084500Y0185500D01*
X0086000Y0185500D01*
X0086500Y0185000D01*
X0105500Y0185000D01*
X0106000Y0185500D01*
X0107500Y0185500D01*
X0107560Y0185498D01*
X0107621Y0185493D01*
X0107680Y0185484D01*
X0107739Y0185471D01*
X0107798Y0185455D01*
X0107855Y0185435D01*
X0107910Y0185412D01*
X0107965Y0185385D01*
X0108017Y0185356D01*
X0108068Y0185323D01*
X0108117Y0185287D01*
X0108163Y0185249D01*
X0108207Y0185207D01*
X0108249Y0185163D01*
X0108287Y0185117D01*
X0108323Y0185068D01*
X0108356Y0185017D01*
X0108385Y0184965D01*
X0108412Y0184910D01*
X0108435Y0184855D01*
X0108455Y0184798D01*
X0108471Y0184739D01*
X0108484Y0184680D01*
X0108493Y0184621D01*
X0108498Y0184560D01*
X0108500Y0184500D01*
X0108500Y0177500D01*
X0108498Y0177440D01*
X0108493Y0177379D01*
X0108484Y0177320D01*
X0108471Y0177261D01*
X0108455Y0177202D01*
X0108435Y0177145D01*
X0108412Y0177090D01*
X0108385Y0177035D01*
X0108356Y0176983D01*
X0108323Y0176932D01*
X0108287Y0176883D01*
X0108249Y0176837D01*
X0108207Y0176793D01*
X0108163Y0176751D01*
X0108117Y0176713D01*
X0108068Y0176677D01*
X0108017Y0176644D01*
X0107965Y0176615D01*
X0107910Y0176588D01*
X0107855Y0176565D01*
X0107798Y0176545D01*
X0107739Y0176529D01*
X0107680Y0176516D01*
X0107621Y0176507D01*
X0107560Y0176502D01*
X0107500Y0176500D01*
X0106000Y0176500D01*
X0105500Y0177000D01*
X0086500Y0177000D01*
X0086000Y0176500D01*
X0084500Y0176500D01*
X0084440Y0176502D01*
X0084379Y0176507D01*
X0084320Y0176516D01*
X0084261Y0176529D01*
X0084202Y0176545D01*
X0084145Y0176565D01*
X0084090Y0176588D01*
X0084035Y0176615D01*
X0083983Y0176644D01*
X0083932Y0176677D01*
X0083883Y0176713D01*
X0083837Y0176751D01*
X0083793Y0176793D01*
X0083751Y0176837D01*
X0083713Y0176883D01*
X0083677Y0176932D01*
X0083644Y0176983D01*
X0083615Y0177035D01*
X0083588Y0177090D01*
X0083565Y0177145D01*
X0083545Y0177202D01*
X0083529Y0177261D01*
X0083516Y0177320D01*
X0083507Y0177379D01*
X0083502Y0177440D01*
X0083500Y0177500D01*
X0089500Y0165500D02*
X0091000Y0165500D01*
X0091500Y0165000D01*
X0110500Y0165000D01*
X0111000Y0165500D01*
X0112500Y0165500D01*
X0112560Y0165498D01*
X0112621Y0165493D01*
X0112680Y0165484D01*
X0112739Y0165471D01*
X0112798Y0165455D01*
X0112855Y0165435D01*
X0112910Y0165412D01*
X0112965Y0165385D01*
X0113017Y0165356D01*
X0113068Y0165323D01*
X0113117Y0165287D01*
X0113163Y0165249D01*
X0113207Y0165207D01*
X0113249Y0165163D01*
X0113287Y0165117D01*
X0113323Y0165068D01*
X0113356Y0165017D01*
X0113385Y0164965D01*
X0113412Y0164910D01*
X0113435Y0164855D01*
X0113455Y0164798D01*
X0113471Y0164739D01*
X0113484Y0164680D01*
X0113493Y0164621D01*
X0113498Y0164560D01*
X0113500Y0164500D01*
X0113500Y0157500D01*
X0113498Y0157440D01*
X0113493Y0157379D01*
X0113484Y0157320D01*
X0113471Y0157261D01*
X0113455Y0157202D01*
X0113435Y0157145D01*
X0113412Y0157090D01*
X0113385Y0157035D01*
X0113356Y0156983D01*
X0113323Y0156932D01*
X0113287Y0156883D01*
X0113249Y0156837D01*
X0113207Y0156793D01*
X0113163Y0156751D01*
X0113117Y0156713D01*
X0113068Y0156677D01*
X0113017Y0156644D01*
X0112965Y0156615D01*
X0112910Y0156588D01*
X0112855Y0156565D01*
X0112798Y0156545D01*
X0112739Y0156529D01*
X0112680Y0156516D01*
X0112621Y0156507D01*
X0112560Y0156502D01*
X0112500Y0156500D01*
X0111000Y0156500D01*
X0110500Y0157000D01*
X0091500Y0157000D01*
X0091000Y0156500D01*
X0089500Y0156500D01*
X0089440Y0156502D01*
X0089379Y0156507D01*
X0089320Y0156516D01*
X0089261Y0156529D01*
X0089202Y0156545D01*
X0089145Y0156565D01*
X0089090Y0156588D01*
X0089035Y0156615D01*
X0088983Y0156644D01*
X0088932Y0156677D01*
X0088883Y0156713D01*
X0088837Y0156751D01*
X0088793Y0156793D01*
X0088751Y0156837D01*
X0088713Y0156883D01*
X0088677Y0156932D01*
X0088644Y0156983D01*
X0088615Y0157035D01*
X0088588Y0157090D01*
X0088565Y0157145D01*
X0088545Y0157202D01*
X0088529Y0157261D01*
X0088516Y0157320D01*
X0088507Y0157379D01*
X0088502Y0157440D01*
X0088500Y0157500D01*
X0088500Y0164500D01*
X0088502Y0164560D01*
X0088507Y0164621D01*
X0088516Y0164680D01*
X0088529Y0164739D01*
X0088545Y0164798D01*
X0088565Y0164855D01*
X0088588Y0164910D01*
X0088615Y0164965D01*
X0088644Y0165017D01*
X0088677Y0165068D01*
X0088713Y0165117D01*
X0088751Y0165163D01*
X0088793Y0165207D01*
X0088837Y0165249D01*
X0088883Y0165287D01*
X0088932Y0165323D01*
X0088983Y0165356D01*
X0089035Y0165385D01*
X0089090Y0165412D01*
X0089145Y0165435D01*
X0089202Y0165455D01*
X0089261Y0165471D01*
X0089320Y0165484D01*
X0089379Y0165493D01*
X0089440Y0165498D01*
X0089500Y0165500D01*
X0116886Y0143520D02*
X0135114Y0143520D01*
X0135114Y0118480D01*
X0116886Y0118480D01*
X0116886Y0122614D01*
X0116886Y0126728D01*
X0116886Y0143520D01*
X0116886Y0126728D02*
X0116976Y0126726D01*
X0117065Y0126720D01*
X0117154Y0126710D01*
X0117243Y0126697D01*
X0117331Y0126679D01*
X0117418Y0126658D01*
X0117505Y0126633D01*
X0117590Y0126604D01*
X0117673Y0126571D01*
X0117755Y0126535D01*
X0117836Y0126496D01*
X0117915Y0126452D01*
X0117991Y0126406D01*
X0118066Y0126356D01*
X0118138Y0126303D01*
X0118208Y0126247D01*
X0118276Y0126188D01*
X0118341Y0126126D01*
X0118403Y0126061D01*
X0118462Y0125993D01*
X0118518Y0125923D01*
X0118571Y0125851D01*
X0118621Y0125776D01*
X0118667Y0125700D01*
X0118711Y0125621D01*
X0118750Y0125540D01*
X0118786Y0125458D01*
X0118819Y0125375D01*
X0118848Y0125290D01*
X0118873Y0125203D01*
X0118894Y0125116D01*
X0118912Y0125028D01*
X0118925Y0124939D01*
X0118935Y0124850D01*
X0118941Y0124761D01*
X0118943Y0124671D01*
X0118941Y0124581D01*
X0118935Y0124492D01*
X0118925Y0124403D01*
X0118912Y0124314D01*
X0118894Y0124226D01*
X0118873Y0124139D01*
X0118848Y0124052D01*
X0118819Y0123967D01*
X0118786Y0123884D01*
X0118750Y0123802D01*
X0118711Y0123721D01*
X0118667Y0123643D01*
X0118621Y0123566D01*
X0118571Y0123491D01*
X0118518Y0123419D01*
X0118462Y0123349D01*
X0118403Y0123281D01*
X0118341Y0123216D01*
X0118276Y0123154D01*
X0118208Y0123095D01*
X0118138Y0123039D01*
X0118066Y0122986D01*
X0117991Y0122936D01*
X0117915Y0122890D01*
X0117836Y0122846D01*
X0117755Y0122807D01*
X0117673Y0122771D01*
X0117590Y0122738D01*
X0117505Y0122709D01*
X0117418Y0122684D01*
X0117331Y0122663D01*
X0117243Y0122645D01*
X0117154Y0122632D01*
X0117065Y0122622D01*
X0116976Y0122616D01*
X0116886Y0122614D01*
X0121886Y0098520D02*
X0140114Y0098520D01*
X0140114Y0073480D01*
X0121886Y0073480D01*
X0121886Y0077614D01*
X0121886Y0081728D01*
X0121886Y0098520D01*
X0121886Y0081728D02*
X0121976Y0081726D01*
X0122065Y0081720D01*
X0122154Y0081710D01*
X0122243Y0081697D01*
X0122331Y0081679D01*
X0122418Y0081658D01*
X0122505Y0081633D01*
X0122590Y0081604D01*
X0122673Y0081571D01*
X0122755Y0081535D01*
X0122836Y0081496D01*
X0122915Y0081452D01*
X0122991Y0081406D01*
X0123066Y0081356D01*
X0123138Y0081303D01*
X0123208Y0081247D01*
X0123276Y0081188D01*
X0123341Y0081126D01*
X0123403Y0081061D01*
X0123462Y0080993D01*
X0123518Y0080923D01*
X0123571Y0080851D01*
X0123621Y0080776D01*
X0123667Y0080700D01*
X0123711Y0080621D01*
X0123750Y0080540D01*
X0123786Y0080458D01*
X0123819Y0080375D01*
X0123848Y0080290D01*
X0123873Y0080203D01*
X0123894Y0080116D01*
X0123912Y0080028D01*
X0123925Y0079939D01*
X0123935Y0079850D01*
X0123941Y0079761D01*
X0123943Y0079671D01*
X0123941Y0079581D01*
X0123935Y0079492D01*
X0123925Y0079403D01*
X0123912Y0079314D01*
X0123894Y0079226D01*
X0123873Y0079139D01*
X0123848Y0079052D01*
X0123819Y0078967D01*
X0123786Y0078884D01*
X0123750Y0078802D01*
X0123711Y0078721D01*
X0123667Y0078643D01*
X0123621Y0078566D01*
X0123571Y0078491D01*
X0123518Y0078419D01*
X0123462Y0078349D01*
X0123403Y0078281D01*
X0123341Y0078216D01*
X0123276Y0078154D01*
X0123208Y0078095D01*
X0123138Y0078039D01*
X0123066Y0077986D01*
X0122991Y0077936D01*
X0122915Y0077890D01*
X0122836Y0077846D01*
X0122755Y0077807D01*
X0122673Y0077771D01*
X0122590Y0077738D01*
X0122505Y0077709D01*
X0122418Y0077684D01*
X0122331Y0077663D01*
X0122243Y0077645D01*
X0122154Y0077632D01*
X0122065Y0077622D01*
X0121976Y0077616D01*
X0121886Y0077614D01*
X0166886Y0077614D02*
X0166886Y0073480D01*
X0185114Y0073480D01*
X0185114Y0098520D01*
X0166886Y0098520D01*
X0166886Y0081728D01*
X0166886Y0077614D01*
X0166976Y0077616D01*
X0167065Y0077622D01*
X0167154Y0077632D01*
X0167243Y0077645D01*
X0167331Y0077663D01*
X0167418Y0077684D01*
X0167505Y0077709D01*
X0167590Y0077738D01*
X0167673Y0077771D01*
X0167755Y0077807D01*
X0167836Y0077846D01*
X0167915Y0077890D01*
X0167991Y0077936D01*
X0168066Y0077986D01*
X0168138Y0078039D01*
X0168208Y0078095D01*
X0168276Y0078154D01*
X0168341Y0078216D01*
X0168403Y0078281D01*
X0168462Y0078349D01*
X0168518Y0078419D01*
X0168571Y0078491D01*
X0168621Y0078566D01*
X0168667Y0078643D01*
X0168711Y0078721D01*
X0168750Y0078802D01*
X0168786Y0078884D01*
X0168819Y0078967D01*
X0168848Y0079052D01*
X0168873Y0079139D01*
X0168894Y0079226D01*
X0168912Y0079314D01*
X0168925Y0079403D01*
X0168935Y0079492D01*
X0168941Y0079581D01*
X0168943Y0079671D01*
X0168941Y0079761D01*
X0168935Y0079850D01*
X0168925Y0079939D01*
X0168912Y0080028D01*
X0168894Y0080116D01*
X0168873Y0080203D01*
X0168848Y0080290D01*
X0168819Y0080375D01*
X0168786Y0080458D01*
X0168750Y0080540D01*
X0168711Y0080621D01*
X0168667Y0080700D01*
X0168621Y0080776D01*
X0168571Y0080851D01*
X0168518Y0080923D01*
X0168462Y0080993D01*
X0168403Y0081061D01*
X0168341Y0081126D01*
X0168276Y0081188D01*
X0168208Y0081247D01*
X0168138Y0081303D01*
X0168066Y0081356D01*
X0167991Y0081406D01*
X0167915Y0081452D01*
X0167836Y0081496D01*
X0167755Y0081535D01*
X0167673Y0081571D01*
X0167590Y0081604D01*
X0167505Y0081633D01*
X0167418Y0081658D01*
X0167331Y0081679D01*
X0167243Y0081697D01*
X0167154Y0081710D01*
X0167065Y0081720D01*
X0166976Y0081726D01*
X0166886Y0081728D01*
X0219500Y0111000D02*
X0227000Y0111000D01*
X0227002Y0110874D01*
X0227008Y0110749D01*
X0227018Y0110624D01*
X0227032Y0110499D01*
X0227049Y0110374D01*
X0227071Y0110250D01*
X0227096Y0110127D01*
X0227126Y0110005D01*
X0227159Y0109884D01*
X0227196Y0109764D01*
X0227236Y0109645D01*
X0227281Y0109528D01*
X0227329Y0109411D01*
X0227381Y0109297D01*
X0227436Y0109184D01*
X0227495Y0109073D01*
X0227557Y0108964D01*
X0227623Y0108857D01*
X0227692Y0108752D01*
X0227764Y0108649D01*
X0227839Y0108548D01*
X0227918Y0108450D01*
X0228000Y0108355D01*
X0228084Y0108262D01*
X0228172Y0108172D01*
X0228262Y0108084D01*
X0228355Y0108000D01*
X0228450Y0107918D01*
X0228548Y0107839D01*
X0228649Y0107764D01*
X0228752Y0107692D01*
X0228857Y0107623D01*
X0228964Y0107557D01*
X0229073Y0107495D01*
X0229184Y0107436D01*
X0229297Y0107381D01*
X0229411Y0107329D01*
X0229528Y0107281D01*
X0229645Y0107236D01*
X0229764Y0107196D01*
X0229884Y0107159D01*
X0230005Y0107126D01*
X0230127Y0107096D01*
X0230250Y0107071D01*
X0230374Y0107049D01*
X0230499Y0107032D01*
X0230624Y0107018D01*
X0230749Y0107008D01*
X0230874Y0107002D01*
X0231000Y0107000D01*
X0231126Y0107002D01*
X0231251Y0107008D01*
X0231376Y0107018D01*
X0231501Y0107032D01*
X0231626Y0107049D01*
X0231750Y0107071D01*
X0231873Y0107096D01*
X0231995Y0107126D01*
X0232116Y0107159D01*
X0232236Y0107196D01*
X0232355Y0107236D01*
X0232472Y0107281D01*
X0232589Y0107329D01*
X0232703Y0107381D01*
X0232816Y0107436D01*
X0232927Y0107495D01*
X0233036Y0107557D01*
X0233143Y0107623D01*
X0233248Y0107692D01*
X0233351Y0107764D01*
X0233452Y0107839D01*
X0233550Y0107918D01*
X0233645Y0108000D01*
X0233738Y0108084D01*
X0233828Y0108172D01*
X0233916Y0108262D01*
X0234000Y0108355D01*
X0234082Y0108450D01*
X0234161Y0108548D01*
X0234236Y0108649D01*
X0234308Y0108752D01*
X0234377Y0108857D01*
X0234443Y0108964D01*
X0234505Y0109073D01*
X0234564Y0109184D01*
X0234619Y0109297D01*
X0234671Y0109411D01*
X0234719Y0109528D01*
X0234764Y0109645D01*
X0234804Y0109764D01*
X0234841Y0109884D01*
X0234874Y0110005D01*
X0234904Y0110127D01*
X0234929Y0110250D01*
X0234951Y0110374D01*
X0234968Y0110499D01*
X0234982Y0110624D01*
X0234992Y0110749D01*
X0234998Y0110874D01*
X0235000Y0111000D01*
X0242500Y0111000D01*
X0242500Y0041000D01*
X0219500Y0041000D01*
X0219500Y0111000D01*
X0219500Y0131000D02*
X0242500Y0131000D01*
X0242500Y0201000D01*
X0235000Y0201000D01*
X0234998Y0200874D01*
X0234992Y0200749D01*
X0234982Y0200624D01*
X0234968Y0200499D01*
X0234951Y0200374D01*
X0234929Y0200250D01*
X0234904Y0200127D01*
X0234874Y0200005D01*
X0234841Y0199884D01*
X0234804Y0199764D01*
X0234764Y0199645D01*
X0234719Y0199528D01*
X0234671Y0199411D01*
X0234619Y0199297D01*
X0234564Y0199184D01*
X0234505Y0199073D01*
X0234443Y0198964D01*
X0234377Y0198857D01*
X0234308Y0198752D01*
X0234236Y0198649D01*
X0234161Y0198548D01*
X0234082Y0198450D01*
X0234000Y0198355D01*
X0233916Y0198262D01*
X0233828Y0198172D01*
X0233738Y0198084D01*
X0233645Y0198000D01*
X0233550Y0197918D01*
X0233452Y0197839D01*
X0233351Y0197764D01*
X0233248Y0197692D01*
X0233143Y0197623D01*
X0233036Y0197557D01*
X0232927Y0197495D01*
X0232816Y0197436D01*
X0232703Y0197381D01*
X0232589Y0197329D01*
X0232472Y0197281D01*
X0232355Y0197236D01*
X0232236Y0197196D01*
X0232116Y0197159D01*
X0231995Y0197126D01*
X0231873Y0197096D01*
X0231750Y0197071D01*
X0231626Y0197049D01*
X0231501Y0197032D01*
X0231376Y0197018D01*
X0231251Y0197008D01*
X0231126Y0197002D01*
X0231000Y0197000D01*
X0230874Y0197002D01*
X0230749Y0197008D01*
X0230624Y0197018D01*
X0230499Y0197032D01*
X0230374Y0197049D01*
X0230250Y0197071D01*
X0230127Y0197096D01*
X0230005Y0197126D01*
X0229884Y0197159D01*
X0229764Y0197196D01*
X0229645Y0197236D01*
X0229528Y0197281D01*
X0229411Y0197329D01*
X0229297Y0197381D01*
X0229184Y0197436D01*
X0229073Y0197495D01*
X0228964Y0197557D01*
X0228857Y0197623D01*
X0228752Y0197692D01*
X0228649Y0197764D01*
X0228548Y0197839D01*
X0228450Y0197918D01*
X0228355Y0198000D01*
X0228262Y0198084D01*
X0228172Y0198172D01*
X0228084Y0198262D01*
X0228000Y0198355D01*
X0227918Y0198450D01*
X0227839Y0198548D01*
X0227764Y0198649D01*
X0227692Y0198752D01*
X0227623Y0198857D01*
X0227557Y0198964D01*
X0227495Y0199073D01*
X0227436Y0199184D01*
X0227381Y0199297D01*
X0227329Y0199411D01*
X0227281Y0199528D01*
X0227236Y0199645D01*
X0227196Y0199764D01*
X0227159Y0199884D01*
X0227126Y0200005D01*
X0227096Y0200127D01*
X0227071Y0200250D01*
X0227049Y0200374D01*
X0227032Y0200499D01*
X0227018Y0200624D01*
X0227008Y0200749D01*
X0227002Y0200874D01*
X0227000Y0201000D01*
X0219500Y0201000D01*
X0219500Y0131000D01*
X0180114Y0118480D02*
X0161886Y0118480D01*
X0161886Y0122614D01*
X0161886Y0126728D01*
X0161886Y0143520D01*
X0180114Y0143520D01*
X0180114Y0118480D01*
X0161886Y0122614D02*
X0161976Y0122616D01*
X0162065Y0122622D01*
X0162154Y0122632D01*
X0162243Y0122645D01*
X0162331Y0122663D01*
X0162418Y0122684D01*
X0162505Y0122709D01*
X0162590Y0122738D01*
X0162673Y0122771D01*
X0162755Y0122807D01*
X0162836Y0122846D01*
X0162915Y0122890D01*
X0162991Y0122936D01*
X0163066Y0122986D01*
X0163138Y0123039D01*
X0163208Y0123095D01*
X0163276Y0123154D01*
X0163341Y0123216D01*
X0163403Y0123281D01*
X0163462Y0123349D01*
X0163518Y0123419D01*
X0163571Y0123491D01*
X0163621Y0123566D01*
X0163667Y0123643D01*
X0163711Y0123721D01*
X0163750Y0123802D01*
X0163786Y0123884D01*
X0163819Y0123967D01*
X0163848Y0124052D01*
X0163873Y0124139D01*
X0163894Y0124226D01*
X0163912Y0124314D01*
X0163925Y0124403D01*
X0163935Y0124492D01*
X0163941Y0124581D01*
X0163943Y0124671D01*
X0163941Y0124761D01*
X0163935Y0124850D01*
X0163925Y0124939D01*
X0163912Y0125028D01*
X0163894Y0125116D01*
X0163873Y0125203D01*
X0163848Y0125290D01*
X0163819Y0125375D01*
X0163786Y0125458D01*
X0163750Y0125540D01*
X0163711Y0125621D01*
X0163667Y0125700D01*
X0163621Y0125776D01*
X0163571Y0125851D01*
X0163518Y0125923D01*
X0163462Y0125993D01*
X0163403Y0126061D01*
X0163341Y0126126D01*
X0163276Y0126188D01*
X0163208Y0126247D01*
X0163138Y0126303D01*
X0163066Y0126356D01*
X0162991Y0126406D01*
X0162915Y0126452D01*
X0162836Y0126496D01*
X0162755Y0126535D01*
X0162673Y0126571D01*
X0162590Y0126604D01*
X0162505Y0126633D01*
X0162418Y0126658D01*
X0162331Y0126679D01*
X0162243Y0126697D01*
X0162154Y0126710D01*
X0162065Y0126720D01*
X0161976Y0126726D01*
X0161886Y0126728D01*
X0156886Y0173480D02*
X0156886Y0177614D01*
X0156886Y0181728D01*
X0156886Y0198520D01*
X0175114Y0198520D01*
X0175114Y0173480D01*
X0156886Y0173480D01*
X0156886Y0177614D02*
X0156976Y0177616D01*
X0157065Y0177622D01*
X0157154Y0177632D01*
X0157243Y0177645D01*
X0157331Y0177663D01*
X0157418Y0177684D01*
X0157505Y0177709D01*
X0157590Y0177738D01*
X0157673Y0177771D01*
X0157755Y0177807D01*
X0157836Y0177846D01*
X0157915Y0177890D01*
X0157991Y0177936D01*
X0158066Y0177986D01*
X0158138Y0178039D01*
X0158208Y0178095D01*
X0158276Y0178154D01*
X0158341Y0178216D01*
X0158403Y0178281D01*
X0158462Y0178349D01*
X0158518Y0178419D01*
X0158571Y0178491D01*
X0158621Y0178566D01*
X0158667Y0178643D01*
X0158711Y0178721D01*
X0158750Y0178802D01*
X0158786Y0178884D01*
X0158819Y0178967D01*
X0158848Y0179052D01*
X0158873Y0179139D01*
X0158894Y0179226D01*
X0158912Y0179314D01*
X0158925Y0179403D01*
X0158935Y0179492D01*
X0158941Y0179581D01*
X0158943Y0179671D01*
X0158941Y0179761D01*
X0158935Y0179850D01*
X0158925Y0179939D01*
X0158912Y0180028D01*
X0158894Y0180116D01*
X0158873Y0180203D01*
X0158848Y0180290D01*
X0158819Y0180375D01*
X0158786Y0180458D01*
X0158750Y0180540D01*
X0158711Y0180621D01*
X0158667Y0180700D01*
X0158621Y0180776D01*
X0158571Y0180851D01*
X0158518Y0180923D01*
X0158462Y0180993D01*
X0158403Y0181061D01*
X0158341Y0181126D01*
X0158276Y0181188D01*
X0158208Y0181247D01*
X0158138Y0181303D01*
X0158066Y0181356D01*
X0157991Y0181406D01*
X0157915Y0181452D01*
X0157836Y0181496D01*
X0157755Y0181535D01*
X0157673Y0181571D01*
X0157590Y0181604D01*
X0157505Y0181633D01*
X0157418Y0181658D01*
X0157331Y0181679D01*
X0157243Y0181697D01*
X0157154Y0181710D01*
X0157065Y0181720D01*
X0156976Y0181726D01*
X0156886Y0181728D01*
X0108500Y0202500D02*
X0108500Y0209500D01*
X0108498Y0209560D01*
X0108493Y0209621D01*
X0108484Y0209680D01*
X0108471Y0209739D01*
X0108455Y0209798D01*
X0108435Y0209855D01*
X0108412Y0209910D01*
X0108385Y0209965D01*
X0108356Y0210017D01*
X0108323Y0210068D01*
X0108287Y0210117D01*
X0108249Y0210163D01*
X0108207Y0210207D01*
X0108163Y0210249D01*
X0108117Y0210287D01*
X0108068Y0210323D01*
X0108017Y0210356D01*
X0107965Y0210385D01*
X0107910Y0210412D01*
X0107855Y0210435D01*
X0107798Y0210455D01*
X0107739Y0210471D01*
X0107680Y0210484D01*
X0107621Y0210493D01*
X0107560Y0210498D01*
X0107500Y0210500D01*
X0106000Y0210500D01*
X0105500Y0210000D01*
X0086500Y0210000D01*
X0086000Y0210500D01*
X0084500Y0210500D01*
X0084440Y0210498D01*
X0084379Y0210493D01*
X0084320Y0210484D01*
X0084261Y0210471D01*
X0084202Y0210455D01*
X0084145Y0210435D01*
X0084090Y0210412D01*
X0084035Y0210385D01*
X0083983Y0210356D01*
X0083932Y0210323D01*
X0083883Y0210287D01*
X0083837Y0210249D01*
X0083793Y0210207D01*
X0083751Y0210163D01*
X0083713Y0210117D01*
X0083677Y0210068D01*
X0083644Y0210017D01*
X0083615Y0209965D01*
X0083588Y0209910D01*
X0083565Y0209855D01*
X0083545Y0209798D01*
X0083529Y0209739D01*
X0083516Y0209680D01*
X0083507Y0209621D01*
X0083502Y0209560D01*
X0083500Y0209500D01*
X0083500Y0202500D01*
X0083502Y0202440D01*
X0083507Y0202379D01*
X0083516Y0202320D01*
X0083529Y0202261D01*
X0083545Y0202202D01*
X0083565Y0202145D01*
X0083588Y0202090D01*
X0083615Y0202035D01*
X0083644Y0201983D01*
X0083677Y0201932D01*
X0083713Y0201883D01*
X0083751Y0201837D01*
X0083793Y0201793D01*
X0083837Y0201751D01*
X0083883Y0201713D01*
X0083932Y0201677D01*
X0083983Y0201644D01*
X0084035Y0201615D01*
X0084090Y0201588D01*
X0084145Y0201565D01*
X0084202Y0201545D01*
X0084261Y0201529D01*
X0084320Y0201516D01*
X0084379Y0201507D01*
X0084440Y0201502D01*
X0084500Y0201500D01*
X0086000Y0201500D01*
X0086500Y0202000D01*
X0105500Y0202000D01*
X0106000Y0201500D01*
X0107500Y0201500D01*
X0107560Y0201502D01*
X0107621Y0201507D01*
X0107680Y0201516D01*
X0107739Y0201529D01*
X0107798Y0201545D01*
X0107855Y0201565D01*
X0107910Y0201588D01*
X0107965Y0201615D01*
X0108017Y0201644D01*
X0108068Y0201677D01*
X0108117Y0201713D01*
X0108163Y0201751D01*
X0108207Y0201793D01*
X0108249Y0201837D01*
X0108287Y0201883D01*
X0108323Y0201932D01*
X0108356Y0201983D01*
X0108385Y0202035D01*
X0108412Y0202090D01*
X0108435Y0202145D01*
X0108455Y0202202D01*
X0108471Y0202261D01*
X0108484Y0202320D01*
X0108493Y0202379D01*
X0108498Y0202440D01*
X0108500Y0202500D01*
X0058500Y0202500D02*
X0058500Y0209500D01*
X0058498Y0209560D01*
X0058493Y0209621D01*
X0058484Y0209680D01*
X0058471Y0209739D01*
X0058455Y0209798D01*
X0058435Y0209855D01*
X0058412Y0209910D01*
X0058385Y0209965D01*
X0058356Y0210017D01*
X0058323Y0210068D01*
X0058287Y0210117D01*
X0058249Y0210163D01*
X0058207Y0210207D01*
X0058163Y0210249D01*
X0058117Y0210287D01*
X0058068Y0210323D01*
X0058017Y0210356D01*
X0057965Y0210385D01*
X0057910Y0210412D01*
X0057855Y0210435D01*
X0057798Y0210455D01*
X0057739Y0210471D01*
X0057680Y0210484D01*
X0057621Y0210493D01*
X0057560Y0210498D01*
X0057500Y0210500D01*
X0056000Y0210500D01*
X0055500Y0210000D01*
X0036500Y0210000D01*
X0036000Y0210500D01*
X0034500Y0210500D01*
X0034440Y0210498D01*
X0034379Y0210493D01*
X0034320Y0210484D01*
X0034261Y0210471D01*
X0034202Y0210455D01*
X0034145Y0210435D01*
X0034090Y0210412D01*
X0034035Y0210385D01*
X0033983Y0210356D01*
X0033932Y0210323D01*
X0033883Y0210287D01*
X0033837Y0210249D01*
X0033793Y0210207D01*
X0033751Y0210163D01*
X0033713Y0210117D01*
X0033677Y0210068D01*
X0033644Y0210017D01*
X0033615Y0209965D01*
X0033588Y0209910D01*
X0033565Y0209855D01*
X0033545Y0209798D01*
X0033529Y0209739D01*
X0033516Y0209680D01*
X0033507Y0209621D01*
X0033502Y0209560D01*
X0033500Y0209500D01*
X0033500Y0202500D01*
X0033502Y0202440D01*
X0033507Y0202379D01*
X0033516Y0202320D01*
X0033529Y0202261D01*
X0033545Y0202202D01*
X0033565Y0202145D01*
X0033588Y0202090D01*
X0033615Y0202035D01*
X0033644Y0201983D01*
X0033677Y0201932D01*
X0033713Y0201883D01*
X0033751Y0201837D01*
X0033793Y0201793D01*
X0033837Y0201751D01*
X0033883Y0201713D01*
X0033932Y0201677D01*
X0033983Y0201644D01*
X0034035Y0201615D01*
X0034090Y0201588D01*
X0034145Y0201565D01*
X0034202Y0201545D01*
X0034261Y0201529D01*
X0034320Y0201516D01*
X0034379Y0201507D01*
X0034440Y0201502D01*
X0034500Y0201500D01*
X0036000Y0201500D01*
X0036500Y0202000D01*
X0055500Y0202000D01*
X0056000Y0201500D01*
X0057500Y0201500D01*
X0057560Y0201502D01*
X0057621Y0201507D01*
X0057680Y0201516D01*
X0057739Y0201529D01*
X0057798Y0201545D01*
X0057855Y0201565D01*
X0057910Y0201588D01*
X0057965Y0201615D01*
X0058017Y0201644D01*
X0058068Y0201677D01*
X0058117Y0201713D01*
X0058163Y0201751D01*
X0058207Y0201793D01*
X0058249Y0201837D01*
X0058287Y0201883D01*
X0058323Y0201932D01*
X0058356Y0201983D01*
X0058385Y0202035D01*
X0058412Y0202090D01*
X0058435Y0202145D01*
X0058455Y0202202D01*
X0058471Y0202261D01*
X0058484Y0202320D01*
X0058493Y0202379D01*
X0058498Y0202440D01*
X0058500Y0202500D01*
X0161000Y0223500D02*
X0163500Y0221000D01*
X0168500Y0221000D01*
X0171000Y0223500D01*
X0173500Y0221000D01*
X0178500Y0221000D01*
X0181000Y0223500D01*
X0183500Y0221000D01*
X0188500Y0221000D01*
X0191000Y0223500D01*
X0193500Y0221000D01*
X0198500Y0221000D01*
X0201000Y0223500D01*
X0203500Y0221000D01*
X0208500Y0221000D01*
X0211000Y0223500D01*
X0213500Y0221000D01*
X0218500Y0221000D01*
X0221000Y0223500D01*
X0223500Y0221000D01*
X0228500Y0221000D01*
X0231000Y0223500D01*
X0231000Y0228500D01*
X0228500Y0231000D01*
X0223500Y0231000D01*
X0221000Y0228500D01*
X0218500Y0231000D01*
X0213500Y0231000D01*
X0211000Y0228500D01*
X0208500Y0231000D01*
X0203500Y0231000D01*
X0201000Y0228500D01*
X0198500Y0231000D01*
X0193500Y0231000D01*
X0191000Y0228500D01*
X0188500Y0231000D01*
X0183500Y0231000D01*
X0181000Y0228500D01*
X0178500Y0231000D01*
X0173500Y0231000D01*
X0171000Y0228500D01*
X0168500Y0231000D01*
X0163500Y0231000D01*
X0161000Y0228500D01*
X0161000Y0223500D01*
X0283500Y0204500D02*
X0283500Y0197500D01*
X0283502Y0197440D01*
X0283507Y0197379D01*
X0283516Y0197320D01*
X0283529Y0197261D01*
X0283545Y0197202D01*
X0283565Y0197145D01*
X0283588Y0197090D01*
X0283615Y0197035D01*
X0283644Y0196983D01*
X0283677Y0196932D01*
X0283713Y0196883D01*
X0283751Y0196837D01*
X0283793Y0196793D01*
X0283837Y0196751D01*
X0283883Y0196713D01*
X0283932Y0196677D01*
X0283983Y0196644D01*
X0284035Y0196615D01*
X0284090Y0196588D01*
X0284145Y0196565D01*
X0284202Y0196545D01*
X0284261Y0196529D01*
X0284320Y0196516D01*
X0284379Y0196507D01*
X0284440Y0196502D01*
X0284500Y0196500D01*
X0286000Y0196500D01*
X0286500Y0197000D01*
X0305500Y0197000D01*
X0306000Y0196500D01*
X0307500Y0196500D01*
X0307560Y0196502D01*
X0307621Y0196507D01*
X0307680Y0196516D01*
X0307739Y0196529D01*
X0307798Y0196545D01*
X0307855Y0196565D01*
X0307910Y0196588D01*
X0307965Y0196615D01*
X0308017Y0196644D01*
X0308068Y0196677D01*
X0308117Y0196713D01*
X0308163Y0196751D01*
X0308207Y0196793D01*
X0308249Y0196837D01*
X0308287Y0196883D01*
X0308323Y0196932D01*
X0308356Y0196983D01*
X0308385Y0197035D01*
X0308412Y0197090D01*
X0308435Y0197145D01*
X0308455Y0197202D01*
X0308471Y0197261D01*
X0308484Y0197320D01*
X0308493Y0197379D01*
X0308498Y0197440D01*
X0308500Y0197500D01*
X0308500Y0204500D01*
X0308498Y0204560D01*
X0308493Y0204621D01*
X0308484Y0204680D01*
X0308471Y0204739D01*
X0308455Y0204798D01*
X0308435Y0204855D01*
X0308412Y0204910D01*
X0308385Y0204965D01*
X0308356Y0205017D01*
X0308323Y0205068D01*
X0308287Y0205117D01*
X0308249Y0205163D01*
X0308207Y0205207D01*
X0308163Y0205249D01*
X0308117Y0205287D01*
X0308068Y0205323D01*
X0308017Y0205356D01*
X0307965Y0205385D01*
X0307910Y0205412D01*
X0307855Y0205435D01*
X0307798Y0205455D01*
X0307739Y0205471D01*
X0307680Y0205484D01*
X0307621Y0205493D01*
X0307560Y0205498D01*
X0307500Y0205500D01*
X0306000Y0205500D01*
X0305500Y0205000D01*
X0286500Y0205000D01*
X0286000Y0205500D01*
X0284500Y0205500D01*
X0284440Y0205498D01*
X0284379Y0205493D01*
X0284320Y0205484D01*
X0284261Y0205471D01*
X0284202Y0205455D01*
X0284145Y0205435D01*
X0284090Y0205412D01*
X0284035Y0205385D01*
X0283983Y0205356D01*
X0283932Y0205323D01*
X0283883Y0205287D01*
X0283837Y0205249D01*
X0283793Y0205207D01*
X0283751Y0205163D01*
X0283713Y0205117D01*
X0283677Y0205068D01*
X0283644Y0205017D01*
X0283615Y0204965D01*
X0283588Y0204910D01*
X0283565Y0204855D01*
X0283545Y0204798D01*
X0283529Y0204739D01*
X0283516Y0204680D01*
X0283507Y0204621D01*
X0283502Y0204560D01*
X0283500Y0204500D01*
X0284500Y0185500D02*
X0286000Y0185500D01*
X0286500Y0185000D01*
X0305500Y0185000D01*
X0306000Y0185500D01*
X0307500Y0185500D01*
X0307560Y0185498D01*
X0307621Y0185493D01*
X0307680Y0185484D01*
X0307739Y0185471D01*
X0307798Y0185455D01*
X0307855Y0185435D01*
X0307910Y0185412D01*
X0307965Y0185385D01*
X0308017Y0185356D01*
X0308068Y0185323D01*
X0308117Y0185287D01*
X0308163Y0185249D01*
X0308207Y0185207D01*
X0308249Y0185163D01*
X0308287Y0185117D01*
X0308323Y0185068D01*
X0308356Y0185017D01*
X0308385Y0184965D01*
X0308412Y0184910D01*
X0308435Y0184855D01*
X0308455Y0184798D01*
X0308471Y0184739D01*
X0308484Y0184680D01*
X0308493Y0184621D01*
X0308498Y0184560D01*
X0308500Y0184500D01*
X0308500Y0177500D01*
X0308498Y0177440D01*
X0308493Y0177379D01*
X0308484Y0177320D01*
X0308471Y0177261D01*
X0308455Y0177202D01*
X0308435Y0177145D01*
X0308412Y0177090D01*
X0308385Y0177035D01*
X0308356Y0176983D01*
X0308323Y0176932D01*
X0308287Y0176883D01*
X0308249Y0176837D01*
X0308207Y0176793D01*
X0308163Y0176751D01*
X0308117Y0176713D01*
X0308068Y0176677D01*
X0308017Y0176644D01*
X0307965Y0176615D01*
X0307910Y0176588D01*
X0307855Y0176565D01*
X0307798Y0176545D01*
X0307739Y0176529D01*
X0307680Y0176516D01*
X0307621Y0176507D01*
X0307560Y0176502D01*
X0307500Y0176500D01*
X0306000Y0176500D01*
X0305500Y0177000D01*
X0286500Y0177000D01*
X0286000Y0176500D01*
X0284500Y0176500D01*
X0284440Y0176502D01*
X0284379Y0176507D01*
X0284320Y0176516D01*
X0284261Y0176529D01*
X0284202Y0176545D01*
X0284145Y0176565D01*
X0284090Y0176588D01*
X0284035Y0176615D01*
X0283983Y0176644D01*
X0283932Y0176677D01*
X0283883Y0176713D01*
X0283837Y0176751D01*
X0283793Y0176793D01*
X0283751Y0176837D01*
X0283713Y0176883D01*
X0283677Y0176932D01*
X0283644Y0176983D01*
X0283615Y0177035D01*
X0283588Y0177090D01*
X0283565Y0177145D01*
X0283545Y0177202D01*
X0283529Y0177261D01*
X0283516Y0177320D01*
X0283507Y0177379D01*
X0283502Y0177440D01*
X0283500Y0177500D01*
X0283500Y0184500D01*
X0283502Y0184560D01*
X0283507Y0184621D01*
X0283516Y0184680D01*
X0283529Y0184739D01*
X0283545Y0184798D01*
X0283565Y0184855D01*
X0283588Y0184910D01*
X0283615Y0184965D01*
X0283644Y0185017D01*
X0283677Y0185068D01*
X0283713Y0185117D01*
X0283751Y0185163D01*
X0283793Y0185207D01*
X0283837Y0185249D01*
X0283883Y0185287D01*
X0283932Y0185323D01*
X0283983Y0185356D01*
X0284035Y0185385D01*
X0284090Y0185412D01*
X0284145Y0185435D01*
X0284202Y0185455D01*
X0284261Y0185471D01*
X0284320Y0185484D01*
X0284379Y0185493D01*
X0284440Y0185498D01*
X0284500Y0185500D01*
X0284500Y0165500D02*
X0286000Y0165500D01*
X0286500Y0165000D01*
X0305500Y0165000D01*
X0306000Y0165500D01*
X0307500Y0165500D01*
X0307560Y0165498D01*
X0307621Y0165493D01*
X0307680Y0165484D01*
X0307739Y0165471D01*
X0307798Y0165455D01*
X0307855Y0165435D01*
X0307910Y0165412D01*
X0307965Y0165385D01*
X0308017Y0165356D01*
X0308068Y0165323D01*
X0308117Y0165287D01*
X0308163Y0165249D01*
X0308207Y0165207D01*
X0308249Y0165163D01*
X0308287Y0165117D01*
X0308323Y0165068D01*
X0308356Y0165017D01*
X0308385Y0164965D01*
X0308412Y0164910D01*
X0308435Y0164855D01*
X0308455Y0164798D01*
X0308471Y0164739D01*
X0308484Y0164680D01*
X0308493Y0164621D01*
X0308498Y0164560D01*
X0308500Y0164500D01*
X0308500Y0157500D01*
X0308498Y0157440D01*
X0308493Y0157379D01*
X0308484Y0157320D01*
X0308471Y0157261D01*
X0308455Y0157202D01*
X0308435Y0157145D01*
X0308412Y0157090D01*
X0308385Y0157035D01*
X0308356Y0156983D01*
X0308323Y0156932D01*
X0308287Y0156883D01*
X0308249Y0156837D01*
X0308207Y0156793D01*
X0308163Y0156751D01*
X0308117Y0156713D01*
X0308068Y0156677D01*
X0308017Y0156644D01*
X0307965Y0156615D01*
X0307910Y0156588D01*
X0307855Y0156565D01*
X0307798Y0156545D01*
X0307739Y0156529D01*
X0307680Y0156516D01*
X0307621Y0156507D01*
X0307560Y0156502D01*
X0307500Y0156500D01*
X0306000Y0156500D01*
X0305500Y0157000D01*
X0286500Y0157000D01*
X0286000Y0156500D01*
X0284500Y0156500D01*
X0284440Y0156502D01*
X0284379Y0156507D01*
X0284320Y0156516D01*
X0284261Y0156529D01*
X0284202Y0156545D01*
X0284145Y0156565D01*
X0284090Y0156588D01*
X0284035Y0156615D01*
X0283983Y0156644D01*
X0283932Y0156677D01*
X0283883Y0156713D01*
X0283837Y0156751D01*
X0283793Y0156793D01*
X0283751Y0156837D01*
X0283713Y0156883D01*
X0283677Y0156932D01*
X0283644Y0156983D01*
X0283615Y0157035D01*
X0283588Y0157090D01*
X0283565Y0157145D01*
X0283545Y0157202D01*
X0283529Y0157261D01*
X0283516Y0157320D01*
X0283507Y0157379D01*
X0283502Y0157440D01*
X0283500Y0157500D01*
X0283500Y0164500D01*
X0283502Y0164560D01*
X0283507Y0164621D01*
X0283516Y0164680D01*
X0283529Y0164739D01*
X0283545Y0164798D01*
X0283565Y0164855D01*
X0283588Y0164910D01*
X0283615Y0164965D01*
X0283644Y0165017D01*
X0283677Y0165068D01*
X0283713Y0165117D01*
X0283751Y0165163D01*
X0283793Y0165207D01*
X0283837Y0165249D01*
X0283883Y0165287D01*
X0283932Y0165323D01*
X0283983Y0165356D01*
X0284035Y0165385D01*
X0284090Y0165412D01*
X0284145Y0165435D01*
X0284202Y0165455D01*
X0284261Y0165471D01*
X0284320Y0165484D01*
X0284379Y0165493D01*
X0284440Y0165498D01*
X0284500Y0165500D01*
X0314500Y0145500D02*
X0316000Y0145500D01*
X0316500Y0145000D01*
X0335500Y0145000D01*
X0336000Y0145500D01*
X0337500Y0145500D01*
X0337560Y0145498D01*
X0337621Y0145493D01*
X0337680Y0145484D01*
X0337739Y0145471D01*
X0337798Y0145455D01*
X0337855Y0145435D01*
X0337910Y0145412D01*
X0337965Y0145385D01*
X0338017Y0145356D01*
X0338068Y0145323D01*
X0338117Y0145287D01*
X0338163Y0145249D01*
X0338207Y0145207D01*
X0338249Y0145163D01*
X0338287Y0145117D01*
X0338323Y0145068D01*
X0338356Y0145017D01*
X0338385Y0144965D01*
X0338412Y0144910D01*
X0338435Y0144855D01*
X0338455Y0144798D01*
X0338471Y0144739D01*
X0338484Y0144680D01*
X0338493Y0144621D01*
X0338498Y0144560D01*
X0338500Y0144500D01*
X0338500Y0137500D01*
X0338498Y0137440D01*
X0338493Y0137379D01*
X0338484Y0137320D01*
X0338471Y0137261D01*
X0338455Y0137202D01*
X0338435Y0137145D01*
X0338412Y0137090D01*
X0338385Y0137035D01*
X0338356Y0136983D01*
X0338323Y0136932D01*
X0338287Y0136883D01*
X0338249Y0136837D01*
X0338207Y0136793D01*
X0338163Y0136751D01*
X0338117Y0136713D01*
X0338068Y0136677D01*
X0338017Y0136644D01*
X0337965Y0136615D01*
X0337910Y0136588D01*
X0337855Y0136565D01*
X0337798Y0136545D01*
X0337739Y0136529D01*
X0337680Y0136516D01*
X0337621Y0136507D01*
X0337560Y0136502D01*
X0337500Y0136500D01*
X0336000Y0136500D01*
X0335500Y0137000D01*
X0316500Y0137000D01*
X0316000Y0136500D01*
X0314500Y0136500D01*
X0314440Y0136502D01*
X0314379Y0136507D01*
X0314320Y0136516D01*
X0314261Y0136529D01*
X0314202Y0136545D01*
X0314145Y0136565D01*
X0314090Y0136588D01*
X0314035Y0136615D01*
X0313983Y0136644D01*
X0313932Y0136677D01*
X0313883Y0136713D01*
X0313837Y0136751D01*
X0313793Y0136793D01*
X0313751Y0136837D01*
X0313713Y0136883D01*
X0313677Y0136932D01*
X0313644Y0136983D01*
X0313615Y0137035D01*
X0313588Y0137090D01*
X0313565Y0137145D01*
X0313545Y0137202D01*
X0313529Y0137261D01*
X0313516Y0137320D01*
X0313507Y0137379D01*
X0313502Y0137440D01*
X0313500Y0137500D01*
X0313500Y0144500D01*
X0313502Y0144560D01*
X0313507Y0144621D01*
X0313516Y0144680D01*
X0313529Y0144739D01*
X0313545Y0144798D01*
X0313565Y0144855D01*
X0313588Y0144910D01*
X0313615Y0144965D01*
X0313644Y0145017D01*
X0313677Y0145068D01*
X0313713Y0145117D01*
X0313751Y0145163D01*
X0313793Y0145207D01*
X0313837Y0145249D01*
X0313883Y0145287D01*
X0313932Y0145323D01*
X0313983Y0145356D01*
X0314035Y0145385D01*
X0314090Y0145412D01*
X0314145Y0145435D01*
X0314202Y0145455D01*
X0314261Y0145471D01*
X0314320Y0145484D01*
X0314379Y0145493D01*
X0314440Y0145498D01*
X0314500Y0145500D01*
X0343500Y0157500D02*
X0343500Y0164500D01*
X0343502Y0164560D01*
X0343507Y0164621D01*
X0343516Y0164680D01*
X0343529Y0164739D01*
X0343545Y0164798D01*
X0343565Y0164855D01*
X0343588Y0164910D01*
X0343615Y0164965D01*
X0343644Y0165017D01*
X0343677Y0165068D01*
X0343713Y0165117D01*
X0343751Y0165163D01*
X0343793Y0165207D01*
X0343837Y0165249D01*
X0343883Y0165287D01*
X0343932Y0165323D01*
X0343983Y0165356D01*
X0344035Y0165385D01*
X0344090Y0165412D01*
X0344145Y0165435D01*
X0344202Y0165455D01*
X0344261Y0165471D01*
X0344320Y0165484D01*
X0344379Y0165493D01*
X0344440Y0165498D01*
X0344500Y0165500D01*
X0346000Y0165500D01*
X0346500Y0165000D01*
X0365500Y0165000D01*
X0366000Y0165500D01*
X0367500Y0165500D01*
X0367560Y0165498D01*
X0367621Y0165493D01*
X0367680Y0165484D01*
X0367739Y0165471D01*
X0367798Y0165455D01*
X0367855Y0165435D01*
X0367910Y0165412D01*
X0367965Y0165385D01*
X0368017Y0165356D01*
X0368068Y0165323D01*
X0368117Y0165287D01*
X0368163Y0165249D01*
X0368207Y0165207D01*
X0368249Y0165163D01*
X0368287Y0165117D01*
X0368323Y0165068D01*
X0368356Y0165017D01*
X0368385Y0164965D01*
X0368412Y0164910D01*
X0368435Y0164855D01*
X0368455Y0164798D01*
X0368471Y0164739D01*
X0368484Y0164680D01*
X0368493Y0164621D01*
X0368498Y0164560D01*
X0368500Y0164500D01*
X0368500Y0157500D01*
X0368498Y0157440D01*
X0368493Y0157379D01*
X0368484Y0157320D01*
X0368471Y0157261D01*
X0368455Y0157202D01*
X0368435Y0157145D01*
X0368412Y0157090D01*
X0368385Y0157035D01*
X0368356Y0156983D01*
X0368323Y0156932D01*
X0368287Y0156883D01*
X0368249Y0156837D01*
X0368207Y0156793D01*
X0368163Y0156751D01*
X0368117Y0156713D01*
X0368068Y0156677D01*
X0368017Y0156644D01*
X0367965Y0156615D01*
X0367910Y0156588D01*
X0367855Y0156565D01*
X0367798Y0156545D01*
X0367739Y0156529D01*
X0367680Y0156516D01*
X0367621Y0156507D01*
X0367560Y0156502D01*
X0367500Y0156500D01*
X0366000Y0156500D01*
X0365500Y0157000D01*
X0346500Y0157000D01*
X0346000Y0156500D01*
X0344500Y0156500D01*
X0344440Y0156502D01*
X0344379Y0156507D01*
X0344320Y0156516D01*
X0344261Y0156529D01*
X0344202Y0156545D01*
X0344145Y0156565D01*
X0344090Y0156588D01*
X0344035Y0156615D01*
X0343983Y0156644D01*
X0343932Y0156677D01*
X0343883Y0156713D01*
X0343837Y0156751D01*
X0343793Y0156793D01*
X0343751Y0156837D01*
X0343713Y0156883D01*
X0343677Y0156932D01*
X0343644Y0156983D01*
X0343615Y0157035D01*
X0343588Y0157090D01*
X0343565Y0157145D01*
X0343545Y0157202D01*
X0343529Y0157261D01*
X0343516Y0157320D01*
X0343507Y0157379D01*
X0343502Y0157440D01*
X0343500Y0157500D01*
X0344500Y0176500D02*
X0346000Y0176500D01*
X0346500Y0177000D01*
X0365500Y0177000D01*
X0366000Y0176500D01*
X0367500Y0176500D01*
X0367560Y0176502D01*
X0367621Y0176507D01*
X0367680Y0176516D01*
X0367739Y0176529D01*
X0367798Y0176545D01*
X0367855Y0176565D01*
X0367910Y0176588D01*
X0367965Y0176615D01*
X0368017Y0176644D01*
X0368068Y0176677D01*
X0368117Y0176713D01*
X0368163Y0176751D01*
X0368207Y0176793D01*
X0368249Y0176837D01*
X0368287Y0176883D01*
X0368323Y0176932D01*
X0368356Y0176983D01*
X0368385Y0177035D01*
X0368412Y0177090D01*
X0368435Y0177145D01*
X0368455Y0177202D01*
X0368471Y0177261D01*
X0368484Y0177320D01*
X0368493Y0177379D01*
X0368498Y0177440D01*
X0368500Y0177500D01*
X0368500Y0184500D01*
X0368498Y0184560D01*
X0368493Y0184621D01*
X0368484Y0184680D01*
X0368471Y0184739D01*
X0368455Y0184798D01*
X0368435Y0184855D01*
X0368412Y0184910D01*
X0368385Y0184965D01*
X0368356Y0185017D01*
X0368323Y0185068D01*
X0368287Y0185117D01*
X0368249Y0185163D01*
X0368207Y0185207D01*
X0368163Y0185249D01*
X0368117Y0185287D01*
X0368068Y0185323D01*
X0368017Y0185356D01*
X0367965Y0185385D01*
X0367910Y0185412D01*
X0367855Y0185435D01*
X0367798Y0185455D01*
X0367739Y0185471D01*
X0367680Y0185484D01*
X0367621Y0185493D01*
X0367560Y0185498D01*
X0367500Y0185500D01*
X0366000Y0185500D01*
X0365500Y0185000D01*
X0346500Y0185000D01*
X0346000Y0185500D01*
X0344500Y0185500D01*
X0344440Y0185498D01*
X0344379Y0185493D01*
X0344320Y0185484D01*
X0344261Y0185471D01*
X0344202Y0185455D01*
X0344145Y0185435D01*
X0344090Y0185412D01*
X0344035Y0185385D01*
X0343983Y0185356D01*
X0343932Y0185323D01*
X0343883Y0185287D01*
X0343837Y0185249D01*
X0343793Y0185207D01*
X0343751Y0185163D01*
X0343713Y0185117D01*
X0343677Y0185068D01*
X0343644Y0185017D01*
X0343615Y0184965D01*
X0343588Y0184910D01*
X0343565Y0184855D01*
X0343545Y0184798D01*
X0343529Y0184739D01*
X0343516Y0184680D01*
X0343507Y0184621D01*
X0343502Y0184560D01*
X0343500Y0184500D01*
X0343500Y0177500D01*
X0343502Y0177440D01*
X0343507Y0177379D01*
X0343516Y0177320D01*
X0343529Y0177261D01*
X0343545Y0177202D01*
X0343565Y0177145D01*
X0343588Y0177090D01*
X0343615Y0177035D01*
X0343644Y0176983D01*
X0343677Y0176932D01*
X0343713Y0176883D01*
X0343751Y0176837D01*
X0343793Y0176793D01*
X0343837Y0176751D01*
X0343883Y0176713D01*
X0343932Y0176677D01*
X0343983Y0176644D01*
X0344035Y0176615D01*
X0344090Y0176588D01*
X0344145Y0176565D01*
X0344202Y0176545D01*
X0344261Y0176529D01*
X0344320Y0176516D01*
X0344379Y0176507D01*
X0344440Y0176502D01*
X0344500Y0176500D01*
X0344500Y0196500D02*
X0346000Y0196500D01*
X0346500Y0197000D01*
X0365500Y0197000D01*
X0366000Y0196500D01*
X0367500Y0196500D01*
X0367560Y0196502D01*
X0367621Y0196507D01*
X0367680Y0196516D01*
X0367739Y0196529D01*
X0367798Y0196545D01*
X0367855Y0196565D01*
X0367910Y0196588D01*
X0367965Y0196615D01*
X0368017Y0196644D01*
X0368068Y0196677D01*
X0368117Y0196713D01*
X0368163Y0196751D01*
X0368207Y0196793D01*
X0368249Y0196837D01*
X0368287Y0196883D01*
X0368323Y0196932D01*
X0368356Y0196983D01*
X0368385Y0197035D01*
X0368412Y0197090D01*
X0368435Y0197145D01*
X0368455Y0197202D01*
X0368471Y0197261D01*
X0368484Y0197320D01*
X0368493Y0197379D01*
X0368498Y0197440D01*
X0368500Y0197500D01*
X0368500Y0204500D01*
X0368498Y0204560D01*
X0368493Y0204621D01*
X0368484Y0204680D01*
X0368471Y0204739D01*
X0368455Y0204798D01*
X0368435Y0204855D01*
X0368412Y0204910D01*
X0368385Y0204965D01*
X0368356Y0205017D01*
X0368323Y0205068D01*
X0368287Y0205117D01*
X0368249Y0205163D01*
X0368207Y0205207D01*
X0368163Y0205249D01*
X0368117Y0205287D01*
X0368068Y0205323D01*
X0368017Y0205356D01*
X0367965Y0205385D01*
X0367910Y0205412D01*
X0367855Y0205435D01*
X0367798Y0205455D01*
X0367739Y0205471D01*
X0367680Y0205484D01*
X0367621Y0205493D01*
X0367560Y0205498D01*
X0367500Y0205500D01*
X0366000Y0205500D01*
X0365500Y0205000D01*
X0346500Y0205000D01*
X0346000Y0205500D01*
X0344500Y0205500D01*
X0344440Y0205498D01*
X0344379Y0205493D01*
X0344320Y0205484D01*
X0344261Y0205471D01*
X0344202Y0205455D01*
X0344145Y0205435D01*
X0344090Y0205412D01*
X0344035Y0205385D01*
X0343983Y0205356D01*
X0343932Y0205323D01*
X0343883Y0205287D01*
X0343837Y0205249D01*
X0343793Y0205207D01*
X0343751Y0205163D01*
X0343713Y0205117D01*
X0343677Y0205068D01*
X0343644Y0205017D01*
X0343615Y0204965D01*
X0343588Y0204910D01*
X0343565Y0204855D01*
X0343545Y0204798D01*
X0343529Y0204739D01*
X0343516Y0204680D01*
X0343507Y0204621D01*
X0343502Y0204560D01*
X0343500Y0204500D01*
X0343500Y0197500D01*
X0343502Y0197440D01*
X0343507Y0197379D01*
X0343516Y0197320D01*
X0343529Y0197261D01*
X0343545Y0197202D01*
X0343565Y0197145D01*
X0343588Y0197090D01*
X0343615Y0197035D01*
X0343644Y0196983D01*
X0343677Y0196932D01*
X0343713Y0196883D01*
X0343751Y0196837D01*
X0343793Y0196793D01*
X0343837Y0196751D01*
X0343883Y0196713D01*
X0343932Y0196677D01*
X0343983Y0196644D01*
X0344035Y0196615D01*
X0344090Y0196588D01*
X0344145Y0196565D01*
X0344202Y0196545D01*
X0344261Y0196529D01*
X0344320Y0196516D01*
X0344379Y0196507D01*
X0344440Y0196502D01*
X0344500Y0196500D01*
X0299500Y0120000D02*
X0272500Y0120000D01*
X0272440Y0119998D01*
X0272379Y0119993D01*
X0272320Y0119984D01*
X0272261Y0119971D01*
X0272202Y0119955D01*
X0272145Y0119935D01*
X0272090Y0119912D01*
X0272035Y0119885D01*
X0271983Y0119856D01*
X0271932Y0119823D01*
X0271883Y0119787D01*
X0271837Y0119749D01*
X0271793Y0119707D01*
X0271751Y0119663D01*
X0271713Y0119617D01*
X0271677Y0119568D01*
X0271644Y0119517D01*
X0271615Y0119465D01*
X0271588Y0119410D01*
X0271565Y0119355D01*
X0271545Y0119298D01*
X0271529Y0119239D01*
X0271516Y0119180D01*
X0271507Y0119121D01*
X0271502Y0119060D01*
X0271500Y0119000D01*
X0271500Y0103000D01*
X0271502Y0102940D01*
X0271507Y0102879D01*
X0271516Y0102820D01*
X0271529Y0102761D01*
X0271545Y0102702D01*
X0271565Y0102645D01*
X0271588Y0102590D01*
X0271615Y0102535D01*
X0271644Y0102483D01*
X0271677Y0102432D01*
X0271713Y0102383D01*
X0271751Y0102337D01*
X0271793Y0102293D01*
X0271837Y0102251D01*
X0271883Y0102213D01*
X0271932Y0102177D01*
X0271983Y0102144D01*
X0272035Y0102115D01*
X0272090Y0102088D01*
X0272145Y0102065D01*
X0272202Y0102045D01*
X0272261Y0102029D01*
X0272320Y0102016D01*
X0272379Y0102007D01*
X0272440Y0102002D01*
X0272500Y0102000D01*
X0299500Y0102000D01*
X0299560Y0102002D01*
X0299621Y0102007D01*
X0299680Y0102016D01*
X0299739Y0102029D01*
X0299798Y0102045D01*
X0299855Y0102065D01*
X0299910Y0102088D01*
X0299965Y0102115D01*
X0300017Y0102144D01*
X0300068Y0102177D01*
X0300117Y0102213D01*
X0300163Y0102251D01*
X0300207Y0102293D01*
X0300249Y0102337D01*
X0300287Y0102383D01*
X0300323Y0102432D01*
X0300356Y0102483D01*
X0300385Y0102535D01*
X0300412Y0102590D01*
X0300435Y0102645D01*
X0300455Y0102702D01*
X0300471Y0102761D01*
X0300484Y0102820D01*
X0300493Y0102879D01*
X0300498Y0102940D01*
X0300500Y0103000D01*
X0300500Y0119000D01*
X0300498Y0119060D01*
X0300493Y0119121D01*
X0300484Y0119180D01*
X0300471Y0119239D01*
X0300455Y0119298D01*
X0300435Y0119355D01*
X0300412Y0119410D01*
X0300385Y0119465D01*
X0300356Y0119517D01*
X0300323Y0119568D01*
X0300287Y0119617D01*
X0300249Y0119663D01*
X0300207Y0119707D01*
X0300163Y0119749D01*
X0300117Y0119787D01*
X0300068Y0119823D01*
X0300017Y0119856D01*
X0299965Y0119885D01*
X0299910Y0119912D01*
X0299855Y0119935D01*
X0299798Y0119955D01*
X0299739Y0119971D01*
X0299680Y0119984D01*
X0299621Y0119993D01*
X0299560Y0119998D01*
X0299500Y0120000D01*
X0292000Y0111000D02*
X0287300Y0111000D01*
X0284800Y0111000D02*
X0280000Y0111000D01*
X0343500Y0107500D02*
X0343500Y0114500D01*
X0343502Y0114560D01*
X0343507Y0114621D01*
X0343516Y0114680D01*
X0343529Y0114739D01*
X0343545Y0114798D01*
X0343565Y0114855D01*
X0343588Y0114910D01*
X0343615Y0114965D01*
X0343644Y0115017D01*
X0343677Y0115068D01*
X0343713Y0115117D01*
X0343751Y0115163D01*
X0343793Y0115207D01*
X0343837Y0115249D01*
X0343883Y0115287D01*
X0343932Y0115323D01*
X0343983Y0115356D01*
X0344035Y0115385D01*
X0344090Y0115412D01*
X0344145Y0115435D01*
X0344202Y0115455D01*
X0344261Y0115471D01*
X0344320Y0115484D01*
X0344379Y0115493D01*
X0344440Y0115498D01*
X0344500Y0115500D01*
X0346000Y0115500D01*
X0346500Y0115000D01*
X0365500Y0115000D01*
X0366000Y0115500D01*
X0367500Y0115500D01*
X0367560Y0115498D01*
X0367621Y0115493D01*
X0367680Y0115484D01*
X0367739Y0115471D01*
X0367798Y0115455D01*
X0367855Y0115435D01*
X0367910Y0115412D01*
X0367965Y0115385D01*
X0368017Y0115356D01*
X0368068Y0115323D01*
X0368117Y0115287D01*
X0368163Y0115249D01*
X0368207Y0115207D01*
X0368249Y0115163D01*
X0368287Y0115117D01*
X0368323Y0115068D01*
X0368356Y0115017D01*
X0368385Y0114965D01*
X0368412Y0114910D01*
X0368435Y0114855D01*
X0368455Y0114798D01*
X0368471Y0114739D01*
X0368484Y0114680D01*
X0368493Y0114621D01*
X0368498Y0114560D01*
X0368500Y0114500D01*
X0368500Y0107500D01*
X0368498Y0107440D01*
X0368493Y0107379D01*
X0368484Y0107320D01*
X0368471Y0107261D01*
X0368455Y0107202D01*
X0368435Y0107145D01*
X0368412Y0107090D01*
X0368385Y0107035D01*
X0368356Y0106983D01*
X0368323Y0106932D01*
X0368287Y0106883D01*
X0368249Y0106837D01*
X0368207Y0106793D01*
X0368163Y0106751D01*
X0368117Y0106713D01*
X0368068Y0106677D01*
X0368017Y0106644D01*
X0367965Y0106615D01*
X0367910Y0106588D01*
X0367855Y0106565D01*
X0367798Y0106545D01*
X0367739Y0106529D01*
X0367680Y0106516D01*
X0367621Y0106507D01*
X0367560Y0106502D01*
X0367500Y0106500D01*
X0366000Y0106500D01*
X0365500Y0107000D01*
X0346500Y0107000D01*
X0346000Y0106500D01*
X0344500Y0106500D01*
X0344440Y0106502D01*
X0344379Y0106507D01*
X0344320Y0106516D01*
X0344261Y0106529D01*
X0344202Y0106545D01*
X0344145Y0106565D01*
X0344090Y0106588D01*
X0344035Y0106615D01*
X0343983Y0106644D01*
X0343932Y0106677D01*
X0343883Y0106713D01*
X0343837Y0106751D01*
X0343793Y0106793D01*
X0343751Y0106837D01*
X0343713Y0106883D01*
X0343677Y0106932D01*
X0343644Y0106983D01*
X0343615Y0107035D01*
X0343588Y0107090D01*
X0343565Y0107145D01*
X0343545Y0107202D01*
X0343529Y0107261D01*
X0343516Y0107320D01*
X0343507Y0107379D01*
X0343502Y0107440D01*
X0343500Y0107500D01*
D14*
X0343750Y0116750D02*
X0343750Y0121250D01*
X0345000Y0121250D01*
X0345069Y0121248D01*
X0345138Y0121242D01*
X0345206Y0121233D01*
X0345273Y0121220D01*
X0345340Y0121203D01*
X0345406Y0121182D01*
X0345470Y0121158D01*
X0345533Y0121130D01*
X0345595Y0121099D01*
X0345655Y0121065D01*
X0345712Y0121027D01*
X0345768Y0120986D01*
X0345821Y0120943D01*
X0345872Y0120896D01*
X0345920Y0120847D01*
X0345965Y0120795D01*
X0346007Y0120740D01*
X0346046Y0120684D01*
X0346083Y0120625D01*
X0346115Y0120564D01*
X0346145Y0120502D01*
X0346171Y0120438D01*
X0346193Y0120373D01*
X0346212Y0120307D01*
X0346227Y0120240D01*
X0346238Y0120172D01*
X0346246Y0120103D01*
X0346250Y0120034D01*
X0346250Y0119966D01*
X0346246Y0119897D01*
X0346238Y0119828D01*
X0346227Y0119760D01*
X0346212Y0119693D01*
X0346193Y0119627D01*
X0346171Y0119562D01*
X0346145Y0119498D01*
X0346115Y0119436D01*
X0346083Y0119375D01*
X0346046Y0119316D01*
X0346007Y0119260D01*
X0345965Y0119205D01*
X0345920Y0119153D01*
X0345872Y0119104D01*
X0345821Y0119057D01*
X0345768Y0119014D01*
X0345712Y0118973D01*
X0345655Y0118935D01*
X0345595Y0118901D01*
X0345533Y0118870D01*
X0345470Y0118842D01*
X0345406Y0118818D01*
X0345340Y0118797D01*
X0345273Y0118780D01*
X0345206Y0118767D01*
X0345138Y0118758D01*
X0345069Y0118752D01*
X0345000Y0118750D01*
X0343750Y0118750D01*
X0345250Y0118750D02*
X0346250Y0116750D01*
X0348217Y0117750D02*
X0350717Y0117750D01*
X0349967Y0118750D02*
X0349967Y0116750D01*
X0348217Y0117750D02*
X0349217Y0121250D01*
X0321217Y0147250D02*
X0318717Y0147250D01*
X0320842Y0149750D01*
X0320092Y0151750D02*
X0320019Y0151748D01*
X0319947Y0151743D01*
X0319875Y0151734D01*
X0319803Y0151721D01*
X0319732Y0151705D01*
X0319662Y0151685D01*
X0319594Y0151661D01*
X0319526Y0151635D01*
X0319460Y0151604D01*
X0319395Y0151571D01*
X0319333Y0151534D01*
X0319272Y0151495D01*
X0319213Y0151452D01*
X0319156Y0151406D01*
X0319102Y0151358D01*
X0319051Y0151307D01*
X0319001Y0151253D01*
X0318955Y0151197D01*
X0318912Y0151139D01*
X0318871Y0151078D01*
X0318834Y0151016D01*
X0318800Y0150952D01*
X0318769Y0150886D01*
X0318741Y0150819D01*
X0318717Y0150750D01*
X0320842Y0149750D02*
X0320888Y0149796D01*
X0320932Y0149845D01*
X0320972Y0149896D01*
X0321010Y0149949D01*
X0321045Y0150004D01*
X0321077Y0150061D01*
X0321106Y0150119D01*
X0321132Y0150179D01*
X0321154Y0150241D01*
X0321173Y0150303D01*
X0321189Y0150366D01*
X0321201Y0150430D01*
X0321210Y0150495D01*
X0321215Y0150560D01*
X0321217Y0150625D01*
X0321215Y0150690D01*
X0321209Y0150756D01*
X0321200Y0150820D01*
X0321187Y0150884D01*
X0321170Y0150948D01*
X0321149Y0151010D01*
X0321125Y0151071D01*
X0321097Y0151130D01*
X0321066Y0151188D01*
X0321032Y0151243D01*
X0320994Y0151297D01*
X0320954Y0151348D01*
X0320910Y0151397D01*
X0320864Y0151443D01*
X0320815Y0151487D01*
X0320764Y0151527D01*
X0320710Y0151565D01*
X0320655Y0151599D01*
X0320597Y0151630D01*
X0320538Y0151658D01*
X0320477Y0151682D01*
X0320415Y0151703D01*
X0320351Y0151720D01*
X0320287Y0151733D01*
X0320223Y0151742D01*
X0320157Y0151748D01*
X0320092Y0151750D01*
X0315500Y0151750D02*
X0314250Y0151750D01*
X0314250Y0147250D01*
X0314250Y0149250D02*
X0315500Y0149250D01*
X0315750Y0149250D02*
X0316750Y0147250D01*
X0315500Y0149250D02*
X0315569Y0149252D01*
X0315638Y0149258D01*
X0315706Y0149267D01*
X0315773Y0149280D01*
X0315840Y0149297D01*
X0315906Y0149318D01*
X0315970Y0149342D01*
X0316033Y0149370D01*
X0316095Y0149401D01*
X0316155Y0149435D01*
X0316212Y0149473D01*
X0316268Y0149514D01*
X0316321Y0149557D01*
X0316372Y0149604D01*
X0316420Y0149653D01*
X0316465Y0149705D01*
X0316507Y0149760D01*
X0316546Y0149816D01*
X0316583Y0149875D01*
X0316615Y0149936D01*
X0316645Y0149998D01*
X0316671Y0150062D01*
X0316693Y0150127D01*
X0316712Y0150193D01*
X0316727Y0150260D01*
X0316738Y0150328D01*
X0316746Y0150397D01*
X0316750Y0150466D01*
X0316750Y0150534D01*
X0316746Y0150603D01*
X0316738Y0150672D01*
X0316727Y0150740D01*
X0316712Y0150807D01*
X0316693Y0150873D01*
X0316671Y0150938D01*
X0316645Y0151002D01*
X0316615Y0151064D01*
X0316583Y0151125D01*
X0316546Y0151184D01*
X0316507Y0151240D01*
X0316465Y0151295D01*
X0316420Y0151347D01*
X0316372Y0151396D01*
X0316321Y0151443D01*
X0316268Y0151486D01*
X0316212Y0151527D01*
X0316155Y0151565D01*
X0316095Y0151599D01*
X0316033Y0151630D01*
X0315970Y0151658D01*
X0315906Y0151682D01*
X0315840Y0151703D01*
X0315773Y0151720D01*
X0315706Y0151733D01*
X0315638Y0151742D01*
X0315569Y0151748D01*
X0315500Y0151750D01*
X0289967Y0167250D02*
X0291217Y0171750D01*
X0288717Y0171750D01*
X0288717Y0171250D01*
X0285500Y0171750D02*
X0284250Y0171750D01*
X0284250Y0167250D01*
X0284250Y0169250D02*
X0285500Y0169250D01*
X0285750Y0169250D02*
X0286750Y0167250D01*
X0285500Y0169250D02*
X0285569Y0169252D01*
X0285638Y0169258D01*
X0285706Y0169267D01*
X0285773Y0169280D01*
X0285840Y0169297D01*
X0285906Y0169318D01*
X0285970Y0169342D01*
X0286033Y0169370D01*
X0286095Y0169401D01*
X0286155Y0169435D01*
X0286212Y0169473D01*
X0286268Y0169514D01*
X0286321Y0169557D01*
X0286372Y0169604D01*
X0286420Y0169653D01*
X0286465Y0169705D01*
X0286507Y0169760D01*
X0286546Y0169816D01*
X0286583Y0169875D01*
X0286615Y0169936D01*
X0286645Y0169998D01*
X0286671Y0170062D01*
X0286693Y0170127D01*
X0286712Y0170193D01*
X0286727Y0170260D01*
X0286738Y0170328D01*
X0286746Y0170397D01*
X0286750Y0170466D01*
X0286750Y0170534D01*
X0286746Y0170603D01*
X0286738Y0170672D01*
X0286727Y0170740D01*
X0286712Y0170807D01*
X0286693Y0170873D01*
X0286671Y0170938D01*
X0286645Y0171002D01*
X0286615Y0171064D01*
X0286583Y0171125D01*
X0286546Y0171184D01*
X0286507Y0171240D01*
X0286465Y0171295D01*
X0286420Y0171347D01*
X0286372Y0171396D01*
X0286321Y0171443D01*
X0286268Y0171486D01*
X0286212Y0171527D01*
X0286155Y0171565D01*
X0286095Y0171599D01*
X0286033Y0171630D01*
X0285970Y0171658D01*
X0285906Y0171682D01*
X0285840Y0171703D01*
X0285773Y0171720D01*
X0285706Y0171733D01*
X0285638Y0171742D01*
X0285569Y0171748D01*
X0285500Y0171750D01*
X0284250Y0187250D02*
X0284250Y0191750D01*
X0285500Y0191750D01*
X0285569Y0191748D01*
X0285638Y0191742D01*
X0285706Y0191733D01*
X0285773Y0191720D01*
X0285840Y0191703D01*
X0285906Y0191682D01*
X0285970Y0191658D01*
X0286033Y0191630D01*
X0286095Y0191599D01*
X0286155Y0191565D01*
X0286212Y0191527D01*
X0286268Y0191486D01*
X0286321Y0191443D01*
X0286372Y0191396D01*
X0286420Y0191347D01*
X0286465Y0191295D01*
X0286507Y0191240D01*
X0286546Y0191184D01*
X0286583Y0191125D01*
X0286615Y0191064D01*
X0286645Y0191002D01*
X0286671Y0190938D01*
X0286693Y0190873D01*
X0286712Y0190807D01*
X0286727Y0190740D01*
X0286738Y0190672D01*
X0286746Y0190603D01*
X0286750Y0190534D01*
X0286750Y0190466D01*
X0286746Y0190397D01*
X0286738Y0190328D01*
X0286727Y0190260D01*
X0286712Y0190193D01*
X0286693Y0190127D01*
X0286671Y0190062D01*
X0286645Y0189998D01*
X0286615Y0189936D01*
X0286583Y0189875D01*
X0286546Y0189816D01*
X0286507Y0189760D01*
X0286465Y0189705D01*
X0286420Y0189653D01*
X0286372Y0189604D01*
X0286321Y0189557D01*
X0286268Y0189514D01*
X0286212Y0189473D01*
X0286155Y0189435D01*
X0286095Y0189401D01*
X0286033Y0189370D01*
X0285970Y0189342D01*
X0285906Y0189318D01*
X0285840Y0189297D01*
X0285773Y0189280D01*
X0285706Y0189267D01*
X0285638Y0189258D01*
X0285569Y0189252D01*
X0285500Y0189250D01*
X0284250Y0189250D01*
X0285750Y0189250D02*
X0286750Y0187250D01*
X0288717Y0187250D02*
X0291217Y0187250D01*
X0289967Y0187250D02*
X0289967Y0191750D01*
X0288717Y0190750D01*
X0295717Y0189500D02*
X0295715Y0189380D01*
X0295709Y0189260D01*
X0295699Y0189140D01*
X0295686Y0189021D01*
X0295668Y0188902D01*
X0295647Y0188784D01*
X0295622Y0188666D01*
X0295593Y0188550D01*
X0295560Y0188434D01*
X0295524Y0188320D01*
X0295484Y0188206D01*
X0295440Y0188094D01*
X0295393Y0187984D01*
X0295342Y0187875D01*
X0295321Y0187819D01*
X0295295Y0187764D01*
X0295267Y0187710D01*
X0295235Y0187659D01*
X0295200Y0187610D01*
X0295161Y0187564D01*
X0295120Y0187520D01*
X0295076Y0187478D01*
X0295029Y0187440D01*
X0294980Y0187405D01*
X0294928Y0187373D01*
X0294875Y0187345D01*
X0294820Y0187320D01*
X0294764Y0187299D01*
X0294706Y0187281D01*
X0294647Y0187268D01*
X0294587Y0187258D01*
X0294527Y0187252D01*
X0294467Y0187250D01*
X0294407Y0187252D01*
X0294347Y0187258D01*
X0294287Y0187268D01*
X0294228Y0187281D01*
X0294170Y0187299D01*
X0294114Y0187320D01*
X0294059Y0187345D01*
X0294006Y0187373D01*
X0293954Y0187405D01*
X0293905Y0187440D01*
X0293858Y0187478D01*
X0293814Y0187520D01*
X0293773Y0187564D01*
X0293734Y0187610D01*
X0293699Y0187659D01*
X0293667Y0187710D01*
X0293639Y0187764D01*
X0293613Y0187819D01*
X0293592Y0187875D01*
X0293467Y0188250D02*
X0295467Y0190750D01*
X0295342Y0191125D02*
X0295321Y0191181D01*
X0295295Y0191236D01*
X0295267Y0191290D01*
X0295235Y0191341D01*
X0295200Y0191390D01*
X0295161Y0191436D01*
X0295120Y0191480D01*
X0295076Y0191522D01*
X0295029Y0191560D01*
X0294980Y0191595D01*
X0294928Y0191627D01*
X0294875Y0191655D01*
X0294820Y0191680D01*
X0294764Y0191701D01*
X0294706Y0191719D01*
X0294647Y0191732D01*
X0294587Y0191742D01*
X0294527Y0191748D01*
X0294467Y0191750D01*
X0294407Y0191748D01*
X0294347Y0191742D01*
X0294287Y0191732D01*
X0294228Y0191719D01*
X0294170Y0191701D01*
X0294114Y0191680D01*
X0294059Y0191655D01*
X0294006Y0191627D01*
X0293954Y0191595D01*
X0293905Y0191560D01*
X0293858Y0191522D01*
X0293814Y0191480D01*
X0293773Y0191436D01*
X0293734Y0191390D01*
X0293699Y0191341D01*
X0293667Y0191290D01*
X0293639Y0191236D01*
X0293613Y0191181D01*
X0293592Y0191125D01*
X0295342Y0191125D02*
X0295393Y0191016D01*
X0295440Y0190906D01*
X0295484Y0190794D01*
X0295524Y0190680D01*
X0295560Y0190566D01*
X0295593Y0190450D01*
X0295622Y0190334D01*
X0295647Y0190216D01*
X0295668Y0190098D01*
X0295686Y0189979D01*
X0295699Y0189860D01*
X0295709Y0189740D01*
X0295715Y0189620D01*
X0295717Y0189500D01*
X0293218Y0189500D02*
X0293220Y0189380D01*
X0293226Y0189260D01*
X0293236Y0189140D01*
X0293249Y0189021D01*
X0293267Y0188902D01*
X0293288Y0188784D01*
X0293313Y0188666D01*
X0293342Y0188550D01*
X0293375Y0188434D01*
X0293411Y0188320D01*
X0293451Y0188206D01*
X0293495Y0188094D01*
X0293542Y0187984D01*
X0293593Y0187875D01*
X0293218Y0189500D02*
X0293220Y0189620D01*
X0293226Y0189740D01*
X0293236Y0189860D01*
X0293249Y0189979D01*
X0293267Y0190098D01*
X0293288Y0190216D01*
X0293313Y0190334D01*
X0293342Y0190450D01*
X0293375Y0190566D01*
X0293411Y0190680D01*
X0293451Y0190794D01*
X0293495Y0190906D01*
X0293542Y0191016D01*
X0293593Y0191125D01*
X0294967Y0207250D02*
X0294967Y0209250D01*
X0295717Y0208250D02*
X0293217Y0208250D01*
X0294217Y0211750D01*
X0289967Y0211750D02*
X0289967Y0207250D01*
X0288717Y0207250D02*
X0291217Y0207250D01*
X0286750Y0207250D02*
X0285750Y0209250D01*
X0285500Y0209250D02*
X0284250Y0209250D01*
X0285500Y0209250D02*
X0285569Y0209252D01*
X0285638Y0209258D01*
X0285706Y0209267D01*
X0285773Y0209280D01*
X0285840Y0209297D01*
X0285906Y0209318D01*
X0285970Y0209342D01*
X0286033Y0209370D01*
X0286095Y0209401D01*
X0286155Y0209435D01*
X0286212Y0209473D01*
X0286268Y0209514D01*
X0286321Y0209557D01*
X0286372Y0209604D01*
X0286420Y0209653D01*
X0286465Y0209705D01*
X0286507Y0209760D01*
X0286546Y0209816D01*
X0286583Y0209875D01*
X0286615Y0209936D01*
X0286645Y0209998D01*
X0286671Y0210062D01*
X0286693Y0210127D01*
X0286712Y0210193D01*
X0286727Y0210260D01*
X0286738Y0210328D01*
X0286746Y0210397D01*
X0286750Y0210466D01*
X0286750Y0210534D01*
X0286746Y0210603D01*
X0286738Y0210672D01*
X0286727Y0210740D01*
X0286712Y0210807D01*
X0286693Y0210873D01*
X0286671Y0210938D01*
X0286645Y0211002D01*
X0286615Y0211064D01*
X0286583Y0211125D01*
X0286546Y0211184D01*
X0286507Y0211240D01*
X0286465Y0211295D01*
X0286420Y0211347D01*
X0286372Y0211396D01*
X0286321Y0211443D01*
X0286268Y0211486D01*
X0286212Y0211527D01*
X0286155Y0211565D01*
X0286095Y0211599D01*
X0286033Y0211630D01*
X0285970Y0211658D01*
X0285906Y0211682D01*
X0285840Y0211703D01*
X0285773Y0211720D01*
X0285706Y0211733D01*
X0285638Y0211742D01*
X0285569Y0211748D01*
X0285500Y0211750D01*
X0284250Y0211750D01*
X0284250Y0207250D01*
X0288717Y0210750D02*
X0289967Y0211750D01*
X0344250Y0211750D02*
X0344250Y0207250D01*
X0344250Y0209250D02*
X0345500Y0209250D01*
X0345750Y0209250D02*
X0346750Y0207250D01*
X0348717Y0208500D02*
X0348717Y0209750D01*
X0350217Y0209750D01*
X0348717Y0209750D02*
X0348719Y0209837D01*
X0348725Y0209924D01*
X0348734Y0210011D01*
X0348747Y0210097D01*
X0348764Y0210183D01*
X0348785Y0210268D01*
X0348810Y0210351D01*
X0348838Y0210434D01*
X0348869Y0210515D01*
X0348904Y0210595D01*
X0348943Y0210673D01*
X0348985Y0210750D01*
X0349030Y0210825D01*
X0349079Y0210897D01*
X0349130Y0210968D01*
X0349185Y0211036D01*
X0349242Y0211101D01*
X0349303Y0211164D01*
X0349366Y0211225D01*
X0349431Y0211282D01*
X0349499Y0211337D01*
X0349570Y0211388D01*
X0349642Y0211437D01*
X0349717Y0211482D01*
X0349794Y0211524D01*
X0349872Y0211563D01*
X0349952Y0211598D01*
X0350033Y0211629D01*
X0350116Y0211657D01*
X0350199Y0211682D01*
X0350284Y0211703D01*
X0350370Y0211720D01*
X0350456Y0211733D01*
X0350543Y0211742D01*
X0350630Y0211748D01*
X0350717Y0211750D01*
X0350217Y0209750D02*
X0350277Y0209748D01*
X0350338Y0209743D01*
X0350397Y0209734D01*
X0350456Y0209721D01*
X0350515Y0209705D01*
X0350572Y0209685D01*
X0350627Y0209662D01*
X0350682Y0209635D01*
X0350734Y0209606D01*
X0350785Y0209573D01*
X0350834Y0209537D01*
X0350880Y0209499D01*
X0350924Y0209457D01*
X0350966Y0209413D01*
X0351004Y0209367D01*
X0351040Y0209318D01*
X0351073Y0209267D01*
X0351102Y0209215D01*
X0351129Y0209160D01*
X0351152Y0209105D01*
X0351172Y0209048D01*
X0351188Y0208989D01*
X0351201Y0208930D01*
X0351210Y0208871D01*
X0351215Y0208810D01*
X0351217Y0208750D01*
X0351217Y0208500D01*
X0351215Y0208431D01*
X0351209Y0208362D01*
X0351200Y0208294D01*
X0351187Y0208227D01*
X0351170Y0208160D01*
X0351149Y0208094D01*
X0351125Y0208030D01*
X0351097Y0207967D01*
X0351066Y0207905D01*
X0351032Y0207845D01*
X0350994Y0207788D01*
X0350953Y0207732D01*
X0350910Y0207679D01*
X0350863Y0207628D01*
X0350814Y0207580D01*
X0350762Y0207535D01*
X0350707Y0207493D01*
X0350651Y0207454D01*
X0350592Y0207417D01*
X0350531Y0207385D01*
X0350469Y0207355D01*
X0350405Y0207329D01*
X0350340Y0207307D01*
X0350274Y0207288D01*
X0350207Y0207273D01*
X0350139Y0207262D01*
X0350070Y0207254D01*
X0350001Y0207250D01*
X0349933Y0207250D01*
X0349864Y0207254D01*
X0349795Y0207262D01*
X0349727Y0207273D01*
X0349660Y0207288D01*
X0349594Y0207307D01*
X0349529Y0207329D01*
X0349465Y0207355D01*
X0349403Y0207385D01*
X0349342Y0207417D01*
X0349283Y0207454D01*
X0349227Y0207493D01*
X0349172Y0207535D01*
X0349120Y0207580D01*
X0349071Y0207628D01*
X0349024Y0207679D01*
X0348981Y0207732D01*
X0348940Y0207788D01*
X0348902Y0207845D01*
X0348868Y0207905D01*
X0348837Y0207967D01*
X0348809Y0208030D01*
X0348785Y0208094D01*
X0348764Y0208160D01*
X0348747Y0208227D01*
X0348734Y0208294D01*
X0348725Y0208362D01*
X0348719Y0208431D01*
X0348717Y0208500D01*
X0345500Y0209250D02*
X0345569Y0209252D01*
X0345638Y0209258D01*
X0345706Y0209267D01*
X0345773Y0209280D01*
X0345840Y0209297D01*
X0345906Y0209318D01*
X0345970Y0209342D01*
X0346033Y0209370D01*
X0346095Y0209401D01*
X0346155Y0209435D01*
X0346212Y0209473D01*
X0346268Y0209514D01*
X0346321Y0209557D01*
X0346372Y0209604D01*
X0346420Y0209653D01*
X0346465Y0209705D01*
X0346507Y0209760D01*
X0346546Y0209816D01*
X0346583Y0209875D01*
X0346615Y0209936D01*
X0346645Y0209998D01*
X0346671Y0210062D01*
X0346693Y0210127D01*
X0346712Y0210193D01*
X0346727Y0210260D01*
X0346738Y0210328D01*
X0346746Y0210397D01*
X0346750Y0210466D01*
X0346750Y0210534D01*
X0346746Y0210603D01*
X0346738Y0210672D01*
X0346727Y0210740D01*
X0346712Y0210807D01*
X0346693Y0210873D01*
X0346671Y0210938D01*
X0346645Y0211002D01*
X0346615Y0211064D01*
X0346583Y0211125D01*
X0346546Y0211184D01*
X0346507Y0211240D01*
X0346465Y0211295D01*
X0346420Y0211347D01*
X0346372Y0211396D01*
X0346321Y0211443D01*
X0346268Y0211486D01*
X0346212Y0211527D01*
X0346155Y0211565D01*
X0346095Y0211599D01*
X0346033Y0211630D01*
X0345970Y0211658D01*
X0345906Y0211682D01*
X0345840Y0211703D01*
X0345773Y0211720D01*
X0345706Y0211733D01*
X0345638Y0211742D01*
X0345569Y0211748D01*
X0345500Y0211750D01*
X0344250Y0211750D01*
X0344250Y0191750D02*
X0345500Y0191750D01*
X0345569Y0191748D01*
X0345638Y0191742D01*
X0345706Y0191733D01*
X0345773Y0191720D01*
X0345840Y0191703D01*
X0345906Y0191682D01*
X0345970Y0191658D01*
X0346033Y0191630D01*
X0346095Y0191599D01*
X0346155Y0191565D01*
X0346212Y0191527D01*
X0346268Y0191486D01*
X0346321Y0191443D01*
X0346372Y0191396D01*
X0346420Y0191347D01*
X0346465Y0191295D01*
X0346507Y0191240D01*
X0346546Y0191184D01*
X0346583Y0191125D01*
X0346615Y0191064D01*
X0346645Y0191002D01*
X0346671Y0190938D01*
X0346693Y0190873D01*
X0346712Y0190807D01*
X0346727Y0190740D01*
X0346738Y0190672D01*
X0346746Y0190603D01*
X0346750Y0190534D01*
X0346750Y0190466D01*
X0346746Y0190397D01*
X0346738Y0190328D01*
X0346727Y0190260D01*
X0346712Y0190193D01*
X0346693Y0190127D01*
X0346671Y0190062D01*
X0346645Y0189998D01*
X0346615Y0189936D01*
X0346583Y0189875D01*
X0346546Y0189816D01*
X0346507Y0189760D01*
X0346465Y0189705D01*
X0346420Y0189653D01*
X0346372Y0189604D01*
X0346321Y0189557D01*
X0346268Y0189514D01*
X0346212Y0189473D01*
X0346155Y0189435D01*
X0346095Y0189401D01*
X0346033Y0189370D01*
X0345970Y0189342D01*
X0345906Y0189318D01*
X0345840Y0189297D01*
X0345773Y0189280D01*
X0345706Y0189267D01*
X0345638Y0189258D01*
X0345569Y0189252D01*
X0345500Y0189250D01*
X0344250Y0189250D01*
X0345750Y0189250D02*
X0346750Y0187250D01*
X0348717Y0187250D02*
X0351217Y0187250D01*
X0349967Y0187250D02*
X0349967Y0191750D01*
X0348717Y0190750D01*
X0344250Y0191750D02*
X0344250Y0187250D01*
X0344250Y0171750D02*
X0345500Y0171750D01*
X0345569Y0171748D01*
X0345638Y0171742D01*
X0345706Y0171733D01*
X0345773Y0171720D01*
X0345840Y0171703D01*
X0345906Y0171682D01*
X0345970Y0171658D01*
X0346033Y0171630D01*
X0346095Y0171599D01*
X0346155Y0171565D01*
X0346212Y0171527D01*
X0346268Y0171486D01*
X0346321Y0171443D01*
X0346372Y0171396D01*
X0346420Y0171347D01*
X0346465Y0171295D01*
X0346507Y0171240D01*
X0346546Y0171184D01*
X0346583Y0171125D01*
X0346615Y0171064D01*
X0346645Y0171002D01*
X0346671Y0170938D01*
X0346693Y0170873D01*
X0346712Y0170807D01*
X0346727Y0170740D01*
X0346738Y0170672D01*
X0346746Y0170603D01*
X0346750Y0170534D01*
X0346750Y0170466D01*
X0346746Y0170397D01*
X0346738Y0170328D01*
X0346727Y0170260D01*
X0346712Y0170193D01*
X0346693Y0170127D01*
X0346671Y0170062D01*
X0346645Y0169998D01*
X0346615Y0169936D01*
X0346583Y0169875D01*
X0346546Y0169816D01*
X0346507Y0169760D01*
X0346465Y0169705D01*
X0346420Y0169653D01*
X0346372Y0169604D01*
X0346321Y0169557D01*
X0346268Y0169514D01*
X0346212Y0169473D01*
X0346155Y0169435D01*
X0346095Y0169401D01*
X0346033Y0169370D01*
X0345970Y0169342D01*
X0345906Y0169318D01*
X0345840Y0169297D01*
X0345773Y0169280D01*
X0345706Y0169267D01*
X0345638Y0169258D01*
X0345569Y0169252D01*
X0345500Y0169250D01*
X0344250Y0169250D01*
X0345750Y0169250D02*
X0346750Y0167250D01*
X0348717Y0167250D02*
X0351217Y0167250D01*
X0349967Y0167250D02*
X0349967Y0171750D01*
X0348717Y0170750D01*
X0353217Y0170750D02*
X0354467Y0171750D01*
X0354467Y0167250D01*
X0353217Y0167250D02*
X0355717Y0167250D01*
X0344250Y0167250D02*
X0344250Y0171750D01*
X0277265Y0126250D02*
X0277265Y0121750D01*
X0276015Y0121750D02*
X0278515Y0121750D01*
X0274250Y0121750D02*
X0273250Y0121750D01*
X0273190Y0121752D01*
X0273129Y0121757D01*
X0273070Y0121766D01*
X0273011Y0121779D01*
X0272952Y0121795D01*
X0272895Y0121815D01*
X0272840Y0121838D01*
X0272785Y0121865D01*
X0272733Y0121894D01*
X0272682Y0121927D01*
X0272633Y0121963D01*
X0272587Y0122001D01*
X0272543Y0122043D01*
X0272501Y0122087D01*
X0272463Y0122133D01*
X0272427Y0122182D01*
X0272394Y0122233D01*
X0272365Y0122285D01*
X0272338Y0122340D01*
X0272315Y0122395D01*
X0272295Y0122452D01*
X0272279Y0122511D01*
X0272266Y0122570D01*
X0272257Y0122629D01*
X0272252Y0122690D01*
X0272250Y0122750D01*
X0272250Y0125250D01*
X0272252Y0125310D01*
X0272257Y0125371D01*
X0272266Y0125430D01*
X0272279Y0125489D01*
X0272295Y0125548D01*
X0272315Y0125605D01*
X0272338Y0125660D01*
X0272365Y0125715D01*
X0272394Y0125767D01*
X0272427Y0125818D01*
X0272463Y0125867D01*
X0272501Y0125913D01*
X0272543Y0125957D01*
X0272587Y0125999D01*
X0272633Y0126037D01*
X0272682Y0126073D01*
X0272733Y0126106D01*
X0272785Y0126135D01*
X0272840Y0126162D01*
X0272895Y0126185D01*
X0272952Y0126205D01*
X0273011Y0126221D01*
X0273070Y0126234D01*
X0273129Y0126243D01*
X0273190Y0126248D01*
X0273250Y0126250D01*
X0274250Y0126250D01*
X0276015Y0125250D02*
X0277265Y0126250D01*
X0228350Y0112750D02*
X0225850Y0112750D01*
X0227100Y0112750D02*
X0227100Y0117250D01*
X0225850Y0116250D01*
X0224085Y0117250D02*
X0223085Y0117250D01*
X0223025Y0117248D01*
X0222964Y0117243D01*
X0222905Y0117234D01*
X0222846Y0117221D01*
X0222787Y0117205D01*
X0222730Y0117185D01*
X0222675Y0117162D01*
X0222620Y0117135D01*
X0222568Y0117106D01*
X0222517Y0117073D01*
X0222468Y0117037D01*
X0222422Y0116999D01*
X0222378Y0116957D01*
X0222336Y0116913D01*
X0222298Y0116867D01*
X0222262Y0116818D01*
X0222229Y0116767D01*
X0222200Y0116715D01*
X0222173Y0116660D01*
X0222150Y0116605D01*
X0222130Y0116548D01*
X0222114Y0116489D01*
X0222101Y0116430D01*
X0222092Y0116371D01*
X0222087Y0116310D01*
X0222085Y0116250D01*
X0222085Y0113750D01*
X0222087Y0113690D01*
X0222092Y0113629D01*
X0222101Y0113570D01*
X0222114Y0113511D01*
X0222130Y0113452D01*
X0222150Y0113395D01*
X0222173Y0113340D01*
X0222200Y0113285D01*
X0222229Y0113233D01*
X0222262Y0113182D01*
X0222298Y0113133D01*
X0222336Y0113087D01*
X0222378Y0113043D01*
X0222422Y0113001D01*
X0222468Y0112963D01*
X0222517Y0112927D01*
X0222568Y0112894D01*
X0222620Y0112865D01*
X0222675Y0112838D01*
X0222730Y0112815D01*
X0222787Y0112795D01*
X0222846Y0112779D01*
X0222905Y0112766D01*
X0222964Y0112757D01*
X0223025Y0112752D01*
X0223085Y0112750D01*
X0224085Y0112750D01*
X0220250Y0112750D02*
X0219250Y0112750D01*
X0219750Y0112750D02*
X0219750Y0117250D01*
X0219250Y0117250D02*
X0220250Y0117250D01*
X0165750Y0084000D02*
X0165750Y0082750D01*
X0165750Y0084000D02*
X0165748Y0084069D01*
X0165742Y0084138D01*
X0165733Y0084206D01*
X0165720Y0084273D01*
X0165703Y0084340D01*
X0165682Y0084406D01*
X0165658Y0084470D01*
X0165630Y0084533D01*
X0165599Y0084595D01*
X0165565Y0084655D01*
X0165527Y0084712D01*
X0165486Y0084768D01*
X0165443Y0084821D01*
X0165396Y0084872D01*
X0165347Y0084920D01*
X0165295Y0084965D01*
X0165240Y0085007D01*
X0165184Y0085046D01*
X0165125Y0085083D01*
X0165064Y0085115D01*
X0165002Y0085145D01*
X0164938Y0085171D01*
X0164873Y0085193D01*
X0164807Y0085212D01*
X0164740Y0085227D01*
X0164672Y0085238D01*
X0164603Y0085246D01*
X0164534Y0085250D01*
X0164466Y0085250D01*
X0164397Y0085246D01*
X0164328Y0085238D01*
X0164260Y0085227D01*
X0164193Y0085212D01*
X0164127Y0085193D01*
X0164062Y0085171D01*
X0163998Y0085145D01*
X0163936Y0085115D01*
X0163875Y0085083D01*
X0163816Y0085046D01*
X0163760Y0085007D01*
X0163705Y0084965D01*
X0163653Y0084920D01*
X0163604Y0084872D01*
X0163557Y0084821D01*
X0163514Y0084768D01*
X0163473Y0084712D01*
X0163435Y0084655D01*
X0163401Y0084595D01*
X0163370Y0084533D01*
X0163342Y0084470D01*
X0163318Y0084406D01*
X0163297Y0084340D01*
X0163280Y0084273D01*
X0163267Y0084206D01*
X0163258Y0084138D01*
X0163252Y0084069D01*
X0163250Y0084000D01*
X0163250Y0084250D02*
X0163250Y0083250D01*
X0163250Y0084250D02*
X0163248Y0084312D01*
X0163242Y0084373D01*
X0163233Y0084434D01*
X0163220Y0084494D01*
X0163203Y0084553D01*
X0163182Y0084611D01*
X0163158Y0084668D01*
X0163131Y0084723D01*
X0163100Y0084776D01*
X0163066Y0084828D01*
X0163029Y0084877D01*
X0162989Y0084924D01*
X0162946Y0084968D01*
X0162901Y0085009D01*
X0162853Y0085048D01*
X0162802Y0085084D01*
X0162750Y0085116D01*
X0162696Y0085145D01*
X0162640Y0085171D01*
X0162582Y0085193D01*
X0162524Y0085212D01*
X0162464Y0085227D01*
X0162403Y0085238D01*
X0162342Y0085246D01*
X0162281Y0085250D01*
X0162219Y0085250D01*
X0162158Y0085246D01*
X0162097Y0085238D01*
X0162036Y0085227D01*
X0161976Y0085212D01*
X0161918Y0085193D01*
X0161860Y0085171D01*
X0161804Y0085145D01*
X0161750Y0085116D01*
X0161698Y0085084D01*
X0161647Y0085048D01*
X0161599Y0085009D01*
X0161554Y0084968D01*
X0161511Y0084924D01*
X0161471Y0084877D01*
X0161434Y0084828D01*
X0161400Y0084776D01*
X0161369Y0084723D01*
X0161342Y0084668D01*
X0161318Y0084611D01*
X0161297Y0084553D01*
X0161280Y0084494D01*
X0161267Y0084434D01*
X0161258Y0084373D01*
X0161252Y0084312D01*
X0161250Y0084250D01*
X0161250Y0082750D01*
X0161250Y0080975D02*
X0164000Y0078475D01*
X0163000Y0079475D02*
X0165750Y0080975D01*
X0165750Y0078475D02*
X0161250Y0078475D01*
X0162500Y0076250D02*
X0164500Y0076250D01*
X0164569Y0076248D01*
X0164638Y0076242D01*
X0164706Y0076233D01*
X0164773Y0076220D01*
X0164840Y0076203D01*
X0164906Y0076182D01*
X0164970Y0076158D01*
X0165033Y0076130D01*
X0165095Y0076099D01*
X0165155Y0076065D01*
X0165212Y0076027D01*
X0165268Y0075986D01*
X0165321Y0075943D01*
X0165372Y0075896D01*
X0165420Y0075847D01*
X0165465Y0075795D01*
X0165507Y0075740D01*
X0165546Y0075684D01*
X0165583Y0075625D01*
X0165615Y0075564D01*
X0165645Y0075502D01*
X0165671Y0075438D01*
X0165693Y0075373D01*
X0165712Y0075307D01*
X0165727Y0075240D01*
X0165738Y0075172D01*
X0165746Y0075103D01*
X0165750Y0075034D01*
X0165750Y0074966D01*
X0165746Y0074897D01*
X0165738Y0074828D01*
X0165727Y0074760D01*
X0165712Y0074693D01*
X0165693Y0074627D01*
X0165671Y0074562D01*
X0165645Y0074498D01*
X0165615Y0074436D01*
X0165583Y0074375D01*
X0165546Y0074316D01*
X0165507Y0074260D01*
X0165465Y0074205D01*
X0165420Y0074153D01*
X0165372Y0074104D01*
X0165321Y0074057D01*
X0165268Y0074014D01*
X0165212Y0073973D01*
X0165155Y0073935D01*
X0165095Y0073901D01*
X0165033Y0073870D01*
X0164970Y0073842D01*
X0164906Y0073818D01*
X0164840Y0073797D01*
X0164773Y0073780D01*
X0164706Y0073767D01*
X0164638Y0073758D01*
X0164569Y0073752D01*
X0164500Y0073750D01*
X0162500Y0073750D01*
X0162431Y0073752D01*
X0162362Y0073758D01*
X0162294Y0073767D01*
X0162227Y0073780D01*
X0162160Y0073797D01*
X0162094Y0073818D01*
X0162030Y0073842D01*
X0161967Y0073870D01*
X0161905Y0073901D01*
X0161845Y0073935D01*
X0161788Y0073973D01*
X0161732Y0074014D01*
X0161679Y0074057D01*
X0161628Y0074104D01*
X0161580Y0074153D01*
X0161535Y0074205D01*
X0161493Y0074260D01*
X0161454Y0074316D01*
X0161417Y0074375D01*
X0161385Y0074436D01*
X0161355Y0074498D01*
X0161329Y0074562D01*
X0161307Y0074627D01*
X0161288Y0074693D01*
X0161273Y0074760D01*
X0161262Y0074828D01*
X0161254Y0074897D01*
X0161250Y0074966D01*
X0161250Y0075034D01*
X0161254Y0075103D01*
X0161262Y0075172D01*
X0161273Y0075240D01*
X0161288Y0075307D01*
X0161307Y0075373D01*
X0161329Y0075438D01*
X0161355Y0075502D01*
X0161385Y0075564D01*
X0161417Y0075625D01*
X0161454Y0075684D01*
X0161493Y0075740D01*
X0161535Y0075795D01*
X0161580Y0075847D01*
X0161628Y0075896D01*
X0161679Y0075943D01*
X0161732Y0075986D01*
X0161788Y0076027D01*
X0161845Y0076065D01*
X0161905Y0076099D01*
X0161967Y0076130D01*
X0162030Y0076158D01*
X0162094Y0076182D01*
X0162160Y0076203D01*
X0162227Y0076220D01*
X0162294Y0076233D01*
X0162362Y0076242D01*
X0162431Y0076248D01*
X0162500Y0076250D01*
X0120750Y0078475D02*
X0116250Y0078475D01*
X0118000Y0079475D02*
X0120750Y0080975D01*
X0120750Y0082750D02*
X0120750Y0084250D01*
X0120748Y0084310D01*
X0120743Y0084371D01*
X0120734Y0084430D01*
X0120721Y0084489D01*
X0120705Y0084548D01*
X0120685Y0084605D01*
X0120662Y0084660D01*
X0120635Y0084715D01*
X0120606Y0084767D01*
X0120573Y0084818D01*
X0120537Y0084867D01*
X0120499Y0084913D01*
X0120457Y0084957D01*
X0120413Y0084999D01*
X0120367Y0085037D01*
X0120318Y0085073D01*
X0120267Y0085106D01*
X0120215Y0085135D01*
X0120160Y0085162D01*
X0120105Y0085185D01*
X0120048Y0085205D01*
X0119989Y0085221D01*
X0119930Y0085234D01*
X0119871Y0085243D01*
X0119810Y0085248D01*
X0119750Y0085250D01*
X0119250Y0085250D01*
X0119190Y0085248D01*
X0119129Y0085243D01*
X0119070Y0085234D01*
X0119011Y0085221D01*
X0118952Y0085205D01*
X0118895Y0085185D01*
X0118840Y0085162D01*
X0118785Y0085135D01*
X0118733Y0085106D01*
X0118682Y0085073D01*
X0118633Y0085037D01*
X0118587Y0084999D01*
X0118543Y0084957D01*
X0118501Y0084913D01*
X0118463Y0084867D01*
X0118427Y0084818D01*
X0118394Y0084767D01*
X0118365Y0084715D01*
X0118338Y0084660D01*
X0118315Y0084605D01*
X0118295Y0084548D01*
X0118279Y0084489D01*
X0118266Y0084430D01*
X0118257Y0084371D01*
X0118252Y0084310D01*
X0118250Y0084250D01*
X0118250Y0082750D01*
X0116250Y0082750D01*
X0116250Y0085250D01*
X0116250Y0080975D02*
X0119000Y0078475D01*
X0119500Y0076250D02*
X0117500Y0076250D01*
X0117431Y0076248D01*
X0117362Y0076242D01*
X0117294Y0076233D01*
X0117227Y0076220D01*
X0117160Y0076203D01*
X0117094Y0076182D01*
X0117030Y0076158D01*
X0116967Y0076130D01*
X0116905Y0076099D01*
X0116845Y0076065D01*
X0116788Y0076027D01*
X0116732Y0075986D01*
X0116679Y0075943D01*
X0116628Y0075896D01*
X0116580Y0075847D01*
X0116535Y0075795D01*
X0116493Y0075740D01*
X0116454Y0075684D01*
X0116417Y0075625D01*
X0116385Y0075564D01*
X0116355Y0075502D01*
X0116329Y0075438D01*
X0116307Y0075373D01*
X0116288Y0075307D01*
X0116273Y0075240D01*
X0116262Y0075172D01*
X0116254Y0075103D01*
X0116250Y0075034D01*
X0116250Y0074966D01*
X0116254Y0074897D01*
X0116262Y0074828D01*
X0116273Y0074760D01*
X0116288Y0074693D01*
X0116307Y0074627D01*
X0116329Y0074562D01*
X0116355Y0074498D01*
X0116385Y0074436D01*
X0116417Y0074375D01*
X0116454Y0074316D01*
X0116493Y0074260D01*
X0116535Y0074205D01*
X0116580Y0074153D01*
X0116628Y0074104D01*
X0116679Y0074057D01*
X0116732Y0074014D01*
X0116788Y0073973D01*
X0116845Y0073935D01*
X0116905Y0073901D01*
X0116967Y0073870D01*
X0117030Y0073842D01*
X0117094Y0073818D01*
X0117160Y0073797D01*
X0117227Y0073780D01*
X0117294Y0073767D01*
X0117362Y0073758D01*
X0117431Y0073752D01*
X0117500Y0073750D01*
X0119500Y0073750D01*
X0119569Y0073752D01*
X0119638Y0073758D01*
X0119706Y0073767D01*
X0119773Y0073780D01*
X0119840Y0073797D01*
X0119906Y0073818D01*
X0119970Y0073842D01*
X0120033Y0073870D01*
X0120095Y0073901D01*
X0120155Y0073935D01*
X0120212Y0073973D01*
X0120268Y0074014D01*
X0120321Y0074057D01*
X0120372Y0074104D01*
X0120420Y0074153D01*
X0120465Y0074205D01*
X0120507Y0074260D01*
X0120546Y0074316D01*
X0120583Y0074375D01*
X0120615Y0074436D01*
X0120645Y0074498D01*
X0120671Y0074562D01*
X0120693Y0074627D01*
X0120712Y0074693D01*
X0120727Y0074760D01*
X0120738Y0074828D01*
X0120746Y0074897D01*
X0120750Y0074966D01*
X0120750Y0075034D01*
X0120746Y0075103D01*
X0120738Y0075172D01*
X0120727Y0075240D01*
X0120712Y0075307D01*
X0120693Y0075373D01*
X0120671Y0075438D01*
X0120645Y0075502D01*
X0120615Y0075564D01*
X0120583Y0075625D01*
X0120546Y0075684D01*
X0120507Y0075740D01*
X0120465Y0075795D01*
X0120420Y0075847D01*
X0120372Y0075896D01*
X0120321Y0075943D01*
X0120268Y0075986D01*
X0120212Y0076027D01*
X0120155Y0076065D01*
X0120095Y0076099D01*
X0120033Y0076130D01*
X0119970Y0076158D01*
X0119906Y0076182D01*
X0119840Y0076203D01*
X0119773Y0076220D01*
X0119706Y0076233D01*
X0119638Y0076242D01*
X0119569Y0076248D01*
X0119500Y0076250D01*
X0065750Y0083475D02*
X0061250Y0083475D01*
X0063000Y0084475D02*
X0065750Y0085975D01*
X0065750Y0089000D02*
X0061250Y0090250D01*
X0061250Y0087750D01*
X0061750Y0087750D01*
X0061250Y0085975D02*
X0064000Y0083475D01*
X0064500Y0081250D02*
X0062500Y0081250D01*
X0062431Y0081248D01*
X0062362Y0081242D01*
X0062294Y0081233D01*
X0062227Y0081220D01*
X0062160Y0081203D01*
X0062094Y0081182D01*
X0062030Y0081158D01*
X0061967Y0081130D01*
X0061905Y0081099D01*
X0061845Y0081065D01*
X0061788Y0081027D01*
X0061732Y0080986D01*
X0061679Y0080943D01*
X0061628Y0080896D01*
X0061580Y0080847D01*
X0061535Y0080795D01*
X0061493Y0080740D01*
X0061454Y0080684D01*
X0061417Y0080625D01*
X0061385Y0080564D01*
X0061355Y0080502D01*
X0061329Y0080438D01*
X0061307Y0080373D01*
X0061288Y0080307D01*
X0061273Y0080240D01*
X0061262Y0080172D01*
X0061254Y0080103D01*
X0061250Y0080034D01*
X0061250Y0079966D01*
X0061254Y0079897D01*
X0061262Y0079828D01*
X0061273Y0079760D01*
X0061288Y0079693D01*
X0061307Y0079627D01*
X0061329Y0079562D01*
X0061355Y0079498D01*
X0061385Y0079436D01*
X0061417Y0079375D01*
X0061454Y0079316D01*
X0061493Y0079260D01*
X0061535Y0079205D01*
X0061580Y0079153D01*
X0061628Y0079104D01*
X0061679Y0079057D01*
X0061732Y0079014D01*
X0061788Y0078973D01*
X0061845Y0078935D01*
X0061905Y0078901D01*
X0061967Y0078870D01*
X0062030Y0078842D01*
X0062094Y0078818D01*
X0062160Y0078797D01*
X0062227Y0078780D01*
X0062294Y0078767D01*
X0062362Y0078758D01*
X0062431Y0078752D01*
X0062500Y0078750D01*
X0064500Y0078750D01*
X0064569Y0078752D01*
X0064638Y0078758D01*
X0064706Y0078767D01*
X0064773Y0078780D01*
X0064840Y0078797D01*
X0064906Y0078818D01*
X0064970Y0078842D01*
X0065033Y0078870D01*
X0065095Y0078901D01*
X0065155Y0078935D01*
X0065212Y0078973D01*
X0065268Y0079014D01*
X0065321Y0079057D01*
X0065372Y0079104D01*
X0065420Y0079153D01*
X0065465Y0079205D01*
X0065507Y0079260D01*
X0065546Y0079316D01*
X0065583Y0079375D01*
X0065615Y0079436D01*
X0065645Y0079498D01*
X0065671Y0079562D01*
X0065693Y0079627D01*
X0065712Y0079693D01*
X0065727Y0079760D01*
X0065738Y0079828D01*
X0065746Y0079897D01*
X0065750Y0079966D01*
X0065750Y0080034D01*
X0065746Y0080103D01*
X0065738Y0080172D01*
X0065727Y0080240D01*
X0065712Y0080307D01*
X0065693Y0080373D01*
X0065671Y0080438D01*
X0065645Y0080502D01*
X0065615Y0080564D01*
X0065583Y0080625D01*
X0065546Y0080684D01*
X0065507Y0080740D01*
X0065465Y0080795D01*
X0065420Y0080847D01*
X0065372Y0080896D01*
X0065321Y0080943D01*
X0065268Y0080986D01*
X0065212Y0081027D01*
X0065155Y0081065D01*
X0065095Y0081099D01*
X0065033Y0081130D01*
X0064970Y0081158D01*
X0064906Y0081182D01*
X0064840Y0081203D01*
X0064773Y0081220D01*
X0064706Y0081233D01*
X0064638Y0081242D01*
X0064569Y0081248D01*
X0064500Y0081250D01*
X0064500Y0118750D02*
X0062500Y0118750D01*
X0062431Y0118752D01*
X0062362Y0118758D01*
X0062294Y0118767D01*
X0062227Y0118780D01*
X0062160Y0118797D01*
X0062094Y0118818D01*
X0062030Y0118842D01*
X0061967Y0118870D01*
X0061905Y0118901D01*
X0061845Y0118935D01*
X0061788Y0118973D01*
X0061732Y0119014D01*
X0061679Y0119057D01*
X0061628Y0119104D01*
X0061580Y0119153D01*
X0061535Y0119205D01*
X0061493Y0119260D01*
X0061454Y0119316D01*
X0061417Y0119375D01*
X0061385Y0119436D01*
X0061355Y0119498D01*
X0061329Y0119562D01*
X0061307Y0119627D01*
X0061288Y0119693D01*
X0061273Y0119760D01*
X0061262Y0119828D01*
X0061254Y0119897D01*
X0061250Y0119966D01*
X0061250Y0120034D01*
X0061254Y0120103D01*
X0061262Y0120172D01*
X0061273Y0120240D01*
X0061288Y0120307D01*
X0061307Y0120373D01*
X0061329Y0120438D01*
X0061355Y0120502D01*
X0061385Y0120564D01*
X0061417Y0120625D01*
X0061454Y0120684D01*
X0061493Y0120740D01*
X0061535Y0120795D01*
X0061580Y0120847D01*
X0061628Y0120896D01*
X0061679Y0120943D01*
X0061732Y0120986D01*
X0061788Y0121027D01*
X0061845Y0121065D01*
X0061905Y0121099D01*
X0061967Y0121130D01*
X0062030Y0121158D01*
X0062094Y0121182D01*
X0062160Y0121203D01*
X0062227Y0121220D01*
X0062294Y0121233D01*
X0062362Y0121242D01*
X0062431Y0121248D01*
X0062500Y0121250D01*
X0064500Y0121250D01*
X0064569Y0121248D01*
X0064638Y0121242D01*
X0064706Y0121233D01*
X0064773Y0121220D01*
X0064840Y0121203D01*
X0064906Y0121182D01*
X0064970Y0121158D01*
X0065033Y0121130D01*
X0065095Y0121099D01*
X0065155Y0121065D01*
X0065212Y0121027D01*
X0065268Y0120986D01*
X0065321Y0120943D01*
X0065372Y0120896D01*
X0065420Y0120847D01*
X0065465Y0120795D01*
X0065507Y0120740D01*
X0065546Y0120684D01*
X0065583Y0120625D01*
X0065615Y0120564D01*
X0065645Y0120502D01*
X0065671Y0120438D01*
X0065693Y0120373D01*
X0065712Y0120307D01*
X0065727Y0120240D01*
X0065738Y0120172D01*
X0065746Y0120103D01*
X0065750Y0120034D01*
X0065750Y0119966D01*
X0065746Y0119897D01*
X0065738Y0119828D01*
X0065727Y0119760D01*
X0065712Y0119693D01*
X0065693Y0119627D01*
X0065671Y0119562D01*
X0065645Y0119498D01*
X0065615Y0119436D01*
X0065583Y0119375D01*
X0065546Y0119316D01*
X0065507Y0119260D01*
X0065465Y0119205D01*
X0065420Y0119153D01*
X0065372Y0119104D01*
X0065321Y0119057D01*
X0065268Y0119014D01*
X0065212Y0118973D01*
X0065155Y0118935D01*
X0065095Y0118901D01*
X0065033Y0118870D01*
X0064970Y0118842D01*
X0064906Y0118818D01*
X0064840Y0118797D01*
X0064773Y0118780D01*
X0064706Y0118767D01*
X0064638Y0118758D01*
X0064569Y0118752D01*
X0064500Y0118750D01*
X0064000Y0123475D02*
X0061250Y0125975D01*
X0063000Y0124475D02*
X0065750Y0125975D01*
X0064500Y0127750D02*
X0063250Y0127750D01*
X0063250Y0129250D01*
X0063250Y0127750D02*
X0063163Y0127752D01*
X0063076Y0127758D01*
X0062989Y0127767D01*
X0062903Y0127780D01*
X0062817Y0127797D01*
X0062732Y0127818D01*
X0062649Y0127843D01*
X0062566Y0127871D01*
X0062485Y0127902D01*
X0062405Y0127937D01*
X0062327Y0127976D01*
X0062250Y0128018D01*
X0062175Y0128063D01*
X0062103Y0128112D01*
X0062032Y0128163D01*
X0061964Y0128218D01*
X0061899Y0128275D01*
X0061836Y0128336D01*
X0061775Y0128399D01*
X0061718Y0128464D01*
X0061663Y0128532D01*
X0061612Y0128603D01*
X0061563Y0128675D01*
X0061518Y0128750D01*
X0061476Y0128827D01*
X0061437Y0128905D01*
X0061402Y0128985D01*
X0061371Y0129066D01*
X0061343Y0129149D01*
X0061318Y0129232D01*
X0061297Y0129317D01*
X0061280Y0129403D01*
X0061267Y0129489D01*
X0061258Y0129576D01*
X0061252Y0129663D01*
X0061250Y0129750D01*
X0063250Y0129250D02*
X0063252Y0129310D01*
X0063257Y0129371D01*
X0063266Y0129430D01*
X0063279Y0129489D01*
X0063295Y0129548D01*
X0063315Y0129605D01*
X0063338Y0129660D01*
X0063365Y0129715D01*
X0063394Y0129767D01*
X0063427Y0129818D01*
X0063463Y0129867D01*
X0063501Y0129913D01*
X0063543Y0129957D01*
X0063587Y0129999D01*
X0063633Y0130037D01*
X0063682Y0130073D01*
X0063733Y0130106D01*
X0063785Y0130135D01*
X0063840Y0130162D01*
X0063895Y0130185D01*
X0063952Y0130205D01*
X0064011Y0130221D01*
X0064070Y0130234D01*
X0064129Y0130243D01*
X0064190Y0130248D01*
X0064250Y0130250D01*
X0064500Y0130250D01*
X0064569Y0130248D01*
X0064638Y0130242D01*
X0064706Y0130233D01*
X0064773Y0130220D01*
X0064840Y0130203D01*
X0064906Y0130182D01*
X0064970Y0130158D01*
X0065033Y0130130D01*
X0065095Y0130099D01*
X0065155Y0130065D01*
X0065212Y0130027D01*
X0065268Y0129986D01*
X0065321Y0129943D01*
X0065372Y0129896D01*
X0065420Y0129847D01*
X0065465Y0129795D01*
X0065507Y0129740D01*
X0065546Y0129684D01*
X0065583Y0129625D01*
X0065615Y0129564D01*
X0065645Y0129502D01*
X0065671Y0129438D01*
X0065693Y0129373D01*
X0065712Y0129307D01*
X0065727Y0129240D01*
X0065738Y0129172D01*
X0065746Y0129103D01*
X0065750Y0129034D01*
X0065750Y0128966D01*
X0065746Y0128897D01*
X0065738Y0128828D01*
X0065727Y0128760D01*
X0065712Y0128693D01*
X0065693Y0128627D01*
X0065671Y0128562D01*
X0065645Y0128498D01*
X0065615Y0128436D01*
X0065583Y0128375D01*
X0065546Y0128316D01*
X0065507Y0128260D01*
X0065465Y0128205D01*
X0065420Y0128153D01*
X0065372Y0128104D01*
X0065321Y0128057D01*
X0065268Y0128014D01*
X0065212Y0127973D01*
X0065155Y0127935D01*
X0065095Y0127901D01*
X0065033Y0127870D01*
X0064970Y0127842D01*
X0064906Y0127818D01*
X0064840Y0127797D01*
X0064773Y0127780D01*
X0064706Y0127767D01*
X0064638Y0127758D01*
X0064569Y0127752D01*
X0064500Y0127750D01*
X0065750Y0123475D02*
X0061250Y0123475D01*
X0111250Y0123475D02*
X0115750Y0123475D01*
X0114000Y0123475D02*
X0111250Y0125975D01*
X0113000Y0124475D02*
X0115750Y0125975D01*
X0114750Y0127750D02*
X0114750Y0130250D01*
X0113750Y0129500D02*
X0115750Y0129500D01*
X0114750Y0127750D02*
X0111250Y0128750D01*
X0112500Y0121250D02*
X0114500Y0121250D01*
X0114569Y0121248D01*
X0114638Y0121242D01*
X0114706Y0121233D01*
X0114773Y0121220D01*
X0114840Y0121203D01*
X0114906Y0121182D01*
X0114970Y0121158D01*
X0115033Y0121130D01*
X0115095Y0121099D01*
X0115155Y0121065D01*
X0115212Y0121027D01*
X0115268Y0120986D01*
X0115321Y0120943D01*
X0115372Y0120896D01*
X0115420Y0120847D01*
X0115465Y0120795D01*
X0115507Y0120740D01*
X0115546Y0120684D01*
X0115583Y0120625D01*
X0115615Y0120564D01*
X0115645Y0120502D01*
X0115671Y0120438D01*
X0115693Y0120373D01*
X0115712Y0120307D01*
X0115727Y0120240D01*
X0115738Y0120172D01*
X0115746Y0120103D01*
X0115750Y0120034D01*
X0115750Y0119966D01*
X0115746Y0119897D01*
X0115738Y0119828D01*
X0115727Y0119760D01*
X0115712Y0119693D01*
X0115693Y0119627D01*
X0115671Y0119562D01*
X0115645Y0119498D01*
X0115615Y0119436D01*
X0115583Y0119375D01*
X0115546Y0119316D01*
X0115507Y0119260D01*
X0115465Y0119205D01*
X0115420Y0119153D01*
X0115372Y0119104D01*
X0115321Y0119057D01*
X0115268Y0119014D01*
X0115212Y0118973D01*
X0115155Y0118935D01*
X0115095Y0118901D01*
X0115033Y0118870D01*
X0114970Y0118842D01*
X0114906Y0118818D01*
X0114840Y0118797D01*
X0114773Y0118780D01*
X0114706Y0118767D01*
X0114638Y0118758D01*
X0114569Y0118752D01*
X0114500Y0118750D01*
X0112500Y0118750D01*
X0112431Y0118752D01*
X0112362Y0118758D01*
X0112294Y0118767D01*
X0112227Y0118780D01*
X0112160Y0118797D01*
X0112094Y0118818D01*
X0112030Y0118842D01*
X0111967Y0118870D01*
X0111905Y0118901D01*
X0111845Y0118935D01*
X0111788Y0118973D01*
X0111732Y0119014D01*
X0111679Y0119057D01*
X0111628Y0119104D01*
X0111580Y0119153D01*
X0111535Y0119205D01*
X0111493Y0119260D01*
X0111454Y0119316D01*
X0111417Y0119375D01*
X0111385Y0119436D01*
X0111355Y0119498D01*
X0111329Y0119562D01*
X0111307Y0119627D01*
X0111288Y0119693D01*
X0111273Y0119760D01*
X0111262Y0119828D01*
X0111254Y0119897D01*
X0111250Y0119966D01*
X0111250Y0120034D01*
X0111254Y0120103D01*
X0111262Y0120172D01*
X0111273Y0120240D01*
X0111288Y0120307D01*
X0111307Y0120373D01*
X0111329Y0120438D01*
X0111355Y0120502D01*
X0111385Y0120564D01*
X0111417Y0120625D01*
X0111454Y0120684D01*
X0111493Y0120740D01*
X0111535Y0120795D01*
X0111580Y0120847D01*
X0111628Y0120896D01*
X0111679Y0120943D01*
X0111732Y0120986D01*
X0111788Y0121027D01*
X0111845Y0121065D01*
X0111905Y0121099D01*
X0111967Y0121130D01*
X0112030Y0121158D01*
X0112094Y0121182D01*
X0112160Y0121203D01*
X0112227Y0121220D01*
X0112294Y0121233D01*
X0112362Y0121242D01*
X0112431Y0121248D01*
X0112500Y0121250D01*
X0156250Y0123475D02*
X0160750Y0123475D01*
X0159000Y0123475D02*
X0156250Y0125975D01*
X0158000Y0124475D02*
X0160750Y0125975D01*
X0160750Y0127750D02*
X0160750Y0130250D01*
X0160750Y0127750D02*
X0158250Y0129875D01*
X0156250Y0129125D02*
X0156252Y0129052D01*
X0156257Y0128980D01*
X0156266Y0128908D01*
X0156279Y0128836D01*
X0156295Y0128765D01*
X0156315Y0128695D01*
X0156339Y0128627D01*
X0156365Y0128559D01*
X0156396Y0128493D01*
X0156429Y0128428D01*
X0156466Y0128366D01*
X0156505Y0128305D01*
X0156548Y0128246D01*
X0156594Y0128189D01*
X0156642Y0128135D01*
X0156693Y0128084D01*
X0156747Y0128034D01*
X0156803Y0127988D01*
X0156861Y0127945D01*
X0156922Y0127904D01*
X0156984Y0127867D01*
X0157048Y0127833D01*
X0157114Y0127802D01*
X0157181Y0127774D01*
X0157250Y0127750D01*
X0158250Y0129875D02*
X0158204Y0129921D01*
X0158155Y0129965D01*
X0158104Y0130005D01*
X0158051Y0130043D01*
X0157996Y0130078D01*
X0157939Y0130110D01*
X0157881Y0130139D01*
X0157821Y0130165D01*
X0157759Y0130187D01*
X0157697Y0130206D01*
X0157634Y0130222D01*
X0157570Y0130234D01*
X0157505Y0130243D01*
X0157440Y0130248D01*
X0157375Y0130250D01*
X0157310Y0130248D01*
X0157244Y0130242D01*
X0157180Y0130233D01*
X0157116Y0130220D01*
X0157052Y0130203D01*
X0156990Y0130182D01*
X0156929Y0130158D01*
X0156870Y0130130D01*
X0156813Y0130099D01*
X0156757Y0130065D01*
X0156703Y0130027D01*
X0156652Y0129987D01*
X0156603Y0129943D01*
X0156557Y0129897D01*
X0156513Y0129848D01*
X0156473Y0129797D01*
X0156435Y0129743D01*
X0156401Y0129688D01*
X0156370Y0129630D01*
X0156342Y0129571D01*
X0156318Y0129510D01*
X0156297Y0129448D01*
X0156280Y0129384D01*
X0156267Y0129320D01*
X0156258Y0129256D01*
X0156252Y0129190D01*
X0156250Y0129125D01*
X0157500Y0121250D02*
X0159500Y0121250D01*
X0159569Y0121248D01*
X0159638Y0121242D01*
X0159706Y0121233D01*
X0159773Y0121220D01*
X0159840Y0121203D01*
X0159906Y0121182D01*
X0159970Y0121158D01*
X0160033Y0121130D01*
X0160095Y0121099D01*
X0160155Y0121065D01*
X0160212Y0121027D01*
X0160268Y0120986D01*
X0160321Y0120943D01*
X0160372Y0120896D01*
X0160420Y0120847D01*
X0160465Y0120795D01*
X0160507Y0120740D01*
X0160546Y0120684D01*
X0160583Y0120625D01*
X0160615Y0120564D01*
X0160645Y0120502D01*
X0160671Y0120438D01*
X0160693Y0120373D01*
X0160712Y0120307D01*
X0160727Y0120240D01*
X0160738Y0120172D01*
X0160746Y0120103D01*
X0160750Y0120034D01*
X0160750Y0119966D01*
X0160746Y0119897D01*
X0160738Y0119828D01*
X0160727Y0119760D01*
X0160712Y0119693D01*
X0160693Y0119627D01*
X0160671Y0119562D01*
X0160645Y0119498D01*
X0160615Y0119436D01*
X0160583Y0119375D01*
X0160546Y0119316D01*
X0160507Y0119260D01*
X0160465Y0119205D01*
X0160420Y0119153D01*
X0160372Y0119104D01*
X0160321Y0119057D01*
X0160268Y0119014D01*
X0160212Y0118973D01*
X0160155Y0118935D01*
X0160095Y0118901D01*
X0160033Y0118870D01*
X0159970Y0118842D01*
X0159906Y0118818D01*
X0159840Y0118797D01*
X0159773Y0118780D01*
X0159706Y0118767D01*
X0159638Y0118758D01*
X0159569Y0118752D01*
X0159500Y0118750D01*
X0157500Y0118750D01*
X0157431Y0118752D01*
X0157362Y0118758D01*
X0157294Y0118767D01*
X0157227Y0118780D01*
X0157160Y0118797D01*
X0157094Y0118818D01*
X0157030Y0118842D01*
X0156967Y0118870D01*
X0156905Y0118901D01*
X0156845Y0118935D01*
X0156788Y0118973D01*
X0156732Y0119014D01*
X0156679Y0119057D01*
X0156628Y0119104D01*
X0156580Y0119153D01*
X0156535Y0119205D01*
X0156493Y0119260D01*
X0156454Y0119316D01*
X0156417Y0119375D01*
X0156385Y0119436D01*
X0156355Y0119498D01*
X0156329Y0119562D01*
X0156307Y0119627D01*
X0156288Y0119693D01*
X0156273Y0119760D01*
X0156262Y0119828D01*
X0156254Y0119897D01*
X0156250Y0119966D01*
X0156250Y0120034D01*
X0156254Y0120103D01*
X0156262Y0120172D01*
X0156273Y0120240D01*
X0156288Y0120307D01*
X0156307Y0120373D01*
X0156329Y0120438D01*
X0156355Y0120502D01*
X0156385Y0120564D01*
X0156417Y0120625D01*
X0156454Y0120684D01*
X0156493Y0120740D01*
X0156535Y0120795D01*
X0156580Y0120847D01*
X0156628Y0120896D01*
X0156679Y0120943D01*
X0156732Y0120986D01*
X0156788Y0121027D01*
X0156845Y0121065D01*
X0156905Y0121099D01*
X0156967Y0121130D01*
X0157030Y0121158D01*
X0157094Y0121182D01*
X0157160Y0121203D01*
X0157227Y0121220D01*
X0157294Y0121233D01*
X0157362Y0121242D01*
X0157431Y0121248D01*
X0157500Y0121250D01*
X0094967Y0167250D02*
X0093717Y0167250D01*
X0094967Y0167250D02*
X0095036Y0167252D01*
X0095105Y0167258D01*
X0095173Y0167267D01*
X0095240Y0167280D01*
X0095307Y0167297D01*
X0095373Y0167318D01*
X0095437Y0167342D01*
X0095500Y0167370D01*
X0095562Y0167401D01*
X0095622Y0167435D01*
X0095679Y0167473D01*
X0095735Y0167514D01*
X0095788Y0167557D01*
X0095839Y0167604D01*
X0095887Y0167653D01*
X0095932Y0167705D01*
X0095974Y0167760D01*
X0096013Y0167816D01*
X0096050Y0167875D01*
X0096082Y0167936D01*
X0096112Y0167998D01*
X0096138Y0168062D01*
X0096160Y0168127D01*
X0096179Y0168193D01*
X0096194Y0168260D01*
X0096205Y0168328D01*
X0096213Y0168397D01*
X0096217Y0168466D01*
X0096217Y0168534D01*
X0096213Y0168603D01*
X0096205Y0168672D01*
X0096194Y0168740D01*
X0096179Y0168807D01*
X0096160Y0168873D01*
X0096138Y0168938D01*
X0096112Y0169002D01*
X0096082Y0169064D01*
X0096050Y0169125D01*
X0096013Y0169184D01*
X0095974Y0169240D01*
X0095932Y0169295D01*
X0095887Y0169347D01*
X0095839Y0169396D01*
X0095788Y0169443D01*
X0095735Y0169486D01*
X0095679Y0169527D01*
X0095622Y0169565D01*
X0095562Y0169599D01*
X0095500Y0169630D01*
X0095437Y0169658D01*
X0095373Y0169682D01*
X0095307Y0169703D01*
X0095240Y0169720D01*
X0095173Y0169733D01*
X0095105Y0169742D01*
X0095036Y0169748D01*
X0094967Y0169750D01*
X0095217Y0169750D02*
X0094217Y0169750D01*
X0095217Y0169750D02*
X0095279Y0169752D01*
X0095340Y0169758D01*
X0095401Y0169767D01*
X0095461Y0169780D01*
X0095520Y0169797D01*
X0095578Y0169818D01*
X0095635Y0169842D01*
X0095690Y0169869D01*
X0095743Y0169900D01*
X0095795Y0169934D01*
X0095844Y0169971D01*
X0095891Y0170011D01*
X0095935Y0170054D01*
X0095976Y0170099D01*
X0096015Y0170147D01*
X0096051Y0170198D01*
X0096083Y0170250D01*
X0096112Y0170304D01*
X0096138Y0170360D01*
X0096160Y0170418D01*
X0096179Y0170476D01*
X0096194Y0170536D01*
X0096205Y0170597D01*
X0096213Y0170658D01*
X0096217Y0170719D01*
X0096217Y0170781D01*
X0096213Y0170842D01*
X0096205Y0170903D01*
X0096194Y0170964D01*
X0096179Y0171024D01*
X0096160Y0171082D01*
X0096138Y0171140D01*
X0096112Y0171196D01*
X0096083Y0171250D01*
X0096051Y0171302D01*
X0096015Y0171353D01*
X0095976Y0171401D01*
X0095935Y0171446D01*
X0095891Y0171489D01*
X0095844Y0171529D01*
X0095795Y0171566D01*
X0095743Y0171600D01*
X0095690Y0171631D01*
X0095635Y0171658D01*
X0095578Y0171682D01*
X0095520Y0171703D01*
X0095461Y0171720D01*
X0095401Y0171733D01*
X0095340Y0171742D01*
X0095279Y0171748D01*
X0095217Y0171750D01*
X0093717Y0171750D01*
X0090500Y0171750D02*
X0089250Y0171750D01*
X0089250Y0167250D01*
X0089250Y0169250D02*
X0090500Y0169250D01*
X0090750Y0169250D02*
X0091750Y0167250D01*
X0090500Y0169250D02*
X0090569Y0169252D01*
X0090638Y0169258D01*
X0090706Y0169267D01*
X0090773Y0169280D01*
X0090840Y0169297D01*
X0090906Y0169318D01*
X0090970Y0169342D01*
X0091033Y0169370D01*
X0091095Y0169401D01*
X0091155Y0169435D01*
X0091212Y0169473D01*
X0091268Y0169514D01*
X0091321Y0169557D01*
X0091372Y0169604D01*
X0091420Y0169653D01*
X0091465Y0169705D01*
X0091507Y0169760D01*
X0091546Y0169816D01*
X0091583Y0169875D01*
X0091615Y0169936D01*
X0091645Y0169998D01*
X0091671Y0170062D01*
X0091693Y0170127D01*
X0091712Y0170193D01*
X0091727Y0170260D01*
X0091738Y0170328D01*
X0091746Y0170397D01*
X0091750Y0170466D01*
X0091750Y0170534D01*
X0091746Y0170603D01*
X0091738Y0170672D01*
X0091727Y0170740D01*
X0091712Y0170807D01*
X0091693Y0170873D01*
X0091671Y0170938D01*
X0091645Y0171002D01*
X0091615Y0171064D01*
X0091583Y0171125D01*
X0091546Y0171184D01*
X0091507Y0171240D01*
X0091465Y0171295D01*
X0091420Y0171347D01*
X0091372Y0171396D01*
X0091321Y0171443D01*
X0091268Y0171486D01*
X0091212Y0171527D01*
X0091155Y0171565D01*
X0091095Y0171599D01*
X0091033Y0171630D01*
X0090970Y0171658D01*
X0090906Y0171682D01*
X0090840Y0171703D01*
X0090773Y0171720D01*
X0090706Y0171733D01*
X0090638Y0171742D01*
X0090569Y0171748D01*
X0090500Y0171750D01*
X0089967Y0187250D02*
X0089967Y0191750D01*
X0088717Y0190750D01*
X0085500Y0191750D02*
X0085569Y0191748D01*
X0085638Y0191742D01*
X0085706Y0191733D01*
X0085773Y0191720D01*
X0085840Y0191703D01*
X0085906Y0191682D01*
X0085970Y0191658D01*
X0086033Y0191630D01*
X0086095Y0191599D01*
X0086155Y0191565D01*
X0086212Y0191527D01*
X0086268Y0191486D01*
X0086321Y0191443D01*
X0086372Y0191396D01*
X0086420Y0191347D01*
X0086465Y0191295D01*
X0086507Y0191240D01*
X0086546Y0191184D01*
X0086583Y0191125D01*
X0086615Y0191064D01*
X0086645Y0191002D01*
X0086671Y0190938D01*
X0086693Y0190873D01*
X0086712Y0190807D01*
X0086727Y0190740D01*
X0086738Y0190672D01*
X0086746Y0190603D01*
X0086750Y0190534D01*
X0086750Y0190466D01*
X0086746Y0190397D01*
X0086738Y0190328D01*
X0086727Y0190260D01*
X0086712Y0190193D01*
X0086693Y0190127D01*
X0086671Y0190062D01*
X0086645Y0189998D01*
X0086615Y0189936D01*
X0086583Y0189875D01*
X0086546Y0189816D01*
X0086507Y0189760D01*
X0086465Y0189705D01*
X0086420Y0189653D01*
X0086372Y0189604D01*
X0086321Y0189557D01*
X0086268Y0189514D01*
X0086212Y0189473D01*
X0086155Y0189435D01*
X0086095Y0189401D01*
X0086033Y0189370D01*
X0085970Y0189342D01*
X0085906Y0189318D01*
X0085840Y0189297D01*
X0085773Y0189280D01*
X0085706Y0189267D01*
X0085638Y0189258D01*
X0085569Y0189252D01*
X0085500Y0189250D01*
X0084250Y0189250D01*
X0085750Y0189250D02*
X0086750Y0187250D01*
X0088717Y0187250D02*
X0091217Y0187250D01*
X0093217Y0187250D02*
X0095717Y0187250D01*
X0093217Y0187250D02*
X0095342Y0189750D01*
X0094592Y0191750D02*
X0094519Y0191748D01*
X0094447Y0191743D01*
X0094375Y0191734D01*
X0094303Y0191721D01*
X0094232Y0191705D01*
X0094162Y0191685D01*
X0094094Y0191661D01*
X0094026Y0191635D01*
X0093960Y0191604D01*
X0093895Y0191571D01*
X0093833Y0191534D01*
X0093772Y0191495D01*
X0093713Y0191452D01*
X0093656Y0191406D01*
X0093602Y0191358D01*
X0093551Y0191307D01*
X0093501Y0191253D01*
X0093455Y0191197D01*
X0093412Y0191139D01*
X0093371Y0191078D01*
X0093334Y0191016D01*
X0093300Y0190952D01*
X0093269Y0190886D01*
X0093241Y0190819D01*
X0093217Y0190750D01*
X0095342Y0189750D02*
X0095388Y0189796D01*
X0095432Y0189845D01*
X0095472Y0189896D01*
X0095510Y0189949D01*
X0095545Y0190004D01*
X0095577Y0190061D01*
X0095606Y0190119D01*
X0095632Y0190179D01*
X0095654Y0190241D01*
X0095673Y0190303D01*
X0095689Y0190366D01*
X0095701Y0190430D01*
X0095710Y0190495D01*
X0095715Y0190560D01*
X0095717Y0190625D01*
X0095715Y0190690D01*
X0095709Y0190756D01*
X0095700Y0190820D01*
X0095687Y0190884D01*
X0095670Y0190948D01*
X0095649Y0191010D01*
X0095625Y0191071D01*
X0095597Y0191130D01*
X0095566Y0191188D01*
X0095532Y0191243D01*
X0095494Y0191297D01*
X0095454Y0191348D01*
X0095410Y0191397D01*
X0095364Y0191443D01*
X0095315Y0191487D01*
X0095264Y0191527D01*
X0095210Y0191565D01*
X0095155Y0191599D01*
X0095097Y0191630D01*
X0095038Y0191658D01*
X0094977Y0191682D01*
X0094915Y0191703D01*
X0094851Y0191720D01*
X0094787Y0191733D01*
X0094723Y0191742D01*
X0094657Y0191748D01*
X0094592Y0191750D01*
X0085500Y0191750D02*
X0084250Y0191750D01*
X0084250Y0187250D01*
X0084250Y0212250D02*
X0084250Y0216750D01*
X0085500Y0216750D01*
X0085569Y0216748D01*
X0085638Y0216742D01*
X0085706Y0216733D01*
X0085773Y0216720D01*
X0085840Y0216703D01*
X0085906Y0216682D01*
X0085970Y0216658D01*
X0086033Y0216630D01*
X0086095Y0216599D01*
X0086155Y0216565D01*
X0086212Y0216527D01*
X0086268Y0216486D01*
X0086321Y0216443D01*
X0086372Y0216396D01*
X0086420Y0216347D01*
X0086465Y0216295D01*
X0086507Y0216240D01*
X0086546Y0216184D01*
X0086583Y0216125D01*
X0086615Y0216064D01*
X0086645Y0216002D01*
X0086671Y0215938D01*
X0086693Y0215873D01*
X0086712Y0215807D01*
X0086727Y0215740D01*
X0086738Y0215672D01*
X0086746Y0215603D01*
X0086750Y0215534D01*
X0086750Y0215466D01*
X0086746Y0215397D01*
X0086738Y0215328D01*
X0086727Y0215260D01*
X0086712Y0215193D01*
X0086693Y0215127D01*
X0086671Y0215062D01*
X0086645Y0214998D01*
X0086615Y0214936D01*
X0086583Y0214875D01*
X0086546Y0214816D01*
X0086507Y0214760D01*
X0086465Y0214705D01*
X0086420Y0214653D01*
X0086372Y0214604D01*
X0086321Y0214557D01*
X0086268Y0214514D01*
X0086212Y0214473D01*
X0086155Y0214435D01*
X0086095Y0214401D01*
X0086033Y0214370D01*
X0085970Y0214342D01*
X0085906Y0214318D01*
X0085840Y0214297D01*
X0085773Y0214280D01*
X0085706Y0214267D01*
X0085638Y0214258D01*
X0085569Y0214252D01*
X0085500Y0214250D01*
X0084250Y0214250D01*
X0085750Y0214250D02*
X0086750Y0212250D01*
X0088717Y0212250D02*
X0090217Y0212250D01*
X0090277Y0212252D01*
X0090338Y0212257D01*
X0090397Y0212266D01*
X0090456Y0212279D01*
X0090515Y0212295D01*
X0090572Y0212315D01*
X0090627Y0212338D01*
X0090682Y0212365D01*
X0090734Y0212394D01*
X0090785Y0212427D01*
X0090834Y0212463D01*
X0090880Y0212501D01*
X0090924Y0212543D01*
X0090966Y0212587D01*
X0091004Y0212633D01*
X0091040Y0212682D01*
X0091073Y0212733D01*
X0091102Y0212785D01*
X0091129Y0212840D01*
X0091152Y0212895D01*
X0091172Y0212952D01*
X0091188Y0213011D01*
X0091201Y0213070D01*
X0091210Y0213129D01*
X0091215Y0213190D01*
X0091217Y0213250D01*
X0091217Y0213750D01*
X0091215Y0213810D01*
X0091210Y0213871D01*
X0091201Y0213930D01*
X0091188Y0213989D01*
X0091172Y0214048D01*
X0091152Y0214105D01*
X0091129Y0214160D01*
X0091102Y0214215D01*
X0091073Y0214267D01*
X0091040Y0214318D01*
X0091004Y0214367D01*
X0090966Y0214413D01*
X0090924Y0214457D01*
X0090880Y0214499D01*
X0090834Y0214537D01*
X0090785Y0214573D01*
X0090734Y0214606D01*
X0090682Y0214635D01*
X0090627Y0214662D01*
X0090572Y0214685D01*
X0090515Y0214705D01*
X0090456Y0214721D01*
X0090397Y0214734D01*
X0090338Y0214743D01*
X0090277Y0214748D01*
X0090217Y0214750D01*
X0088717Y0214750D01*
X0088717Y0216750D01*
X0091217Y0216750D01*
X0044717Y0191750D02*
X0043217Y0191750D01*
X0044717Y0191750D02*
X0044779Y0191748D01*
X0044840Y0191742D01*
X0044901Y0191733D01*
X0044961Y0191720D01*
X0045020Y0191703D01*
X0045078Y0191682D01*
X0045135Y0191658D01*
X0045190Y0191631D01*
X0045243Y0191600D01*
X0045295Y0191566D01*
X0045344Y0191529D01*
X0045391Y0191489D01*
X0045435Y0191446D01*
X0045476Y0191401D01*
X0045515Y0191353D01*
X0045551Y0191302D01*
X0045583Y0191250D01*
X0045612Y0191196D01*
X0045638Y0191140D01*
X0045660Y0191082D01*
X0045679Y0191024D01*
X0045694Y0190964D01*
X0045705Y0190903D01*
X0045713Y0190842D01*
X0045717Y0190781D01*
X0045717Y0190719D01*
X0045713Y0190658D01*
X0045705Y0190597D01*
X0045694Y0190536D01*
X0045679Y0190476D01*
X0045660Y0190418D01*
X0045638Y0190360D01*
X0045612Y0190304D01*
X0045583Y0190250D01*
X0045551Y0190198D01*
X0045515Y0190147D01*
X0045476Y0190099D01*
X0045435Y0190054D01*
X0045391Y0190011D01*
X0045344Y0189971D01*
X0045295Y0189934D01*
X0045243Y0189900D01*
X0045190Y0189869D01*
X0045135Y0189842D01*
X0045078Y0189818D01*
X0045020Y0189797D01*
X0044961Y0189780D01*
X0044901Y0189767D01*
X0044840Y0189758D01*
X0044779Y0189752D01*
X0044717Y0189750D01*
X0043717Y0189750D01*
X0044467Y0189750D02*
X0044536Y0189748D01*
X0044605Y0189742D01*
X0044673Y0189733D01*
X0044740Y0189720D01*
X0044807Y0189703D01*
X0044873Y0189682D01*
X0044937Y0189658D01*
X0045000Y0189630D01*
X0045062Y0189599D01*
X0045122Y0189565D01*
X0045179Y0189527D01*
X0045235Y0189486D01*
X0045288Y0189443D01*
X0045339Y0189396D01*
X0045387Y0189347D01*
X0045432Y0189295D01*
X0045474Y0189240D01*
X0045513Y0189184D01*
X0045550Y0189125D01*
X0045582Y0189064D01*
X0045612Y0189002D01*
X0045638Y0188938D01*
X0045660Y0188873D01*
X0045679Y0188807D01*
X0045694Y0188740D01*
X0045705Y0188672D01*
X0045713Y0188603D01*
X0045717Y0188534D01*
X0045717Y0188466D01*
X0045713Y0188397D01*
X0045705Y0188328D01*
X0045694Y0188260D01*
X0045679Y0188193D01*
X0045660Y0188127D01*
X0045638Y0188062D01*
X0045612Y0187998D01*
X0045582Y0187936D01*
X0045550Y0187875D01*
X0045513Y0187816D01*
X0045474Y0187760D01*
X0045432Y0187705D01*
X0045387Y0187653D01*
X0045339Y0187604D01*
X0045288Y0187557D01*
X0045235Y0187514D01*
X0045179Y0187473D01*
X0045122Y0187435D01*
X0045062Y0187401D01*
X0045000Y0187370D01*
X0044937Y0187342D01*
X0044873Y0187318D01*
X0044807Y0187297D01*
X0044740Y0187280D01*
X0044673Y0187267D01*
X0044605Y0187258D01*
X0044536Y0187252D01*
X0044467Y0187250D01*
X0043217Y0187250D01*
X0041217Y0187250D02*
X0038717Y0187250D01*
X0039967Y0187250D02*
X0039967Y0191750D01*
X0038717Y0190750D01*
X0035500Y0191750D02*
X0035569Y0191748D01*
X0035638Y0191742D01*
X0035706Y0191733D01*
X0035773Y0191720D01*
X0035840Y0191703D01*
X0035906Y0191682D01*
X0035970Y0191658D01*
X0036033Y0191630D01*
X0036095Y0191599D01*
X0036155Y0191565D01*
X0036212Y0191527D01*
X0036268Y0191486D01*
X0036321Y0191443D01*
X0036372Y0191396D01*
X0036420Y0191347D01*
X0036465Y0191295D01*
X0036507Y0191240D01*
X0036546Y0191184D01*
X0036583Y0191125D01*
X0036615Y0191064D01*
X0036645Y0191002D01*
X0036671Y0190938D01*
X0036693Y0190873D01*
X0036712Y0190807D01*
X0036727Y0190740D01*
X0036738Y0190672D01*
X0036746Y0190603D01*
X0036750Y0190534D01*
X0036750Y0190466D01*
X0036746Y0190397D01*
X0036738Y0190328D01*
X0036727Y0190260D01*
X0036712Y0190193D01*
X0036693Y0190127D01*
X0036671Y0190062D01*
X0036645Y0189998D01*
X0036615Y0189936D01*
X0036583Y0189875D01*
X0036546Y0189816D01*
X0036507Y0189760D01*
X0036465Y0189705D01*
X0036420Y0189653D01*
X0036372Y0189604D01*
X0036321Y0189557D01*
X0036268Y0189514D01*
X0036212Y0189473D01*
X0036155Y0189435D01*
X0036095Y0189401D01*
X0036033Y0189370D01*
X0035970Y0189342D01*
X0035906Y0189318D01*
X0035840Y0189297D01*
X0035773Y0189280D01*
X0035706Y0189267D01*
X0035638Y0189258D01*
X0035569Y0189252D01*
X0035500Y0189250D01*
X0034250Y0189250D01*
X0035750Y0189250D02*
X0036750Y0187250D01*
X0034250Y0187250D02*
X0034250Y0191750D01*
X0035500Y0191750D01*
X0034250Y0212250D02*
X0034250Y0216750D01*
X0035500Y0216750D01*
X0035569Y0216748D01*
X0035638Y0216742D01*
X0035706Y0216733D01*
X0035773Y0216720D01*
X0035840Y0216703D01*
X0035906Y0216682D01*
X0035970Y0216658D01*
X0036033Y0216630D01*
X0036095Y0216599D01*
X0036155Y0216565D01*
X0036212Y0216527D01*
X0036268Y0216486D01*
X0036321Y0216443D01*
X0036372Y0216396D01*
X0036420Y0216347D01*
X0036465Y0216295D01*
X0036507Y0216240D01*
X0036546Y0216184D01*
X0036583Y0216125D01*
X0036615Y0216064D01*
X0036645Y0216002D01*
X0036671Y0215938D01*
X0036693Y0215873D01*
X0036712Y0215807D01*
X0036727Y0215740D01*
X0036738Y0215672D01*
X0036746Y0215603D01*
X0036750Y0215534D01*
X0036750Y0215466D01*
X0036746Y0215397D01*
X0036738Y0215328D01*
X0036727Y0215260D01*
X0036712Y0215193D01*
X0036693Y0215127D01*
X0036671Y0215062D01*
X0036645Y0214998D01*
X0036615Y0214936D01*
X0036583Y0214875D01*
X0036546Y0214816D01*
X0036507Y0214760D01*
X0036465Y0214705D01*
X0036420Y0214653D01*
X0036372Y0214604D01*
X0036321Y0214557D01*
X0036268Y0214514D01*
X0036212Y0214473D01*
X0036155Y0214435D01*
X0036095Y0214401D01*
X0036033Y0214370D01*
X0035970Y0214342D01*
X0035906Y0214318D01*
X0035840Y0214297D01*
X0035773Y0214280D01*
X0035706Y0214267D01*
X0035638Y0214258D01*
X0035569Y0214252D01*
X0035500Y0214250D01*
X0034250Y0214250D01*
X0035750Y0214250D02*
X0036750Y0212250D01*
X0038717Y0213500D02*
X0038719Y0213431D01*
X0038725Y0213362D01*
X0038734Y0213294D01*
X0038747Y0213227D01*
X0038764Y0213160D01*
X0038785Y0213094D01*
X0038809Y0213030D01*
X0038837Y0212967D01*
X0038868Y0212905D01*
X0038902Y0212845D01*
X0038940Y0212788D01*
X0038981Y0212732D01*
X0039024Y0212679D01*
X0039071Y0212628D01*
X0039120Y0212580D01*
X0039172Y0212535D01*
X0039227Y0212493D01*
X0039283Y0212454D01*
X0039342Y0212417D01*
X0039403Y0212385D01*
X0039465Y0212355D01*
X0039529Y0212329D01*
X0039594Y0212307D01*
X0039660Y0212288D01*
X0039727Y0212273D01*
X0039795Y0212262D01*
X0039864Y0212254D01*
X0039933Y0212250D01*
X0040001Y0212250D01*
X0040070Y0212254D01*
X0040139Y0212262D01*
X0040207Y0212273D01*
X0040274Y0212288D01*
X0040340Y0212307D01*
X0040405Y0212329D01*
X0040469Y0212355D01*
X0040531Y0212385D01*
X0040592Y0212417D01*
X0040651Y0212454D01*
X0040707Y0212493D01*
X0040762Y0212535D01*
X0040814Y0212580D01*
X0040863Y0212628D01*
X0040910Y0212679D01*
X0040953Y0212732D01*
X0040994Y0212788D01*
X0041032Y0212845D01*
X0041066Y0212905D01*
X0041097Y0212967D01*
X0041125Y0213030D01*
X0041149Y0213094D01*
X0041170Y0213160D01*
X0041187Y0213227D01*
X0041200Y0213294D01*
X0041209Y0213362D01*
X0041215Y0213431D01*
X0041217Y0213500D01*
X0041215Y0213569D01*
X0041209Y0213638D01*
X0041200Y0213706D01*
X0041187Y0213773D01*
X0041170Y0213840D01*
X0041149Y0213906D01*
X0041125Y0213970D01*
X0041097Y0214033D01*
X0041066Y0214095D01*
X0041032Y0214155D01*
X0040994Y0214212D01*
X0040953Y0214268D01*
X0040910Y0214321D01*
X0040863Y0214372D01*
X0040814Y0214420D01*
X0040762Y0214465D01*
X0040707Y0214507D01*
X0040651Y0214546D01*
X0040592Y0214583D01*
X0040531Y0214615D01*
X0040469Y0214645D01*
X0040405Y0214671D01*
X0040340Y0214693D01*
X0040274Y0214712D01*
X0040207Y0214727D01*
X0040139Y0214738D01*
X0040070Y0214746D01*
X0040001Y0214750D01*
X0039933Y0214750D01*
X0039864Y0214746D01*
X0039795Y0214738D01*
X0039727Y0214727D01*
X0039660Y0214712D01*
X0039594Y0214693D01*
X0039529Y0214671D01*
X0039465Y0214645D01*
X0039403Y0214615D01*
X0039342Y0214583D01*
X0039283Y0214546D01*
X0039227Y0214507D01*
X0039172Y0214465D01*
X0039120Y0214420D01*
X0039071Y0214372D01*
X0039024Y0214321D01*
X0038981Y0214268D01*
X0038940Y0214212D01*
X0038902Y0214155D01*
X0038868Y0214095D01*
X0038837Y0214033D01*
X0038809Y0213970D01*
X0038785Y0213906D01*
X0038764Y0213840D01*
X0038747Y0213773D01*
X0038734Y0213706D01*
X0038725Y0213638D01*
X0038719Y0213569D01*
X0038717Y0213500D01*
X0038967Y0215750D02*
X0038969Y0215688D01*
X0038975Y0215627D01*
X0038984Y0215566D01*
X0038997Y0215506D01*
X0039014Y0215447D01*
X0039035Y0215389D01*
X0039059Y0215332D01*
X0039086Y0215277D01*
X0039117Y0215224D01*
X0039151Y0215172D01*
X0039188Y0215123D01*
X0039228Y0215076D01*
X0039271Y0215032D01*
X0039316Y0214991D01*
X0039364Y0214952D01*
X0039415Y0214916D01*
X0039467Y0214884D01*
X0039521Y0214855D01*
X0039577Y0214829D01*
X0039635Y0214807D01*
X0039693Y0214788D01*
X0039753Y0214773D01*
X0039814Y0214762D01*
X0039875Y0214754D01*
X0039936Y0214750D01*
X0039998Y0214750D01*
X0040059Y0214754D01*
X0040120Y0214762D01*
X0040181Y0214773D01*
X0040241Y0214788D01*
X0040299Y0214807D01*
X0040357Y0214829D01*
X0040413Y0214855D01*
X0040467Y0214884D01*
X0040519Y0214916D01*
X0040570Y0214952D01*
X0040618Y0214991D01*
X0040663Y0215032D01*
X0040706Y0215076D01*
X0040746Y0215123D01*
X0040783Y0215172D01*
X0040817Y0215224D01*
X0040848Y0215277D01*
X0040875Y0215332D01*
X0040899Y0215389D01*
X0040920Y0215447D01*
X0040937Y0215506D01*
X0040950Y0215566D01*
X0040959Y0215627D01*
X0040965Y0215688D01*
X0040967Y0215750D01*
X0040965Y0215812D01*
X0040959Y0215873D01*
X0040950Y0215934D01*
X0040937Y0215994D01*
X0040920Y0216053D01*
X0040899Y0216111D01*
X0040875Y0216168D01*
X0040848Y0216223D01*
X0040817Y0216276D01*
X0040783Y0216328D01*
X0040746Y0216377D01*
X0040706Y0216424D01*
X0040663Y0216468D01*
X0040618Y0216509D01*
X0040570Y0216548D01*
X0040519Y0216584D01*
X0040467Y0216616D01*
X0040413Y0216645D01*
X0040357Y0216671D01*
X0040299Y0216693D01*
X0040241Y0216712D01*
X0040181Y0216727D01*
X0040120Y0216738D01*
X0040059Y0216746D01*
X0039998Y0216750D01*
X0039936Y0216750D01*
X0039875Y0216746D01*
X0039814Y0216738D01*
X0039753Y0216727D01*
X0039693Y0216712D01*
X0039635Y0216693D01*
X0039577Y0216671D01*
X0039521Y0216645D01*
X0039467Y0216616D01*
X0039415Y0216584D01*
X0039364Y0216548D01*
X0039316Y0216509D01*
X0039271Y0216468D01*
X0039228Y0216424D01*
X0039188Y0216377D01*
X0039151Y0216328D01*
X0039117Y0216276D01*
X0039086Y0216223D01*
X0039059Y0216168D01*
X0039035Y0216111D01*
X0039014Y0216053D01*
X0038997Y0215994D01*
X0038984Y0215934D01*
X0038975Y0215873D01*
X0038969Y0215812D01*
X0038967Y0215750D01*
X0035500Y0171750D02*
X0034250Y0171750D01*
X0034250Y0167250D01*
X0034250Y0169250D02*
X0035500Y0169250D01*
X0035750Y0169250D02*
X0036750Y0167250D01*
X0039217Y0167250D02*
X0039304Y0167252D01*
X0039391Y0167258D01*
X0039478Y0167267D01*
X0039564Y0167280D01*
X0039650Y0167297D01*
X0039735Y0167318D01*
X0039818Y0167343D01*
X0039901Y0167371D01*
X0039982Y0167402D01*
X0040062Y0167437D01*
X0040140Y0167476D01*
X0040217Y0167518D01*
X0040292Y0167563D01*
X0040364Y0167612D01*
X0040435Y0167663D01*
X0040503Y0167718D01*
X0040568Y0167775D01*
X0040631Y0167836D01*
X0040692Y0167899D01*
X0040749Y0167964D01*
X0040804Y0168032D01*
X0040855Y0168103D01*
X0040904Y0168175D01*
X0040949Y0168250D01*
X0040991Y0168327D01*
X0041030Y0168405D01*
X0041065Y0168485D01*
X0041096Y0168566D01*
X0041124Y0168649D01*
X0041149Y0168732D01*
X0041170Y0168817D01*
X0041187Y0168903D01*
X0041200Y0168989D01*
X0041209Y0169076D01*
X0041215Y0169163D01*
X0041217Y0169250D01*
X0041217Y0170500D01*
X0041215Y0170569D01*
X0041209Y0170638D01*
X0041200Y0170706D01*
X0041187Y0170773D01*
X0041170Y0170840D01*
X0041149Y0170906D01*
X0041125Y0170970D01*
X0041097Y0171033D01*
X0041066Y0171095D01*
X0041032Y0171155D01*
X0040994Y0171212D01*
X0040953Y0171268D01*
X0040910Y0171321D01*
X0040863Y0171372D01*
X0040814Y0171420D01*
X0040762Y0171465D01*
X0040707Y0171507D01*
X0040651Y0171546D01*
X0040592Y0171583D01*
X0040531Y0171615D01*
X0040469Y0171645D01*
X0040405Y0171671D01*
X0040340Y0171693D01*
X0040274Y0171712D01*
X0040207Y0171727D01*
X0040139Y0171738D01*
X0040070Y0171746D01*
X0040001Y0171750D01*
X0039933Y0171750D01*
X0039864Y0171746D01*
X0039795Y0171738D01*
X0039727Y0171727D01*
X0039660Y0171712D01*
X0039594Y0171693D01*
X0039529Y0171671D01*
X0039465Y0171645D01*
X0039403Y0171615D01*
X0039342Y0171583D01*
X0039283Y0171546D01*
X0039227Y0171507D01*
X0039172Y0171465D01*
X0039120Y0171420D01*
X0039071Y0171372D01*
X0039024Y0171321D01*
X0038981Y0171268D01*
X0038940Y0171212D01*
X0038902Y0171155D01*
X0038868Y0171095D01*
X0038837Y0171033D01*
X0038809Y0170970D01*
X0038785Y0170906D01*
X0038764Y0170840D01*
X0038747Y0170773D01*
X0038734Y0170706D01*
X0038725Y0170638D01*
X0038719Y0170569D01*
X0038717Y0170500D01*
X0038717Y0170250D01*
X0038719Y0170190D01*
X0038724Y0170129D01*
X0038733Y0170070D01*
X0038746Y0170011D01*
X0038762Y0169952D01*
X0038782Y0169895D01*
X0038805Y0169840D01*
X0038832Y0169785D01*
X0038861Y0169733D01*
X0038894Y0169682D01*
X0038930Y0169633D01*
X0038968Y0169587D01*
X0039010Y0169543D01*
X0039054Y0169501D01*
X0039100Y0169463D01*
X0039149Y0169427D01*
X0039200Y0169394D01*
X0039252Y0169365D01*
X0039307Y0169338D01*
X0039362Y0169315D01*
X0039419Y0169295D01*
X0039478Y0169279D01*
X0039537Y0169266D01*
X0039596Y0169257D01*
X0039657Y0169252D01*
X0039717Y0169250D01*
X0041217Y0169250D01*
X0035500Y0169250D02*
X0035569Y0169252D01*
X0035638Y0169258D01*
X0035706Y0169267D01*
X0035773Y0169280D01*
X0035840Y0169297D01*
X0035906Y0169318D01*
X0035970Y0169342D01*
X0036033Y0169370D01*
X0036095Y0169401D01*
X0036155Y0169435D01*
X0036212Y0169473D01*
X0036268Y0169514D01*
X0036321Y0169557D01*
X0036372Y0169604D01*
X0036420Y0169653D01*
X0036465Y0169705D01*
X0036507Y0169760D01*
X0036546Y0169816D01*
X0036583Y0169875D01*
X0036615Y0169936D01*
X0036645Y0169998D01*
X0036671Y0170062D01*
X0036693Y0170127D01*
X0036712Y0170193D01*
X0036727Y0170260D01*
X0036738Y0170328D01*
X0036746Y0170397D01*
X0036750Y0170466D01*
X0036750Y0170534D01*
X0036746Y0170603D01*
X0036738Y0170672D01*
X0036727Y0170740D01*
X0036712Y0170807D01*
X0036693Y0170873D01*
X0036671Y0170938D01*
X0036645Y0171002D01*
X0036615Y0171064D01*
X0036583Y0171125D01*
X0036546Y0171184D01*
X0036507Y0171240D01*
X0036465Y0171295D01*
X0036420Y0171347D01*
X0036372Y0171396D01*
X0036321Y0171443D01*
X0036268Y0171486D01*
X0036212Y0171527D01*
X0036155Y0171565D01*
X0036095Y0171599D01*
X0036033Y0171630D01*
X0035970Y0171658D01*
X0035906Y0171682D01*
X0035840Y0171703D01*
X0035773Y0171720D01*
X0035706Y0171733D01*
X0035638Y0171742D01*
X0035569Y0171748D01*
X0035500Y0171750D01*
X0151250Y0178475D02*
X0155750Y0178475D01*
X0154000Y0178475D02*
X0151250Y0180975D01*
X0152250Y0182750D02*
X0151250Y0184000D01*
X0155750Y0184000D01*
X0155750Y0182750D02*
X0155750Y0185250D01*
X0155750Y0180975D02*
X0153000Y0179475D01*
X0152500Y0176250D02*
X0154500Y0176250D01*
X0154569Y0176248D01*
X0154638Y0176242D01*
X0154706Y0176233D01*
X0154773Y0176220D01*
X0154840Y0176203D01*
X0154906Y0176182D01*
X0154970Y0176158D01*
X0155033Y0176130D01*
X0155095Y0176099D01*
X0155155Y0176065D01*
X0155212Y0176027D01*
X0155268Y0175986D01*
X0155321Y0175943D01*
X0155372Y0175896D01*
X0155420Y0175847D01*
X0155465Y0175795D01*
X0155507Y0175740D01*
X0155546Y0175684D01*
X0155583Y0175625D01*
X0155615Y0175564D01*
X0155645Y0175502D01*
X0155671Y0175438D01*
X0155693Y0175373D01*
X0155712Y0175307D01*
X0155727Y0175240D01*
X0155738Y0175172D01*
X0155746Y0175103D01*
X0155750Y0175034D01*
X0155750Y0174966D01*
X0155746Y0174897D01*
X0155738Y0174828D01*
X0155727Y0174760D01*
X0155712Y0174693D01*
X0155693Y0174627D01*
X0155671Y0174562D01*
X0155645Y0174498D01*
X0155615Y0174436D01*
X0155583Y0174375D01*
X0155546Y0174316D01*
X0155507Y0174260D01*
X0155465Y0174205D01*
X0155420Y0174153D01*
X0155372Y0174104D01*
X0155321Y0174057D01*
X0155268Y0174014D01*
X0155212Y0173973D01*
X0155155Y0173935D01*
X0155095Y0173901D01*
X0155033Y0173870D01*
X0154970Y0173842D01*
X0154906Y0173818D01*
X0154840Y0173797D01*
X0154773Y0173780D01*
X0154706Y0173767D01*
X0154638Y0173758D01*
X0154569Y0173752D01*
X0154500Y0173750D01*
X0152500Y0173750D01*
X0152431Y0173752D01*
X0152362Y0173758D01*
X0152294Y0173767D01*
X0152227Y0173780D01*
X0152160Y0173797D01*
X0152094Y0173818D01*
X0152030Y0173842D01*
X0151967Y0173870D01*
X0151905Y0173901D01*
X0151845Y0173935D01*
X0151788Y0173973D01*
X0151732Y0174014D01*
X0151679Y0174057D01*
X0151628Y0174104D01*
X0151580Y0174153D01*
X0151535Y0174205D01*
X0151493Y0174260D01*
X0151454Y0174316D01*
X0151417Y0174375D01*
X0151385Y0174436D01*
X0151355Y0174498D01*
X0151329Y0174562D01*
X0151307Y0174627D01*
X0151288Y0174693D01*
X0151273Y0174760D01*
X0151262Y0174828D01*
X0151254Y0174897D01*
X0151250Y0174966D01*
X0151250Y0175034D01*
X0151254Y0175103D01*
X0151262Y0175172D01*
X0151273Y0175240D01*
X0151288Y0175307D01*
X0151307Y0175373D01*
X0151329Y0175438D01*
X0151355Y0175502D01*
X0151385Y0175564D01*
X0151417Y0175625D01*
X0151454Y0175684D01*
X0151493Y0175740D01*
X0151535Y0175795D01*
X0151580Y0175847D01*
X0151628Y0175896D01*
X0151679Y0175943D01*
X0151732Y0175986D01*
X0151788Y0176027D01*
X0151845Y0176065D01*
X0151905Y0176099D01*
X0151967Y0176130D01*
X0152030Y0176158D01*
X0152094Y0176182D01*
X0152160Y0176203D01*
X0152227Y0176220D01*
X0152294Y0176233D01*
X0152362Y0176242D01*
X0152431Y0176248D01*
X0152500Y0176250D01*
X0163750Y0214750D02*
X0166250Y0214750D01*
X0165000Y0214750D02*
X0165000Y0219250D01*
X0163750Y0218250D01*
X0166850Y0232750D02*
X0168350Y0237250D01*
X0170100Y0236250D02*
X0171350Y0237250D01*
X0171350Y0232750D01*
X0170100Y0232750D02*
X0172600Y0232750D01*
X0166850Y0232750D02*
X0165350Y0237250D01*
X0161875Y0235375D02*
X0161823Y0235408D01*
X0161772Y0235444D01*
X0161724Y0235483D01*
X0161679Y0235525D01*
X0161636Y0235570D01*
X0161596Y0235618D01*
X0161559Y0235667D01*
X0161525Y0235719D01*
X0161494Y0235773D01*
X0161466Y0235829D01*
X0161442Y0235886D01*
X0161422Y0235945D01*
X0161405Y0236004D01*
X0161392Y0236065D01*
X0161383Y0236126D01*
X0161377Y0236188D01*
X0161375Y0236250D01*
X0161377Y0236310D01*
X0161382Y0236371D01*
X0161391Y0236430D01*
X0161404Y0236489D01*
X0161420Y0236548D01*
X0161440Y0236605D01*
X0161463Y0236660D01*
X0161490Y0236715D01*
X0161519Y0236767D01*
X0161552Y0236818D01*
X0161588Y0236867D01*
X0161626Y0236913D01*
X0161668Y0236957D01*
X0161712Y0236999D01*
X0161758Y0237037D01*
X0161807Y0237073D01*
X0161858Y0237106D01*
X0161910Y0237135D01*
X0161965Y0237162D01*
X0162020Y0237185D01*
X0162077Y0237205D01*
X0162136Y0237221D01*
X0162195Y0237234D01*
X0162254Y0237243D01*
X0162315Y0237248D01*
X0162375Y0237250D01*
X0162455Y0237248D01*
X0162536Y0237243D01*
X0162616Y0237234D01*
X0162695Y0237222D01*
X0162774Y0237207D01*
X0162852Y0237188D01*
X0162930Y0237166D01*
X0163006Y0237141D01*
X0163081Y0237112D01*
X0163155Y0237080D01*
X0163227Y0237045D01*
X0163298Y0237007D01*
X0163367Y0236966D01*
X0163435Y0236922D01*
X0163500Y0236875D01*
X0161250Y0233374D02*
X0161313Y0233313D01*
X0161378Y0233255D01*
X0161446Y0233199D01*
X0161517Y0233146D01*
X0161589Y0233097D01*
X0161663Y0233050D01*
X0161739Y0233006D01*
X0161817Y0232966D01*
X0161897Y0232929D01*
X0161978Y0232895D01*
X0162060Y0232865D01*
X0162144Y0232838D01*
X0162229Y0232814D01*
X0162314Y0232794D01*
X0162400Y0232778D01*
X0162487Y0232765D01*
X0162575Y0232756D01*
X0162662Y0232751D01*
X0162750Y0232749D01*
X0162750Y0232750D02*
X0162810Y0232752D01*
X0162871Y0232757D01*
X0162930Y0232766D01*
X0162989Y0232779D01*
X0163048Y0232795D01*
X0163105Y0232815D01*
X0163160Y0232838D01*
X0163215Y0232865D01*
X0163267Y0232894D01*
X0163318Y0232927D01*
X0163367Y0232963D01*
X0163413Y0233001D01*
X0163457Y0233043D01*
X0163499Y0233087D01*
X0163537Y0233133D01*
X0163573Y0233182D01*
X0163606Y0233233D01*
X0163635Y0233285D01*
X0163662Y0233340D01*
X0163685Y0233395D01*
X0163705Y0233452D01*
X0163721Y0233511D01*
X0163734Y0233570D01*
X0163743Y0233629D01*
X0163748Y0233690D01*
X0163750Y0233750D01*
X0163250Y0234625D02*
X0161875Y0235375D01*
X0163250Y0234625D02*
X0163302Y0234592D01*
X0163353Y0234556D01*
X0163401Y0234517D01*
X0163446Y0234475D01*
X0163489Y0234430D01*
X0163529Y0234382D01*
X0163566Y0234333D01*
X0163600Y0234281D01*
X0163631Y0234227D01*
X0163659Y0234171D01*
X0163683Y0234114D01*
X0163703Y0234055D01*
X0163720Y0233996D01*
X0163733Y0233935D01*
X0163742Y0233874D01*
X0163748Y0233812D01*
X0163750Y0233750D01*
X0219250Y0207250D02*
X0220250Y0207250D01*
X0219750Y0207250D02*
X0219750Y0202750D01*
X0219250Y0202750D02*
X0220250Y0202750D01*
X0222085Y0203750D02*
X0222085Y0206250D01*
X0222087Y0206310D01*
X0222092Y0206371D01*
X0222101Y0206430D01*
X0222114Y0206489D01*
X0222130Y0206548D01*
X0222150Y0206605D01*
X0222173Y0206660D01*
X0222200Y0206715D01*
X0222229Y0206767D01*
X0222262Y0206818D01*
X0222298Y0206867D01*
X0222336Y0206913D01*
X0222378Y0206957D01*
X0222422Y0206999D01*
X0222468Y0207037D01*
X0222517Y0207073D01*
X0222568Y0207106D01*
X0222620Y0207135D01*
X0222675Y0207162D01*
X0222730Y0207185D01*
X0222787Y0207205D01*
X0222846Y0207221D01*
X0222905Y0207234D01*
X0222964Y0207243D01*
X0223025Y0207248D01*
X0223085Y0207250D01*
X0224085Y0207250D01*
X0227975Y0205250D02*
X0228021Y0205296D01*
X0228065Y0205345D01*
X0228105Y0205396D01*
X0228143Y0205449D01*
X0228178Y0205504D01*
X0228210Y0205561D01*
X0228239Y0205619D01*
X0228265Y0205679D01*
X0228287Y0205741D01*
X0228306Y0205803D01*
X0228322Y0205866D01*
X0228334Y0205930D01*
X0228343Y0205995D01*
X0228348Y0206060D01*
X0228350Y0206125D01*
X0227975Y0205250D02*
X0225850Y0202750D01*
X0228350Y0202750D01*
X0224085Y0202750D02*
X0223085Y0202750D01*
X0223025Y0202752D01*
X0222964Y0202757D01*
X0222905Y0202766D01*
X0222846Y0202779D01*
X0222787Y0202795D01*
X0222730Y0202815D01*
X0222675Y0202838D01*
X0222620Y0202865D01*
X0222568Y0202894D01*
X0222517Y0202927D01*
X0222468Y0202963D01*
X0222422Y0203001D01*
X0222378Y0203043D01*
X0222336Y0203087D01*
X0222298Y0203133D01*
X0222262Y0203182D01*
X0222229Y0203233D01*
X0222200Y0203285D01*
X0222173Y0203340D01*
X0222150Y0203395D01*
X0222130Y0203452D01*
X0222114Y0203511D01*
X0222101Y0203570D01*
X0222092Y0203629D01*
X0222087Y0203690D01*
X0222085Y0203750D01*
X0225850Y0206250D02*
X0225874Y0206319D01*
X0225902Y0206386D01*
X0225933Y0206452D01*
X0225967Y0206516D01*
X0226004Y0206578D01*
X0226045Y0206639D01*
X0226088Y0206697D01*
X0226134Y0206753D01*
X0226184Y0206807D01*
X0226235Y0206858D01*
X0226289Y0206906D01*
X0226346Y0206952D01*
X0226405Y0206995D01*
X0226466Y0207034D01*
X0226528Y0207071D01*
X0226593Y0207104D01*
X0226659Y0207135D01*
X0226727Y0207161D01*
X0226795Y0207185D01*
X0226865Y0207205D01*
X0226936Y0207221D01*
X0227008Y0207234D01*
X0227080Y0207243D01*
X0227152Y0207248D01*
X0227225Y0207250D01*
X0227290Y0207248D01*
X0227356Y0207242D01*
X0227420Y0207233D01*
X0227484Y0207220D01*
X0227548Y0207203D01*
X0227610Y0207182D01*
X0227671Y0207158D01*
X0227730Y0207130D01*
X0227788Y0207099D01*
X0227843Y0207065D01*
X0227897Y0207027D01*
X0227948Y0206987D01*
X0227997Y0206943D01*
X0228043Y0206897D01*
X0228087Y0206848D01*
X0228127Y0206797D01*
X0228165Y0206743D01*
X0228199Y0206688D01*
X0228230Y0206630D01*
X0228258Y0206571D01*
X0228282Y0206510D01*
X0228303Y0206448D01*
X0228320Y0206384D01*
X0228333Y0206320D01*
X0228342Y0206256D01*
X0228348Y0206190D01*
X0228350Y0206125D01*
X0226000Y0232750D02*
X0227250Y0237250D01*
X0224750Y0237250D01*
X0224750Y0236750D01*
D15*
X0281800Y0201000D03*
X0310200Y0201000D03*
X0341800Y0201000D03*
X0370200Y0201000D03*
X0370200Y0181000D03*
X0341800Y0181000D03*
X0341800Y0161000D03*
X0370200Y0161000D03*
X0340200Y0141000D03*
X0311800Y0141000D03*
X0310200Y0161000D03*
X0281800Y0161000D03*
X0281800Y0181000D03*
X0310200Y0181000D03*
X0336800Y0111000D03*
X0341800Y0111000D03*
X0370200Y0111000D03*
X0375200Y0111000D03*
X0115200Y0161000D03*
X0110200Y0181000D03*
X0081800Y0181000D03*
X0060200Y0181000D03*
X0031800Y0181000D03*
X0031800Y0161000D03*
X0060200Y0161000D03*
X0086800Y0161000D03*
X0081800Y0206000D03*
X0060200Y0206000D03*
X0031800Y0206000D03*
X0110200Y0206000D03*
D16*
X0038500Y0131000D02*
X0031000Y0131000D01*
X0031000Y0111000D01*
X0013500Y0111000D01*
X0013500Y0131000D01*
X0031000Y0131000D01*
X0038500Y0131000D02*
X0038500Y0111000D01*
X0031000Y0111000D01*
X0276000Y0043500D02*
X0276000Y0036000D01*
X0336000Y0036000D01*
X0336000Y0018500D01*
X0276000Y0018500D01*
X0276000Y0036000D01*
X0276000Y0043500D02*
X0336000Y0043500D01*
X0336000Y0036000D01*
X0358500Y0016000D02*
X0366000Y0016000D01*
X0366000Y0076000D01*
X0383500Y0076000D01*
X0383500Y0016000D01*
X0366000Y0016000D01*
X0358500Y0016000D02*
X0358500Y0076000D01*
X0366000Y0076000D01*
D17*
X0281200Y0049800D02*
X0280000Y0049800D01*
X0278600Y0049800D02*
X0276200Y0046200D01*
X0278600Y0046200D02*
X0276200Y0049800D01*
X0280400Y0048200D02*
X0281200Y0048200D01*
X0281256Y0048202D01*
X0281311Y0048208D01*
X0281366Y0048217D01*
X0281421Y0048231D01*
X0281474Y0048248D01*
X0281525Y0048269D01*
X0281576Y0048294D01*
X0281624Y0048322D01*
X0281670Y0048353D01*
X0281714Y0048387D01*
X0281756Y0048425D01*
X0281795Y0048465D01*
X0281830Y0048507D01*
X0281863Y0048553D01*
X0281893Y0048600D01*
X0281919Y0048649D01*
X0281942Y0048700D01*
X0281961Y0048753D01*
X0281976Y0048806D01*
X0281988Y0048861D01*
X0281996Y0048916D01*
X0282000Y0048972D01*
X0282000Y0049028D01*
X0281996Y0049084D01*
X0281988Y0049139D01*
X0281976Y0049194D01*
X0281961Y0049247D01*
X0281942Y0049300D01*
X0281919Y0049351D01*
X0281893Y0049400D01*
X0281863Y0049447D01*
X0281830Y0049493D01*
X0281795Y0049535D01*
X0281756Y0049575D01*
X0281714Y0049613D01*
X0281670Y0049647D01*
X0281624Y0049678D01*
X0281576Y0049706D01*
X0281525Y0049731D01*
X0281474Y0049752D01*
X0281421Y0049769D01*
X0281366Y0049783D01*
X0281311Y0049792D01*
X0281256Y0049798D01*
X0281200Y0049800D01*
X0281000Y0048200D02*
X0281062Y0048198D01*
X0281123Y0048192D01*
X0281184Y0048183D01*
X0281244Y0048170D01*
X0281303Y0048153D01*
X0281361Y0048132D01*
X0281418Y0048108D01*
X0281473Y0048081D01*
X0281526Y0048050D01*
X0281578Y0048016D01*
X0281627Y0047979D01*
X0281674Y0047939D01*
X0281718Y0047896D01*
X0281759Y0047851D01*
X0281798Y0047803D01*
X0281834Y0047752D01*
X0281866Y0047700D01*
X0281895Y0047646D01*
X0281921Y0047590D01*
X0281943Y0047532D01*
X0281962Y0047474D01*
X0281977Y0047414D01*
X0281988Y0047353D01*
X0281996Y0047292D01*
X0282000Y0047231D01*
X0282000Y0047169D01*
X0281996Y0047108D01*
X0281988Y0047047D01*
X0281977Y0046986D01*
X0281962Y0046926D01*
X0281943Y0046868D01*
X0281921Y0046810D01*
X0281895Y0046754D01*
X0281866Y0046700D01*
X0281834Y0046648D01*
X0281798Y0046597D01*
X0281759Y0046549D01*
X0281718Y0046504D01*
X0281674Y0046461D01*
X0281627Y0046421D01*
X0281578Y0046384D01*
X0281526Y0046350D01*
X0281473Y0046319D01*
X0281418Y0046292D01*
X0281361Y0046268D01*
X0281303Y0046247D01*
X0281244Y0046230D01*
X0281184Y0046217D01*
X0281123Y0046208D01*
X0281062Y0046202D01*
X0281000Y0046200D01*
X0280000Y0046200D01*
X0352200Y0021100D02*
X0352202Y0021159D01*
X0352208Y0021217D01*
X0352217Y0021276D01*
X0352231Y0021333D01*
X0352248Y0021389D01*
X0352269Y0021444D01*
X0352293Y0021498D01*
X0352321Y0021550D01*
X0352352Y0021600D01*
X0352386Y0021648D01*
X0352423Y0021693D01*
X0352464Y0021736D01*
X0352507Y0021777D01*
X0352552Y0021814D01*
X0352600Y0021848D01*
X0352650Y0021879D01*
X0352702Y0021907D01*
X0352756Y0021931D01*
X0352811Y0021952D01*
X0352867Y0021969D01*
X0352924Y0021983D01*
X0352983Y0021992D01*
X0353041Y0021998D01*
X0353100Y0022000D01*
X0353800Y0021700D02*
X0355800Y0020000D01*
X0355800Y0022000D01*
X0353000Y0020000D02*
X0352938Y0020022D01*
X0352877Y0020048D01*
X0352817Y0020077D01*
X0352760Y0020110D01*
X0352704Y0020145D01*
X0352651Y0020184D01*
X0352600Y0020226D01*
X0352551Y0020271D01*
X0352505Y0020318D01*
X0352461Y0020368D01*
X0352421Y0020420D01*
X0352384Y0020475D01*
X0352350Y0020531D01*
X0352319Y0020590D01*
X0352291Y0020650D01*
X0352267Y0020711D01*
X0352247Y0020774D01*
X0352230Y0020838D01*
X0352217Y0020903D01*
X0352208Y0020968D01*
X0352202Y0021034D01*
X0352200Y0021100D01*
X0353100Y0022000D02*
X0353160Y0021998D01*
X0353220Y0021993D01*
X0353280Y0021983D01*
X0353338Y0021970D01*
X0353396Y0021953D01*
X0353453Y0021933D01*
X0353508Y0021910D01*
X0353562Y0021882D01*
X0353614Y0021852D01*
X0353664Y0021818D01*
X0353712Y0021782D01*
X0353757Y0021742D01*
X0353800Y0021700D01*
X0352200Y0018600D02*
X0355800Y0016200D01*
X0355800Y0018600D02*
X0352200Y0016200D01*
X0044800Y0125000D02*
X0041200Y0127400D01*
X0042000Y0128800D02*
X0041200Y0129800D01*
X0044800Y0129800D01*
X0044800Y0128800D02*
X0044800Y0130800D01*
X0044800Y0127400D02*
X0041200Y0125000D01*
D18*
X0338500Y0111000D02*
X0340000Y0111000D01*
X0372000Y0111000D02*
X0373500Y0111000D01*
M02*
