G75*
%MOIN*%
%OFA0B0*%
%FSLAX25Y25*%
%IPPOS*%
%LPD*%
%AMOC8*
5,1,8,0,0,1.08239X$1,22.5*
%
%ADD10C,0.04737*%
%ADD11R,0.09800X0.09800*%
%ADD12C,0.05950*%
%ADD13OC8,0.06000*%
%ADD14C,0.06737*%
%ADD15C,0.06000*%
%ADD16C,0.06800*%
%ADD17C,0.03778*%
D10*
X0063342Y0016300D03*
X0068342Y0241300D03*
X0443342Y0241300D03*
X0443342Y0021300D03*
D11*
X0138342Y0036300D03*
X0078342Y0036300D03*
D12*
X0183342Y0111300D03*
X0193342Y0111300D03*
X0233342Y0101300D03*
X0243342Y0101300D03*
X0278342Y0086300D03*
X0288342Y0086300D03*
X0288342Y0066300D03*
X0278342Y0066300D03*
X0243342Y0071300D03*
X0233342Y0071300D03*
X0233342Y0041300D03*
X0243342Y0041300D03*
X0278342Y0036300D03*
X0288342Y0036300D03*
X0288342Y0116300D03*
X0278342Y0116300D03*
X0243342Y0131300D03*
X0233342Y0131300D03*
X0193342Y0141300D03*
X0183342Y0141300D03*
X0198342Y0171300D03*
X0208342Y0171300D03*
X0238342Y0171300D03*
X0248342Y0171300D03*
X0248342Y0201300D03*
X0238342Y0201300D03*
X0208342Y0201300D03*
X0198342Y0201300D03*
D13*
X0173342Y0191300D03*
X0178342Y0171300D03*
X0138342Y0171300D03*
X0123342Y0171300D03*
X0123342Y0191300D03*
X0133342Y0191300D03*
X0133342Y0216300D03*
X0123342Y0216300D03*
X0083342Y0216300D03*
X0083342Y0191300D03*
X0083342Y0171300D03*
X0173342Y0216300D03*
X0333342Y0211300D03*
X0333342Y0191300D03*
X0333342Y0171300D03*
X0363342Y0151300D03*
X0373342Y0171300D03*
X0393342Y0171300D03*
X0393342Y0191300D03*
X0373342Y0191300D03*
X0373342Y0211300D03*
X0393342Y0211300D03*
X0433342Y0211300D03*
X0433342Y0191300D03*
X0433342Y0171300D03*
X0403342Y0151300D03*
X0388342Y0121300D03*
X0353342Y0121300D03*
X0333342Y0121300D03*
X0438342Y0121300D03*
D14*
X0431310Y0081300D02*
X0425373Y0081300D01*
X0425373Y0071300D02*
X0431310Y0071300D01*
X0431310Y0061300D02*
X0425373Y0061300D01*
X0425373Y0051300D02*
X0431310Y0051300D01*
X0431310Y0041300D02*
X0425373Y0041300D01*
X0425373Y0031300D02*
X0431310Y0031300D01*
X0388342Y0033331D02*
X0388342Y0039269D01*
X0378342Y0039269D02*
X0378342Y0033331D01*
X0368342Y0033331D02*
X0368342Y0039269D01*
X0358342Y0039269D02*
X0358342Y0033331D01*
X0348342Y0033331D02*
X0348342Y0039269D01*
X0338342Y0039269D02*
X0338342Y0033331D01*
X0086310Y0126300D02*
X0080373Y0126300D01*
X0080373Y0136300D02*
X0086310Y0136300D01*
D15*
X0270742Y0146300D02*
X0275942Y0146300D01*
X0275942Y0156300D02*
X0270742Y0156300D01*
X0270742Y0166300D02*
X0275942Y0166300D01*
X0275942Y0176300D02*
X0270742Y0176300D01*
X0270742Y0186300D02*
X0275942Y0186300D01*
X0275942Y0196300D02*
X0270742Y0196300D01*
X0270742Y0206300D02*
X0275942Y0206300D01*
X0300742Y0206300D02*
X0305942Y0206300D01*
X0305942Y0196300D02*
X0300742Y0196300D01*
X0300742Y0186300D02*
X0305942Y0186300D01*
X0305942Y0176300D02*
X0300742Y0176300D01*
X0300742Y0166300D02*
X0305942Y0166300D01*
X0305942Y0156300D02*
X0300742Y0156300D01*
X0300742Y0146300D02*
X0305942Y0146300D01*
X0323342Y0098900D02*
X0323342Y0093700D01*
X0333342Y0093700D02*
X0333342Y0098900D01*
X0343342Y0098900D02*
X0343342Y0093700D01*
X0353342Y0093700D02*
X0353342Y0098900D01*
X0363342Y0098900D02*
X0363342Y0093700D01*
X0373342Y0093700D02*
X0373342Y0098900D01*
X0383342Y0098900D02*
X0383342Y0093700D01*
X0383342Y0068900D02*
X0383342Y0063700D01*
X0373342Y0063700D02*
X0373342Y0068900D01*
X0363342Y0068900D02*
X0363342Y0063700D01*
X0353342Y0063700D02*
X0353342Y0068900D01*
X0343342Y0068900D02*
X0343342Y0063700D01*
X0333342Y0063700D02*
X0333342Y0068900D01*
X0323342Y0068900D02*
X0323342Y0063700D01*
D16*
X0283342Y0233300D02*
X0283342Y0239300D01*
X0273342Y0239300D02*
X0273342Y0233300D01*
X0263342Y0233300D02*
X0263342Y0239300D01*
X0253342Y0239300D02*
X0253342Y0233300D01*
X0243342Y0233300D02*
X0243342Y0239300D01*
X0233342Y0239300D02*
X0233342Y0233300D01*
X0223342Y0233300D02*
X0223342Y0239300D01*
D17*
X0226942Y0226700D03*
X0220942Y0212300D03*
X0325342Y0161900D03*
X0383542Y0167300D03*
X0331942Y0077900D03*
X0186142Y0137300D03*
X0174742Y0139700D03*
M02*
