%
M48
M72
T01C0.01378
T02C0.02400
T03C0.03200
T04C0.03937
T05C0.05600
%
T01
X189342Y115300
X249942Y122500
X274542Y122500
X335142Y156100
X338742Y159700
X316542Y174700
X320142Y178300
X281742Y192700
X204942Y196900
X202542Y187300
X200742Y158500
X127542Y151900
X110742Y163300
X114342Y166900
X119142Y175300
X362142Y133900
X407142Y179500
T02
X413342Y141300
X393342Y131300
X413342Y111300
X393342Y101300
X413342Y81300
X393342Y71300
X363342Y81300
X363342Y111300
X363342Y141300
T03
X323342Y141300
X283342Y141300
X283342Y126300
X288342Y106300
X258342Y106300
X243342Y126300
X218342Y106300
X198342Y106300
X208342Y126300
X173342Y146300
X168342Y126300
X158342Y106300
X138342Y106300
X138342Y126300
X133342Y146300
X138342Y171300
X138342Y181300
X138342Y191300
X138342Y201300
X138342Y211300
X138342Y221300
X138342Y231300
X168342Y231300
X168342Y221300
X168342Y211300
X168342Y201300
X168342Y191300
X168342Y181300
X168342Y171300
X213342Y171300
X213342Y161300
X213342Y181300
X213342Y191300
X213342Y201300
X213342Y211300
X213342Y221300
X243342Y221300
X243342Y211300
X243342Y201300
X243342Y191300
X243342Y181300
X243342Y171300
X243342Y161300
X298342Y176300
X298342Y186300
X298342Y196300
X298342Y206300
X298342Y216300
X298342Y226300
X298342Y236300
X328342Y236300
X328342Y226300
X328342Y216300
X328342Y206300
X328342Y196300
X328342Y186300
X328342Y176300
X368342Y196300
X378342Y196300
X328342Y106300
X333342Y41300
X323342Y41300
X313342Y41300
X303342Y41300
X293342Y41300
X283342Y41300
X273342Y41300
X263342Y41300
X253342Y41300
X98342Y106300
X98342Y126300
T04
X58342Y26300
X73342Y176300
X73342Y186300
X73342Y196300
X58342Y241300
X378342Y41300
X388342Y41300
X398342Y41300
X428342Y26300
X418342Y181300
X418342Y191300
X418342Y201300
X433342Y241300
T05
X148342Y51300
X88342Y51300
M30
