%
M48
M72
T01C0.01378
T02C0.02400
T03C0.03200
T04C0.03937
T05C0.05600
%
T01
X134200Y164800
X132400Y213400
X129400Y232000
X188800Y234400
T02
X316000Y126000
X346000Y116000
X366000Y126000
X366000Y96000
X346000Y86000
X366000Y66000
X346000Y56000
X316000Y66000
X316000Y96000
T03
X281000Y91000
X241000Y91000
X211000Y91000
X196000Y111000
X171000Y91000
X151000Y91000
X161000Y111000
X126000Y131000
X121000Y111000
X111000Y91000
X91000Y91000
X91000Y111000
X86000Y131000
X91000Y156000
X91000Y166000
X91000Y176000
X91000Y186000
X91000Y196000
X91000Y206000
X91000Y216000
X121000Y216000
X121000Y206000
X121000Y196000
X121000Y186000
X121000Y176000
X121000Y166000
X121000Y156000
X166000Y156000
X166000Y166000
X166000Y176000
X166000Y186000
X166000Y196000
X166000Y206000
X196000Y206000
X196000Y196000
X196000Y186000
X196000Y176000
X196000Y166000
X196000Y156000
X196000Y146000
X166000Y146000
X236000Y126000
X236000Y111000
X276000Y126000
X281000Y161000
X281000Y171000
X281000Y181000
X281000Y191000
X281000Y201000
X281000Y211000
X281000Y221000
X251000Y221000
X251000Y211000
X251000Y201000
X251000Y191000
X251000Y181000
X251000Y171000
X251000Y161000
X321000Y181000
X331000Y181000
X226000Y241000
X216000Y241000
X206000Y241000
X196000Y241000
X186000Y241000
X176000Y241000
X166000Y241000
X156000Y241000
X146000Y241000
X51000Y111000
X51000Y91000
T04
X26000Y161000
X26000Y171000
X26000Y181000
X266000Y31000
X276000Y31000
X286000Y31000
X371000Y166000
X371000Y176000
X371000Y186000
T05
X21000Y31000
X81000Y31000
M30
