G75*
%MOIN*%
%OFA0B0*%
%FSLAX25Y25*%
%IPPOS*%
%LPD*%
%AMOC8*
5,1,8,0,0,1.08239X$1,22.5*
%
%ADD10C,0.06737*%
%ADD11R,0.09800X0.09800*%
%ADD12C,0.06000*%
%ADD13OC8,0.06000*%
%ADD14C,0.05200*%
%ADD15C,0.03778*%
D10*
X0023031Y0161000D02*
X0028969Y0161000D01*
X0028969Y0171000D02*
X0023031Y0171000D01*
X0023031Y0181000D02*
X0028969Y0181000D01*
X0266000Y0033969D02*
X0266000Y0028031D01*
X0276000Y0028031D02*
X0276000Y0033969D01*
X0286000Y0033969D02*
X0286000Y0028031D01*
X0368031Y0166000D02*
X0373969Y0166000D01*
X0373969Y0176000D02*
X0368031Y0176000D01*
X0368031Y0186000D02*
X0373969Y0186000D01*
D11*
X0021000Y0031000D03*
X0081000Y0031000D03*
D12*
X0163400Y0146000D02*
X0168600Y0146000D01*
X0168600Y0156000D02*
X0163400Y0156000D01*
X0163400Y0166000D02*
X0168600Y0166000D01*
X0168600Y0176000D02*
X0163400Y0176000D01*
X0163400Y0186000D02*
X0168600Y0186000D01*
X0168600Y0196000D02*
X0163400Y0196000D01*
X0163400Y0206000D02*
X0168600Y0206000D01*
X0193400Y0206000D02*
X0198600Y0206000D01*
X0198600Y0196000D02*
X0193400Y0196000D01*
X0193400Y0186000D02*
X0198600Y0186000D01*
X0198600Y0176000D02*
X0193400Y0176000D01*
X0193400Y0166000D02*
X0198600Y0166000D01*
X0198600Y0156000D02*
X0193400Y0156000D01*
X0193400Y0146000D02*
X0198600Y0146000D01*
X0248400Y0161000D02*
X0253600Y0161000D01*
X0253600Y0171000D02*
X0248400Y0171000D01*
X0248400Y0181000D02*
X0253600Y0181000D01*
X0253600Y0191000D02*
X0248400Y0191000D01*
X0248400Y0201000D02*
X0253600Y0201000D01*
X0253600Y0211000D02*
X0248400Y0211000D01*
X0248400Y0221000D02*
X0253600Y0221000D01*
X0278400Y0221000D02*
X0283600Y0221000D01*
X0283600Y0211000D02*
X0278400Y0211000D01*
X0278400Y0201000D02*
X0283600Y0201000D01*
X0283600Y0191000D02*
X0278400Y0191000D01*
X0278400Y0181000D02*
X0283600Y0181000D01*
X0283600Y0171000D02*
X0278400Y0171000D01*
X0278400Y0161000D02*
X0283600Y0161000D01*
X0226000Y0238400D02*
X0226000Y0243600D01*
X0216000Y0243600D02*
X0216000Y0238400D01*
X0206000Y0238400D02*
X0206000Y0243600D01*
X0196000Y0243600D02*
X0196000Y0238400D01*
X0186000Y0238400D02*
X0186000Y0243600D01*
X0176000Y0243600D02*
X0176000Y0238400D01*
X0166000Y0238400D02*
X0166000Y0243600D01*
X0156000Y0243600D02*
X0156000Y0238400D01*
X0146000Y0238400D02*
X0146000Y0243600D01*
X0123600Y0216000D02*
X0118400Y0216000D01*
X0118400Y0206000D02*
X0123600Y0206000D01*
X0123600Y0196000D02*
X0118400Y0196000D01*
X0118400Y0186000D02*
X0123600Y0186000D01*
X0123600Y0176000D02*
X0118400Y0176000D01*
X0118400Y0166000D02*
X0123600Y0166000D01*
X0123600Y0156000D02*
X0118400Y0156000D01*
X0093600Y0156000D02*
X0088400Y0156000D01*
X0088400Y0166000D02*
X0093600Y0166000D01*
X0093600Y0176000D02*
X0088400Y0176000D01*
X0088400Y0186000D02*
X0093600Y0186000D01*
X0093600Y0196000D02*
X0088400Y0196000D01*
X0088400Y0206000D02*
X0093600Y0206000D01*
X0093600Y0216000D02*
X0088400Y0216000D01*
D13*
X0086000Y0131000D03*
X0091000Y0111000D03*
X0091000Y0091000D03*
X0111000Y0091000D03*
X0121000Y0111000D03*
X0126000Y0131000D03*
X0161000Y0111000D03*
X0151000Y0091000D03*
X0171000Y0091000D03*
X0196000Y0111000D03*
X0211000Y0091000D03*
X0241000Y0091000D03*
X0236000Y0111000D03*
X0236000Y0126000D03*
X0276000Y0126000D03*
X0281000Y0091000D03*
X0321000Y0181000D03*
X0331000Y0181000D03*
X0051000Y0111000D03*
X0051000Y0091000D03*
D14*
X0316000Y0096000D03*
X0346000Y0086000D03*
X0366000Y0096000D03*
X0346000Y0116000D03*
X0366000Y0126000D03*
X0316000Y0126000D03*
X0316000Y0066000D03*
X0346000Y0056000D03*
X0366000Y0066000D03*
D15*
X0134200Y0164800D03*
X0132400Y0213400D03*
X0129400Y0232000D03*
X0188800Y0234400D03*
M02*
