G75*
%MOIN*%
%OFA0B0*%
%FSLAX25Y25*%
%IPPOS*%
%LPD*%
%AMOC8*
5,1,8,0,0,1.08239X$1,22.5*
%
%ADD10C,0.00000*%
%ADD11C,0.01000*%
%ADD12C,0.00400*%
%ADD13C,0.01200*%
%ADD14C,0.00800*%
%ADD15C,0.00600*%
%ADD16C,0.00500*%
%ADD17R,0.03400X0.02400*%
%ADD18C,0.00200*%
D10*
X0001000Y0001000D02*
X0001000Y0250961D01*
X0394701Y0250961D01*
X0394701Y0001000D01*
X0001000Y0001000D01*
D11*
X0013500Y0156000D02*
X0013500Y0186000D01*
X0031000Y0186000D01*
X0031000Y0156000D01*
X0013500Y0156000D01*
X0031000Y0156000D02*
X0038500Y0156000D01*
X0038500Y0186000D01*
X0031000Y0186000D01*
X0261000Y0043500D02*
X0261000Y0036000D01*
X0291000Y0036000D01*
X0291000Y0018500D01*
X0261000Y0018500D01*
X0261000Y0036000D01*
X0261000Y0043500D02*
X0291000Y0043500D01*
X0291000Y0036000D01*
X0304268Y0052142D02*
X0378480Y0052142D01*
X0378480Y0069858D01*
X0304268Y0069858D01*
X0304268Y0052142D01*
X0304268Y0082142D02*
X0378480Y0082142D01*
X0378480Y0099858D01*
X0304268Y0099858D01*
X0304268Y0082142D01*
X0304268Y0112142D02*
X0378480Y0112142D01*
X0378480Y0129858D01*
X0304268Y0129858D01*
X0304268Y0112142D01*
X0358500Y0161000D02*
X0366000Y0161000D01*
X0366000Y0191000D01*
X0383500Y0191000D01*
X0383500Y0161000D01*
X0366000Y0161000D01*
X0358500Y0161000D02*
X0358500Y0191000D01*
X0366000Y0191000D01*
X0336000Y0188500D02*
X0335813Y0188743D01*
X0335621Y0188981D01*
X0335422Y0189214D01*
X0335218Y0189442D01*
X0335009Y0189665D01*
X0334794Y0189883D01*
X0334574Y0190096D01*
X0334349Y0190303D01*
X0334118Y0190505D01*
X0333883Y0190701D01*
X0333643Y0190891D01*
X0333399Y0191075D01*
X0333150Y0191253D01*
X0332896Y0191425D01*
X0332639Y0191591D01*
X0332378Y0191751D01*
X0332113Y0191904D01*
X0331844Y0192050D01*
X0331571Y0192190D01*
X0331296Y0192323D01*
X0331017Y0192449D01*
X0330735Y0192569D01*
X0330450Y0192681D01*
X0330163Y0192786D01*
X0329873Y0192885D01*
X0329581Y0192976D01*
X0329286Y0193060D01*
X0328990Y0193137D01*
X0328692Y0193207D01*
X0328392Y0193269D01*
X0328091Y0193324D01*
X0327789Y0193371D01*
X0327485Y0193411D01*
X0327181Y0193444D01*
X0326876Y0193469D01*
X0326570Y0193487D01*
X0326264Y0193497D01*
X0325958Y0193500D01*
X0325652Y0193495D01*
X0325346Y0193483D01*
X0325040Y0193463D01*
X0324736Y0193436D01*
X0324431Y0193401D01*
X0324128Y0193359D01*
X0323826Y0193310D01*
X0323525Y0193253D01*
X0323226Y0193188D01*
X0322928Y0193117D01*
X0322633Y0193038D01*
X0322339Y0192952D01*
X0322047Y0192859D01*
X0321758Y0192758D01*
X0321471Y0192651D01*
X0321187Y0192536D01*
X0320906Y0192415D01*
X0320628Y0192287D01*
X0320353Y0192152D01*
X0320082Y0192010D01*
X0319814Y0191862D01*
X0319550Y0191707D01*
X0319290Y0191546D01*
X0319034Y0191379D01*
X0318781Y0191205D01*
X0318534Y0191025D01*
X0318290Y0190839D01*
X0318052Y0190648D01*
X0317818Y0190450D01*
X0317589Y0190247D01*
X0317365Y0190038D01*
X0317146Y0189824D01*
X0316933Y0189604D01*
X0316725Y0189380D01*
X0316522Y0189150D01*
X0316326Y0188916D01*
X0316135Y0188676D01*
X0315950Y0188433D01*
X0315771Y0188184D01*
X0315598Y0187932D01*
X0315431Y0187675D01*
X0315271Y0187414D01*
X0315117Y0187149D01*
X0314970Y0186881D01*
X0314829Y0186609D01*
X0314695Y0186334D01*
X0314568Y0186055D01*
X0314447Y0185774D01*
X0314334Y0185489D01*
X0314228Y0185202D01*
X0314128Y0184913D01*
X0314036Y0184621D01*
X0313951Y0184327D01*
X0313873Y0184031D01*
X0313802Y0183733D01*
X0313739Y0183433D01*
X0313683Y0183132D01*
X0313635Y0182830D01*
X0313594Y0182527D01*
X0313560Y0182223D01*
X0313534Y0181918D01*
X0313515Y0181612D01*
X0313504Y0181306D01*
X0313500Y0181000D01*
X0313504Y0180694D01*
X0313515Y0180388D01*
X0313534Y0180082D01*
X0313560Y0179777D01*
X0313594Y0179473D01*
X0313635Y0179170D01*
X0313683Y0178868D01*
X0313739Y0178567D01*
X0313802Y0178267D01*
X0313873Y0177969D01*
X0313951Y0177673D01*
X0314036Y0177379D01*
X0314128Y0177087D01*
X0314228Y0176798D01*
X0314334Y0176511D01*
X0314447Y0176226D01*
X0314568Y0175945D01*
X0314695Y0175666D01*
X0314829Y0175391D01*
X0314970Y0175119D01*
X0315117Y0174851D01*
X0315271Y0174586D01*
X0315431Y0174325D01*
X0315598Y0174068D01*
X0315771Y0173816D01*
X0315950Y0173567D01*
X0316135Y0173324D01*
X0316326Y0173084D01*
X0316522Y0172850D01*
X0316725Y0172620D01*
X0316933Y0172396D01*
X0317146Y0172176D01*
X0317365Y0171962D01*
X0317589Y0171753D01*
X0317818Y0171550D01*
X0318052Y0171352D01*
X0318290Y0171161D01*
X0318534Y0170975D01*
X0318781Y0170795D01*
X0319034Y0170621D01*
X0319290Y0170454D01*
X0319550Y0170293D01*
X0319814Y0170138D01*
X0320082Y0169990D01*
X0320353Y0169848D01*
X0320628Y0169713D01*
X0320906Y0169585D01*
X0321187Y0169464D01*
X0321471Y0169349D01*
X0321758Y0169242D01*
X0322047Y0169141D01*
X0322339Y0169048D01*
X0322633Y0168962D01*
X0322928Y0168883D01*
X0323226Y0168812D01*
X0323525Y0168747D01*
X0323826Y0168690D01*
X0324128Y0168641D01*
X0324431Y0168599D01*
X0324736Y0168564D01*
X0325040Y0168537D01*
X0325346Y0168517D01*
X0325652Y0168505D01*
X0325958Y0168500D01*
X0326264Y0168503D01*
X0326570Y0168513D01*
X0326876Y0168531D01*
X0327181Y0168556D01*
X0327485Y0168589D01*
X0327789Y0168629D01*
X0328091Y0168676D01*
X0328392Y0168731D01*
X0328692Y0168793D01*
X0328990Y0168863D01*
X0329286Y0168940D01*
X0329581Y0169024D01*
X0329873Y0169115D01*
X0330163Y0169214D01*
X0330450Y0169319D01*
X0330735Y0169431D01*
X0331017Y0169551D01*
X0331296Y0169677D01*
X0331571Y0169810D01*
X0331844Y0169950D01*
X0332113Y0170096D01*
X0332378Y0170249D01*
X0332639Y0170409D01*
X0332896Y0170575D01*
X0333150Y0170747D01*
X0333399Y0170925D01*
X0333643Y0171109D01*
X0333883Y0171299D01*
X0334118Y0171495D01*
X0334349Y0171697D01*
X0334574Y0171904D01*
X0334794Y0172117D01*
X0335009Y0172335D01*
X0335218Y0172558D01*
X0335422Y0172786D01*
X0335621Y0173019D01*
X0335813Y0173257D01*
X0336000Y0173500D01*
D12*
X0352200Y0169708D02*
X0352200Y0168108D01*
X0355800Y0168108D01*
X0355800Y0169708D01*
X0353800Y0169308D02*
X0353800Y0168108D01*
X0354300Y0166100D02*
X0353700Y0165000D01*
X0352200Y0165400D02*
X0352202Y0165474D01*
X0352207Y0165548D01*
X0352217Y0165622D01*
X0352229Y0165695D01*
X0352246Y0165767D01*
X0352266Y0165839D01*
X0352289Y0165909D01*
X0352316Y0165979D01*
X0352346Y0166046D01*
X0352380Y0166113D01*
X0352417Y0166177D01*
X0352457Y0166240D01*
X0352500Y0166300D01*
X0353700Y0165000D02*
X0353669Y0164952D01*
X0353636Y0164907D01*
X0353600Y0164864D01*
X0353560Y0164824D01*
X0353518Y0164787D01*
X0353474Y0164753D01*
X0353427Y0164721D01*
X0353378Y0164693D01*
X0353328Y0164669D01*
X0353275Y0164648D01*
X0353222Y0164631D01*
X0353167Y0164617D01*
X0353112Y0164608D01*
X0353056Y0164602D01*
X0353000Y0164600D01*
X0352945Y0164602D01*
X0352891Y0164607D01*
X0352837Y0164617D01*
X0352784Y0164630D01*
X0352732Y0164646D01*
X0352681Y0164666D01*
X0352632Y0164690D01*
X0352584Y0164716D01*
X0352539Y0164746D01*
X0352495Y0164779D01*
X0352454Y0164815D01*
X0352415Y0164854D01*
X0352379Y0164895D01*
X0352346Y0164939D01*
X0352316Y0164984D01*
X0352290Y0165032D01*
X0352266Y0165081D01*
X0352246Y0165132D01*
X0352230Y0165184D01*
X0352217Y0165237D01*
X0352207Y0165291D01*
X0352202Y0165345D01*
X0352200Y0165400D01*
X0355300Y0164500D02*
X0355354Y0164557D01*
X0355406Y0164616D01*
X0355455Y0164677D01*
X0355501Y0164740D01*
X0355544Y0164806D01*
X0355584Y0164874D01*
X0355621Y0164943D01*
X0355654Y0165014D01*
X0355685Y0165086D01*
X0355711Y0165160D01*
X0355735Y0165235D01*
X0355755Y0165311D01*
X0355771Y0165388D01*
X0355784Y0165465D01*
X0355793Y0165543D01*
X0355798Y0165622D01*
X0355800Y0165700D01*
X0355798Y0165755D01*
X0355793Y0165809D01*
X0355783Y0165863D01*
X0355770Y0165916D01*
X0355754Y0165968D01*
X0355734Y0166019D01*
X0355710Y0166068D01*
X0355684Y0166116D01*
X0355654Y0166161D01*
X0355621Y0166205D01*
X0355585Y0166246D01*
X0355546Y0166285D01*
X0355505Y0166321D01*
X0355461Y0166354D01*
X0355416Y0166384D01*
X0355368Y0166410D01*
X0355319Y0166434D01*
X0355268Y0166454D01*
X0355216Y0166470D01*
X0355163Y0166483D01*
X0355109Y0166493D01*
X0355055Y0166498D01*
X0355000Y0166500D01*
X0355000Y0166499D02*
X0354944Y0166497D01*
X0354888Y0166491D01*
X0354833Y0166482D01*
X0354778Y0166468D01*
X0354725Y0166451D01*
X0354672Y0166430D01*
X0354622Y0166406D01*
X0354573Y0166378D01*
X0354526Y0166346D01*
X0354482Y0166312D01*
X0354440Y0166275D01*
X0354400Y0166235D01*
X0354364Y0166192D01*
X0354331Y0166147D01*
X0354300Y0166099D01*
X0353800Y0162200D02*
X0353802Y0162262D01*
X0353808Y0162323D01*
X0353817Y0162384D01*
X0353830Y0162444D01*
X0353847Y0162503D01*
X0353868Y0162561D01*
X0353892Y0162618D01*
X0353919Y0162673D01*
X0353950Y0162726D01*
X0353984Y0162778D01*
X0354021Y0162827D01*
X0354061Y0162874D01*
X0354104Y0162918D01*
X0354149Y0162959D01*
X0354197Y0162998D01*
X0354248Y0163034D01*
X0354300Y0163066D01*
X0354354Y0163095D01*
X0354410Y0163121D01*
X0354468Y0163143D01*
X0354526Y0163162D01*
X0354586Y0163177D01*
X0354647Y0163188D01*
X0354708Y0163196D01*
X0354769Y0163200D01*
X0354831Y0163200D01*
X0354892Y0163196D01*
X0354953Y0163188D01*
X0355014Y0163177D01*
X0355074Y0163162D01*
X0355132Y0163143D01*
X0355190Y0163121D01*
X0355246Y0163095D01*
X0355300Y0163066D01*
X0355352Y0163034D01*
X0355403Y0162998D01*
X0355451Y0162959D01*
X0355496Y0162918D01*
X0355539Y0162874D01*
X0355579Y0162827D01*
X0355616Y0162778D01*
X0355650Y0162726D01*
X0355681Y0162673D01*
X0355708Y0162618D01*
X0355732Y0162561D01*
X0355753Y0162503D01*
X0355770Y0162444D01*
X0355783Y0162384D01*
X0355792Y0162323D01*
X0355798Y0162262D01*
X0355800Y0162200D01*
X0355800Y0161200D01*
X0352200Y0161200D01*
X0352200Y0162200D01*
X0352202Y0162256D01*
X0352208Y0162311D01*
X0352217Y0162366D01*
X0352231Y0162421D01*
X0352248Y0162474D01*
X0352269Y0162525D01*
X0352294Y0162576D01*
X0352322Y0162624D01*
X0352353Y0162670D01*
X0352387Y0162714D01*
X0352425Y0162756D01*
X0352465Y0162795D01*
X0352507Y0162830D01*
X0352553Y0162863D01*
X0352600Y0162893D01*
X0352649Y0162919D01*
X0352700Y0162942D01*
X0352753Y0162961D01*
X0352806Y0162976D01*
X0352861Y0162988D01*
X0352916Y0162996D01*
X0352972Y0163000D01*
X0353028Y0163000D01*
X0353084Y0162996D01*
X0353139Y0162988D01*
X0353194Y0162976D01*
X0353247Y0162961D01*
X0353300Y0162942D01*
X0353351Y0162919D01*
X0353400Y0162893D01*
X0353447Y0162863D01*
X0353493Y0162830D01*
X0353535Y0162795D01*
X0353575Y0162756D01*
X0353613Y0162714D01*
X0353647Y0162670D01*
X0353678Y0162624D01*
X0353706Y0162576D01*
X0353731Y0162525D01*
X0353752Y0162474D01*
X0353769Y0162421D01*
X0353783Y0162366D01*
X0353792Y0162311D01*
X0353798Y0162256D01*
X0353800Y0162200D01*
X0353800Y0161200D01*
X0329048Y0136430D02*
X0327004Y0136430D01*
X0327004Y0131830D01*
X0329048Y0131830D01*
X0328537Y0134385D02*
X0327004Y0134385D01*
X0324539Y0133747D02*
X0323134Y0134513D01*
X0323645Y0136430D02*
X0323727Y0136428D01*
X0323809Y0136423D01*
X0323891Y0136414D01*
X0323972Y0136402D01*
X0324053Y0136386D01*
X0324133Y0136367D01*
X0324212Y0136344D01*
X0324290Y0136318D01*
X0324367Y0136289D01*
X0324442Y0136256D01*
X0324516Y0136220D01*
X0324589Y0136182D01*
X0324660Y0136140D01*
X0324728Y0136095D01*
X0324795Y0136047D01*
X0323134Y0134514D02*
X0323080Y0134548D01*
X0323029Y0134585D01*
X0322980Y0134625D01*
X0322933Y0134668D01*
X0322890Y0134714D01*
X0322849Y0134762D01*
X0322811Y0134813D01*
X0322776Y0134866D01*
X0322744Y0134921D01*
X0322716Y0134978D01*
X0322692Y0135036D01*
X0322671Y0135096D01*
X0322654Y0135157D01*
X0322640Y0135219D01*
X0322631Y0135282D01*
X0322625Y0135345D01*
X0322623Y0135408D01*
X0322625Y0135470D01*
X0322630Y0135531D01*
X0322640Y0135592D01*
X0322653Y0135653D01*
X0322669Y0135712D01*
X0322689Y0135770D01*
X0322713Y0135827D01*
X0322740Y0135883D01*
X0322770Y0135937D01*
X0322804Y0135989D01*
X0322841Y0136038D01*
X0322880Y0136086D01*
X0322922Y0136131D01*
X0322967Y0136173D01*
X0323015Y0136213D01*
X0323064Y0136249D01*
X0323116Y0136283D01*
X0323170Y0136313D01*
X0323226Y0136340D01*
X0323283Y0136364D01*
X0323341Y0136384D01*
X0323400Y0136400D01*
X0323461Y0136413D01*
X0323522Y0136423D01*
X0323583Y0136428D01*
X0323645Y0136430D01*
X0322495Y0132469D02*
X0322559Y0132406D01*
X0322627Y0132347D01*
X0322696Y0132290D01*
X0322768Y0132236D01*
X0322842Y0132185D01*
X0322918Y0132137D01*
X0322995Y0132093D01*
X0323075Y0132052D01*
X0323156Y0132014D01*
X0323239Y0131979D01*
X0323323Y0131948D01*
X0323409Y0131921D01*
X0323495Y0131897D01*
X0323583Y0131876D01*
X0323671Y0131860D01*
X0323760Y0131847D01*
X0323849Y0131837D01*
X0323938Y0131832D01*
X0324028Y0131830D01*
X0324090Y0131832D01*
X0324151Y0131837D01*
X0324212Y0131847D01*
X0324273Y0131860D01*
X0324332Y0131876D01*
X0324390Y0131896D01*
X0324447Y0131920D01*
X0324503Y0131947D01*
X0324557Y0131977D01*
X0324609Y0132011D01*
X0324658Y0132047D01*
X0324706Y0132087D01*
X0324751Y0132129D01*
X0324793Y0132174D01*
X0324833Y0132222D01*
X0324869Y0132271D01*
X0324903Y0132323D01*
X0324933Y0132377D01*
X0324960Y0132433D01*
X0324984Y0132490D01*
X0325004Y0132548D01*
X0325020Y0132607D01*
X0325033Y0132668D01*
X0325043Y0132729D01*
X0325048Y0132790D01*
X0325050Y0132852D01*
X0325048Y0132915D01*
X0325042Y0132978D01*
X0325033Y0133041D01*
X0325019Y0133103D01*
X0325002Y0133164D01*
X0324981Y0133224D01*
X0324957Y0133282D01*
X0324929Y0133339D01*
X0324897Y0133394D01*
X0324862Y0133447D01*
X0324824Y0133498D01*
X0324783Y0133546D01*
X0324740Y0133592D01*
X0324693Y0133635D01*
X0324644Y0133675D01*
X0324593Y0133712D01*
X0324539Y0133746D01*
X0319639Y0134386D02*
X0319709Y0134384D01*
X0319780Y0134378D01*
X0319849Y0134369D01*
X0319918Y0134355D01*
X0319987Y0134338D01*
X0320054Y0134317D01*
X0320120Y0134292D01*
X0320184Y0134264D01*
X0320247Y0134232D01*
X0320308Y0134197D01*
X0320367Y0134158D01*
X0320424Y0134117D01*
X0320478Y0134072D01*
X0320530Y0134024D01*
X0320579Y0133974D01*
X0320626Y0133920D01*
X0320669Y0133865D01*
X0320709Y0133807D01*
X0320746Y0133747D01*
X0320779Y0133685D01*
X0320809Y0133621D01*
X0320836Y0133556D01*
X0320859Y0133490D01*
X0320878Y0133422D01*
X0320893Y0133353D01*
X0320905Y0133284D01*
X0320913Y0133214D01*
X0320917Y0133143D01*
X0320917Y0133073D01*
X0320913Y0133002D01*
X0320905Y0132932D01*
X0320893Y0132863D01*
X0320878Y0132794D01*
X0320859Y0132726D01*
X0320836Y0132660D01*
X0320809Y0132595D01*
X0320779Y0132531D01*
X0320746Y0132469D01*
X0320709Y0132409D01*
X0320669Y0132351D01*
X0320626Y0132296D01*
X0320579Y0132242D01*
X0320530Y0132192D01*
X0320478Y0132144D01*
X0320424Y0132099D01*
X0320367Y0132058D01*
X0320308Y0132019D01*
X0320247Y0131984D01*
X0320184Y0131952D01*
X0320120Y0131924D01*
X0320054Y0131899D01*
X0319987Y0131878D01*
X0319918Y0131861D01*
X0319849Y0131847D01*
X0319780Y0131838D01*
X0319709Y0131832D01*
X0319639Y0131830D01*
X0318362Y0131830D01*
X0318362Y0136430D01*
X0319639Y0136430D01*
X0319702Y0136428D01*
X0319765Y0136422D01*
X0319827Y0136413D01*
X0319888Y0136399D01*
X0319949Y0136382D01*
X0320008Y0136361D01*
X0320066Y0136336D01*
X0320123Y0136308D01*
X0320177Y0136277D01*
X0320229Y0136242D01*
X0320280Y0136204D01*
X0320328Y0136163D01*
X0320373Y0136119D01*
X0320415Y0136073D01*
X0320455Y0136024D01*
X0320491Y0135973D01*
X0320524Y0135919D01*
X0320554Y0135864D01*
X0320580Y0135806D01*
X0320603Y0135748D01*
X0320622Y0135688D01*
X0320637Y0135627D01*
X0320649Y0135565D01*
X0320657Y0135502D01*
X0320661Y0135439D01*
X0320661Y0135377D01*
X0320657Y0135314D01*
X0320649Y0135251D01*
X0320637Y0135189D01*
X0320622Y0135128D01*
X0320603Y0135068D01*
X0320580Y0135010D01*
X0320554Y0134952D01*
X0320524Y0134897D01*
X0320491Y0134843D01*
X0320455Y0134792D01*
X0320415Y0134743D01*
X0320373Y0134697D01*
X0320328Y0134653D01*
X0320280Y0134612D01*
X0320229Y0134574D01*
X0320177Y0134539D01*
X0320123Y0134508D01*
X0320066Y0134480D01*
X0320008Y0134455D01*
X0319949Y0134434D01*
X0319888Y0134417D01*
X0319827Y0134403D01*
X0319765Y0134394D01*
X0319702Y0134388D01*
X0319639Y0134386D01*
X0319639Y0134385D02*
X0318362Y0134385D01*
X0316156Y0133619D02*
X0313089Y0133619D01*
X0310717Y0134385D02*
X0308545Y0131830D01*
X0311101Y0131830D01*
X0308546Y0135407D02*
X0308571Y0135477D01*
X0308599Y0135546D01*
X0308630Y0135613D01*
X0308665Y0135679D01*
X0308703Y0135742D01*
X0308745Y0135804D01*
X0308789Y0135864D01*
X0308836Y0135921D01*
X0308886Y0135976D01*
X0308939Y0136028D01*
X0308995Y0136078D01*
X0309053Y0136124D01*
X0309113Y0136168D01*
X0309175Y0136209D01*
X0309239Y0136246D01*
X0309305Y0136280D01*
X0309373Y0136311D01*
X0309442Y0136338D01*
X0309512Y0136362D01*
X0309583Y0136383D01*
X0309656Y0136399D01*
X0309729Y0136412D01*
X0309803Y0136422D01*
X0309877Y0136427D01*
X0309951Y0136429D01*
X0309951Y0136430D02*
X0310018Y0136428D01*
X0310085Y0136422D01*
X0310151Y0136413D01*
X0310216Y0136399D01*
X0310281Y0136382D01*
X0310344Y0136361D01*
X0310406Y0136336D01*
X0310467Y0136308D01*
X0310526Y0136276D01*
X0310583Y0136241D01*
X0310638Y0136202D01*
X0310690Y0136161D01*
X0310740Y0136116D01*
X0310787Y0136069D01*
X0310832Y0136019D01*
X0310873Y0135967D01*
X0310912Y0135912D01*
X0310947Y0135855D01*
X0310979Y0135796D01*
X0311007Y0135735D01*
X0311032Y0135673D01*
X0311053Y0135610D01*
X0311070Y0135545D01*
X0311084Y0135480D01*
X0311093Y0135414D01*
X0311099Y0135347D01*
X0311101Y0135280D01*
X0311100Y0135280D02*
X0311098Y0135213D01*
X0311093Y0135147D01*
X0311084Y0135081D01*
X0311071Y0135015D01*
X0311055Y0134951D01*
X0311036Y0134887D01*
X0311013Y0134824D01*
X0310987Y0134763D01*
X0310957Y0134703D01*
X0310924Y0134645D01*
X0310889Y0134589D01*
X0310850Y0134535D01*
X0310808Y0134483D01*
X0310764Y0134433D01*
X0310717Y0134386D01*
X0306630Y0131830D02*
X0305607Y0133874D01*
X0305352Y0133874D02*
X0304074Y0133874D01*
X0305352Y0133874D02*
X0305422Y0133876D01*
X0305493Y0133882D01*
X0305562Y0133891D01*
X0305631Y0133905D01*
X0305700Y0133922D01*
X0305767Y0133943D01*
X0305833Y0133968D01*
X0305897Y0133996D01*
X0305960Y0134028D01*
X0306021Y0134063D01*
X0306080Y0134102D01*
X0306137Y0134143D01*
X0306191Y0134188D01*
X0306243Y0134236D01*
X0306292Y0134286D01*
X0306339Y0134340D01*
X0306382Y0134395D01*
X0306422Y0134453D01*
X0306459Y0134513D01*
X0306492Y0134575D01*
X0306522Y0134639D01*
X0306549Y0134704D01*
X0306572Y0134770D01*
X0306591Y0134838D01*
X0306606Y0134907D01*
X0306618Y0134976D01*
X0306626Y0135046D01*
X0306630Y0135117D01*
X0306630Y0135187D01*
X0306626Y0135258D01*
X0306618Y0135328D01*
X0306606Y0135397D01*
X0306591Y0135466D01*
X0306572Y0135534D01*
X0306549Y0135600D01*
X0306522Y0135665D01*
X0306492Y0135729D01*
X0306459Y0135791D01*
X0306422Y0135851D01*
X0306382Y0135909D01*
X0306339Y0135964D01*
X0306292Y0136018D01*
X0306243Y0136068D01*
X0306191Y0136116D01*
X0306137Y0136161D01*
X0306080Y0136202D01*
X0306021Y0136241D01*
X0305960Y0136276D01*
X0305897Y0136308D01*
X0305833Y0136336D01*
X0305767Y0136361D01*
X0305700Y0136382D01*
X0305631Y0136399D01*
X0305562Y0136413D01*
X0305493Y0136422D01*
X0305422Y0136428D01*
X0305352Y0136430D01*
X0304074Y0136430D01*
X0304074Y0131830D01*
X0304074Y0106430D02*
X0305352Y0106430D01*
X0305422Y0106428D01*
X0305493Y0106422D01*
X0305562Y0106413D01*
X0305631Y0106399D01*
X0305700Y0106382D01*
X0305767Y0106361D01*
X0305833Y0106336D01*
X0305897Y0106308D01*
X0305960Y0106276D01*
X0306021Y0106241D01*
X0306080Y0106202D01*
X0306137Y0106161D01*
X0306191Y0106116D01*
X0306243Y0106068D01*
X0306292Y0106018D01*
X0306339Y0105964D01*
X0306382Y0105909D01*
X0306422Y0105851D01*
X0306459Y0105791D01*
X0306492Y0105729D01*
X0306522Y0105665D01*
X0306549Y0105600D01*
X0306572Y0105534D01*
X0306591Y0105466D01*
X0306606Y0105397D01*
X0306618Y0105328D01*
X0306626Y0105258D01*
X0306630Y0105187D01*
X0306630Y0105117D01*
X0306626Y0105046D01*
X0306618Y0104976D01*
X0306606Y0104907D01*
X0306591Y0104838D01*
X0306572Y0104770D01*
X0306549Y0104704D01*
X0306522Y0104639D01*
X0306492Y0104575D01*
X0306459Y0104513D01*
X0306422Y0104453D01*
X0306382Y0104395D01*
X0306339Y0104340D01*
X0306292Y0104286D01*
X0306243Y0104236D01*
X0306191Y0104188D01*
X0306137Y0104143D01*
X0306080Y0104102D01*
X0306021Y0104063D01*
X0305960Y0104028D01*
X0305897Y0103996D01*
X0305833Y0103968D01*
X0305767Y0103943D01*
X0305700Y0103922D01*
X0305631Y0103905D01*
X0305562Y0103891D01*
X0305493Y0103882D01*
X0305422Y0103876D01*
X0305352Y0103874D01*
X0304074Y0103874D01*
X0305607Y0103874D02*
X0306630Y0101830D01*
X0308545Y0102852D02*
X0311101Y0102852D01*
X0310334Y0103874D02*
X0310334Y0101830D01*
X0308545Y0102852D02*
X0309567Y0106430D01*
X0313089Y0103619D02*
X0316156Y0103619D01*
X0318273Y0102980D02*
X0320573Y0102980D01*
X0320956Y0101830D02*
X0319423Y0106430D01*
X0317889Y0101830D01*
X0322862Y0101830D02*
X0322862Y0106430D01*
X0324139Y0106430D01*
X0324209Y0106428D01*
X0324280Y0106422D01*
X0324349Y0106413D01*
X0324418Y0106399D01*
X0324487Y0106382D01*
X0324554Y0106361D01*
X0324620Y0106336D01*
X0324684Y0106308D01*
X0324747Y0106276D01*
X0324808Y0106241D01*
X0324867Y0106202D01*
X0324924Y0106161D01*
X0324978Y0106116D01*
X0325030Y0106068D01*
X0325079Y0106018D01*
X0325126Y0105964D01*
X0325169Y0105909D01*
X0325209Y0105851D01*
X0325246Y0105791D01*
X0325279Y0105729D01*
X0325309Y0105665D01*
X0325336Y0105600D01*
X0325359Y0105534D01*
X0325378Y0105466D01*
X0325393Y0105397D01*
X0325405Y0105328D01*
X0325413Y0105258D01*
X0325417Y0105187D01*
X0325417Y0105117D01*
X0325413Y0105046D01*
X0325405Y0104976D01*
X0325393Y0104907D01*
X0325378Y0104838D01*
X0325359Y0104770D01*
X0325336Y0104704D01*
X0325309Y0104639D01*
X0325279Y0104575D01*
X0325246Y0104513D01*
X0325209Y0104453D01*
X0325169Y0104395D01*
X0325126Y0104340D01*
X0325079Y0104286D01*
X0325030Y0104236D01*
X0324978Y0104188D01*
X0324924Y0104143D01*
X0324867Y0104102D01*
X0324808Y0104063D01*
X0324747Y0104028D01*
X0324684Y0103996D01*
X0324620Y0103968D01*
X0324554Y0103943D01*
X0324487Y0103922D01*
X0324418Y0103905D01*
X0324349Y0103891D01*
X0324280Y0103882D01*
X0324209Y0103876D01*
X0324139Y0103874D01*
X0322862Y0103874D01*
X0327362Y0103874D02*
X0328639Y0103874D01*
X0328709Y0103876D01*
X0328780Y0103882D01*
X0328849Y0103891D01*
X0328918Y0103905D01*
X0328987Y0103922D01*
X0329054Y0103943D01*
X0329120Y0103968D01*
X0329184Y0103996D01*
X0329247Y0104028D01*
X0329308Y0104063D01*
X0329367Y0104102D01*
X0329424Y0104143D01*
X0329478Y0104188D01*
X0329530Y0104236D01*
X0329579Y0104286D01*
X0329626Y0104340D01*
X0329669Y0104395D01*
X0329709Y0104453D01*
X0329746Y0104513D01*
X0329779Y0104575D01*
X0329809Y0104639D01*
X0329836Y0104704D01*
X0329859Y0104770D01*
X0329878Y0104838D01*
X0329893Y0104907D01*
X0329905Y0104976D01*
X0329913Y0105046D01*
X0329917Y0105117D01*
X0329917Y0105187D01*
X0329913Y0105258D01*
X0329905Y0105328D01*
X0329893Y0105397D01*
X0329878Y0105466D01*
X0329859Y0105534D01*
X0329836Y0105600D01*
X0329809Y0105665D01*
X0329779Y0105729D01*
X0329746Y0105791D01*
X0329709Y0105851D01*
X0329669Y0105909D01*
X0329626Y0105964D01*
X0329579Y0106018D01*
X0329530Y0106068D01*
X0329478Y0106116D01*
X0329424Y0106161D01*
X0329367Y0106202D01*
X0329308Y0106241D01*
X0329247Y0106276D01*
X0329184Y0106308D01*
X0329120Y0106336D01*
X0329054Y0106361D01*
X0328987Y0106382D01*
X0328918Y0106399D01*
X0328849Y0106413D01*
X0328780Y0106422D01*
X0328709Y0106428D01*
X0328639Y0106430D01*
X0327362Y0106430D01*
X0327362Y0101830D01*
X0332134Y0104513D02*
X0333539Y0103747D01*
X0333028Y0101830D02*
X0332938Y0101832D01*
X0332849Y0101837D01*
X0332760Y0101847D01*
X0332671Y0101860D01*
X0332583Y0101876D01*
X0332495Y0101897D01*
X0332409Y0101921D01*
X0332323Y0101948D01*
X0332239Y0101979D01*
X0332156Y0102014D01*
X0332075Y0102052D01*
X0331995Y0102093D01*
X0331918Y0102137D01*
X0331842Y0102185D01*
X0331768Y0102236D01*
X0331696Y0102290D01*
X0331627Y0102347D01*
X0331559Y0102406D01*
X0331495Y0102469D01*
X0333539Y0103746D02*
X0333593Y0103712D01*
X0333644Y0103675D01*
X0333693Y0103635D01*
X0333740Y0103592D01*
X0333783Y0103546D01*
X0333824Y0103498D01*
X0333862Y0103447D01*
X0333897Y0103394D01*
X0333929Y0103339D01*
X0333957Y0103282D01*
X0333981Y0103224D01*
X0334002Y0103164D01*
X0334019Y0103103D01*
X0334033Y0103041D01*
X0334042Y0102978D01*
X0334048Y0102915D01*
X0334050Y0102852D01*
X0334048Y0102790D01*
X0334043Y0102729D01*
X0334033Y0102668D01*
X0334020Y0102607D01*
X0334004Y0102548D01*
X0333984Y0102490D01*
X0333960Y0102433D01*
X0333933Y0102377D01*
X0333903Y0102323D01*
X0333869Y0102271D01*
X0333833Y0102222D01*
X0333793Y0102174D01*
X0333751Y0102129D01*
X0333706Y0102087D01*
X0333658Y0102047D01*
X0333609Y0102011D01*
X0333557Y0101977D01*
X0333503Y0101947D01*
X0333447Y0101920D01*
X0333390Y0101896D01*
X0333332Y0101876D01*
X0333273Y0101860D01*
X0333212Y0101847D01*
X0333151Y0101837D01*
X0333090Y0101832D01*
X0333028Y0101830D01*
X0333795Y0106047D02*
X0333728Y0106095D01*
X0333660Y0106140D01*
X0333589Y0106182D01*
X0333516Y0106220D01*
X0333442Y0106256D01*
X0333367Y0106289D01*
X0333290Y0106318D01*
X0333212Y0106344D01*
X0333133Y0106367D01*
X0333053Y0106386D01*
X0332972Y0106402D01*
X0332891Y0106414D01*
X0332809Y0106423D01*
X0332727Y0106428D01*
X0332645Y0106430D01*
X0332583Y0106428D01*
X0332522Y0106423D01*
X0332461Y0106413D01*
X0332400Y0106400D01*
X0332341Y0106384D01*
X0332283Y0106364D01*
X0332226Y0106340D01*
X0332170Y0106313D01*
X0332116Y0106283D01*
X0332064Y0106249D01*
X0332015Y0106213D01*
X0331967Y0106173D01*
X0331922Y0106131D01*
X0331880Y0106086D01*
X0331841Y0106038D01*
X0331804Y0105989D01*
X0331770Y0105937D01*
X0331740Y0105883D01*
X0331713Y0105827D01*
X0331689Y0105770D01*
X0331669Y0105712D01*
X0331653Y0105653D01*
X0331640Y0105592D01*
X0331630Y0105531D01*
X0331625Y0105470D01*
X0331623Y0105408D01*
X0331625Y0105345D01*
X0331631Y0105282D01*
X0331640Y0105219D01*
X0331654Y0105157D01*
X0331671Y0105096D01*
X0331692Y0105036D01*
X0331716Y0104978D01*
X0331744Y0104921D01*
X0331776Y0104866D01*
X0331811Y0104813D01*
X0331849Y0104762D01*
X0331890Y0104714D01*
X0331933Y0104668D01*
X0331980Y0104625D01*
X0332029Y0104585D01*
X0332080Y0104548D01*
X0332134Y0104514D01*
X0335889Y0103619D02*
X0338956Y0103619D01*
X0341162Y0104385D02*
X0342439Y0104385D01*
X0342439Y0104386D02*
X0342502Y0104388D01*
X0342565Y0104394D01*
X0342627Y0104403D01*
X0342688Y0104417D01*
X0342749Y0104434D01*
X0342808Y0104455D01*
X0342866Y0104480D01*
X0342923Y0104508D01*
X0342977Y0104539D01*
X0343029Y0104574D01*
X0343080Y0104612D01*
X0343128Y0104653D01*
X0343173Y0104697D01*
X0343215Y0104743D01*
X0343255Y0104792D01*
X0343291Y0104843D01*
X0343324Y0104897D01*
X0343354Y0104952D01*
X0343380Y0105010D01*
X0343403Y0105068D01*
X0343422Y0105128D01*
X0343437Y0105189D01*
X0343449Y0105251D01*
X0343457Y0105314D01*
X0343461Y0105377D01*
X0343461Y0105439D01*
X0343457Y0105502D01*
X0343449Y0105565D01*
X0343437Y0105627D01*
X0343422Y0105688D01*
X0343403Y0105748D01*
X0343380Y0105806D01*
X0343354Y0105864D01*
X0343324Y0105919D01*
X0343291Y0105973D01*
X0343255Y0106024D01*
X0343215Y0106073D01*
X0343173Y0106119D01*
X0343128Y0106163D01*
X0343080Y0106204D01*
X0343029Y0106242D01*
X0342977Y0106277D01*
X0342923Y0106308D01*
X0342866Y0106336D01*
X0342808Y0106361D01*
X0342749Y0106382D01*
X0342688Y0106399D01*
X0342627Y0106413D01*
X0342565Y0106422D01*
X0342502Y0106428D01*
X0342439Y0106430D01*
X0341162Y0106430D01*
X0341162Y0101830D01*
X0342439Y0101830D01*
X0342509Y0101832D01*
X0342580Y0101838D01*
X0342649Y0101847D01*
X0342718Y0101861D01*
X0342787Y0101878D01*
X0342854Y0101899D01*
X0342920Y0101924D01*
X0342984Y0101952D01*
X0343047Y0101984D01*
X0343108Y0102019D01*
X0343167Y0102058D01*
X0343224Y0102099D01*
X0343278Y0102144D01*
X0343330Y0102192D01*
X0343379Y0102242D01*
X0343426Y0102296D01*
X0343469Y0102351D01*
X0343509Y0102409D01*
X0343546Y0102469D01*
X0343579Y0102531D01*
X0343609Y0102595D01*
X0343636Y0102660D01*
X0343659Y0102726D01*
X0343678Y0102794D01*
X0343693Y0102863D01*
X0343705Y0102932D01*
X0343713Y0103002D01*
X0343717Y0103073D01*
X0343717Y0103143D01*
X0343713Y0103214D01*
X0343705Y0103284D01*
X0343693Y0103353D01*
X0343678Y0103422D01*
X0343659Y0103490D01*
X0343636Y0103556D01*
X0343609Y0103621D01*
X0343579Y0103685D01*
X0343546Y0103747D01*
X0343509Y0103807D01*
X0343469Y0103865D01*
X0343426Y0103920D01*
X0343379Y0103974D01*
X0343330Y0104024D01*
X0343278Y0104072D01*
X0343224Y0104117D01*
X0343167Y0104158D01*
X0343108Y0104197D01*
X0343047Y0104232D01*
X0342984Y0104264D01*
X0342920Y0104292D01*
X0342854Y0104317D01*
X0342787Y0104338D01*
X0342718Y0104355D01*
X0342649Y0104369D01*
X0342580Y0104378D01*
X0342509Y0104384D01*
X0342439Y0104386D01*
X0345604Y0104385D02*
X0347137Y0104385D01*
X0347648Y0106430D02*
X0345604Y0106430D01*
X0345604Y0101830D01*
X0347648Y0101830D01*
X0349504Y0101830D02*
X0351548Y0101830D01*
X0349504Y0101830D02*
X0349504Y0106430D01*
X0353245Y0105152D02*
X0353245Y0103108D01*
X0353247Y0103038D01*
X0353253Y0102967D01*
X0353262Y0102898D01*
X0353276Y0102829D01*
X0353293Y0102760D01*
X0353314Y0102693D01*
X0353339Y0102627D01*
X0353367Y0102563D01*
X0353399Y0102500D01*
X0353434Y0102439D01*
X0353473Y0102380D01*
X0353514Y0102323D01*
X0353559Y0102269D01*
X0353607Y0102217D01*
X0353657Y0102168D01*
X0353711Y0102121D01*
X0353766Y0102078D01*
X0353824Y0102038D01*
X0353884Y0102001D01*
X0353946Y0101968D01*
X0354010Y0101938D01*
X0354075Y0101911D01*
X0354141Y0101888D01*
X0354209Y0101869D01*
X0354278Y0101854D01*
X0354347Y0101842D01*
X0354417Y0101834D01*
X0354488Y0101830D01*
X0354558Y0101830D01*
X0354629Y0101834D01*
X0354699Y0101842D01*
X0354768Y0101854D01*
X0354837Y0101869D01*
X0354905Y0101888D01*
X0354971Y0101911D01*
X0355036Y0101938D01*
X0355100Y0101968D01*
X0355162Y0102001D01*
X0355222Y0102038D01*
X0355280Y0102078D01*
X0355335Y0102121D01*
X0355389Y0102168D01*
X0355439Y0102217D01*
X0355487Y0102269D01*
X0355532Y0102323D01*
X0355573Y0102380D01*
X0355612Y0102439D01*
X0355647Y0102500D01*
X0355679Y0102563D01*
X0355707Y0102627D01*
X0355732Y0102693D01*
X0355753Y0102760D01*
X0355770Y0102829D01*
X0355784Y0102898D01*
X0355793Y0102967D01*
X0355799Y0103038D01*
X0355801Y0103108D01*
X0355801Y0105152D01*
X0355799Y0105222D01*
X0355793Y0105293D01*
X0355784Y0105362D01*
X0355770Y0105431D01*
X0355753Y0105500D01*
X0355732Y0105567D01*
X0355707Y0105633D01*
X0355679Y0105697D01*
X0355647Y0105760D01*
X0355612Y0105821D01*
X0355573Y0105880D01*
X0355532Y0105937D01*
X0355487Y0105991D01*
X0355439Y0106043D01*
X0355389Y0106092D01*
X0355335Y0106139D01*
X0355280Y0106182D01*
X0355222Y0106222D01*
X0355162Y0106259D01*
X0355100Y0106292D01*
X0355036Y0106322D01*
X0354971Y0106349D01*
X0354905Y0106372D01*
X0354837Y0106391D01*
X0354768Y0106406D01*
X0354699Y0106418D01*
X0354629Y0106426D01*
X0354558Y0106430D01*
X0354488Y0106430D01*
X0354417Y0106426D01*
X0354347Y0106418D01*
X0354278Y0106406D01*
X0354209Y0106391D01*
X0354141Y0106372D01*
X0354075Y0106349D01*
X0354010Y0106322D01*
X0353946Y0106292D01*
X0353884Y0106259D01*
X0353824Y0106222D01*
X0353766Y0106182D01*
X0353711Y0106139D01*
X0353657Y0106092D01*
X0353607Y0106043D01*
X0353559Y0105991D01*
X0353514Y0105937D01*
X0353473Y0105880D01*
X0353434Y0105821D01*
X0353399Y0105760D01*
X0353367Y0105697D01*
X0353339Y0105633D01*
X0353314Y0105567D01*
X0353293Y0105500D01*
X0353276Y0105431D01*
X0353262Y0105362D01*
X0353253Y0105293D01*
X0353247Y0105222D01*
X0353245Y0105152D01*
X0357578Y0106430D02*
X0358601Y0101830D01*
X0359623Y0104897D01*
X0360645Y0101830D01*
X0361667Y0106430D01*
X0331623Y0075408D02*
X0331625Y0075345D01*
X0331631Y0075282D01*
X0331640Y0075219D01*
X0331654Y0075157D01*
X0331671Y0075096D01*
X0331692Y0075036D01*
X0331716Y0074978D01*
X0331744Y0074921D01*
X0331776Y0074866D01*
X0331811Y0074813D01*
X0331849Y0074762D01*
X0331890Y0074714D01*
X0331933Y0074668D01*
X0331980Y0074625D01*
X0332029Y0074585D01*
X0332080Y0074548D01*
X0332134Y0074514D01*
X0332134Y0074513D02*
X0333539Y0073747D01*
X0333028Y0071830D02*
X0332938Y0071832D01*
X0332849Y0071837D01*
X0332760Y0071847D01*
X0332671Y0071860D01*
X0332583Y0071876D01*
X0332495Y0071897D01*
X0332409Y0071921D01*
X0332323Y0071948D01*
X0332239Y0071979D01*
X0332156Y0072014D01*
X0332075Y0072052D01*
X0331995Y0072093D01*
X0331918Y0072137D01*
X0331842Y0072185D01*
X0331768Y0072236D01*
X0331696Y0072290D01*
X0331627Y0072347D01*
X0331559Y0072406D01*
X0331495Y0072469D01*
X0333539Y0073746D02*
X0333593Y0073712D01*
X0333644Y0073675D01*
X0333693Y0073635D01*
X0333740Y0073592D01*
X0333783Y0073546D01*
X0333824Y0073498D01*
X0333862Y0073447D01*
X0333897Y0073394D01*
X0333929Y0073339D01*
X0333957Y0073282D01*
X0333981Y0073224D01*
X0334002Y0073164D01*
X0334019Y0073103D01*
X0334033Y0073041D01*
X0334042Y0072978D01*
X0334048Y0072915D01*
X0334050Y0072852D01*
X0334048Y0072790D01*
X0334043Y0072729D01*
X0334033Y0072668D01*
X0334020Y0072607D01*
X0334004Y0072548D01*
X0333984Y0072490D01*
X0333960Y0072433D01*
X0333933Y0072377D01*
X0333903Y0072323D01*
X0333869Y0072271D01*
X0333833Y0072222D01*
X0333793Y0072174D01*
X0333751Y0072129D01*
X0333706Y0072087D01*
X0333658Y0072047D01*
X0333609Y0072011D01*
X0333557Y0071977D01*
X0333503Y0071947D01*
X0333447Y0071920D01*
X0333390Y0071896D01*
X0333332Y0071876D01*
X0333273Y0071860D01*
X0333212Y0071847D01*
X0333151Y0071837D01*
X0333090Y0071832D01*
X0333028Y0071830D01*
X0333795Y0076047D02*
X0333728Y0076095D01*
X0333660Y0076140D01*
X0333589Y0076182D01*
X0333516Y0076220D01*
X0333442Y0076256D01*
X0333367Y0076289D01*
X0333290Y0076318D01*
X0333212Y0076344D01*
X0333133Y0076367D01*
X0333053Y0076386D01*
X0332972Y0076402D01*
X0332891Y0076414D01*
X0332809Y0076423D01*
X0332727Y0076428D01*
X0332645Y0076430D01*
X0332583Y0076428D01*
X0332522Y0076423D01*
X0332461Y0076413D01*
X0332400Y0076400D01*
X0332341Y0076384D01*
X0332283Y0076364D01*
X0332226Y0076340D01*
X0332170Y0076313D01*
X0332116Y0076283D01*
X0332064Y0076249D01*
X0332015Y0076213D01*
X0331967Y0076173D01*
X0331922Y0076131D01*
X0331880Y0076086D01*
X0331841Y0076038D01*
X0331804Y0075989D01*
X0331770Y0075937D01*
X0331740Y0075883D01*
X0331713Y0075827D01*
X0331689Y0075770D01*
X0331669Y0075712D01*
X0331653Y0075653D01*
X0331640Y0075592D01*
X0331630Y0075531D01*
X0331625Y0075470D01*
X0331623Y0075408D01*
X0328639Y0076430D02*
X0328709Y0076428D01*
X0328780Y0076422D01*
X0328849Y0076413D01*
X0328918Y0076399D01*
X0328987Y0076382D01*
X0329054Y0076361D01*
X0329120Y0076336D01*
X0329184Y0076308D01*
X0329247Y0076276D01*
X0329308Y0076241D01*
X0329367Y0076202D01*
X0329424Y0076161D01*
X0329478Y0076116D01*
X0329530Y0076068D01*
X0329579Y0076018D01*
X0329626Y0075964D01*
X0329669Y0075909D01*
X0329709Y0075851D01*
X0329746Y0075791D01*
X0329779Y0075729D01*
X0329809Y0075665D01*
X0329836Y0075600D01*
X0329859Y0075534D01*
X0329878Y0075466D01*
X0329893Y0075397D01*
X0329905Y0075328D01*
X0329913Y0075258D01*
X0329917Y0075187D01*
X0329917Y0075117D01*
X0329913Y0075046D01*
X0329905Y0074976D01*
X0329893Y0074907D01*
X0329878Y0074838D01*
X0329859Y0074770D01*
X0329836Y0074704D01*
X0329809Y0074639D01*
X0329779Y0074575D01*
X0329746Y0074513D01*
X0329709Y0074453D01*
X0329669Y0074395D01*
X0329626Y0074340D01*
X0329579Y0074286D01*
X0329530Y0074236D01*
X0329478Y0074188D01*
X0329424Y0074143D01*
X0329367Y0074102D01*
X0329308Y0074063D01*
X0329247Y0074028D01*
X0329184Y0073996D01*
X0329120Y0073968D01*
X0329054Y0073943D01*
X0328987Y0073922D01*
X0328918Y0073905D01*
X0328849Y0073891D01*
X0328780Y0073882D01*
X0328709Y0073876D01*
X0328639Y0073874D01*
X0327362Y0073874D01*
X0327362Y0071830D02*
X0327362Y0076430D01*
X0328639Y0076430D01*
X0324139Y0076430D02*
X0322862Y0076430D01*
X0322862Y0071830D01*
X0320956Y0071830D02*
X0319423Y0076430D01*
X0317889Y0071830D01*
X0318273Y0072980D02*
X0320573Y0072980D01*
X0322862Y0073874D02*
X0324139Y0073874D01*
X0324209Y0073876D01*
X0324280Y0073882D01*
X0324349Y0073891D01*
X0324418Y0073905D01*
X0324487Y0073922D01*
X0324554Y0073943D01*
X0324620Y0073968D01*
X0324684Y0073996D01*
X0324747Y0074028D01*
X0324808Y0074063D01*
X0324867Y0074102D01*
X0324924Y0074143D01*
X0324978Y0074188D01*
X0325030Y0074236D01*
X0325079Y0074286D01*
X0325126Y0074340D01*
X0325169Y0074395D01*
X0325209Y0074453D01*
X0325246Y0074513D01*
X0325279Y0074575D01*
X0325309Y0074639D01*
X0325336Y0074704D01*
X0325359Y0074770D01*
X0325378Y0074838D01*
X0325393Y0074907D01*
X0325405Y0074976D01*
X0325413Y0075046D01*
X0325417Y0075117D01*
X0325417Y0075187D01*
X0325413Y0075258D01*
X0325405Y0075328D01*
X0325393Y0075397D01*
X0325378Y0075466D01*
X0325359Y0075534D01*
X0325336Y0075600D01*
X0325309Y0075665D01*
X0325279Y0075729D01*
X0325246Y0075791D01*
X0325209Y0075851D01*
X0325169Y0075909D01*
X0325126Y0075964D01*
X0325079Y0076018D01*
X0325030Y0076068D01*
X0324978Y0076116D01*
X0324924Y0076161D01*
X0324867Y0076202D01*
X0324808Y0076241D01*
X0324747Y0076276D01*
X0324684Y0076308D01*
X0324620Y0076336D01*
X0324554Y0076361D01*
X0324487Y0076382D01*
X0324418Y0076399D01*
X0324349Y0076413D01*
X0324280Y0076422D01*
X0324209Y0076428D01*
X0324139Y0076430D01*
X0316156Y0073619D02*
X0313089Y0073619D01*
X0311101Y0071830D02*
X0308545Y0071830D01*
X0309823Y0071830D02*
X0309823Y0076430D01*
X0308545Y0075408D01*
X0305352Y0076430D02*
X0305422Y0076428D01*
X0305493Y0076422D01*
X0305562Y0076413D01*
X0305631Y0076399D01*
X0305700Y0076382D01*
X0305767Y0076361D01*
X0305833Y0076336D01*
X0305897Y0076308D01*
X0305960Y0076276D01*
X0306021Y0076241D01*
X0306080Y0076202D01*
X0306137Y0076161D01*
X0306191Y0076116D01*
X0306243Y0076068D01*
X0306292Y0076018D01*
X0306339Y0075964D01*
X0306382Y0075909D01*
X0306422Y0075851D01*
X0306459Y0075791D01*
X0306492Y0075729D01*
X0306522Y0075665D01*
X0306549Y0075600D01*
X0306572Y0075534D01*
X0306591Y0075466D01*
X0306606Y0075397D01*
X0306618Y0075328D01*
X0306626Y0075258D01*
X0306630Y0075187D01*
X0306630Y0075117D01*
X0306626Y0075046D01*
X0306618Y0074976D01*
X0306606Y0074907D01*
X0306591Y0074838D01*
X0306572Y0074770D01*
X0306549Y0074704D01*
X0306522Y0074639D01*
X0306492Y0074575D01*
X0306459Y0074513D01*
X0306422Y0074453D01*
X0306382Y0074395D01*
X0306339Y0074340D01*
X0306292Y0074286D01*
X0306243Y0074236D01*
X0306191Y0074188D01*
X0306137Y0074143D01*
X0306080Y0074102D01*
X0306021Y0074063D01*
X0305960Y0074028D01*
X0305897Y0073996D01*
X0305833Y0073968D01*
X0305767Y0073943D01*
X0305700Y0073922D01*
X0305631Y0073905D01*
X0305562Y0073891D01*
X0305493Y0073882D01*
X0305422Y0073876D01*
X0305352Y0073874D01*
X0304074Y0073874D01*
X0305607Y0073874D02*
X0306630Y0071830D01*
X0304074Y0071830D02*
X0304074Y0076430D01*
X0305352Y0076430D01*
X0304074Y0101830D02*
X0304074Y0106430D01*
X0280600Y0049800D02*
X0278600Y0049800D01*
X0279600Y0049800D02*
X0279600Y0046200D01*
X0277120Y0047200D02*
X0277120Y0049800D01*
X0275120Y0049800D02*
X0275120Y0047200D01*
X0275122Y0047138D01*
X0275128Y0047077D01*
X0275137Y0047016D01*
X0275150Y0046956D01*
X0275167Y0046897D01*
X0275188Y0046839D01*
X0275212Y0046782D01*
X0275239Y0046727D01*
X0275270Y0046674D01*
X0275304Y0046622D01*
X0275341Y0046573D01*
X0275381Y0046526D01*
X0275424Y0046482D01*
X0275469Y0046441D01*
X0275517Y0046402D01*
X0275568Y0046366D01*
X0275620Y0046334D01*
X0275674Y0046305D01*
X0275730Y0046279D01*
X0275788Y0046257D01*
X0275846Y0046238D01*
X0275906Y0046223D01*
X0275967Y0046212D01*
X0276028Y0046204D01*
X0276089Y0046200D01*
X0276151Y0046200D01*
X0276212Y0046204D01*
X0276273Y0046212D01*
X0276334Y0046223D01*
X0276394Y0046238D01*
X0276452Y0046257D01*
X0276510Y0046279D01*
X0276566Y0046305D01*
X0276620Y0046334D01*
X0276672Y0046366D01*
X0276723Y0046402D01*
X0276771Y0046441D01*
X0276816Y0046482D01*
X0276859Y0046526D01*
X0276899Y0046573D01*
X0276936Y0046622D01*
X0276970Y0046674D01*
X0277001Y0046727D01*
X0277028Y0046782D01*
X0277052Y0046839D01*
X0277073Y0046897D01*
X0277090Y0046956D01*
X0277103Y0047016D01*
X0277112Y0047077D01*
X0277118Y0047138D01*
X0277120Y0047200D01*
X0273400Y0047200D02*
X0273400Y0048800D01*
X0273398Y0048862D01*
X0273392Y0048923D01*
X0273383Y0048984D01*
X0273370Y0049044D01*
X0273353Y0049103D01*
X0273332Y0049161D01*
X0273308Y0049218D01*
X0273281Y0049273D01*
X0273250Y0049326D01*
X0273216Y0049378D01*
X0273179Y0049427D01*
X0273139Y0049474D01*
X0273096Y0049518D01*
X0273051Y0049559D01*
X0273003Y0049598D01*
X0272952Y0049634D01*
X0272900Y0049666D01*
X0272846Y0049695D01*
X0272790Y0049721D01*
X0272732Y0049743D01*
X0272674Y0049762D01*
X0272614Y0049777D01*
X0272553Y0049788D01*
X0272492Y0049796D01*
X0272431Y0049800D01*
X0272369Y0049800D01*
X0272308Y0049796D01*
X0272247Y0049788D01*
X0272186Y0049777D01*
X0272126Y0049762D01*
X0272068Y0049743D01*
X0272010Y0049721D01*
X0271954Y0049695D01*
X0271900Y0049666D01*
X0271848Y0049634D01*
X0271797Y0049598D01*
X0271749Y0049559D01*
X0271704Y0049518D01*
X0271661Y0049474D01*
X0271621Y0049427D01*
X0271584Y0049378D01*
X0271550Y0049326D01*
X0271519Y0049273D01*
X0271492Y0049218D01*
X0271468Y0049161D01*
X0271447Y0049103D01*
X0271430Y0049044D01*
X0271417Y0048984D01*
X0271408Y0048923D01*
X0271402Y0048862D01*
X0271400Y0048800D01*
X0271400Y0047200D01*
X0271402Y0047138D01*
X0271408Y0047077D01*
X0271417Y0047016D01*
X0271430Y0046956D01*
X0271447Y0046897D01*
X0271468Y0046839D01*
X0271492Y0046782D01*
X0271519Y0046727D01*
X0271550Y0046674D01*
X0271584Y0046622D01*
X0271621Y0046573D01*
X0271661Y0046526D01*
X0271704Y0046482D01*
X0271749Y0046441D01*
X0271797Y0046402D01*
X0271848Y0046366D01*
X0271900Y0046334D01*
X0271954Y0046305D01*
X0272010Y0046279D01*
X0272068Y0046257D01*
X0272126Y0046238D01*
X0272186Y0046223D01*
X0272247Y0046212D01*
X0272308Y0046204D01*
X0272369Y0046200D01*
X0272431Y0046200D01*
X0272492Y0046204D01*
X0272553Y0046212D01*
X0272614Y0046223D01*
X0272674Y0046238D01*
X0272732Y0046257D01*
X0272790Y0046279D01*
X0272846Y0046305D01*
X0272900Y0046334D01*
X0272952Y0046366D01*
X0273003Y0046402D01*
X0273051Y0046441D01*
X0273096Y0046482D01*
X0273139Y0046526D01*
X0273179Y0046573D01*
X0273216Y0046622D01*
X0273250Y0046674D01*
X0273281Y0046727D01*
X0273308Y0046782D01*
X0273332Y0046839D01*
X0273353Y0046897D01*
X0273370Y0046956D01*
X0273383Y0047016D01*
X0273392Y0047077D01*
X0273398Y0047138D01*
X0273400Y0047200D01*
X0269760Y0047600D02*
X0267360Y0047600D01*
X0265600Y0046200D02*
X0265600Y0049800D01*
X0263600Y0049800D02*
X0263600Y0046200D01*
X0262000Y0046200D02*
X0261200Y0046200D01*
X0261600Y0046200D02*
X0261600Y0049800D01*
X0261200Y0049800D02*
X0262000Y0049800D01*
X0263600Y0049800D02*
X0265600Y0046200D01*
X0044800Y0172920D02*
X0041200Y0174120D01*
X0044800Y0175320D01*
X0043900Y0175020D02*
X0043900Y0173220D01*
X0043200Y0176900D02*
X0043200Y0177900D01*
X0043198Y0177962D01*
X0043192Y0178023D01*
X0043183Y0178084D01*
X0043170Y0178144D01*
X0043153Y0178203D01*
X0043132Y0178261D01*
X0043108Y0178318D01*
X0043081Y0178373D01*
X0043050Y0178426D01*
X0043016Y0178478D01*
X0042979Y0178527D01*
X0042939Y0178574D01*
X0042896Y0178618D01*
X0042851Y0178659D01*
X0042803Y0178698D01*
X0042752Y0178734D01*
X0042700Y0178766D01*
X0042646Y0178795D01*
X0042590Y0178821D01*
X0042532Y0178843D01*
X0042474Y0178862D01*
X0042414Y0178877D01*
X0042353Y0178888D01*
X0042292Y0178896D01*
X0042231Y0178900D01*
X0042169Y0178900D01*
X0042108Y0178896D01*
X0042047Y0178888D01*
X0041986Y0178877D01*
X0041926Y0178862D01*
X0041868Y0178843D01*
X0041810Y0178821D01*
X0041754Y0178795D01*
X0041700Y0178766D01*
X0041648Y0178734D01*
X0041597Y0178698D01*
X0041549Y0178659D01*
X0041504Y0178618D01*
X0041461Y0178574D01*
X0041421Y0178527D01*
X0041384Y0178478D01*
X0041350Y0178426D01*
X0041319Y0178373D01*
X0041292Y0178318D01*
X0041268Y0178261D01*
X0041247Y0178203D01*
X0041230Y0178144D01*
X0041217Y0178084D01*
X0041208Y0178023D01*
X0041202Y0177962D01*
X0041200Y0177900D01*
X0041200Y0176900D01*
X0044800Y0176900D01*
X0044800Y0180500D02*
X0041200Y0180500D01*
X0041200Y0181500D01*
X0041202Y0181562D01*
X0041208Y0181623D01*
X0041217Y0181684D01*
X0041230Y0181744D01*
X0041247Y0181803D01*
X0041268Y0181861D01*
X0041292Y0181918D01*
X0041319Y0181973D01*
X0041350Y0182026D01*
X0041384Y0182078D01*
X0041421Y0182127D01*
X0041461Y0182174D01*
X0041504Y0182218D01*
X0041549Y0182259D01*
X0041597Y0182298D01*
X0041648Y0182334D01*
X0041700Y0182366D01*
X0041754Y0182395D01*
X0041810Y0182421D01*
X0041868Y0182443D01*
X0041926Y0182462D01*
X0041986Y0182477D01*
X0042047Y0182488D01*
X0042108Y0182496D01*
X0042169Y0182500D01*
X0042231Y0182500D01*
X0042292Y0182496D01*
X0042353Y0182488D01*
X0042414Y0182477D01*
X0042474Y0182462D01*
X0042532Y0182443D01*
X0042590Y0182421D01*
X0042646Y0182395D01*
X0042700Y0182366D01*
X0042752Y0182334D01*
X0042803Y0182298D01*
X0042851Y0182259D01*
X0042896Y0182218D01*
X0042939Y0182174D01*
X0042979Y0182127D01*
X0043016Y0182078D01*
X0043050Y0182026D01*
X0043081Y0181973D01*
X0043108Y0181918D01*
X0043132Y0181861D01*
X0043153Y0181803D01*
X0043170Y0181744D01*
X0043183Y0181684D01*
X0043192Y0181623D01*
X0043198Y0181562D01*
X0043200Y0181500D01*
X0043200Y0180500D01*
X0042700Y0184300D02*
X0043300Y0185400D01*
X0044800Y0185000D02*
X0044798Y0184922D01*
X0044793Y0184843D01*
X0044784Y0184765D01*
X0044771Y0184688D01*
X0044755Y0184611D01*
X0044735Y0184535D01*
X0044711Y0184460D01*
X0044685Y0184386D01*
X0044654Y0184314D01*
X0044621Y0184243D01*
X0044584Y0184174D01*
X0044544Y0184106D01*
X0044501Y0184040D01*
X0044455Y0183977D01*
X0044406Y0183916D01*
X0044354Y0183857D01*
X0044300Y0183800D01*
X0043300Y0185399D02*
X0043331Y0185447D01*
X0043364Y0185492D01*
X0043400Y0185535D01*
X0043440Y0185575D01*
X0043482Y0185612D01*
X0043526Y0185646D01*
X0043573Y0185678D01*
X0043622Y0185706D01*
X0043672Y0185730D01*
X0043725Y0185751D01*
X0043778Y0185768D01*
X0043833Y0185782D01*
X0043888Y0185791D01*
X0043944Y0185797D01*
X0044000Y0185799D01*
X0044000Y0185800D02*
X0044055Y0185798D01*
X0044109Y0185793D01*
X0044163Y0185783D01*
X0044216Y0185770D01*
X0044268Y0185754D01*
X0044319Y0185734D01*
X0044368Y0185710D01*
X0044416Y0185684D01*
X0044461Y0185654D01*
X0044505Y0185621D01*
X0044546Y0185585D01*
X0044585Y0185546D01*
X0044621Y0185505D01*
X0044654Y0185461D01*
X0044684Y0185416D01*
X0044710Y0185368D01*
X0044734Y0185319D01*
X0044754Y0185268D01*
X0044770Y0185216D01*
X0044783Y0185163D01*
X0044793Y0185109D01*
X0044798Y0185055D01*
X0044800Y0185000D01*
X0041500Y0185600D02*
X0041457Y0185540D01*
X0041417Y0185477D01*
X0041380Y0185413D01*
X0041346Y0185346D01*
X0041316Y0185279D01*
X0041289Y0185209D01*
X0041266Y0185139D01*
X0041246Y0185067D01*
X0041229Y0184995D01*
X0041217Y0184922D01*
X0041207Y0184848D01*
X0041202Y0184774D01*
X0041200Y0184700D01*
X0041202Y0184645D01*
X0041207Y0184591D01*
X0041217Y0184537D01*
X0041230Y0184484D01*
X0041246Y0184432D01*
X0041266Y0184381D01*
X0041290Y0184332D01*
X0041316Y0184284D01*
X0041346Y0184239D01*
X0041379Y0184195D01*
X0041415Y0184154D01*
X0041454Y0184115D01*
X0041495Y0184079D01*
X0041539Y0184046D01*
X0041584Y0184016D01*
X0041632Y0183990D01*
X0041681Y0183966D01*
X0041732Y0183946D01*
X0041784Y0183930D01*
X0041837Y0183917D01*
X0041891Y0183907D01*
X0041945Y0183902D01*
X0042000Y0183900D01*
X0042056Y0183902D01*
X0042112Y0183908D01*
X0042167Y0183917D01*
X0042222Y0183931D01*
X0042275Y0183948D01*
X0042328Y0183969D01*
X0042378Y0183993D01*
X0042427Y0184021D01*
X0042474Y0184053D01*
X0042518Y0184087D01*
X0042560Y0184124D01*
X0042600Y0184164D01*
X0042636Y0184207D01*
X0042669Y0184252D01*
X0042700Y0184300D01*
D13*
X0025000Y0045000D02*
X0013000Y0045000D01*
X0013000Y0041000D01*
X0011000Y0041000D01*
X0011000Y0021000D01*
X0013000Y0021000D01*
X0013000Y0022000D01*
X0025000Y0022000D01*
X0025000Y0021000D01*
X0025000Y0017000D01*
X0013000Y0017000D01*
X0013000Y0021000D01*
X0012000Y0019000D02*
X0009000Y0019000D01*
X0009000Y0024000D01*
X0025000Y0021000D02*
X0027000Y0021000D01*
X0075000Y0021000D01*
X0077000Y0021000D01*
X0077000Y0022000D01*
X0089000Y0022000D01*
X0089000Y0021000D01*
X0091000Y0021000D01*
X0091000Y0041000D01*
X0089000Y0041000D01*
X0089000Y0040000D01*
X0077000Y0040000D01*
X0077000Y0041000D01*
X0077000Y0045000D01*
X0089000Y0045000D01*
X0089000Y0041000D01*
X0090000Y0043000D02*
X0093000Y0043000D01*
X0093000Y0038000D01*
X0077000Y0041000D02*
X0075000Y0041000D01*
X0027000Y0041000D01*
X0025000Y0041000D01*
X0025000Y0040000D01*
X0013000Y0040000D01*
X0013000Y0041000D01*
X0025000Y0041000D02*
X0025000Y0045000D01*
X0027000Y0041000D02*
X0027000Y0021000D01*
X0075000Y0021000D02*
X0075000Y0041000D01*
X0077000Y0021000D02*
X0077000Y0017000D01*
X0089000Y0017000D01*
X0089000Y0021000D01*
D14*
X0041352Y0046400D02*
X0036240Y0046400D01*
X0038796Y0046400D02*
X0038796Y0055600D01*
X0036240Y0053556D01*
X0033489Y0055600D02*
X0029400Y0055600D01*
X0029400Y0046400D01*
X0029400Y0051511D02*
X0033489Y0051511D01*
X0336000Y0173500D02*
X0336000Y0188500D01*
D15*
X0316000Y0181000D02*
X0316003Y0181245D01*
X0316012Y0181491D01*
X0316027Y0181736D01*
X0316048Y0181980D01*
X0316075Y0182224D01*
X0316108Y0182467D01*
X0316147Y0182710D01*
X0316192Y0182951D01*
X0316243Y0183191D01*
X0316300Y0183430D01*
X0316362Y0183667D01*
X0316431Y0183903D01*
X0316505Y0184137D01*
X0316585Y0184369D01*
X0316670Y0184599D01*
X0316761Y0184827D01*
X0316858Y0185052D01*
X0316960Y0185276D01*
X0317068Y0185496D01*
X0317181Y0185714D01*
X0317299Y0185929D01*
X0317423Y0186141D01*
X0317551Y0186350D01*
X0317685Y0186556D01*
X0317824Y0186758D01*
X0317968Y0186957D01*
X0318117Y0187152D01*
X0318270Y0187344D01*
X0318428Y0187532D01*
X0318590Y0187716D01*
X0318758Y0187895D01*
X0318929Y0188071D01*
X0319105Y0188242D01*
X0319284Y0188410D01*
X0319468Y0188572D01*
X0319656Y0188730D01*
X0319848Y0188883D01*
X0320043Y0189032D01*
X0320242Y0189176D01*
X0320444Y0189315D01*
X0320650Y0189449D01*
X0320859Y0189577D01*
X0321071Y0189701D01*
X0321286Y0189819D01*
X0321504Y0189932D01*
X0321724Y0190040D01*
X0321948Y0190142D01*
X0322173Y0190239D01*
X0322401Y0190330D01*
X0322631Y0190415D01*
X0322863Y0190495D01*
X0323097Y0190569D01*
X0323333Y0190638D01*
X0323570Y0190700D01*
X0323809Y0190757D01*
X0324049Y0190808D01*
X0324290Y0190853D01*
X0324533Y0190892D01*
X0324776Y0190925D01*
X0325020Y0190952D01*
X0325264Y0190973D01*
X0325509Y0190988D01*
X0325755Y0190997D01*
X0326000Y0191000D01*
X0326245Y0190997D01*
X0326491Y0190988D01*
X0326736Y0190973D01*
X0326980Y0190952D01*
X0327224Y0190925D01*
X0327467Y0190892D01*
X0327710Y0190853D01*
X0327951Y0190808D01*
X0328191Y0190757D01*
X0328430Y0190700D01*
X0328667Y0190638D01*
X0328903Y0190569D01*
X0329137Y0190495D01*
X0329369Y0190415D01*
X0329599Y0190330D01*
X0329827Y0190239D01*
X0330052Y0190142D01*
X0330276Y0190040D01*
X0330496Y0189932D01*
X0330714Y0189819D01*
X0330929Y0189701D01*
X0331141Y0189577D01*
X0331350Y0189449D01*
X0331556Y0189315D01*
X0331758Y0189176D01*
X0331957Y0189032D01*
X0332152Y0188883D01*
X0332344Y0188730D01*
X0332532Y0188572D01*
X0332716Y0188410D01*
X0332895Y0188242D01*
X0333071Y0188071D01*
X0333242Y0187895D01*
X0333410Y0187716D01*
X0333572Y0187532D01*
X0333730Y0187344D01*
X0333883Y0187152D01*
X0334032Y0186957D01*
X0334176Y0186758D01*
X0334315Y0186556D01*
X0334449Y0186350D01*
X0334577Y0186141D01*
X0334701Y0185929D01*
X0334819Y0185714D01*
X0334932Y0185496D01*
X0335040Y0185276D01*
X0335142Y0185052D01*
X0335239Y0184827D01*
X0335330Y0184599D01*
X0335415Y0184369D01*
X0335495Y0184137D01*
X0335569Y0183903D01*
X0335638Y0183667D01*
X0335700Y0183430D01*
X0335757Y0183191D01*
X0335808Y0182951D01*
X0335853Y0182710D01*
X0335892Y0182467D01*
X0335925Y0182224D01*
X0335952Y0181980D01*
X0335973Y0181736D01*
X0335988Y0181491D01*
X0335997Y0181245D01*
X0336000Y0181000D01*
X0335997Y0180755D01*
X0335988Y0180509D01*
X0335973Y0180264D01*
X0335952Y0180020D01*
X0335925Y0179776D01*
X0335892Y0179533D01*
X0335853Y0179290D01*
X0335808Y0179049D01*
X0335757Y0178809D01*
X0335700Y0178570D01*
X0335638Y0178333D01*
X0335569Y0178097D01*
X0335495Y0177863D01*
X0335415Y0177631D01*
X0335330Y0177401D01*
X0335239Y0177173D01*
X0335142Y0176948D01*
X0335040Y0176724D01*
X0334932Y0176504D01*
X0334819Y0176286D01*
X0334701Y0176071D01*
X0334577Y0175859D01*
X0334449Y0175650D01*
X0334315Y0175444D01*
X0334176Y0175242D01*
X0334032Y0175043D01*
X0333883Y0174848D01*
X0333730Y0174656D01*
X0333572Y0174468D01*
X0333410Y0174284D01*
X0333242Y0174105D01*
X0333071Y0173929D01*
X0332895Y0173758D01*
X0332716Y0173590D01*
X0332532Y0173428D01*
X0332344Y0173270D01*
X0332152Y0173117D01*
X0331957Y0172968D01*
X0331758Y0172824D01*
X0331556Y0172685D01*
X0331350Y0172551D01*
X0331141Y0172423D01*
X0330929Y0172299D01*
X0330714Y0172181D01*
X0330496Y0172068D01*
X0330276Y0171960D01*
X0330052Y0171858D01*
X0329827Y0171761D01*
X0329599Y0171670D01*
X0329369Y0171585D01*
X0329137Y0171505D01*
X0328903Y0171431D01*
X0328667Y0171362D01*
X0328430Y0171300D01*
X0328191Y0171243D01*
X0327951Y0171192D01*
X0327710Y0171147D01*
X0327467Y0171108D01*
X0327224Y0171075D01*
X0326980Y0171048D01*
X0326736Y0171027D01*
X0326491Y0171012D01*
X0326245Y0171003D01*
X0326000Y0171000D01*
X0325755Y0171003D01*
X0325509Y0171012D01*
X0325264Y0171027D01*
X0325020Y0171048D01*
X0324776Y0171075D01*
X0324533Y0171108D01*
X0324290Y0171147D01*
X0324049Y0171192D01*
X0323809Y0171243D01*
X0323570Y0171300D01*
X0323333Y0171362D01*
X0323097Y0171431D01*
X0322863Y0171505D01*
X0322631Y0171585D01*
X0322401Y0171670D01*
X0322173Y0171761D01*
X0321948Y0171858D01*
X0321724Y0171960D01*
X0321504Y0172068D01*
X0321286Y0172181D01*
X0321071Y0172299D01*
X0320859Y0172423D01*
X0320650Y0172551D01*
X0320444Y0172685D01*
X0320242Y0172824D01*
X0320043Y0172968D01*
X0319848Y0173117D01*
X0319656Y0173270D01*
X0319468Y0173428D01*
X0319284Y0173590D01*
X0319105Y0173758D01*
X0318929Y0173929D01*
X0318758Y0174105D01*
X0318590Y0174284D01*
X0318428Y0174468D01*
X0318270Y0174656D01*
X0318117Y0174848D01*
X0317968Y0175043D01*
X0317824Y0175242D01*
X0317685Y0175444D01*
X0317551Y0175650D01*
X0317423Y0175859D01*
X0317299Y0176071D01*
X0317181Y0176286D01*
X0317068Y0176504D01*
X0316960Y0176724D01*
X0316858Y0176948D01*
X0316761Y0177173D01*
X0316670Y0177401D01*
X0316585Y0177631D01*
X0316505Y0177863D01*
X0316431Y0178097D01*
X0316362Y0178333D01*
X0316300Y0178570D01*
X0316243Y0178809D01*
X0316192Y0179049D01*
X0316147Y0179290D01*
X0316108Y0179533D01*
X0316075Y0179776D01*
X0316048Y0180020D01*
X0316027Y0180264D01*
X0316012Y0180509D01*
X0316003Y0180755D01*
X0316000Y0181000D01*
X0277500Y0156000D02*
X0254500Y0156000D01*
X0254500Y0226000D01*
X0262000Y0226000D01*
X0262002Y0225874D01*
X0262008Y0225749D01*
X0262018Y0225624D01*
X0262032Y0225499D01*
X0262049Y0225374D01*
X0262071Y0225250D01*
X0262096Y0225127D01*
X0262126Y0225005D01*
X0262159Y0224884D01*
X0262196Y0224764D01*
X0262236Y0224645D01*
X0262281Y0224528D01*
X0262329Y0224411D01*
X0262381Y0224297D01*
X0262436Y0224184D01*
X0262495Y0224073D01*
X0262557Y0223964D01*
X0262623Y0223857D01*
X0262692Y0223752D01*
X0262764Y0223649D01*
X0262839Y0223548D01*
X0262918Y0223450D01*
X0263000Y0223355D01*
X0263084Y0223262D01*
X0263172Y0223172D01*
X0263262Y0223084D01*
X0263355Y0223000D01*
X0263450Y0222918D01*
X0263548Y0222839D01*
X0263649Y0222764D01*
X0263752Y0222692D01*
X0263857Y0222623D01*
X0263964Y0222557D01*
X0264073Y0222495D01*
X0264184Y0222436D01*
X0264297Y0222381D01*
X0264411Y0222329D01*
X0264528Y0222281D01*
X0264645Y0222236D01*
X0264764Y0222196D01*
X0264884Y0222159D01*
X0265005Y0222126D01*
X0265127Y0222096D01*
X0265250Y0222071D01*
X0265374Y0222049D01*
X0265499Y0222032D01*
X0265624Y0222018D01*
X0265749Y0222008D01*
X0265874Y0222002D01*
X0266000Y0222000D01*
X0266126Y0222002D01*
X0266251Y0222008D01*
X0266376Y0222018D01*
X0266501Y0222032D01*
X0266626Y0222049D01*
X0266750Y0222071D01*
X0266873Y0222096D01*
X0266995Y0222126D01*
X0267116Y0222159D01*
X0267236Y0222196D01*
X0267355Y0222236D01*
X0267472Y0222281D01*
X0267589Y0222329D01*
X0267703Y0222381D01*
X0267816Y0222436D01*
X0267927Y0222495D01*
X0268036Y0222557D01*
X0268143Y0222623D01*
X0268248Y0222692D01*
X0268351Y0222764D01*
X0268452Y0222839D01*
X0268550Y0222918D01*
X0268645Y0223000D01*
X0268738Y0223084D01*
X0268828Y0223172D01*
X0268916Y0223262D01*
X0269000Y0223355D01*
X0269082Y0223450D01*
X0269161Y0223548D01*
X0269236Y0223649D01*
X0269308Y0223752D01*
X0269377Y0223857D01*
X0269443Y0223964D01*
X0269505Y0224073D01*
X0269564Y0224184D01*
X0269619Y0224297D01*
X0269671Y0224411D01*
X0269719Y0224528D01*
X0269764Y0224645D01*
X0269804Y0224764D01*
X0269841Y0224884D01*
X0269874Y0225005D01*
X0269904Y0225127D01*
X0269929Y0225250D01*
X0269951Y0225374D01*
X0269968Y0225499D01*
X0269982Y0225624D01*
X0269992Y0225749D01*
X0269998Y0225874D01*
X0270000Y0226000D01*
X0277500Y0226000D01*
X0277500Y0156000D01*
X0267500Y0130500D02*
X0266000Y0130500D01*
X0265500Y0130000D01*
X0246500Y0130000D01*
X0246000Y0130500D01*
X0244500Y0130500D01*
X0244440Y0130498D01*
X0244379Y0130493D01*
X0244320Y0130484D01*
X0244261Y0130471D01*
X0244202Y0130455D01*
X0244145Y0130435D01*
X0244090Y0130412D01*
X0244035Y0130385D01*
X0243983Y0130356D01*
X0243932Y0130323D01*
X0243883Y0130287D01*
X0243837Y0130249D01*
X0243793Y0130207D01*
X0243751Y0130163D01*
X0243713Y0130117D01*
X0243677Y0130068D01*
X0243644Y0130017D01*
X0243615Y0129965D01*
X0243588Y0129910D01*
X0243565Y0129855D01*
X0243545Y0129798D01*
X0243529Y0129739D01*
X0243516Y0129680D01*
X0243507Y0129621D01*
X0243502Y0129560D01*
X0243500Y0129500D01*
X0243500Y0122500D01*
X0243502Y0122440D01*
X0243507Y0122379D01*
X0243516Y0122320D01*
X0243529Y0122261D01*
X0243545Y0122202D01*
X0243565Y0122145D01*
X0243588Y0122090D01*
X0243615Y0122035D01*
X0243644Y0121983D01*
X0243677Y0121932D01*
X0243713Y0121883D01*
X0243751Y0121837D01*
X0243793Y0121793D01*
X0243837Y0121751D01*
X0243883Y0121713D01*
X0243932Y0121677D01*
X0243983Y0121644D01*
X0244035Y0121615D01*
X0244090Y0121588D01*
X0244145Y0121565D01*
X0244202Y0121545D01*
X0244261Y0121529D01*
X0244320Y0121516D01*
X0244379Y0121507D01*
X0244440Y0121502D01*
X0244500Y0121500D01*
X0246000Y0121500D01*
X0246500Y0122000D01*
X0265500Y0122000D01*
X0266000Y0121500D01*
X0267500Y0121500D01*
X0267560Y0121502D01*
X0267621Y0121507D01*
X0267680Y0121516D01*
X0267739Y0121529D01*
X0267798Y0121545D01*
X0267855Y0121565D01*
X0267910Y0121588D01*
X0267965Y0121615D01*
X0268017Y0121644D01*
X0268068Y0121677D01*
X0268117Y0121713D01*
X0268163Y0121751D01*
X0268207Y0121793D01*
X0268249Y0121837D01*
X0268287Y0121883D01*
X0268323Y0121932D01*
X0268356Y0121983D01*
X0268385Y0122035D01*
X0268412Y0122090D01*
X0268435Y0122145D01*
X0268455Y0122202D01*
X0268471Y0122261D01*
X0268484Y0122320D01*
X0268493Y0122379D01*
X0268498Y0122440D01*
X0268500Y0122500D01*
X0268500Y0129500D01*
X0268498Y0129560D01*
X0268493Y0129621D01*
X0268484Y0129680D01*
X0268471Y0129739D01*
X0268455Y0129798D01*
X0268435Y0129855D01*
X0268412Y0129910D01*
X0268385Y0129965D01*
X0268356Y0130017D01*
X0268323Y0130068D01*
X0268287Y0130117D01*
X0268249Y0130163D01*
X0268207Y0130207D01*
X0268163Y0130249D01*
X0268117Y0130287D01*
X0268068Y0130323D01*
X0268017Y0130356D01*
X0267965Y0130385D01*
X0267910Y0130412D01*
X0267855Y0130435D01*
X0267798Y0130455D01*
X0267739Y0130471D01*
X0267680Y0130484D01*
X0267621Y0130493D01*
X0267560Y0130498D01*
X0267500Y0130500D01*
X0228500Y0114500D02*
X0228500Y0107500D01*
X0228498Y0107440D01*
X0228493Y0107379D01*
X0228484Y0107320D01*
X0228471Y0107261D01*
X0228455Y0107202D01*
X0228435Y0107145D01*
X0228412Y0107090D01*
X0228385Y0107035D01*
X0228356Y0106983D01*
X0228323Y0106932D01*
X0228287Y0106883D01*
X0228249Y0106837D01*
X0228207Y0106793D01*
X0228163Y0106751D01*
X0228117Y0106713D01*
X0228068Y0106677D01*
X0228017Y0106644D01*
X0227965Y0106615D01*
X0227910Y0106588D01*
X0227855Y0106565D01*
X0227798Y0106545D01*
X0227739Y0106529D01*
X0227680Y0106516D01*
X0227621Y0106507D01*
X0227560Y0106502D01*
X0227500Y0106500D01*
X0226000Y0106500D01*
X0225500Y0107000D01*
X0206500Y0107000D01*
X0206000Y0106500D01*
X0204500Y0106500D01*
X0204440Y0106502D01*
X0204379Y0106507D01*
X0204320Y0106516D01*
X0204261Y0106529D01*
X0204202Y0106545D01*
X0204145Y0106565D01*
X0204090Y0106588D01*
X0204035Y0106615D01*
X0203983Y0106644D01*
X0203932Y0106677D01*
X0203883Y0106713D01*
X0203837Y0106751D01*
X0203793Y0106793D01*
X0203751Y0106837D01*
X0203713Y0106883D01*
X0203677Y0106932D01*
X0203644Y0106983D01*
X0203615Y0107035D01*
X0203588Y0107090D01*
X0203565Y0107145D01*
X0203545Y0107202D01*
X0203529Y0107261D01*
X0203516Y0107320D01*
X0203507Y0107379D01*
X0203502Y0107440D01*
X0203500Y0107500D01*
X0203500Y0114500D01*
X0203502Y0114560D01*
X0203507Y0114621D01*
X0203516Y0114680D01*
X0203529Y0114739D01*
X0203545Y0114798D01*
X0203565Y0114855D01*
X0203588Y0114910D01*
X0203615Y0114965D01*
X0203644Y0115017D01*
X0203677Y0115068D01*
X0203713Y0115117D01*
X0203751Y0115163D01*
X0203793Y0115207D01*
X0203837Y0115249D01*
X0203883Y0115287D01*
X0203932Y0115323D01*
X0203983Y0115356D01*
X0204035Y0115385D01*
X0204090Y0115412D01*
X0204145Y0115435D01*
X0204202Y0115455D01*
X0204261Y0115471D01*
X0204320Y0115484D01*
X0204379Y0115493D01*
X0204440Y0115498D01*
X0204500Y0115500D01*
X0206000Y0115500D01*
X0206500Y0115000D01*
X0225500Y0115000D01*
X0226000Y0115500D01*
X0227500Y0115500D01*
X0227560Y0115498D01*
X0227621Y0115493D01*
X0227680Y0115484D01*
X0227739Y0115471D01*
X0227798Y0115455D01*
X0227855Y0115435D01*
X0227910Y0115412D01*
X0227965Y0115385D01*
X0228017Y0115356D01*
X0228068Y0115323D01*
X0228117Y0115287D01*
X0228163Y0115249D01*
X0228207Y0115207D01*
X0228249Y0115163D01*
X0228287Y0115117D01*
X0228323Y0115068D01*
X0228356Y0115017D01*
X0228385Y0114965D01*
X0228412Y0114910D01*
X0228435Y0114855D01*
X0228455Y0114798D01*
X0228471Y0114739D01*
X0228484Y0114680D01*
X0228493Y0114621D01*
X0228498Y0114560D01*
X0228500Y0114500D01*
X0248500Y0094500D02*
X0248500Y0087500D01*
X0248502Y0087440D01*
X0248507Y0087379D01*
X0248516Y0087320D01*
X0248529Y0087261D01*
X0248545Y0087202D01*
X0248565Y0087145D01*
X0248588Y0087090D01*
X0248615Y0087035D01*
X0248644Y0086983D01*
X0248677Y0086932D01*
X0248713Y0086883D01*
X0248751Y0086837D01*
X0248793Y0086793D01*
X0248837Y0086751D01*
X0248883Y0086713D01*
X0248932Y0086677D01*
X0248983Y0086644D01*
X0249035Y0086615D01*
X0249090Y0086588D01*
X0249145Y0086565D01*
X0249202Y0086545D01*
X0249261Y0086529D01*
X0249320Y0086516D01*
X0249379Y0086507D01*
X0249440Y0086502D01*
X0249500Y0086500D01*
X0251000Y0086500D01*
X0251500Y0087000D01*
X0270500Y0087000D01*
X0271000Y0086500D01*
X0272500Y0086500D01*
X0272560Y0086502D01*
X0272621Y0086507D01*
X0272680Y0086516D01*
X0272739Y0086529D01*
X0272798Y0086545D01*
X0272855Y0086565D01*
X0272910Y0086588D01*
X0272965Y0086615D01*
X0273017Y0086644D01*
X0273068Y0086677D01*
X0273117Y0086713D01*
X0273163Y0086751D01*
X0273207Y0086793D01*
X0273249Y0086837D01*
X0273287Y0086883D01*
X0273323Y0086932D01*
X0273356Y0086983D01*
X0273385Y0087035D01*
X0273412Y0087090D01*
X0273435Y0087145D01*
X0273455Y0087202D01*
X0273471Y0087261D01*
X0273484Y0087320D01*
X0273493Y0087379D01*
X0273498Y0087440D01*
X0273500Y0087500D01*
X0273500Y0094500D01*
X0273498Y0094560D01*
X0273493Y0094621D01*
X0273484Y0094680D01*
X0273471Y0094739D01*
X0273455Y0094798D01*
X0273435Y0094855D01*
X0273412Y0094910D01*
X0273385Y0094965D01*
X0273356Y0095017D01*
X0273323Y0095068D01*
X0273287Y0095117D01*
X0273249Y0095163D01*
X0273207Y0095207D01*
X0273163Y0095249D01*
X0273117Y0095287D01*
X0273068Y0095323D01*
X0273017Y0095356D01*
X0272965Y0095385D01*
X0272910Y0095412D01*
X0272855Y0095435D01*
X0272798Y0095455D01*
X0272739Y0095471D01*
X0272680Y0095484D01*
X0272621Y0095493D01*
X0272560Y0095498D01*
X0272500Y0095500D01*
X0271000Y0095500D01*
X0270500Y0095000D01*
X0251500Y0095000D01*
X0251000Y0095500D01*
X0249500Y0095500D01*
X0249440Y0095498D01*
X0249379Y0095493D01*
X0249320Y0095484D01*
X0249261Y0095471D01*
X0249202Y0095455D01*
X0249145Y0095435D01*
X0249090Y0095412D01*
X0249035Y0095385D01*
X0248983Y0095356D01*
X0248932Y0095323D01*
X0248883Y0095287D01*
X0248837Y0095249D01*
X0248793Y0095207D01*
X0248751Y0095163D01*
X0248713Y0095117D01*
X0248677Y0095068D01*
X0248644Y0095017D01*
X0248615Y0094965D01*
X0248588Y0094910D01*
X0248565Y0094855D01*
X0248545Y0094798D01*
X0248529Y0094739D01*
X0248516Y0094680D01*
X0248507Y0094621D01*
X0248502Y0094560D01*
X0248500Y0094500D01*
X0203500Y0094500D02*
X0203500Y0087500D01*
X0203498Y0087440D01*
X0203493Y0087379D01*
X0203484Y0087320D01*
X0203471Y0087261D01*
X0203455Y0087202D01*
X0203435Y0087145D01*
X0203412Y0087090D01*
X0203385Y0087035D01*
X0203356Y0086983D01*
X0203323Y0086932D01*
X0203287Y0086883D01*
X0203249Y0086837D01*
X0203207Y0086793D01*
X0203163Y0086751D01*
X0203117Y0086713D01*
X0203068Y0086677D01*
X0203017Y0086644D01*
X0202965Y0086615D01*
X0202910Y0086588D01*
X0202855Y0086565D01*
X0202798Y0086545D01*
X0202739Y0086529D01*
X0202680Y0086516D01*
X0202621Y0086507D01*
X0202560Y0086502D01*
X0202500Y0086500D01*
X0201000Y0086500D01*
X0200500Y0087000D01*
X0181500Y0087000D01*
X0181000Y0086500D01*
X0179500Y0086500D01*
X0179440Y0086502D01*
X0179379Y0086507D01*
X0179320Y0086516D01*
X0179261Y0086529D01*
X0179202Y0086545D01*
X0179145Y0086565D01*
X0179090Y0086588D01*
X0179035Y0086615D01*
X0178983Y0086644D01*
X0178932Y0086677D01*
X0178883Y0086713D01*
X0178837Y0086751D01*
X0178793Y0086793D01*
X0178751Y0086837D01*
X0178713Y0086883D01*
X0178677Y0086932D01*
X0178644Y0086983D01*
X0178615Y0087035D01*
X0178588Y0087090D01*
X0178565Y0087145D01*
X0178545Y0087202D01*
X0178529Y0087261D01*
X0178516Y0087320D01*
X0178507Y0087379D01*
X0178502Y0087440D01*
X0178500Y0087500D01*
X0178500Y0094500D01*
X0178502Y0094560D01*
X0178507Y0094621D01*
X0178516Y0094680D01*
X0178529Y0094739D01*
X0178545Y0094798D01*
X0178565Y0094855D01*
X0178588Y0094910D01*
X0178615Y0094965D01*
X0178644Y0095017D01*
X0178677Y0095068D01*
X0178713Y0095117D01*
X0178751Y0095163D01*
X0178793Y0095207D01*
X0178837Y0095249D01*
X0178883Y0095287D01*
X0178932Y0095323D01*
X0178983Y0095356D01*
X0179035Y0095385D01*
X0179090Y0095412D01*
X0179145Y0095435D01*
X0179202Y0095455D01*
X0179261Y0095471D01*
X0179320Y0095484D01*
X0179379Y0095493D01*
X0179440Y0095498D01*
X0179500Y0095500D01*
X0181000Y0095500D01*
X0181500Y0095000D01*
X0200500Y0095000D01*
X0201000Y0095500D01*
X0202500Y0095500D01*
X0202560Y0095498D01*
X0202621Y0095493D01*
X0202680Y0095484D01*
X0202739Y0095471D01*
X0202798Y0095455D01*
X0202855Y0095435D01*
X0202910Y0095412D01*
X0202965Y0095385D01*
X0203017Y0095356D01*
X0203068Y0095323D01*
X0203117Y0095287D01*
X0203163Y0095249D01*
X0203207Y0095207D01*
X0203249Y0095163D01*
X0203287Y0095117D01*
X0203323Y0095068D01*
X0203356Y0095017D01*
X0203385Y0094965D01*
X0203412Y0094910D01*
X0203435Y0094855D01*
X0203455Y0094798D01*
X0203471Y0094739D01*
X0203484Y0094680D01*
X0203493Y0094621D01*
X0203498Y0094560D01*
X0203500Y0094500D01*
X0153500Y0107500D02*
X0153500Y0114500D01*
X0153498Y0114560D01*
X0153493Y0114621D01*
X0153484Y0114680D01*
X0153471Y0114739D01*
X0153455Y0114798D01*
X0153435Y0114855D01*
X0153412Y0114910D01*
X0153385Y0114965D01*
X0153356Y0115017D01*
X0153323Y0115068D01*
X0153287Y0115117D01*
X0153249Y0115163D01*
X0153207Y0115207D01*
X0153163Y0115249D01*
X0153117Y0115287D01*
X0153068Y0115323D01*
X0153017Y0115356D01*
X0152965Y0115385D01*
X0152910Y0115412D01*
X0152855Y0115435D01*
X0152798Y0115455D01*
X0152739Y0115471D01*
X0152680Y0115484D01*
X0152621Y0115493D01*
X0152560Y0115498D01*
X0152500Y0115500D01*
X0151000Y0115500D01*
X0150500Y0115000D01*
X0131500Y0115000D01*
X0131000Y0115500D01*
X0129500Y0115500D01*
X0129440Y0115498D01*
X0129379Y0115493D01*
X0129320Y0115484D01*
X0129261Y0115471D01*
X0129202Y0115455D01*
X0129145Y0115435D01*
X0129090Y0115412D01*
X0129035Y0115385D01*
X0128983Y0115356D01*
X0128932Y0115323D01*
X0128883Y0115287D01*
X0128837Y0115249D01*
X0128793Y0115207D01*
X0128751Y0115163D01*
X0128713Y0115117D01*
X0128677Y0115068D01*
X0128644Y0115017D01*
X0128615Y0114965D01*
X0128588Y0114910D01*
X0128565Y0114855D01*
X0128545Y0114798D01*
X0128529Y0114739D01*
X0128516Y0114680D01*
X0128507Y0114621D01*
X0128502Y0114560D01*
X0128500Y0114500D01*
X0128500Y0107500D01*
X0128502Y0107440D01*
X0128507Y0107379D01*
X0128516Y0107320D01*
X0128529Y0107261D01*
X0128545Y0107202D01*
X0128565Y0107145D01*
X0128588Y0107090D01*
X0128615Y0107035D01*
X0128644Y0106983D01*
X0128677Y0106932D01*
X0128713Y0106883D01*
X0128751Y0106837D01*
X0128793Y0106793D01*
X0128837Y0106751D01*
X0128883Y0106713D01*
X0128932Y0106677D01*
X0128983Y0106644D01*
X0129035Y0106615D01*
X0129090Y0106588D01*
X0129145Y0106565D01*
X0129202Y0106545D01*
X0129261Y0106529D01*
X0129320Y0106516D01*
X0129379Y0106507D01*
X0129440Y0106502D01*
X0129500Y0106500D01*
X0131000Y0106500D01*
X0131500Y0107000D01*
X0150500Y0107000D01*
X0151000Y0106500D01*
X0152500Y0106500D01*
X0152560Y0106502D01*
X0152621Y0106507D01*
X0152680Y0106516D01*
X0152739Y0106529D01*
X0152798Y0106545D01*
X0152855Y0106565D01*
X0152910Y0106588D01*
X0152965Y0106615D01*
X0153017Y0106644D01*
X0153068Y0106677D01*
X0153117Y0106713D01*
X0153163Y0106751D01*
X0153207Y0106793D01*
X0153249Y0106837D01*
X0153287Y0106883D01*
X0153323Y0106932D01*
X0153356Y0106983D01*
X0153385Y0107035D01*
X0153412Y0107090D01*
X0153435Y0107145D01*
X0153455Y0107202D01*
X0153471Y0107261D01*
X0153484Y0107320D01*
X0153493Y0107379D01*
X0153498Y0107440D01*
X0153500Y0107500D01*
X0142500Y0095500D02*
X0141000Y0095500D01*
X0140500Y0095000D01*
X0121500Y0095000D01*
X0121000Y0095500D01*
X0119500Y0095500D01*
X0119440Y0095498D01*
X0119379Y0095493D01*
X0119320Y0095484D01*
X0119261Y0095471D01*
X0119202Y0095455D01*
X0119145Y0095435D01*
X0119090Y0095412D01*
X0119035Y0095385D01*
X0118983Y0095356D01*
X0118932Y0095323D01*
X0118883Y0095287D01*
X0118837Y0095249D01*
X0118793Y0095207D01*
X0118751Y0095163D01*
X0118713Y0095117D01*
X0118677Y0095068D01*
X0118644Y0095017D01*
X0118615Y0094965D01*
X0118588Y0094910D01*
X0118565Y0094855D01*
X0118545Y0094798D01*
X0118529Y0094739D01*
X0118516Y0094680D01*
X0118507Y0094621D01*
X0118502Y0094560D01*
X0118500Y0094500D01*
X0118500Y0087500D01*
X0118502Y0087440D01*
X0118507Y0087379D01*
X0118516Y0087320D01*
X0118529Y0087261D01*
X0118545Y0087202D01*
X0118565Y0087145D01*
X0118588Y0087090D01*
X0118615Y0087035D01*
X0118644Y0086983D01*
X0118677Y0086932D01*
X0118713Y0086883D01*
X0118751Y0086837D01*
X0118793Y0086793D01*
X0118837Y0086751D01*
X0118883Y0086713D01*
X0118932Y0086677D01*
X0118983Y0086644D01*
X0119035Y0086615D01*
X0119090Y0086588D01*
X0119145Y0086565D01*
X0119202Y0086545D01*
X0119261Y0086529D01*
X0119320Y0086516D01*
X0119379Y0086507D01*
X0119440Y0086502D01*
X0119500Y0086500D01*
X0121000Y0086500D01*
X0121500Y0087000D01*
X0140500Y0087000D01*
X0141000Y0086500D01*
X0142500Y0086500D01*
X0142560Y0086502D01*
X0142621Y0086507D01*
X0142680Y0086516D01*
X0142739Y0086529D01*
X0142798Y0086545D01*
X0142855Y0086565D01*
X0142910Y0086588D01*
X0142965Y0086615D01*
X0143017Y0086644D01*
X0143068Y0086677D01*
X0143117Y0086713D01*
X0143163Y0086751D01*
X0143207Y0086793D01*
X0143249Y0086837D01*
X0143287Y0086883D01*
X0143323Y0086932D01*
X0143356Y0086983D01*
X0143385Y0087035D01*
X0143412Y0087090D01*
X0143435Y0087145D01*
X0143455Y0087202D01*
X0143471Y0087261D01*
X0143484Y0087320D01*
X0143493Y0087379D01*
X0143498Y0087440D01*
X0143500Y0087500D01*
X0143500Y0094500D01*
X0143498Y0094560D01*
X0143493Y0094621D01*
X0143484Y0094680D01*
X0143471Y0094739D01*
X0143455Y0094798D01*
X0143435Y0094855D01*
X0143412Y0094910D01*
X0143385Y0094965D01*
X0143356Y0095017D01*
X0143323Y0095068D01*
X0143287Y0095117D01*
X0143249Y0095163D01*
X0143207Y0095207D01*
X0143163Y0095249D01*
X0143117Y0095287D01*
X0143068Y0095323D01*
X0143017Y0095356D01*
X0142965Y0095385D01*
X0142910Y0095412D01*
X0142855Y0095435D01*
X0142798Y0095455D01*
X0142739Y0095471D01*
X0142680Y0095484D01*
X0142621Y0095493D01*
X0142560Y0095498D01*
X0142500Y0095500D01*
X0117500Y0126500D02*
X0116000Y0126500D01*
X0115500Y0127000D01*
X0096500Y0127000D01*
X0096000Y0126500D01*
X0094500Y0126500D01*
X0094440Y0126502D01*
X0094379Y0126507D01*
X0094320Y0126516D01*
X0094261Y0126529D01*
X0094202Y0126545D01*
X0094145Y0126565D01*
X0094090Y0126588D01*
X0094035Y0126615D01*
X0093983Y0126644D01*
X0093932Y0126677D01*
X0093883Y0126713D01*
X0093837Y0126751D01*
X0093793Y0126793D01*
X0093751Y0126837D01*
X0093713Y0126883D01*
X0093677Y0126932D01*
X0093644Y0126983D01*
X0093615Y0127035D01*
X0093588Y0127090D01*
X0093565Y0127145D01*
X0093545Y0127202D01*
X0093529Y0127261D01*
X0093516Y0127320D01*
X0093507Y0127379D01*
X0093502Y0127440D01*
X0093500Y0127500D01*
X0093500Y0134500D01*
X0093502Y0134560D01*
X0093507Y0134621D01*
X0093516Y0134680D01*
X0093529Y0134739D01*
X0093545Y0134798D01*
X0093565Y0134855D01*
X0093588Y0134910D01*
X0093615Y0134965D01*
X0093644Y0135017D01*
X0093677Y0135068D01*
X0093713Y0135117D01*
X0093751Y0135163D01*
X0093793Y0135207D01*
X0093837Y0135249D01*
X0093883Y0135287D01*
X0093932Y0135323D01*
X0093983Y0135356D01*
X0094035Y0135385D01*
X0094090Y0135412D01*
X0094145Y0135435D01*
X0094202Y0135455D01*
X0094261Y0135471D01*
X0094320Y0135484D01*
X0094379Y0135493D01*
X0094440Y0135498D01*
X0094500Y0135500D01*
X0096000Y0135500D01*
X0096500Y0135000D01*
X0115500Y0135000D01*
X0116000Y0135500D01*
X0117500Y0135500D01*
X0117560Y0135498D01*
X0117621Y0135493D01*
X0117680Y0135484D01*
X0117739Y0135471D01*
X0117798Y0135455D01*
X0117855Y0135435D01*
X0117910Y0135412D01*
X0117965Y0135385D01*
X0118017Y0135356D01*
X0118068Y0135323D01*
X0118117Y0135287D01*
X0118163Y0135249D01*
X0118207Y0135207D01*
X0118249Y0135163D01*
X0118287Y0135117D01*
X0118323Y0135068D01*
X0118356Y0135017D01*
X0118385Y0134965D01*
X0118412Y0134910D01*
X0118435Y0134855D01*
X0118455Y0134798D01*
X0118471Y0134739D01*
X0118484Y0134680D01*
X0118493Y0134621D01*
X0118498Y0134560D01*
X0118500Y0134500D01*
X0118500Y0127500D01*
X0118498Y0127440D01*
X0118493Y0127379D01*
X0118484Y0127320D01*
X0118471Y0127261D01*
X0118455Y0127202D01*
X0118435Y0127145D01*
X0118412Y0127090D01*
X0118385Y0127035D01*
X0118356Y0126983D01*
X0118323Y0126932D01*
X0118287Y0126883D01*
X0118249Y0126837D01*
X0118207Y0126793D01*
X0118163Y0126751D01*
X0118117Y0126713D01*
X0118068Y0126677D01*
X0118017Y0126644D01*
X0117965Y0126615D01*
X0117910Y0126588D01*
X0117855Y0126565D01*
X0117798Y0126545D01*
X0117739Y0126529D01*
X0117680Y0126516D01*
X0117621Y0126507D01*
X0117560Y0126502D01*
X0117500Y0126500D01*
X0083500Y0114500D02*
X0083500Y0107500D01*
X0083498Y0107440D01*
X0083493Y0107379D01*
X0083484Y0107320D01*
X0083471Y0107261D01*
X0083455Y0107202D01*
X0083435Y0107145D01*
X0083412Y0107090D01*
X0083385Y0107035D01*
X0083356Y0106983D01*
X0083323Y0106932D01*
X0083287Y0106883D01*
X0083249Y0106837D01*
X0083207Y0106793D01*
X0083163Y0106751D01*
X0083117Y0106713D01*
X0083068Y0106677D01*
X0083017Y0106644D01*
X0082965Y0106615D01*
X0082910Y0106588D01*
X0082855Y0106565D01*
X0082798Y0106545D01*
X0082739Y0106529D01*
X0082680Y0106516D01*
X0082621Y0106507D01*
X0082560Y0106502D01*
X0082500Y0106500D01*
X0081000Y0106500D01*
X0080500Y0107000D01*
X0061500Y0107000D01*
X0061000Y0106500D01*
X0059500Y0106500D01*
X0059440Y0106502D01*
X0059379Y0106507D01*
X0059320Y0106516D01*
X0059261Y0106529D01*
X0059202Y0106545D01*
X0059145Y0106565D01*
X0059090Y0106588D01*
X0059035Y0106615D01*
X0058983Y0106644D01*
X0058932Y0106677D01*
X0058883Y0106713D01*
X0058837Y0106751D01*
X0058793Y0106793D01*
X0058751Y0106837D01*
X0058713Y0106883D01*
X0058677Y0106932D01*
X0058644Y0106983D01*
X0058615Y0107035D01*
X0058588Y0107090D01*
X0058565Y0107145D01*
X0058545Y0107202D01*
X0058529Y0107261D01*
X0058516Y0107320D01*
X0058507Y0107379D01*
X0058502Y0107440D01*
X0058500Y0107500D01*
X0058500Y0114500D01*
X0058502Y0114560D01*
X0058507Y0114621D01*
X0058516Y0114680D01*
X0058529Y0114739D01*
X0058545Y0114798D01*
X0058565Y0114855D01*
X0058588Y0114910D01*
X0058615Y0114965D01*
X0058644Y0115017D01*
X0058677Y0115068D01*
X0058713Y0115117D01*
X0058751Y0115163D01*
X0058793Y0115207D01*
X0058837Y0115249D01*
X0058883Y0115287D01*
X0058932Y0115323D01*
X0058983Y0115356D01*
X0059035Y0115385D01*
X0059090Y0115412D01*
X0059145Y0115435D01*
X0059202Y0115455D01*
X0059261Y0115471D01*
X0059320Y0115484D01*
X0059379Y0115493D01*
X0059440Y0115498D01*
X0059500Y0115500D01*
X0061000Y0115500D01*
X0061500Y0115000D01*
X0080500Y0115000D01*
X0081000Y0115500D01*
X0082500Y0115500D01*
X0082560Y0115498D01*
X0082621Y0115493D01*
X0082680Y0115484D01*
X0082739Y0115471D01*
X0082798Y0115455D01*
X0082855Y0115435D01*
X0082910Y0115412D01*
X0082965Y0115385D01*
X0083017Y0115356D01*
X0083068Y0115323D01*
X0083117Y0115287D01*
X0083163Y0115249D01*
X0083207Y0115207D01*
X0083249Y0115163D01*
X0083287Y0115117D01*
X0083323Y0115068D01*
X0083356Y0115017D01*
X0083385Y0114965D01*
X0083412Y0114910D01*
X0083435Y0114855D01*
X0083455Y0114798D01*
X0083471Y0114739D01*
X0083484Y0114680D01*
X0083493Y0114621D01*
X0083498Y0114560D01*
X0083500Y0114500D01*
X0082500Y0095500D02*
X0081000Y0095500D01*
X0080500Y0095000D01*
X0061500Y0095000D01*
X0061000Y0095500D01*
X0059500Y0095500D01*
X0059440Y0095498D01*
X0059379Y0095493D01*
X0059320Y0095484D01*
X0059261Y0095471D01*
X0059202Y0095455D01*
X0059145Y0095435D01*
X0059090Y0095412D01*
X0059035Y0095385D01*
X0058983Y0095356D01*
X0058932Y0095323D01*
X0058883Y0095287D01*
X0058837Y0095249D01*
X0058793Y0095207D01*
X0058751Y0095163D01*
X0058713Y0095117D01*
X0058677Y0095068D01*
X0058644Y0095017D01*
X0058615Y0094965D01*
X0058588Y0094910D01*
X0058565Y0094855D01*
X0058545Y0094798D01*
X0058529Y0094739D01*
X0058516Y0094680D01*
X0058507Y0094621D01*
X0058502Y0094560D01*
X0058500Y0094500D01*
X0058500Y0087500D01*
X0058502Y0087440D01*
X0058507Y0087379D01*
X0058516Y0087320D01*
X0058529Y0087261D01*
X0058545Y0087202D01*
X0058565Y0087145D01*
X0058588Y0087090D01*
X0058615Y0087035D01*
X0058644Y0086983D01*
X0058677Y0086932D01*
X0058713Y0086883D01*
X0058751Y0086837D01*
X0058793Y0086793D01*
X0058837Y0086751D01*
X0058883Y0086713D01*
X0058932Y0086677D01*
X0058983Y0086644D01*
X0059035Y0086615D01*
X0059090Y0086588D01*
X0059145Y0086565D01*
X0059202Y0086545D01*
X0059261Y0086529D01*
X0059320Y0086516D01*
X0059379Y0086507D01*
X0059440Y0086502D01*
X0059500Y0086500D01*
X0061000Y0086500D01*
X0061500Y0087000D01*
X0080500Y0087000D01*
X0081000Y0086500D01*
X0082500Y0086500D01*
X0082560Y0086502D01*
X0082621Y0086507D01*
X0082680Y0086516D01*
X0082739Y0086529D01*
X0082798Y0086545D01*
X0082855Y0086565D01*
X0082910Y0086588D01*
X0082965Y0086615D01*
X0083017Y0086644D01*
X0083068Y0086677D01*
X0083117Y0086713D01*
X0083163Y0086751D01*
X0083207Y0086793D01*
X0083249Y0086837D01*
X0083287Y0086883D01*
X0083323Y0086932D01*
X0083356Y0086983D01*
X0083385Y0087035D01*
X0083412Y0087090D01*
X0083435Y0087145D01*
X0083455Y0087202D01*
X0083471Y0087261D01*
X0083484Y0087320D01*
X0083493Y0087379D01*
X0083498Y0087440D01*
X0083500Y0087500D01*
X0083500Y0094500D01*
X0083498Y0094560D01*
X0083493Y0094621D01*
X0083484Y0094680D01*
X0083471Y0094739D01*
X0083455Y0094798D01*
X0083435Y0094855D01*
X0083412Y0094910D01*
X0083385Y0094965D01*
X0083356Y0095017D01*
X0083323Y0095068D01*
X0083287Y0095117D01*
X0083249Y0095163D01*
X0083207Y0095207D01*
X0083163Y0095249D01*
X0083117Y0095287D01*
X0083068Y0095323D01*
X0083017Y0095356D01*
X0082965Y0095385D01*
X0082910Y0095412D01*
X0082855Y0095435D01*
X0082798Y0095455D01*
X0082739Y0095471D01*
X0082680Y0095484D01*
X0082621Y0095493D01*
X0082560Y0095498D01*
X0082500Y0095500D01*
X0094500Y0151000D02*
X0117500Y0151000D01*
X0117500Y0221000D01*
X0110000Y0221000D01*
X0109998Y0220874D01*
X0109992Y0220749D01*
X0109982Y0220624D01*
X0109968Y0220499D01*
X0109951Y0220374D01*
X0109929Y0220250D01*
X0109904Y0220127D01*
X0109874Y0220005D01*
X0109841Y0219884D01*
X0109804Y0219764D01*
X0109764Y0219645D01*
X0109719Y0219528D01*
X0109671Y0219411D01*
X0109619Y0219297D01*
X0109564Y0219184D01*
X0109505Y0219073D01*
X0109443Y0218964D01*
X0109377Y0218857D01*
X0109308Y0218752D01*
X0109236Y0218649D01*
X0109161Y0218548D01*
X0109082Y0218450D01*
X0109000Y0218355D01*
X0108916Y0218262D01*
X0108828Y0218172D01*
X0108738Y0218084D01*
X0108645Y0218000D01*
X0108550Y0217918D01*
X0108452Y0217839D01*
X0108351Y0217764D01*
X0108248Y0217692D01*
X0108143Y0217623D01*
X0108036Y0217557D01*
X0107927Y0217495D01*
X0107816Y0217436D01*
X0107703Y0217381D01*
X0107589Y0217329D01*
X0107472Y0217281D01*
X0107355Y0217236D01*
X0107236Y0217196D01*
X0107116Y0217159D01*
X0106995Y0217126D01*
X0106873Y0217096D01*
X0106750Y0217071D01*
X0106626Y0217049D01*
X0106501Y0217032D01*
X0106376Y0217018D01*
X0106251Y0217008D01*
X0106126Y0217002D01*
X0106000Y0217000D01*
X0105874Y0217002D01*
X0105749Y0217008D01*
X0105624Y0217018D01*
X0105499Y0217032D01*
X0105374Y0217049D01*
X0105250Y0217071D01*
X0105127Y0217096D01*
X0105005Y0217126D01*
X0104884Y0217159D01*
X0104764Y0217196D01*
X0104645Y0217236D01*
X0104528Y0217281D01*
X0104411Y0217329D01*
X0104297Y0217381D01*
X0104184Y0217436D01*
X0104073Y0217495D01*
X0103964Y0217557D01*
X0103857Y0217623D01*
X0103752Y0217692D01*
X0103649Y0217764D01*
X0103548Y0217839D01*
X0103450Y0217918D01*
X0103355Y0218000D01*
X0103262Y0218084D01*
X0103172Y0218172D01*
X0103084Y0218262D01*
X0103000Y0218355D01*
X0102918Y0218450D01*
X0102839Y0218548D01*
X0102764Y0218649D01*
X0102692Y0218752D01*
X0102623Y0218857D01*
X0102557Y0218964D01*
X0102495Y0219073D01*
X0102436Y0219184D01*
X0102381Y0219297D01*
X0102329Y0219411D01*
X0102281Y0219528D01*
X0102236Y0219645D01*
X0102196Y0219764D01*
X0102159Y0219884D01*
X0102126Y0220005D01*
X0102096Y0220127D01*
X0102071Y0220250D01*
X0102049Y0220374D01*
X0102032Y0220499D01*
X0102018Y0220624D01*
X0102008Y0220749D01*
X0102002Y0220874D01*
X0102000Y0221000D01*
X0094500Y0221000D01*
X0094500Y0151000D01*
X0169500Y0141000D02*
X0192500Y0141000D01*
X0192500Y0211000D01*
X0185000Y0211000D01*
X0184998Y0210874D01*
X0184992Y0210749D01*
X0184982Y0210624D01*
X0184968Y0210499D01*
X0184951Y0210374D01*
X0184929Y0210250D01*
X0184904Y0210127D01*
X0184874Y0210005D01*
X0184841Y0209884D01*
X0184804Y0209764D01*
X0184764Y0209645D01*
X0184719Y0209528D01*
X0184671Y0209411D01*
X0184619Y0209297D01*
X0184564Y0209184D01*
X0184505Y0209073D01*
X0184443Y0208964D01*
X0184377Y0208857D01*
X0184308Y0208752D01*
X0184236Y0208649D01*
X0184161Y0208548D01*
X0184082Y0208450D01*
X0184000Y0208355D01*
X0183916Y0208262D01*
X0183828Y0208172D01*
X0183738Y0208084D01*
X0183645Y0208000D01*
X0183550Y0207918D01*
X0183452Y0207839D01*
X0183351Y0207764D01*
X0183248Y0207692D01*
X0183143Y0207623D01*
X0183036Y0207557D01*
X0182927Y0207495D01*
X0182816Y0207436D01*
X0182703Y0207381D01*
X0182589Y0207329D01*
X0182472Y0207281D01*
X0182355Y0207236D01*
X0182236Y0207196D01*
X0182116Y0207159D01*
X0181995Y0207126D01*
X0181873Y0207096D01*
X0181750Y0207071D01*
X0181626Y0207049D01*
X0181501Y0207032D01*
X0181376Y0207018D01*
X0181251Y0207008D01*
X0181126Y0207002D01*
X0181000Y0207000D01*
X0180874Y0207002D01*
X0180749Y0207008D01*
X0180624Y0207018D01*
X0180499Y0207032D01*
X0180374Y0207049D01*
X0180250Y0207071D01*
X0180127Y0207096D01*
X0180005Y0207126D01*
X0179884Y0207159D01*
X0179764Y0207196D01*
X0179645Y0207236D01*
X0179528Y0207281D01*
X0179411Y0207329D01*
X0179297Y0207381D01*
X0179184Y0207436D01*
X0179073Y0207495D01*
X0178964Y0207557D01*
X0178857Y0207623D01*
X0178752Y0207692D01*
X0178649Y0207764D01*
X0178548Y0207839D01*
X0178450Y0207918D01*
X0178355Y0208000D01*
X0178262Y0208084D01*
X0178172Y0208172D01*
X0178084Y0208262D01*
X0178000Y0208355D01*
X0177918Y0208450D01*
X0177839Y0208548D01*
X0177764Y0208649D01*
X0177692Y0208752D01*
X0177623Y0208857D01*
X0177557Y0208964D01*
X0177495Y0209073D01*
X0177436Y0209184D01*
X0177381Y0209297D01*
X0177329Y0209411D01*
X0177281Y0209528D01*
X0177236Y0209645D01*
X0177196Y0209764D01*
X0177159Y0209884D01*
X0177126Y0210005D01*
X0177096Y0210127D01*
X0177071Y0210250D01*
X0177049Y0210374D01*
X0177032Y0210499D01*
X0177018Y0210624D01*
X0177008Y0210749D01*
X0177002Y0210874D01*
X0177000Y0211000D01*
X0169500Y0211000D01*
X0169500Y0141000D01*
X0141000Y0245000D02*
X0231000Y0245000D01*
X0231000Y0247000D01*
X0222500Y0247000D01*
X0221000Y0247000D01*
X0212500Y0247000D01*
X0211000Y0247000D01*
X0209500Y0247000D01*
X0202500Y0247000D01*
X0201000Y0247000D01*
X0199500Y0247000D01*
X0192500Y0247000D01*
X0191000Y0247000D01*
X0189500Y0247000D01*
X0182500Y0247000D01*
X0181000Y0247000D01*
X0181000Y0276000D01*
X0182500Y0276000D01*
X0189500Y0276000D01*
X0191000Y0276000D01*
X0192500Y0276000D01*
X0199500Y0276000D01*
X0201000Y0276000D01*
X0202500Y0276000D01*
X0209500Y0276000D01*
X0211000Y0276000D01*
X0212500Y0276000D01*
X0219500Y0276000D01*
X0221000Y0276000D01*
X0222500Y0276000D01*
X0231000Y0276000D01*
X0231000Y0247000D01*
X0221000Y0247000D02*
X0221000Y0276000D01*
X0211000Y0276000D02*
X0211000Y0247000D01*
X0201000Y0247000D02*
X0201000Y0276000D01*
X0191000Y0276000D02*
X0191000Y0247000D01*
X0181000Y0247000D02*
X0179500Y0247000D01*
X0172500Y0247000D01*
X0171000Y0247000D01*
X0171000Y0276000D01*
X0172500Y0276000D01*
X0179500Y0276000D01*
X0181000Y0276000D01*
X0171000Y0276000D02*
X0169500Y0276000D01*
X0162500Y0276000D01*
X0161000Y0276000D01*
X0161000Y0247000D01*
X0162500Y0247000D01*
X0169500Y0247000D01*
X0171000Y0247000D01*
X0161000Y0247000D02*
X0159500Y0247000D01*
X0152500Y0247000D01*
X0151000Y0247000D01*
X0151000Y0276000D01*
X0152500Y0276000D01*
X0159500Y0276000D01*
X0161000Y0276000D01*
X0151000Y0276000D02*
X0149500Y0276000D01*
X0141000Y0276000D01*
X0141000Y0247000D01*
X0149500Y0247000D01*
X0151000Y0247000D01*
X0141000Y0247000D02*
X0141000Y0245000D01*
X0378874Y0126315D02*
X0384583Y0126315D01*
X0384583Y0122378D01*
X0382614Y0122378D01*
X0382614Y0119622D01*
X0384583Y0119622D01*
X0384583Y0115685D01*
X0378874Y0115685D01*
X0378874Y0096315D02*
X0384583Y0096315D01*
X0384583Y0092378D01*
X0382614Y0092378D01*
X0382614Y0089622D01*
X0384583Y0089622D01*
X0384583Y0085685D01*
X0378874Y0085685D01*
X0378874Y0066315D02*
X0384583Y0066315D01*
X0384583Y0062378D01*
X0382614Y0062378D01*
X0382614Y0059622D01*
X0384583Y0059622D01*
X0384583Y0055685D01*
X0378874Y0055685D01*
D16*
X0256217Y0097250D02*
X0253717Y0097250D01*
X0254967Y0097250D02*
X0254967Y0101750D01*
X0253717Y0100750D01*
X0250500Y0101750D02*
X0250569Y0101748D01*
X0250638Y0101742D01*
X0250706Y0101733D01*
X0250773Y0101720D01*
X0250840Y0101703D01*
X0250906Y0101682D01*
X0250970Y0101658D01*
X0251033Y0101630D01*
X0251095Y0101599D01*
X0251155Y0101565D01*
X0251212Y0101527D01*
X0251268Y0101486D01*
X0251321Y0101443D01*
X0251372Y0101396D01*
X0251420Y0101347D01*
X0251465Y0101295D01*
X0251507Y0101240D01*
X0251546Y0101184D01*
X0251583Y0101125D01*
X0251615Y0101064D01*
X0251645Y0101002D01*
X0251671Y0100938D01*
X0251693Y0100873D01*
X0251712Y0100807D01*
X0251727Y0100740D01*
X0251738Y0100672D01*
X0251746Y0100603D01*
X0251750Y0100534D01*
X0251750Y0100466D01*
X0251746Y0100397D01*
X0251738Y0100328D01*
X0251727Y0100260D01*
X0251712Y0100193D01*
X0251693Y0100127D01*
X0251671Y0100062D01*
X0251645Y0099998D01*
X0251615Y0099936D01*
X0251583Y0099875D01*
X0251546Y0099816D01*
X0251507Y0099760D01*
X0251465Y0099705D01*
X0251420Y0099653D01*
X0251372Y0099604D01*
X0251321Y0099557D01*
X0251268Y0099514D01*
X0251212Y0099473D01*
X0251155Y0099435D01*
X0251095Y0099401D01*
X0251033Y0099370D01*
X0250970Y0099342D01*
X0250906Y0099318D01*
X0250840Y0099297D01*
X0250773Y0099280D01*
X0250706Y0099267D01*
X0250638Y0099258D01*
X0250569Y0099252D01*
X0250500Y0099250D01*
X0249250Y0099250D01*
X0250750Y0099250D02*
X0251750Y0097250D01*
X0249250Y0097250D02*
X0249250Y0101750D01*
X0250500Y0101750D01*
X0211217Y0118500D02*
X0211217Y0118750D01*
X0211215Y0118810D01*
X0211210Y0118871D01*
X0211201Y0118930D01*
X0211188Y0118989D01*
X0211172Y0119048D01*
X0211152Y0119105D01*
X0211129Y0119160D01*
X0211102Y0119215D01*
X0211073Y0119267D01*
X0211040Y0119318D01*
X0211004Y0119367D01*
X0210966Y0119413D01*
X0210924Y0119457D01*
X0210880Y0119499D01*
X0210834Y0119537D01*
X0210785Y0119573D01*
X0210734Y0119606D01*
X0210682Y0119635D01*
X0210627Y0119662D01*
X0210572Y0119685D01*
X0210515Y0119705D01*
X0210456Y0119721D01*
X0210397Y0119734D01*
X0210338Y0119743D01*
X0210277Y0119748D01*
X0210217Y0119750D01*
X0208717Y0119750D01*
X0208717Y0118500D01*
X0208719Y0118431D01*
X0208725Y0118362D01*
X0208734Y0118294D01*
X0208747Y0118227D01*
X0208764Y0118160D01*
X0208785Y0118094D01*
X0208809Y0118030D01*
X0208837Y0117967D01*
X0208868Y0117905D01*
X0208902Y0117845D01*
X0208940Y0117788D01*
X0208981Y0117732D01*
X0209024Y0117679D01*
X0209071Y0117628D01*
X0209120Y0117580D01*
X0209172Y0117535D01*
X0209227Y0117493D01*
X0209283Y0117454D01*
X0209342Y0117417D01*
X0209403Y0117385D01*
X0209465Y0117355D01*
X0209529Y0117329D01*
X0209594Y0117307D01*
X0209660Y0117288D01*
X0209727Y0117273D01*
X0209795Y0117262D01*
X0209864Y0117254D01*
X0209933Y0117250D01*
X0210001Y0117250D01*
X0210070Y0117254D01*
X0210139Y0117262D01*
X0210207Y0117273D01*
X0210274Y0117288D01*
X0210340Y0117307D01*
X0210405Y0117329D01*
X0210469Y0117355D01*
X0210531Y0117385D01*
X0210592Y0117417D01*
X0210651Y0117454D01*
X0210707Y0117493D01*
X0210762Y0117535D01*
X0210814Y0117580D01*
X0210863Y0117628D01*
X0210910Y0117679D01*
X0210953Y0117732D01*
X0210994Y0117788D01*
X0211032Y0117845D01*
X0211066Y0117905D01*
X0211097Y0117967D01*
X0211125Y0118030D01*
X0211149Y0118094D01*
X0211170Y0118160D01*
X0211187Y0118227D01*
X0211200Y0118294D01*
X0211209Y0118362D01*
X0211215Y0118431D01*
X0211217Y0118500D01*
X0208717Y0119750D02*
X0208719Y0119837D01*
X0208725Y0119924D01*
X0208734Y0120011D01*
X0208747Y0120097D01*
X0208764Y0120183D01*
X0208785Y0120268D01*
X0208810Y0120351D01*
X0208838Y0120434D01*
X0208869Y0120515D01*
X0208904Y0120595D01*
X0208943Y0120673D01*
X0208985Y0120750D01*
X0209030Y0120825D01*
X0209079Y0120897D01*
X0209130Y0120968D01*
X0209185Y0121036D01*
X0209242Y0121101D01*
X0209303Y0121164D01*
X0209366Y0121225D01*
X0209431Y0121282D01*
X0209499Y0121337D01*
X0209570Y0121388D01*
X0209642Y0121437D01*
X0209717Y0121482D01*
X0209794Y0121524D01*
X0209872Y0121563D01*
X0209952Y0121598D01*
X0210033Y0121629D01*
X0210116Y0121657D01*
X0210199Y0121682D01*
X0210284Y0121703D01*
X0210370Y0121720D01*
X0210456Y0121733D01*
X0210543Y0121742D01*
X0210630Y0121748D01*
X0210717Y0121750D01*
X0205750Y0119250D02*
X0206750Y0117250D01*
X0205500Y0119250D02*
X0204250Y0119250D01*
X0205500Y0119250D02*
X0205569Y0119252D01*
X0205638Y0119258D01*
X0205706Y0119267D01*
X0205773Y0119280D01*
X0205840Y0119297D01*
X0205906Y0119318D01*
X0205970Y0119342D01*
X0206033Y0119370D01*
X0206095Y0119401D01*
X0206155Y0119435D01*
X0206212Y0119473D01*
X0206268Y0119514D01*
X0206321Y0119557D01*
X0206372Y0119604D01*
X0206420Y0119653D01*
X0206465Y0119705D01*
X0206507Y0119760D01*
X0206546Y0119816D01*
X0206583Y0119875D01*
X0206615Y0119936D01*
X0206645Y0119998D01*
X0206671Y0120062D01*
X0206693Y0120127D01*
X0206712Y0120193D01*
X0206727Y0120260D01*
X0206738Y0120328D01*
X0206746Y0120397D01*
X0206750Y0120466D01*
X0206750Y0120534D01*
X0206746Y0120603D01*
X0206738Y0120672D01*
X0206727Y0120740D01*
X0206712Y0120807D01*
X0206693Y0120873D01*
X0206671Y0120938D01*
X0206645Y0121002D01*
X0206615Y0121064D01*
X0206583Y0121125D01*
X0206546Y0121184D01*
X0206507Y0121240D01*
X0206465Y0121295D01*
X0206420Y0121347D01*
X0206372Y0121396D01*
X0206321Y0121443D01*
X0206268Y0121486D01*
X0206212Y0121527D01*
X0206155Y0121565D01*
X0206095Y0121599D01*
X0206033Y0121630D01*
X0205970Y0121658D01*
X0205906Y0121682D01*
X0205840Y0121703D01*
X0205773Y0121720D01*
X0205706Y0121733D01*
X0205638Y0121742D01*
X0205569Y0121748D01*
X0205500Y0121750D01*
X0204250Y0121750D01*
X0204250Y0117250D01*
X0186217Y0100625D02*
X0186215Y0100690D01*
X0186209Y0100756D01*
X0186200Y0100820D01*
X0186187Y0100884D01*
X0186170Y0100948D01*
X0186149Y0101010D01*
X0186125Y0101071D01*
X0186097Y0101130D01*
X0186066Y0101188D01*
X0186032Y0101243D01*
X0185994Y0101297D01*
X0185954Y0101348D01*
X0185910Y0101397D01*
X0185864Y0101443D01*
X0185815Y0101487D01*
X0185764Y0101527D01*
X0185710Y0101565D01*
X0185655Y0101599D01*
X0185597Y0101630D01*
X0185538Y0101658D01*
X0185477Y0101682D01*
X0185415Y0101703D01*
X0185351Y0101720D01*
X0185287Y0101733D01*
X0185223Y0101742D01*
X0185157Y0101748D01*
X0185092Y0101750D01*
X0186217Y0100625D02*
X0186215Y0100560D01*
X0186210Y0100495D01*
X0186201Y0100430D01*
X0186189Y0100366D01*
X0186173Y0100303D01*
X0186154Y0100241D01*
X0186132Y0100179D01*
X0186106Y0100119D01*
X0186077Y0100061D01*
X0186045Y0100004D01*
X0186010Y0099949D01*
X0185972Y0099896D01*
X0185932Y0099845D01*
X0185888Y0099796D01*
X0185842Y0099750D01*
X0183717Y0097250D01*
X0186217Y0097250D01*
X0183717Y0100750D02*
X0183741Y0100819D01*
X0183769Y0100886D01*
X0183800Y0100952D01*
X0183834Y0101016D01*
X0183871Y0101078D01*
X0183912Y0101139D01*
X0183955Y0101197D01*
X0184001Y0101253D01*
X0184051Y0101307D01*
X0184102Y0101358D01*
X0184156Y0101406D01*
X0184213Y0101452D01*
X0184272Y0101495D01*
X0184333Y0101534D01*
X0184395Y0101571D01*
X0184460Y0101604D01*
X0184526Y0101635D01*
X0184594Y0101661D01*
X0184662Y0101685D01*
X0184732Y0101705D01*
X0184803Y0101721D01*
X0184875Y0101734D01*
X0184947Y0101743D01*
X0185019Y0101748D01*
X0185092Y0101750D01*
X0180500Y0101750D02*
X0179250Y0101750D01*
X0179250Y0097250D01*
X0179250Y0099250D02*
X0180500Y0099250D01*
X0180750Y0099250D02*
X0181750Y0097250D01*
X0180500Y0099250D02*
X0180569Y0099252D01*
X0180638Y0099258D01*
X0180706Y0099267D01*
X0180773Y0099280D01*
X0180840Y0099297D01*
X0180906Y0099318D01*
X0180970Y0099342D01*
X0181033Y0099370D01*
X0181095Y0099401D01*
X0181155Y0099435D01*
X0181212Y0099473D01*
X0181268Y0099514D01*
X0181321Y0099557D01*
X0181372Y0099604D01*
X0181420Y0099653D01*
X0181465Y0099705D01*
X0181507Y0099760D01*
X0181546Y0099816D01*
X0181583Y0099875D01*
X0181615Y0099936D01*
X0181645Y0099998D01*
X0181671Y0100062D01*
X0181693Y0100127D01*
X0181712Y0100193D01*
X0181727Y0100260D01*
X0181738Y0100328D01*
X0181746Y0100397D01*
X0181750Y0100466D01*
X0181750Y0100534D01*
X0181746Y0100603D01*
X0181738Y0100672D01*
X0181727Y0100740D01*
X0181712Y0100807D01*
X0181693Y0100873D01*
X0181671Y0100938D01*
X0181645Y0101002D01*
X0181615Y0101064D01*
X0181583Y0101125D01*
X0181546Y0101184D01*
X0181507Y0101240D01*
X0181465Y0101295D01*
X0181420Y0101347D01*
X0181372Y0101396D01*
X0181321Y0101443D01*
X0181268Y0101486D01*
X0181212Y0101527D01*
X0181155Y0101565D01*
X0181095Y0101599D01*
X0181033Y0101630D01*
X0180970Y0101658D01*
X0180906Y0101682D01*
X0180840Y0101703D01*
X0180773Y0101720D01*
X0180706Y0101733D01*
X0180638Y0101742D01*
X0180569Y0101748D01*
X0180500Y0101750D01*
X0134967Y0117250D02*
X0136217Y0121750D01*
X0133717Y0121750D01*
X0133717Y0121250D01*
X0130500Y0121750D02*
X0129250Y0121750D01*
X0129250Y0117250D01*
X0129250Y0119250D02*
X0130500Y0119250D01*
X0130750Y0119250D02*
X0131750Y0117250D01*
X0130500Y0119250D02*
X0130569Y0119252D01*
X0130638Y0119258D01*
X0130706Y0119267D01*
X0130773Y0119280D01*
X0130840Y0119297D01*
X0130906Y0119318D01*
X0130970Y0119342D01*
X0131033Y0119370D01*
X0131095Y0119401D01*
X0131155Y0119435D01*
X0131212Y0119473D01*
X0131268Y0119514D01*
X0131321Y0119557D01*
X0131372Y0119604D01*
X0131420Y0119653D01*
X0131465Y0119705D01*
X0131507Y0119760D01*
X0131546Y0119816D01*
X0131583Y0119875D01*
X0131615Y0119936D01*
X0131645Y0119998D01*
X0131671Y0120062D01*
X0131693Y0120127D01*
X0131712Y0120193D01*
X0131727Y0120260D01*
X0131738Y0120328D01*
X0131746Y0120397D01*
X0131750Y0120466D01*
X0131750Y0120534D01*
X0131746Y0120603D01*
X0131738Y0120672D01*
X0131727Y0120740D01*
X0131712Y0120807D01*
X0131693Y0120873D01*
X0131671Y0120938D01*
X0131645Y0121002D01*
X0131615Y0121064D01*
X0131583Y0121125D01*
X0131546Y0121184D01*
X0131507Y0121240D01*
X0131465Y0121295D01*
X0131420Y0121347D01*
X0131372Y0121396D01*
X0131321Y0121443D01*
X0131268Y0121486D01*
X0131212Y0121527D01*
X0131155Y0121565D01*
X0131095Y0121599D01*
X0131033Y0121630D01*
X0130970Y0121658D01*
X0130906Y0121682D01*
X0130840Y0121703D01*
X0130773Y0121720D01*
X0130706Y0121733D01*
X0130638Y0121742D01*
X0130569Y0121748D01*
X0130500Y0121750D01*
X0125217Y0101750D02*
X0123717Y0101750D01*
X0125217Y0101750D02*
X0125279Y0101748D01*
X0125340Y0101742D01*
X0125401Y0101733D01*
X0125461Y0101720D01*
X0125520Y0101703D01*
X0125578Y0101682D01*
X0125635Y0101658D01*
X0125690Y0101631D01*
X0125743Y0101600D01*
X0125795Y0101566D01*
X0125844Y0101529D01*
X0125891Y0101489D01*
X0125935Y0101446D01*
X0125976Y0101401D01*
X0126015Y0101353D01*
X0126051Y0101302D01*
X0126083Y0101250D01*
X0126112Y0101196D01*
X0126138Y0101140D01*
X0126160Y0101082D01*
X0126179Y0101024D01*
X0126194Y0100964D01*
X0126205Y0100903D01*
X0126213Y0100842D01*
X0126217Y0100781D01*
X0126217Y0100719D01*
X0126213Y0100658D01*
X0126205Y0100597D01*
X0126194Y0100536D01*
X0126179Y0100476D01*
X0126160Y0100418D01*
X0126138Y0100360D01*
X0126112Y0100304D01*
X0126083Y0100250D01*
X0126051Y0100198D01*
X0126015Y0100147D01*
X0125976Y0100099D01*
X0125935Y0100054D01*
X0125891Y0100011D01*
X0125844Y0099971D01*
X0125795Y0099934D01*
X0125743Y0099900D01*
X0125690Y0099869D01*
X0125635Y0099842D01*
X0125578Y0099818D01*
X0125520Y0099797D01*
X0125461Y0099780D01*
X0125401Y0099767D01*
X0125340Y0099758D01*
X0125279Y0099752D01*
X0125217Y0099750D01*
X0124217Y0099750D01*
X0124967Y0099750D02*
X0125036Y0099748D01*
X0125105Y0099742D01*
X0125173Y0099733D01*
X0125240Y0099720D01*
X0125307Y0099703D01*
X0125373Y0099682D01*
X0125437Y0099658D01*
X0125500Y0099630D01*
X0125562Y0099599D01*
X0125622Y0099565D01*
X0125679Y0099527D01*
X0125735Y0099486D01*
X0125788Y0099443D01*
X0125839Y0099396D01*
X0125887Y0099347D01*
X0125932Y0099295D01*
X0125974Y0099240D01*
X0126013Y0099184D01*
X0126050Y0099125D01*
X0126082Y0099064D01*
X0126112Y0099002D01*
X0126138Y0098938D01*
X0126160Y0098873D01*
X0126179Y0098807D01*
X0126194Y0098740D01*
X0126205Y0098672D01*
X0126213Y0098603D01*
X0126217Y0098534D01*
X0126217Y0098466D01*
X0126213Y0098397D01*
X0126205Y0098328D01*
X0126194Y0098260D01*
X0126179Y0098193D01*
X0126160Y0098127D01*
X0126138Y0098062D01*
X0126112Y0097998D01*
X0126082Y0097936D01*
X0126050Y0097875D01*
X0126013Y0097816D01*
X0125974Y0097760D01*
X0125932Y0097705D01*
X0125887Y0097653D01*
X0125839Y0097604D01*
X0125788Y0097557D01*
X0125735Y0097514D01*
X0125679Y0097473D01*
X0125622Y0097435D01*
X0125562Y0097401D01*
X0125500Y0097370D01*
X0125437Y0097342D01*
X0125373Y0097318D01*
X0125307Y0097297D01*
X0125240Y0097280D01*
X0125173Y0097267D01*
X0125105Y0097258D01*
X0125036Y0097252D01*
X0124967Y0097250D01*
X0123717Y0097250D01*
X0121750Y0097250D02*
X0120750Y0099250D01*
X0120500Y0099250D02*
X0119250Y0099250D01*
X0120500Y0099250D02*
X0120569Y0099252D01*
X0120638Y0099258D01*
X0120706Y0099267D01*
X0120773Y0099280D01*
X0120840Y0099297D01*
X0120906Y0099318D01*
X0120970Y0099342D01*
X0121033Y0099370D01*
X0121095Y0099401D01*
X0121155Y0099435D01*
X0121212Y0099473D01*
X0121268Y0099514D01*
X0121321Y0099557D01*
X0121372Y0099604D01*
X0121420Y0099653D01*
X0121465Y0099705D01*
X0121507Y0099760D01*
X0121546Y0099816D01*
X0121583Y0099875D01*
X0121615Y0099936D01*
X0121645Y0099998D01*
X0121671Y0100062D01*
X0121693Y0100127D01*
X0121712Y0100193D01*
X0121727Y0100260D01*
X0121738Y0100328D01*
X0121746Y0100397D01*
X0121750Y0100466D01*
X0121750Y0100534D01*
X0121746Y0100603D01*
X0121738Y0100672D01*
X0121727Y0100740D01*
X0121712Y0100807D01*
X0121693Y0100873D01*
X0121671Y0100938D01*
X0121645Y0101002D01*
X0121615Y0101064D01*
X0121583Y0101125D01*
X0121546Y0101184D01*
X0121507Y0101240D01*
X0121465Y0101295D01*
X0121420Y0101347D01*
X0121372Y0101396D01*
X0121321Y0101443D01*
X0121268Y0101486D01*
X0121212Y0101527D01*
X0121155Y0101565D01*
X0121095Y0101599D01*
X0121033Y0101630D01*
X0120970Y0101658D01*
X0120906Y0101682D01*
X0120840Y0101703D01*
X0120773Y0101720D01*
X0120706Y0101733D01*
X0120638Y0101742D01*
X0120569Y0101748D01*
X0120500Y0101750D01*
X0119250Y0101750D01*
X0119250Y0097250D01*
X0096750Y0137250D02*
X0095750Y0139250D01*
X0095500Y0139250D02*
X0094250Y0139250D01*
X0095500Y0139250D02*
X0095569Y0139252D01*
X0095638Y0139258D01*
X0095706Y0139267D01*
X0095773Y0139280D01*
X0095840Y0139297D01*
X0095906Y0139318D01*
X0095970Y0139342D01*
X0096033Y0139370D01*
X0096095Y0139401D01*
X0096155Y0139435D01*
X0096212Y0139473D01*
X0096268Y0139514D01*
X0096321Y0139557D01*
X0096372Y0139604D01*
X0096420Y0139653D01*
X0096465Y0139705D01*
X0096507Y0139760D01*
X0096546Y0139816D01*
X0096583Y0139875D01*
X0096615Y0139936D01*
X0096645Y0139998D01*
X0096671Y0140062D01*
X0096693Y0140127D01*
X0096712Y0140193D01*
X0096727Y0140260D01*
X0096738Y0140328D01*
X0096746Y0140397D01*
X0096750Y0140466D01*
X0096750Y0140534D01*
X0096746Y0140603D01*
X0096738Y0140672D01*
X0096727Y0140740D01*
X0096712Y0140807D01*
X0096693Y0140873D01*
X0096671Y0140938D01*
X0096645Y0141002D01*
X0096615Y0141064D01*
X0096583Y0141125D01*
X0096546Y0141184D01*
X0096507Y0141240D01*
X0096465Y0141295D01*
X0096420Y0141347D01*
X0096372Y0141396D01*
X0096321Y0141443D01*
X0096268Y0141486D01*
X0096212Y0141527D01*
X0096155Y0141565D01*
X0096095Y0141599D01*
X0096033Y0141630D01*
X0095970Y0141658D01*
X0095906Y0141682D01*
X0095840Y0141703D01*
X0095773Y0141720D01*
X0095706Y0141733D01*
X0095638Y0141742D01*
X0095569Y0141748D01*
X0095500Y0141750D01*
X0094250Y0141750D01*
X0094250Y0137250D01*
X0098717Y0140250D02*
X0098717Y0140500D01*
X0098717Y0140250D02*
X0098719Y0140190D01*
X0098724Y0140129D01*
X0098733Y0140070D01*
X0098746Y0140011D01*
X0098762Y0139952D01*
X0098782Y0139895D01*
X0098805Y0139840D01*
X0098832Y0139785D01*
X0098861Y0139733D01*
X0098894Y0139682D01*
X0098930Y0139633D01*
X0098968Y0139587D01*
X0099010Y0139543D01*
X0099054Y0139501D01*
X0099100Y0139463D01*
X0099149Y0139427D01*
X0099200Y0139394D01*
X0099252Y0139365D01*
X0099307Y0139338D01*
X0099362Y0139315D01*
X0099419Y0139295D01*
X0099478Y0139279D01*
X0099537Y0139266D01*
X0099596Y0139257D01*
X0099657Y0139252D01*
X0099717Y0139250D01*
X0101217Y0139250D01*
X0101217Y0140500D01*
X0101215Y0140569D01*
X0101209Y0140638D01*
X0101200Y0140706D01*
X0101187Y0140773D01*
X0101170Y0140840D01*
X0101149Y0140906D01*
X0101125Y0140970D01*
X0101097Y0141033D01*
X0101066Y0141095D01*
X0101032Y0141155D01*
X0100994Y0141212D01*
X0100953Y0141268D01*
X0100910Y0141321D01*
X0100863Y0141372D01*
X0100814Y0141420D01*
X0100762Y0141465D01*
X0100707Y0141507D01*
X0100651Y0141546D01*
X0100592Y0141583D01*
X0100531Y0141615D01*
X0100469Y0141645D01*
X0100405Y0141671D01*
X0100340Y0141693D01*
X0100274Y0141712D01*
X0100207Y0141727D01*
X0100139Y0141738D01*
X0100070Y0141746D01*
X0100001Y0141750D01*
X0099933Y0141750D01*
X0099864Y0141746D01*
X0099795Y0141738D01*
X0099727Y0141727D01*
X0099660Y0141712D01*
X0099594Y0141693D01*
X0099529Y0141671D01*
X0099465Y0141645D01*
X0099403Y0141615D01*
X0099342Y0141583D01*
X0099283Y0141546D01*
X0099227Y0141507D01*
X0099172Y0141465D01*
X0099120Y0141420D01*
X0099071Y0141372D01*
X0099024Y0141321D01*
X0098981Y0141268D01*
X0098940Y0141212D01*
X0098902Y0141155D01*
X0098868Y0141095D01*
X0098837Y0141033D01*
X0098809Y0140970D01*
X0098785Y0140906D01*
X0098764Y0140840D01*
X0098747Y0140773D01*
X0098734Y0140706D01*
X0098725Y0140638D01*
X0098719Y0140569D01*
X0098717Y0140500D01*
X0101217Y0139250D02*
X0101215Y0139163D01*
X0101209Y0139076D01*
X0101200Y0138989D01*
X0101187Y0138903D01*
X0101170Y0138817D01*
X0101149Y0138732D01*
X0101124Y0138649D01*
X0101096Y0138566D01*
X0101065Y0138485D01*
X0101030Y0138405D01*
X0100991Y0138327D01*
X0100949Y0138250D01*
X0100904Y0138175D01*
X0100855Y0138103D01*
X0100804Y0138032D01*
X0100749Y0137964D01*
X0100692Y0137899D01*
X0100631Y0137836D01*
X0100568Y0137775D01*
X0100503Y0137718D01*
X0100435Y0137663D01*
X0100364Y0137612D01*
X0100292Y0137563D01*
X0100217Y0137518D01*
X0100140Y0137476D01*
X0100062Y0137437D01*
X0099982Y0137402D01*
X0099901Y0137371D01*
X0099818Y0137343D01*
X0099735Y0137318D01*
X0099650Y0137297D01*
X0099564Y0137280D01*
X0099478Y0137267D01*
X0099391Y0137258D01*
X0099304Y0137252D01*
X0099217Y0137250D01*
X0065967Y0120750D02*
X0065965Y0120688D01*
X0065959Y0120627D01*
X0065950Y0120566D01*
X0065937Y0120506D01*
X0065920Y0120447D01*
X0065899Y0120389D01*
X0065875Y0120332D01*
X0065848Y0120277D01*
X0065817Y0120224D01*
X0065783Y0120172D01*
X0065746Y0120123D01*
X0065706Y0120076D01*
X0065663Y0120032D01*
X0065618Y0119991D01*
X0065570Y0119952D01*
X0065519Y0119916D01*
X0065467Y0119884D01*
X0065413Y0119855D01*
X0065357Y0119829D01*
X0065299Y0119807D01*
X0065241Y0119788D01*
X0065181Y0119773D01*
X0065120Y0119762D01*
X0065059Y0119754D01*
X0064998Y0119750D01*
X0064936Y0119750D01*
X0064875Y0119754D01*
X0064814Y0119762D01*
X0064753Y0119773D01*
X0064693Y0119788D01*
X0064635Y0119807D01*
X0064577Y0119829D01*
X0064521Y0119855D01*
X0064467Y0119884D01*
X0064415Y0119916D01*
X0064364Y0119952D01*
X0064316Y0119991D01*
X0064271Y0120032D01*
X0064228Y0120076D01*
X0064188Y0120123D01*
X0064151Y0120172D01*
X0064117Y0120224D01*
X0064086Y0120277D01*
X0064059Y0120332D01*
X0064035Y0120389D01*
X0064014Y0120447D01*
X0063997Y0120506D01*
X0063984Y0120566D01*
X0063975Y0120627D01*
X0063969Y0120688D01*
X0063967Y0120750D01*
X0063969Y0120812D01*
X0063975Y0120873D01*
X0063984Y0120934D01*
X0063997Y0120994D01*
X0064014Y0121053D01*
X0064035Y0121111D01*
X0064059Y0121168D01*
X0064086Y0121223D01*
X0064117Y0121276D01*
X0064151Y0121328D01*
X0064188Y0121377D01*
X0064228Y0121424D01*
X0064271Y0121468D01*
X0064316Y0121509D01*
X0064364Y0121548D01*
X0064415Y0121584D01*
X0064467Y0121616D01*
X0064521Y0121645D01*
X0064577Y0121671D01*
X0064635Y0121693D01*
X0064693Y0121712D01*
X0064753Y0121727D01*
X0064814Y0121738D01*
X0064875Y0121746D01*
X0064936Y0121750D01*
X0064998Y0121750D01*
X0065059Y0121746D01*
X0065120Y0121738D01*
X0065181Y0121727D01*
X0065241Y0121712D01*
X0065299Y0121693D01*
X0065357Y0121671D01*
X0065413Y0121645D01*
X0065467Y0121616D01*
X0065519Y0121584D01*
X0065570Y0121548D01*
X0065618Y0121509D01*
X0065663Y0121468D01*
X0065706Y0121424D01*
X0065746Y0121377D01*
X0065783Y0121328D01*
X0065817Y0121276D01*
X0065848Y0121223D01*
X0065875Y0121168D01*
X0065899Y0121111D01*
X0065920Y0121053D01*
X0065937Y0120994D01*
X0065950Y0120934D01*
X0065959Y0120873D01*
X0065965Y0120812D01*
X0065967Y0120750D01*
X0066217Y0118500D02*
X0066215Y0118431D01*
X0066209Y0118362D01*
X0066200Y0118294D01*
X0066187Y0118227D01*
X0066170Y0118160D01*
X0066149Y0118094D01*
X0066125Y0118030D01*
X0066097Y0117967D01*
X0066066Y0117905D01*
X0066032Y0117845D01*
X0065994Y0117788D01*
X0065953Y0117732D01*
X0065910Y0117679D01*
X0065863Y0117628D01*
X0065814Y0117580D01*
X0065762Y0117535D01*
X0065707Y0117493D01*
X0065651Y0117454D01*
X0065592Y0117417D01*
X0065531Y0117385D01*
X0065469Y0117355D01*
X0065405Y0117329D01*
X0065340Y0117307D01*
X0065274Y0117288D01*
X0065207Y0117273D01*
X0065139Y0117262D01*
X0065070Y0117254D01*
X0065001Y0117250D01*
X0064933Y0117250D01*
X0064864Y0117254D01*
X0064795Y0117262D01*
X0064727Y0117273D01*
X0064660Y0117288D01*
X0064594Y0117307D01*
X0064529Y0117329D01*
X0064465Y0117355D01*
X0064403Y0117385D01*
X0064342Y0117417D01*
X0064283Y0117454D01*
X0064227Y0117493D01*
X0064172Y0117535D01*
X0064120Y0117580D01*
X0064071Y0117628D01*
X0064024Y0117679D01*
X0063981Y0117732D01*
X0063940Y0117788D01*
X0063902Y0117845D01*
X0063868Y0117905D01*
X0063837Y0117967D01*
X0063809Y0118030D01*
X0063785Y0118094D01*
X0063764Y0118160D01*
X0063747Y0118227D01*
X0063734Y0118294D01*
X0063725Y0118362D01*
X0063719Y0118431D01*
X0063717Y0118500D01*
X0063719Y0118569D01*
X0063725Y0118638D01*
X0063734Y0118706D01*
X0063747Y0118773D01*
X0063764Y0118840D01*
X0063785Y0118906D01*
X0063809Y0118970D01*
X0063837Y0119033D01*
X0063868Y0119095D01*
X0063902Y0119155D01*
X0063940Y0119212D01*
X0063981Y0119268D01*
X0064024Y0119321D01*
X0064071Y0119372D01*
X0064120Y0119420D01*
X0064172Y0119465D01*
X0064227Y0119507D01*
X0064283Y0119546D01*
X0064342Y0119583D01*
X0064403Y0119615D01*
X0064465Y0119645D01*
X0064529Y0119671D01*
X0064594Y0119693D01*
X0064660Y0119712D01*
X0064727Y0119727D01*
X0064795Y0119738D01*
X0064864Y0119746D01*
X0064933Y0119750D01*
X0065001Y0119750D01*
X0065070Y0119746D01*
X0065139Y0119738D01*
X0065207Y0119727D01*
X0065274Y0119712D01*
X0065340Y0119693D01*
X0065405Y0119671D01*
X0065469Y0119645D01*
X0065531Y0119615D01*
X0065592Y0119583D01*
X0065651Y0119546D01*
X0065707Y0119507D01*
X0065762Y0119465D01*
X0065814Y0119420D01*
X0065863Y0119372D01*
X0065910Y0119321D01*
X0065953Y0119268D01*
X0065994Y0119212D01*
X0066032Y0119155D01*
X0066066Y0119095D01*
X0066097Y0119033D01*
X0066125Y0118970D01*
X0066149Y0118906D01*
X0066170Y0118840D01*
X0066187Y0118773D01*
X0066200Y0118706D01*
X0066209Y0118638D01*
X0066215Y0118569D01*
X0066217Y0118500D01*
X0061750Y0117250D02*
X0060750Y0119250D01*
X0060500Y0119250D02*
X0059250Y0119250D01*
X0060500Y0119250D02*
X0060569Y0119252D01*
X0060638Y0119258D01*
X0060706Y0119267D01*
X0060773Y0119280D01*
X0060840Y0119297D01*
X0060906Y0119318D01*
X0060970Y0119342D01*
X0061033Y0119370D01*
X0061095Y0119401D01*
X0061155Y0119435D01*
X0061212Y0119473D01*
X0061268Y0119514D01*
X0061321Y0119557D01*
X0061372Y0119604D01*
X0061420Y0119653D01*
X0061465Y0119705D01*
X0061507Y0119760D01*
X0061546Y0119816D01*
X0061583Y0119875D01*
X0061615Y0119936D01*
X0061645Y0119998D01*
X0061671Y0120062D01*
X0061693Y0120127D01*
X0061712Y0120193D01*
X0061727Y0120260D01*
X0061738Y0120328D01*
X0061746Y0120397D01*
X0061750Y0120466D01*
X0061750Y0120534D01*
X0061746Y0120603D01*
X0061738Y0120672D01*
X0061727Y0120740D01*
X0061712Y0120807D01*
X0061693Y0120873D01*
X0061671Y0120938D01*
X0061645Y0121002D01*
X0061615Y0121064D01*
X0061583Y0121125D01*
X0061546Y0121184D01*
X0061507Y0121240D01*
X0061465Y0121295D01*
X0061420Y0121347D01*
X0061372Y0121396D01*
X0061321Y0121443D01*
X0061268Y0121486D01*
X0061212Y0121527D01*
X0061155Y0121565D01*
X0061095Y0121599D01*
X0061033Y0121630D01*
X0060970Y0121658D01*
X0060906Y0121682D01*
X0060840Y0121703D01*
X0060773Y0121720D01*
X0060706Y0121733D01*
X0060638Y0121742D01*
X0060569Y0121748D01*
X0060500Y0121750D01*
X0059250Y0121750D01*
X0059250Y0117250D01*
X0059250Y0101750D02*
X0060500Y0101750D01*
X0060569Y0101748D01*
X0060638Y0101742D01*
X0060706Y0101733D01*
X0060773Y0101720D01*
X0060840Y0101703D01*
X0060906Y0101682D01*
X0060970Y0101658D01*
X0061033Y0101630D01*
X0061095Y0101599D01*
X0061155Y0101565D01*
X0061212Y0101527D01*
X0061268Y0101486D01*
X0061321Y0101443D01*
X0061372Y0101396D01*
X0061420Y0101347D01*
X0061465Y0101295D01*
X0061507Y0101240D01*
X0061546Y0101184D01*
X0061583Y0101125D01*
X0061615Y0101064D01*
X0061645Y0101002D01*
X0061671Y0100938D01*
X0061693Y0100873D01*
X0061712Y0100807D01*
X0061727Y0100740D01*
X0061738Y0100672D01*
X0061746Y0100603D01*
X0061750Y0100534D01*
X0061750Y0100466D01*
X0061746Y0100397D01*
X0061738Y0100328D01*
X0061727Y0100260D01*
X0061712Y0100193D01*
X0061693Y0100127D01*
X0061671Y0100062D01*
X0061645Y0099998D01*
X0061615Y0099936D01*
X0061583Y0099875D01*
X0061546Y0099816D01*
X0061507Y0099760D01*
X0061465Y0099705D01*
X0061420Y0099653D01*
X0061372Y0099604D01*
X0061321Y0099557D01*
X0061268Y0099514D01*
X0061212Y0099473D01*
X0061155Y0099435D01*
X0061095Y0099401D01*
X0061033Y0099370D01*
X0060970Y0099342D01*
X0060906Y0099318D01*
X0060840Y0099297D01*
X0060773Y0099280D01*
X0060706Y0099267D01*
X0060638Y0099258D01*
X0060569Y0099252D01*
X0060500Y0099250D01*
X0059250Y0099250D01*
X0060750Y0099250D02*
X0061750Y0097250D01*
X0063717Y0098250D02*
X0064717Y0101750D01*
X0065467Y0099250D02*
X0065467Y0097250D01*
X0066217Y0098250D02*
X0063717Y0098250D01*
X0059250Y0097250D02*
X0059250Y0101750D01*
X0169250Y0212750D02*
X0170250Y0212750D01*
X0169750Y0212750D02*
X0169750Y0217250D01*
X0169250Y0217250D02*
X0170250Y0217250D01*
X0172085Y0216250D02*
X0172085Y0213750D01*
X0172087Y0213690D01*
X0172092Y0213629D01*
X0172101Y0213570D01*
X0172114Y0213511D01*
X0172130Y0213452D01*
X0172150Y0213395D01*
X0172173Y0213340D01*
X0172200Y0213285D01*
X0172229Y0213233D01*
X0172262Y0213182D01*
X0172298Y0213133D01*
X0172336Y0213087D01*
X0172378Y0213043D01*
X0172422Y0213001D01*
X0172468Y0212963D01*
X0172517Y0212927D01*
X0172568Y0212894D01*
X0172620Y0212865D01*
X0172675Y0212838D01*
X0172730Y0212815D01*
X0172787Y0212795D01*
X0172846Y0212779D01*
X0172905Y0212766D01*
X0172964Y0212757D01*
X0173025Y0212752D01*
X0173085Y0212750D01*
X0174085Y0212750D01*
X0175850Y0212750D02*
X0177100Y0212750D01*
X0177169Y0212752D01*
X0177238Y0212758D01*
X0177306Y0212767D01*
X0177373Y0212780D01*
X0177440Y0212797D01*
X0177506Y0212818D01*
X0177570Y0212842D01*
X0177633Y0212870D01*
X0177695Y0212901D01*
X0177755Y0212935D01*
X0177812Y0212973D01*
X0177868Y0213014D01*
X0177921Y0213057D01*
X0177972Y0213104D01*
X0178020Y0213153D01*
X0178065Y0213205D01*
X0178107Y0213260D01*
X0178146Y0213316D01*
X0178183Y0213375D01*
X0178215Y0213436D01*
X0178245Y0213498D01*
X0178271Y0213562D01*
X0178293Y0213627D01*
X0178312Y0213693D01*
X0178327Y0213760D01*
X0178338Y0213828D01*
X0178346Y0213897D01*
X0178350Y0213966D01*
X0178350Y0214034D01*
X0178346Y0214103D01*
X0178338Y0214172D01*
X0178327Y0214240D01*
X0178312Y0214307D01*
X0178293Y0214373D01*
X0178271Y0214438D01*
X0178245Y0214502D01*
X0178215Y0214564D01*
X0178183Y0214625D01*
X0178146Y0214684D01*
X0178107Y0214740D01*
X0178065Y0214795D01*
X0178020Y0214847D01*
X0177972Y0214896D01*
X0177921Y0214943D01*
X0177868Y0214986D01*
X0177812Y0215027D01*
X0177755Y0215065D01*
X0177695Y0215099D01*
X0177633Y0215130D01*
X0177570Y0215158D01*
X0177506Y0215182D01*
X0177440Y0215203D01*
X0177373Y0215220D01*
X0177306Y0215233D01*
X0177238Y0215242D01*
X0177169Y0215248D01*
X0177100Y0215250D01*
X0177350Y0215250D02*
X0176350Y0215250D01*
X0177350Y0215250D02*
X0177412Y0215252D01*
X0177473Y0215258D01*
X0177534Y0215267D01*
X0177594Y0215280D01*
X0177653Y0215297D01*
X0177711Y0215318D01*
X0177768Y0215342D01*
X0177823Y0215369D01*
X0177876Y0215400D01*
X0177928Y0215434D01*
X0177977Y0215471D01*
X0178024Y0215511D01*
X0178068Y0215554D01*
X0178109Y0215599D01*
X0178148Y0215647D01*
X0178184Y0215698D01*
X0178216Y0215750D01*
X0178245Y0215804D01*
X0178271Y0215860D01*
X0178293Y0215918D01*
X0178312Y0215976D01*
X0178327Y0216036D01*
X0178338Y0216097D01*
X0178346Y0216158D01*
X0178350Y0216219D01*
X0178350Y0216281D01*
X0178346Y0216342D01*
X0178338Y0216403D01*
X0178327Y0216464D01*
X0178312Y0216524D01*
X0178293Y0216582D01*
X0178271Y0216640D01*
X0178245Y0216696D01*
X0178216Y0216750D01*
X0178184Y0216802D01*
X0178148Y0216853D01*
X0178109Y0216901D01*
X0178068Y0216946D01*
X0178024Y0216989D01*
X0177977Y0217029D01*
X0177928Y0217066D01*
X0177876Y0217100D01*
X0177823Y0217131D01*
X0177768Y0217158D01*
X0177711Y0217182D01*
X0177653Y0217203D01*
X0177594Y0217220D01*
X0177534Y0217233D01*
X0177473Y0217242D01*
X0177412Y0217248D01*
X0177350Y0217250D01*
X0175850Y0217250D01*
X0174085Y0217250D02*
X0173085Y0217250D01*
X0173025Y0217248D01*
X0172964Y0217243D01*
X0172905Y0217234D01*
X0172846Y0217221D01*
X0172787Y0217205D01*
X0172730Y0217185D01*
X0172675Y0217162D01*
X0172620Y0217135D01*
X0172568Y0217106D01*
X0172517Y0217073D01*
X0172468Y0217037D01*
X0172422Y0216999D01*
X0172378Y0216957D01*
X0172336Y0216913D01*
X0172298Y0216867D01*
X0172262Y0216818D01*
X0172229Y0216767D01*
X0172200Y0216715D01*
X0172173Y0216660D01*
X0172150Y0216605D01*
X0172130Y0216548D01*
X0172114Y0216489D01*
X0172101Y0216430D01*
X0172092Y0216371D01*
X0172087Y0216310D01*
X0172085Y0216250D01*
X0152600Y0231250D02*
X0150100Y0231250D01*
X0151350Y0231250D02*
X0151350Y0235750D01*
X0150100Y0234750D01*
X0148350Y0235750D02*
X0146850Y0231250D01*
X0145350Y0235750D01*
X0141875Y0233875D02*
X0141823Y0233908D01*
X0141772Y0233944D01*
X0141724Y0233983D01*
X0141679Y0234025D01*
X0141636Y0234070D01*
X0141596Y0234118D01*
X0141559Y0234167D01*
X0141525Y0234219D01*
X0141494Y0234273D01*
X0141466Y0234329D01*
X0141442Y0234386D01*
X0141422Y0234445D01*
X0141405Y0234504D01*
X0141392Y0234565D01*
X0141383Y0234626D01*
X0141377Y0234688D01*
X0141375Y0234750D01*
X0141377Y0234810D01*
X0141382Y0234871D01*
X0141391Y0234930D01*
X0141404Y0234989D01*
X0141420Y0235048D01*
X0141440Y0235105D01*
X0141463Y0235160D01*
X0141490Y0235215D01*
X0141519Y0235267D01*
X0141552Y0235318D01*
X0141588Y0235367D01*
X0141626Y0235413D01*
X0141668Y0235457D01*
X0141712Y0235499D01*
X0141758Y0235537D01*
X0141807Y0235573D01*
X0141858Y0235606D01*
X0141910Y0235635D01*
X0141965Y0235662D01*
X0142020Y0235685D01*
X0142077Y0235705D01*
X0142136Y0235721D01*
X0142195Y0235734D01*
X0142254Y0235743D01*
X0142315Y0235748D01*
X0142375Y0235750D01*
X0142455Y0235748D01*
X0142536Y0235743D01*
X0142616Y0235734D01*
X0142695Y0235722D01*
X0142774Y0235707D01*
X0142852Y0235688D01*
X0142930Y0235666D01*
X0143006Y0235641D01*
X0143081Y0235612D01*
X0143155Y0235580D01*
X0143227Y0235545D01*
X0143298Y0235507D01*
X0143367Y0235466D01*
X0143435Y0235422D01*
X0143500Y0235375D01*
X0141250Y0231874D02*
X0141313Y0231813D01*
X0141378Y0231755D01*
X0141446Y0231699D01*
X0141517Y0231646D01*
X0141589Y0231597D01*
X0141663Y0231550D01*
X0141739Y0231506D01*
X0141817Y0231466D01*
X0141897Y0231429D01*
X0141978Y0231395D01*
X0142060Y0231365D01*
X0142144Y0231338D01*
X0142229Y0231314D01*
X0142314Y0231294D01*
X0142400Y0231278D01*
X0142487Y0231265D01*
X0142575Y0231256D01*
X0142662Y0231251D01*
X0142750Y0231249D01*
X0142750Y0231250D02*
X0142810Y0231252D01*
X0142871Y0231257D01*
X0142930Y0231266D01*
X0142989Y0231279D01*
X0143048Y0231295D01*
X0143105Y0231315D01*
X0143160Y0231338D01*
X0143215Y0231365D01*
X0143267Y0231394D01*
X0143318Y0231427D01*
X0143367Y0231463D01*
X0143413Y0231501D01*
X0143457Y0231543D01*
X0143499Y0231587D01*
X0143537Y0231633D01*
X0143573Y0231682D01*
X0143606Y0231733D01*
X0143635Y0231785D01*
X0143662Y0231840D01*
X0143685Y0231895D01*
X0143705Y0231952D01*
X0143721Y0232011D01*
X0143734Y0232070D01*
X0143743Y0232129D01*
X0143748Y0232190D01*
X0143750Y0232250D01*
X0143250Y0233125D02*
X0141875Y0233875D01*
X0143250Y0233125D02*
X0143302Y0233092D01*
X0143353Y0233056D01*
X0143401Y0233017D01*
X0143446Y0232975D01*
X0143489Y0232930D01*
X0143529Y0232882D01*
X0143566Y0232833D01*
X0143600Y0232781D01*
X0143631Y0232727D01*
X0143659Y0232671D01*
X0143683Y0232614D01*
X0143703Y0232555D01*
X0143720Y0232496D01*
X0143733Y0232435D01*
X0143742Y0232374D01*
X0143748Y0232312D01*
X0143750Y0232250D01*
X0158250Y0251250D02*
X0158250Y0253750D01*
X0158250Y0251250D02*
X0155750Y0253375D01*
X0153750Y0252625D02*
X0153752Y0252552D01*
X0153757Y0252480D01*
X0153766Y0252408D01*
X0153779Y0252336D01*
X0153795Y0252265D01*
X0153815Y0252195D01*
X0153839Y0252127D01*
X0153865Y0252059D01*
X0153896Y0251993D01*
X0153929Y0251928D01*
X0153966Y0251866D01*
X0154005Y0251805D01*
X0154048Y0251746D01*
X0154094Y0251689D01*
X0154142Y0251635D01*
X0154193Y0251584D01*
X0154247Y0251534D01*
X0154303Y0251488D01*
X0154361Y0251445D01*
X0154422Y0251404D01*
X0154484Y0251367D01*
X0154548Y0251333D01*
X0154614Y0251302D01*
X0154681Y0251274D01*
X0154750Y0251250D01*
X0155750Y0253375D02*
X0155704Y0253421D01*
X0155655Y0253465D01*
X0155604Y0253505D01*
X0155551Y0253543D01*
X0155496Y0253578D01*
X0155439Y0253610D01*
X0155381Y0253639D01*
X0155321Y0253665D01*
X0155259Y0253687D01*
X0155197Y0253706D01*
X0155134Y0253722D01*
X0155070Y0253734D01*
X0155005Y0253743D01*
X0154940Y0253748D01*
X0154875Y0253750D01*
X0154810Y0253748D01*
X0154744Y0253742D01*
X0154680Y0253733D01*
X0154616Y0253720D01*
X0154552Y0253703D01*
X0154490Y0253682D01*
X0154429Y0253658D01*
X0154370Y0253630D01*
X0154313Y0253599D01*
X0154257Y0253565D01*
X0154203Y0253527D01*
X0154152Y0253487D01*
X0154103Y0253443D01*
X0154057Y0253397D01*
X0154013Y0253348D01*
X0153973Y0253297D01*
X0153935Y0253243D01*
X0153901Y0253188D01*
X0153870Y0253130D01*
X0153842Y0253071D01*
X0153818Y0253010D01*
X0153797Y0252948D01*
X0153780Y0252884D01*
X0153767Y0252820D01*
X0153758Y0252756D01*
X0153752Y0252690D01*
X0153750Y0252625D01*
X0163750Y0252750D02*
X0163750Y0251250D01*
X0163750Y0252750D02*
X0163752Y0252812D01*
X0163758Y0252873D01*
X0163767Y0252934D01*
X0163780Y0252994D01*
X0163797Y0253053D01*
X0163818Y0253111D01*
X0163842Y0253168D01*
X0163869Y0253223D01*
X0163900Y0253276D01*
X0163934Y0253328D01*
X0163971Y0253377D01*
X0164011Y0253424D01*
X0164054Y0253468D01*
X0164099Y0253509D01*
X0164147Y0253548D01*
X0164198Y0253584D01*
X0164250Y0253616D01*
X0164304Y0253645D01*
X0164360Y0253671D01*
X0164418Y0253693D01*
X0164476Y0253712D01*
X0164536Y0253727D01*
X0164597Y0253738D01*
X0164658Y0253746D01*
X0164719Y0253750D01*
X0164781Y0253750D01*
X0164842Y0253746D01*
X0164903Y0253738D01*
X0164964Y0253727D01*
X0165024Y0253712D01*
X0165082Y0253693D01*
X0165140Y0253671D01*
X0165196Y0253645D01*
X0165250Y0253616D01*
X0165302Y0253584D01*
X0165353Y0253548D01*
X0165401Y0253509D01*
X0165446Y0253468D01*
X0165489Y0253424D01*
X0165529Y0253377D01*
X0165566Y0253328D01*
X0165600Y0253276D01*
X0165631Y0253223D01*
X0165658Y0253168D01*
X0165682Y0253111D01*
X0165703Y0253053D01*
X0165720Y0252994D01*
X0165733Y0252934D01*
X0165742Y0252873D01*
X0165748Y0252812D01*
X0165750Y0252750D01*
X0165750Y0251750D01*
X0165750Y0252500D02*
X0165752Y0252569D01*
X0165758Y0252638D01*
X0165767Y0252706D01*
X0165780Y0252773D01*
X0165797Y0252840D01*
X0165818Y0252906D01*
X0165842Y0252970D01*
X0165870Y0253033D01*
X0165901Y0253095D01*
X0165935Y0253155D01*
X0165973Y0253212D01*
X0166014Y0253268D01*
X0166057Y0253321D01*
X0166104Y0253372D01*
X0166153Y0253420D01*
X0166205Y0253465D01*
X0166260Y0253507D01*
X0166316Y0253546D01*
X0166375Y0253583D01*
X0166436Y0253615D01*
X0166498Y0253645D01*
X0166562Y0253671D01*
X0166627Y0253693D01*
X0166693Y0253712D01*
X0166760Y0253727D01*
X0166828Y0253738D01*
X0166897Y0253746D01*
X0166966Y0253750D01*
X0167034Y0253750D01*
X0167103Y0253746D01*
X0167172Y0253738D01*
X0167240Y0253727D01*
X0167307Y0253712D01*
X0167373Y0253693D01*
X0167438Y0253671D01*
X0167502Y0253645D01*
X0167564Y0253615D01*
X0167625Y0253583D01*
X0167684Y0253546D01*
X0167740Y0253507D01*
X0167795Y0253465D01*
X0167847Y0253420D01*
X0167896Y0253372D01*
X0167943Y0253321D01*
X0167986Y0253268D01*
X0168027Y0253212D01*
X0168065Y0253155D01*
X0168099Y0253095D01*
X0168130Y0253033D01*
X0168158Y0252970D01*
X0168182Y0252906D01*
X0168203Y0252840D01*
X0168220Y0252773D01*
X0168233Y0252706D01*
X0168242Y0252638D01*
X0168248Y0252569D01*
X0168250Y0252500D01*
X0168250Y0251250D01*
X0173750Y0252250D02*
X0177250Y0251250D01*
X0177250Y0253750D01*
X0176250Y0253000D02*
X0178250Y0253000D01*
X0183750Y0253750D02*
X0183750Y0251250D01*
X0185750Y0251250D01*
X0185750Y0252750D01*
X0185752Y0252810D01*
X0185757Y0252871D01*
X0185766Y0252930D01*
X0185779Y0252989D01*
X0185795Y0253048D01*
X0185815Y0253105D01*
X0185838Y0253160D01*
X0185865Y0253215D01*
X0185894Y0253267D01*
X0185927Y0253318D01*
X0185963Y0253367D01*
X0186001Y0253413D01*
X0186043Y0253457D01*
X0186087Y0253499D01*
X0186133Y0253537D01*
X0186182Y0253573D01*
X0186233Y0253606D01*
X0186285Y0253635D01*
X0186340Y0253662D01*
X0186395Y0253685D01*
X0186452Y0253705D01*
X0186511Y0253721D01*
X0186570Y0253734D01*
X0186629Y0253743D01*
X0186690Y0253748D01*
X0186750Y0253750D01*
X0187250Y0253750D01*
X0187310Y0253748D01*
X0187371Y0253743D01*
X0187430Y0253734D01*
X0187489Y0253721D01*
X0187548Y0253705D01*
X0187605Y0253685D01*
X0187660Y0253662D01*
X0187715Y0253635D01*
X0187767Y0253606D01*
X0187818Y0253573D01*
X0187867Y0253537D01*
X0187913Y0253499D01*
X0187957Y0253457D01*
X0187999Y0253413D01*
X0188037Y0253367D01*
X0188073Y0253318D01*
X0188106Y0253267D01*
X0188135Y0253215D01*
X0188162Y0253160D01*
X0188185Y0253105D01*
X0188205Y0253048D01*
X0188221Y0252989D01*
X0188234Y0252930D01*
X0188243Y0252871D01*
X0188248Y0252810D01*
X0188250Y0252750D01*
X0188250Y0251250D01*
X0195750Y0251250D02*
X0197000Y0251250D01*
X0195750Y0251250D02*
X0195750Y0252750D01*
X0195750Y0251250D02*
X0195663Y0251252D01*
X0195576Y0251258D01*
X0195489Y0251267D01*
X0195403Y0251280D01*
X0195317Y0251297D01*
X0195232Y0251318D01*
X0195149Y0251343D01*
X0195066Y0251371D01*
X0194985Y0251402D01*
X0194905Y0251437D01*
X0194827Y0251476D01*
X0194750Y0251518D01*
X0194675Y0251563D01*
X0194603Y0251612D01*
X0194532Y0251663D01*
X0194464Y0251718D01*
X0194399Y0251775D01*
X0194336Y0251836D01*
X0194275Y0251899D01*
X0194218Y0251964D01*
X0194163Y0252032D01*
X0194112Y0252103D01*
X0194063Y0252175D01*
X0194018Y0252250D01*
X0193976Y0252327D01*
X0193937Y0252405D01*
X0193902Y0252485D01*
X0193871Y0252566D01*
X0193843Y0252649D01*
X0193818Y0252732D01*
X0193797Y0252817D01*
X0193780Y0252903D01*
X0193767Y0252989D01*
X0193758Y0253076D01*
X0193752Y0253163D01*
X0193750Y0253250D01*
X0195750Y0252750D02*
X0195752Y0252810D01*
X0195757Y0252871D01*
X0195766Y0252930D01*
X0195779Y0252989D01*
X0195795Y0253048D01*
X0195815Y0253105D01*
X0195838Y0253160D01*
X0195865Y0253215D01*
X0195894Y0253267D01*
X0195927Y0253318D01*
X0195963Y0253367D01*
X0196001Y0253413D01*
X0196043Y0253457D01*
X0196087Y0253499D01*
X0196133Y0253537D01*
X0196182Y0253573D01*
X0196233Y0253606D01*
X0196285Y0253635D01*
X0196340Y0253662D01*
X0196395Y0253685D01*
X0196452Y0253705D01*
X0196511Y0253721D01*
X0196570Y0253734D01*
X0196629Y0253743D01*
X0196690Y0253748D01*
X0196750Y0253750D01*
X0197000Y0253750D01*
X0197069Y0253748D01*
X0197138Y0253742D01*
X0197206Y0253733D01*
X0197273Y0253720D01*
X0197340Y0253703D01*
X0197406Y0253682D01*
X0197470Y0253658D01*
X0197533Y0253630D01*
X0197595Y0253599D01*
X0197655Y0253565D01*
X0197712Y0253527D01*
X0197768Y0253486D01*
X0197821Y0253443D01*
X0197872Y0253396D01*
X0197920Y0253347D01*
X0197965Y0253295D01*
X0198007Y0253240D01*
X0198046Y0253184D01*
X0198083Y0253125D01*
X0198115Y0253064D01*
X0198145Y0253002D01*
X0198171Y0252938D01*
X0198193Y0252873D01*
X0198212Y0252807D01*
X0198227Y0252740D01*
X0198238Y0252672D01*
X0198246Y0252603D01*
X0198250Y0252534D01*
X0198250Y0252466D01*
X0198246Y0252397D01*
X0198238Y0252328D01*
X0198227Y0252260D01*
X0198212Y0252193D01*
X0198193Y0252127D01*
X0198171Y0252062D01*
X0198145Y0251998D01*
X0198115Y0251936D01*
X0198083Y0251875D01*
X0198046Y0251816D01*
X0198007Y0251760D01*
X0197965Y0251705D01*
X0197920Y0251653D01*
X0197872Y0251604D01*
X0197821Y0251557D01*
X0197768Y0251514D01*
X0197712Y0251473D01*
X0197655Y0251435D01*
X0197595Y0251401D01*
X0197533Y0251370D01*
X0197470Y0251342D01*
X0197406Y0251318D01*
X0197340Y0251297D01*
X0197273Y0251280D01*
X0197206Y0251267D01*
X0197138Y0251258D01*
X0197069Y0251252D01*
X0197000Y0251250D01*
X0203750Y0251250D02*
X0203750Y0253750D01*
X0208250Y0252500D01*
X0204250Y0251250D02*
X0203750Y0251250D01*
X0214750Y0251500D02*
X0214812Y0251502D01*
X0214873Y0251508D01*
X0214934Y0251517D01*
X0214994Y0251530D01*
X0215053Y0251547D01*
X0215111Y0251568D01*
X0215168Y0251592D01*
X0215223Y0251619D01*
X0215276Y0251650D01*
X0215328Y0251684D01*
X0215377Y0251721D01*
X0215424Y0251761D01*
X0215468Y0251804D01*
X0215509Y0251849D01*
X0215548Y0251897D01*
X0215584Y0251948D01*
X0215616Y0252000D01*
X0215645Y0252054D01*
X0215671Y0252110D01*
X0215693Y0252168D01*
X0215712Y0252226D01*
X0215727Y0252286D01*
X0215738Y0252347D01*
X0215746Y0252408D01*
X0215750Y0252469D01*
X0215750Y0252531D01*
X0215746Y0252592D01*
X0215738Y0252653D01*
X0215727Y0252714D01*
X0215712Y0252774D01*
X0215693Y0252832D01*
X0215671Y0252890D01*
X0215645Y0252946D01*
X0215616Y0253000D01*
X0215584Y0253052D01*
X0215548Y0253103D01*
X0215509Y0253151D01*
X0215468Y0253196D01*
X0215424Y0253239D01*
X0215377Y0253279D01*
X0215328Y0253316D01*
X0215276Y0253350D01*
X0215223Y0253381D01*
X0215168Y0253408D01*
X0215111Y0253432D01*
X0215053Y0253453D01*
X0214994Y0253470D01*
X0214934Y0253483D01*
X0214873Y0253492D01*
X0214812Y0253498D01*
X0214750Y0253500D01*
X0214688Y0253498D01*
X0214627Y0253492D01*
X0214566Y0253483D01*
X0214506Y0253470D01*
X0214447Y0253453D01*
X0214389Y0253432D01*
X0214332Y0253408D01*
X0214277Y0253381D01*
X0214224Y0253350D01*
X0214172Y0253316D01*
X0214123Y0253279D01*
X0214076Y0253239D01*
X0214032Y0253196D01*
X0213991Y0253151D01*
X0213952Y0253103D01*
X0213916Y0253052D01*
X0213884Y0253000D01*
X0213855Y0252946D01*
X0213829Y0252890D01*
X0213807Y0252832D01*
X0213788Y0252774D01*
X0213773Y0252714D01*
X0213762Y0252653D01*
X0213754Y0252592D01*
X0213750Y0252531D01*
X0213750Y0252469D01*
X0213754Y0252408D01*
X0213762Y0252347D01*
X0213773Y0252286D01*
X0213788Y0252226D01*
X0213807Y0252168D01*
X0213829Y0252110D01*
X0213855Y0252054D01*
X0213884Y0252000D01*
X0213916Y0251948D01*
X0213952Y0251897D01*
X0213991Y0251849D01*
X0214032Y0251804D01*
X0214076Y0251761D01*
X0214123Y0251721D01*
X0214172Y0251684D01*
X0214224Y0251650D01*
X0214277Y0251619D01*
X0214332Y0251592D01*
X0214389Y0251568D01*
X0214447Y0251547D01*
X0214506Y0251530D01*
X0214566Y0251517D01*
X0214627Y0251508D01*
X0214688Y0251502D01*
X0214750Y0251500D01*
X0217000Y0251250D02*
X0217069Y0251252D01*
X0217138Y0251258D01*
X0217206Y0251267D01*
X0217273Y0251280D01*
X0217340Y0251297D01*
X0217406Y0251318D01*
X0217470Y0251342D01*
X0217533Y0251370D01*
X0217595Y0251401D01*
X0217655Y0251435D01*
X0217712Y0251473D01*
X0217768Y0251514D01*
X0217821Y0251557D01*
X0217872Y0251604D01*
X0217920Y0251653D01*
X0217965Y0251705D01*
X0218007Y0251760D01*
X0218046Y0251816D01*
X0218083Y0251875D01*
X0218115Y0251936D01*
X0218145Y0251998D01*
X0218171Y0252062D01*
X0218193Y0252127D01*
X0218212Y0252193D01*
X0218227Y0252260D01*
X0218238Y0252328D01*
X0218246Y0252397D01*
X0218250Y0252466D01*
X0218250Y0252534D01*
X0218246Y0252603D01*
X0218238Y0252672D01*
X0218227Y0252740D01*
X0218212Y0252807D01*
X0218193Y0252873D01*
X0218171Y0252938D01*
X0218145Y0253002D01*
X0218115Y0253064D01*
X0218083Y0253125D01*
X0218046Y0253184D01*
X0218007Y0253240D01*
X0217965Y0253295D01*
X0217920Y0253347D01*
X0217872Y0253396D01*
X0217821Y0253443D01*
X0217768Y0253486D01*
X0217712Y0253527D01*
X0217655Y0253565D01*
X0217595Y0253599D01*
X0217533Y0253630D01*
X0217470Y0253658D01*
X0217406Y0253682D01*
X0217340Y0253703D01*
X0217273Y0253720D01*
X0217206Y0253733D01*
X0217138Y0253742D01*
X0217069Y0253748D01*
X0217000Y0253750D01*
X0216931Y0253748D01*
X0216862Y0253742D01*
X0216794Y0253733D01*
X0216727Y0253720D01*
X0216660Y0253703D01*
X0216594Y0253682D01*
X0216530Y0253658D01*
X0216467Y0253630D01*
X0216405Y0253599D01*
X0216345Y0253565D01*
X0216288Y0253527D01*
X0216232Y0253486D01*
X0216179Y0253443D01*
X0216128Y0253396D01*
X0216080Y0253347D01*
X0216035Y0253295D01*
X0215993Y0253240D01*
X0215954Y0253184D01*
X0215917Y0253125D01*
X0215885Y0253064D01*
X0215855Y0253002D01*
X0215829Y0252938D01*
X0215807Y0252873D01*
X0215788Y0252807D01*
X0215773Y0252740D01*
X0215762Y0252672D01*
X0215754Y0252603D01*
X0215750Y0252534D01*
X0215750Y0252466D01*
X0215754Y0252397D01*
X0215762Y0252328D01*
X0215773Y0252260D01*
X0215788Y0252193D01*
X0215807Y0252127D01*
X0215829Y0252062D01*
X0215855Y0251998D01*
X0215885Y0251936D01*
X0215917Y0251875D01*
X0215954Y0251816D01*
X0215993Y0251760D01*
X0216035Y0251705D01*
X0216080Y0251653D01*
X0216128Y0251604D01*
X0216179Y0251557D01*
X0216232Y0251514D01*
X0216288Y0251473D01*
X0216345Y0251435D01*
X0216405Y0251401D01*
X0216467Y0251370D01*
X0216530Y0251342D01*
X0216594Y0251318D01*
X0216660Y0251297D01*
X0216727Y0251280D01*
X0216794Y0251267D01*
X0216862Y0251258D01*
X0216931Y0251252D01*
X0217000Y0251250D01*
X0225000Y0251250D02*
X0225250Y0251250D01*
X0225310Y0251252D01*
X0225371Y0251257D01*
X0225430Y0251266D01*
X0225489Y0251279D01*
X0225548Y0251295D01*
X0225605Y0251315D01*
X0225660Y0251338D01*
X0225715Y0251365D01*
X0225767Y0251394D01*
X0225818Y0251427D01*
X0225867Y0251463D01*
X0225913Y0251501D01*
X0225957Y0251543D01*
X0225999Y0251587D01*
X0226037Y0251633D01*
X0226073Y0251682D01*
X0226106Y0251733D01*
X0226135Y0251785D01*
X0226162Y0251840D01*
X0226185Y0251895D01*
X0226205Y0251952D01*
X0226221Y0252011D01*
X0226234Y0252070D01*
X0226243Y0252129D01*
X0226248Y0252190D01*
X0226250Y0252250D01*
X0226250Y0253750D01*
X0225000Y0253750D01*
X0224931Y0253748D01*
X0224862Y0253742D01*
X0224794Y0253733D01*
X0224727Y0253720D01*
X0224660Y0253703D01*
X0224594Y0253682D01*
X0224530Y0253658D01*
X0224467Y0253630D01*
X0224405Y0253599D01*
X0224345Y0253565D01*
X0224288Y0253527D01*
X0224232Y0253486D01*
X0224179Y0253443D01*
X0224128Y0253396D01*
X0224080Y0253347D01*
X0224035Y0253295D01*
X0223993Y0253240D01*
X0223954Y0253184D01*
X0223917Y0253125D01*
X0223885Y0253064D01*
X0223855Y0253002D01*
X0223829Y0252938D01*
X0223807Y0252873D01*
X0223788Y0252807D01*
X0223773Y0252740D01*
X0223762Y0252672D01*
X0223754Y0252603D01*
X0223750Y0252534D01*
X0223750Y0252466D01*
X0223754Y0252397D01*
X0223762Y0252328D01*
X0223773Y0252260D01*
X0223788Y0252193D01*
X0223807Y0252127D01*
X0223829Y0252062D01*
X0223855Y0251998D01*
X0223885Y0251936D01*
X0223917Y0251875D01*
X0223954Y0251816D01*
X0223993Y0251760D01*
X0224035Y0251705D01*
X0224080Y0251653D01*
X0224128Y0251604D01*
X0224179Y0251557D01*
X0224232Y0251514D01*
X0224288Y0251473D01*
X0224345Y0251435D01*
X0224405Y0251401D01*
X0224467Y0251370D01*
X0224530Y0251342D01*
X0224594Y0251318D01*
X0224660Y0251297D01*
X0224727Y0251280D01*
X0224794Y0251267D01*
X0224862Y0251258D01*
X0224931Y0251252D01*
X0225000Y0251250D01*
X0226250Y0253750D02*
X0226337Y0253748D01*
X0226424Y0253742D01*
X0226511Y0253733D01*
X0226597Y0253720D01*
X0226683Y0253703D01*
X0226768Y0253682D01*
X0226851Y0253657D01*
X0226934Y0253629D01*
X0227015Y0253598D01*
X0227095Y0253563D01*
X0227173Y0253524D01*
X0227250Y0253482D01*
X0227325Y0253437D01*
X0227397Y0253388D01*
X0227468Y0253337D01*
X0227536Y0253282D01*
X0227601Y0253225D01*
X0227664Y0253164D01*
X0227725Y0253101D01*
X0227782Y0253036D01*
X0227837Y0252968D01*
X0227888Y0252897D01*
X0227937Y0252825D01*
X0227982Y0252750D01*
X0228024Y0252673D01*
X0228063Y0252595D01*
X0228098Y0252515D01*
X0228129Y0252434D01*
X0228157Y0252351D01*
X0228182Y0252268D01*
X0228203Y0252183D01*
X0228220Y0252097D01*
X0228233Y0252011D01*
X0228242Y0251924D01*
X0228248Y0251837D01*
X0228250Y0251750D01*
X0254250Y0232250D02*
X0255250Y0232250D01*
X0254750Y0232250D02*
X0254750Y0227750D01*
X0254250Y0227750D02*
X0255250Y0227750D01*
X0257085Y0228750D02*
X0257085Y0231250D01*
X0257087Y0231310D01*
X0257092Y0231371D01*
X0257101Y0231430D01*
X0257114Y0231489D01*
X0257130Y0231548D01*
X0257150Y0231605D01*
X0257173Y0231660D01*
X0257200Y0231715D01*
X0257229Y0231767D01*
X0257262Y0231818D01*
X0257298Y0231867D01*
X0257336Y0231913D01*
X0257378Y0231957D01*
X0257422Y0231999D01*
X0257468Y0232037D01*
X0257517Y0232073D01*
X0257568Y0232106D01*
X0257620Y0232135D01*
X0257675Y0232162D01*
X0257730Y0232185D01*
X0257787Y0232205D01*
X0257846Y0232221D01*
X0257905Y0232234D01*
X0257964Y0232243D01*
X0258025Y0232248D01*
X0258085Y0232250D01*
X0259085Y0232250D01*
X0262975Y0230250D02*
X0263021Y0230296D01*
X0263065Y0230345D01*
X0263105Y0230396D01*
X0263143Y0230449D01*
X0263178Y0230504D01*
X0263210Y0230561D01*
X0263239Y0230619D01*
X0263265Y0230679D01*
X0263287Y0230741D01*
X0263306Y0230803D01*
X0263322Y0230866D01*
X0263334Y0230930D01*
X0263343Y0230995D01*
X0263348Y0231060D01*
X0263350Y0231125D01*
X0262975Y0230250D02*
X0260850Y0227750D01*
X0263350Y0227750D01*
X0260850Y0231250D02*
X0260874Y0231319D01*
X0260902Y0231386D01*
X0260933Y0231452D01*
X0260967Y0231516D01*
X0261004Y0231578D01*
X0261045Y0231639D01*
X0261088Y0231697D01*
X0261134Y0231753D01*
X0261184Y0231807D01*
X0261235Y0231858D01*
X0261289Y0231906D01*
X0261346Y0231952D01*
X0261405Y0231995D01*
X0261466Y0232034D01*
X0261528Y0232071D01*
X0261593Y0232104D01*
X0261659Y0232135D01*
X0261727Y0232161D01*
X0261795Y0232185D01*
X0261865Y0232205D01*
X0261936Y0232221D01*
X0262008Y0232234D01*
X0262080Y0232243D01*
X0262152Y0232248D01*
X0262225Y0232250D01*
X0262290Y0232248D01*
X0262356Y0232242D01*
X0262420Y0232233D01*
X0262484Y0232220D01*
X0262548Y0232203D01*
X0262610Y0232182D01*
X0262671Y0232158D01*
X0262730Y0232130D01*
X0262788Y0232099D01*
X0262843Y0232065D01*
X0262897Y0232027D01*
X0262948Y0231987D01*
X0262997Y0231943D01*
X0263043Y0231897D01*
X0263087Y0231848D01*
X0263127Y0231797D01*
X0263165Y0231743D01*
X0263199Y0231688D01*
X0263230Y0231630D01*
X0263258Y0231571D01*
X0263282Y0231510D01*
X0263303Y0231448D01*
X0263320Y0231384D01*
X0263333Y0231320D01*
X0263342Y0231256D01*
X0263348Y0231190D01*
X0263350Y0231125D01*
X0259085Y0227750D02*
X0258085Y0227750D01*
X0258025Y0227752D01*
X0257964Y0227757D01*
X0257905Y0227766D01*
X0257846Y0227779D01*
X0257787Y0227795D01*
X0257730Y0227815D01*
X0257675Y0227838D01*
X0257620Y0227865D01*
X0257568Y0227894D01*
X0257517Y0227927D01*
X0257468Y0227963D01*
X0257422Y0228001D01*
X0257378Y0228043D01*
X0257336Y0228087D01*
X0257298Y0228133D01*
X0257262Y0228182D01*
X0257229Y0228233D01*
X0257200Y0228285D01*
X0257173Y0228340D01*
X0257150Y0228395D01*
X0257130Y0228452D01*
X0257114Y0228511D01*
X0257101Y0228570D01*
X0257092Y0228629D01*
X0257087Y0228690D01*
X0257085Y0228750D01*
X0338750Y0187850D02*
X0338750Y0183350D01*
X0340750Y0183350D01*
X0342650Y0183350D02*
X0342650Y0187850D01*
X0344650Y0187850D01*
X0346540Y0187850D02*
X0347790Y0187850D01*
X0347858Y0187848D01*
X0347925Y0187843D01*
X0347992Y0187834D01*
X0348059Y0187821D01*
X0348124Y0187804D01*
X0348189Y0187785D01*
X0348253Y0187761D01*
X0348315Y0187734D01*
X0348376Y0187704D01*
X0348434Y0187671D01*
X0348491Y0187635D01*
X0348546Y0187595D01*
X0348599Y0187553D01*
X0348650Y0187507D01*
X0348697Y0187460D01*
X0348743Y0187409D01*
X0348785Y0187356D01*
X0348825Y0187301D01*
X0348861Y0187244D01*
X0348894Y0187186D01*
X0348924Y0187125D01*
X0348951Y0187063D01*
X0348975Y0186999D01*
X0348994Y0186934D01*
X0349011Y0186869D01*
X0349024Y0186802D01*
X0349033Y0186735D01*
X0349038Y0186668D01*
X0349040Y0186600D01*
X0349040Y0184600D01*
X0349038Y0184532D01*
X0349033Y0184465D01*
X0349024Y0184398D01*
X0349011Y0184331D01*
X0348994Y0184266D01*
X0348975Y0184201D01*
X0348951Y0184137D01*
X0348924Y0184075D01*
X0348894Y0184014D01*
X0348861Y0183956D01*
X0348825Y0183899D01*
X0348785Y0183844D01*
X0348743Y0183791D01*
X0348697Y0183740D01*
X0348650Y0183693D01*
X0348599Y0183647D01*
X0348546Y0183605D01*
X0348491Y0183565D01*
X0348434Y0183529D01*
X0348376Y0183496D01*
X0348315Y0183466D01*
X0348253Y0183439D01*
X0348189Y0183415D01*
X0348124Y0183396D01*
X0348059Y0183379D01*
X0347992Y0183366D01*
X0347925Y0183357D01*
X0347858Y0183352D01*
X0347790Y0183350D01*
X0346540Y0183350D01*
X0346540Y0187850D01*
X0344150Y0185850D02*
X0342650Y0185850D01*
X0342650Y0183350D02*
X0344650Y0183350D01*
X0351190Y0183350D02*
X0353690Y0183350D01*
X0352440Y0183350D02*
X0352440Y0187850D01*
X0351190Y0186850D01*
X0251217Y0136750D02*
X0248717Y0136750D01*
X0248717Y0134750D01*
X0250217Y0134750D01*
X0250277Y0134748D01*
X0250338Y0134743D01*
X0250397Y0134734D01*
X0250456Y0134721D01*
X0250515Y0134705D01*
X0250572Y0134685D01*
X0250627Y0134662D01*
X0250682Y0134635D01*
X0250734Y0134606D01*
X0250785Y0134573D01*
X0250834Y0134537D01*
X0250880Y0134499D01*
X0250924Y0134457D01*
X0250966Y0134413D01*
X0251004Y0134367D01*
X0251040Y0134318D01*
X0251073Y0134267D01*
X0251102Y0134215D01*
X0251129Y0134160D01*
X0251152Y0134105D01*
X0251172Y0134048D01*
X0251188Y0133989D01*
X0251201Y0133930D01*
X0251210Y0133871D01*
X0251215Y0133810D01*
X0251217Y0133750D01*
X0251217Y0133250D01*
X0251215Y0133190D01*
X0251210Y0133129D01*
X0251201Y0133070D01*
X0251188Y0133011D01*
X0251172Y0132952D01*
X0251152Y0132895D01*
X0251129Y0132840D01*
X0251102Y0132785D01*
X0251073Y0132733D01*
X0251040Y0132682D01*
X0251004Y0132633D01*
X0250966Y0132587D01*
X0250924Y0132543D01*
X0250880Y0132501D01*
X0250834Y0132463D01*
X0250785Y0132427D01*
X0250734Y0132394D01*
X0250682Y0132365D01*
X0250627Y0132338D01*
X0250572Y0132315D01*
X0250515Y0132295D01*
X0250456Y0132279D01*
X0250397Y0132266D01*
X0250338Y0132257D01*
X0250277Y0132252D01*
X0250217Y0132250D01*
X0248717Y0132250D01*
X0246750Y0132250D02*
X0245750Y0134250D01*
X0245500Y0134250D02*
X0244250Y0134250D01*
X0245500Y0134250D02*
X0245569Y0134252D01*
X0245638Y0134258D01*
X0245706Y0134267D01*
X0245773Y0134280D01*
X0245840Y0134297D01*
X0245906Y0134318D01*
X0245970Y0134342D01*
X0246033Y0134370D01*
X0246095Y0134401D01*
X0246155Y0134435D01*
X0246212Y0134473D01*
X0246268Y0134514D01*
X0246321Y0134557D01*
X0246372Y0134604D01*
X0246420Y0134653D01*
X0246465Y0134705D01*
X0246507Y0134760D01*
X0246546Y0134816D01*
X0246583Y0134875D01*
X0246615Y0134936D01*
X0246645Y0134998D01*
X0246671Y0135062D01*
X0246693Y0135127D01*
X0246712Y0135193D01*
X0246727Y0135260D01*
X0246738Y0135328D01*
X0246746Y0135397D01*
X0246750Y0135466D01*
X0246750Y0135534D01*
X0246746Y0135603D01*
X0246738Y0135672D01*
X0246727Y0135740D01*
X0246712Y0135807D01*
X0246693Y0135873D01*
X0246671Y0135938D01*
X0246645Y0136002D01*
X0246615Y0136064D01*
X0246583Y0136125D01*
X0246546Y0136184D01*
X0246507Y0136240D01*
X0246465Y0136295D01*
X0246420Y0136347D01*
X0246372Y0136396D01*
X0246321Y0136443D01*
X0246268Y0136486D01*
X0246212Y0136527D01*
X0246155Y0136565D01*
X0246095Y0136599D01*
X0246033Y0136630D01*
X0245970Y0136658D01*
X0245906Y0136682D01*
X0245840Y0136703D01*
X0245773Y0136720D01*
X0245706Y0136733D01*
X0245638Y0136742D01*
X0245569Y0136748D01*
X0245500Y0136750D01*
X0244250Y0136750D01*
X0244250Y0132250D01*
X0103350Y0222750D02*
X0100850Y0222750D01*
X0102100Y0222750D02*
X0102100Y0227250D01*
X0100850Y0226250D01*
X0099085Y0227250D02*
X0098085Y0227250D01*
X0098025Y0227248D01*
X0097964Y0227243D01*
X0097905Y0227234D01*
X0097846Y0227221D01*
X0097787Y0227205D01*
X0097730Y0227185D01*
X0097675Y0227162D01*
X0097620Y0227135D01*
X0097568Y0227106D01*
X0097517Y0227073D01*
X0097468Y0227037D01*
X0097422Y0226999D01*
X0097378Y0226957D01*
X0097336Y0226913D01*
X0097298Y0226867D01*
X0097262Y0226818D01*
X0097229Y0226767D01*
X0097200Y0226715D01*
X0097173Y0226660D01*
X0097150Y0226605D01*
X0097130Y0226548D01*
X0097114Y0226489D01*
X0097101Y0226430D01*
X0097092Y0226371D01*
X0097087Y0226310D01*
X0097085Y0226250D01*
X0097085Y0223750D01*
X0097087Y0223690D01*
X0097092Y0223629D01*
X0097101Y0223570D01*
X0097114Y0223511D01*
X0097130Y0223452D01*
X0097150Y0223395D01*
X0097173Y0223340D01*
X0097200Y0223285D01*
X0097229Y0223233D01*
X0097262Y0223182D01*
X0097298Y0223133D01*
X0097336Y0223087D01*
X0097378Y0223043D01*
X0097422Y0223001D01*
X0097468Y0222963D01*
X0097517Y0222927D01*
X0097568Y0222894D01*
X0097620Y0222865D01*
X0097675Y0222838D01*
X0097730Y0222815D01*
X0097787Y0222795D01*
X0097846Y0222779D01*
X0097905Y0222766D01*
X0097964Y0222757D01*
X0098025Y0222752D01*
X0098085Y0222750D01*
X0099085Y0222750D01*
X0095250Y0222750D02*
X0094250Y0222750D01*
X0094750Y0222750D02*
X0094750Y0227250D01*
X0094250Y0227250D02*
X0095250Y0227250D01*
D17*
X0091800Y0131000D03*
X0085200Y0111000D03*
X0056800Y0111000D03*
X0056800Y0091000D03*
X0085200Y0091000D03*
X0116800Y0091000D03*
X0145200Y0091000D03*
X0155200Y0111000D03*
X0126800Y0111000D03*
X0120200Y0131000D03*
X0176800Y0091000D03*
X0205200Y0091000D03*
X0201800Y0111000D03*
X0230200Y0111000D03*
X0241800Y0126000D03*
X0270200Y0126000D03*
X0275200Y0091000D03*
X0246800Y0091000D03*
D18*
X0222500Y0247000D02*
X0222500Y0276000D01*
X0219500Y0276000D02*
X0219500Y0247000D01*
X0212500Y0247000D02*
X0212500Y0276000D01*
X0209500Y0276000D02*
X0209500Y0247000D01*
X0202500Y0247000D02*
X0202500Y0276000D01*
X0199500Y0276000D02*
X0199500Y0247000D01*
X0192500Y0247000D02*
X0192500Y0276000D01*
X0189500Y0276000D02*
X0189500Y0247000D01*
X0182500Y0247000D02*
X0182500Y0276000D01*
X0179500Y0276000D02*
X0179500Y0247000D01*
X0172500Y0247000D02*
X0172500Y0276000D01*
X0169500Y0276000D02*
X0169500Y0247000D01*
X0162500Y0247000D02*
X0162500Y0276000D01*
X0159500Y0276000D02*
X0159500Y0247000D01*
X0152500Y0247000D02*
X0152500Y0276000D01*
X0149500Y0276000D02*
X0149500Y0247000D01*
M02*
