%
M48
M72
T01C0.03200
T02C0.03543
T03C0.03937
T04C0.05600
%
T01
X133342Y96300
X133342Y106300
X133342Y116300
X133342Y126300
X133342Y136300
X133342Y146300
X133342Y156300
X163342Y156300
X163342Y146300
X163342Y136300
X163342Y126300
X163342Y116300
X163342Y106300
X163342Y96300
X193342Y96300
X193342Y106300
X193342Y116300
X193342Y126300
X193342Y136300
X193342Y146300
X193342Y156300
X223342Y156300
X223342Y146300
X223342Y136300
X223342Y126300
X223342Y116300
X223342Y106300
X223342Y96300
X253342Y66300
X263342Y66300
X273342Y66300
X283342Y66300
X293342Y66300
X303342Y66300
X313342Y66300
X323342Y66300
X333342Y66300
X308342Y146300
X323342Y161300
X293342Y166300
X283342Y166300
X273342Y166300
X263342Y166300
X258342Y146300
X218342Y176300
X263342Y196300
X273342Y196300
X283342Y196300
X293342Y196300
X303342Y211300
X323342Y211300
X303342Y231300
X253342Y231300
X253342Y211300
X218342Y211300
X168342Y211300
X168342Y196300
X168342Y176300
X118342Y196300
X143342Y226300
X138342Y251300
X93342Y226300
X88342Y251300
T02
X303342Y126300
X333342Y116300
X353342Y126300
T03
X68342Y51300
X198342Y66300
X208342Y66300
X218342Y66300
X358342Y51300
X353342Y171300
X353342Y181300
X353342Y191300
X363342Y256300
X198342Y246300
X188342Y246300
X178342Y246300
X93342Y191300
X93342Y181300
X93342Y171300
X68342Y256300
T04
X93342Y111300
X93342Y51300
M30
