G75*
%MOIN*%
%OFA0B0*%
%FSLAX25Y25*%
%IPPOS*%
%LPD*%
%AMOC8*
5,1,8,0,0,1.08239X$1,22.5*
%
%ADD10C,0.04737*%
%ADD11OC8,0.06800*%
%ADD12OC8,0.06000*%
%ADD13C,0.06737*%
%ADD14R,0.09800X0.09800*%
%ADD15C,0.06000*%
%ADD16C,0.05200*%
%ADD17C,0.01200*%
%ADD18C,0.03000*%
D10*
X0088342Y0036300D03*
X0463342Y0036300D03*
X0463342Y0331300D03*
X0088342Y0331300D03*
X0088342Y0331300D03*
D11*
X0343342Y0290800D03*
X0343342Y0201800D03*
D12*
X0378342Y0186300D03*
X0378342Y0236300D03*
X0378342Y0256300D03*
X0378342Y0306300D03*
X0363342Y0321300D03*
X0333342Y0321300D03*
X0323342Y0321300D03*
X0308342Y0296300D03*
X0283342Y0301300D03*
X0283342Y0281300D03*
X0283342Y0261300D03*
X0308342Y0246300D03*
X0283342Y0236300D03*
X0303342Y0226300D03*
X0283342Y0211300D03*
X0263342Y0191300D03*
X0263342Y0171300D03*
X0303342Y0176300D03*
X0233342Y0211300D03*
X0218342Y0211300D03*
X0218342Y0231300D03*
X0233342Y0236300D03*
X0218342Y0256300D03*
X0233342Y0261300D03*
X0233342Y0281300D03*
X0218342Y0286300D03*
X0233342Y0301300D03*
X0218342Y0306300D03*
X0218342Y0326300D03*
X0228342Y0326300D03*
X0273342Y0326300D03*
X0283342Y0326300D03*
X0168342Y0306300D03*
X0148342Y0306300D03*
X0128342Y0306300D03*
X0113342Y0306300D03*
X0093342Y0306300D03*
X0113342Y0326300D03*
X0123342Y0326300D03*
X0128342Y0286300D03*
X0128342Y0271300D03*
X0148342Y0286300D03*
X0153342Y0271300D03*
X0168342Y0256300D03*
X0168342Y0231300D03*
X0153342Y0221300D03*
X0168342Y0211300D03*
X0193342Y0191300D03*
X0213342Y0191300D03*
X0213342Y0171300D03*
X0193342Y0166300D03*
X0143342Y0166300D03*
X0128342Y0161300D03*
X0143342Y0191300D03*
X0128342Y0211300D03*
X0128342Y0221300D03*
X0168342Y0286300D03*
X0413342Y0321300D03*
D13*
X0101310Y0266300D02*
X0095373Y0266300D01*
X0095373Y0256300D02*
X0101310Y0256300D01*
X0101310Y0246300D02*
X0095373Y0246300D01*
X0095373Y0196300D02*
X0101310Y0196300D01*
X0101310Y0186300D02*
X0095373Y0186300D01*
X0095373Y0176300D02*
X0101310Y0176300D01*
X0138342Y0049269D02*
X0138342Y0043331D01*
X0148342Y0043331D02*
X0148342Y0049269D01*
X0158342Y0049269D02*
X0158342Y0043331D01*
X0203342Y0043331D02*
X0203342Y0049269D01*
X0213342Y0049269D02*
X0213342Y0043331D01*
X0223342Y0043331D02*
X0223342Y0049269D01*
X0233342Y0049269D02*
X0233342Y0043331D01*
X0243342Y0043331D02*
X0243342Y0049269D01*
X0253342Y0049269D02*
X0253342Y0043331D01*
X0293342Y0043331D02*
X0293342Y0049269D01*
X0303342Y0049269D02*
X0303342Y0043331D01*
X0313342Y0043331D02*
X0313342Y0049269D01*
X0323342Y0049269D02*
X0323342Y0043331D01*
D14*
G36*
X0444802Y0241312D02*
X0444597Y0251109D01*
X0454394Y0251314D01*
X0454599Y0241517D01*
X0444802Y0241312D01*
G37*
G36*
X0443546Y0301299D02*
X0443341Y0311096D01*
X0453138Y0311301D01*
X0453343Y0301504D01*
X0443546Y0301299D01*
G37*
D15*
X0358342Y0158900D02*
X0358342Y0153700D01*
X0348342Y0153700D02*
X0348342Y0158900D01*
X0338342Y0158900D02*
X0338342Y0153700D01*
X0328342Y0153700D02*
X0328342Y0158900D01*
X0318342Y0158900D02*
X0318342Y0153700D01*
X0308342Y0153700D02*
X0308342Y0158900D01*
X0298342Y0158900D02*
X0298342Y0153700D01*
X0298342Y0128900D02*
X0298342Y0123700D01*
X0308342Y0123700D02*
X0308342Y0128900D01*
X0318342Y0128900D02*
X0318342Y0123700D01*
X0328342Y0123700D02*
X0328342Y0128900D01*
X0338342Y0128900D02*
X0338342Y0123700D01*
X0348342Y0123700D02*
X0348342Y0128900D01*
X0358342Y0128900D02*
X0358342Y0123700D01*
X0353342Y0103900D02*
X0353342Y0098700D01*
X0343342Y0098700D02*
X0343342Y0103900D01*
X0333342Y0103900D02*
X0333342Y0098700D01*
X0323342Y0098700D02*
X0323342Y0103900D01*
X0313342Y0103900D02*
X0313342Y0098700D01*
X0303342Y0098700D02*
X0303342Y0103900D01*
X0293342Y0103900D02*
X0293342Y0098700D01*
X0293342Y0073900D02*
X0293342Y0068700D01*
X0303342Y0068700D02*
X0303342Y0073900D01*
X0313342Y0073900D02*
X0313342Y0068700D01*
X0323342Y0068700D02*
X0323342Y0073900D01*
X0333342Y0073900D02*
X0333342Y0068700D01*
X0343342Y0068700D02*
X0343342Y0073900D01*
X0353342Y0073900D02*
X0353342Y0068700D01*
X0368342Y0038900D02*
X0368342Y0033700D01*
X0378342Y0033700D02*
X0378342Y0038900D01*
X0388342Y0038900D02*
X0388342Y0033700D01*
X0398342Y0033700D02*
X0398342Y0038900D01*
X0408342Y0038900D02*
X0408342Y0033700D01*
X0418342Y0033700D02*
X0418342Y0038900D01*
X0428342Y0038900D02*
X0428342Y0033700D01*
X0438342Y0033700D02*
X0438342Y0038900D01*
X0448342Y0038900D02*
X0448342Y0033700D01*
X0253342Y0068700D02*
X0253342Y0073900D01*
X0243342Y0073900D02*
X0243342Y0068700D01*
X0233342Y0068700D02*
X0233342Y0073900D01*
X0223342Y0073900D02*
X0223342Y0068700D01*
X0213342Y0068700D02*
X0213342Y0073900D01*
X0203342Y0073900D02*
X0203342Y0068700D01*
X0193342Y0068700D02*
X0193342Y0073900D01*
X0168342Y0073900D02*
X0168342Y0068700D01*
X0158342Y0068700D02*
X0158342Y0073900D01*
X0148342Y0073900D02*
X0148342Y0068700D01*
X0138342Y0068700D02*
X0138342Y0073900D01*
X0128342Y0073900D02*
X0128342Y0068700D01*
X0118342Y0068700D02*
X0118342Y0073900D01*
X0108342Y0073900D02*
X0108342Y0068700D01*
X0108342Y0098700D02*
X0108342Y0103900D01*
X0108342Y0113700D02*
X0108342Y0118900D01*
X0118342Y0118900D02*
X0118342Y0113700D01*
X0118342Y0103900D02*
X0118342Y0098700D01*
X0128342Y0098700D02*
X0128342Y0103900D01*
X0128342Y0113700D02*
X0128342Y0118900D01*
X0138342Y0118900D02*
X0138342Y0113700D01*
X0138342Y0103900D02*
X0138342Y0098700D01*
X0148342Y0098700D02*
X0148342Y0103900D01*
X0148342Y0113700D02*
X0148342Y0118900D01*
X0158342Y0118900D02*
X0158342Y0113700D01*
X0158342Y0103900D02*
X0158342Y0098700D01*
X0168342Y0098700D02*
X0168342Y0103900D01*
X0168342Y0113700D02*
X0168342Y0118900D01*
X0193342Y0118700D02*
X0193342Y0123900D01*
X0203342Y0123900D02*
X0203342Y0118700D01*
X0213342Y0118700D02*
X0213342Y0123900D01*
X0223342Y0123900D02*
X0223342Y0118700D01*
X0233342Y0118700D02*
X0233342Y0123900D01*
X0243342Y0123900D02*
X0243342Y0118700D01*
X0253342Y0118700D02*
X0253342Y0123900D01*
X0253342Y0103900D02*
X0253342Y0098700D01*
X0243342Y0098700D02*
X0243342Y0103900D01*
X0233342Y0103900D02*
X0233342Y0098700D01*
X0223342Y0098700D02*
X0223342Y0103900D01*
X0213342Y0103900D02*
X0213342Y0098700D01*
X0203342Y0098700D02*
X0203342Y0103900D01*
X0193342Y0103900D02*
X0193342Y0098700D01*
X0168342Y0143700D02*
X0168342Y0148900D01*
X0158342Y0148900D02*
X0158342Y0143700D01*
X0148342Y0143700D02*
X0148342Y0148900D01*
X0138342Y0148900D02*
X0138342Y0143700D01*
X0128342Y0143700D02*
X0128342Y0148900D01*
X0118342Y0148900D02*
X0118342Y0143700D01*
X0108342Y0143700D02*
X0108342Y0148900D01*
X0193342Y0148700D02*
X0193342Y0153900D01*
X0203342Y0153900D02*
X0203342Y0148700D01*
X0213342Y0148700D02*
X0213342Y0153900D01*
X0223342Y0153900D02*
X0223342Y0148700D01*
X0233342Y0148700D02*
X0233342Y0153900D01*
X0243342Y0153900D02*
X0243342Y0148700D01*
X0253342Y0148700D02*
X0253342Y0153900D01*
D16*
X0393342Y0156300D03*
X0423342Y0146300D03*
X0443342Y0156300D03*
X0443342Y0126300D03*
X0423342Y0116300D03*
X0443342Y0096300D03*
X0423342Y0086300D03*
X0393342Y0096300D03*
X0393342Y0126300D03*
D17*
X0195111Y0325285D02*
X0195711Y0324685D01*
X0194274Y0323312D01*
X0192287Y0323357D01*
X0190914Y0324794D01*
X0190959Y0326781D01*
X0192396Y0328154D01*
X0194383Y0328109D01*
X0195756Y0326672D01*
X0195711Y0324685D01*
X0194820Y0325079D01*
X0193921Y0324220D01*
X0192681Y0324248D01*
X0191822Y0325147D01*
X0191850Y0326387D01*
X0192749Y0327246D01*
X0193989Y0327218D01*
X0194848Y0326319D01*
X0194820Y0325079D01*
X0193929Y0325472D01*
X0193569Y0325128D01*
X0193074Y0325139D01*
X0192730Y0325499D01*
X0192741Y0325994D01*
X0193101Y0326338D01*
X0193596Y0326327D01*
X0193940Y0325967D01*
X0193929Y0325472D01*
X0145124Y0326419D02*
X0145724Y0325819D01*
X0144287Y0324446D01*
X0142300Y0324491D01*
X0140927Y0325928D01*
X0140972Y0327915D01*
X0142409Y0329288D01*
X0144396Y0329243D01*
X0145769Y0327806D01*
X0145724Y0325819D01*
X0144833Y0326213D01*
X0143934Y0325354D01*
X0142694Y0325382D01*
X0141835Y0326281D01*
X0141863Y0327521D01*
X0142762Y0328380D01*
X0144002Y0328352D01*
X0144861Y0327453D01*
X0144833Y0326213D01*
X0143942Y0326606D01*
X0143582Y0326262D01*
X0143087Y0326273D01*
X0142743Y0326633D01*
X0142754Y0327128D01*
X0143114Y0327472D01*
X0143609Y0327461D01*
X0143953Y0327101D01*
X0143942Y0326606D01*
D18*
X0248342Y0239300D03*
X0269342Y0224300D03*
X0263342Y0216300D03*
X0358342Y0147300D03*
X0348342Y0138300D03*
X0328342Y0089300D03*
X0359342Y0063300D03*
X0369342Y0066300D03*
X0371342Y0057300D03*
X0375342Y0057300D03*
X0382342Y0048300D03*
X0388342Y0050300D03*
X0356342Y0054300D03*
X0338342Y0051300D03*
X0291342Y0057300D03*
X0286342Y0083300D03*
X0254342Y0083300D03*
X0235342Y0081300D03*
X0235342Y0063300D03*
X0243342Y0063300D03*
X0207342Y0062300D03*
X0184342Y0082300D03*
X0141342Y0082300D03*
X0124342Y0056300D03*
X0116342Y0128300D03*
X0163342Y0128300D03*
X0210342Y0128300D03*
X0256342Y0134300D03*
X0136342Y0190300D03*
X0136342Y0203300D03*
X0262342Y0299300D03*
M02*
