%
M48
M72
T01C0.01378
T02C0.03150
T03C0.03200
T04C0.03937
T05C0.04000
T06C0.05600
%
T01
X174742Y139700
X186142Y137300
X220942Y212300
X226942Y226700
X325342Y161900
X383542Y167300
X331942Y77900
T02
X288342Y86300
X278342Y86300
X278342Y66300
X288342Y66300
X243342Y71300
X233342Y71300
X233342Y41300
X243342Y41300
X278342Y36300
X288342Y36300
X243342Y101300
X233342Y101300
X193342Y111300
X183342Y111300
X233342Y131300
X243342Y131300
X278342Y116300
X288342Y116300
X248342Y171300
X238342Y171300
X208342Y171300
X198342Y171300
X198342Y201300
X208342Y201300
X238342Y201300
X248342Y201300
X193342Y141300
X183342Y141300
T03
X178342Y171300
X173342Y191300
X138342Y171300
X123342Y171300
X123342Y191300
X133342Y191300
X133342Y216300
X123342Y216300
X83342Y216300
X83342Y191300
X83342Y171300
X173342Y216300
X273342Y206300
X273342Y196300
X273342Y186300
X273342Y176300
X273342Y166300
X273342Y156300
X273342Y146300
X303342Y146300
X303342Y156300
X303342Y166300
X303342Y176300
X303342Y186300
X303342Y196300
X303342Y206300
X333342Y211300
X333342Y191300
X333342Y171300
X363342Y151300
X373342Y171300
X393342Y171300
X393342Y191300
X373342Y191300
X373342Y211300
X393342Y211300
X433342Y211300
X433342Y191300
X433342Y171300
X403342Y151300
X388342Y121300
X353342Y121300
X333342Y121300
X333342Y96300
X323342Y96300
X343342Y96300
X353342Y96300
X363342Y96300
X373342Y96300
X383342Y96300
X383342Y66300
X373342Y66300
X363342Y66300
X353342Y66300
X343342Y66300
X333342Y66300
X323342Y66300
X438342Y121300
T04
X63342Y16300
X83342Y126300
X83342Y136300
X68342Y241300
X338342Y36300
X348342Y36300
X358342Y36300
X368342Y36300
X378342Y36300
X388342Y36300
X428342Y31300
X428342Y41300
X428342Y51300
X428342Y61300
X428342Y71300
X428342Y81300
X443342Y21300
X443342Y241300
T05
X283342Y236300
X273342Y236300
X263342Y236300
X253342Y236300
X243342Y236300
X233342Y236300
X223342Y236300
T06
X138342Y36300
X78342Y36300
M30
