G75*
%MOIN*%
%OFA0B0*%
%FSLAX25Y25*%
%IPPOS*%
%LPD*%
%AMOC8*
5,1,8,0,0,1.08239X$1,22.5*
%
%ADD10C,0.00000*%
%ADD11C,0.01200*%
%ADD12C,0.00800*%
%ADD13C,0.00600*%
%ADD14C,0.00500*%
%ADD15C,0.01000*%
%ADD16C,0.00400*%
%ADD17C,0.02400*%
%ADD18R,0.02400X0.03400*%
%ADD19R,0.03400X0.02400*%
%ADD20C,0.00200*%
D10*
X0016300Y0041300D02*
X0016300Y0266261D01*
X0335001Y0266261D01*
X0335001Y0041300D01*
X0016300Y0041300D01*
X0024331Y0051300D02*
X0024333Y0051388D01*
X0024339Y0051476D01*
X0024349Y0051564D01*
X0024363Y0051652D01*
X0024380Y0051738D01*
X0024402Y0051824D01*
X0024427Y0051908D01*
X0024457Y0051992D01*
X0024489Y0052074D01*
X0024526Y0052154D01*
X0024566Y0052233D01*
X0024610Y0052310D01*
X0024657Y0052385D01*
X0024707Y0052457D01*
X0024761Y0052528D01*
X0024817Y0052595D01*
X0024877Y0052661D01*
X0024939Y0052723D01*
X0025005Y0052783D01*
X0025072Y0052839D01*
X0025143Y0052893D01*
X0025215Y0052943D01*
X0025290Y0052990D01*
X0025367Y0053034D01*
X0025446Y0053074D01*
X0025526Y0053111D01*
X0025608Y0053143D01*
X0025692Y0053173D01*
X0025776Y0053198D01*
X0025862Y0053220D01*
X0025948Y0053237D01*
X0026036Y0053251D01*
X0026124Y0053261D01*
X0026212Y0053267D01*
X0026300Y0053269D01*
X0026388Y0053267D01*
X0026476Y0053261D01*
X0026564Y0053251D01*
X0026652Y0053237D01*
X0026738Y0053220D01*
X0026824Y0053198D01*
X0026908Y0053173D01*
X0026992Y0053143D01*
X0027074Y0053111D01*
X0027154Y0053074D01*
X0027233Y0053034D01*
X0027310Y0052990D01*
X0027385Y0052943D01*
X0027457Y0052893D01*
X0027528Y0052839D01*
X0027595Y0052783D01*
X0027661Y0052723D01*
X0027723Y0052661D01*
X0027783Y0052595D01*
X0027839Y0052528D01*
X0027893Y0052457D01*
X0027943Y0052385D01*
X0027990Y0052310D01*
X0028034Y0052233D01*
X0028074Y0052154D01*
X0028111Y0052074D01*
X0028143Y0051992D01*
X0028173Y0051908D01*
X0028198Y0051824D01*
X0028220Y0051738D01*
X0028237Y0051652D01*
X0028251Y0051564D01*
X0028261Y0051476D01*
X0028267Y0051388D01*
X0028269Y0051300D01*
X0028267Y0051212D01*
X0028261Y0051124D01*
X0028251Y0051036D01*
X0028237Y0050948D01*
X0028220Y0050862D01*
X0028198Y0050776D01*
X0028173Y0050692D01*
X0028143Y0050608D01*
X0028111Y0050526D01*
X0028074Y0050446D01*
X0028034Y0050367D01*
X0027990Y0050290D01*
X0027943Y0050215D01*
X0027893Y0050143D01*
X0027839Y0050072D01*
X0027783Y0050005D01*
X0027723Y0049939D01*
X0027661Y0049877D01*
X0027595Y0049817D01*
X0027528Y0049761D01*
X0027457Y0049707D01*
X0027385Y0049657D01*
X0027310Y0049610D01*
X0027233Y0049566D01*
X0027154Y0049526D01*
X0027074Y0049489D01*
X0026992Y0049457D01*
X0026908Y0049427D01*
X0026824Y0049402D01*
X0026738Y0049380D01*
X0026652Y0049363D01*
X0026564Y0049349D01*
X0026476Y0049339D01*
X0026388Y0049333D01*
X0026300Y0049331D01*
X0026212Y0049333D01*
X0026124Y0049339D01*
X0026036Y0049349D01*
X0025948Y0049363D01*
X0025862Y0049380D01*
X0025776Y0049402D01*
X0025692Y0049427D01*
X0025608Y0049457D01*
X0025526Y0049489D01*
X0025446Y0049526D01*
X0025367Y0049566D01*
X0025290Y0049610D01*
X0025215Y0049657D01*
X0025143Y0049707D01*
X0025072Y0049761D01*
X0025005Y0049817D01*
X0024939Y0049877D01*
X0024877Y0049939D01*
X0024817Y0050005D01*
X0024761Y0050072D01*
X0024707Y0050143D01*
X0024657Y0050215D01*
X0024610Y0050290D01*
X0024566Y0050367D01*
X0024526Y0050446D01*
X0024489Y0050526D01*
X0024457Y0050608D01*
X0024427Y0050692D01*
X0024402Y0050776D01*
X0024380Y0050862D01*
X0024363Y0050948D01*
X0024349Y0051036D01*
X0024339Y0051124D01*
X0024333Y0051212D01*
X0024331Y0051300D01*
X0024331Y0256300D02*
X0024333Y0256388D01*
X0024339Y0256476D01*
X0024349Y0256564D01*
X0024363Y0256652D01*
X0024380Y0256738D01*
X0024402Y0256824D01*
X0024427Y0256908D01*
X0024457Y0256992D01*
X0024489Y0257074D01*
X0024526Y0257154D01*
X0024566Y0257233D01*
X0024610Y0257310D01*
X0024657Y0257385D01*
X0024707Y0257457D01*
X0024761Y0257528D01*
X0024817Y0257595D01*
X0024877Y0257661D01*
X0024939Y0257723D01*
X0025005Y0257783D01*
X0025072Y0257839D01*
X0025143Y0257893D01*
X0025215Y0257943D01*
X0025290Y0257990D01*
X0025367Y0258034D01*
X0025446Y0258074D01*
X0025526Y0258111D01*
X0025608Y0258143D01*
X0025692Y0258173D01*
X0025776Y0258198D01*
X0025862Y0258220D01*
X0025948Y0258237D01*
X0026036Y0258251D01*
X0026124Y0258261D01*
X0026212Y0258267D01*
X0026300Y0258269D01*
X0026388Y0258267D01*
X0026476Y0258261D01*
X0026564Y0258251D01*
X0026652Y0258237D01*
X0026738Y0258220D01*
X0026824Y0258198D01*
X0026908Y0258173D01*
X0026992Y0258143D01*
X0027074Y0258111D01*
X0027154Y0258074D01*
X0027233Y0258034D01*
X0027310Y0257990D01*
X0027385Y0257943D01*
X0027457Y0257893D01*
X0027528Y0257839D01*
X0027595Y0257783D01*
X0027661Y0257723D01*
X0027723Y0257661D01*
X0027783Y0257595D01*
X0027839Y0257528D01*
X0027893Y0257457D01*
X0027943Y0257385D01*
X0027990Y0257310D01*
X0028034Y0257233D01*
X0028074Y0257154D01*
X0028111Y0257074D01*
X0028143Y0256992D01*
X0028173Y0256908D01*
X0028198Y0256824D01*
X0028220Y0256738D01*
X0028237Y0256652D01*
X0028251Y0256564D01*
X0028261Y0256476D01*
X0028267Y0256388D01*
X0028269Y0256300D01*
X0028267Y0256212D01*
X0028261Y0256124D01*
X0028251Y0256036D01*
X0028237Y0255948D01*
X0028220Y0255862D01*
X0028198Y0255776D01*
X0028173Y0255692D01*
X0028143Y0255608D01*
X0028111Y0255526D01*
X0028074Y0255446D01*
X0028034Y0255367D01*
X0027990Y0255290D01*
X0027943Y0255215D01*
X0027893Y0255143D01*
X0027839Y0255072D01*
X0027783Y0255005D01*
X0027723Y0254939D01*
X0027661Y0254877D01*
X0027595Y0254817D01*
X0027528Y0254761D01*
X0027457Y0254707D01*
X0027385Y0254657D01*
X0027310Y0254610D01*
X0027233Y0254566D01*
X0027154Y0254526D01*
X0027074Y0254489D01*
X0026992Y0254457D01*
X0026908Y0254427D01*
X0026824Y0254402D01*
X0026738Y0254380D01*
X0026652Y0254363D01*
X0026564Y0254349D01*
X0026476Y0254339D01*
X0026388Y0254333D01*
X0026300Y0254331D01*
X0026212Y0254333D01*
X0026124Y0254339D01*
X0026036Y0254349D01*
X0025948Y0254363D01*
X0025862Y0254380D01*
X0025776Y0254402D01*
X0025692Y0254427D01*
X0025608Y0254457D01*
X0025526Y0254489D01*
X0025446Y0254526D01*
X0025367Y0254566D01*
X0025290Y0254610D01*
X0025215Y0254657D01*
X0025143Y0254707D01*
X0025072Y0254761D01*
X0025005Y0254817D01*
X0024939Y0254877D01*
X0024877Y0254939D01*
X0024817Y0255005D01*
X0024761Y0255072D01*
X0024707Y0255143D01*
X0024657Y0255215D01*
X0024610Y0255290D01*
X0024566Y0255367D01*
X0024526Y0255446D01*
X0024489Y0255526D01*
X0024457Y0255608D01*
X0024427Y0255692D01*
X0024402Y0255776D01*
X0024380Y0255862D01*
X0024363Y0255948D01*
X0024349Y0256036D01*
X0024339Y0256124D01*
X0024333Y0256212D01*
X0024331Y0256300D01*
X0314331Y0051300D02*
X0314333Y0051388D01*
X0314339Y0051476D01*
X0314349Y0051564D01*
X0314363Y0051652D01*
X0314380Y0051738D01*
X0314402Y0051824D01*
X0314427Y0051908D01*
X0314457Y0051992D01*
X0314489Y0052074D01*
X0314526Y0052154D01*
X0314566Y0052233D01*
X0314610Y0052310D01*
X0314657Y0052385D01*
X0314707Y0052457D01*
X0314761Y0052528D01*
X0314817Y0052595D01*
X0314877Y0052661D01*
X0314939Y0052723D01*
X0315005Y0052783D01*
X0315072Y0052839D01*
X0315143Y0052893D01*
X0315215Y0052943D01*
X0315290Y0052990D01*
X0315367Y0053034D01*
X0315446Y0053074D01*
X0315526Y0053111D01*
X0315608Y0053143D01*
X0315692Y0053173D01*
X0315776Y0053198D01*
X0315862Y0053220D01*
X0315948Y0053237D01*
X0316036Y0053251D01*
X0316124Y0053261D01*
X0316212Y0053267D01*
X0316300Y0053269D01*
X0316388Y0053267D01*
X0316476Y0053261D01*
X0316564Y0053251D01*
X0316652Y0053237D01*
X0316738Y0053220D01*
X0316824Y0053198D01*
X0316908Y0053173D01*
X0316992Y0053143D01*
X0317074Y0053111D01*
X0317154Y0053074D01*
X0317233Y0053034D01*
X0317310Y0052990D01*
X0317385Y0052943D01*
X0317457Y0052893D01*
X0317528Y0052839D01*
X0317595Y0052783D01*
X0317661Y0052723D01*
X0317723Y0052661D01*
X0317783Y0052595D01*
X0317839Y0052528D01*
X0317893Y0052457D01*
X0317943Y0052385D01*
X0317990Y0052310D01*
X0318034Y0052233D01*
X0318074Y0052154D01*
X0318111Y0052074D01*
X0318143Y0051992D01*
X0318173Y0051908D01*
X0318198Y0051824D01*
X0318220Y0051738D01*
X0318237Y0051652D01*
X0318251Y0051564D01*
X0318261Y0051476D01*
X0318267Y0051388D01*
X0318269Y0051300D01*
X0318267Y0051212D01*
X0318261Y0051124D01*
X0318251Y0051036D01*
X0318237Y0050948D01*
X0318220Y0050862D01*
X0318198Y0050776D01*
X0318173Y0050692D01*
X0318143Y0050608D01*
X0318111Y0050526D01*
X0318074Y0050446D01*
X0318034Y0050367D01*
X0317990Y0050290D01*
X0317943Y0050215D01*
X0317893Y0050143D01*
X0317839Y0050072D01*
X0317783Y0050005D01*
X0317723Y0049939D01*
X0317661Y0049877D01*
X0317595Y0049817D01*
X0317528Y0049761D01*
X0317457Y0049707D01*
X0317385Y0049657D01*
X0317310Y0049610D01*
X0317233Y0049566D01*
X0317154Y0049526D01*
X0317074Y0049489D01*
X0316992Y0049457D01*
X0316908Y0049427D01*
X0316824Y0049402D01*
X0316738Y0049380D01*
X0316652Y0049363D01*
X0316564Y0049349D01*
X0316476Y0049339D01*
X0316388Y0049333D01*
X0316300Y0049331D01*
X0316212Y0049333D01*
X0316124Y0049339D01*
X0316036Y0049349D01*
X0315948Y0049363D01*
X0315862Y0049380D01*
X0315776Y0049402D01*
X0315692Y0049427D01*
X0315608Y0049457D01*
X0315526Y0049489D01*
X0315446Y0049526D01*
X0315367Y0049566D01*
X0315290Y0049610D01*
X0315215Y0049657D01*
X0315143Y0049707D01*
X0315072Y0049761D01*
X0315005Y0049817D01*
X0314939Y0049877D01*
X0314877Y0049939D01*
X0314817Y0050005D01*
X0314761Y0050072D01*
X0314707Y0050143D01*
X0314657Y0050215D01*
X0314610Y0050290D01*
X0314566Y0050367D01*
X0314526Y0050446D01*
X0314489Y0050526D01*
X0314457Y0050608D01*
X0314427Y0050692D01*
X0314402Y0050776D01*
X0314380Y0050862D01*
X0314363Y0050948D01*
X0314349Y0051036D01*
X0314339Y0051124D01*
X0314333Y0051212D01*
X0314331Y0051300D01*
X0319331Y0256300D02*
X0319333Y0256388D01*
X0319339Y0256476D01*
X0319349Y0256564D01*
X0319363Y0256652D01*
X0319380Y0256738D01*
X0319402Y0256824D01*
X0319427Y0256908D01*
X0319457Y0256992D01*
X0319489Y0257074D01*
X0319526Y0257154D01*
X0319566Y0257233D01*
X0319610Y0257310D01*
X0319657Y0257385D01*
X0319707Y0257457D01*
X0319761Y0257528D01*
X0319817Y0257595D01*
X0319877Y0257661D01*
X0319939Y0257723D01*
X0320005Y0257783D01*
X0320072Y0257839D01*
X0320143Y0257893D01*
X0320215Y0257943D01*
X0320290Y0257990D01*
X0320367Y0258034D01*
X0320446Y0258074D01*
X0320526Y0258111D01*
X0320608Y0258143D01*
X0320692Y0258173D01*
X0320776Y0258198D01*
X0320862Y0258220D01*
X0320948Y0258237D01*
X0321036Y0258251D01*
X0321124Y0258261D01*
X0321212Y0258267D01*
X0321300Y0258269D01*
X0321388Y0258267D01*
X0321476Y0258261D01*
X0321564Y0258251D01*
X0321652Y0258237D01*
X0321738Y0258220D01*
X0321824Y0258198D01*
X0321908Y0258173D01*
X0321992Y0258143D01*
X0322074Y0258111D01*
X0322154Y0258074D01*
X0322233Y0258034D01*
X0322310Y0257990D01*
X0322385Y0257943D01*
X0322457Y0257893D01*
X0322528Y0257839D01*
X0322595Y0257783D01*
X0322661Y0257723D01*
X0322723Y0257661D01*
X0322783Y0257595D01*
X0322839Y0257528D01*
X0322893Y0257457D01*
X0322943Y0257385D01*
X0322990Y0257310D01*
X0323034Y0257233D01*
X0323074Y0257154D01*
X0323111Y0257074D01*
X0323143Y0256992D01*
X0323173Y0256908D01*
X0323198Y0256824D01*
X0323220Y0256738D01*
X0323237Y0256652D01*
X0323251Y0256564D01*
X0323261Y0256476D01*
X0323267Y0256388D01*
X0323269Y0256300D01*
X0323267Y0256212D01*
X0323261Y0256124D01*
X0323251Y0256036D01*
X0323237Y0255948D01*
X0323220Y0255862D01*
X0323198Y0255776D01*
X0323173Y0255692D01*
X0323143Y0255608D01*
X0323111Y0255526D01*
X0323074Y0255446D01*
X0323034Y0255367D01*
X0322990Y0255290D01*
X0322943Y0255215D01*
X0322893Y0255143D01*
X0322839Y0255072D01*
X0322783Y0255005D01*
X0322723Y0254939D01*
X0322661Y0254877D01*
X0322595Y0254817D01*
X0322528Y0254761D01*
X0322457Y0254707D01*
X0322385Y0254657D01*
X0322310Y0254610D01*
X0322233Y0254566D01*
X0322154Y0254526D01*
X0322074Y0254489D01*
X0321992Y0254457D01*
X0321908Y0254427D01*
X0321824Y0254402D01*
X0321738Y0254380D01*
X0321652Y0254363D01*
X0321564Y0254349D01*
X0321476Y0254339D01*
X0321388Y0254333D01*
X0321300Y0254331D01*
X0321212Y0254333D01*
X0321124Y0254339D01*
X0321036Y0254349D01*
X0320948Y0254363D01*
X0320862Y0254380D01*
X0320776Y0254402D01*
X0320692Y0254427D01*
X0320608Y0254457D01*
X0320526Y0254489D01*
X0320446Y0254526D01*
X0320367Y0254566D01*
X0320290Y0254610D01*
X0320215Y0254657D01*
X0320143Y0254707D01*
X0320072Y0254761D01*
X0320005Y0254817D01*
X0319939Y0254877D01*
X0319877Y0254939D01*
X0319817Y0255005D01*
X0319761Y0255072D01*
X0319707Y0255143D01*
X0319657Y0255215D01*
X0319610Y0255290D01*
X0319566Y0255367D01*
X0319526Y0255446D01*
X0319489Y0255526D01*
X0319457Y0255608D01*
X0319427Y0255692D01*
X0319402Y0255776D01*
X0319380Y0255862D01*
X0319363Y0255948D01*
X0319349Y0256036D01*
X0319339Y0256124D01*
X0319333Y0256212D01*
X0319331Y0256300D01*
D11*
X0065300Y0119300D02*
X0065300Y0107300D01*
X0061300Y0107300D01*
X0060300Y0107300D01*
X0060300Y0119300D01*
X0061300Y0119300D01*
X0061300Y0121300D01*
X0041300Y0121300D01*
X0041300Y0119300D01*
X0042300Y0119300D01*
X0042300Y0107300D01*
X0041300Y0107300D01*
X0037300Y0107300D01*
X0037300Y0119300D01*
X0041300Y0119300D01*
X0039300Y0120300D02*
X0039300Y0123300D01*
X0044300Y0123300D01*
X0041300Y0107300D02*
X0041300Y0105300D01*
X0041300Y0057300D01*
X0041300Y0055300D01*
X0042300Y0055300D01*
X0042300Y0043300D01*
X0041300Y0043300D01*
X0041300Y0041300D01*
X0061300Y0041300D01*
X0061300Y0043300D01*
X0060300Y0043300D01*
X0060300Y0055300D01*
X0061300Y0055300D01*
X0065300Y0055300D01*
X0065300Y0043300D01*
X0061300Y0043300D01*
X0063300Y0042300D02*
X0063300Y0039300D01*
X0058300Y0039300D01*
X0041300Y0043300D02*
X0037300Y0043300D01*
X0037300Y0055300D01*
X0041300Y0055300D01*
X0041300Y0057300D02*
X0061300Y0057300D01*
X0061300Y0055300D01*
X0061300Y0057300D02*
X0061300Y0105300D01*
X0061300Y0107300D01*
X0061300Y0105300D02*
X0041300Y0105300D01*
X0061300Y0119300D02*
X0065300Y0119300D01*
D12*
X0080900Y0061652D02*
X0080900Y0056540D01*
X0080900Y0059096D02*
X0071700Y0059096D01*
X0073744Y0056540D01*
X0071700Y0053789D02*
X0071700Y0049700D01*
X0080900Y0049700D01*
X0075789Y0049700D02*
X0075789Y0053789D01*
D13*
X0094800Y0091300D02*
X0102300Y0091300D01*
X0102302Y0091426D01*
X0102308Y0091551D01*
X0102318Y0091676D01*
X0102332Y0091801D01*
X0102349Y0091926D01*
X0102371Y0092050D01*
X0102396Y0092173D01*
X0102426Y0092295D01*
X0102459Y0092416D01*
X0102496Y0092536D01*
X0102536Y0092655D01*
X0102581Y0092772D01*
X0102629Y0092889D01*
X0102681Y0093003D01*
X0102736Y0093116D01*
X0102795Y0093227D01*
X0102857Y0093336D01*
X0102923Y0093443D01*
X0102992Y0093548D01*
X0103064Y0093651D01*
X0103139Y0093752D01*
X0103218Y0093850D01*
X0103300Y0093945D01*
X0103384Y0094038D01*
X0103472Y0094128D01*
X0103562Y0094216D01*
X0103655Y0094300D01*
X0103750Y0094382D01*
X0103848Y0094461D01*
X0103949Y0094536D01*
X0104052Y0094608D01*
X0104157Y0094677D01*
X0104264Y0094743D01*
X0104373Y0094805D01*
X0104484Y0094864D01*
X0104597Y0094919D01*
X0104711Y0094971D01*
X0104828Y0095019D01*
X0104945Y0095064D01*
X0105064Y0095104D01*
X0105184Y0095141D01*
X0105305Y0095174D01*
X0105427Y0095204D01*
X0105550Y0095229D01*
X0105674Y0095251D01*
X0105799Y0095268D01*
X0105924Y0095282D01*
X0106049Y0095292D01*
X0106174Y0095298D01*
X0106300Y0095300D01*
X0106426Y0095298D01*
X0106551Y0095292D01*
X0106676Y0095282D01*
X0106801Y0095268D01*
X0106926Y0095251D01*
X0107050Y0095229D01*
X0107173Y0095204D01*
X0107295Y0095174D01*
X0107416Y0095141D01*
X0107536Y0095104D01*
X0107655Y0095064D01*
X0107772Y0095019D01*
X0107889Y0094971D01*
X0108003Y0094919D01*
X0108116Y0094864D01*
X0108227Y0094805D01*
X0108336Y0094743D01*
X0108443Y0094677D01*
X0108548Y0094608D01*
X0108651Y0094536D01*
X0108752Y0094461D01*
X0108850Y0094382D01*
X0108945Y0094300D01*
X0109038Y0094216D01*
X0109128Y0094128D01*
X0109216Y0094038D01*
X0109300Y0093945D01*
X0109382Y0093850D01*
X0109461Y0093752D01*
X0109536Y0093651D01*
X0109608Y0093548D01*
X0109677Y0093443D01*
X0109743Y0093336D01*
X0109805Y0093227D01*
X0109864Y0093116D01*
X0109919Y0093003D01*
X0109971Y0092889D01*
X0110019Y0092772D01*
X0110064Y0092655D01*
X0110104Y0092536D01*
X0110141Y0092416D01*
X0110174Y0092295D01*
X0110204Y0092173D01*
X0110229Y0092050D01*
X0110251Y0091926D01*
X0110268Y0091801D01*
X0110282Y0091676D01*
X0110292Y0091551D01*
X0110298Y0091426D01*
X0110300Y0091300D01*
X0117800Y0091300D01*
X0117800Y0161300D01*
X0094800Y0161300D01*
X0094800Y0091300D01*
X0154800Y0091300D02*
X0177800Y0091300D01*
X0177800Y0161300D01*
X0170300Y0161300D01*
X0170298Y0161174D01*
X0170292Y0161049D01*
X0170282Y0160924D01*
X0170268Y0160799D01*
X0170251Y0160674D01*
X0170229Y0160550D01*
X0170204Y0160427D01*
X0170174Y0160305D01*
X0170141Y0160184D01*
X0170104Y0160064D01*
X0170064Y0159945D01*
X0170019Y0159828D01*
X0169971Y0159711D01*
X0169919Y0159597D01*
X0169864Y0159484D01*
X0169805Y0159373D01*
X0169743Y0159264D01*
X0169677Y0159157D01*
X0169608Y0159052D01*
X0169536Y0158949D01*
X0169461Y0158848D01*
X0169382Y0158750D01*
X0169300Y0158655D01*
X0169216Y0158562D01*
X0169128Y0158472D01*
X0169038Y0158384D01*
X0168945Y0158300D01*
X0168850Y0158218D01*
X0168752Y0158139D01*
X0168651Y0158064D01*
X0168548Y0157992D01*
X0168443Y0157923D01*
X0168336Y0157857D01*
X0168227Y0157795D01*
X0168116Y0157736D01*
X0168003Y0157681D01*
X0167889Y0157629D01*
X0167772Y0157581D01*
X0167655Y0157536D01*
X0167536Y0157496D01*
X0167416Y0157459D01*
X0167295Y0157426D01*
X0167173Y0157396D01*
X0167050Y0157371D01*
X0166926Y0157349D01*
X0166801Y0157332D01*
X0166676Y0157318D01*
X0166551Y0157308D01*
X0166426Y0157302D01*
X0166300Y0157300D01*
X0166174Y0157302D01*
X0166049Y0157308D01*
X0165924Y0157318D01*
X0165799Y0157332D01*
X0165674Y0157349D01*
X0165550Y0157371D01*
X0165427Y0157396D01*
X0165305Y0157426D01*
X0165184Y0157459D01*
X0165064Y0157496D01*
X0164945Y0157536D01*
X0164828Y0157581D01*
X0164711Y0157629D01*
X0164597Y0157681D01*
X0164484Y0157736D01*
X0164373Y0157795D01*
X0164264Y0157857D01*
X0164157Y0157923D01*
X0164052Y0157992D01*
X0163949Y0158064D01*
X0163848Y0158139D01*
X0163750Y0158218D01*
X0163655Y0158300D01*
X0163562Y0158384D01*
X0163472Y0158472D01*
X0163384Y0158562D01*
X0163300Y0158655D01*
X0163218Y0158750D01*
X0163139Y0158848D01*
X0163064Y0158949D01*
X0162992Y0159052D01*
X0162923Y0159157D01*
X0162857Y0159264D01*
X0162795Y0159373D01*
X0162736Y0159484D01*
X0162681Y0159597D01*
X0162629Y0159711D01*
X0162581Y0159828D01*
X0162536Y0159945D01*
X0162496Y0160064D01*
X0162459Y0160184D01*
X0162426Y0160305D01*
X0162396Y0160427D01*
X0162371Y0160550D01*
X0162349Y0160674D01*
X0162332Y0160799D01*
X0162318Y0160924D01*
X0162308Y0161049D01*
X0162302Y0161174D01*
X0162300Y0161300D01*
X0154800Y0161300D01*
X0154800Y0091300D01*
X0211800Y0091300D02*
X0212300Y0091800D01*
X0212300Y0110800D01*
X0211800Y0111300D01*
X0211800Y0112800D01*
X0211802Y0112860D01*
X0211807Y0112921D01*
X0211816Y0112980D01*
X0211829Y0113039D01*
X0211845Y0113098D01*
X0211865Y0113155D01*
X0211888Y0113210D01*
X0211915Y0113265D01*
X0211944Y0113317D01*
X0211977Y0113368D01*
X0212013Y0113417D01*
X0212051Y0113463D01*
X0212093Y0113507D01*
X0212137Y0113549D01*
X0212183Y0113587D01*
X0212232Y0113623D01*
X0212283Y0113656D01*
X0212335Y0113685D01*
X0212390Y0113712D01*
X0212445Y0113735D01*
X0212502Y0113755D01*
X0212561Y0113771D01*
X0212620Y0113784D01*
X0212679Y0113793D01*
X0212740Y0113798D01*
X0212800Y0113800D01*
X0219800Y0113800D01*
X0219860Y0113798D01*
X0219921Y0113793D01*
X0219980Y0113784D01*
X0220039Y0113771D01*
X0220098Y0113755D01*
X0220155Y0113735D01*
X0220210Y0113712D01*
X0220265Y0113685D01*
X0220317Y0113656D01*
X0220368Y0113623D01*
X0220417Y0113587D01*
X0220463Y0113549D01*
X0220507Y0113507D01*
X0220549Y0113463D01*
X0220587Y0113417D01*
X0220623Y0113368D01*
X0220656Y0113317D01*
X0220685Y0113265D01*
X0220712Y0113210D01*
X0220735Y0113155D01*
X0220755Y0113098D01*
X0220771Y0113039D01*
X0220784Y0112980D01*
X0220793Y0112921D01*
X0220798Y0112860D01*
X0220800Y0112800D01*
X0220800Y0111300D01*
X0220300Y0110800D01*
X0220300Y0091800D01*
X0220800Y0091300D01*
X0220800Y0089800D01*
X0220798Y0089740D01*
X0220793Y0089679D01*
X0220784Y0089620D01*
X0220771Y0089561D01*
X0220755Y0089502D01*
X0220735Y0089445D01*
X0220712Y0089390D01*
X0220685Y0089335D01*
X0220656Y0089283D01*
X0220623Y0089232D01*
X0220587Y0089183D01*
X0220549Y0089137D01*
X0220507Y0089093D01*
X0220463Y0089051D01*
X0220417Y0089013D01*
X0220368Y0088977D01*
X0220317Y0088944D01*
X0220265Y0088915D01*
X0220210Y0088888D01*
X0220155Y0088865D01*
X0220098Y0088845D01*
X0220039Y0088829D01*
X0219980Y0088816D01*
X0219921Y0088807D01*
X0219860Y0088802D01*
X0219800Y0088800D01*
X0212800Y0088800D01*
X0212740Y0088802D01*
X0212679Y0088807D01*
X0212620Y0088816D01*
X0212561Y0088829D01*
X0212502Y0088845D01*
X0212445Y0088865D01*
X0212390Y0088888D01*
X0212335Y0088915D01*
X0212283Y0088944D01*
X0212232Y0088977D01*
X0212183Y0089013D01*
X0212137Y0089051D01*
X0212093Y0089093D01*
X0212051Y0089137D01*
X0212013Y0089183D01*
X0211977Y0089232D01*
X0211944Y0089283D01*
X0211915Y0089335D01*
X0211888Y0089390D01*
X0211865Y0089445D01*
X0211845Y0089502D01*
X0211829Y0089561D01*
X0211816Y0089620D01*
X0211807Y0089679D01*
X0211802Y0089740D01*
X0211800Y0089800D01*
X0211800Y0091300D01*
X0258800Y0069800D02*
X0258800Y0062800D01*
X0258802Y0062740D01*
X0258807Y0062679D01*
X0258816Y0062620D01*
X0258829Y0062561D01*
X0258845Y0062502D01*
X0258865Y0062445D01*
X0258888Y0062390D01*
X0258915Y0062335D01*
X0258944Y0062283D01*
X0258977Y0062232D01*
X0259013Y0062183D01*
X0259051Y0062137D01*
X0259093Y0062093D01*
X0259137Y0062051D01*
X0259183Y0062013D01*
X0259232Y0061977D01*
X0259283Y0061944D01*
X0259335Y0061915D01*
X0259390Y0061888D01*
X0259445Y0061865D01*
X0259502Y0061845D01*
X0259561Y0061829D01*
X0259620Y0061816D01*
X0259679Y0061807D01*
X0259740Y0061802D01*
X0259800Y0061800D01*
X0261300Y0061800D01*
X0261800Y0062300D01*
X0280800Y0062300D01*
X0281300Y0061800D01*
X0282800Y0061800D01*
X0282860Y0061802D01*
X0282921Y0061807D01*
X0282980Y0061816D01*
X0283039Y0061829D01*
X0283098Y0061845D01*
X0283155Y0061865D01*
X0283210Y0061888D01*
X0283265Y0061915D01*
X0283317Y0061944D01*
X0283368Y0061977D01*
X0283417Y0062013D01*
X0283463Y0062051D01*
X0283507Y0062093D01*
X0283549Y0062137D01*
X0283587Y0062183D01*
X0283623Y0062232D01*
X0283656Y0062283D01*
X0283685Y0062335D01*
X0283712Y0062390D01*
X0283735Y0062445D01*
X0283755Y0062502D01*
X0283771Y0062561D01*
X0283784Y0062620D01*
X0283793Y0062679D01*
X0283798Y0062740D01*
X0283800Y0062800D01*
X0283800Y0069800D01*
X0283798Y0069860D01*
X0283793Y0069921D01*
X0283784Y0069980D01*
X0283771Y0070039D01*
X0283755Y0070098D01*
X0283735Y0070155D01*
X0283712Y0070210D01*
X0283685Y0070265D01*
X0283656Y0070317D01*
X0283623Y0070368D01*
X0283587Y0070417D01*
X0283549Y0070463D01*
X0283507Y0070507D01*
X0283463Y0070549D01*
X0283417Y0070587D01*
X0283368Y0070623D01*
X0283317Y0070656D01*
X0283265Y0070685D01*
X0283210Y0070712D01*
X0283155Y0070735D01*
X0283098Y0070755D01*
X0283039Y0070771D01*
X0282980Y0070784D01*
X0282921Y0070793D01*
X0282860Y0070798D01*
X0282800Y0070800D01*
X0281300Y0070800D01*
X0280800Y0070300D01*
X0261800Y0070300D01*
X0261300Y0070800D01*
X0259800Y0070800D01*
X0259740Y0070798D01*
X0259679Y0070793D01*
X0259620Y0070784D01*
X0259561Y0070771D01*
X0259502Y0070755D01*
X0259445Y0070735D01*
X0259390Y0070712D01*
X0259335Y0070685D01*
X0259283Y0070656D01*
X0259232Y0070623D01*
X0259183Y0070587D01*
X0259137Y0070549D01*
X0259093Y0070507D01*
X0259051Y0070463D01*
X0259013Y0070417D01*
X0258977Y0070368D01*
X0258944Y0070317D01*
X0258915Y0070265D01*
X0258888Y0070210D01*
X0258865Y0070155D01*
X0258845Y0070098D01*
X0258829Y0070039D01*
X0258816Y0069980D01*
X0258807Y0069921D01*
X0258802Y0069860D01*
X0258800Y0069800D01*
X0323583Y0100985D02*
X0329292Y0100985D01*
X0329292Y0104922D01*
X0327324Y0104922D01*
X0327324Y0107678D01*
X0329292Y0107678D01*
X0329292Y0111615D01*
X0323583Y0111615D01*
X0258300Y0141300D02*
X0258300Y0151300D01*
X0258298Y0151360D01*
X0258293Y0151421D01*
X0258284Y0151480D01*
X0258271Y0151539D01*
X0258255Y0151598D01*
X0258235Y0151655D01*
X0258212Y0151710D01*
X0258185Y0151765D01*
X0258156Y0151817D01*
X0258123Y0151868D01*
X0258087Y0151917D01*
X0258049Y0151963D01*
X0258007Y0152007D01*
X0257963Y0152049D01*
X0257917Y0152087D01*
X0257868Y0152123D01*
X0257817Y0152156D01*
X0257765Y0152185D01*
X0257710Y0152212D01*
X0257655Y0152235D01*
X0257598Y0152255D01*
X0257539Y0152271D01*
X0257480Y0152284D01*
X0257421Y0152293D01*
X0257360Y0152298D01*
X0257300Y0152300D01*
X0254800Y0152300D01*
X0254300Y0151800D01*
X0228300Y0151800D01*
X0227800Y0152300D01*
X0225300Y0152300D01*
X0225240Y0152298D01*
X0225179Y0152293D01*
X0225120Y0152284D01*
X0225061Y0152271D01*
X0225002Y0152255D01*
X0224945Y0152235D01*
X0224890Y0152212D01*
X0224835Y0152185D01*
X0224783Y0152156D01*
X0224732Y0152123D01*
X0224683Y0152087D01*
X0224637Y0152049D01*
X0224593Y0152007D01*
X0224551Y0151963D01*
X0224513Y0151917D01*
X0224477Y0151868D01*
X0224444Y0151817D01*
X0224415Y0151765D01*
X0224388Y0151710D01*
X0224365Y0151655D01*
X0224345Y0151598D01*
X0224329Y0151539D01*
X0224316Y0151480D01*
X0224307Y0151421D01*
X0224302Y0151360D01*
X0224300Y0151300D01*
X0224300Y0141300D01*
X0224302Y0141240D01*
X0224307Y0141179D01*
X0224316Y0141120D01*
X0224329Y0141061D01*
X0224345Y0141002D01*
X0224365Y0140945D01*
X0224388Y0140890D01*
X0224415Y0140835D01*
X0224444Y0140783D01*
X0224477Y0140732D01*
X0224513Y0140683D01*
X0224551Y0140637D01*
X0224593Y0140593D01*
X0224637Y0140551D01*
X0224683Y0140513D01*
X0224732Y0140477D01*
X0224783Y0140444D01*
X0224835Y0140415D01*
X0224890Y0140388D01*
X0224945Y0140365D01*
X0225002Y0140345D01*
X0225061Y0140329D01*
X0225120Y0140316D01*
X0225179Y0140307D01*
X0225240Y0140302D01*
X0225300Y0140300D01*
X0227800Y0140300D01*
X0228300Y0140800D01*
X0254300Y0140800D01*
X0254800Y0140300D01*
X0257300Y0140300D01*
X0257360Y0140302D01*
X0257421Y0140307D01*
X0257480Y0140316D01*
X0257539Y0140329D01*
X0257598Y0140345D01*
X0257655Y0140365D01*
X0257710Y0140388D01*
X0257765Y0140415D01*
X0257817Y0140444D01*
X0257868Y0140477D01*
X0257917Y0140513D01*
X0257963Y0140551D01*
X0258007Y0140593D01*
X0258049Y0140637D01*
X0258087Y0140683D01*
X0258123Y0140732D01*
X0258156Y0140783D01*
X0258185Y0140835D01*
X0258212Y0140890D01*
X0258235Y0140945D01*
X0258255Y0141002D01*
X0258271Y0141061D01*
X0258284Y0141120D01*
X0258293Y0141179D01*
X0258298Y0141240D01*
X0258300Y0141300D01*
X0256300Y0169800D02*
X0256300Y0192800D01*
X0216300Y0192800D01*
X0216300Y0185300D01*
X0216426Y0185298D01*
X0216551Y0185292D01*
X0216676Y0185282D01*
X0216801Y0185268D01*
X0216926Y0185251D01*
X0217050Y0185229D01*
X0217173Y0185204D01*
X0217295Y0185174D01*
X0217416Y0185141D01*
X0217536Y0185104D01*
X0217655Y0185064D01*
X0217772Y0185019D01*
X0217889Y0184971D01*
X0218003Y0184919D01*
X0218116Y0184864D01*
X0218227Y0184805D01*
X0218336Y0184743D01*
X0218443Y0184677D01*
X0218548Y0184608D01*
X0218651Y0184536D01*
X0218752Y0184461D01*
X0218850Y0184382D01*
X0218945Y0184300D01*
X0219038Y0184216D01*
X0219128Y0184128D01*
X0219216Y0184038D01*
X0219300Y0183945D01*
X0219382Y0183850D01*
X0219461Y0183752D01*
X0219536Y0183651D01*
X0219608Y0183548D01*
X0219677Y0183443D01*
X0219743Y0183336D01*
X0219805Y0183227D01*
X0219864Y0183116D01*
X0219919Y0183003D01*
X0219971Y0182889D01*
X0220019Y0182772D01*
X0220064Y0182655D01*
X0220104Y0182536D01*
X0220141Y0182416D01*
X0220174Y0182295D01*
X0220204Y0182173D01*
X0220229Y0182050D01*
X0220251Y0181926D01*
X0220268Y0181801D01*
X0220282Y0181676D01*
X0220292Y0181551D01*
X0220298Y0181426D01*
X0220300Y0181300D01*
X0220298Y0181174D01*
X0220292Y0181049D01*
X0220282Y0180924D01*
X0220268Y0180799D01*
X0220251Y0180674D01*
X0220229Y0180550D01*
X0220204Y0180427D01*
X0220174Y0180305D01*
X0220141Y0180184D01*
X0220104Y0180064D01*
X0220064Y0179945D01*
X0220019Y0179828D01*
X0219971Y0179711D01*
X0219919Y0179597D01*
X0219864Y0179484D01*
X0219805Y0179373D01*
X0219743Y0179264D01*
X0219677Y0179157D01*
X0219608Y0179052D01*
X0219536Y0178949D01*
X0219461Y0178848D01*
X0219382Y0178750D01*
X0219300Y0178655D01*
X0219216Y0178562D01*
X0219128Y0178472D01*
X0219038Y0178384D01*
X0218945Y0178300D01*
X0218850Y0178218D01*
X0218752Y0178139D01*
X0218651Y0178064D01*
X0218548Y0177992D01*
X0218443Y0177923D01*
X0218336Y0177857D01*
X0218227Y0177795D01*
X0218116Y0177736D01*
X0218003Y0177681D01*
X0217889Y0177629D01*
X0217772Y0177581D01*
X0217655Y0177536D01*
X0217536Y0177496D01*
X0217416Y0177459D01*
X0217295Y0177426D01*
X0217173Y0177396D01*
X0217050Y0177371D01*
X0216926Y0177349D01*
X0216801Y0177332D01*
X0216676Y0177318D01*
X0216551Y0177308D01*
X0216426Y0177302D01*
X0216300Y0177300D01*
X0216300Y0169800D01*
X0256300Y0169800D01*
X0276800Y0174800D02*
X0276800Y0176300D01*
X0277300Y0176800D01*
X0277300Y0195800D01*
X0276800Y0196300D01*
X0276800Y0197800D01*
X0276802Y0197860D01*
X0276807Y0197921D01*
X0276816Y0197980D01*
X0276829Y0198039D01*
X0276845Y0198098D01*
X0276865Y0198155D01*
X0276888Y0198210D01*
X0276915Y0198265D01*
X0276944Y0198317D01*
X0276977Y0198368D01*
X0277013Y0198417D01*
X0277051Y0198463D01*
X0277093Y0198507D01*
X0277137Y0198549D01*
X0277183Y0198587D01*
X0277232Y0198623D01*
X0277283Y0198656D01*
X0277335Y0198685D01*
X0277390Y0198712D01*
X0277445Y0198735D01*
X0277502Y0198755D01*
X0277561Y0198771D01*
X0277620Y0198784D01*
X0277679Y0198793D01*
X0277740Y0198798D01*
X0277800Y0198800D01*
X0284800Y0198800D01*
X0284860Y0198798D01*
X0284921Y0198793D01*
X0284980Y0198784D01*
X0285039Y0198771D01*
X0285098Y0198755D01*
X0285155Y0198735D01*
X0285210Y0198712D01*
X0285265Y0198685D01*
X0285317Y0198656D01*
X0285368Y0198623D01*
X0285417Y0198587D01*
X0285463Y0198549D01*
X0285507Y0198507D01*
X0285549Y0198463D01*
X0285587Y0198417D01*
X0285623Y0198368D01*
X0285656Y0198317D01*
X0285685Y0198265D01*
X0285712Y0198210D01*
X0285735Y0198155D01*
X0285755Y0198098D01*
X0285771Y0198039D01*
X0285784Y0197980D01*
X0285793Y0197921D01*
X0285798Y0197860D01*
X0285800Y0197800D01*
X0285800Y0196300D01*
X0285300Y0195800D01*
X0285300Y0176800D01*
X0285800Y0176300D01*
X0285800Y0174800D01*
X0285798Y0174740D01*
X0285793Y0174679D01*
X0285784Y0174620D01*
X0285771Y0174561D01*
X0285755Y0174502D01*
X0285735Y0174445D01*
X0285712Y0174390D01*
X0285685Y0174335D01*
X0285656Y0174283D01*
X0285623Y0174232D01*
X0285587Y0174183D01*
X0285549Y0174137D01*
X0285507Y0174093D01*
X0285463Y0174051D01*
X0285417Y0174013D01*
X0285368Y0173977D01*
X0285317Y0173944D01*
X0285265Y0173915D01*
X0285210Y0173888D01*
X0285155Y0173865D01*
X0285098Y0173845D01*
X0285039Y0173829D01*
X0284980Y0173816D01*
X0284921Y0173807D01*
X0284860Y0173802D01*
X0284800Y0173800D01*
X0277800Y0173800D01*
X0277740Y0173802D01*
X0277679Y0173807D01*
X0277620Y0173816D01*
X0277561Y0173829D01*
X0277502Y0173845D01*
X0277445Y0173865D01*
X0277390Y0173888D01*
X0277335Y0173915D01*
X0277283Y0173944D01*
X0277232Y0173977D01*
X0277183Y0174013D01*
X0277137Y0174051D01*
X0277093Y0174093D01*
X0277051Y0174137D01*
X0277013Y0174183D01*
X0276977Y0174232D01*
X0276944Y0174283D01*
X0276915Y0174335D01*
X0276888Y0174390D01*
X0276865Y0174445D01*
X0276845Y0174502D01*
X0276829Y0174561D01*
X0276816Y0174620D01*
X0276807Y0174679D01*
X0276802Y0174740D01*
X0276800Y0174800D01*
X0247800Y0206800D02*
X0246300Y0206800D01*
X0245800Y0207300D01*
X0226800Y0207300D01*
X0226300Y0206800D01*
X0224800Y0206800D01*
X0224740Y0206802D01*
X0224679Y0206807D01*
X0224620Y0206816D01*
X0224561Y0206829D01*
X0224502Y0206845D01*
X0224445Y0206865D01*
X0224390Y0206888D01*
X0224335Y0206915D01*
X0224283Y0206944D01*
X0224232Y0206977D01*
X0224183Y0207013D01*
X0224137Y0207051D01*
X0224093Y0207093D01*
X0224051Y0207137D01*
X0224013Y0207183D01*
X0223977Y0207232D01*
X0223944Y0207283D01*
X0223915Y0207335D01*
X0223888Y0207390D01*
X0223865Y0207445D01*
X0223845Y0207502D01*
X0223829Y0207561D01*
X0223816Y0207620D01*
X0223807Y0207679D01*
X0223802Y0207740D01*
X0223800Y0207800D01*
X0223800Y0214800D01*
X0223802Y0214860D01*
X0223807Y0214921D01*
X0223816Y0214980D01*
X0223829Y0215039D01*
X0223845Y0215098D01*
X0223865Y0215155D01*
X0223888Y0215210D01*
X0223915Y0215265D01*
X0223944Y0215317D01*
X0223977Y0215368D01*
X0224013Y0215417D01*
X0224051Y0215463D01*
X0224093Y0215507D01*
X0224137Y0215549D01*
X0224183Y0215587D01*
X0224232Y0215623D01*
X0224283Y0215656D01*
X0224335Y0215685D01*
X0224390Y0215712D01*
X0224445Y0215735D01*
X0224502Y0215755D01*
X0224561Y0215771D01*
X0224620Y0215784D01*
X0224679Y0215793D01*
X0224740Y0215798D01*
X0224800Y0215800D01*
X0226300Y0215800D01*
X0226800Y0215300D01*
X0245800Y0215300D01*
X0246300Y0215800D01*
X0247800Y0215800D01*
X0247860Y0215798D01*
X0247921Y0215793D01*
X0247980Y0215784D01*
X0248039Y0215771D01*
X0248098Y0215755D01*
X0248155Y0215735D01*
X0248210Y0215712D01*
X0248265Y0215685D01*
X0248317Y0215656D01*
X0248368Y0215623D01*
X0248417Y0215587D01*
X0248463Y0215549D01*
X0248507Y0215507D01*
X0248549Y0215463D01*
X0248587Y0215417D01*
X0248623Y0215368D01*
X0248656Y0215317D01*
X0248685Y0215265D01*
X0248712Y0215210D01*
X0248735Y0215155D01*
X0248755Y0215098D01*
X0248771Y0215039D01*
X0248784Y0214980D01*
X0248793Y0214921D01*
X0248798Y0214860D01*
X0248800Y0214800D01*
X0248800Y0207800D01*
X0248798Y0207740D01*
X0248793Y0207679D01*
X0248784Y0207620D01*
X0248771Y0207561D01*
X0248755Y0207502D01*
X0248735Y0207445D01*
X0248712Y0207390D01*
X0248685Y0207335D01*
X0248656Y0207283D01*
X0248623Y0207232D01*
X0248587Y0207183D01*
X0248549Y0207137D01*
X0248507Y0207093D01*
X0248463Y0207051D01*
X0248417Y0207013D01*
X0248368Y0206977D01*
X0248317Y0206944D01*
X0248265Y0206915D01*
X0248210Y0206888D01*
X0248155Y0206865D01*
X0248098Y0206845D01*
X0248039Y0206829D01*
X0247980Y0206816D01*
X0247921Y0206807D01*
X0247860Y0206802D01*
X0247800Y0206800D01*
X0247800Y0226800D02*
X0246300Y0226800D01*
X0245800Y0227300D01*
X0226800Y0227300D01*
X0226300Y0226800D01*
X0224800Y0226800D01*
X0224740Y0226802D01*
X0224679Y0226807D01*
X0224620Y0226816D01*
X0224561Y0226829D01*
X0224502Y0226845D01*
X0224445Y0226865D01*
X0224390Y0226888D01*
X0224335Y0226915D01*
X0224283Y0226944D01*
X0224232Y0226977D01*
X0224183Y0227013D01*
X0224137Y0227051D01*
X0224093Y0227093D01*
X0224051Y0227137D01*
X0224013Y0227183D01*
X0223977Y0227232D01*
X0223944Y0227283D01*
X0223915Y0227335D01*
X0223888Y0227390D01*
X0223865Y0227445D01*
X0223845Y0227502D01*
X0223829Y0227561D01*
X0223816Y0227620D01*
X0223807Y0227679D01*
X0223802Y0227740D01*
X0223800Y0227800D01*
X0223800Y0234800D01*
X0223802Y0234860D01*
X0223807Y0234921D01*
X0223816Y0234980D01*
X0223829Y0235039D01*
X0223845Y0235098D01*
X0223865Y0235155D01*
X0223888Y0235210D01*
X0223915Y0235265D01*
X0223944Y0235317D01*
X0223977Y0235368D01*
X0224013Y0235417D01*
X0224051Y0235463D01*
X0224093Y0235507D01*
X0224137Y0235549D01*
X0224183Y0235587D01*
X0224232Y0235623D01*
X0224283Y0235656D01*
X0224335Y0235685D01*
X0224390Y0235712D01*
X0224445Y0235735D01*
X0224502Y0235755D01*
X0224561Y0235771D01*
X0224620Y0235784D01*
X0224679Y0235793D01*
X0224740Y0235798D01*
X0224800Y0235800D01*
X0226300Y0235800D01*
X0226800Y0235300D01*
X0245800Y0235300D01*
X0246300Y0235800D01*
X0247800Y0235800D01*
X0247860Y0235798D01*
X0247921Y0235793D01*
X0247980Y0235784D01*
X0248039Y0235771D01*
X0248098Y0235755D01*
X0248155Y0235735D01*
X0248210Y0235712D01*
X0248265Y0235685D01*
X0248317Y0235656D01*
X0248368Y0235623D01*
X0248417Y0235587D01*
X0248463Y0235549D01*
X0248507Y0235507D01*
X0248549Y0235463D01*
X0248587Y0235417D01*
X0248623Y0235368D01*
X0248656Y0235317D01*
X0248685Y0235265D01*
X0248712Y0235210D01*
X0248735Y0235155D01*
X0248755Y0235098D01*
X0248771Y0235039D01*
X0248784Y0234980D01*
X0248793Y0234921D01*
X0248798Y0234860D01*
X0248800Y0234800D01*
X0248800Y0227800D01*
X0248798Y0227740D01*
X0248793Y0227679D01*
X0248784Y0227620D01*
X0248771Y0227561D01*
X0248755Y0227502D01*
X0248735Y0227445D01*
X0248712Y0227390D01*
X0248685Y0227335D01*
X0248656Y0227283D01*
X0248623Y0227232D01*
X0248587Y0227183D01*
X0248549Y0227137D01*
X0248507Y0227093D01*
X0248463Y0227051D01*
X0248417Y0227013D01*
X0248368Y0226977D01*
X0248317Y0226944D01*
X0248265Y0226915D01*
X0248210Y0226888D01*
X0248155Y0226865D01*
X0248098Y0226845D01*
X0248039Y0226829D01*
X0247980Y0226816D01*
X0247921Y0226807D01*
X0247860Y0226802D01*
X0247800Y0226800D01*
X0247800Y0257300D02*
X0246300Y0257300D01*
X0244800Y0257300D01*
X0237800Y0257300D01*
X0236300Y0257300D01*
X0236300Y0286300D01*
X0237800Y0286300D01*
X0244800Y0286300D01*
X0246300Y0286300D01*
X0247800Y0286300D01*
X0254800Y0286300D01*
X0256300Y0286300D01*
X0257800Y0286300D01*
X0264800Y0286300D01*
X0266300Y0286300D01*
X0267800Y0286300D01*
X0274800Y0286300D01*
X0276300Y0286300D01*
X0277800Y0286300D01*
X0286300Y0286300D01*
X0286300Y0257300D01*
X0277800Y0257300D01*
X0276300Y0257300D01*
X0267800Y0257300D01*
X0266300Y0257300D01*
X0264800Y0257300D01*
X0257800Y0257300D01*
X0256300Y0257300D01*
X0254800Y0257300D01*
X0247800Y0257300D01*
X0246300Y0257300D02*
X0246300Y0286300D01*
X0236300Y0286300D02*
X0234800Y0286300D01*
X0227800Y0286300D01*
X0226300Y0286300D01*
X0226300Y0257300D01*
X0227800Y0257300D01*
X0234800Y0257300D01*
X0236300Y0257300D01*
X0226300Y0257300D02*
X0224800Y0257300D01*
X0217800Y0257300D01*
X0216300Y0257300D01*
X0216300Y0286300D01*
X0217800Y0286300D01*
X0224800Y0286300D01*
X0226300Y0286300D01*
X0216300Y0286300D02*
X0214800Y0286300D01*
X0207800Y0286300D01*
X0206300Y0286300D01*
X0206300Y0257300D01*
X0207800Y0257300D01*
X0214800Y0257300D01*
X0216300Y0257300D01*
X0206300Y0257300D02*
X0204800Y0257300D01*
X0196300Y0257300D01*
X0196300Y0286300D01*
X0204800Y0286300D01*
X0206300Y0286300D01*
X0196300Y0257300D02*
X0196300Y0255300D01*
X0286300Y0255300D01*
X0286300Y0257300D01*
X0276300Y0257300D02*
X0276300Y0286300D01*
X0266300Y0286300D02*
X0266300Y0257300D01*
X0256300Y0257300D02*
X0256300Y0286300D01*
X0163800Y0214800D02*
X0163800Y0207800D01*
X0163798Y0207740D01*
X0163793Y0207679D01*
X0163784Y0207620D01*
X0163771Y0207561D01*
X0163755Y0207502D01*
X0163735Y0207445D01*
X0163712Y0207390D01*
X0163685Y0207335D01*
X0163656Y0207283D01*
X0163623Y0207232D01*
X0163587Y0207183D01*
X0163549Y0207137D01*
X0163507Y0207093D01*
X0163463Y0207051D01*
X0163417Y0207013D01*
X0163368Y0206977D01*
X0163317Y0206944D01*
X0163265Y0206915D01*
X0163210Y0206888D01*
X0163155Y0206865D01*
X0163098Y0206845D01*
X0163039Y0206829D01*
X0162980Y0206816D01*
X0162921Y0206807D01*
X0162860Y0206802D01*
X0162800Y0206800D01*
X0161300Y0206800D01*
X0160800Y0207300D01*
X0141800Y0207300D01*
X0141300Y0206800D01*
X0139800Y0206800D01*
X0139740Y0206802D01*
X0139679Y0206807D01*
X0139620Y0206816D01*
X0139561Y0206829D01*
X0139502Y0206845D01*
X0139445Y0206865D01*
X0139390Y0206888D01*
X0139335Y0206915D01*
X0139283Y0206944D01*
X0139232Y0206977D01*
X0139183Y0207013D01*
X0139137Y0207051D01*
X0139093Y0207093D01*
X0139051Y0207137D01*
X0139013Y0207183D01*
X0138977Y0207232D01*
X0138944Y0207283D01*
X0138915Y0207335D01*
X0138888Y0207390D01*
X0138865Y0207445D01*
X0138845Y0207502D01*
X0138829Y0207561D01*
X0138816Y0207620D01*
X0138807Y0207679D01*
X0138802Y0207740D01*
X0138800Y0207800D01*
X0138800Y0214800D01*
X0138802Y0214860D01*
X0138807Y0214921D01*
X0138816Y0214980D01*
X0138829Y0215039D01*
X0138845Y0215098D01*
X0138865Y0215155D01*
X0138888Y0215210D01*
X0138915Y0215265D01*
X0138944Y0215317D01*
X0138977Y0215368D01*
X0139013Y0215417D01*
X0139051Y0215463D01*
X0139093Y0215507D01*
X0139137Y0215549D01*
X0139183Y0215587D01*
X0139232Y0215623D01*
X0139283Y0215656D01*
X0139335Y0215685D01*
X0139390Y0215712D01*
X0139445Y0215735D01*
X0139502Y0215755D01*
X0139561Y0215771D01*
X0139620Y0215784D01*
X0139679Y0215793D01*
X0139740Y0215798D01*
X0139800Y0215800D01*
X0141300Y0215800D01*
X0141800Y0215300D01*
X0160800Y0215300D01*
X0161300Y0215800D01*
X0162800Y0215800D01*
X0162860Y0215798D01*
X0162921Y0215793D01*
X0162980Y0215784D01*
X0163039Y0215771D01*
X0163098Y0215755D01*
X0163155Y0215735D01*
X0163210Y0215712D01*
X0163265Y0215685D01*
X0163317Y0215656D01*
X0163368Y0215623D01*
X0163417Y0215587D01*
X0163463Y0215549D01*
X0163507Y0215507D01*
X0163549Y0215463D01*
X0163587Y0215417D01*
X0163623Y0215368D01*
X0163656Y0215317D01*
X0163685Y0215265D01*
X0163712Y0215210D01*
X0163735Y0215155D01*
X0163755Y0215098D01*
X0163771Y0215039D01*
X0163784Y0214980D01*
X0163793Y0214921D01*
X0163798Y0214860D01*
X0163800Y0214800D01*
X0162800Y0180800D02*
X0161300Y0180800D01*
X0160800Y0180300D01*
X0141800Y0180300D01*
X0141300Y0180800D01*
X0139800Y0180800D01*
X0139740Y0180798D01*
X0139679Y0180793D01*
X0139620Y0180784D01*
X0139561Y0180771D01*
X0139502Y0180755D01*
X0139445Y0180735D01*
X0139390Y0180712D01*
X0139335Y0180685D01*
X0139283Y0180656D01*
X0139232Y0180623D01*
X0139183Y0180587D01*
X0139137Y0180549D01*
X0139093Y0180507D01*
X0139051Y0180463D01*
X0139013Y0180417D01*
X0138977Y0180368D01*
X0138944Y0180317D01*
X0138915Y0180265D01*
X0138888Y0180210D01*
X0138865Y0180155D01*
X0138845Y0180098D01*
X0138829Y0180039D01*
X0138816Y0179980D01*
X0138807Y0179921D01*
X0138802Y0179860D01*
X0138800Y0179800D01*
X0138800Y0172800D01*
X0138802Y0172740D01*
X0138807Y0172679D01*
X0138816Y0172620D01*
X0138829Y0172561D01*
X0138845Y0172502D01*
X0138865Y0172445D01*
X0138888Y0172390D01*
X0138915Y0172335D01*
X0138944Y0172283D01*
X0138977Y0172232D01*
X0139013Y0172183D01*
X0139051Y0172137D01*
X0139093Y0172093D01*
X0139137Y0172051D01*
X0139183Y0172013D01*
X0139232Y0171977D01*
X0139283Y0171944D01*
X0139335Y0171915D01*
X0139390Y0171888D01*
X0139445Y0171865D01*
X0139502Y0171845D01*
X0139561Y0171829D01*
X0139620Y0171816D01*
X0139679Y0171807D01*
X0139740Y0171802D01*
X0139800Y0171800D01*
X0141300Y0171800D01*
X0141800Y0172300D01*
X0160800Y0172300D01*
X0161300Y0171800D01*
X0162800Y0171800D01*
X0162860Y0171802D01*
X0162921Y0171807D01*
X0162980Y0171816D01*
X0163039Y0171829D01*
X0163098Y0171845D01*
X0163155Y0171865D01*
X0163210Y0171888D01*
X0163265Y0171915D01*
X0163317Y0171944D01*
X0163368Y0171977D01*
X0163417Y0172013D01*
X0163463Y0172051D01*
X0163507Y0172093D01*
X0163549Y0172137D01*
X0163587Y0172183D01*
X0163623Y0172232D01*
X0163656Y0172283D01*
X0163685Y0172335D01*
X0163712Y0172390D01*
X0163735Y0172445D01*
X0163755Y0172502D01*
X0163771Y0172561D01*
X0163784Y0172620D01*
X0163793Y0172679D01*
X0163798Y0172740D01*
X0163800Y0172800D01*
X0163800Y0179800D01*
X0163798Y0179860D01*
X0163793Y0179921D01*
X0163784Y0179980D01*
X0163771Y0180039D01*
X0163755Y0180098D01*
X0163735Y0180155D01*
X0163712Y0180210D01*
X0163685Y0180265D01*
X0163656Y0180317D01*
X0163623Y0180368D01*
X0163587Y0180417D01*
X0163549Y0180463D01*
X0163507Y0180507D01*
X0163463Y0180549D01*
X0163417Y0180587D01*
X0163368Y0180623D01*
X0163317Y0180656D01*
X0163265Y0180685D01*
X0163210Y0180712D01*
X0163155Y0180735D01*
X0163098Y0180755D01*
X0163039Y0180771D01*
X0162980Y0180784D01*
X0162921Y0180793D01*
X0162860Y0180798D01*
X0162800Y0180800D01*
X0088800Y0222800D02*
X0088800Y0229800D01*
X0088798Y0229860D01*
X0088793Y0229921D01*
X0088784Y0229980D01*
X0088771Y0230039D01*
X0088755Y0230098D01*
X0088735Y0230155D01*
X0088712Y0230210D01*
X0088685Y0230265D01*
X0088656Y0230317D01*
X0088623Y0230368D01*
X0088587Y0230417D01*
X0088549Y0230463D01*
X0088507Y0230507D01*
X0088463Y0230549D01*
X0088417Y0230587D01*
X0088368Y0230623D01*
X0088317Y0230656D01*
X0088265Y0230685D01*
X0088210Y0230712D01*
X0088155Y0230735D01*
X0088098Y0230755D01*
X0088039Y0230771D01*
X0087980Y0230784D01*
X0087921Y0230793D01*
X0087860Y0230798D01*
X0087800Y0230800D01*
X0086300Y0230800D01*
X0085800Y0230300D01*
X0066800Y0230300D01*
X0066300Y0230800D01*
X0064800Y0230800D01*
X0064740Y0230798D01*
X0064679Y0230793D01*
X0064620Y0230784D01*
X0064561Y0230771D01*
X0064502Y0230755D01*
X0064445Y0230735D01*
X0064390Y0230712D01*
X0064335Y0230685D01*
X0064283Y0230656D01*
X0064232Y0230623D01*
X0064183Y0230587D01*
X0064137Y0230549D01*
X0064093Y0230507D01*
X0064051Y0230463D01*
X0064013Y0230417D01*
X0063977Y0230368D01*
X0063944Y0230317D01*
X0063915Y0230265D01*
X0063888Y0230210D01*
X0063865Y0230155D01*
X0063845Y0230098D01*
X0063829Y0230039D01*
X0063816Y0229980D01*
X0063807Y0229921D01*
X0063802Y0229860D01*
X0063800Y0229800D01*
X0063800Y0222800D01*
X0063802Y0222740D01*
X0063807Y0222679D01*
X0063816Y0222620D01*
X0063829Y0222561D01*
X0063845Y0222502D01*
X0063865Y0222445D01*
X0063888Y0222390D01*
X0063915Y0222335D01*
X0063944Y0222283D01*
X0063977Y0222232D01*
X0064013Y0222183D01*
X0064051Y0222137D01*
X0064093Y0222093D01*
X0064137Y0222051D01*
X0064183Y0222013D01*
X0064232Y0221977D01*
X0064283Y0221944D01*
X0064335Y0221915D01*
X0064390Y0221888D01*
X0064445Y0221865D01*
X0064502Y0221845D01*
X0064561Y0221829D01*
X0064620Y0221816D01*
X0064679Y0221807D01*
X0064740Y0221802D01*
X0064800Y0221800D01*
X0066300Y0221800D01*
X0066800Y0222300D01*
X0085800Y0222300D01*
X0086300Y0221800D01*
X0087800Y0221800D01*
X0087860Y0221802D01*
X0087921Y0221807D01*
X0087980Y0221816D01*
X0088039Y0221829D01*
X0088098Y0221845D01*
X0088155Y0221865D01*
X0088210Y0221888D01*
X0088265Y0221915D01*
X0088317Y0221944D01*
X0088368Y0221977D01*
X0088417Y0222013D01*
X0088463Y0222051D01*
X0088507Y0222093D01*
X0088549Y0222137D01*
X0088587Y0222183D01*
X0088623Y0222232D01*
X0088656Y0222283D01*
X0088685Y0222335D01*
X0088712Y0222390D01*
X0088735Y0222445D01*
X0088755Y0222502D01*
X0088771Y0222561D01*
X0088784Y0222620D01*
X0088793Y0222679D01*
X0088798Y0222740D01*
X0088800Y0222800D01*
D14*
X0073393Y0232675D02*
X0073342Y0232784D01*
X0073295Y0232894D01*
X0073251Y0233006D01*
X0073211Y0233120D01*
X0073175Y0233234D01*
X0073142Y0233350D01*
X0073113Y0233466D01*
X0073088Y0233584D01*
X0073067Y0233702D01*
X0073049Y0233821D01*
X0073036Y0233940D01*
X0073026Y0234060D01*
X0073020Y0234180D01*
X0073018Y0234300D01*
X0075517Y0234300D02*
X0075515Y0234180D01*
X0075509Y0234060D01*
X0075499Y0233940D01*
X0075486Y0233821D01*
X0075468Y0233702D01*
X0075447Y0233584D01*
X0075422Y0233466D01*
X0075393Y0233350D01*
X0075360Y0233234D01*
X0075324Y0233120D01*
X0075284Y0233006D01*
X0075240Y0232894D01*
X0075193Y0232784D01*
X0075142Y0232675D01*
X0075121Y0232619D01*
X0075095Y0232564D01*
X0075067Y0232510D01*
X0075035Y0232459D01*
X0075000Y0232410D01*
X0074961Y0232364D01*
X0074920Y0232320D01*
X0074876Y0232278D01*
X0074829Y0232240D01*
X0074780Y0232205D01*
X0074728Y0232173D01*
X0074675Y0232145D01*
X0074620Y0232120D01*
X0074564Y0232099D01*
X0074506Y0232081D01*
X0074447Y0232068D01*
X0074387Y0232058D01*
X0074327Y0232052D01*
X0074267Y0232050D01*
X0074207Y0232052D01*
X0074147Y0232058D01*
X0074087Y0232068D01*
X0074028Y0232081D01*
X0073970Y0232099D01*
X0073914Y0232120D01*
X0073859Y0232145D01*
X0073806Y0232173D01*
X0073754Y0232205D01*
X0073705Y0232240D01*
X0073658Y0232278D01*
X0073614Y0232320D01*
X0073573Y0232364D01*
X0073534Y0232410D01*
X0073499Y0232459D01*
X0073467Y0232510D01*
X0073439Y0232564D01*
X0073413Y0232619D01*
X0073392Y0232675D01*
X0073267Y0233050D02*
X0075267Y0235550D01*
X0075142Y0235925D02*
X0075121Y0235981D01*
X0075095Y0236036D01*
X0075067Y0236090D01*
X0075035Y0236141D01*
X0075000Y0236190D01*
X0074961Y0236236D01*
X0074920Y0236280D01*
X0074876Y0236322D01*
X0074829Y0236360D01*
X0074780Y0236395D01*
X0074728Y0236427D01*
X0074675Y0236455D01*
X0074620Y0236480D01*
X0074564Y0236501D01*
X0074506Y0236519D01*
X0074447Y0236532D01*
X0074387Y0236542D01*
X0074327Y0236548D01*
X0074267Y0236550D01*
X0074207Y0236548D01*
X0074147Y0236542D01*
X0074087Y0236532D01*
X0074028Y0236519D01*
X0073970Y0236501D01*
X0073914Y0236480D01*
X0073859Y0236455D01*
X0073806Y0236427D01*
X0073754Y0236395D01*
X0073705Y0236360D01*
X0073658Y0236322D01*
X0073614Y0236280D01*
X0073573Y0236236D01*
X0073534Y0236190D01*
X0073499Y0236141D01*
X0073467Y0236090D01*
X0073439Y0236036D01*
X0073413Y0235981D01*
X0073392Y0235925D01*
X0075142Y0235925D02*
X0075193Y0235816D01*
X0075240Y0235706D01*
X0075284Y0235594D01*
X0075324Y0235480D01*
X0075360Y0235366D01*
X0075393Y0235250D01*
X0075422Y0235134D01*
X0075447Y0235016D01*
X0075468Y0234898D01*
X0075486Y0234779D01*
X0075499Y0234660D01*
X0075509Y0234540D01*
X0075515Y0234420D01*
X0075517Y0234300D01*
X0073018Y0234300D02*
X0073020Y0234420D01*
X0073026Y0234540D01*
X0073036Y0234660D01*
X0073049Y0234779D01*
X0073067Y0234898D01*
X0073088Y0235016D01*
X0073113Y0235134D01*
X0073142Y0235250D01*
X0073175Y0235366D01*
X0073211Y0235480D01*
X0073251Y0235594D01*
X0073295Y0235706D01*
X0073342Y0235816D01*
X0073393Y0235925D01*
X0069767Y0236550D02*
X0068517Y0235550D01*
X0069767Y0236550D02*
X0069767Y0232050D01*
X0068517Y0232050D02*
X0071017Y0232050D01*
X0066550Y0232050D02*
X0065550Y0234050D01*
X0065300Y0234050D02*
X0064050Y0234050D01*
X0065300Y0234050D02*
X0065369Y0234052D01*
X0065438Y0234058D01*
X0065506Y0234067D01*
X0065573Y0234080D01*
X0065640Y0234097D01*
X0065706Y0234118D01*
X0065770Y0234142D01*
X0065833Y0234170D01*
X0065895Y0234201D01*
X0065955Y0234235D01*
X0066012Y0234273D01*
X0066068Y0234314D01*
X0066121Y0234357D01*
X0066172Y0234404D01*
X0066220Y0234453D01*
X0066265Y0234505D01*
X0066307Y0234560D01*
X0066346Y0234616D01*
X0066383Y0234675D01*
X0066415Y0234736D01*
X0066445Y0234798D01*
X0066471Y0234862D01*
X0066493Y0234927D01*
X0066512Y0234993D01*
X0066527Y0235060D01*
X0066538Y0235128D01*
X0066546Y0235197D01*
X0066550Y0235266D01*
X0066550Y0235334D01*
X0066546Y0235403D01*
X0066538Y0235472D01*
X0066527Y0235540D01*
X0066512Y0235607D01*
X0066493Y0235673D01*
X0066471Y0235738D01*
X0066445Y0235802D01*
X0066415Y0235864D01*
X0066383Y0235925D01*
X0066346Y0235984D01*
X0066307Y0236040D01*
X0066265Y0236095D01*
X0066220Y0236147D01*
X0066172Y0236196D01*
X0066121Y0236243D01*
X0066068Y0236286D01*
X0066012Y0236327D01*
X0065955Y0236365D01*
X0065895Y0236399D01*
X0065833Y0236430D01*
X0065770Y0236458D01*
X0065706Y0236482D01*
X0065640Y0236503D01*
X0065573Y0236520D01*
X0065506Y0236533D01*
X0065438Y0236542D01*
X0065369Y0236548D01*
X0065300Y0236550D01*
X0064050Y0236550D01*
X0064050Y0232050D01*
X0139050Y0221550D02*
X0139050Y0217050D01*
X0139050Y0219050D02*
X0140300Y0219050D01*
X0140550Y0219050D02*
X0141550Y0217050D01*
X0143517Y0217050D02*
X0145017Y0217050D01*
X0145077Y0217052D01*
X0145138Y0217057D01*
X0145197Y0217066D01*
X0145256Y0217079D01*
X0145315Y0217095D01*
X0145372Y0217115D01*
X0145427Y0217138D01*
X0145482Y0217165D01*
X0145534Y0217194D01*
X0145585Y0217227D01*
X0145634Y0217263D01*
X0145680Y0217301D01*
X0145724Y0217343D01*
X0145766Y0217387D01*
X0145804Y0217433D01*
X0145840Y0217482D01*
X0145873Y0217533D01*
X0145902Y0217585D01*
X0145929Y0217640D01*
X0145952Y0217695D01*
X0145972Y0217752D01*
X0145988Y0217811D01*
X0146001Y0217870D01*
X0146010Y0217929D01*
X0146015Y0217990D01*
X0146017Y0218050D01*
X0146017Y0218550D01*
X0146015Y0218610D01*
X0146010Y0218671D01*
X0146001Y0218730D01*
X0145988Y0218789D01*
X0145972Y0218848D01*
X0145952Y0218905D01*
X0145929Y0218960D01*
X0145902Y0219015D01*
X0145873Y0219067D01*
X0145840Y0219118D01*
X0145804Y0219167D01*
X0145766Y0219213D01*
X0145724Y0219257D01*
X0145680Y0219299D01*
X0145634Y0219337D01*
X0145585Y0219373D01*
X0145534Y0219406D01*
X0145482Y0219435D01*
X0145427Y0219462D01*
X0145372Y0219485D01*
X0145315Y0219505D01*
X0145256Y0219521D01*
X0145197Y0219534D01*
X0145138Y0219543D01*
X0145077Y0219548D01*
X0145017Y0219550D01*
X0143517Y0219550D01*
X0143517Y0221550D01*
X0146017Y0221550D01*
X0140300Y0221550D02*
X0139050Y0221550D01*
X0140300Y0221550D02*
X0140369Y0221548D01*
X0140438Y0221542D01*
X0140506Y0221533D01*
X0140573Y0221520D01*
X0140640Y0221503D01*
X0140706Y0221482D01*
X0140770Y0221458D01*
X0140833Y0221430D01*
X0140895Y0221399D01*
X0140955Y0221365D01*
X0141012Y0221327D01*
X0141068Y0221286D01*
X0141121Y0221243D01*
X0141172Y0221196D01*
X0141220Y0221147D01*
X0141265Y0221095D01*
X0141307Y0221040D01*
X0141346Y0220984D01*
X0141383Y0220925D01*
X0141415Y0220864D01*
X0141445Y0220802D01*
X0141471Y0220738D01*
X0141493Y0220673D01*
X0141512Y0220607D01*
X0141527Y0220540D01*
X0141538Y0220472D01*
X0141546Y0220403D01*
X0141550Y0220334D01*
X0141550Y0220266D01*
X0141546Y0220197D01*
X0141538Y0220128D01*
X0141527Y0220060D01*
X0141512Y0219993D01*
X0141493Y0219927D01*
X0141471Y0219862D01*
X0141445Y0219798D01*
X0141415Y0219736D01*
X0141383Y0219675D01*
X0141346Y0219616D01*
X0141307Y0219560D01*
X0141265Y0219505D01*
X0141220Y0219453D01*
X0141172Y0219404D01*
X0141121Y0219357D01*
X0141068Y0219314D01*
X0141012Y0219273D01*
X0140955Y0219235D01*
X0140895Y0219201D01*
X0140833Y0219170D01*
X0140770Y0219142D01*
X0140706Y0219118D01*
X0140640Y0219097D01*
X0140573Y0219080D01*
X0140506Y0219067D01*
X0140438Y0219058D01*
X0140369Y0219052D01*
X0140300Y0219050D01*
X0140300Y0186550D02*
X0139050Y0186550D01*
X0139050Y0182050D01*
X0139050Y0184050D02*
X0140300Y0184050D01*
X0140550Y0184050D02*
X0141550Y0182050D01*
X0143517Y0183300D02*
X0143519Y0183231D01*
X0143525Y0183162D01*
X0143534Y0183094D01*
X0143547Y0183027D01*
X0143564Y0182960D01*
X0143585Y0182894D01*
X0143609Y0182830D01*
X0143637Y0182767D01*
X0143668Y0182705D01*
X0143702Y0182645D01*
X0143740Y0182588D01*
X0143781Y0182532D01*
X0143824Y0182479D01*
X0143871Y0182428D01*
X0143920Y0182380D01*
X0143972Y0182335D01*
X0144027Y0182293D01*
X0144083Y0182254D01*
X0144142Y0182217D01*
X0144203Y0182185D01*
X0144265Y0182155D01*
X0144329Y0182129D01*
X0144394Y0182107D01*
X0144460Y0182088D01*
X0144527Y0182073D01*
X0144595Y0182062D01*
X0144664Y0182054D01*
X0144733Y0182050D01*
X0144801Y0182050D01*
X0144870Y0182054D01*
X0144939Y0182062D01*
X0145007Y0182073D01*
X0145074Y0182088D01*
X0145140Y0182107D01*
X0145205Y0182129D01*
X0145269Y0182155D01*
X0145331Y0182185D01*
X0145392Y0182217D01*
X0145451Y0182254D01*
X0145507Y0182293D01*
X0145562Y0182335D01*
X0145614Y0182380D01*
X0145663Y0182428D01*
X0145710Y0182479D01*
X0145753Y0182532D01*
X0145794Y0182588D01*
X0145832Y0182645D01*
X0145866Y0182705D01*
X0145897Y0182767D01*
X0145925Y0182830D01*
X0145949Y0182894D01*
X0145970Y0182960D01*
X0145987Y0183027D01*
X0146000Y0183094D01*
X0146009Y0183162D01*
X0146015Y0183231D01*
X0146017Y0183300D01*
X0146015Y0183369D01*
X0146009Y0183438D01*
X0146000Y0183506D01*
X0145987Y0183573D01*
X0145970Y0183640D01*
X0145949Y0183706D01*
X0145925Y0183770D01*
X0145897Y0183833D01*
X0145866Y0183895D01*
X0145832Y0183955D01*
X0145794Y0184012D01*
X0145753Y0184068D01*
X0145710Y0184121D01*
X0145663Y0184172D01*
X0145614Y0184220D01*
X0145562Y0184265D01*
X0145507Y0184307D01*
X0145451Y0184346D01*
X0145392Y0184383D01*
X0145331Y0184415D01*
X0145269Y0184445D01*
X0145205Y0184471D01*
X0145140Y0184493D01*
X0145074Y0184512D01*
X0145007Y0184527D01*
X0144939Y0184538D01*
X0144870Y0184546D01*
X0144801Y0184550D01*
X0144733Y0184550D01*
X0144664Y0184546D01*
X0144595Y0184538D01*
X0144527Y0184527D01*
X0144460Y0184512D01*
X0144394Y0184493D01*
X0144329Y0184471D01*
X0144265Y0184445D01*
X0144203Y0184415D01*
X0144142Y0184383D01*
X0144083Y0184346D01*
X0144027Y0184307D01*
X0143972Y0184265D01*
X0143920Y0184220D01*
X0143871Y0184172D01*
X0143824Y0184121D01*
X0143781Y0184068D01*
X0143740Y0184012D01*
X0143702Y0183955D01*
X0143668Y0183895D01*
X0143637Y0183833D01*
X0143609Y0183770D01*
X0143585Y0183706D01*
X0143564Y0183640D01*
X0143547Y0183573D01*
X0143534Y0183506D01*
X0143525Y0183438D01*
X0143519Y0183369D01*
X0143517Y0183300D01*
X0143767Y0185550D02*
X0143769Y0185488D01*
X0143775Y0185427D01*
X0143784Y0185366D01*
X0143797Y0185306D01*
X0143814Y0185247D01*
X0143835Y0185189D01*
X0143859Y0185132D01*
X0143886Y0185077D01*
X0143917Y0185024D01*
X0143951Y0184972D01*
X0143988Y0184923D01*
X0144028Y0184876D01*
X0144071Y0184832D01*
X0144116Y0184791D01*
X0144164Y0184752D01*
X0144215Y0184716D01*
X0144267Y0184684D01*
X0144321Y0184655D01*
X0144377Y0184629D01*
X0144435Y0184607D01*
X0144493Y0184588D01*
X0144553Y0184573D01*
X0144614Y0184562D01*
X0144675Y0184554D01*
X0144736Y0184550D01*
X0144798Y0184550D01*
X0144859Y0184554D01*
X0144920Y0184562D01*
X0144981Y0184573D01*
X0145041Y0184588D01*
X0145099Y0184607D01*
X0145157Y0184629D01*
X0145213Y0184655D01*
X0145267Y0184684D01*
X0145319Y0184716D01*
X0145370Y0184752D01*
X0145418Y0184791D01*
X0145463Y0184832D01*
X0145506Y0184876D01*
X0145546Y0184923D01*
X0145583Y0184972D01*
X0145617Y0185024D01*
X0145648Y0185077D01*
X0145675Y0185132D01*
X0145699Y0185189D01*
X0145720Y0185247D01*
X0145737Y0185306D01*
X0145750Y0185366D01*
X0145759Y0185427D01*
X0145765Y0185488D01*
X0145767Y0185550D01*
X0145765Y0185612D01*
X0145759Y0185673D01*
X0145750Y0185734D01*
X0145737Y0185794D01*
X0145720Y0185853D01*
X0145699Y0185911D01*
X0145675Y0185968D01*
X0145648Y0186023D01*
X0145617Y0186076D01*
X0145583Y0186128D01*
X0145546Y0186177D01*
X0145506Y0186224D01*
X0145463Y0186268D01*
X0145418Y0186309D01*
X0145370Y0186348D01*
X0145319Y0186384D01*
X0145267Y0186416D01*
X0145213Y0186445D01*
X0145157Y0186471D01*
X0145099Y0186493D01*
X0145041Y0186512D01*
X0144981Y0186527D01*
X0144920Y0186538D01*
X0144859Y0186546D01*
X0144798Y0186550D01*
X0144736Y0186550D01*
X0144675Y0186546D01*
X0144614Y0186538D01*
X0144553Y0186527D01*
X0144493Y0186512D01*
X0144435Y0186493D01*
X0144377Y0186471D01*
X0144321Y0186445D01*
X0144267Y0186416D01*
X0144215Y0186384D01*
X0144164Y0186348D01*
X0144116Y0186309D01*
X0144071Y0186268D01*
X0144028Y0186224D01*
X0143988Y0186177D01*
X0143951Y0186128D01*
X0143917Y0186076D01*
X0143886Y0186023D01*
X0143859Y0185968D01*
X0143835Y0185911D01*
X0143814Y0185853D01*
X0143797Y0185794D01*
X0143784Y0185734D01*
X0143775Y0185673D01*
X0143769Y0185612D01*
X0143767Y0185550D01*
X0140300Y0186550D02*
X0140369Y0186548D01*
X0140438Y0186542D01*
X0140506Y0186533D01*
X0140573Y0186520D01*
X0140640Y0186503D01*
X0140706Y0186482D01*
X0140770Y0186458D01*
X0140833Y0186430D01*
X0140895Y0186399D01*
X0140955Y0186365D01*
X0141012Y0186327D01*
X0141068Y0186286D01*
X0141121Y0186243D01*
X0141172Y0186196D01*
X0141220Y0186147D01*
X0141265Y0186095D01*
X0141307Y0186040D01*
X0141346Y0185984D01*
X0141383Y0185925D01*
X0141415Y0185864D01*
X0141445Y0185802D01*
X0141471Y0185738D01*
X0141493Y0185673D01*
X0141512Y0185607D01*
X0141527Y0185540D01*
X0141538Y0185472D01*
X0141546Y0185403D01*
X0141550Y0185334D01*
X0141550Y0185266D01*
X0141546Y0185197D01*
X0141538Y0185128D01*
X0141527Y0185060D01*
X0141512Y0184993D01*
X0141493Y0184927D01*
X0141471Y0184862D01*
X0141445Y0184798D01*
X0141415Y0184736D01*
X0141383Y0184675D01*
X0141346Y0184616D01*
X0141307Y0184560D01*
X0141265Y0184505D01*
X0141220Y0184453D01*
X0141172Y0184404D01*
X0141121Y0184357D01*
X0141068Y0184314D01*
X0141012Y0184273D01*
X0140955Y0184235D01*
X0140895Y0184201D01*
X0140833Y0184170D01*
X0140770Y0184142D01*
X0140706Y0184118D01*
X0140640Y0184097D01*
X0140573Y0184080D01*
X0140506Y0184067D01*
X0140438Y0184058D01*
X0140369Y0184052D01*
X0140300Y0184050D01*
X0154550Y0167550D02*
X0155550Y0167550D01*
X0155050Y0167550D02*
X0155050Y0163050D01*
X0154550Y0163050D02*
X0155550Y0163050D01*
X0157385Y0164050D02*
X0157385Y0166550D01*
X0157387Y0166610D01*
X0157392Y0166671D01*
X0157401Y0166730D01*
X0157414Y0166789D01*
X0157430Y0166848D01*
X0157450Y0166905D01*
X0157473Y0166960D01*
X0157500Y0167015D01*
X0157529Y0167067D01*
X0157562Y0167118D01*
X0157598Y0167167D01*
X0157636Y0167213D01*
X0157678Y0167257D01*
X0157722Y0167299D01*
X0157768Y0167337D01*
X0157817Y0167373D01*
X0157868Y0167406D01*
X0157920Y0167435D01*
X0157975Y0167462D01*
X0158030Y0167485D01*
X0158087Y0167505D01*
X0158146Y0167521D01*
X0158205Y0167534D01*
X0158264Y0167543D01*
X0158325Y0167548D01*
X0158385Y0167550D01*
X0159385Y0167550D01*
X0163275Y0165550D02*
X0163321Y0165596D01*
X0163365Y0165645D01*
X0163405Y0165696D01*
X0163443Y0165749D01*
X0163478Y0165804D01*
X0163510Y0165861D01*
X0163539Y0165919D01*
X0163565Y0165979D01*
X0163587Y0166041D01*
X0163606Y0166103D01*
X0163622Y0166166D01*
X0163634Y0166230D01*
X0163643Y0166295D01*
X0163648Y0166360D01*
X0163650Y0166425D01*
X0163275Y0165550D02*
X0161150Y0163050D01*
X0163650Y0163050D01*
X0161150Y0166550D02*
X0161174Y0166619D01*
X0161202Y0166686D01*
X0161233Y0166752D01*
X0161267Y0166816D01*
X0161304Y0166878D01*
X0161345Y0166939D01*
X0161388Y0166997D01*
X0161434Y0167053D01*
X0161484Y0167107D01*
X0161535Y0167158D01*
X0161589Y0167206D01*
X0161646Y0167252D01*
X0161705Y0167295D01*
X0161766Y0167334D01*
X0161828Y0167371D01*
X0161893Y0167404D01*
X0161959Y0167435D01*
X0162027Y0167461D01*
X0162095Y0167485D01*
X0162165Y0167505D01*
X0162236Y0167521D01*
X0162308Y0167534D01*
X0162380Y0167543D01*
X0162452Y0167548D01*
X0162525Y0167550D01*
X0162590Y0167548D01*
X0162656Y0167542D01*
X0162720Y0167533D01*
X0162784Y0167520D01*
X0162848Y0167503D01*
X0162910Y0167482D01*
X0162971Y0167458D01*
X0163030Y0167430D01*
X0163088Y0167399D01*
X0163143Y0167365D01*
X0163197Y0167327D01*
X0163248Y0167287D01*
X0163297Y0167243D01*
X0163343Y0167197D01*
X0163387Y0167148D01*
X0163427Y0167097D01*
X0163465Y0167043D01*
X0163499Y0166988D01*
X0163530Y0166930D01*
X0163558Y0166871D01*
X0163582Y0166810D01*
X0163603Y0166748D01*
X0163620Y0166684D01*
X0163633Y0166620D01*
X0163642Y0166556D01*
X0163648Y0166490D01*
X0163650Y0166425D01*
X0159385Y0163050D02*
X0158385Y0163050D01*
X0158325Y0163052D01*
X0158264Y0163057D01*
X0158205Y0163066D01*
X0158146Y0163079D01*
X0158087Y0163095D01*
X0158030Y0163115D01*
X0157975Y0163138D01*
X0157920Y0163165D01*
X0157868Y0163194D01*
X0157817Y0163227D01*
X0157768Y0163263D01*
X0157722Y0163301D01*
X0157678Y0163343D01*
X0157636Y0163387D01*
X0157598Y0163433D01*
X0157562Y0163482D01*
X0157529Y0163533D01*
X0157500Y0163585D01*
X0157473Y0163640D01*
X0157450Y0163695D01*
X0157430Y0163752D01*
X0157414Y0163811D01*
X0157401Y0163870D01*
X0157392Y0163929D01*
X0157387Y0163990D01*
X0157385Y0164050D01*
X0210550Y0170050D02*
X0210550Y0171050D01*
X0210550Y0170550D02*
X0215050Y0170550D01*
X0215050Y0170050D02*
X0215050Y0171050D01*
X0214050Y0172885D02*
X0211550Y0172885D01*
X0211490Y0172887D01*
X0211429Y0172892D01*
X0211370Y0172901D01*
X0211311Y0172914D01*
X0211252Y0172930D01*
X0211195Y0172950D01*
X0211140Y0172973D01*
X0211085Y0173000D01*
X0211033Y0173029D01*
X0210982Y0173062D01*
X0210933Y0173098D01*
X0210887Y0173136D01*
X0210843Y0173178D01*
X0210801Y0173222D01*
X0210763Y0173268D01*
X0210727Y0173317D01*
X0210694Y0173368D01*
X0210665Y0173420D01*
X0210638Y0173475D01*
X0210615Y0173530D01*
X0210595Y0173587D01*
X0210579Y0173646D01*
X0210566Y0173705D01*
X0210557Y0173764D01*
X0210552Y0173825D01*
X0210550Y0173885D01*
X0210550Y0174885D01*
X0211550Y0176650D02*
X0210550Y0177900D01*
X0215050Y0177900D01*
X0215050Y0176650D02*
X0215050Y0179150D01*
X0215050Y0174885D02*
X0215050Y0173885D01*
X0215048Y0173825D01*
X0215043Y0173764D01*
X0215034Y0173705D01*
X0215021Y0173646D01*
X0215005Y0173587D01*
X0214985Y0173530D01*
X0214962Y0173475D01*
X0214935Y0173420D01*
X0214906Y0173368D01*
X0214873Y0173317D01*
X0214837Y0173268D01*
X0214799Y0173222D01*
X0214757Y0173178D01*
X0214713Y0173136D01*
X0214667Y0173098D01*
X0214618Y0173062D01*
X0214567Y0173029D01*
X0214515Y0173000D01*
X0214460Y0172973D01*
X0214405Y0172950D01*
X0214348Y0172930D01*
X0214289Y0172914D01*
X0214230Y0172901D01*
X0214171Y0172892D01*
X0214110Y0172887D01*
X0214050Y0172885D01*
X0225050Y0158550D02*
X0226300Y0158550D01*
X0226369Y0158548D01*
X0226438Y0158542D01*
X0226506Y0158533D01*
X0226573Y0158520D01*
X0226640Y0158503D01*
X0226706Y0158482D01*
X0226770Y0158458D01*
X0226833Y0158430D01*
X0226895Y0158399D01*
X0226955Y0158365D01*
X0227012Y0158327D01*
X0227068Y0158286D01*
X0227121Y0158243D01*
X0227172Y0158196D01*
X0227220Y0158147D01*
X0227265Y0158095D01*
X0227307Y0158040D01*
X0227346Y0157984D01*
X0227383Y0157925D01*
X0227415Y0157864D01*
X0227445Y0157802D01*
X0227471Y0157738D01*
X0227493Y0157673D01*
X0227512Y0157607D01*
X0227527Y0157540D01*
X0227538Y0157472D01*
X0227546Y0157403D01*
X0227550Y0157334D01*
X0227550Y0157266D01*
X0227546Y0157197D01*
X0227538Y0157128D01*
X0227527Y0157060D01*
X0227512Y0156993D01*
X0227493Y0156927D01*
X0227471Y0156862D01*
X0227445Y0156798D01*
X0227415Y0156736D01*
X0227383Y0156675D01*
X0227346Y0156616D01*
X0227307Y0156560D01*
X0227265Y0156505D01*
X0227220Y0156453D01*
X0227172Y0156404D01*
X0227121Y0156357D01*
X0227068Y0156314D01*
X0227012Y0156273D01*
X0226955Y0156235D01*
X0226895Y0156201D01*
X0226833Y0156170D01*
X0226770Y0156142D01*
X0226706Y0156118D01*
X0226640Y0156097D01*
X0226573Y0156080D01*
X0226506Y0156067D01*
X0226438Y0156058D01*
X0226369Y0156052D01*
X0226300Y0156050D01*
X0225050Y0156050D01*
X0226550Y0156050D02*
X0227550Y0154050D01*
X0229517Y0154050D02*
X0231642Y0156550D01*
X0230892Y0158550D02*
X0230819Y0158548D01*
X0230747Y0158543D01*
X0230675Y0158534D01*
X0230603Y0158521D01*
X0230532Y0158505D01*
X0230462Y0158485D01*
X0230394Y0158461D01*
X0230326Y0158435D01*
X0230260Y0158404D01*
X0230195Y0158371D01*
X0230133Y0158334D01*
X0230072Y0158295D01*
X0230013Y0158252D01*
X0229956Y0158206D01*
X0229902Y0158158D01*
X0229851Y0158107D01*
X0229801Y0158053D01*
X0229755Y0157997D01*
X0229712Y0157939D01*
X0229671Y0157878D01*
X0229634Y0157816D01*
X0229600Y0157752D01*
X0229569Y0157686D01*
X0229541Y0157619D01*
X0229517Y0157550D01*
X0231642Y0156550D02*
X0231688Y0156596D01*
X0231732Y0156645D01*
X0231772Y0156696D01*
X0231810Y0156749D01*
X0231845Y0156804D01*
X0231877Y0156861D01*
X0231906Y0156919D01*
X0231932Y0156979D01*
X0231954Y0157041D01*
X0231973Y0157103D01*
X0231989Y0157166D01*
X0232001Y0157230D01*
X0232010Y0157295D01*
X0232015Y0157360D01*
X0232017Y0157425D01*
X0232015Y0157490D01*
X0232009Y0157556D01*
X0232000Y0157620D01*
X0231987Y0157684D01*
X0231970Y0157748D01*
X0231949Y0157810D01*
X0231925Y0157871D01*
X0231897Y0157930D01*
X0231866Y0157988D01*
X0231832Y0158043D01*
X0231794Y0158097D01*
X0231754Y0158148D01*
X0231710Y0158197D01*
X0231664Y0158243D01*
X0231615Y0158287D01*
X0231564Y0158327D01*
X0231510Y0158365D01*
X0231455Y0158399D01*
X0231397Y0158430D01*
X0231338Y0158458D01*
X0231277Y0158482D01*
X0231215Y0158503D01*
X0231151Y0158520D01*
X0231087Y0158533D01*
X0231023Y0158542D01*
X0230957Y0158548D01*
X0230892Y0158550D01*
X0232017Y0154050D02*
X0229517Y0154050D01*
X0225050Y0154050D02*
X0225050Y0158550D01*
X0271050Y0174050D02*
X0271050Y0175300D01*
X0271050Y0174050D02*
X0275550Y0174050D01*
X0273550Y0174050D02*
X0273550Y0175300D01*
X0273550Y0175550D02*
X0275550Y0176550D01*
X0275550Y0178517D02*
X0275550Y0181017D01*
X0275550Y0179767D02*
X0271050Y0179767D01*
X0272050Y0178517D01*
X0271050Y0175300D02*
X0271052Y0175369D01*
X0271058Y0175438D01*
X0271067Y0175506D01*
X0271080Y0175573D01*
X0271097Y0175640D01*
X0271118Y0175706D01*
X0271142Y0175770D01*
X0271170Y0175833D01*
X0271201Y0175895D01*
X0271235Y0175955D01*
X0271273Y0176012D01*
X0271314Y0176068D01*
X0271357Y0176121D01*
X0271404Y0176172D01*
X0271453Y0176220D01*
X0271505Y0176265D01*
X0271560Y0176307D01*
X0271616Y0176346D01*
X0271675Y0176383D01*
X0271736Y0176415D01*
X0271798Y0176445D01*
X0271862Y0176471D01*
X0271927Y0176493D01*
X0271993Y0176512D01*
X0272060Y0176527D01*
X0272128Y0176538D01*
X0272197Y0176546D01*
X0272266Y0176550D01*
X0272334Y0176550D01*
X0272403Y0176546D01*
X0272472Y0176538D01*
X0272540Y0176527D01*
X0272607Y0176512D01*
X0272673Y0176493D01*
X0272738Y0176471D01*
X0272802Y0176445D01*
X0272864Y0176415D01*
X0272925Y0176383D01*
X0272984Y0176346D01*
X0273040Y0176307D01*
X0273095Y0176265D01*
X0273147Y0176220D01*
X0273196Y0176172D01*
X0273243Y0176121D01*
X0273286Y0176068D01*
X0273327Y0176012D01*
X0273365Y0175955D01*
X0273399Y0175895D01*
X0273430Y0175833D01*
X0273458Y0175770D01*
X0273482Y0175706D01*
X0273503Y0175640D01*
X0273520Y0175573D01*
X0273533Y0175506D01*
X0273542Y0175438D01*
X0273548Y0175369D01*
X0273550Y0175300D01*
X0231017Y0218300D02*
X0231017Y0218550D01*
X0231015Y0218610D01*
X0231010Y0218671D01*
X0231001Y0218730D01*
X0230988Y0218789D01*
X0230972Y0218848D01*
X0230952Y0218905D01*
X0230929Y0218960D01*
X0230902Y0219015D01*
X0230873Y0219067D01*
X0230840Y0219118D01*
X0230804Y0219167D01*
X0230766Y0219213D01*
X0230724Y0219257D01*
X0230680Y0219299D01*
X0230634Y0219337D01*
X0230585Y0219373D01*
X0230534Y0219406D01*
X0230482Y0219435D01*
X0230427Y0219462D01*
X0230372Y0219485D01*
X0230315Y0219505D01*
X0230256Y0219521D01*
X0230197Y0219534D01*
X0230138Y0219543D01*
X0230077Y0219548D01*
X0230017Y0219550D01*
X0228517Y0219550D01*
X0228517Y0218300D01*
X0228519Y0218231D01*
X0228525Y0218162D01*
X0228534Y0218094D01*
X0228547Y0218027D01*
X0228564Y0217960D01*
X0228585Y0217894D01*
X0228609Y0217830D01*
X0228637Y0217767D01*
X0228668Y0217705D01*
X0228702Y0217645D01*
X0228740Y0217588D01*
X0228781Y0217532D01*
X0228824Y0217479D01*
X0228871Y0217428D01*
X0228920Y0217380D01*
X0228972Y0217335D01*
X0229027Y0217293D01*
X0229083Y0217254D01*
X0229142Y0217217D01*
X0229203Y0217185D01*
X0229265Y0217155D01*
X0229329Y0217129D01*
X0229394Y0217107D01*
X0229460Y0217088D01*
X0229527Y0217073D01*
X0229595Y0217062D01*
X0229664Y0217054D01*
X0229733Y0217050D01*
X0229801Y0217050D01*
X0229870Y0217054D01*
X0229939Y0217062D01*
X0230007Y0217073D01*
X0230074Y0217088D01*
X0230140Y0217107D01*
X0230205Y0217129D01*
X0230269Y0217155D01*
X0230331Y0217185D01*
X0230392Y0217217D01*
X0230451Y0217254D01*
X0230507Y0217293D01*
X0230562Y0217335D01*
X0230614Y0217380D01*
X0230663Y0217428D01*
X0230710Y0217479D01*
X0230753Y0217532D01*
X0230794Y0217588D01*
X0230832Y0217645D01*
X0230866Y0217705D01*
X0230897Y0217767D01*
X0230925Y0217830D01*
X0230949Y0217894D01*
X0230970Y0217960D01*
X0230987Y0218027D01*
X0231000Y0218094D01*
X0231009Y0218162D01*
X0231015Y0218231D01*
X0231017Y0218300D01*
X0228517Y0219550D02*
X0228519Y0219637D01*
X0228525Y0219724D01*
X0228534Y0219811D01*
X0228547Y0219897D01*
X0228564Y0219983D01*
X0228585Y0220068D01*
X0228610Y0220151D01*
X0228638Y0220234D01*
X0228669Y0220315D01*
X0228704Y0220395D01*
X0228743Y0220473D01*
X0228785Y0220550D01*
X0228830Y0220625D01*
X0228879Y0220697D01*
X0228930Y0220768D01*
X0228985Y0220836D01*
X0229042Y0220901D01*
X0229103Y0220964D01*
X0229166Y0221025D01*
X0229231Y0221082D01*
X0229299Y0221137D01*
X0229370Y0221188D01*
X0229442Y0221237D01*
X0229517Y0221282D01*
X0229594Y0221324D01*
X0229672Y0221363D01*
X0229752Y0221398D01*
X0229833Y0221429D01*
X0229916Y0221457D01*
X0229999Y0221482D01*
X0230084Y0221503D01*
X0230170Y0221520D01*
X0230256Y0221533D01*
X0230343Y0221542D01*
X0230430Y0221548D01*
X0230517Y0221550D01*
X0225300Y0221550D02*
X0224050Y0221550D01*
X0224050Y0217050D01*
X0224050Y0219050D02*
X0225300Y0219050D01*
X0225550Y0219050D02*
X0226550Y0217050D01*
X0225300Y0219050D02*
X0225369Y0219052D01*
X0225438Y0219058D01*
X0225506Y0219067D01*
X0225573Y0219080D01*
X0225640Y0219097D01*
X0225706Y0219118D01*
X0225770Y0219142D01*
X0225833Y0219170D01*
X0225895Y0219201D01*
X0225955Y0219235D01*
X0226012Y0219273D01*
X0226068Y0219314D01*
X0226121Y0219357D01*
X0226172Y0219404D01*
X0226220Y0219453D01*
X0226265Y0219505D01*
X0226307Y0219560D01*
X0226346Y0219616D01*
X0226383Y0219675D01*
X0226415Y0219736D01*
X0226445Y0219798D01*
X0226471Y0219862D01*
X0226493Y0219927D01*
X0226512Y0219993D01*
X0226527Y0220060D01*
X0226538Y0220128D01*
X0226546Y0220197D01*
X0226550Y0220266D01*
X0226550Y0220334D01*
X0226546Y0220403D01*
X0226538Y0220472D01*
X0226527Y0220540D01*
X0226512Y0220607D01*
X0226493Y0220673D01*
X0226471Y0220738D01*
X0226445Y0220802D01*
X0226415Y0220864D01*
X0226383Y0220925D01*
X0226346Y0220984D01*
X0226307Y0221040D01*
X0226265Y0221095D01*
X0226220Y0221147D01*
X0226172Y0221196D01*
X0226121Y0221243D01*
X0226068Y0221286D01*
X0226012Y0221327D01*
X0225955Y0221365D01*
X0225895Y0221399D01*
X0225833Y0221430D01*
X0225770Y0221458D01*
X0225706Y0221482D01*
X0225640Y0221503D01*
X0225573Y0221520D01*
X0225506Y0221533D01*
X0225438Y0221542D01*
X0225369Y0221548D01*
X0225300Y0221550D01*
X0224050Y0237050D02*
X0224050Y0241550D01*
X0225300Y0241550D01*
X0225369Y0241548D01*
X0225438Y0241542D01*
X0225506Y0241533D01*
X0225573Y0241520D01*
X0225640Y0241503D01*
X0225706Y0241482D01*
X0225770Y0241458D01*
X0225833Y0241430D01*
X0225895Y0241399D01*
X0225955Y0241365D01*
X0226012Y0241327D01*
X0226068Y0241286D01*
X0226121Y0241243D01*
X0226172Y0241196D01*
X0226220Y0241147D01*
X0226265Y0241095D01*
X0226307Y0241040D01*
X0226346Y0240984D01*
X0226383Y0240925D01*
X0226415Y0240864D01*
X0226445Y0240802D01*
X0226471Y0240738D01*
X0226493Y0240673D01*
X0226512Y0240607D01*
X0226527Y0240540D01*
X0226538Y0240472D01*
X0226546Y0240403D01*
X0226550Y0240334D01*
X0226550Y0240266D01*
X0226546Y0240197D01*
X0226538Y0240128D01*
X0226527Y0240060D01*
X0226512Y0239993D01*
X0226493Y0239927D01*
X0226471Y0239862D01*
X0226445Y0239798D01*
X0226415Y0239736D01*
X0226383Y0239675D01*
X0226346Y0239616D01*
X0226307Y0239560D01*
X0226265Y0239505D01*
X0226220Y0239453D01*
X0226172Y0239404D01*
X0226121Y0239357D01*
X0226068Y0239314D01*
X0226012Y0239273D01*
X0225955Y0239235D01*
X0225895Y0239201D01*
X0225833Y0239170D01*
X0225770Y0239142D01*
X0225706Y0239118D01*
X0225640Y0239097D01*
X0225573Y0239080D01*
X0225506Y0239067D01*
X0225438Y0239058D01*
X0225369Y0239052D01*
X0225300Y0239050D01*
X0224050Y0239050D01*
X0225550Y0239050D02*
X0226550Y0237050D01*
X0229767Y0237050D02*
X0231017Y0241550D01*
X0228517Y0241550D01*
X0228517Y0241050D01*
X0207900Y0241550D02*
X0205400Y0241550D01*
X0206650Y0241550D02*
X0206650Y0246050D01*
X0205400Y0245050D01*
X0203650Y0246050D02*
X0202150Y0241550D01*
X0200650Y0246050D01*
X0197175Y0244175D02*
X0197123Y0244208D01*
X0197072Y0244244D01*
X0197024Y0244283D01*
X0196979Y0244325D01*
X0196936Y0244370D01*
X0196896Y0244418D01*
X0196859Y0244467D01*
X0196825Y0244519D01*
X0196794Y0244573D01*
X0196766Y0244629D01*
X0196742Y0244686D01*
X0196722Y0244745D01*
X0196705Y0244804D01*
X0196692Y0244865D01*
X0196683Y0244926D01*
X0196677Y0244988D01*
X0196675Y0245050D01*
X0196677Y0245110D01*
X0196682Y0245171D01*
X0196691Y0245230D01*
X0196704Y0245289D01*
X0196720Y0245348D01*
X0196740Y0245405D01*
X0196763Y0245460D01*
X0196790Y0245515D01*
X0196819Y0245567D01*
X0196852Y0245618D01*
X0196888Y0245667D01*
X0196926Y0245713D01*
X0196968Y0245757D01*
X0197012Y0245799D01*
X0197058Y0245837D01*
X0197107Y0245873D01*
X0197158Y0245906D01*
X0197210Y0245935D01*
X0197265Y0245962D01*
X0197320Y0245985D01*
X0197377Y0246005D01*
X0197436Y0246021D01*
X0197495Y0246034D01*
X0197554Y0246043D01*
X0197615Y0246048D01*
X0197675Y0246050D01*
X0197755Y0246048D01*
X0197836Y0246043D01*
X0197916Y0246034D01*
X0197995Y0246022D01*
X0198074Y0246007D01*
X0198152Y0245988D01*
X0198230Y0245966D01*
X0198306Y0245941D01*
X0198381Y0245912D01*
X0198455Y0245880D01*
X0198527Y0245845D01*
X0198598Y0245807D01*
X0198667Y0245766D01*
X0198735Y0245722D01*
X0198800Y0245675D01*
X0196550Y0242174D02*
X0196613Y0242113D01*
X0196678Y0242055D01*
X0196746Y0241999D01*
X0196817Y0241946D01*
X0196889Y0241897D01*
X0196963Y0241850D01*
X0197039Y0241806D01*
X0197117Y0241766D01*
X0197197Y0241729D01*
X0197278Y0241695D01*
X0197360Y0241665D01*
X0197444Y0241638D01*
X0197529Y0241614D01*
X0197614Y0241594D01*
X0197700Y0241578D01*
X0197787Y0241565D01*
X0197875Y0241556D01*
X0197962Y0241551D01*
X0198050Y0241549D01*
X0198050Y0241550D02*
X0198110Y0241552D01*
X0198171Y0241557D01*
X0198230Y0241566D01*
X0198289Y0241579D01*
X0198348Y0241595D01*
X0198405Y0241615D01*
X0198460Y0241638D01*
X0198515Y0241665D01*
X0198567Y0241694D01*
X0198618Y0241727D01*
X0198667Y0241763D01*
X0198713Y0241801D01*
X0198757Y0241843D01*
X0198799Y0241887D01*
X0198837Y0241933D01*
X0198873Y0241982D01*
X0198906Y0242033D01*
X0198935Y0242085D01*
X0198962Y0242140D01*
X0198985Y0242195D01*
X0199005Y0242252D01*
X0199021Y0242311D01*
X0199034Y0242370D01*
X0199043Y0242429D01*
X0199048Y0242490D01*
X0199050Y0242550D01*
X0198550Y0243425D02*
X0197175Y0244175D01*
X0198550Y0243425D02*
X0198602Y0243392D01*
X0198653Y0243356D01*
X0198701Y0243317D01*
X0198746Y0243275D01*
X0198789Y0243230D01*
X0198829Y0243182D01*
X0198866Y0243133D01*
X0198900Y0243081D01*
X0198931Y0243027D01*
X0198959Y0242971D01*
X0198983Y0242914D01*
X0199003Y0242855D01*
X0199020Y0242796D01*
X0199033Y0242735D01*
X0199042Y0242674D01*
X0199048Y0242612D01*
X0199050Y0242550D01*
X0213550Y0261550D02*
X0213550Y0264050D01*
X0213550Y0261550D02*
X0211050Y0263675D01*
X0209050Y0262925D02*
X0209052Y0262852D01*
X0209057Y0262780D01*
X0209066Y0262708D01*
X0209079Y0262636D01*
X0209095Y0262565D01*
X0209115Y0262495D01*
X0209139Y0262427D01*
X0209165Y0262359D01*
X0209196Y0262293D01*
X0209229Y0262228D01*
X0209266Y0262166D01*
X0209305Y0262105D01*
X0209348Y0262046D01*
X0209394Y0261989D01*
X0209442Y0261935D01*
X0209493Y0261884D01*
X0209547Y0261834D01*
X0209603Y0261788D01*
X0209661Y0261745D01*
X0209722Y0261704D01*
X0209784Y0261667D01*
X0209848Y0261633D01*
X0209914Y0261602D01*
X0209981Y0261574D01*
X0210050Y0261550D01*
X0211050Y0263675D02*
X0211004Y0263721D01*
X0210955Y0263765D01*
X0210904Y0263805D01*
X0210851Y0263843D01*
X0210796Y0263878D01*
X0210739Y0263910D01*
X0210681Y0263939D01*
X0210621Y0263965D01*
X0210559Y0263987D01*
X0210497Y0264006D01*
X0210434Y0264022D01*
X0210370Y0264034D01*
X0210305Y0264043D01*
X0210240Y0264048D01*
X0210175Y0264050D01*
X0210110Y0264048D01*
X0210044Y0264042D01*
X0209980Y0264033D01*
X0209916Y0264020D01*
X0209852Y0264003D01*
X0209790Y0263982D01*
X0209729Y0263958D01*
X0209670Y0263930D01*
X0209613Y0263899D01*
X0209557Y0263865D01*
X0209503Y0263827D01*
X0209452Y0263787D01*
X0209403Y0263743D01*
X0209357Y0263697D01*
X0209313Y0263648D01*
X0209273Y0263597D01*
X0209235Y0263543D01*
X0209201Y0263488D01*
X0209170Y0263430D01*
X0209142Y0263371D01*
X0209118Y0263310D01*
X0209097Y0263248D01*
X0209080Y0263184D01*
X0209067Y0263120D01*
X0209058Y0263056D01*
X0209052Y0262990D01*
X0209050Y0262925D01*
X0219050Y0263050D02*
X0219050Y0261550D01*
X0219050Y0263050D02*
X0219052Y0263112D01*
X0219058Y0263173D01*
X0219067Y0263234D01*
X0219080Y0263294D01*
X0219097Y0263353D01*
X0219118Y0263411D01*
X0219142Y0263468D01*
X0219169Y0263523D01*
X0219200Y0263576D01*
X0219234Y0263628D01*
X0219271Y0263677D01*
X0219311Y0263724D01*
X0219354Y0263768D01*
X0219399Y0263809D01*
X0219447Y0263848D01*
X0219498Y0263884D01*
X0219550Y0263916D01*
X0219604Y0263945D01*
X0219660Y0263971D01*
X0219718Y0263993D01*
X0219776Y0264012D01*
X0219836Y0264027D01*
X0219897Y0264038D01*
X0219958Y0264046D01*
X0220019Y0264050D01*
X0220081Y0264050D01*
X0220142Y0264046D01*
X0220203Y0264038D01*
X0220264Y0264027D01*
X0220324Y0264012D01*
X0220382Y0263993D01*
X0220440Y0263971D01*
X0220496Y0263945D01*
X0220550Y0263916D01*
X0220602Y0263884D01*
X0220653Y0263848D01*
X0220701Y0263809D01*
X0220746Y0263768D01*
X0220789Y0263724D01*
X0220829Y0263677D01*
X0220866Y0263628D01*
X0220900Y0263576D01*
X0220931Y0263523D01*
X0220958Y0263468D01*
X0220982Y0263411D01*
X0221003Y0263353D01*
X0221020Y0263294D01*
X0221033Y0263234D01*
X0221042Y0263173D01*
X0221048Y0263112D01*
X0221050Y0263050D01*
X0221050Y0262050D01*
X0221050Y0262800D02*
X0221052Y0262869D01*
X0221058Y0262938D01*
X0221067Y0263006D01*
X0221080Y0263073D01*
X0221097Y0263140D01*
X0221118Y0263206D01*
X0221142Y0263270D01*
X0221170Y0263333D01*
X0221201Y0263395D01*
X0221235Y0263455D01*
X0221273Y0263512D01*
X0221314Y0263568D01*
X0221357Y0263621D01*
X0221404Y0263672D01*
X0221453Y0263720D01*
X0221505Y0263765D01*
X0221560Y0263807D01*
X0221616Y0263846D01*
X0221675Y0263883D01*
X0221736Y0263915D01*
X0221798Y0263945D01*
X0221862Y0263971D01*
X0221927Y0263993D01*
X0221993Y0264012D01*
X0222060Y0264027D01*
X0222128Y0264038D01*
X0222197Y0264046D01*
X0222266Y0264050D01*
X0222334Y0264050D01*
X0222403Y0264046D01*
X0222472Y0264038D01*
X0222540Y0264027D01*
X0222607Y0264012D01*
X0222673Y0263993D01*
X0222738Y0263971D01*
X0222802Y0263945D01*
X0222864Y0263915D01*
X0222925Y0263883D01*
X0222984Y0263846D01*
X0223040Y0263807D01*
X0223095Y0263765D01*
X0223147Y0263720D01*
X0223196Y0263672D01*
X0223243Y0263621D01*
X0223286Y0263568D01*
X0223327Y0263512D01*
X0223365Y0263455D01*
X0223399Y0263395D01*
X0223430Y0263333D01*
X0223458Y0263270D01*
X0223482Y0263206D01*
X0223503Y0263140D01*
X0223520Y0263073D01*
X0223533Y0263006D01*
X0223542Y0262938D01*
X0223548Y0262869D01*
X0223550Y0262800D01*
X0223550Y0261550D01*
X0229050Y0262550D02*
X0232550Y0261550D01*
X0232550Y0264050D01*
X0231550Y0263300D02*
X0233550Y0263300D01*
X0239050Y0264050D02*
X0239050Y0261550D01*
X0241050Y0261550D01*
X0241050Y0263050D01*
X0241052Y0263110D01*
X0241057Y0263171D01*
X0241066Y0263230D01*
X0241079Y0263289D01*
X0241095Y0263348D01*
X0241115Y0263405D01*
X0241138Y0263460D01*
X0241165Y0263515D01*
X0241194Y0263567D01*
X0241227Y0263618D01*
X0241263Y0263667D01*
X0241301Y0263713D01*
X0241343Y0263757D01*
X0241387Y0263799D01*
X0241433Y0263837D01*
X0241482Y0263873D01*
X0241533Y0263906D01*
X0241585Y0263935D01*
X0241640Y0263962D01*
X0241695Y0263985D01*
X0241752Y0264005D01*
X0241811Y0264021D01*
X0241870Y0264034D01*
X0241929Y0264043D01*
X0241990Y0264048D01*
X0242050Y0264050D01*
X0242550Y0264050D01*
X0242610Y0264048D01*
X0242671Y0264043D01*
X0242730Y0264034D01*
X0242789Y0264021D01*
X0242848Y0264005D01*
X0242905Y0263985D01*
X0242960Y0263962D01*
X0243015Y0263935D01*
X0243067Y0263906D01*
X0243118Y0263873D01*
X0243167Y0263837D01*
X0243213Y0263799D01*
X0243257Y0263757D01*
X0243299Y0263713D01*
X0243337Y0263667D01*
X0243373Y0263618D01*
X0243406Y0263567D01*
X0243435Y0263515D01*
X0243462Y0263460D01*
X0243485Y0263405D01*
X0243505Y0263348D01*
X0243521Y0263289D01*
X0243534Y0263230D01*
X0243543Y0263171D01*
X0243548Y0263110D01*
X0243550Y0263050D01*
X0243550Y0261550D01*
X0251050Y0261550D02*
X0252300Y0261550D01*
X0251050Y0261550D02*
X0251050Y0263050D01*
X0251050Y0261550D02*
X0250963Y0261552D01*
X0250876Y0261558D01*
X0250789Y0261567D01*
X0250703Y0261580D01*
X0250617Y0261597D01*
X0250532Y0261618D01*
X0250449Y0261643D01*
X0250366Y0261671D01*
X0250285Y0261702D01*
X0250205Y0261737D01*
X0250127Y0261776D01*
X0250050Y0261818D01*
X0249975Y0261863D01*
X0249903Y0261912D01*
X0249832Y0261963D01*
X0249764Y0262018D01*
X0249699Y0262075D01*
X0249636Y0262136D01*
X0249575Y0262199D01*
X0249518Y0262264D01*
X0249463Y0262332D01*
X0249412Y0262403D01*
X0249363Y0262475D01*
X0249318Y0262550D01*
X0249276Y0262627D01*
X0249237Y0262705D01*
X0249202Y0262785D01*
X0249171Y0262866D01*
X0249143Y0262949D01*
X0249118Y0263032D01*
X0249097Y0263117D01*
X0249080Y0263203D01*
X0249067Y0263289D01*
X0249058Y0263376D01*
X0249052Y0263463D01*
X0249050Y0263550D01*
X0251050Y0263050D02*
X0251052Y0263110D01*
X0251057Y0263171D01*
X0251066Y0263230D01*
X0251079Y0263289D01*
X0251095Y0263348D01*
X0251115Y0263405D01*
X0251138Y0263460D01*
X0251165Y0263515D01*
X0251194Y0263567D01*
X0251227Y0263618D01*
X0251263Y0263667D01*
X0251301Y0263713D01*
X0251343Y0263757D01*
X0251387Y0263799D01*
X0251433Y0263837D01*
X0251482Y0263873D01*
X0251533Y0263906D01*
X0251585Y0263935D01*
X0251640Y0263962D01*
X0251695Y0263985D01*
X0251752Y0264005D01*
X0251811Y0264021D01*
X0251870Y0264034D01*
X0251929Y0264043D01*
X0251990Y0264048D01*
X0252050Y0264050D01*
X0252300Y0264050D01*
X0252369Y0264048D01*
X0252438Y0264042D01*
X0252506Y0264033D01*
X0252573Y0264020D01*
X0252640Y0264003D01*
X0252706Y0263982D01*
X0252770Y0263958D01*
X0252833Y0263930D01*
X0252895Y0263899D01*
X0252955Y0263865D01*
X0253012Y0263827D01*
X0253068Y0263786D01*
X0253121Y0263743D01*
X0253172Y0263696D01*
X0253220Y0263647D01*
X0253265Y0263595D01*
X0253307Y0263540D01*
X0253346Y0263484D01*
X0253383Y0263425D01*
X0253415Y0263364D01*
X0253445Y0263302D01*
X0253471Y0263238D01*
X0253493Y0263173D01*
X0253512Y0263107D01*
X0253527Y0263040D01*
X0253538Y0262972D01*
X0253546Y0262903D01*
X0253550Y0262834D01*
X0253550Y0262766D01*
X0253546Y0262697D01*
X0253538Y0262628D01*
X0253527Y0262560D01*
X0253512Y0262493D01*
X0253493Y0262427D01*
X0253471Y0262362D01*
X0253445Y0262298D01*
X0253415Y0262236D01*
X0253383Y0262175D01*
X0253346Y0262116D01*
X0253307Y0262060D01*
X0253265Y0262005D01*
X0253220Y0261953D01*
X0253172Y0261904D01*
X0253121Y0261857D01*
X0253068Y0261814D01*
X0253012Y0261773D01*
X0252955Y0261735D01*
X0252895Y0261701D01*
X0252833Y0261670D01*
X0252770Y0261642D01*
X0252706Y0261618D01*
X0252640Y0261597D01*
X0252573Y0261580D01*
X0252506Y0261567D01*
X0252438Y0261558D01*
X0252369Y0261552D01*
X0252300Y0261550D01*
X0259050Y0261550D02*
X0259050Y0264050D01*
X0263550Y0262800D01*
X0259550Y0261550D02*
X0259050Y0261550D01*
X0270050Y0261800D02*
X0270112Y0261802D01*
X0270173Y0261808D01*
X0270234Y0261817D01*
X0270294Y0261830D01*
X0270353Y0261847D01*
X0270411Y0261868D01*
X0270468Y0261892D01*
X0270523Y0261919D01*
X0270576Y0261950D01*
X0270628Y0261984D01*
X0270677Y0262021D01*
X0270724Y0262061D01*
X0270768Y0262104D01*
X0270809Y0262149D01*
X0270848Y0262197D01*
X0270884Y0262248D01*
X0270916Y0262300D01*
X0270945Y0262354D01*
X0270971Y0262410D01*
X0270993Y0262468D01*
X0271012Y0262526D01*
X0271027Y0262586D01*
X0271038Y0262647D01*
X0271046Y0262708D01*
X0271050Y0262769D01*
X0271050Y0262831D01*
X0271046Y0262892D01*
X0271038Y0262953D01*
X0271027Y0263014D01*
X0271012Y0263074D01*
X0270993Y0263132D01*
X0270971Y0263190D01*
X0270945Y0263246D01*
X0270916Y0263300D01*
X0270884Y0263352D01*
X0270848Y0263403D01*
X0270809Y0263451D01*
X0270768Y0263496D01*
X0270724Y0263539D01*
X0270677Y0263579D01*
X0270628Y0263616D01*
X0270576Y0263650D01*
X0270523Y0263681D01*
X0270468Y0263708D01*
X0270411Y0263732D01*
X0270353Y0263753D01*
X0270294Y0263770D01*
X0270234Y0263783D01*
X0270173Y0263792D01*
X0270112Y0263798D01*
X0270050Y0263800D01*
X0269988Y0263798D01*
X0269927Y0263792D01*
X0269866Y0263783D01*
X0269806Y0263770D01*
X0269747Y0263753D01*
X0269689Y0263732D01*
X0269632Y0263708D01*
X0269577Y0263681D01*
X0269524Y0263650D01*
X0269472Y0263616D01*
X0269423Y0263579D01*
X0269376Y0263539D01*
X0269332Y0263496D01*
X0269291Y0263451D01*
X0269252Y0263403D01*
X0269216Y0263352D01*
X0269184Y0263300D01*
X0269155Y0263246D01*
X0269129Y0263190D01*
X0269107Y0263132D01*
X0269088Y0263074D01*
X0269073Y0263014D01*
X0269062Y0262953D01*
X0269054Y0262892D01*
X0269050Y0262831D01*
X0269050Y0262769D01*
X0269054Y0262708D01*
X0269062Y0262647D01*
X0269073Y0262586D01*
X0269088Y0262526D01*
X0269107Y0262468D01*
X0269129Y0262410D01*
X0269155Y0262354D01*
X0269184Y0262300D01*
X0269216Y0262248D01*
X0269252Y0262197D01*
X0269291Y0262149D01*
X0269332Y0262104D01*
X0269376Y0262061D01*
X0269423Y0262021D01*
X0269472Y0261984D01*
X0269524Y0261950D01*
X0269577Y0261919D01*
X0269632Y0261892D01*
X0269689Y0261868D01*
X0269747Y0261847D01*
X0269806Y0261830D01*
X0269866Y0261817D01*
X0269927Y0261808D01*
X0269988Y0261802D01*
X0270050Y0261800D01*
X0272300Y0261550D02*
X0272369Y0261552D01*
X0272438Y0261558D01*
X0272506Y0261567D01*
X0272573Y0261580D01*
X0272640Y0261597D01*
X0272706Y0261618D01*
X0272770Y0261642D01*
X0272833Y0261670D01*
X0272895Y0261701D01*
X0272955Y0261735D01*
X0273012Y0261773D01*
X0273068Y0261814D01*
X0273121Y0261857D01*
X0273172Y0261904D01*
X0273220Y0261953D01*
X0273265Y0262005D01*
X0273307Y0262060D01*
X0273346Y0262116D01*
X0273383Y0262175D01*
X0273415Y0262236D01*
X0273445Y0262298D01*
X0273471Y0262362D01*
X0273493Y0262427D01*
X0273512Y0262493D01*
X0273527Y0262560D01*
X0273538Y0262628D01*
X0273546Y0262697D01*
X0273550Y0262766D01*
X0273550Y0262834D01*
X0273546Y0262903D01*
X0273538Y0262972D01*
X0273527Y0263040D01*
X0273512Y0263107D01*
X0273493Y0263173D01*
X0273471Y0263238D01*
X0273445Y0263302D01*
X0273415Y0263364D01*
X0273383Y0263425D01*
X0273346Y0263484D01*
X0273307Y0263540D01*
X0273265Y0263595D01*
X0273220Y0263647D01*
X0273172Y0263696D01*
X0273121Y0263743D01*
X0273068Y0263786D01*
X0273012Y0263827D01*
X0272955Y0263865D01*
X0272895Y0263899D01*
X0272833Y0263930D01*
X0272770Y0263958D01*
X0272706Y0263982D01*
X0272640Y0264003D01*
X0272573Y0264020D01*
X0272506Y0264033D01*
X0272438Y0264042D01*
X0272369Y0264048D01*
X0272300Y0264050D01*
X0272231Y0264048D01*
X0272162Y0264042D01*
X0272094Y0264033D01*
X0272027Y0264020D01*
X0271960Y0264003D01*
X0271894Y0263982D01*
X0271830Y0263958D01*
X0271767Y0263930D01*
X0271705Y0263899D01*
X0271645Y0263865D01*
X0271588Y0263827D01*
X0271532Y0263786D01*
X0271479Y0263743D01*
X0271428Y0263696D01*
X0271380Y0263647D01*
X0271335Y0263595D01*
X0271293Y0263540D01*
X0271254Y0263484D01*
X0271217Y0263425D01*
X0271185Y0263364D01*
X0271155Y0263302D01*
X0271129Y0263238D01*
X0271107Y0263173D01*
X0271088Y0263107D01*
X0271073Y0263040D01*
X0271062Y0262972D01*
X0271054Y0262903D01*
X0271050Y0262834D01*
X0271050Y0262766D01*
X0271054Y0262697D01*
X0271062Y0262628D01*
X0271073Y0262560D01*
X0271088Y0262493D01*
X0271107Y0262427D01*
X0271129Y0262362D01*
X0271155Y0262298D01*
X0271185Y0262236D01*
X0271217Y0262175D01*
X0271254Y0262116D01*
X0271293Y0262060D01*
X0271335Y0262005D01*
X0271380Y0261953D01*
X0271428Y0261904D01*
X0271479Y0261857D01*
X0271532Y0261814D01*
X0271588Y0261773D01*
X0271645Y0261735D01*
X0271705Y0261701D01*
X0271767Y0261670D01*
X0271830Y0261642D01*
X0271894Y0261618D01*
X0271960Y0261597D01*
X0272027Y0261580D01*
X0272094Y0261567D01*
X0272162Y0261558D01*
X0272231Y0261552D01*
X0272300Y0261550D01*
X0280300Y0261550D02*
X0280550Y0261550D01*
X0280610Y0261552D01*
X0280671Y0261557D01*
X0280730Y0261566D01*
X0280789Y0261579D01*
X0280848Y0261595D01*
X0280905Y0261615D01*
X0280960Y0261638D01*
X0281015Y0261665D01*
X0281067Y0261694D01*
X0281118Y0261727D01*
X0281167Y0261763D01*
X0281213Y0261801D01*
X0281257Y0261843D01*
X0281299Y0261887D01*
X0281337Y0261933D01*
X0281373Y0261982D01*
X0281406Y0262033D01*
X0281435Y0262085D01*
X0281462Y0262140D01*
X0281485Y0262195D01*
X0281505Y0262252D01*
X0281521Y0262311D01*
X0281534Y0262370D01*
X0281543Y0262429D01*
X0281548Y0262490D01*
X0281550Y0262550D01*
X0281550Y0264050D01*
X0280300Y0264050D01*
X0280231Y0264048D01*
X0280162Y0264042D01*
X0280094Y0264033D01*
X0280027Y0264020D01*
X0279960Y0264003D01*
X0279894Y0263982D01*
X0279830Y0263958D01*
X0279767Y0263930D01*
X0279705Y0263899D01*
X0279645Y0263865D01*
X0279588Y0263827D01*
X0279532Y0263786D01*
X0279479Y0263743D01*
X0279428Y0263696D01*
X0279380Y0263647D01*
X0279335Y0263595D01*
X0279293Y0263540D01*
X0279254Y0263484D01*
X0279217Y0263425D01*
X0279185Y0263364D01*
X0279155Y0263302D01*
X0279129Y0263238D01*
X0279107Y0263173D01*
X0279088Y0263107D01*
X0279073Y0263040D01*
X0279062Y0262972D01*
X0279054Y0262903D01*
X0279050Y0262834D01*
X0279050Y0262766D01*
X0279054Y0262697D01*
X0279062Y0262628D01*
X0279073Y0262560D01*
X0279088Y0262493D01*
X0279107Y0262427D01*
X0279129Y0262362D01*
X0279155Y0262298D01*
X0279185Y0262236D01*
X0279217Y0262175D01*
X0279254Y0262116D01*
X0279293Y0262060D01*
X0279335Y0262005D01*
X0279380Y0261953D01*
X0279428Y0261904D01*
X0279479Y0261857D01*
X0279532Y0261814D01*
X0279588Y0261773D01*
X0279645Y0261735D01*
X0279705Y0261701D01*
X0279767Y0261670D01*
X0279830Y0261642D01*
X0279894Y0261618D01*
X0279960Y0261597D01*
X0280027Y0261580D01*
X0280094Y0261567D01*
X0280162Y0261558D01*
X0280231Y0261552D01*
X0280300Y0261550D01*
X0281550Y0264050D02*
X0281637Y0264048D01*
X0281724Y0264042D01*
X0281811Y0264033D01*
X0281897Y0264020D01*
X0281983Y0264003D01*
X0282068Y0263982D01*
X0282151Y0263957D01*
X0282234Y0263929D01*
X0282315Y0263898D01*
X0282395Y0263863D01*
X0282473Y0263824D01*
X0282550Y0263782D01*
X0282625Y0263737D01*
X0282697Y0263688D01*
X0282768Y0263637D01*
X0282836Y0263582D01*
X0282901Y0263525D01*
X0282964Y0263464D01*
X0283025Y0263401D01*
X0283082Y0263336D01*
X0283137Y0263268D01*
X0283188Y0263197D01*
X0283237Y0263125D01*
X0283282Y0263050D01*
X0283324Y0262973D01*
X0283363Y0262895D01*
X0283398Y0262815D01*
X0283429Y0262734D01*
X0283457Y0262651D01*
X0283482Y0262568D01*
X0283503Y0262483D01*
X0283520Y0262397D01*
X0283533Y0262311D01*
X0283542Y0262224D01*
X0283548Y0262137D01*
X0283550Y0262050D01*
X0209550Y0096017D02*
X0209550Y0093517D01*
X0206050Y0094517D01*
X0208550Y0095267D02*
X0210550Y0095267D01*
X0210550Y0091550D02*
X0208550Y0090550D01*
X0208550Y0090300D02*
X0208550Y0089050D01*
X0208550Y0090300D02*
X0208548Y0090369D01*
X0208542Y0090438D01*
X0208533Y0090506D01*
X0208520Y0090573D01*
X0208503Y0090640D01*
X0208482Y0090706D01*
X0208458Y0090770D01*
X0208430Y0090833D01*
X0208399Y0090895D01*
X0208365Y0090955D01*
X0208327Y0091012D01*
X0208286Y0091068D01*
X0208243Y0091121D01*
X0208196Y0091172D01*
X0208147Y0091220D01*
X0208095Y0091265D01*
X0208040Y0091307D01*
X0207984Y0091346D01*
X0207925Y0091383D01*
X0207864Y0091415D01*
X0207802Y0091445D01*
X0207738Y0091471D01*
X0207673Y0091493D01*
X0207607Y0091512D01*
X0207540Y0091527D01*
X0207472Y0091538D01*
X0207403Y0091546D01*
X0207334Y0091550D01*
X0207266Y0091550D01*
X0207197Y0091546D01*
X0207128Y0091538D01*
X0207060Y0091527D01*
X0206993Y0091512D01*
X0206927Y0091493D01*
X0206862Y0091471D01*
X0206798Y0091445D01*
X0206736Y0091415D01*
X0206675Y0091383D01*
X0206616Y0091346D01*
X0206560Y0091307D01*
X0206505Y0091265D01*
X0206453Y0091220D01*
X0206404Y0091172D01*
X0206357Y0091121D01*
X0206314Y0091068D01*
X0206273Y0091012D01*
X0206235Y0090955D01*
X0206201Y0090895D01*
X0206170Y0090833D01*
X0206142Y0090770D01*
X0206118Y0090706D01*
X0206097Y0090640D01*
X0206080Y0090573D01*
X0206067Y0090506D01*
X0206058Y0090438D01*
X0206052Y0090369D01*
X0206050Y0090300D01*
X0206050Y0089050D01*
X0210550Y0089050D01*
X0259050Y0076550D02*
X0259050Y0072050D01*
X0259050Y0074050D02*
X0260300Y0074050D01*
X0260550Y0074050D02*
X0261550Y0072050D01*
X0264017Y0072050D02*
X0264104Y0072052D01*
X0264191Y0072058D01*
X0264278Y0072067D01*
X0264364Y0072080D01*
X0264450Y0072097D01*
X0264535Y0072118D01*
X0264618Y0072143D01*
X0264701Y0072171D01*
X0264782Y0072202D01*
X0264862Y0072237D01*
X0264940Y0072276D01*
X0265017Y0072318D01*
X0265092Y0072363D01*
X0265164Y0072412D01*
X0265235Y0072463D01*
X0265303Y0072518D01*
X0265368Y0072575D01*
X0265431Y0072636D01*
X0265492Y0072699D01*
X0265549Y0072764D01*
X0265604Y0072832D01*
X0265655Y0072903D01*
X0265704Y0072975D01*
X0265749Y0073050D01*
X0265791Y0073127D01*
X0265830Y0073205D01*
X0265865Y0073285D01*
X0265896Y0073366D01*
X0265924Y0073449D01*
X0265949Y0073532D01*
X0265970Y0073617D01*
X0265987Y0073703D01*
X0266000Y0073789D01*
X0266009Y0073876D01*
X0266015Y0073963D01*
X0266017Y0074050D01*
X0266017Y0075300D01*
X0266015Y0075369D01*
X0266009Y0075438D01*
X0266000Y0075506D01*
X0265987Y0075573D01*
X0265970Y0075640D01*
X0265949Y0075706D01*
X0265925Y0075770D01*
X0265897Y0075833D01*
X0265866Y0075895D01*
X0265832Y0075955D01*
X0265794Y0076012D01*
X0265753Y0076068D01*
X0265710Y0076121D01*
X0265663Y0076172D01*
X0265614Y0076220D01*
X0265562Y0076265D01*
X0265507Y0076307D01*
X0265451Y0076346D01*
X0265392Y0076383D01*
X0265331Y0076415D01*
X0265269Y0076445D01*
X0265205Y0076471D01*
X0265140Y0076493D01*
X0265074Y0076512D01*
X0265007Y0076527D01*
X0264939Y0076538D01*
X0264870Y0076546D01*
X0264801Y0076550D01*
X0264733Y0076550D01*
X0264664Y0076546D01*
X0264595Y0076538D01*
X0264527Y0076527D01*
X0264460Y0076512D01*
X0264394Y0076493D01*
X0264329Y0076471D01*
X0264265Y0076445D01*
X0264203Y0076415D01*
X0264142Y0076383D01*
X0264083Y0076346D01*
X0264027Y0076307D01*
X0263972Y0076265D01*
X0263920Y0076220D01*
X0263871Y0076172D01*
X0263824Y0076121D01*
X0263781Y0076068D01*
X0263740Y0076012D01*
X0263702Y0075955D01*
X0263668Y0075895D01*
X0263637Y0075833D01*
X0263609Y0075770D01*
X0263585Y0075706D01*
X0263564Y0075640D01*
X0263547Y0075573D01*
X0263534Y0075506D01*
X0263525Y0075438D01*
X0263519Y0075369D01*
X0263517Y0075300D01*
X0263517Y0075050D01*
X0263519Y0074990D01*
X0263524Y0074929D01*
X0263533Y0074870D01*
X0263546Y0074811D01*
X0263562Y0074752D01*
X0263582Y0074695D01*
X0263605Y0074640D01*
X0263632Y0074585D01*
X0263661Y0074533D01*
X0263694Y0074482D01*
X0263730Y0074433D01*
X0263768Y0074387D01*
X0263810Y0074343D01*
X0263854Y0074301D01*
X0263900Y0074263D01*
X0263949Y0074227D01*
X0264000Y0074194D01*
X0264052Y0074165D01*
X0264107Y0074138D01*
X0264162Y0074115D01*
X0264219Y0074095D01*
X0264278Y0074079D01*
X0264337Y0074066D01*
X0264396Y0074057D01*
X0264457Y0074052D01*
X0264517Y0074050D01*
X0266017Y0074050D01*
X0260300Y0074050D02*
X0260369Y0074052D01*
X0260438Y0074058D01*
X0260506Y0074067D01*
X0260573Y0074080D01*
X0260640Y0074097D01*
X0260706Y0074118D01*
X0260770Y0074142D01*
X0260833Y0074170D01*
X0260895Y0074201D01*
X0260955Y0074235D01*
X0261012Y0074273D01*
X0261068Y0074314D01*
X0261121Y0074357D01*
X0261172Y0074404D01*
X0261220Y0074453D01*
X0261265Y0074505D01*
X0261307Y0074560D01*
X0261346Y0074616D01*
X0261383Y0074675D01*
X0261415Y0074736D01*
X0261445Y0074798D01*
X0261471Y0074862D01*
X0261493Y0074927D01*
X0261512Y0074993D01*
X0261527Y0075060D01*
X0261538Y0075128D01*
X0261546Y0075197D01*
X0261550Y0075266D01*
X0261550Y0075334D01*
X0261546Y0075403D01*
X0261538Y0075472D01*
X0261527Y0075540D01*
X0261512Y0075607D01*
X0261493Y0075673D01*
X0261471Y0075738D01*
X0261445Y0075802D01*
X0261415Y0075864D01*
X0261383Y0075925D01*
X0261346Y0075984D01*
X0261307Y0076040D01*
X0261265Y0076095D01*
X0261220Y0076147D01*
X0261172Y0076196D01*
X0261121Y0076243D01*
X0261068Y0076286D01*
X0261012Y0076327D01*
X0260955Y0076365D01*
X0260895Y0076399D01*
X0260833Y0076430D01*
X0260770Y0076458D01*
X0260706Y0076482D01*
X0260640Y0076503D01*
X0260573Y0076520D01*
X0260506Y0076533D01*
X0260438Y0076542D01*
X0260369Y0076548D01*
X0260300Y0076550D01*
X0259050Y0076550D01*
X0117050Y0087550D02*
X0116050Y0087550D01*
X0117050Y0087550D02*
X0117112Y0087552D01*
X0117173Y0087558D01*
X0117234Y0087567D01*
X0117294Y0087580D01*
X0117353Y0087597D01*
X0117411Y0087618D01*
X0117468Y0087642D01*
X0117523Y0087669D01*
X0117576Y0087700D01*
X0117628Y0087734D01*
X0117677Y0087771D01*
X0117724Y0087811D01*
X0117768Y0087854D01*
X0117809Y0087899D01*
X0117848Y0087947D01*
X0117884Y0087998D01*
X0117916Y0088050D01*
X0117945Y0088104D01*
X0117971Y0088160D01*
X0117993Y0088218D01*
X0118012Y0088276D01*
X0118027Y0088336D01*
X0118038Y0088397D01*
X0118046Y0088458D01*
X0118050Y0088519D01*
X0118050Y0088581D01*
X0118046Y0088642D01*
X0118038Y0088703D01*
X0118027Y0088764D01*
X0118012Y0088824D01*
X0117993Y0088882D01*
X0117971Y0088940D01*
X0117945Y0088996D01*
X0117916Y0089050D01*
X0117884Y0089102D01*
X0117848Y0089153D01*
X0117809Y0089201D01*
X0117768Y0089246D01*
X0117724Y0089289D01*
X0117677Y0089329D01*
X0117628Y0089366D01*
X0117576Y0089400D01*
X0117523Y0089431D01*
X0117468Y0089458D01*
X0117411Y0089482D01*
X0117353Y0089503D01*
X0117294Y0089520D01*
X0117234Y0089533D01*
X0117173Y0089542D01*
X0117112Y0089548D01*
X0117050Y0089550D01*
X0115550Y0089550D01*
X0113785Y0089550D02*
X0112785Y0089550D01*
X0112725Y0089548D01*
X0112664Y0089543D01*
X0112605Y0089534D01*
X0112546Y0089521D01*
X0112487Y0089505D01*
X0112430Y0089485D01*
X0112375Y0089462D01*
X0112320Y0089435D01*
X0112268Y0089406D01*
X0112217Y0089373D01*
X0112168Y0089337D01*
X0112122Y0089299D01*
X0112078Y0089257D01*
X0112036Y0089213D01*
X0111998Y0089167D01*
X0111962Y0089118D01*
X0111929Y0089067D01*
X0111900Y0089015D01*
X0111873Y0088960D01*
X0111850Y0088905D01*
X0111830Y0088848D01*
X0111814Y0088789D01*
X0111801Y0088730D01*
X0111792Y0088671D01*
X0111787Y0088610D01*
X0111785Y0088550D01*
X0111785Y0086050D01*
X0111787Y0085990D01*
X0111792Y0085929D01*
X0111801Y0085870D01*
X0111814Y0085811D01*
X0111830Y0085752D01*
X0111850Y0085695D01*
X0111873Y0085640D01*
X0111900Y0085585D01*
X0111929Y0085533D01*
X0111962Y0085482D01*
X0111998Y0085433D01*
X0112036Y0085387D01*
X0112078Y0085343D01*
X0112122Y0085301D01*
X0112168Y0085263D01*
X0112217Y0085227D01*
X0112268Y0085194D01*
X0112320Y0085165D01*
X0112375Y0085138D01*
X0112430Y0085115D01*
X0112487Y0085095D01*
X0112546Y0085079D01*
X0112605Y0085066D01*
X0112664Y0085057D01*
X0112725Y0085052D01*
X0112785Y0085050D01*
X0113785Y0085050D01*
X0115550Y0085050D02*
X0116800Y0085050D01*
X0116869Y0085052D01*
X0116938Y0085058D01*
X0117006Y0085067D01*
X0117073Y0085080D01*
X0117140Y0085097D01*
X0117206Y0085118D01*
X0117270Y0085142D01*
X0117333Y0085170D01*
X0117395Y0085201D01*
X0117455Y0085235D01*
X0117512Y0085273D01*
X0117568Y0085314D01*
X0117621Y0085357D01*
X0117672Y0085404D01*
X0117720Y0085453D01*
X0117765Y0085505D01*
X0117807Y0085560D01*
X0117846Y0085616D01*
X0117883Y0085675D01*
X0117915Y0085736D01*
X0117945Y0085798D01*
X0117971Y0085862D01*
X0117993Y0085927D01*
X0118012Y0085993D01*
X0118027Y0086060D01*
X0118038Y0086128D01*
X0118046Y0086197D01*
X0118050Y0086266D01*
X0118050Y0086334D01*
X0118046Y0086403D01*
X0118038Y0086472D01*
X0118027Y0086540D01*
X0118012Y0086607D01*
X0117993Y0086673D01*
X0117971Y0086738D01*
X0117945Y0086802D01*
X0117915Y0086864D01*
X0117883Y0086925D01*
X0117846Y0086984D01*
X0117807Y0087040D01*
X0117765Y0087095D01*
X0117720Y0087147D01*
X0117672Y0087196D01*
X0117621Y0087243D01*
X0117568Y0087286D01*
X0117512Y0087327D01*
X0117455Y0087365D01*
X0117395Y0087399D01*
X0117333Y0087430D01*
X0117270Y0087458D01*
X0117206Y0087482D01*
X0117140Y0087503D01*
X0117073Y0087520D01*
X0117006Y0087533D01*
X0116938Y0087542D01*
X0116869Y0087548D01*
X0116800Y0087550D01*
X0109950Y0089550D02*
X0108950Y0089550D01*
X0109450Y0089550D02*
X0109450Y0085050D01*
X0108950Y0085050D02*
X0109950Y0085050D01*
D15*
X0151300Y0078800D02*
X0151300Y0061300D01*
X0181300Y0061300D01*
X0181300Y0053800D01*
X0151300Y0053800D01*
X0151300Y0061300D01*
X0151300Y0078800D02*
X0181300Y0078800D01*
X0181300Y0061300D01*
X0255080Y0097639D02*
X0323190Y0097639D01*
X0323190Y0114961D01*
X0255080Y0114961D01*
X0255080Y0097639D01*
X0298800Y0166300D02*
X0298800Y0196300D01*
X0316300Y0196300D01*
X0316300Y0166300D01*
X0298800Y0166300D01*
X0316300Y0166300D02*
X0323800Y0166300D01*
X0323800Y0196300D01*
X0316300Y0196300D01*
X0161300Y0233800D02*
X0131300Y0233800D01*
X0131300Y0251300D01*
X0161300Y0251300D01*
X0161300Y0233800D01*
X0161300Y0251300D02*
X0161300Y0258800D01*
X0131300Y0258800D01*
X0131300Y0251300D01*
X0063800Y0196300D02*
X0063800Y0166300D01*
X0046300Y0166300D01*
X0046300Y0196300D01*
X0063800Y0196300D01*
X0046300Y0196300D02*
X0038800Y0196300D01*
X0038800Y0166300D01*
X0046300Y0166300D01*
D16*
X0036100Y0166500D02*
X0032500Y0166500D01*
X0032500Y0167500D01*
X0032502Y0167562D01*
X0032508Y0167623D01*
X0032517Y0167684D01*
X0032530Y0167744D01*
X0032547Y0167803D01*
X0032568Y0167861D01*
X0032592Y0167918D01*
X0032619Y0167973D01*
X0032650Y0168026D01*
X0032684Y0168078D01*
X0032721Y0168127D01*
X0032761Y0168174D01*
X0032804Y0168218D01*
X0032849Y0168259D01*
X0032897Y0168298D01*
X0032948Y0168334D01*
X0033000Y0168366D01*
X0033054Y0168395D01*
X0033110Y0168421D01*
X0033168Y0168443D01*
X0033226Y0168462D01*
X0033286Y0168477D01*
X0033347Y0168488D01*
X0033408Y0168496D01*
X0033469Y0168500D01*
X0033531Y0168500D01*
X0033592Y0168496D01*
X0033653Y0168488D01*
X0033714Y0168477D01*
X0033774Y0168462D01*
X0033832Y0168443D01*
X0033890Y0168421D01*
X0033946Y0168395D01*
X0034000Y0168366D01*
X0034052Y0168334D01*
X0034103Y0168298D01*
X0034151Y0168259D01*
X0034196Y0168218D01*
X0034239Y0168174D01*
X0034279Y0168127D01*
X0034316Y0168078D01*
X0034350Y0168026D01*
X0034381Y0167973D01*
X0034408Y0167918D01*
X0034432Y0167861D01*
X0034453Y0167803D01*
X0034470Y0167744D01*
X0034483Y0167684D01*
X0034492Y0167623D01*
X0034498Y0167562D01*
X0034500Y0167500D01*
X0034500Y0166500D01*
X0034100Y0170048D02*
X0034100Y0171248D01*
X0032500Y0171648D02*
X0032500Y0170048D01*
X0036100Y0170048D01*
X0036100Y0171648D01*
X0036100Y0173160D02*
X0032500Y0173160D01*
X0032500Y0174160D01*
X0032502Y0174220D01*
X0032507Y0174281D01*
X0032516Y0174340D01*
X0032529Y0174399D01*
X0032545Y0174458D01*
X0032565Y0174515D01*
X0032588Y0174570D01*
X0032615Y0174625D01*
X0032644Y0174677D01*
X0032677Y0174728D01*
X0032713Y0174777D01*
X0032751Y0174823D01*
X0032793Y0174867D01*
X0032837Y0174909D01*
X0032883Y0174947D01*
X0032932Y0174983D01*
X0032983Y0175016D01*
X0033035Y0175045D01*
X0033090Y0175072D01*
X0033145Y0175095D01*
X0033202Y0175115D01*
X0033261Y0175131D01*
X0033320Y0175144D01*
X0033379Y0175153D01*
X0033440Y0175158D01*
X0033500Y0175160D01*
X0035100Y0175160D01*
X0035160Y0175158D01*
X0035221Y0175153D01*
X0035280Y0175144D01*
X0035339Y0175131D01*
X0035398Y0175115D01*
X0035455Y0175095D01*
X0035510Y0175072D01*
X0035565Y0175045D01*
X0035617Y0175016D01*
X0035668Y0174983D01*
X0035717Y0174947D01*
X0035763Y0174909D01*
X0035807Y0174867D01*
X0035849Y0174823D01*
X0035887Y0174777D01*
X0035923Y0174728D01*
X0035956Y0174677D01*
X0035985Y0174625D01*
X0036012Y0174570D01*
X0036035Y0174515D01*
X0036055Y0174458D01*
X0036071Y0174399D01*
X0036084Y0174340D01*
X0036093Y0174281D01*
X0036098Y0174220D01*
X0036100Y0174160D01*
X0036100Y0173160D01*
X0036100Y0176680D02*
X0032500Y0177880D01*
X0036100Y0179080D01*
X0035200Y0178780D02*
X0035200Y0176980D01*
X0036100Y0180608D02*
X0032500Y0180608D01*
X0036100Y0180608D02*
X0036100Y0182208D01*
X0036500Y0183440D02*
X0036500Y0185040D01*
X0036100Y0186660D02*
X0032500Y0186660D01*
X0032500Y0187660D01*
X0032502Y0187722D01*
X0032508Y0187783D01*
X0032517Y0187844D01*
X0032530Y0187904D01*
X0032547Y0187963D01*
X0032568Y0188021D01*
X0032592Y0188078D01*
X0032619Y0188133D01*
X0032650Y0188186D01*
X0032684Y0188238D01*
X0032721Y0188287D01*
X0032761Y0188334D01*
X0032804Y0188378D01*
X0032849Y0188419D01*
X0032897Y0188458D01*
X0032948Y0188494D01*
X0033000Y0188526D01*
X0033054Y0188555D01*
X0033110Y0188581D01*
X0033168Y0188603D01*
X0033226Y0188622D01*
X0033286Y0188637D01*
X0033347Y0188648D01*
X0033408Y0188656D01*
X0033469Y0188660D01*
X0033531Y0188660D01*
X0033592Y0188656D01*
X0033653Y0188648D01*
X0033714Y0188637D01*
X0033774Y0188622D01*
X0033832Y0188603D01*
X0033890Y0188581D01*
X0033946Y0188555D01*
X0034000Y0188526D01*
X0034052Y0188494D01*
X0034103Y0188458D01*
X0034151Y0188419D01*
X0034196Y0188378D01*
X0034239Y0188334D01*
X0034279Y0188287D01*
X0034316Y0188238D01*
X0034350Y0188186D01*
X0034381Y0188133D01*
X0034408Y0188078D01*
X0034432Y0188021D01*
X0034453Y0187963D01*
X0034470Y0187904D01*
X0034483Y0187844D01*
X0034492Y0187783D01*
X0034498Y0187722D01*
X0034500Y0187660D01*
X0034500Y0186660D01*
X0035100Y0190080D02*
X0033500Y0190080D01*
X0033438Y0190082D01*
X0033377Y0190088D01*
X0033316Y0190097D01*
X0033256Y0190110D01*
X0033197Y0190127D01*
X0033139Y0190148D01*
X0033082Y0190172D01*
X0033027Y0190199D01*
X0032974Y0190230D01*
X0032922Y0190264D01*
X0032873Y0190301D01*
X0032826Y0190341D01*
X0032782Y0190384D01*
X0032741Y0190429D01*
X0032702Y0190477D01*
X0032666Y0190528D01*
X0032634Y0190580D01*
X0032605Y0190634D01*
X0032579Y0190690D01*
X0032557Y0190748D01*
X0032538Y0190806D01*
X0032523Y0190866D01*
X0032512Y0190927D01*
X0032504Y0190988D01*
X0032500Y0191049D01*
X0032500Y0191111D01*
X0032504Y0191172D01*
X0032512Y0191233D01*
X0032523Y0191294D01*
X0032538Y0191354D01*
X0032557Y0191412D01*
X0032579Y0191470D01*
X0032605Y0191526D01*
X0032634Y0191580D01*
X0032666Y0191632D01*
X0032702Y0191683D01*
X0032741Y0191731D01*
X0032782Y0191776D01*
X0032826Y0191819D01*
X0032873Y0191859D01*
X0032922Y0191896D01*
X0032974Y0191930D01*
X0033027Y0191961D01*
X0033082Y0191988D01*
X0033139Y0192012D01*
X0033197Y0192033D01*
X0033256Y0192050D01*
X0033316Y0192063D01*
X0033377Y0192072D01*
X0033438Y0192078D01*
X0033500Y0192080D01*
X0035100Y0192080D01*
X0035162Y0192078D01*
X0035223Y0192072D01*
X0035284Y0192063D01*
X0035344Y0192050D01*
X0035403Y0192033D01*
X0035461Y0192012D01*
X0035518Y0191988D01*
X0035573Y0191961D01*
X0035626Y0191930D01*
X0035678Y0191896D01*
X0035727Y0191859D01*
X0035774Y0191819D01*
X0035818Y0191776D01*
X0035859Y0191731D01*
X0035898Y0191683D01*
X0035934Y0191632D01*
X0035966Y0191580D01*
X0035995Y0191526D01*
X0036021Y0191470D01*
X0036043Y0191412D01*
X0036062Y0191354D01*
X0036077Y0191294D01*
X0036088Y0191233D01*
X0036096Y0191172D01*
X0036100Y0191111D01*
X0036100Y0191049D01*
X0036096Y0190988D01*
X0036088Y0190927D01*
X0036077Y0190866D01*
X0036062Y0190806D01*
X0036043Y0190748D01*
X0036021Y0190690D01*
X0035995Y0190634D01*
X0035966Y0190580D01*
X0035934Y0190528D01*
X0035898Y0190477D01*
X0035859Y0190429D01*
X0035818Y0190384D01*
X0035774Y0190341D01*
X0035727Y0190301D01*
X0035678Y0190264D01*
X0035626Y0190230D01*
X0035573Y0190199D01*
X0035518Y0190172D01*
X0035461Y0190148D01*
X0035403Y0190127D01*
X0035344Y0190110D01*
X0035284Y0190097D01*
X0035223Y0190088D01*
X0035162Y0190082D01*
X0035100Y0190080D01*
X0034000Y0194060D02*
X0034600Y0195160D01*
X0036100Y0194760D02*
X0036098Y0194682D01*
X0036093Y0194603D01*
X0036084Y0194525D01*
X0036071Y0194448D01*
X0036055Y0194371D01*
X0036035Y0194295D01*
X0036011Y0194220D01*
X0035985Y0194146D01*
X0035954Y0194074D01*
X0035921Y0194003D01*
X0035884Y0193934D01*
X0035844Y0193866D01*
X0035801Y0193800D01*
X0035755Y0193737D01*
X0035706Y0193676D01*
X0035654Y0193617D01*
X0035600Y0193560D01*
X0034600Y0195159D02*
X0034631Y0195207D01*
X0034664Y0195252D01*
X0034700Y0195295D01*
X0034740Y0195335D01*
X0034782Y0195372D01*
X0034826Y0195406D01*
X0034873Y0195438D01*
X0034922Y0195466D01*
X0034972Y0195490D01*
X0035025Y0195511D01*
X0035078Y0195528D01*
X0035133Y0195542D01*
X0035188Y0195551D01*
X0035244Y0195557D01*
X0035300Y0195559D01*
X0035300Y0195560D02*
X0035355Y0195558D01*
X0035409Y0195553D01*
X0035463Y0195543D01*
X0035516Y0195530D01*
X0035568Y0195514D01*
X0035619Y0195494D01*
X0035668Y0195470D01*
X0035716Y0195444D01*
X0035761Y0195414D01*
X0035805Y0195381D01*
X0035846Y0195345D01*
X0035885Y0195306D01*
X0035921Y0195265D01*
X0035954Y0195221D01*
X0035984Y0195176D01*
X0036010Y0195128D01*
X0036034Y0195079D01*
X0036054Y0195028D01*
X0036070Y0194976D01*
X0036083Y0194923D01*
X0036093Y0194869D01*
X0036098Y0194815D01*
X0036100Y0194760D01*
X0032800Y0195360D02*
X0032757Y0195300D01*
X0032717Y0195237D01*
X0032680Y0195173D01*
X0032646Y0195106D01*
X0032616Y0195039D01*
X0032589Y0194969D01*
X0032566Y0194899D01*
X0032546Y0194827D01*
X0032529Y0194755D01*
X0032517Y0194682D01*
X0032507Y0194608D01*
X0032502Y0194534D01*
X0032500Y0194460D01*
X0032502Y0194405D01*
X0032507Y0194351D01*
X0032517Y0194297D01*
X0032530Y0194244D01*
X0032546Y0194192D01*
X0032566Y0194141D01*
X0032590Y0194092D01*
X0032616Y0194044D01*
X0032646Y0193999D01*
X0032679Y0193955D01*
X0032715Y0193914D01*
X0032754Y0193875D01*
X0032795Y0193839D01*
X0032839Y0193806D01*
X0032884Y0193776D01*
X0032932Y0193750D01*
X0032981Y0193726D01*
X0033032Y0193706D01*
X0033084Y0193690D01*
X0033137Y0193677D01*
X0033191Y0193667D01*
X0033245Y0193662D01*
X0033300Y0193660D01*
X0033356Y0193662D01*
X0033412Y0193668D01*
X0033467Y0193677D01*
X0033522Y0193691D01*
X0033575Y0193708D01*
X0033628Y0193729D01*
X0033678Y0193753D01*
X0033727Y0193781D01*
X0033774Y0193813D01*
X0033818Y0193847D01*
X0033860Y0193884D01*
X0033900Y0193924D01*
X0033936Y0193967D01*
X0033969Y0194012D01*
X0034000Y0194060D01*
X0032500Y0196920D02*
X0032500Y0197720D01*
X0032500Y0197320D02*
X0036100Y0197320D01*
X0036100Y0196920D02*
X0036100Y0197720D01*
X0036100Y0199960D02*
X0032500Y0199960D01*
X0032500Y0198960D02*
X0032500Y0200960D01*
X0032500Y0202200D02*
X0032500Y0203000D01*
X0032500Y0202600D02*
X0036100Y0202600D01*
X0036100Y0202200D02*
X0036100Y0203000D01*
X0035100Y0204480D02*
X0033500Y0204480D01*
X0033438Y0204482D01*
X0033377Y0204488D01*
X0033316Y0204497D01*
X0033256Y0204510D01*
X0033197Y0204527D01*
X0033139Y0204548D01*
X0033082Y0204572D01*
X0033027Y0204599D01*
X0032974Y0204630D01*
X0032922Y0204664D01*
X0032873Y0204701D01*
X0032826Y0204741D01*
X0032782Y0204784D01*
X0032741Y0204829D01*
X0032702Y0204877D01*
X0032666Y0204928D01*
X0032634Y0204980D01*
X0032605Y0205034D01*
X0032579Y0205090D01*
X0032557Y0205148D01*
X0032538Y0205206D01*
X0032523Y0205266D01*
X0032512Y0205327D01*
X0032504Y0205388D01*
X0032500Y0205449D01*
X0032500Y0205511D01*
X0032504Y0205572D01*
X0032512Y0205633D01*
X0032523Y0205694D01*
X0032538Y0205754D01*
X0032557Y0205812D01*
X0032579Y0205870D01*
X0032605Y0205926D01*
X0032634Y0205980D01*
X0032666Y0206032D01*
X0032702Y0206083D01*
X0032741Y0206131D01*
X0032782Y0206176D01*
X0032826Y0206219D01*
X0032873Y0206259D01*
X0032922Y0206296D01*
X0032974Y0206330D01*
X0033027Y0206361D01*
X0033082Y0206388D01*
X0033139Y0206412D01*
X0033197Y0206433D01*
X0033256Y0206450D01*
X0033316Y0206463D01*
X0033377Y0206472D01*
X0033438Y0206478D01*
X0033500Y0206480D01*
X0035100Y0206480D01*
X0035162Y0206478D01*
X0035223Y0206472D01*
X0035284Y0206463D01*
X0035344Y0206450D01*
X0035403Y0206433D01*
X0035461Y0206412D01*
X0035518Y0206388D01*
X0035573Y0206361D01*
X0035626Y0206330D01*
X0035678Y0206296D01*
X0035727Y0206259D01*
X0035774Y0206219D01*
X0035818Y0206176D01*
X0035859Y0206131D01*
X0035898Y0206083D01*
X0035934Y0206032D01*
X0035966Y0205980D01*
X0035995Y0205926D01*
X0036021Y0205870D01*
X0036043Y0205812D01*
X0036062Y0205754D01*
X0036077Y0205694D01*
X0036088Y0205633D01*
X0036096Y0205572D01*
X0036100Y0205511D01*
X0036100Y0205449D01*
X0036096Y0205388D01*
X0036088Y0205327D01*
X0036077Y0205266D01*
X0036062Y0205206D01*
X0036043Y0205148D01*
X0036021Y0205090D01*
X0035995Y0205034D01*
X0035966Y0204980D01*
X0035934Y0204928D01*
X0035898Y0204877D01*
X0035859Y0204829D01*
X0035818Y0204784D01*
X0035774Y0204741D01*
X0035727Y0204701D01*
X0035678Y0204664D01*
X0035626Y0204630D01*
X0035573Y0204599D01*
X0035518Y0204572D01*
X0035461Y0204548D01*
X0035403Y0204527D01*
X0035344Y0204510D01*
X0035284Y0204497D01*
X0035223Y0204488D01*
X0035162Y0204482D01*
X0035100Y0204480D01*
X0036100Y0208200D02*
X0032500Y0208200D01*
X0036100Y0210200D01*
X0032500Y0210200D01*
X0036500Y0211760D02*
X0036500Y0213360D01*
X0036100Y0214800D02*
X0036100Y0216800D01*
X0036100Y0214800D02*
X0034100Y0216500D01*
X0032500Y0215900D02*
X0032502Y0215834D01*
X0032508Y0215768D01*
X0032517Y0215703D01*
X0032530Y0215638D01*
X0032547Y0215574D01*
X0032567Y0215511D01*
X0032591Y0215450D01*
X0032619Y0215390D01*
X0032650Y0215331D01*
X0032684Y0215275D01*
X0032721Y0215220D01*
X0032761Y0215168D01*
X0032805Y0215118D01*
X0032851Y0215071D01*
X0032900Y0215026D01*
X0032951Y0214984D01*
X0033004Y0214945D01*
X0033060Y0214910D01*
X0033117Y0214877D01*
X0033177Y0214848D01*
X0033238Y0214822D01*
X0033300Y0214800D01*
X0034100Y0216500D02*
X0034057Y0216542D01*
X0034012Y0216582D01*
X0033964Y0216618D01*
X0033914Y0216652D01*
X0033862Y0216682D01*
X0033808Y0216710D01*
X0033753Y0216733D01*
X0033696Y0216753D01*
X0033638Y0216770D01*
X0033580Y0216783D01*
X0033520Y0216793D01*
X0033460Y0216798D01*
X0033400Y0216800D01*
X0033341Y0216798D01*
X0033283Y0216792D01*
X0033224Y0216783D01*
X0033167Y0216769D01*
X0033111Y0216752D01*
X0033056Y0216731D01*
X0033002Y0216707D01*
X0032950Y0216679D01*
X0032900Y0216648D01*
X0032852Y0216614D01*
X0032807Y0216577D01*
X0032764Y0216536D01*
X0032723Y0216493D01*
X0032686Y0216448D01*
X0032652Y0216400D01*
X0032621Y0216350D01*
X0032593Y0216298D01*
X0032569Y0216244D01*
X0032548Y0216189D01*
X0032531Y0216133D01*
X0032517Y0216076D01*
X0032508Y0216017D01*
X0032502Y0215959D01*
X0032500Y0215900D01*
X0131500Y0262500D02*
X0131500Y0264100D01*
X0131502Y0264162D01*
X0131508Y0264223D01*
X0131517Y0264284D01*
X0131530Y0264344D01*
X0131547Y0264403D01*
X0131568Y0264461D01*
X0131592Y0264518D01*
X0131619Y0264573D01*
X0131650Y0264626D01*
X0131684Y0264678D01*
X0131721Y0264727D01*
X0131761Y0264774D01*
X0131804Y0264818D01*
X0131849Y0264859D01*
X0131897Y0264898D01*
X0131948Y0264934D01*
X0132000Y0264966D01*
X0132054Y0264995D01*
X0132110Y0265021D01*
X0132168Y0265043D01*
X0132226Y0265062D01*
X0132286Y0265077D01*
X0132347Y0265088D01*
X0132408Y0265096D01*
X0132469Y0265100D01*
X0132531Y0265100D01*
X0132592Y0265096D01*
X0132653Y0265088D01*
X0132714Y0265077D01*
X0132774Y0265062D01*
X0132832Y0265043D01*
X0132890Y0265021D01*
X0132946Y0264995D01*
X0133000Y0264966D01*
X0133052Y0264934D01*
X0133103Y0264898D01*
X0133151Y0264859D01*
X0133196Y0264818D01*
X0133239Y0264774D01*
X0133279Y0264727D01*
X0133316Y0264678D01*
X0133350Y0264626D01*
X0133381Y0264573D01*
X0133408Y0264518D01*
X0133432Y0264461D01*
X0133453Y0264403D01*
X0133470Y0264344D01*
X0133483Y0264284D01*
X0133492Y0264223D01*
X0133498Y0264162D01*
X0133500Y0264100D01*
X0133500Y0262500D01*
X0133498Y0262438D01*
X0133492Y0262377D01*
X0133483Y0262316D01*
X0133470Y0262256D01*
X0133453Y0262197D01*
X0133432Y0262139D01*
X0133408Y0262082D01*
X0133381Y0262027D01*
X0133350Y0261974D01*
X0133316Y0261922D01*
X0133279Y0261873D01*
X0133239Y0261826D01*
X0133196Y0261782D01*
X0133151Y0261741D01*
X0133103Y0261702D01*
X0133052Y0261666D01*
X0133000Y0261634D01*
X0132946Y0261605D01*
X0132890Y0261579D01*
X0132832Y0261557D01*
X0132774Y0261538D01*
X0132714Y0261523D01*
X0132653Y0261512D01*
X0132592Y0261504D01*
X0132531Y0261500D01*
X0132469Y0261500D01*
X0132408Y0261504D01*
X0132347Y0261512D01*
X0132286Y0261523D01*
X0132226Y0261538D01*
X0132168Y0261557D01*
X0132110Y0261579D01*
X0132054Y0261605D01*
X0132000Y0261634D01*
X0131948Y0261666D01*
X0131897Y0261702D01*
X0131849Y0261741D01*
X0131804Y0261782D01*
X0131761Y0261826D01*
X0131721Y0261873D01*
X0131684Y0261922D01*
X0131650Y0261974D01*
X0131619Y0262027D01*
X0131592Y0262082D01*
X0131568Y0262139D01*
X0131547Y0262197D01*
X0131530Y0262256D01*
X0131517Y0262316D01*
X0131508Y0262377D01*
X0131502Y0262438D01*
X0131500Y0262500D01*
X0135220Y0262500D02*
X0135220Y0265100D01*
X0137220Y0265100D02*
X0137220Y0262500D01*
X0137218Y0262438D01*
X0137212Y0262377D01*
X0137203Y0262316D01*
X0137190Y0262256D01*
X0137173Y0262197D01*
X0137152Y0262139D01*
X0137128Y0262082D01*
X0137101Y0262027D01*
X0137070Y0261974D01*
X0137036Y0261922D01*
X0136999Y0261873D01*
X0136959Y0261826D01*
X0136916Y0261782D01*
X0136871Y0261741D01*
X0136823Y0261702D01*
X0136772Y0261666D01*
X0136720Y0261634D01*
X0136666Y0261605D01*
X0136610Y0261579D01*
X0136552Y0261557D01*
X0136494Y0261538D01*
X0136434Y0261523D01*
X0136373Y0261512D01*
X0136312Y0261504D01*
X0136251Y0261500D01*
X0136189Y0261500D01*
X0136128Y0261504D01*
X0136067Y0261512D01*
X0136006Y0261523D01*
X0135946Y0261538D01*
X0135888Y0261557D01*
X0135830Y0261579D01*
X0135774Y0261605D01*
X0135720Y0261634D01*
X0135668Y0261666D01*
X0135617Y0261702D01*
X0135569Y0261741D01*
X0135524Y0261782D01*
X0135481Y0261826D01*
X0135441Y0261873D01*
X0135404Y0261922D01*
X0135370Y0261974D01*
X0135339Y0262027D01*
X0135312Y0262082D01*
X0135288Y0262139D01*
X0135267Y0262197D01*
X0135250Y0262256D01*
X0135237Y0262316D01*
X0135228Y0262377D01*
X0135222Y0262438D01*
X0135220Y0262500D01*
X0138700Y0265100D02*
X0140700Y0265100D01*
X0139700Y0265100D02*
X0139700Y0261500D01*
X0255476Y0121730D02*
X0256754Y0121730D01*
X0255476Y0121730D02*
X0255476Y0117130D01*
X0255476Y0119174D02*
X0256754Y0119174D01*
X0257010Y0119174D02*
X0258032Y0117130D01*
X0259947Y0117130D02*
X0261225Y0117130D01*
X0261295Y0117132D01*
X0261366Y0117138D01*
X0261435Y0117147D01*
X0261504Y0117161D01*
X0261573Y0117178D01*
X0261640Y0117199D01*
X0261706Y0117224D01*
X0261770Y0117252D01*
X0261833Y0117284D01*
X0261894Y0117319D01*
X0261953Y0117358D01*
X0262010Y0117399D01*
X0262064Y0117444D01*
X0262116Y0117492D01*
X0262165Y0117542D01*
X0262212Y0117596D01*
X0262255Y0117651D01*
X0262295Y0117709D01*
X0262332Y0117769D01*
X0262365Y0117831D01*
X0262395Y0117895D01*
X0262422Y0117960D01*
X0262445Y0118026D01*
X0262464Y0118094D01*
X0262479Y0118163D01*
X0262491Y0118232D01*
X0262499Y0118302D01*
X0262503Y0118373D01*
X0262503Y0118443D01*
X0262499Y0118514D01*
X0262491Y0118584D01*
X0262479Y0118653D01*
X0262464Y0118722D01*
X0262445Y0118790D01*
X0262422Y0118856D01*
X0262395Y0118921D01*
X0262365Y0118985D01*
X0262332Y0119047D01*
X0262295Y0119107D01*
X0262255Y0119165D01*
X0262212Y0119220D01*
X0262165Y0119274D01*
X0262116Y0119324D01*
X0262064Y0119372D01*
X0262010Y0119417D01*
X0261953Y0119458D01*
X0261894Y0119497D01*
X0261833Y0119532D01*
X0261770Y0119564D01*
X0261706Y0119592D01*
X0261640Y0119617D01*
X0261573Y0119638D01*
X0261504Y0119655D01*
X0261435Y0119669D01*
X0261366Y0119678D01*
X0261295Y0119684D01*
X0261225Y0119686D01*
X0261481Y0119685D02*
X0260458Y0119685D01*
X0261481Y0119686D02*
X0261544Y0119688D01*
X0261607Y0119694D01*
X0261669Y0119703D01*
X0261730Y0119717D01*
X0261791Y0119734D01*
X0261850Y0119755D01*
X0261908Y0119780D01*
X0261965Y0119808D01*
X0262019Y0119839D01*
X0262071Y0119874D01*
X0262122Y0119912D01*
X0262170Y0119953D01*
X0262215Y0119997D01*
X0262257Y0120043D01*
X0262297Y0120092D01*
X0262333Y0120143D01*
X0262366Y0120197D01*
X0262396Y0120252D01*
X0262422Y0120310D01*
X0262445Y0120368D01*
X0262464Y0120428D01*
X0262479Y0120489D01*
X0262491Y0120551D01*
X0262499Y0120614D01*
X0262503Y0120677D01*
X0262503Y0120739D01*
X0262499Y0120802D01*
X0262491Y0120865D01*
X0262479Y0120927D01*
X0262464Y0120988D01*
X0262445Y0121048D01*
X0262422Y0121106D01*
X0262396Y0121164D01*
X0262366Y0121219D01*
X0262333Y0121273D01*
X0262297Y0121324D01*
X0262257Y0121373D01*
X0262215Y0121419D01*
X0262170Y0121463D01*
X0262122Y0121504D01*
X0262071Y0121542D01*
X0262019Y0121577D01*
X0261965Y0121608D01*
X0261908Y0121636D01*
X0261850Y0121661D01*
X0261791Y0121682D01*
X0261730Y0121699D01*
X0261669Y0121713D01*
X0261607Y0121722D01*
X0261544Y0121728D01*
X0261481Y0121730D01*
X0259947Y0121730D01*
X0256754Y0121730D02*
X0256824Y0121728D01*
X0256895Y0121722D01*
X0256964Y0121713D01*
X0257033Y0121699D01*
X0257102Y0121682D01*
X0257169Y0121661D01*
X0257235Y0121636D01*
X0257299Y0121608D01*
X0257362Y0121576D01*
X0257423Y0121541D01*
X0257482Y0121502D01*
X0257539Y0121461D01*
X0257593Y0121416D01*
X0257645Y0121368D01*
X0257694Y0121318D01*
X0257741Y0121264D01*
X0257784Y0121209D01*
X0257824Y0121151D01*
X0257861Y0121091D01*
X0257894Y0121029D01*
X0257924Y0120965D01*
X0257951Y0120900D01*
X0257974Y0120834D01*
X0257993Y0120766D01*
X0258008Y0120697D01*
X0258020Y0120628D01*
X0258028Y0120558D01*
X0258032Y0120487D01*
X0258032Y0120417D01*
X0258028Y0120346D01*
X0258020Y0120276D01*
X0258008Y0120207D01*
X0257993Y0120138D01*
X0257974Y0120070D01*
X0257951Y0120004D01*
X0257924Y0119939D01*
X0257894Y0119875D01*
X0257861Y0119813D01*
X0257824Y0119753D01*
X0257784Y0119695D01*
X0257741Y0119640D01*
X0257694Y0119586D01*
X0257645Y0119536D01*
X0257593Y0119488D01*
X0257539Y0119443D01*
X0257482Y0119402D01*
X0257423Y0119363D01*
X0257362Y0119328D01*
X0257299Y0119296D01*
X0257235Y0119268D01*
X0257169Y0119243D01*
X0257102Y0119222D01*
X0257033Y0119205D01*
X0256964Y0119191D01*
X0256895Y0119182D01*
X0256824Y0119176D01*
X0256754Y0119174D01*
X0326500Y0145800D02*
X0326500Y0146800D01*
X0326500Y0145800D02*
X0330100Y0145800D01*
X0328500Y0145800D02*
X0328500Y0146800D01*
X0328498Y0146862D01*
X0328492Y0146923D01*
X0328483Y0146984D01*
X0328470Y0147044D01*
X0328453Y0147103D01*
X0328432Y0147161D01*
X0328408Y0147218D01*
X0328381Y0147273D01*
X0328350Y0147326D01*
X0328316Y0147378D01*
X0328279Y0147427D01*
X0328239Y0147474D01*
X0328196Y0147518D01*
X0328151Y0147559D01*
X0328103Y0147598D01*
X0328052Y0147634D01*
X0328000Y0147666D01*
X0327946Y0147695D01*
X0327890Y0147721D01*
X0327832Y0147743D01*
X0327774Y0147762D01*
X0327714Y0147777D01*
X0327653Y0147788D01*
X0327592Y0147796D01*
X0327531Y0147800D01*
X0327469Y0147800D01*
X0327408Y0147796D01*
X0327347Y0147788D01*
X0327286Y0147777D01*
X0327226Y0147762D01*
X0327168Y0147743D01*
X0327110Y0147721D01*
X0327054Y0147695D01*
X0327000Y0147666D01*
X0326948Y0147634D01*
X0326897Y0147598D01*
X0326849Y0147559D01*
X0326804Y0147518D01*
X0326761Y0147474D01*
X0326721Y0147427D01*
X0326684Y0147378D01*
X0326650Y0147326D01*
X0326619Y0147273D01*
X0326592Y0147218D01*
X0326568Y0147161D01*
X0326547Y0147103D01*
X0326530Y0147044D01*
X0326517Y0146984D01*
X0326508Y0146923D01*
X0326502Y0146862D01*
X0326500Y0146800D01*
X0326500Y0149348D02*
X0326500Y0150948D01*
X0326500Y0152460D02*
X0326500Y0153460D01*
X0326500Y0152460D02*
X0330100Y0152460D01*
X0330100Y0153460D01*
X0330098Y0153520D01*
X0330093Y0153581D01*
X0330084Y0153640D01*
X0330071Y0153699D01*
X0330055Y0153758D01*
X0330035Y0153815D01*
X0330012Y0153870D01*
X0329985Y0153925D01*
X0329956Y0153977D01*
X0329923Y0154028D01*
X0329887Y0154077D01*
X0329849Y0154123D01*
X0329807Y0154167D01*
X0329763Y0154209D01*
X0329717Y0154247D01*
X0329668Y0154283D01*
X0329617Y0154316D01*
X0329565Y0154345D01*
X0329510Y0154372D01*
X0329455Y0154395D01*
X0329398Y0154415D01*
X0329339Y0154431D01*
X0329280Y0154444D01*
X0329221Y0154453D01*
X0329160Y0154458D01*
X0329100Y0154460D01*
X0327500Y0154460D01*
X0327440Y0154458D01*
X0327379Y0154453D01*
X0327320Y0154444D01*
X0327261Y0154431D01*
X0327202Y0154415D01*
X0327145Y0154395D01*
X0327090Y0154372D01*
X0327035Y0154345D01*
X0326983Y0154316D01*
X0326932Y0154283D01*
X0326883Y0154247D01*
X0326837Y0154209D01*
X0326793Y0154167D01*
X0326751Y0154123D01*
X0326713Y0154077D01*
X0326677Y0154028D01*
X0326644Y0153977D01*
X0326615Y0153925D01*
X0326588Y0153870D01*
X0326565Y0153815D01*
X0326545Y0153758D01*
X0326529Y0153699D01*
X0326516Y0153640D01*
X0326507Y0153581D01*
X0326502Y0153520D01*
X0326500Y0153460D01*
X0328100Y0150548D02*
X0328100Y0149348D01*
X0326500Y0149348D02*
X0330100Y0149348D01*
X0330100Y0150948D01*
X0330100Y0155980D02*
X0326500Y0157180D01*
X0330100Y0158380D01*
X0329200Y0158080D02*
X0329200Y0156280D01*
X0330100Y0159908D02*
X0326500Y0159908D01*
X0330100Y0159908D02*
X0330100Y0161508D01*
X0330500Y0162740D02*
X0330500Y0164340D01*
X0330100Y0165960D02*
X0326500Y0165960D01*
X0326500Y0166960D01*
X0326502Y0167022D01*
X0326508Y0167083D01*
X0326517Y0167144D01*
X0326530Y0167204D01*
X0326547Y0167263D01*
X0326568Y0167321D01*
X0326592Y0167378D01*
X0326619Y0167433D01*
X0326650Y0167486D01*
X0326684Y0167538D01*
X0326721Y0167587D01*
X0326761Y0167634D01*
X0326804Y0167678D01*
X0326849Y0167719D01*
X0326897Y0167758D01*
X0326948Y0167794D01*
X0327000Y0167826D01*
X0327054Y0167855D01*
X0327110Y0167881D01*
X0327168Y0167903D01*
X0327226Y0167922D01*
X0327286Y0167937D01*
X0327347Y0167948D01*
X0327408Y0167956D01*
X0327469Y0167960D01*
X0327531Y0167960D01*
X0327592Y0167956D01*
X0327653Y0167948D01*
X0327714Y0167937D01*
X0327774Y0167922D01*
X0327832Y0167903D01*
X0327890Y0167881D01*
X0327946Y0167855D01*
X0328000Y0167826D01*
X0328052Y0167794D01*
X0328103Y0167758D01*
X0328151Y0167719D01*
X0328196Y0167678D01*
X0328239Y0167634D01*
X0328279Y0167587D01*
X0328316Y0167538D01*
X0328350Y0167486D01*
X0328381Y0167433D01*
X0328408Y0167378D01*
X0328432Y0167321D01*
X0328453Y0167263D01*
X0328470Y0167204D01*
X0328483Y0167144D01*
X0328492Y0167083D01*
X0328498Y0167022D01*
X0328500Y0166960D01*
X0328500Y0165960D01*
X0329100Y0169380D02*
X0327500Y0169380D01*
X0327438Y0169382D01*
X0327377Y0169388D01*
X0327316Y0169397D01*
X0327256Y0169410D01*
X0327197Y0169427D01*
X0327139Y0169448D01*
X0327082Y0169472D01*
X0327027Y0169499D01*
X0326974Y0169530D01*
X0326922Y0169564D01*
X0326873Y0169601D01*
X0326826Y0169641D01*
X0326782Y0169684D01*
X0326741Y0169729D01*
X0326702Y0169777D01*
X0326666Y0169828D01*
X0326634Y0169880D01*
X0326605Y0169934D01*
X0326579Y0169990D01*
X0326557Y0170048D01*
X0326538Y0170106D01*
X0326523Y0170166D01*
X0326512Y0170227D01*
X0326504Y0170288D01*
X0326500Y0170349D01*
X0326500Y0170411D01*
X0326504Y0170472D01*
X0326512Y0170533D01*
X0326523Y0170594D01*
X0326538Y0170654D01*
X0326557Y0170712D01*
X0326579Y0170770D01*
X0326605Y0170826D01*
X0326634Y0170880D01*
X0326666Y0170932D01*
X0326702Y0170983D01*
X0326741Y0171031D01*
X0326782Y0171076D01*
X0326826Y0171119D01*
X0326873Y0171159D01*
X0326922Y0171196D01*
X0326974Y0171230D01*
X0327027Y0171261D01*
X0327082Y0171288D01*
X0327139Y0171312D01*
X0327197Y0171333D01*
X0327256Y0171350D01*
X0327316Y0171363D01*
X0327377Y0171372D01*
X0327438Y0171378D01*
X0327500Y0171380D01*
X0329100Y0171380D01*
X0329162Y0171378D01*
X0329223Y0171372D01*
X0329284Y0171363D01*
X0329344Y0171350D01*
X0329403Y0171333D01*
X0329461Y0171312D01*
X0329518Y0171288D01*
X0329573Y0171261D01*
X0329626Y0171230D01*
X0329678Y0171196D01*
X0329727Y0171159D01*
X0329774Y0171119D01*
X0329818Y0171076D01*
X0329859Y0171031D01*
X0329898Y0170983D01*
X0329934Y0170932D01*
X0329966Y0170880D01*
X0329995Y0170826D01*
X0330021Y0170770D01*
X0330043Y0170712D01*
X0330062Y0170654D01*
X0330077Y0170594D01*
X0330088Y0170533D01*
X0330096Y0170472D01*
X0330100Y0170411D01*
X0330100Y0170349D01*
X0330096Y0170288D01*
X0330088Y0170227D01*
X0330077Y0170166D01*
X0330062Y0170106D01*
X0330043Y0170048D01*
X0330021Y0169990D01*
X0329995Y0169934D01*
X0329966Y0169880D01*
X0329934Y0169828D01*
X0329898Y0169777D01*
X0329859Y0169729D01*
X0329818Y0169684D01*
X0329774Y0169641D01*
X0329727Y0169601D01*
X0329678Y0169564D01*
X0329626Y0169530D01*
X0329573Y0169499D01*
X0329518Y0169472D01*
X0329461Y0169448D01*
X0329403Y0169427D01*
X0329344Y0169410D01*
X0329284Y0169397D01*
X0329223Y0169388D01*
X0329162Y0169382D01*
X0329100Y0169380D01*
X0328000Y0173360D02*
X0328600Y0174460D01*
X0330100Y0174060D02*
X0330098Y0173982D01*
X0330093Y0173903D01*
X0330084Y0173825D01*
X0330071Y0173748D01*
X0330055Y0173671D01*
X0330035Y0173595D01*
X0330011Y0173520D01*
X0329985Y0173446D01*
X0329954Y0173374D01*
X0329921Y0173303D01*
X0329884Y0173234D01*
X0329844Y0173166D01*
X0329801Y0173100D01*
X0329755Y0173037D01*
X0329706Y0172976D01*
X0329654Y0172917D01*
X0329600Y0172860D01*
X0328600Y0174460D02*
X0328631Y0174508D01*
X0328664Y0174553D01*
X0328700Y0174596D01*
X0328740Y0174636D01*
X0328782Y0174673D01*
X0328826Y0174707D01*
X0328873Y0174739D01*
X0328922Y0174767D01*
X0328972Y0174791D01*
X0329025Y0174812D01*
X0329078Y0174829D01*
X0329133Y0174843D01*
X0329188Y0174852D01*
X0329244Y0174858D01*
X0329300Y0174860D01*
X0329355Y0174858D01*
X0329409Y0174853D01*
X0329463Y0174843D01*
X0329516Y0174830D01*
X0329568Y0174814D01*
X0329619Y0174794D01*
X0329668Y0174770D01*
X0329716Y0174744D01*
X0329761Y0174714D01*
X0329805Y0174681D01*
X0329846Y0174645D01*
X0329885Y0174606D01*
X0329921Y0174565D01*
X0329954Y0174521D01*
X0329984Y0174476D01*
X0330010Y0174428D01*
X0330034Y0174379D01*
X0330054Y0174328D01*
X0330070Y0174276D01*
X0330083Y0174223D01*
X0330093Y0174169D01*
X0330098Y0174115D01*
X0330100Y0174060D01*
X0326800Y0174660D02*
X0326757Y0174600D01*
X0326717Y0174537D01*
X0326680Y0174473D01*
X0326646Y0174406D01*
X0326616Y0174339D01*
X0326589Y0174269D01*
X0326566Y0174199D01*
X0326546Y0174127D01*
X0326529Y0174055D01*
X0326517Y0173982D01*
X0326507Y0173908D01*
X0326502Y0173834D01*
X0326500Y0173760D01*
X0326502Y0173705D01*
X0326507Y0173651D01*
X0326517Y0173597D01*
X0326530Y0173544D01*
X0326546Y0173492D01*
X0326566Y0173441D01*
X0326590Y0173392D01*
X0326616Y0173344D01*
X0326646Y0173299D01*
X0326679Y0173255D01*
X0326715Y0173214D01*
X0326754Y0173175D01*
X0326795Y0173139D01*
X0326839Y0173106D01*
X0326884Y0173076D01*
X0326932Y0173050D01*
X0326981Y0173026D01*
X0327032Y0173006D01*
X0327084Y0172990D01*
X0327137Y0172977D01*
X0327191Y0172967D01*
X0327245Y0172962D01*
X0327300Y0172960D01*
X0327300Y0172961D02*
X0327356Y0172963D01*
X0327412Y0172969D01*
X0327467Y0172978D01*
X0327522Y0172992D01*
X0327575Y0173009D01*
X0327628Y0173030D01*
X0327678Y0173054D01*
X0327727Y0173082D01*
X0327774Y0173114D01*
X0327818Y0173148D01*
X0327860Y0173185D01*
X0327900Y0173225D01*
X0327936Y0173268D01*
X0327969Y0173313D01*
X0328000Y0173361D01*
X0326500Y0176220D02*
X0326500Y0177020D01*
X0326500Y0176620D02*
X0330100Y0176620D01*
X0330100Y0176220D02*
X0330100Y0177020D01*
X0330100Y0179260D02*
X0326500Y0179260D01*
X0326500Y0178260D02*
X0326500Y0180260D01*
X0326500Y0181500D02*
X0326500Y0182300D01*
X0326500Y0181900D02*
X0330100Y0181900D01*
X0330100Y0181500D02*
X0330100Y0182300D01*
X0329100Y0183780D02*
X0327500Y0183780D01*
X0327438Y0183782D01*
X0327377Y0183788D01*
X0327316Y0183797D01*
X0327256Y0183810D01*
X0327197Y0183827D01*
X0327139Y0183848D01*
X0327082Y0183872D01*
X0327027Y0183899D01*
X0326974Y0183930D01*
X0326922Y0183964D01*
X0326873Y0184001D01*
X0326826Y0184041D01*
X0326782Y0184084D01*
X0326741Y0184129D01*
X0326702Y0184177D01*
X0326666Y0184228D01*
X0326634Y0184280D01*
X0326605Y0184334D01*
X0326579Y0184390D01*
X0326557Y0184448D01*
X0326538Y0184506D01*
X0326523Y0184566D01*
X0326512Y0184627D01*
X0326504Y0184688D01*
X0326500Y0184749D01*
X0326500Y0184811D01*
X0326504Y0184872D01*
X0326512Y0184933D01*
X0326523Y0184994D01*
X0326538Y0185054D01*
X0326557Y0185112D01*
X0326579Y0185170D01*
X0326605Y0185226D01*
X0326634Y0185280D01*
X0326666Y0185332D01*
X0326702Y0185383D01*
X0326741Y0185431D01*
X0326782Y0185476D01*
X0326826Y0185519D01*
X0326873Y0185559D01*
X0326922Y0185596D01*
X0326974Y0185630D01*
X0327027Y0185661D01*
X0327082Y0185688D01*
X0327139Y0185712D01*
X0327197Y0185733D01*
X0327256Y0185750D01*
X0327316Y0185763D01*
X0327377Y0185772D01*
X0327438Y0185778D01*
X0327500Y0185780D01*
X0329100Y0185780D01*
X0329162Y0185778D01*
X0329223Y0185772D01*
X0329284Y0185763D01*
X0329344Y0185750D01*
X0329403Y0185733D01*
X0329461Y0185712D01*
X0329518Y0185688D01*
X0329573Y0185661D01*
X0329626Y0185630D01*
X0329678Y0185596D01*
X0329727Y0185559D01*
X0329774Y0185519D01*
X0329818Y0185476D01*
X0329859Y0185431D01*
X0329898Y0185383D01*
X0329934Y0185332D01*
X0329966Y0185280D01*
X0329995Y0185226D01*
X0330021Y0185170D01*
X0330043Y0185112D01*
X0330062Y0185054D01*
X0330077Y0184994D01*
X0330088Y0184933D01*
X0330096Y0184872D01*
X0330100Y0184811D01*
X0330100Y0184749D01*
X0330096Y0184688D01*
X0330088Y0184627D01*
X0330077Y0184566D01*
X0330062Y0184506D01*
X0330043Y0184448D01*
X0330021Y0184390D01*
X0329995Y0184334D01*
X0329966Y0184280D01*
X0329934Y0184228D01*
X0329898Y0184177D01*
X0329859Y0184129D01*
X0329818Y0184084D01*
X0329774Y0184041D01*
X0329727Y0184001D01*
X0329678Y0183964D01*
X0329626Y0183930D01*
X0329573Y0183899D01*
X0329518Y0183872D01*
X0329461Y0183848D01*
X0329403Y0183827D01*
X0329344Y0183810D01*
X0329284Y0183797D01*
X0329223Y0183788D01*
X0329162Y0183782D01*
X0329100Y0183780D01*
X0330100Y0187500D02*
X0326500Y0187500D01*
X0330100Y0189500D01*
X0326500Y0189500D01*
X0330500Y0191060D02*
X0330500Y0192660D01*
X0330100Y0194100D02*
X0330100Y0196100D01*
X0330100Y0195100D02*
X0326500Y0195100D01*
X0327300Y0194100D01*
X0181100Y0051100D02*
X0181100Y0047500D01*
X0179100Y0051100D01*
X0179100Y0047500D01*
X0177500Y0047500D02*
X0176700Y0047500D01*
X0177100Y0047500D02*
X0177100Y0051100D01*
X0176700Y0051100D02*
X0177500Y0051100D01*
D17*
X0216300Y0083800D02*
X0216300Y0085300D01*
X0253800Y0066300D02*
X0255300Y0066300D01*
X0287300Y0066300D02*
X0288800Y0066300D01*
X0216300Y0117300D02*
X0216300Y0118800D01*
X0281300Y0168800D02*
X0281300Y0170300D01*
X0281300Y0202300D02*
X0281300Y0203800D01*
X0253800Y0211300D02*
X0252300Y0211300D01*
X0252300Y0231300D02*
X0253800Y0231300D01*
X0220300Y0231300D02*
X0218800Y0231300D01*
X0218800Y0211300D02*
X0220300Y0211300D01*
X0168800Y0211300D02*
X0167300Y0211300D01*
X0135300Y0211300D02*
X0133800Y0211300D01*
X0093800Y0226300D02*
X0092300Y0226300D01*
X0060300Y0226300D02*
X0058800Y0226300D01*
X0133800Y0176300D02*
X0135300Y0176300D01*
X0167300Y0176300D02*
X0168800Y0176300D01*
D18*
X0216300Y0120500D03*
X0216300Y0115500D03*
X0216300Y0087100D03*
X0216300Y0082100D03*
X0281300Y0167100D03*
X0281300Y0172100D03*
X0281300Y0200500D03*
X0281300Y0205500D03*
D19*
X0255500Y0211300D03*
X0250500Y0211300D03*
X0250500Y0231300D03*
X0255500Y0231300D03*
X0222100Y0231300D03*
X0217100Y0231300D03*
X0217100Y0211300D03*
X0222100Y0211300D03*
X0170500Y0211300D03*
X0165500Y0211300D03*
X0137100Y0211300D03*
X0132100Y0211300D03*
X0095500Y0226300D03*
X0090500Y0226300D03*
X0062100Y0226300D03*
X0057100Y0226300D03*
X0132100Y0176300D03*
X0137100Y0176300D03*
X0165500Y0176300D03*
X0170500Y0176300D03*
X0222600Y0146300D03*
X0260000Y0146300D03*
X0257100Y0066300D03*
X0252100Y0066300D03*
X0285500Y0066300D03*
X0290500Y0066300D03*
D20*
X0277800Y0257300D02*
X0277800Y0286300D01*
X0274800Y0286300D02*
X0274800Y0257300D01*
X0267800Y0257300D02*
X0267800Y0286300D01*
X0264800Y0286300D02*
X0264800Y0257300D01*
X0257800Y0257300D02*
X0257800Y0286300D01*
X0254800Y0286300D02*
X0254800Y0257300D01*
X0247800Y0257300D02*
X0247800Y0286300D01*
X0244800Y0286300D02*
X0244800Y0257300D01*
X0237800Y0257300D02*
X0237800Y0286300D01*
X0234800Y0286300D02*
X0234800Y0257300D01*
X0227800Y0257300D02*
X0227800Y0286300D01*
X0224800Y0286300D02*
X0224800Y0257300D01*
X0217800Y0257300D02*
X0217800Y0286300D01*
X0214800Y0286300D02*
X0214800Y0257300D01*
X0207800Y0257300D02*
X0207800Y0286300D01*
X0204800Y0286300D02*
X0204800Y0257300D01*
M02*
