%
M48
M72
T01C0.01378
T02C0.03200
T03C0.03543
T04C0.03937
T05C0.05600
%
T01
X231100Y201100
T02
X231300Y196300
X221300Y196300
X211300Y211300
X211300Y231300
X211300Y251300
X221300Y251300
X231300Y251300
X241300Y251300
X251300Y251300
X261300Y251300
X271300Y251300
X281300Y251300
X261300Y231300
X261300Y211300
X251300Y196300
X241300Y196300
X241300Y166300
X231300Y166300
X221300Y166300
X216300Y146300
X216300Y126300
X181300Y126300
X181300Y116300
X181300Y106300
X181300Y96300
X151300Y96300
X151300Y106300
X151300Y116300
X151300Y126300
X151300Y136300
X151300Y146300
X151300Y156300
X126300Y176300
X121300Y156300
X121300Y146300
X121300Y136300
X121300Y126300
X121300Y116300
X121300Y106300
X121300Y96300
X91300Y96300
X91300Y106300
X91300Y116300
X91300Y126300
X91300Y136300
X91300Y146300
X91300Y156300
X126300Y211300
X101300Y226300
X51300Y226300
X176300Y211300
X176300Y176300
X181300Y156300
X181300Y146300
X181300Y136300
X251300Y166300
X266300Y146300
X281300Y161300
X281300Y211300
X201300Y251300
X216300Y76300
X246300Y66300
X296300Y66300
T03
X291300Y101300
X311300Y111300
X261300Y111300
T04
X26300Y51300
X156300Y66300
X166300Y66300
X176300Y66300
X51300Y171300
X51300Y181300
X51300Y191300
X26300Y256300
X136300Y246300
X146300Y246300
X156300Y246300
X311300Y191300
X311300Y181300
X311300Y171300
X321300Y256300
X316300Y51300
T05
X51300Y51300
X51300Y111300
M30
