G75*
%MOIN*%
%OFA0B0*%
%FSLAX25Y25*%
%IPPOS*%
%LPD*%
%AMOC8*
5,1,8,0,0,1.08239X$1,22.5*
%
%ADD10R,0.09000X0.09000*%
%ADD11C,0.05200*%
%ADD12C,0.05200*%
%ADD13C,0.05937*%
%ADD14OC8,0.05200*%
%ADD15C,0.05543*%
%ADD16C,0.00600*%
%ADD17C,0.02978*%
D10*
X0051300Y0051300D03*
X0051300Y0111300D03*
D11*
X0221300Y0166300D03*
X0231300Y0166300D03*
X0241300Y0166300D03*
X0251300Y0166300D03*
X0251300Y0196300D03*
X0241300Y0196300D03*
X0231300Y0196300D03*
X0221300Y0196300D03*
D12*
X0183900Y0156300D02*
X0178700Y0156300D01*
X0178700Y0146300D02*
X0183900Y0146300D01*
X0183900Y0136300D02*
X0178700Y0136300D01*
X0178700Y0126300D02*
X0183900Y0126300D01*
X0183900Y0116300D02*
X0178700Y0116300D01*
X0178700Y0106300D02*
X0183900Y0106300D01*
X0183900Y0096300D02*
X0178700Y0096300D01*
X0153900Y0096300D02*
X0148700Y0096300D01*
X0148700Y0106300D02*
X0153900Y0106300D01*
X0153900Y0116300D02*
X0148700Y0116300D01*
X0148700Y0126300D02*
X0153900Y0126300D01*
X0153900Y0136300D02*
X0148700Y0136300D01*
X0148700Y0146300D02*
X0153900Y0146300D01*
X0153900Y0156300D02*
X0148700Y0156300D01*
X0123900Y0156300D02*
X0118700Y0156300D01*
X0118700Y0146300D02*
X0123900Y0146300D01*
X0123900Y0136300D02*
X0118700Y0136300D01*
X0118700Y0126300D02*
X0123900Y0126300D01*
X0123900Y0116300D02*
X0118700Y0116300D01*
X0118700Y0106300D02*
X0123900Y0106300D01*
X0123900Y0096300D02*
X0118700Y0096300D01*
X0093900Y0096300D02*
X0088700Y0096300D01*
X0088700Y0106300D02*
X0093900Y0106300D01*
X0093900Y0116300D02*
X0088700Y0116300D01*
X0088700Y0126300D02*
X0093900Y0126300D01*
X0093900Y0136300D02*
X0088700Y0136300D01*
X0088700Y0146300D02*
X0093900Y0146300D01*
X0093900Y0156300D02*
X0088700Y0156300D01*
X0201300Y0248700D02*
X0201300Y0253900D01*
X0211300Y0253900D02*
X0211300Y0248700D01*
X0221300Y0248700D02*
X0221300Y0253900D01*
X0231300Y0253900D02*
X0231300Y0248700D01*
X0241300Y0248700D02*
X0241300Y0253900D01*
X0251300Y0253900D02*
X0251300Y0248700D01*
X0261300Y0248700D02*
X0261300Y0253900D01*
X0271300Y0253900D02*
X0271300Y0248700D01*
X0281300Y0248700D02*
X0281300Y0253900D01*
D13*
X0308331Y0191300D02*
X0314269Y0191300D01*
X0314269Y0181300D02*
X0308331Y0181300D01*
X0308331Y0171300D02*
X0314269Y0171300D01*
X0176300Y0069269D02*
X0176300Y0063331D01*
X0166300Y0063331D02*
X0166300Y0069269D01*
X0156300Y0069269D02*
X0156300Y0063331D01*
X0054269Y0171300D02*
X0048331Y0171300D01*
X0048331Y0181300D02*
X0054269Y0181300D01*
X0054269Y0191300D02*
X0048331Y0191300D01*
X0136300Y0243331D02*
X0136300Y0249269D01*
X0146300Y0249269D02*
X0146300Y0243331D01*
X0156300Y0243331D02*
X0156300Y0249269D01*
D14*
X0176300Y0211300D03*
X0211300Y0211300D03*
X0211300Y0231300D03*
X0261300Y0231300D03*
X0261300Y0211300D03*
X0281300Y0211300D03*
X0281300Y0161300D03*
X0266300Y0146300D03*
X0216300Y0146300D03*
X0216300Y0126300D03*
X0216300Y0076300D03*
X0246300Y0066300D03*
X0296300Y0066300D03*
X0176300Y0176300D03*
X0126300Y0176300D03*
X0126300Y0211300D03*
X0101300Y0226300D03*
X0051300Y0226300D03*
D15*
X0261300Y0111300D03*
X0291300Y0101300D03*
X0311300Y0111300D03*
D16*
X0356300Y0001300D02*
X0001300Y0001300D01*
X0001300Y0281300D01*
X0356300Y0281300D01*
X0356300Y0001300D01*
X0356300Y0001337D02*
X0001300Y0001337D01*
X0001300Y0001936D02*
X0356300Y0001936D01*
X0356300Y0002534D02*
X0001300Y0002534D01*
X0001300Y0003133D02*
X0356300Y0003133D01*
X0356300Y0003731D02*
X0001300Y0003731D01*
X0001300Y0004330D02*
X0356300Y0004330D01*
X0356300Y0004928D02*
X0001300Y0004928D01*
X0001300Y0005527D02*
X0356300Y0005527D01*
X0356300Y0006125D02*
X0001300Y0006125D01*
X0001300Y0006724D02*
X0356300Y0006724D01*
X0356300Y0007322D02*
X0001300Y0007322D01*
X0001300Y0007921D02*
X0356300Y0007921D01*
X0356300Y0008519D02*
X0001300Y0008519D01*
X0001300Y0009118D02*
X0356300Y0009118D01*
X0356300Y0009716D02*
X0001300Y0009716D01*
X0001300Y0010315D02*
X0356300Y0010315D01*
X0356300Y0010913D02*
X0001300Y0010913D01*
X0001300Y0011512D02*
X0356300Y0011512D01*
X0356300Y0012110D02*
X0001300Y0012110D01*
X0001300Y0012709D02*
X0356300Y0012709D01*
X0356300Y0013307D02*
X0001300Y0013307D01*
X0001300Y0013906D02*
X0356300Y0013906D01*
X0356300Y0014504D02*
X0001300Y0014504D01*
X0001300Y0015103D02*
X0356300Y0015103D01*
X0356300Y0015701D02*
X0001300Y0015701D01*
X0001300Y0016300D02*
X0356300Y0016300D01*
X0356300Y0016899D02*
X0001300Y0016899D01*
X0001300Y0017497D02*
X0356300Y0017497D01*
X0356300Y0018096D02*
X0001300Y0018096D01*
X0001300Y0018694D02*
X0356300Y0018694D01*
X0356300Y0019293D02*
X0001300Y0019293D01*
X0001300Y0019891D02*
X0356300Y0019891D01*
X0356300Y0020490D02*
X0001300Y0020490D01*
X0001300Y0021088D02*
X0356300Y0021088D01*
X0356300Y0021687D02*
X0001300Y0021687D01*
X0001300Y0022285D02*
X0356300Y0022285D01*
X0356300Y0022884D02*
X0001300Y0022884D01*
X0001300Y0023482D02*
X0356300Y0023482D01*
X0356300Y0024081D02*
X0001300Y0024081D01*
X0001300Y0024679D02*
X0356300Y0024679D01*
X0356300Y0025278D02*
X0001300Y0025278D01*
X0001300Y0025876D02*
X0356300Y0025876D01*
X0356300Y0026475D02*
X0001300Y0026475D01*
X0001300Y0027073D02*
X0356300Y0027073D01*
X0356300Y0027672D02*
X0001300Y0027672D01*
X0001300Y0028270D02*
X0356300Y0028270D01*
X0356300Y0028869D02*
X0001300Y0028869D01*
X0001300Y0029467D02*
X0356300Y0029467D01*
X0356300Y0030066D02*
X0001300Y0030066D01*
X0001300Y0030664D02*
X0356300Y0030664D01*
X0356300Y0031263D02*
X0001300Y0031263D01*
X0001300Y0031861D02*
X0356300Y0031861D01*
X0356300Y0032460D02*
X0001300Y0032460D01*
X0001300Y0033058D02*
X0356300Y0033058D01*
X0356300Y0033657D02*
X0001300Y0033657D01*
X0001300Y0034255D02*
X0356300Y0034255D01*
X0356300Y0034854D02*
X0001300Y0034854D01*
X0001300Y0035452D02*
X0356300Y0035452D01*
X0356300Y0036051D02*
X0001300Y0036051D01*
X0001300Y0036649D02*
X0356300Y0036649D01*
X0356300Y0037248D02*
X0336455Y0037248D01*
X0335856Y0037000D02*
X0337437Y0037655D01*
X0338646Y0038864D01*
X0339301Y0040445D01*
X0339301Y0267116D01*
X0338646Y0268696D01*
X0337437Y0269906D01*
X0335856Y0270561D01*
X0015445Y0270561D01*
X0013864Y0269906D01*
X0012655Y0268696D01*
X0012000Y0267116D01*
X0012000Y0040445D01*
X0012655Y0038864D01*
X0013864Y0037655D01*
X0015445Y0037000D01*
X0017155Y0037000D01*
X0334145Y0037000D01*
X0335856Y0037000D01*
X0337628Y0037846D02*
X0356300Y0037846D01*
X0356300Y0038445D02*
X0338227Y0038445D01*
X0338720Y0039043D02*
X0356300Y0039043D01*
X0356300Y0039642D02*
X0338968Y0039642D01*
X0339216Y0040240D02*
X0356300Y0040240D01*
X0356300Y0040839D02*
X0339301Y0040839D01*
X0339301Y0041437D02*
X0356300Y0041437D01*
X0356300Y0042036D02*
X0339301Y0042036D01*
X0339301Y0042634D02*
X0356300Y0042634D01*
X0356300Y0043233D02*
X0339301Y0043233D01*
X0339301Y0043832D02*
X0356300Y0043832D01*
X0356300Y0044430D02*
X0339301Y0044430D01*
X0339301Y0045029D02*
X0356300Y0045029D01*
X0356300Y0045627D02*
X0339301Y0045627D01*
X0339301Y0046226D02*
X0356300Y0046226D01*
X0356300Y0046824D02*
X0339301Y0046824D01*
X0339301Y0047423D02*
X0356300Y0047423D01*
X0356300Y0048021D02*
X0339301Y0048021D01*
X0339301Y0048620D02*
X0356300Y0048620D01*
X0356300Y0049218D02*
X0339301Y0049218D01*
X0339301Y0049817D02*
X0356300Y0049817D01*
X0356300Y0050415D02*
X0339301Y0050415D01*
X0339301Y0051014D02*
X0356300Y0051014D01*
X0356300Y0051612D02*
X0339301Y0051612D01*
X0339301Y0052211D02*
X0356300Y0052211D01*
X0356300Y0052809D02*
X0339301Y0052809D01*
X0339301Y0053408D02*
X0356300Y0053408D01*
X0356300Y0054006D02*
X0339301Y0054006D01*
X0339301Y0054605D02*
X0356300Y0054605D01*
X0356300Y0055203D02*
X0339301Y0055203D01*
X0339301Y0055802D02*
X0356300Y0055802D01*
X0356300Y0056400D02*
X0339301Y0056400D01*
X0339301Y0056999D02*
X0356300Y0056999D01*
X0356300Y0057597D02*
X0339301Y0057597D01*
X0339301Y0058196D02*
X0356300Y0058196D01*
X0356300Y0058794D02*
X0339301Y0058794D01*
X0339301Y0059393D02*
X0356300Y0059393D01*
X0356300Y0059991D02*
X0339301Y0059991D01*
X0339301Y0060590D02*
X0356300Y0060590D01*
X0356300Y0061188D02*
X0339301Y0061188D01*
X0339301Y0061787D02*
X0356300Y0061787D01*
X0356300Y0062385D02*
X0339301Y0062385D01*
X0339301Y0062984D02*
X0356300Y0062984D01*
X0356300Y0063582D02*
X0339301Y0063582D01*
X0339301Y0064181D02*
X0356300Y0064181D01*
X0356300Y0064779D02*
X0339301Y0064779D01*
X0339301Y0065378D02*
X0356300Y0065378D01*
X0356300Y0065976D02*
X0339301Y0065976D01*
X0339301Y0066575D02*
X0356300Y0066575D01*
X0356300Y0067173D02*
X0339301Y0067173D01*
X0339301Y0067772D02*
X0356300Y0067772D01*
X0356300Y0068370D02*
X0339301Y0068370D01*
X0339301Y0068969D02*
X0356300Y0068969D01*
X0356300Y0069568D02*
X0339301Y0069568D01*
X0339301Y0070166D02*
X0356300Y0070166D01*
X0356300Y0070765D02*
X0339301Y0070765D01*
X0339301Y0071363D02*
X0356300Y0071363D01*
X0356300Y0071962D02*
X0339301Y0071962D01*
X0339301Y0072560D02*
X0356300Y0072560D01*
X0356300Y0073159D02*
X0339301Y0073159D01*
X0339301Y0073757D02*
X0356300Y0073757D01*
X0356300Y0074356D02*
X0339301Y0074356D01*
X0339301Y0074954D02*
X0356300Y0074954D01*
X0356300Y0075553D02*
X0339301Y0075553D01*
X0339301Y0076151D02*
X0356300Y0076151D01*
X0356300Y0076750D02*
X0339301Y0076750D01*
X0339301Y0077348D02*
X0356300Y0077348D01*
X0356300Y0077947D02*
X0339301Y0077947D01*
X0339301Y0078545D02*
X0356300Y0078545D01*
X0356300Y0079144D02*
X0339301Y0079144D01*
X0339301Y0079742D02*
X0356300Y0079742D01*
X0356300Y0080341D02*
X0339301Y0080341D01*
X0339301Y0080939D02*
X0356300Y0080939D01*
X0356300Y0081538D02*
X0339301Y0081538D01*
X0339301Y0082136D02*
X0356300Y0082136D01*
X0356300Y0082735D02*
X0339301Y0082735D01*
X0339301Y0083333D02*
X0356300Y0083333D01*
X0356300Y0083932D02*
X0339301Y0083932D01*
X0339301Y0084530D02*
X0356300Y0084530D01*
X0356300Y0085129D02*
X0339301Y0085129D01*
X0339301Y0085727D02*
X0356300Y0085727D01*
X0356300Y0086326D02*
X0339301Y0086326D01*
X0339301Y0086924D02*
X0356300Y0086924D01*
X0356300Y0087523D02*
X0339301Y0087523D01*
X0339301Y0088121D02*
X0356300Y0088121D01*
X0356300Y0088720D02*
X0339301Y0088720D01*
X0339301Y0089318D02*
X0356300Y0089318D01*
X0356300Y0089917D02*
X0339301Y0089917D01*
X0339301Y0090515D02*
X0356300Y0090515D01*
X0356300Y0091114D02*
X0339301Y0091114D01*
X0339301Y0091712D02*
X0356300Y0091712D01*
X0356300Y0092311D02*
X0339301Y0092311D01*
X0339301Y0092909D02*
X0356300Y0092909D01*
X0356300Y0093508D02*
X0339301Y0093508D01*
X0339301Y0094106D02*
X0356300Y0094106D01*
X0356300Y0094705D02*
X0339301Y0094705D01*
X0339301Y0095303D02*
X0356300Y0095303D01*
X0356300Y0095902D02*
X0339301Y0095902D01*
X0339301Y0096501D02*
X0356300Y0096501D01*
X0356300Y0097099D02*
X0339301Y0097099D01*
X0339301Y0097698D02*
X0356300Y0097698D01*
X0356300Y0098296D02*
X0339301Y0098296D01*
X0339301Y0098895D02*
X0356300Y0098895D01*
X0356300Y0099493D02*
X0339301Y0099493D01*
X0339301Y0100092D02*
X0356300Y0100092D01*
X0356300Y0100690D02*
X0339301Y0100690D01*
X0339301Y0101289D02*
X0356300Y0101289D01*
X0356300Y0101887D02*
X0339301Y0101887D01*
X0339301Y0102486D02*
X0356300Y0102486D01*
X0356300Y0103084D02*
X0339301Y0103084D01*
X0339301Y0103683D02*
X0356300Y0103683D01*
X0356300Y0104281D02*
X0339301Y0104281D01*
X0339301Y0104880D02*
X0356300Y0104880D01*
X0356300Y0105478D02*
X0339301Y0105478D01*
X0339301Y0106077D02*
X0356300Y0106077D01*
X0356300Y0106675D02*
X0339301Y0106675D01*
X0339301Y0107274D02*
X0356300Y0107274D01*
X0356300Y0107872D02*
X0339301Y0107872D01*
X0339301Y0108471D02*
X0356300Y0108471D01*
X0356300Y0109069D02*
X0339301Y0109069D01*
X0339301Y0109668D02*
X0356300Y0109668D01*
X0356300Y0110266D02*
X0339301Y0110266D01*
X0339301Y0110865D02*
X0356300Y0110865D01*
X0356300Y0111463D02*
X0339301Y0111463D01*
X0339301Y0112062D02*
X0356300Y0112062D01*
X0356300Y0112660D02*
X0339301Y0112660D01*
X0339301Y0113259D02*
X0356300Y0113259D01*
X0356300Y0113857D02*
X0339301Y0113857D01*
X0339301Y0114456D02*
X0356300Y0114456D01*
X0356300Y0115054D02*
X0339301Y0115054D01*
X0339301Y0115653D02*
X0356300Y0115653D01*
X0356300Y0116251D02*
X0339301Y0116251D01*
X0339301Y0116850D02*
X0356300Y0116850D01*
X0356300Y0117448D02*
X0339301Y0117448D01*
X0339301Y0118047D02*
X0356300Y0118047D01*
X0356300Y0118645D02*
X0339301Y0118645D01*
X0339301Y0119244D02*
X0356300Y0119244D01*
X0356300Y0119842D02*
X0339301Y0119842D01*
X0339301Y0120441D02*
X0356300Y0120441D01*
X0356300Y0121039D02*
X0339301Y0121039D01*
X0339301Y0121638D02*
X0356300Y0121638D01*
X0356300Y0122237D02*
X0339301Y0122237D01*
X0339301Y0122835D02*
X0356300Y0122835D01*
X0356300Y0123434D02*
X0339301Y0123434D01*
X0339301Y0124032D02*
X0356300Y0124032D01*
X0356300Y0124631D02*
X0339301Y0124631D01*
X0339301Y0125229D02*
X0356300Y0125229D01*
X0356300Y0125828D02*
X0339301Y0125828D01*
X0339301Y0126426D02*
X0356300Y0126426D01*
X0356300Y0127025D02*
X0339301Y0127025D01*
X0339301Y0127623D02*
X0356300Y0127623D01*
X0356300Y0128222D02*
X0339301Y0128222D01*
X0339301Y0128820D02*
X0356300Y0128820D01*
X0356300Y0129419D02*
X0339301Y0129419D01*
X0339301Y0130017D02*
X0356300Y0130017D01*
X0356300Y0130616D02*
X0339301Y0130616D01*
X0339301Y0131214D02*
X0356300Y0131214D01*
X0356300Y0131813D02*
X0339301Y0131813D01*
X0339301Y0132411D02*
X0356300Y0132411D01*
X0356300Y0133010D02*
X0339301Y0133010D01*
X0339301Y0133608D02*
X0356300Y0133608D01*
X0356300Y0134207D02*
X0339301Y0134207D01*
X0339301Y0134805D02*
X0356300Y0134805D01*
X0356300Y0135404D02*
X0339301Y0135404D01*
X0339301Y0136002D02*
X0356300Y0136002D01*
X0356300Y0136601D02*
X0339301Y0136601D01*
X0339301Y0137199D02*
X0356300Y0137199D01*
X0356300Y0137798D02*
X0339301Y0137798D01*
X0339301Y0138396D02*
X0356300Y0138396D01*
X0356300Y0138995D02*
X0339301Y0138995D01*
X0339301Y0139593D02*
X0356300Y0139593D01*
X0356300Y0140192D02*
X0339301Y0140192D01*
X0339301Y0140790D02*
X0356300Y0140790D01*
X0356300Y0141389D02*
X0339301Y0141389D01*
X0339301Y0141987D02*
X0356300Y0141987D01*
X0356300Y0142586D02*
X0339301Y0142586D01*
X0339301Y0143184D02*
X0356300Y0143184D01*
X0356300Y0143783D02*
X0339301Y0143783D01*
X0339301Y0144381D02*
X0356300Y0144381D01*
X0356300Y0144980D02*
X0339301Y0144980D01*
X0339301Y0145578D02*
X0356300Y0145578D01*
X0356300Y0146177D02*
X0339301Y0146177D01*
X0339301Y0146775D02*
X0356300Y0146775D01*
X0356300Y0147374D02*
X0339301Y0147374D01*
X0339301Y0147972D02*
X0356300Y0147972D01*
X0356300Y0148571D02*
X0339301Y0148571D01*
X0339301Y0149170D02*
X0356300Y0149170D01*
X0356300Y0149768D02*
X0339301Y0149768D01*
X0339301Y0150367D02*
X0356300Y0150367D01*
X0356300Y0150965D02*
X0339301Y0150965D01*
X0339301Y0151564D02*
X0356300Y0151564D01*
X0356300Y0152162D02*
X0339301Y0152162D01*
X0339301Y0152761D02*
X0356300Y0152761D01*
X0356300Y0153359D02*
X0339301Y0153359D01*
X0339301Y0153958D02*
X0356300Y0153958D01*
X0356300Y0154556D02*
X0339301Y0154556D01*
X0339301Y0155155D02*
X0356300Y0155155D01*
X0356300Y0155753D02*
X0339301Y0155753D01*
X0339301Y0156352D02*
X0356300Y0156352D01*
X0356300Y0156950D02*
X0339301Y0156950D01*
X0339301Y0157549D02*
X0356300Y0157549D01*
X0356300Y0158147D02*
X0339301Y0158147D01*
X0339301Y0158746D02*
X0356300Y0158746D01*
X0356300Y0159344D02*
X0339301Y0159344D01*
X0339301Y0159943D02*
X0356300Y0159943D01*
X0356300Y0160541D02*
X0339301Y0160541D01*
X0339301Y0161140D02*
X0356300Y0161140D01*
X0356300Y0161738D02*
X0339301Y0161738D01*
X0339301Y0162337D02*
X0356300Y0162337D01*
X0356300Y0162935D02*
X0339301Y0162935D01*
X0339301Y0163534D02*
X0356300Y0163534D01*
X0356300Y0164132D02*
X0339301Y0164132D01*
X0339301Y0164731D02*
X0356300Y0164731D01*
X0356300Y0165329D02*
X0339301Y0165329D01*
X0339301Y0165928D02*
X0356300Y0165928D01*
X0356300Y0166526D02*
X0339301Y0166526D01*
X0339301Y0167125D02*
X0356300Y0167125D01*
X0356300Y0167723D02*
X0339301Y0167723D01*
X0339301Y0168322D02*
X0356300Y0168322D01*
X0356300Y0168920D02*
X0339301Y0168920D01*
X0339301Y0169519D02*
X0356300Y0169519D01*
X0356300Y0170117D02*
X0339301Y0170117D01*
X0339301Y0170716D02*
X0356300Y0170716D01*
X0356300Y0171314D02*
X0339301Y0171314D01*
X0339301Y0171913D02*
X0356300Y0171913D01*
X0356300Y0172511D02*
X0339301Y0172511D01*
X0339301Y0173110D02*
X0356300Y0173110D01*
X0356300Y0173708D02*
X0339301Y0173708D01*
X0339301Y0174307D02*
X0356300Y0174307D01*
X0356300Y0174905D02*
X0339301Y0174905D01*
X0339301Y0175504D02*
X0356300Y0175504D01*
X0356300Y0176103D02*
X0339301Y0176103D01*
X0339301Y0176701D02*
X0356300Y0176701D01*
X0356300Y0177300D02*
X0339301Y0177300D01*
X0339301Y0177898D02*
X0356300Y0177898D01*
X0356300Y0178497D02*
X0339301Y0178497D01*
X0339301Y0179095D02*
X0356300Y0179095D01*
X0356300Y0179694D02*
X0339301Y0179694D01*
X0339301Y0180292D02*
X0356300Y0180292D01*
X0356300Y0180891D02*
X0339301Y0180891D01*
X0339301Y0181489D02*
X0356300Y0181489D01*
X0356300Y0182088D02*
X0339301Y0182088D01*
X0339301Y0182686D02*
X0356300Y0182686D01*
X0356300Y0183285D02*
X0339301Y0183285D01*
X0339301Y0183883D02*
X0356300Y0183883D01*
X0356300Y0184482D02*
X0339301Y0184482D01*
X0339301Y0185080D02*
X0356300Y0185080D01*
X0356300Y0185679D02*
X0339301Y0185679D01*
X0339301Y0186277D02*
X0356300Y0186277D01*
X0356300Y0186876D02*
X0339301Y0186876D01*
X0339301Y0187474D02*
X0356300Y0187474D01*
X0356300Y0188073D02*
X0339301Y0188073D01*
X0339301Y0188671D02*
X0356300Y0188671D01*
X0356300Y0189270D02*
X0339301Y0189270D01*
X0339301Y0189868D02*
X0356300Y0189868D01*
X0356300Y0190467D02*
X0339301Y0190467D01*
X0339301Y0191065D02*
X0356300Y0191065D01*
X0356300Y0191664D02*
X0339301Y0191664D01*
X0339301Y0192262D02*
X0356300Y0192262D01*
X0356300Y0192861D02*
X0339301Y0192861D01*
X0339301Y0193459D02*
X0356300Y0193459D01*
X0356300Y0194058D02*
X0339301Y0194058D01*
X0339301Y0194656D02*
X0356300Y0194656D01*
X0356300Y0195255D02*
X0339301Y0195255D01*
X0339301Y0195853D02*
X0356300Y0195853D01*
X0356300Y0196452D02*
X0339301Y0196452D01*
X0339301Y0197050D02*
X0356300Y0197050D01*
X0356300Y0197649D02*
X0339301Y0197649D01*
X0339301Y0198247D02*
X0356300Y0198247D01*
X0356300Y0198846D02*
X0339301Y0198846D01*
X0339301Y0199444D02*
X0356300Y0199444D01*
X0356300Y0200043D02*
X0339301Y0200043D01*
X0339301Y0200641D02*
X0356300Y0200641D01*
X0356300Y0201240D02*
X0339301Y0201240D01*
X0339301Y0201839D02*
X0356300Y0201839D01*
X0356300Y0202437D02*
X0339301Y0202437D01*
X0339301Y0203036D02*
X0356300Y0203036D01*
X0356300Y0203634D02*
X0339301Y0203634D01*
X0339301Y0204233D02*
X0356300Y0204233D01*
X0356300Y0204831D02*
X0339301Y0204831D01*
X0339301Y0205430D02*
X0356300Y0205430D01*
X0356300Y0206028D02*
X0339301Y0206028D01*
X0339301Y0206627D02*
X0356300Y0206627D01*
X0356300Y0207225D02*
X0339301Y0207225D01*
X0339301Y0207824D02*
X0356300Y0207824D01*
X0356300Y0208422D02*
X0339301Y0208422D01*
X0339301Y0209021D02*
X0356300Y0209021D01*
X0356300Y0209619D02*
X0339301Y0209619D01*
X0339301Y0210218D02*
X0356300Y0210218D01*
X0356300Y0210816D02*
X0339301Y0210816D01*
X0339301Y0211415D02*
X0356300Y0211415D01*
X0356300Y0212013D02*
X0339301Y0212013D01*
X0339301Y0212612D02*
X0356300Y0212612D01*
X0356300Y0213210D02*
X0339301Y0213210D01*
X0339301Y0213809D02*
X0356300Y0213809D01*
X0356300Y0214407D02*
X0339301Y0214407D01*
X0339301Y0215006D02*
X0356300Y0215006D01*
X0356300Y0215604D02*
X0339301Y0215604D01*
X0339301Y0216203D02*
X0356300Y0216203D01*
X0356300Y0216801D02*
X0339301Y0216801D01*
X0339301Y0217400D02*
X0356300Y0217400D01*
X0356300Y0217998D02*
X0339301Y0217998D01*
X0339301Y0218597D02*
X0356300Y0218597D01*
X0356300Y0219195D02*
X0339301Y0219195D01*
X0339301Y0219794D02*
X0356300Y0219794D01*
X0356300Y0220392D02*
X0339301Y0220392D01*
X0339301Y0220991D02*
X0356300Y0220991D01*
X0356300Y0221589D02*
X0339301Y0221589D01*
X0339301Y0222188D02*
X0356300Y0222188D01*
X0356300Y0222786D02*
X0339301Y0222786D01*
X0339301Y0223385D02*
X0356300Y0223385D01*
X0356300Y0223983D02*
X0339301Y0223983D01*
X0339301Y0224582D02*
X0356300Y0224582D01*
X0356300Y0225180D02*
X0339301Y0225180D01*
X0339301Y0225779D02*
X0356300Y0225779D01*
X0356300Y0226377D02*
X0339301Y0226377D01*
X0339301Y0226976D02*
X0356300Y0226976D01*
X0356300Y0227574D02*
X0339301Y0227574D01*
X0339301Y0228173D02*
X0356300Y0228173D01*
X0356300Y0228772D02*
X0339301Y0228772D01*
X0339301Y0229370D02*
X0356300Y0229370D01*
X0356300Y0229969D02*
X0339301Y0229969D01*
X0339301Y0230567D02*
X0356300Y0230567D01*
X0356300Y0231166D02*
X0339301Y0231166D01*
X0339301Y0231764D02*
X0356300Y0231764D01*
X0356300Y0232363D02*
X0339301Y0232363D01*
X0339301Y0232961D02*
X0356300Y0232961D01*
X0356300Y0233560D02*
X0339301Y0233560D01*
X0339301Y0234158D02*
X0356300Y0234158D01*
X0356300Y0234757D02*
X0339301Y0234757D01*
X0339301Y0235355D02*
X0356300Y0235355D01*
X0356300Y0235954D02*
X0339301Y0235954D01*
X0339301Y0236552D02*
X0356300Y0236552D01*
X0356300Y0237151D02*
X0339301Y0237151D01*
X0339301Y0237749D02*
X0356300Y0237749D01*
X0356300Y0238348D02*
X0339301Y0238348D01*
X0339301Y0238946D02*
X0356300Y0238946D01*
X0356300Y0239545D02*
X0339301Y0239545D01*
X0339301Y0240143D02*
X0356300Y0240143D01*
X0356300Y0240742D02*
X0339301Y0240742D01*
X0339301Y0241340D02*
X0356300Y0241340D01*
X0356300Y0241939D02*
X0339301Y0241939D01*
X0339301Y0242537D02*
X0356300Y0242537D01*
X0356300Y0243136D02*
X0339301Y0243136D01*
X0339301Y0243734D02*
X0356300Y0243734D01*
X0356300Y0244333D02*
X0339301Y0244333D01*
X0339301Y0244931D02*
X0356300Y0244931D01*
X0356300Y0245530D02*
X0339301Y0245530D01*
X0339301Y0246128D02*
X0356300Y0246128D01*
X0356300Y0246727D02*
X0339301Y0246727D01*
X0339301Y0247325D02*
X0356300Y0247325D01*
X0356300Y0247924D02*
X0339301Y0247924D01*
X0339301Y0248522D02*
X0356300Y0248522D01*
X0356300Y0249121D02*
X0339301Y0249121D01*
X0339301Y0249719D02*
X0356300Y0249719D01*
X0356300Y0250318D02*
X0339301Y0250318D01*
X0339301Y0250916D02*
X0356300Y0250916D01*
X0356300Y0251515D02*
X0339301Y0251515D01*
X0339301Y0252113D02*
X0356300Y0252113D01*
X0356300Y0252712D02*
X0339301Y0252712D01*
X0339301Y0253310D02*
X0356300Y0253310D01*
X0356300Y0253909D02*
X0339301Y0253909D01*
X0339301Y0254508D02*
X0356300Y0254508D01*
X0356300Y0255106D02*
X0339301Y0255106D01*
X0339301Y0255705D02*
X0356300Y0255705D01*
X0356300Y0256303D02*
X0339301Y0256303D01*
X0339301Y0256902D02*
X0356300Y0256902D01*
X0356300Y0257500D02*
X0339301Y0257500D01*
X0339301Y0258099D02*
X0356300Y0258099D01*
X0356300Y0258697D02*
X0339301Y0258697D01*
X0339301Y0259296D02*
X0356300Y0259296D01*
X0356300Y0259894D02*
X0339301Y0259894D01*
X0339301Y0260493D02*
X0356300Y0260493D01*
X0356300Y0261091D02*
X0339301Y0261091D01*
X0339301Y0261690D02*
X0356300Y0261690D01*
X0356300Y0262288D02*
X0339301Y0262288D01*
X0339301Y0262887D02*
X0356300Y0262887D01*
X0356300Y0263485D02*
X0339301Y0263485D01*
X0339301Y0264084D02*
X0356300Y0264084D01*
X0356300Y0264682D02*
X0339301Y0264682D01*
X0339301Y0265281D02*
X0356300Y0265281D01*
X0356300Y0265879D02*
X0339301Y0265879D01*
X0339301Y0266478D02*
X0356300Y0266478D01*
X0356300Y0267076D02*
X0339301Y0267076D01*
X0339069Y0267675D02*
X0356300Y0267675D01*
X0356300Y0268273D02*
X0338821Y0268273D01*
X0338471Y0268872D02*
X0356300Y0268872D01*
X0356300Y0269470D02*
X0337872Y0269470D01*
X0337043Y0270069D02*
X0356300Y0270069D01*
X0356300Y0270667D02*
X0001300Y0270667D01*
X0001300Y0270069D02*
X0014257Y0270069D01*
X0013429Y0269470D02*
X0001300Y0269470D01*
X0001300Y0268872D02*
X0012830Y0268872D01*
X0012479Y0268273D02*
X0001300Y0268273D01*
X0001300Y0267675D02*
X0012231Y0267675D01*
X0012000Y0267076D02*
X0001300Y0267076D01*
X0001300Y0266478D02*
X0012000Y0266478D01*
X0012000Y0265879D02*
X0001300Y0265879D01*
X0001300Y0265281D02*
X0012000Y0265281D01*
X0012000Y0264682D02*
X0001300Y0264682D01*
X0001300Y0264084D02*
X0012000Y0264084D01*
X0012000Y0263485D02*
X0001300Y0263485D01*
X0001300Y0262887D02*
X0012000Y0262887D01*
X0012000Y0262288D02*
X0001300Y0262288D01*
X0001300Y0261690D02*
X0012000Y0261690D01*
X0012000Y0261091D02*
X0001300Y0261091D01*
X0001300Y0260493D02*
X0012000Y0260493D01*
X0012000Y0259894D02*
X0001300Y0259894D01*
X0001300Y0259296D02*
X0012000Y0259296D01*
X0012000Y0258697D02*
X0001300Y0258697D01*
X0001300Y0258099D02*
X0012000Y0258099D01*
X0012000Y0257500D02*
X0001300Y0257500D01*
X0001300Y0256902D02*
X0012000Y0256902D01*
X0012000Y0256303D02*
X0001300Y0256303D01*
X0001300Y0255705D02*
X0012000Y0255705D01*
X0012000Y0255106D02*
X0001300Y0255106D01*
X0001300Y0254508D02*
X0012000Y0254508D01*
X0012000Y0253909D02*
X0001300Y0253909D01*
X0001300Y0253310D02*
X0012000Y0253310D01*
X0012000Y0252712D02*
X0001300Y0252712D01*
X0001300Y0252113D02*
X0012000Y0252113D01*
X0012000Y0251515D02*
X0001300Y0251515D01*
X0001300Y0250916D02*
X0012000Y0250916D01*
X0012000Y0250318D02*
X0001300Y0250318D01*
X0001300Y0249719D02*
X0012000Y0249719D01*
X0012000Y0249121D02*
X0001300Y0249121D01*
X0001300Y0248522D02*
X0012000Y0248522D01*
X0012000Y0247924D02*
X0001300Y0247924D01*
X0001300Y0247325D02*
X0012000Y0247325D01*
X0012000Y0246727D02*
X0001300Y0246727D01*
X0001300Y0246128D02*
X0012000Y0246128D01*
X0012000Y0245530D02*
X0001300Y0245530D01*
X0001300Y0244931D02*
X0012000Y0244931D01*
X0012000Y0244333D02*
X0001300Y0244333D01*
X0001300Y0243734D02*
X0012000Y0243734D01*
X0012000Y0243136D02*
X0001300Y0243136D01*
X0001300Y0242537D02*
X0012000Y0242537D01*
X0012000Y0241939D02*
X0001300Y0241939D01*
X0001300Y0241340D02*
X0012000Y0241340D01*
X0012000Y0240742D02*
X0001300Y0240742D01*
X0001300Y0240143D02*
X0012000Y0240143D01*
X0012000Y0239545D02*
X0001300Y0239545D01*
X0001300Y0238946D02*
X0012000Y0238946D01*
X0012000Y0238348D02*
X0001300Y0238348D01*
X0001300Y0237749D02*
X0012000Y0237749D01*
X0012000Y0237151D02*
X0001300Y0237151D01*
X0001300Y0236552D02*
X0012000Y0236552D01*
X0012000Y0235954D02*
X0001300Y0235954D01*
X0001300Y0235355D02*
X0012000Y0235355D01*
X0012000Y0234757D02*
X0001300Y0234757D01*
X0001300Y0234158D02*
X0012000Y0234158D01*
X0012000Y0233560D02*
X0001300Y0233560D01*
X0001300Y0232961D02*
X0012000Y0232961D01*
X0012000Y0232363D02*
X0001300Y0232363D01*
X0001300Y0231764D02*
X0012000Y0231764D01*
X0012000Y0231166D02*
X0001300Y0231166D01*
X0001300Y0230567D02*
X0012000Y0230567D01*
X0012000Y0229969D02*
X0001300Y0229969D01*
X0001300Y0229370D02*
X0012000Y0229370D01*
X0012000Y0228772D02*
X0001300Y0228772D01*
X0001300Y0228173D02*
X0012000Y0228173D01*
X0012000Y0227574D02*
X0001300Y0227574D01*
X0001300Y0226976D02*
X0012000Y0226976D01*
X0012000Y0226377D02*
X0001300Y0226377D01*
X0001300Y0225779D02*
X0012000Y0225779D01*
X0012000Y0225180D02*
X0001300Y0225180D01*
X0001300Y0224582D02*
X0012000Y0224582D01*
X0012000Y0223983D02*
X0001300Y0223983D01*
X0001300Y0223385D02*
X0012000Y0223385D01*
X0012000Y0222786D02*
X0001300Y0222786D01*
X0001300Y0222188D02*
X0012000Y0222188D01*
X0012000Y0221589D02*
X0001300Y0221589D01*
X0001300Y0220991D02*
X0012000Y0220991D01*
X0012000Y0220392D02*
X0001300Y0220392D01*
X0001300Y0219794D02*
X0012000Y0219794D01*
X0012000Y0219195D02*
X0001300Y0219195D01*
X0001300Y0218597D02*
X0012000Y0218597D01*
X0012000Y0217998D02*
X0001300Y0217998D01*
X0001300Y0217400D02*
X0012000Y0217400D01*
X0012000Y0216801D02*
X0001300Y0216801D01*
X0001300Y0216203D02*
X0012000Y0216203D01*
X0012000Y0215604D02*
X0001300Y0215604D01*
X0001300Y0215006D02*
X0012000Y0215006D01*
X0012000Y0214407D02*
X0001300Y0214407D01*
X0001300Y0213809D02*
X0012000Y0213809D01*
X0012000Y0213210D02*
X0001300Y0213210D01*
X0001300Y0212612D02*
X0012000Y0212612D01*
X0012000Y0212013D02*
X0001300Y0212013D01*
X0001300Y0211415D02*
X0012000Y0211415D01*
X0012000Y0210816D02*
X0001300Y0210816D01*
X0001300Y0210218D02*
X0012000Y0210218D01*
X0012000Y0209619D02*
X0001300Y0209619D01*
X0001300Y0209021D02*
X0012000Y0209021D01*
X0012000Y0208422D02*
X0001300Y0208422D01*
X0001300Y0207824D02*
X0012000Y0207824D01*
X0012000Y0207225D02*
X0001300Y0207225D01*
X0001300Y0206627D02*
X0012000Y0206627D01*
X0012000Y0206028D02*
X0001300Y0206028D01*
X0001300Y0205430D02*
X0012000Y0205430D01*
X0012000Y0204831D02*
X0001300Y0204831D01*
X0001300Y0204233D02*
X0012000Y0204233D01*
X0012000Y0203634D02*
X0001300Y0203634D01*
X0001300Y0203036D02*
X0012000Y0203036D01*
X0012000Y0202437D02*
X0001300Y0202437D01*
X0001300Y0201839D02*
X0012000Y0201839D01*
X0012000Y0201240D02*
X0001300Y0201240D01*
X0001300Y0200641D02*
X0012000Y0200641D01*
X0012000Y0200043D02*
X0001300Y0200043D01*
X0001300Y0199444D02*
X0012000Y0199444D01*
X0012000Y0198846D02*
X0001300Y0198846D01*
X0001300Y0198247D02*
X0012000Y0198247D01*
X0012000Y0197649D02*
X0001300Y0197649D01*
X0001300Y0197050D02*
X0012000Y0197050D01*
X0012000Y0196452D02*
X0001300Y0196452D01*
X0001300Y0195853D02*
X0012000Y0195853D01*
X0012000Y0195255D02*
X0001300Y0195255D01*
X0001300Y0194656D02*
X0012000Y0194656D01*
X0012000Y0194058D02*
X0001300Y0194058D01*
X0001300Y0193459D02*
X0012000Y0193459D01*
X0012000Y0192861D02*
X0001300Y0192861D01*
X0001300Y0192262D02*
X0012000Y0192262D01*
X0012000Y0191664D02*
X0001300Y0191664D01*
X0001300Y0191065D02*
X0012000Y0191065D01*
X0012000Y0190467D02*
X0001300Y0190467D01*
X0001300Y0189868D02*
X0012000Y0189868D01*
X0012000Y0189270D02*
X0001300Y0189270D01*
X0001300Y0188671D02*
X0012000Y0188671D01*
X0012000Y0188073D02*
X0001300Y0188073D01*
X0001300Y0187474D02*
X0012000Y0187474D01*
X0012000Y0186876D02*
X0001300Y0186876D01*
X0001300Y0186277D02*
X0012000Y0186277D01*
X0012000Y0185679D02*
X0001300Y0185679D01*
X0001300Y0185080D02*
X0012000Y0185080D01*
X0012000Y0184482D02*
X0001300Y0184482D01*
X0001300Y0183883D02*
X0012000Y0183883D01*
X0012000Y0183285D02*
X0001300Y0183285D01*
X0001300Y0182686D02*
X0012000Y0182686D01*
X0012000Y0182088D02*
X0001300Y0182088D01*
X0001300Y0181489D02*
X0012000Y0181489D01*
X0012000Y0180891D02*
X0001300Y0180891D01*
X0001300Y0180292D02*
X0012000Y0180292D01*
X0012000Y0179694D02*
X0001300Y0179694D01*
X0001300Y0179095D02*
X0012000Y0179095D01*
X0012000Y0178497D02*
X0001300Y0178497D01*
X0001300Y0177898D02*
X0012000Y0177898D01*
X0012000Y0177300D02*
X0001300Y0177300D01*
X0001300Y0176701D02*
X0012000Y0176701D01*
X0012000Y0176103D02*
X0001300Y0176103D01*
X0001300Y0175504D02*
X0012000Y0175504D01*
X0012000Y0174905D02*
X0001300Y0174905D01*
X0001300Y0174307D02*
X0012000Y0174307D01*
X0012000Y0173708D02*
X0001300Y0173708D01*
X0001300Y0173110D02*
X0012000Y0173110D01*
X0012000Y0172511D02*
X0001300Y0172511D01*
X0001300Y0171913D02*
X0012000Y0171913D01*
X0012000Y0171314D02*
X0001300Y0171314D01*
X0001300Y0170716D02*
X0012000Y0170716D01*
X0012000Y0170117D02*
X0001300Y0170117D01*
X0001300Y0169519D02*
X0012000Y0169519D01*
X0012000Y0168920D02*
X0001300Y0168920D01*
X0001300Y0168322D02*
X0012000Y0168322D01*
X0012000Y0167723D02*
X0001300Y0167723D01*
X0001300Y0167125D02*
X0012000Y0167125D01*
X0012000Y0166526D02*
X0001300Y0166526D01*
X0001300Y0165928D02*
X0012000Y0165928D01*
X0012000Y0165329D02*
X0001300Y0165329D01*
X0001300Y0164731D02*
X0012000Y0164731D01*
X0012000Y0164132D02*
X0001300Y0164132D01*
X0001300Y0163534D02*
X0012000Y0163534D01*
X0012000Y0162935D02*
X0001300Y0162935D01*
X0001300Y0162337D02*
X0012000Y0162337D01*
X0012000Y0161738D02*
X0001300Y0161738D01*
X0001300Y0161140D02*
X0012000Y0161140D01*
X0012000Y0160541D02*
X0001300Y0160541D01*
X0001300Y0159943D02*
X0012000Y0159943D01*
X0012000Y0159344D02*
X0001300Y0159344D01*
X0001300Y0158746D02*
X0012000Y0158746D01*
X0012000Y0158147D02*
X0001300Y0158147D01*
X0001300Y0157549D02*
X0012000Y0157549D01*
X0012000Y0156950D02*
X0001300Y0156950D01*
X0001300Y0156352D02*
X0012000Y0156352D01*
X0012000Y0155753D02*
X0001300Y0155753D01*
X0001300Y0155155D02*
X0012000Y0155155D01*
X0012000Y0154556D02*
X0001300Y0154556D01*
X0001300Y0153958D02*
X0012000Y0153958D01*
X0012000Y0153359D02*
X0001300Y0153359D01*
X0001300Y0152761D02*
X0012000Y0152761D01*
X0012000Y0152162D02*
X0001300Y0152162D01*
X0001300Y0151564D02*
X0012000Y0151564D01*
X0012000Y0150965D02*
X0001300Y0150965D01*
X0001300Y0150367D02*
X0012000Y0150367D01*
X0012000Y0149768D02*
X0001300Y0149768D01*
X0001300Y0149170D02*
X0012000Y0149170D01*
X0012000Y0148571D02*
X0001300Y0148571D01*
X0001300Y0147972D02*
X0012000Y0147972D01*
X0012000Y0147374D02*
X0001300Y0147374D01*
X0001300Y0146775D02*
X0012000Y0146775D01*
X0012000Y0146177D02*
X0001300Y0146177D01*
X0001300Y0145578D02*
X0012000Y0145578D01*
X0012000Y0144980D02*
X0001300Y0144980D01*
X0001300Y0144381D02*
X0012000Y0144381D01*
X0012000Y0143783D02*
X0001300Y0143783D01*
X0001300Y0143184D02*
X0012000Y0143184D01*
X0012000Y0142586D02*
X0001300Y0142586D01*
X0001300Y0141987D02*
X0012000Y0141987D01*
X0012000Y0141389D02*
X0001300Y0141389D01*
X0001300Y0140790D02*
X0012000Y0140790D01*
X0012000Y0140192D02*
X0001300Y0140192D01*
X0001300Y0139593D02*
X0012000Y0139593D01*
X0012000Y0138995D02*
X0001300Y0138995D01*
X0001300Y0138396D02*
X0012000Y0138396D01*
X0012000Y0137798D02*
X0001300Y0137798D01*
X0001300Y0137199D02*
X0012000Y0137199D01*
X0012000Y0136601D02*
X0001300Y0136601D01*
X0001300Y0136002D02*
X0012000Y0136002D01*
X0012000Y0135404D02*
X0001300Y0135404D01*
X0001300Y0134805D02*
X0012000Y0134805D01*
X0012000Y0134207D02*
X0001300Y0134207D01*
X0001300Y0133608D02*
X0012000Y0133608D01*
X0012000Y0133010D02*
X0001300Y0133010D01*
X0001300Y0132411D02*
X0012000Y0132411D01*
X0012000Y0131813D02*
X0001300Y0131813D01*
X0001300Y0131214D02*
X0012000Y0131214D01*
X0012000Y0130616D02*
X0001300Y0130616D01*
X0001300Y0130017D02*
X0012000Y0130017D01*
X0012000Y0129419D02*
X0001300Y0129419D01*
X0001300Y0128820D02*
X0012000Y0128820D01*
X0012000Y0128222D02*
X0001300Y0128222D01*
X0001300Y0127623D02*
X0012000Y0127623D01*
X0012000Y0127025D02*
X0001300Y0127025D01*
X0001300Y0126426D02*
X0012000Y0126426D01*
X0012000Y0125828D02*
X0001300Y0125828D01*
X0001300Y0125229D02*
X0012000Y0125229D01*
X0012000Y0124631D02*
X0001300Y0124631D01*
X0001300Y0124032D02*
X0012000Y0124032D01*
X0012000Y0123434D02*
X0001300Y0123434D01*
X0001300Y0122835D02*
X0012000Y0122835D01*
X0012000Y0122237D02*
X0001300Y0122237D01*
X0001300Y0121638D02*
X0012000Y0121638D01*
X0012000Y0121039D02*
X0001300Y0121039D01*
X0001300Y0120441D02*
X0012000Y0120441D01*
X0012000Y0119842D02*
X0001300Y0119842D01*
X0001300Y0119244D02*
X0012000Y0119244D01*
X0012000Y0118645D02*
X0001300Y0118645D01*
X0001300Y0118047D02*
X0012000Y0118047D01*
X0012000Y0117448D02*
X0001300Y0117448D01*
X0001300Y0116850D02*
X0012000Y0116850D01*
X0012000Y0116251D02*
X0001300Y0116251D01*
X0001300Y0115653D02*
X0012000Y0115653D01*
X0012000Y0115054D02*
X0001300Y0115054D01*
X0001300Y0114456D02*
X0012000Y0114456D01*
X0012000Y0113857D02*
X0001300Y0113857D01*
X0001300Y0113259D02*
X0012000Y0113259D01*
X0012000Y0112660D02*
X0001300Y0112660D01*
X0001300Y0112062D02*
X0012000Y0112062D01*
X0012000Y0111463D02*
X0001300Y0111463D01*
X0001300Y0110865D02*
X0012000Y0110865D01*
X0012000Y0110266D02*
X0001300Y0110266D01*
X0001300Y0109668D02*
X0012000Y0109668D01*
X0012000Y0109069D02*
X0001300Y0109069D01*
X0001300Y0108471D02*
X0012000Y0108471D01*
X0012000Y0107872D02*
X0001300Y0107872D01*
X0001300Y0107274D02*
X0012000Y0107274D01*
X0012000Y0106675D02*
X0001300Y0106675D01*
X0001300Y0106077D02*
X0012000Y0106077D01*
X0012000Y0105478D02*
X0001300Y0105478D01*
X0001300Y0104880D02*
X0012000Y0104880D01*
X0012000Y0104281D02*
X0001300Y0104281D01*
X0001300Y0103683D02*
X0012000Y0103683D01*
X0012000Y0103084D02*
X0001300Y0103084D01*
X0001300Y0102486D02*
X0012000Y0102486D01*
X0012000Y0101887D02*
X0001300Y0101887D01*
X0001300Y0101289D02*
X0012000Y0101289D01*
X0012000Y0100690D02*
X0001300Y0100690D01*
X0001300Y0100092D02*
X0012000Y0100092D01*
X0012000Y0099493D02*
X0001300Y0099493D01*
X0001300Y0098895D02*
X0012000Y0098895D01*
X0012000Y0098296D02*
X0001300Y0098296D01*
X0001300Y0097698D02*
X0012000Y0097698D01*
X0012000Y0097099D02*
X0001300Y0097099D01*
X0001300Y0096501D02*
X0012000Y0096501D01*
X0012000Y0095902D02*
X0001300Y0095902D01*
X0001300Y0095303D02*
X0012000Y0095303D01*
X0012000Y0094705D02*
X0001300Y0094705D01*
X0001300Y0094106D02*
X0012000Y0094106D01*
X0012000Y0093508D02*
X0001300Y0093508D01*
X0001300Y0092909D02*
X0012000Y0092909D01*
X0012000Y0092311D02*
X0001300Y0092311D01*
X0001300Y0091712D02*
X0012000Y0091712D01*
X0012000Y0091114D02*
X0001300Y0091114D01*
X0001300Y0090515D02*
X0012000Y0090515D01*
X0012000Y0089917D02*
X0001300Y0089917D01*
X0001300Y0089318D02*
X0012000Y0089318D01*
X0012000Y0088720D02*
X0001300Y0088720D01*
X0001300Y0088121D02*
X0012000Y0088121D01*
X0012000Y0087523D02*
X0001300Y0087523D01*
X0001300Y0086924D02*
X0012000Y0086924D01*
X0012000Y0086326D02*
X0001300Y0086326D01*
X0001300Y0085727D02*
X0012000Y0085727D01*
X0012000Y0085129D02*
X0001300Y0085129D01*
X0001300Y0084530D02*
X0012000Y0084530D01*
X0012000Y0083932D02*
X0001300Y0083932D01*
X0001300Y0083333D02*
X0012000Y0083333D01*
X0012000Y0082735D02*
X0001300Y0082735D01*
X0001300Y0082136D02*
X0012000Y0082136D01*
X0012000Y0081538D02*
X0001300Y0081538D01*
X0001300Y0080939D02*
X0012000Y0080939D01*
X0012000Y0080341D02*
X0001300Y0080341D01*
X0001300Y0079742D02*
X0012000Y0079742D01*
X0012000Y0079144D02*
X0001300Y0079144D01*
X0001300Y0078545D02*
X0012000Y0078545D01*
X0012000Y0077947D02*
X0001300Y0077947D01*
X0001300Y0077348D02*
X0012000Y0077348D01*
X0012000Y0076750D02*
X0001300Y0076750D01*
X0001300Y0076151D02*
X0012000Y0076151D01*
X0012000Y0075553D02*
X0001300Y0075553D01*
X0001300Y0074954D02*
X0012000Y0074954D01*
X0012000Y0074356D02*
X0001300Y0074356D01*
X0001300Y0073757D02*
X0012000Y0073757D01*
X0012000Y0073159D02*
X0001300Y0073159D01*
X0001300Y0072560D02*
X0012000Y0072560D01*
X0012000Y0071962D02*
X0001300Y0071962D01*
X0001300Y0071363D02*
X0012000Y0071363D01*
X0012000Y0070765D02*
X0001300Y0070765D01*
X0001300Y0070166D02*
X0012000Y0070166D01*
X0012000Y0069568D02*
X0001300Y0069568D01*
X0001300Y0068969D02*
X0012000Y0068969D01*
X0012000Y0068370D02*
X0001300Y0068370D01*
X0001300Y0067772D02*
X0012000Y0067772D01*
X0012000Y0067173D02*
X0001300Y0067173D01*
X0001300Y0066575D02*
X0012000Y0066575D01*
X0012000Y0065976D02*
X0001300Y0065976D01*
X0001300Y0065378D02*
X0012000Y0065378D01*
X0012000Y0064779D02*
X0001300Y0064779D01*
X0001300Y0064181D02*
X0012000Y0064181D01*
X0012000Y0063582D02*
X0001300Y0063582D01*
X0001300Y0062984D02*
X0012000Y0062984D01*
X0012000Y0062385D02*
X0001300Y0062385D01*
X0001300Y0061787D02*
X0012000Y0061787D01*
X0012000Y0061188D02*
X0001300Y0061188D01*
X0001300Y0060590D02*
X0012000Y0060590D01*
X0012000Y0059991D02*
X0001300Y0059991D01*
X0001300Y0059393D02*
X0012000Y0059393D01*
X0012000Y0058794D02*
X0001300Y0058794D01*
X0001300Y0058196D02*
X0012000Y0058196D01*
X0012000Y0057597D02*
X0001300Y0057597D01*
X0001300Y0056999D02*
X0012000Y0056999D01*
X0012000Y0056400D02*
X0001300Y0056400D01*
X0001300Y0055802D02*
X0012000Y0055802D01*
X0012000Y0055203D02*
X0001300Y0055203D01*
X0001300Y0054605D02*
X0012000Y0054605D01*
X0012000Y0054006D02*
X0001300Y0054006D01*
X0001300Y0053408D02*
X0012000Y0053408D01*
X0012000Y0052809D02*
X0001300Y0052809D01*
X0001300Y0052211D02*
X0012000Y0052211D01*
X0012000Y0051612D02*
X0001300Y0051612D01*
X0001300Y0051014D02*
X0012000Y0051014D01*
X0012000Y0050415D02*
X0001300Y0050415D01*
X0001300Y0049817D02*
X0012000Y0049817D01*
X0012000Y0049218D02*
X0001300Y0049218D01*
X0001300Y0048620D02*
X0012000Y0048620D01*
X0012000Y0048021D02*
X0001300Y0048021D01*
X0001300Y0047423D02*
X0012000Y0047423D01*
X0012000Y0046824D02*
X0001300Y0046824D01*
X0001300Y0046226D02*
X0012000Y0046226D01*
X0012000Y0045627D02*
X0001300Y0045627D01*
X0001300Y0045029D02*
X0012000Y0045029D01*
X0012000Y0044430D02*
X0001300Y0044430D01*
X0001300Y0043832D02*
X0012000Y0043832D01*
X0012000Y0043233D02*
X0001300Y0043233D01*
X0001300Y0042634D02*
X0012000Y0042634D01*
X0012000Y0042036D02*
X0001300Y0042036D01*
X0001300Y0041437D02*
X0012000Y0041437D01*
X0012000Y0040839D02*
X0001300Y0040839D01*
X0001300Y0040240D02*
X0012085Y0040240D01*
X0012332Y0039642D02*
X0001300Y0039642D01*
X0001300Y0039043D02*
X0012580Y0039043D01*
X0013074Y0038445D02*
X0001300Y0038445D01*
X0001300Y0037846D02*
X0013672Y0037846D01*
X0014846Y0037248D02*
X0001300Y0037248D01*
X0020600Y0045600D02*
X0023681Y0045600D01*
X0022749Y0045986D01*
X0020986Y0047749D01*
X0020600Y0048681D01*
X0020600Y0045600D01*
X0020600Y0045627D02*
X0023615Y0045627D01*
X0022509Y0046226D02*
X0020600Y0046226D01*
X0020600Y0046824D02*
X0021911Y0046824D01*
X0021312Y0047423D02*
X0020600Y0047423D01*
X0020600Y0048021D02*
X0020873Y0048021D01*
X0020625Y0048620D02*
X0020600Y0048620D01*
X0020600Y0053919D02*
X0020600Y0253681D01*
X0020986Y0252749D01*
X0022749Y0250986D01*
X0025053Y0250031D01*
X0027547Y0250031D01*
X0029851Y0250986D01*
X0031614Y0252749D01*
X0032568Y0255053D01*
X0032568Y0257547D01*
X0031614Y0259851D01*
X0029851Y0261614D01*
X0029014Y0261961D01*
X0318586Y0261961D01*
X0317749Y0261614D01*
X0315986Y0259851D01*
X0315031Y0257547D01*
X0315031Y0255053D01*
X0315986Y0252749D01*
X0317749Y0250986D01*
X0320053Y0250031D01*
X0322547Y0250031D01*
X0324851Y0250986D01*
X0326614Y0252749D01*
X0327568Y0255053D01*
X0327568Y0257547D01*
X0326614Y0259851D01*
X0324851Y0261614D01*
X0324014Y0261961D01*
X0330701Y0261961D01*
X0330701Y0045600D01*
X0318919Y0045600D01*
X0319851Y0045986D01*
X0321614Y0047749D01*
X0322568Y0050053D01*
X0322568Y0052547D01*
X0321614Y0054851D01*
X0319851Y0056614D01*
X0317547Y0057568D01*
X0315053Y0057568D01*
X0312749Y0056614D01*
X0310986Y0054851D01*
X0310031Y0052547D01*
X0310031Y0050053D01*
X0310986Y0047749D01*
X0312749Y0045986D01*
X0313681Y0045600D01*
X0028919Y0045600D01*
X0029851Y0045986D01*
X0031614Y0047749D01*
X0032568Y0050053D01*
X0032568Y0052547D01*
X0031614Y0054851D01*
X0029851Y0056614D01*
X0027547Y0057568D01*
X0025053Y0057568D01*
X0022749Y0056614D01*
X0020986Y0054851D01*
X0020600Y0053919D01*
X0020600Y0054006D02*
X0020636Y0054006D01*
X0020600Y0054605D02*
X0020884Y0054605D01*
X0020600Y0055203D02*
X0021338Y0055203D01*
X0021937Y0055802D02*
X0020600Y0055802D01*
X0020600Y0056400D02*
X0022535Y0056400D01*
X0023678Y0056999D02*
X0020600Y0056999D01*
X0020600Y0057597D02*
X0330701Y0057597D01*
X0330701Y0056999D02*
X0318922Y0056999D01*
X0320065Y0056400D02*
X0330701Y0056400D01*
X0330701Y0055802D02*
X0320663Y0055802D01*
X0321262Y0055203D02*
X0330701Y0055203D01*
X0330701Y0054605D02*
X0321716Y0054605D01*
X0321964Y0054006D02*
X0330701Y0054006D01*
X0330701Y0053408D02*
X0322212Y0053408D01*
X0322460Y0052809D02*
X0330701Y0052809D01*
X0330701Y0052211D02*
X0322568Y0052211D01*
X0322568Y0051612D02*
X0330701Y0051612D01*
X0330701Y0051014D02*
X0322568Y0051014D01*
X0322568Y0050415D02*
X0330701Y0050415D01*
X0330701Y0049817D02*
X0322471Y0049817D01*
X0322223Y0049218D02*
X0330701Y0049218D01*
X0330701Y0048620D02*
X0321975Y0048620D01*
X0321727Y0048021D02*
X0330701Y0048021D01*
X0330701Y0047423D02*
X0321288Y0047423D01*
X0320689Y0046824D02*
X0330701Y0046824D01*
X0330701Y0046226D02*
X0320091Y0046226D01*
X0318985Y0045627D02*
X0330701Y0045627D01*
X0330701Y0058196D02*
X0020600Y0058196D01*
X0020600Y0058794D02*
X0330701Y0058794D01*
X0330701Y0059393D02*
X0020600Y0059393D01*
X0020600Y0059991D02*
X0154255Y0059991D01*
X0154109Y0060052D02*
X0155530Y0059463D01*
X0157069Y0059463D01*
X0158491Y0060052D01*
X0159580Y0061140D01*
X0160168Y0062562D01*
X0160168Y0070038D01*
X0159580Y0071460D01*
X0158491Y0072548D01*
X0157069Y0073137D01*
X0155530Y0073137D01*
X0154109Y0072548D01*
X0153020Y0071460D01*
X0152431Y0070038D01*
X0152431Y0062562D01*
X0153020Y0061140D01*
X0154109Y0060052D01*
X0153571Y0060590D02*
X0020600Y0060590D01*
X0020600Y0061188D02*
X0153000Y0061188D01*
X0152753Y0061787D02*
X0020600Y0061787D01*
X0020600Y0062385D02*
X0152505Y0062385D01*
X0152431Y0062984D02*
X0020600Y0062984D01*
X0020600Y0063582D02*
X0152431Y0063582D01*
X0152431Y0064181D02*
X0020600Y0064181D01*
X0020600Y0064779D02*
X0152431Y0064779D01*
X0152431Y0065378D02*
X0020600Y0065378D01*
X0020600Y0065976D02*
X0152431Y0065976D01*
X0152431Y0066575D02*
X0020600Y0066575D01*
X0020600Y0067173D02*
X0152431Y0067173D01*
X0152431Y0067772D02*
X0020600Y0067772D01*
X0020600Y0068370D02*
X0152431Y0068370D01*
X0152431Y0068969D02*
X0020600Y0068969D01*
X0020600Y0069568D02*
X0152431Y0069568D01*
X0152485Y0070166D02*
X0020600Y0070166D01*
X0020600Y0070765D02*
X0152732Y0070765D01*
X0152980Y0071363D02*
X0020600Y0071363D01*
X0020600Y0071962D02*
X0153522Y0071962D01*
X0154138Y0072560D02*
X0020600Y0072560D01*
X0020600Y0073159D02*
X0164744Y0073159D01*
X0164990Y0072913D02*
X0164109Y0072548D01*
X0163020Y0071460D01*
X0162431Y0070038D01*
X0162431Y0062562D01*
X0163020Y0061140D01*
X0164109Y0060052D01*
X0165530Y0059463D01*
X0167069Y0059463D01*
X0168491Y0060052D01*
X0169580Y0061140D01*
X0170168Y0062562D01*
X0170168Y0070038D01*
X0169676Y0071227D01*
X0172431Y0068471D01*
X0172431Y0062562D01*
X0173020Y0061140D01*
X0174109Y0060052D01*
X0175530Y0059463D01*
X0177069Y0059463D01*
X0178491Y0060052D01*
X0179580Y0061140D01*
X0180168Y0062562D01*
X0180168Y0070038D01*
X0179580Y0071460D01*
X0178491Y0072548D01*
X0177069Y0073137D01*
X0175530Y0073137D01*
X0174109Y0072548D01*
X0173020Y0071460D01*
X0172967Y0071330D01*
X0169797Y0074500D01*
X0166797Y0074500D01*
X0148497Y0092800D01*
X0154596Y0092800D01*
X0155883Y0093333D01*
X0156867Y0094317D01*
X0157400Y0095604D01*
X0157400Y0096996D01*
X0156867Y0098283D01*
X0155883Y0099267D01*
X0154596Y0099800D01*
X0148004Y0099800D01*
X0146717Y0099267D01*
X0145733Y0098283D01*
X0145200Y0096996D01*
X0145200Y0096097D01*
X0130197Y0111100D01*
X0120597Y0111100D01*
X0118897Y0112800D01*
X0122703Y0112800D01*
X0124403Y0111100D01*
X0204803Y0111100D01*
X0246103Y0069800D01*
X0244850Y0069800D01*
X0242800Y0067750D01*
X0242800Y0064850D01*
X0244850Y0062800D01*
X0247750Y0062800D01*
X0249800Y0064850D01*
X0249800Y0066103D01*
X0250403Y0065500D01*
X0292800Y0065500D01*
X0292800Y0064850D01*
X0294850Y0062800D01*
X0297750Y0062800D01*
X0299800Y0064850D01*
X0299800Y0067750D01*
X0297750Y0069800D01*
X0294850Y0069800D01*
X0292950Y0067900D01*
X0251397Y0067900D01*
X0206500Y0112797D01*
X0205797Y0113500D01*
X0186050Y0113500D01*
X0186867Y0114317D01*
X0187400Y0115604D01*
X0187400Y0116996D01*
X0186867Y0118283D01*
X0185883Y0119267D01*
X0184596Y0119800D01*
X0178004Y0119800D01*
X0176717Y0119267D01*
X0175733Y0118283D01*
X0175200Y0116996D01*
X0175200Y0115604D01*
X0175733Y0114317D01*
X0176550Y0113500D01*
X0156050Y0113500D01*
X0156867Y0114317D01*
X0157400Y0115604D01*
X0157400Y0116996D01*
X0156867Y0118283D01*
X0155883Y0119267D01*
X0154596Y0119800D01*
X0148004Y0119800D01*
X0146717Y0119267D01*
X0145733Y0118283D01*
X0145200Y0116996D01*
X0145200Y0115604D01*
X0145733Y0114317D01*
X0146550Y0113500D01*
X0126050Y0113500D01*
X0126867Y0114317D01*
X0127400Y0115604D01*
X0127400Y0116996D01*
X0126867Y0118283D01*
X0125883Y0119267D01*
X0125799Y0119302D01*
X0129100Y0122603D01*
X0129100Y0157797D01*
X0128397Y0158500D01*
X0123700Y0163197D01*
X0123700Y0173950D01*
X0124850Y0172800D01*
X0127750Y0172800D01*
X0129800Y0174850D01*
X0129800Y0177750D01*
X0127923Y0179626D01*
X0156597Y0208300D01*
X0157300Y0209003D01*
X0157300Y0213700D01*
X0173750Y0213700D01*
X0172800Y0212750D01*
X0172800Y0209850D01*
X0174700Y0207950D01*
X0174700Y0181797D01*
X0171803Y0178900D01*
X0171100Y0178197D01*
X0171100Y0174803D01*
X0180100Y0165803D01*
X0180803Y0165100D01*
X0218009Y0165100D01*
X0218333Y0164317D01*
X0219317Y0163333D01*
X0220604Y0162800D01*
X0221996Y0162800D01*
X0223283Y0163333D01*
X0224267Y0164317D01*
X0224800Y0165604D01*
X0224800Y0166996D01*
X0224267Y0168283D01*
X0223283Y0169267D01*
X0221996Y0169800D01*
X0220604Y0169800D01*
X0219317Y0169267D01*
X0218333Y0168283D01*
X0218009Y0167500D01*
X0181797Y0167500D01*
X0176497Y0172800D01*
X0177750Y0172800D01*
X0179650Y0174700D01*
X0221003Y0174700D01*
X0228066Y0167637D01*
X0227800Y0166996D01*
X0227800Y0165604D01*
X0228333Y0164317D01*
X0229317Y0163333D01*
X0230604Y0162800D01*
X0231996Y0162800D01*
X0233283Y0163333D01*
X0234267Y0164317D01*
X0234800Y0165604D01*
X0234800Y0166996D01*
X0234267Y0168283D01*
X0233283Y0169267D01*
X0231996Y0169800D01*
X0230604Y0169800D01*
X0229680Y0169417D01*
X0221997Y0177100D01*
X0179800Y0177100D01*
X0179800Y0177750D01*
X0177750Y0179800D01*
X0176097Y0179800D01*
X0177100Y0180803D01*
X0177100Y0207800D01*
X0177750Y0207800D01*
X0179800Y0209850D01*
X0179800Y0211103D01*
X0210803Y0180100D01*
X0304641Y0180100D01*
X0305052Y0179109D01*
X0306140Y0178020D01*
X0307562Y0177431D01*
X0315038Y0177431D01*
X0315886Y0177783D01*
X0313271Y0175168D01*
X0307562Y0175168D01*
X0306140Y0174580D01*
X0305052Y0173491D01*
X0304463Y0172069D01*
X0304463Y0170530D01*
X0305052Y0169109D01*
X0306140Y0168020D01*
X0307562Y0167431D01*
X0315038Y0167431D01*
X0316460Y0168020D01*
X0317548Y0169109D01*
X0318137Y0170530D01*
X0318137Y0172069D01*
X0317548Y0173491D01*
X0316460Y0174580D01*
X0316189Y0174692D01*
X0319900Y0178403D01*
X0319900Y0182997D01*
X0319197Y0183700D01*
X0316197Y0186700D01*
X0308997Y0186700D01*
X0308266Y0187431D01*
X0315038Y0187431D01*
X0316460Y0188020D01*
X0317548Y0189109D01*
X0318137Y0190530D01*
X0318137Y0192069D01*
X0317548Y0193491D01*
X0316460Y0194580D01*
X0315038Y0195168D01*
X0312100Y0195168D01*
X0312100Y0229797D01*
X0311397Y0230500D01*
X0283197Y0258700D01*
X0209003Y0258700D01*
X0208300Y0257997D01*
X0204800Y0254497D01*
X0204800Y0254596D01*
X0204267Y0255883D01*
X0203283Y0256867D01*
X0201996Y0257400D01*
X0200604Y0257400D01*
X0199317Y0256867D01*
X0198333Y0255883D01*
X0197800Y0254596D01*
X0197800Y0248004D01*
X0198333Y0246717D01*
X0199317Y0245733D01*
X0200604Y0245200D01*
X0201996Y0245200D01*
X0203283Y0245733D01*
X0204267Y0246717D01*
X0204800Y0248004D01*
X0204800Y0251103D01*
X0207800Y0254103D01*
X0207800Y0248004D01*
X0208333Y0246717D01*
X0209317Y0245733D01*
X0210604Y0245200D01*
X0211996Y0245200D01*
X0213283Y0245733D01*
X0214267Y0246717D01*
X0214800Y0248004D01*
X0214800Y0254596D01*
X0214267Y0255883D01*
X0213850Y0256300D01*
X0218750Y0256300D01*
X0218333Y0255883D01*
X0217800Y0254596D01*
X0217800Y0248004D01*
X0218333Y0246717D01*
X0219317Y0245733D01*
X0219700Y0245574D01*
X0219700Y0221397D01*
X0212926Y0214623D01*
X0212750Y0214800D01*
X0209850Y0214800D01*
X0207800Y0212750D01*
X0207800Y0212500D01*
X0200397Y0212500D01*
X0159100Y0253797D01*
X0158397Y0254500D01*
X0152603Y0254500D01*
X0149571Y0251468D01*
X0148491Y0252548D01*
X0147069Y0253137D01*
X0145530Y0253137D01*
X0144109Y0252548D01*
X0143020Y0251460D01*
X0142431Y0250038D01*
X0142431Y0242562D01*
X0143020Y0241140D01*
X0144109Y0240052D01*
X0145530Y0239463D01*
X0147069Y0239463D01*
X0148491Y0240052D01*
X0149580Y0241140D01*
X0150168Y0242562D01*
X0150168Y0248671D01*
X0153597Y0252100D01*
X0153661Y0252100D01*
X0153020Y0251460D01*
X0152431Y0250038D01*
X0152431Y0242562D01*
X0153020Y0241140D01*
X0154109Y0240052D01*
X0154900Y0239724D01*
X0154900Y0209997D01*
X0137500Y0192597D01*
X0137500Y0239641D01*
X0138491Y0240052D01*
X0139580Y0241140D01*
X0140168Y0242562D01*
X0140168Y0250038D01*
X0139580Y0251460D01*
X0138491Y0252548D01*
X0137069Y0253137D01*
X0135530Y0253137D01*
X0134109Y0252548D01*
X0133020Y0251460D01*
X0132431Y0250038D01*
X0132431Y0242562D01*
X0133020Y0241140D01*
X0134109Y0240052D01*
X0135100Y0239641D01*
X0135100Y0191997D01*
X0122003Y0178900D01*
X0121300Y0178197D01*
X0121300Y0162203D01*
X0123703Y0159800D01*
X0118004Y0159800D01*
X0116717Y0159267D01*
X0115733Y0158283D01*
X0115200Y0156996D01*
X0115200Y0155604D01*
X0115733Y0154317D01*
X0116717Y0153333D01*
X0118004Y0152800D01*
X0124596Y0152800D01*
X0125883Y0153333D01*
X0126700Y0154150D01*
X0126700Y0148450D01*
X0125883Y0149267D01*
X0124596Y0149800D01*
X0118004Y0149800D01*
X0116717Y0149267D01*
X0115733Y0148283D01*
X0115200Y0146996D01*
X0115200Y0145604D01*
X0115733Y0144317D01*
X0116717Y0143333D01*
X0118004Y0142800D01*
X0124596Y0142800D01*
X0125883Y0143333D01*
X0126700Y0144150D01*
X0126700Y0138450D01*
X0125883Y0139267D01*
X0124596Y0139800D01*
X0118004Y0139800D01*
X0116717Y0139267D01*
X0115733Y0138283D01*
X0115200Y0136996D01*
X0115200Y0135604D01*
X0115733Y0134317D01*
X0116717Y0133333D01*
X0118004Y0132800D01*
X0124596Y0132800D01*
X0125883Y0133333D01*
X0126700Y0134150D01*
X0126700Y0128450D01*
X0125883Y0129267D01*
X0124596Y0129800D01*
X0118004Y0129800D01*
X0116717Y0129267D01*
X0115733Y0128283D01*
X0115200Y0126996D01*
X0115200Y0125604D01*
X0115733Y0124317D01*
X0116717Y0123333D01*
X0118004Y0122800D01*
X0124596Y0122800D01*
X0125883Y0123333D01*
X0126700Y0124150D01*
X0126700Y0123597D01*
X0122903Y0119800D01*
X0118004Y0119800D01*
X0116717Y0119267D01*
X0115900Y0118450D01*
X0115900Y0121197D01*
X0115197Y0121900D01*
X0095997Y0141100D01*
X0090597Y0141100D01*
X0088897Y0142800D01*
X0094596Y0142800D01*
X0095883Y0143333D01*
X0096867Y0144317D01*
X0097400Y0145604D01*
X0097400Y0146996D01*
X0096867Y0148283D01*
X0095883Y0149267D01*
X0094596Y0149800D01*
X0088004Y0149800D01*
X0086717Y0149267D01*
X0085900Y0148450D01*
X0085900Y0154150D01*
X0086717Y0153333D01*
X0088004Y0152800D01*
X0094596Y0152800D01*
X0095883Y0153333D01*
X0096867Y0154317D01*
X0097400Y0155604D01*
X0097400Y0156996D01*
X0096867Y0158283D01*
X0095883Y0159267D01*
X0094596Y0159800D01*
X0088004Y0159800D01*
X0086717Y0159267D01*
X0085733Y0158283D01*
X0085464Y0157633D01*
X0085197Y0157900D01*
X0055482Y0187615D01*
X0056460Y0188020D01*
X0057548Y0189109D01*
X0058137Y0190530D01*
X0058137Y0192069D01*
X0057548Y0193491D01*
X0056460Y0194580D01*
X0055038Y0195168D01*
X0047562Y0195168D01*
X0046140Y0194580D01*
X0045052Y0193491D01*
X0044463Y0192069D01*
X0044463Y0190530D01*
X0045052Y0189109D01*
X0046140Y0188020D01*
X0047562Y0187431D01*
X0052271Y0187431D01*
X0054534Y0185168D01*
X0047562Y0185168D01*
X0046140Y0184580D01*
X0045052Y0183491D01*
X0044463Y0182069D01*
X0044463Y0180530D01*
X0045052Y0179109D01*
X0046140Y0178020D01*
X0047562Y0177431D01*
X0055038Y0177431D01*
X0056460Y0178020D01*
X0057548Y0179109D01*
X0058137Y0180530D01*
X0058137Y0181566D01*
X0083500Y0156203D01*
X0083500Y0144803D01*
X0088503Y0139800D01*
X0088004Y0139800D01*
X0086717Y0139267D01*
X0085733Y0138283D01*
X0085200Y0136996D01*
X0085200Y0135604D01*
X0085733Y0134317D01*
X0086717Y0133333D01*
X0088004Y0132800D01*
X0094596Y0132800D01*
X0095883Y0133333D01*
X0096867Y0134317D01*
X0097400Y0135604D01*
X0097400Y0136303D01*
X0113500Y0120203D01*
X0113500Y0114803D01*
X0118503Y0109800D01*
X0118004Y0109800D01*
X0116717Y0109267D01*
X0115733Y0108283D01*
X0115200Y0106996D01*
X0115200Y0105604D01*
X0115733Y0104317D01*
X0116717Y0103333D01*
X0118004Y0102800D01*
X0124596Y0102800D01*
X0125883Y0103333D01*
X0126867Y0104317D01*
X0127400Y0105604D01*
X0127400Y0106996D01*
X0126867Y0108283D01*
X0126450Y0108700D01*
X0129203Y0108700D01*
X0164990Y0072913D01*
X0164138Y0072560D02*
X0158462Y0072560D01*
X0159078Y0071962D02*
X0163522Y0071962D01*
X0162980Y0071363D02*
X0159620Y0071363D01*
X0159868Y0070765D02*
X0162732Y0070765D01*
X0162485Y0070166D02*
X0160115Y0070166D01*
X0160168Y0069568D02*
X0162431Y0069568D01*
X0162431Y0068969D02*
X0160168Y0068969D01*
X0160168Y0068370D02*
X0162431Y0068370D01*
X0162431Y0067772D02*
X0160168Y0067772D01*
X0160168Y0067173D02*
X0162431Y0067173D01*
X0162431Y0066575D02*
X0160168Y0066575D01*
X0160168Y0065976D02*
X0162431Y0065976D01*
X0162431Y0065378D02*
X0160168Y0065378D01*
X0160168Y0064779D02*
X0162431Y0064779D01*
X0162431Y0064181D02*
X0160168Y0064181D01*
X0160168Y0063582D02*
X0162431Y0063582D01*
X0162431Y0062984D02*
X0160168Y0062984D01*
X0160095Y0062385D02*
X0162505Y0062385D01*
X0162753Y0061787D02*
X0159847Y0061787D01*
X0159600Y0061188D02*
X0163000Y0061188D01*
X0163571Y0060590D02*
X0159029Y0060590D01*
X0158345Y0059991D02*
X0164255Y0059991D01*
X0168345Y0059991D02*
X0174255Y0059991D01*
X0173571Y0060590D02*
X0169029Y0060590D01*
X0169600Y0061188D02*
X0173000Y0061188D01*
X0172753Y0061787D02*
X0169847Y0061787D01*
X0170095Y0062385D02*
X0172505Y0062385D01*
X0172431Y0062984D02*
X0170168Y0062984D01*
X0170168Y0063582D02*
X0172431Y0063582D01*
X0172431Y0064181D02*
X0170168Y0064181D01*
X0170168Y0064779D02*
X0172431Y0064779D01*
X0172431Y0065378D02*
X0170168Y0065378D01*
X0170168Y0065976D02*
X0172431Y0065976D01*
X0172431Y0066575D02*
X0170168Y0066575D01*
X0170168Y0067173D02*
X0172431Y0067173D01*
X0172431Y0067772D02*
X0170168Y0067772D01*
X0170168Y0068370D02*
X0172431Y0068370D01*
X0171934Y0068969D02*
X0170168Y0068969D01*
X0170168Y0069568D02*
X0171335Y0069568D01*
X0170737Y0070166D02*
X0170115Y0070166D01*
X0170138Y0070765D02*
X0169868Y0070765D01*
X0171737Y0072560D02*
X0174138Y0072560D01*
X0173522Y0071962D02*
X0172335Y0071962D01*
X0172934Y0071363D02*
X0172980Y0071363D01*
X0171138Y0073159D02*
X0214492Y0073159D01*
X0214850Y0072800D02*
X0212800Y0074850D01*
X0212800Y0077750D01*
X0214850Y0079800D01*
X0217750Y0079800D01*
X0219800Y0077750D01*
X0219800Y0074850D01*
X0217750Y0072800D01*
X0214850Y0072800D01*
X0213893Y0073757D02*
X0170540Y0073757D01*
X0169941Y0074356D02*
X0213295Y0074356D01*
X0212800Y0074954D02*
X0166343Y0074954D01*
X0165744Y0075553D02*
X0212800Y0075553D01*
X0212800Y0076151D02*
X0165146Y0076151D01*
X0164547Y0076750D02*
X0212800Y0076750D01*
X0212800Y0077348D02*
X0163949Y0077348D01*
X0163350Y0077947D02*
X0212997Y0077947D01*
X0213595Y0078545D02*
X0162752Y0078545D01*
X0162153Y0079144D02*
X0214194Y0079144D01*
X0214792Y0079742D02*
X0161555Y0079742D01*
X0160956Y0080341D02*
X0235562Y0080341D01*
X0234964Y0080939D02*
X0160358Y0080939D01*
X0159759Y0081538D02*
X0234365Y0081538D01*
X0233767Y0082136D02*
X0159161Y0082136D01*
X0158562Y0082735D02*
X0233168Y0082735D01*
X0232570Y0083333D02*
X0157964Y0083333D01*
X0157365Y0083932D02*
X0231971Y0083932D01*
X0231373Y0084530D02*
X0156767Y0084530D01*
X0156168Y0085129D02*
X0230774Y0085129D01*
X0230176Y0085727D02*
X0155570Y0085727D01*
X0154971Y0086326D02*
X0229577Y0086326D01*
X0228979Y0086924D02*
X0154373Y0086924D01*
X0153774Y0087523D02*
X0228380Y0087523D01*
X0227782Y0088121D02*
X0153176Y0088121D01*
X0152577Y0088720D02*
X0227183Y0088720D01*
X0226585Y0089318D02*
X0151979Y0089318D01*
X0151380Y0089917D02*
X0225986Y0089917D01*
X0225388Y0090515D02*
X0150782Y0090515D01*
X0150183Y0091114D02*
X0224789Y0091114D01*
X0224191Y0091712D02*
X0149585Y0091712D01*
X0148986Y0092311D02*
X0223592Y0092311D01*
X0222993Y0092909D02*
X0184860Y0092909D01*
X0184596Y0092800D02*
X0185883Y0093333D01*
X0186867Y0094317D01*
X0187400Y0095604D01*
X0187400Y0096996D01*
X0186867Y0098283D01*
X0185883Y0099267D01*
X0184596Y0099800D01*
X0178004Y0099800D01*
X0176717Y0099267D01*
X0175733Y0098283D01*
X0175200Y0096996D01*
X0175200Y0095604D01*
X0175733Y0094317D01*
X0176717Y0093333D01*
X0178004Y0092800D01*
X0184596Y0092800D01*
X0186058Y0093508D02*
X0222395Y0093508D01*
X0221796Y0094106D02*
X0186656Y0094106D01*
X0187028Y0094705D02*
X0221198Y0094705D01*
X0220599Y0095303D02*
X0187276Y0095303D01*
X0187400Y0095902D02*
X0220001Y0095902D01*
X0219402Y0096501D02*
X0187400Y0096501D01*
X0187357Y0097099D02*
X0218804Y0097099D01*
X0218205Y0097698D02*
X0187109Y0097698D01*
X0186854Y0098296D02*
X0217607Y0098296D01*
X0217008Y0098895D02*
X0186255Y0098895D01*
X0185337Y0099493D02*
X0216410Y0099493D01*
X0215811Y0100092D02*
X0141205Y0100092D01*
X0140607Y0100690D02*
X0215213Y0100690D01*
X0214614Y0101289D02*
X0140008Y0101289D01*
X0139410Y0101887D02*
X0214016Y0101887D01*
X0213417Y0102486D02*
X0138811Y0102486D01*
X0138213Y0103084D02*
X0147318Y0103084D01*
X0146717Y0103333D02*
X0148004Y0102800D01*
X0154596Y0102800D01*
X0155883Y0103333D01*
X0156867Y0104317D01*
X0157400Y0105604D01*
X0157400Y0106996D01*
X0156867Y0108283D01*
X0155883Y0109267D01*
X0154596Y0109800D01*
X0148004Y0109800D01*
X0146717Y0109267D01*
X0145733Y0108283D01*
X0145200Y0106996D01*
X0145200Y0105604D01*
X0145733Y0104317D01*
X0146717Y0103333D01*
X0146368Y0103683D02*
X0137614Y0103683D01*
X0137016Y0104281D02*
X0145769Y0104281D01*
X0145500Y0104880D02*
X0136417Y0104880D01*
X0135819Y0105478D02*
X0145252Y0105478D01*
X0145200Y0106077D02*
X0135220Y0106077D01*
X0134622Y0106675D02*
X0145200Y0106675D01*
X0145315Y0107274D02*
X0134023Y0107274D01*
X0133425Y0107872D02*
X0145563Y0107872D01*
X0145921Y0108471D02*
X0132826Y0108471D01*
X0132228Y0109069D02*
X0146520Y0109069D01*
X0147685Y0109668D02*
X0131629Y0109668D01*
X0131031Y0110266D02*
X0205637Y0110266D01*
X0206235Y0109668D02*
X0184915Y0109668D01*
X0184596Y0109800D02*
X0185883Y0109267D01*
X0186867Y0108283D01*
X0187400Y0106996D01*
X0187400Y0105604D01*
X0186867Y0104317D01*
X0185883Y0103333D01*
X0184596Y0102800D01*
X0178004Y0102800D01*
X0176717Y0103333D01*
X0175733Y0104317D01*
X0175200Y0105604D01*
X0175200Y0106996D01*
X0175733Y0108283D01*
X0176717Y0109267D01*
X0178004Y0109800D01*
X0184596Y0109800D01*
X0186080Y0109069D02*
X0206834Y0109069D01*
X0207432Y0108471D02*
X0186679Y0108471D01*
X0187037Y0107872D02*
X0208031Y0107872D01*
X0208629Y0107274D02*
X0187285Y0107274D01*
X0187400Y0106675D02*
X0209228Y0106675D01*
X0209826Y0106077D02*
X0187400Y0106077D01*
X0187348Y0105478D02*
X0210425Y0105478D01*
X0211023Y0104880D02*
X0187100Y0104880D01*
X0186831Y0104281D02*
X0211622Y0104281D01*
X0212220Y0103683D02*
X0186232Y0103683D01*
X0185282Y0103084D02*
X0212819Y0103084D01*
X0214417Y0104880D02*
X0290348Y0104880D01*
X0290570Y0104972D02*
X0289220Y0104413D01*
X0288187Y0103380D01*
X0287628Y0102030D01*
X0287628Y0100570D01*
X0288187Y0099220D01*
X0289220Y0098187D01*
X0290570Y0097628D01*
X0292030Y0097628D01*
X0293380Y0098187D01*
X0294413Y0099220D01*
X0294972Y0100570D01*
X0294972Y0102030D01*
X0294413Y0103380D01*
X0293380Y0104413D01*
X0292030Y0104972D01*
X0290570Y0104972D01*
X0289089Y0104281D02*
X0215016Y0104281D01*
X0215614Y0103683D02*
X0288490Y0103683D01*
X0288065Y0103084D02*
X0216213Y0103084D01*
X0216811Y0102486D02*
X0287817Y0102486D01*
X0287628Y0101887D02*
X0217410Y0101887D01*
X0218008Y0101289D02*
X0287628Y0101289D01*
X0287628Y0100690D02*
X0218607Y0100690D01*
X0219205Y0100092D02*
X0287826Y0100092D01*
X0288074Y0099493D02*
X0219804Y0099493D01*
X0220402Y0098895D02*
X0288513Y0098895D01*
X0289111Y0098296D02*
X0221001Y0098296D01*
X0221599Y0097698D02*
X0290403Y0097698D01*
X0292197Y0097698D02*
X0330701Y0097698D01*
X0330701Y0098296D02*
X0293489Y0098296D01*
X0294087Y0098895D02*
X0330701Y0098895D01*
X0330701Y0099493D02*
X0294526Y0099493D01*
X0294774Y0100092D02*
X0330701Y0100092D01*
X0330701Y0100690D02*
X0294972Y0100690D01*
X0294972Y0101289D02*
X0330701Y0101289D01*
X0330701Y0101887D02*
X0294972Y0101887D01*
X0294783Y0102486D02*
X0330701Y0102486D01*
X0330701Y0103084D02*
X0294535Y0103084D01*
X0294110Y0103683D02*
X0330701Y0103683D01*
X0330701Y0104281D02*
X0293511Y0104281D01*
X0292252Y0104880D02*
X0330701Y0104880D01*
X0330701Y0105478D02*
X0213819Y0105478D01*
X0213220Y0106077D02*
X0330701Y0106077D01*
X0330701Y0106675D02*
X0212622Y0106675D01*
X0212023Y0107274D02*
X0330701Y0107274D01*
X0330701Y0107872D02*
X0312619Y0107872D01*
X0312030Y0107628D02*
X0313380Y0108187D01*
X0314413Y0109220D01*
X0314972Y0110570D01*
X0314972Y0112030D01*
X0314413Y0113380D01*
X0313380Y0114413D01*
X0312100Y0114943D01*
X0312100Y0131997D01*
X0284523Y0159574D01*
X0284800Y0159850D01*
X0284800Y0162750D01*
X0282750Y0164800D01*
X0279850Y0164800D01*
X0277800Y0162750D01*
X0277800Y0159850D01*
X0279850Y0157800D01*
X0282750Y0157800D01*
X0282826Y0157877D01*
X0309700Y0131003D01*
X0309700Y0114611D01*
X0309220Y0114413D01*
X0308187Y0113380D01*
X0307628Y0112030D01*
X0307628Y0110570D01*
X0308187Y0109220D01*
X0309220Y0108187D01*
X0310570Y0107628D01*
X0312030Y0107628D01*
X0313663Y0108471D02*
X0330701Y0108471D01*
X0330701Y0109069D02*
X0314262Y0109069D01*
X0314598Y0109668D02*
X0330701Y0109668D01*
X0330701Y0110266D02*
X0314846Y0110266D01*
X0314972Y0110865D02*
X0330701Y0110865D01*
X0330701Y0111463D02*
X0314972Y0111463D01*
X0314959Y0112062D02*
X0330701Y0112062D01*
X0330701Y0112660D02*
X0314711Y0112660D01*
X0314463Y0113259D02*
X0330701Y0113259D01*
X0330701Y0113857D02*
X0313935Y0113857D01*
X0313276Y0114456D02*
X0330701Y0114456D01*
X0330701Y0115054D02*
X0312100Y0115054D01*
X0312100Y0115653D02*
X0330701Y0115653D01*
X0330701Y0116251D02*
X0312100Y0116251D01*
X0312100Y0116850D02*
X0330701Y0116850D01*
X0330701Y0117448D02*
X0312100Y0117448D01*
X0312100Y0118047D02*
X0330701Y0118047D01*
X0330701Y0118645D02*
X0312100Y0118645D01*
X0312100Y0119244D02*
X0330701Y0119244D01*
X0330701Y0119842D02*
X0312100Y0119842D01*
X0312100Y0120441D02*
X0330701Y0120441D01*
X0330701Y0121039D02*
X0312100Y0121039D01*
X0312100Y0121638D02*
X0330701Y0121638D01*
X0330701Y0122237D02*
X0312100Y0122237D01*
X0312100Y0122835D02*
X0330701Y0122835D01*
X0330701Y0123434D02*
X0312100Y0123434D01*
X0312100Y0124032D02*
X0330701Y0124032D01*
X0330701Y0124631D02*
X0312100Y0124631D01*
X0312100Y0125229D02*
X0330701Y0125229D01*
X0330701Y0125828D02*
X0312100Y0125828D01*
X0312100Y0126426D02*
X0330701Y0126426D01*
X0330701Y0127025D02*
X0312100Y0127025D01*
X0312100Y0127623D02*
X0330701Y0127623D01*
X0330701Y0128222D02*
X0312100Y0128222D01*
X0312100Y0128820D02*
X0330701Y0128820D01*
X0330701Y0129419D02*
X0312100Y0129419D01*
X0312100Y0130017D02*
X0330701Y0130017D01*
X0330701Y0130616D02*
X0312100Y0130616D01*
X0312100Y0131214D02*
X0330701Y0131214D01*
X0330701Y0131813D02*
X0312100Y0131813D01*
X0311686Y0132411D02*
X0330701Y0132411D01*
X0330701Y0133010D02*
X0311087Y0133010D01*
X0310489Y0133608D02*
X0330701Y0133608D01*
X0330701Y0134207D02*
X0309890Y0134207D01*
X0309292Y0134805D02*
X0330701Y0134805D01*
X0330701Y0135404D02*
X0308693Y0135404D01*
X0308095Y0136002D02*
X0330701Y0136002D01*
X0330701Y0136601D02*
X0307496Y0136601D01*
X0306898Y0137199D02*
X0330701Y0137199D01*
X0330701Y0137798D02*
X0306299Y0137798D01*
X0305701Y0138396D02*
X0330701Y0138396D01*
X0330701Y0138995D02*
X0305102Y0138995D01*
X0304504Y0139593D02*
X0330701Y0139593D01*
X0330701Y0140192D02*
X0303905Y0140192D01*
X0303307Y0140790D02*
X0330701Y0140790D01*
X0330701Y0141389D02*
X0302708Y0141389D01*
X0302110Y0141987D02*
X0330701Y0141987D01*
X0330701Y0142586D02*
X0301511Y0142586D01*
X0300913Y0143184D02*
X0330701Y0143184D01*
X0330701Y0143783D02*
X0300314Y0143783D01*
X0299716Y0144381D02*
X0330701Y0144381D01*
X0330701Y0144980D02*
X0299117Y0144980D01*
X0298519Y0145578D02*
X0330701Y0145578D01*
X0330701Y0146177D02*
X0297920Y0146177D01*
X0297322Y0146775D02*
X0330701Y0146775D01*
X0330701Y0147374D02*
X0296723Y0147374D01*
X0296125Y0147972D02*
X0330701Y0147972D01*
X0330701Y0148571D02*
X0295526Y0148571D01*
X0294928Y0149170D02*
X0330701Y0149170D01*
X0330701Y0149768D02*
X0294329Y0149768D01*
X0293730Y0150367D02*
X0330701Y0150367D01*
X0330701Y0150965D02*
X0293132Y0150965D01*
X0292533Y0151564D02*
X0330701Y0151564D01*
X0330701Y0152162D02*
X0291935Y0152162D01*
X0291336Y0152761D02*
X0330701Y0152761D01*
X0330701Y0153359D02*
X0290738Y0153359D01*
X0290139Y0153958D02*
X0330701Y0153958D01*
X0330701Y0154556D02*
X0289541Y0154556D01*
X0288942Y0155155D02*
X0330701Y0155155D01*
X0330701Y0155753D02*
X0288344Y0155753D01*
X0287745Y0156352D02*
X0330701Y0156352D01*
X0330701Y0156950D02*
X0287147Y0156950D01*
X0286548Y0157549D02*
X0330701Y0157549D01*
X0330701Y0158147D02*
X0285950Y0158147D01*
X0285351Y0158746D02*
X0330701Y0158746D01*
X0330701Y0159344D02*
X0284753Y0159344D01*
X0284800Y0159943D02*
X0330701Y0159943D01*
X0330701Y0160541D02*
X0284800Y0160541D01*
X0284800Y0161140D02*
X0330701Y0161140D01*
X0330701Y0161738D02*
X0284800Y0161738D01*
X0284800Y0162337D02*
X0330701Y0162337D01*
X0330701Y0162935D02*
X0284614Y0162935D01*
X0284016Y0163534D02*
X0330701Y0163534D01*
X0330701Y0164132D02*
X0283417Y0164132D01*
X0282819Y0164731D02*
X0330701Y0164731D01*
X0330701Y0165329D02*
X0254686Y0165329D01*
X0254800Y0165604D02*
X0254267Y0164317D01*
X0253283Y0163333D01*
X0251996Y0162800D01*
X0250604Y0162800D01*
X0249317Y0163333D01*
X0248333Y0164317D01*
X0247800Y0165604D01*
X0247800Y0166996D01*
X0248333Y0168283D01*
X0249317Y0169267D01*
X0250604Y0169800D01*
X0251996Y0169800D01*
X0253283Y0169267D01*
X0254267Y0168283D01*
X0254800Y0166996D01*
X0254800Y0165604D01*
X0254800Y0165928D02*
X0330701Y0165928D01*
X0330701Y0166526D02*
X0254800Y0166526D01*
X0254747Y0167125D02*
X0330701Y0167125D01*
X0330701Y0167723D02*
X0315743Y0167723D01*
X0316761Y0168322D02*
X0330701Y0168322D01*
X0330701Y0168920D02*
X0317360Y0168920D01*
X0317718Y0169519D02*
X0330701Y0169519D01*
X0330701Y0170117D02*
X0317966Y0170117D01*
X0318137Y0170716D02*
X0330701Y0170716D01*
X0330701Y0171314D02*
X0318137Y0171314D01*
X0318137Y0171913D02*
X0330701Y0171913D01*
X0330701Y0172511D02*
X0317954Y0172511D01*
X0317706Y0173110D02*
X0330701Y0173110D01*
X0330701Y0173708D02*
X0317331Y0173708D01*
X0316732Y0174307D02*
X0330701Y0174307D01*
X0330701Y0174905D02*
X0316403Y0174905D01*
X0317001Y0175504D02*
X0330701Y0175504D01*
X0330701Y0176103D02*
X0317600Y0176103D01*
X0318198Y0176701D02*
X0330701Y0176701D01*
X0330701Y0177300D02*
X0318797Y0177300D01*
X0319395Y0177898D02*
X0330701Y0177898D01*
X0330701Y0178497D02*
X0319900Y0178497D01*
X0319900Y0179095D02*
X0330701Y0179095D01*
X0330701Y0179694D02*
X0319900Y0179694D01*
X0319900Y0180292D02*
X0330701Y0180292D01*
X0330701Y0180891D02*
X0319900Y0180891D01*
X0319900Y0181489D02*
X0330701Y0181489D01*
X0330701Y0182088D02*
X0319900Y0182088D01*
X0319900Y0182686D02*
X0330701Y0182686D01*
X0330701Y0183285D02*
X0319612Y0183285D01*
X0319014Y0183883D02*
X0330701Y0183883D01*
X0330701Y0184482D02*
X0318415Y0184482D01*
X0317817Y0185080D02*
X0330701Y0185080D01*
X0330701Y0185679D02*
X0317218Y0185679D01*
X0316620Y0186277D02*
X0330701Y0186277D01*
X0330701Y0186876D02*
X0308821Y0186876D01*
X0308500Y0185500D02*
X0315700Y0185500D01*
X0318700Y0182500D01*
X0318700Y0178900D01*
X0311500Y0171700D01*
X0311300Y0171300D01*
X0313607Y0175504D02*
X0223593Y0175504D01*
X0222995Y0176103D02*
X0314205Y0176103D01*
X0314804Y0176701D02*
X0222396Y0176701D01*
X0221500Y0175900D02*
X0231100Y0166300D01*
X0231300Y0166300D01*
X0229925Y0169519D02*
X0229578Y0169519D01*
X0228980Y0170117D02*
X0304634Y0170117D01*
X0304463Y0170716D02*
X0228381Y0170716D01*
X0227783Y0171314D02*
X0304463Y0171314D01*
X0304463Y0171913D02*
X0227184Y0171913D01*
X0226586Y0172511D02*
X0304646Y0172511D01*
X0304894Y0173110D02*
X0225987Y0173110D01*
X0225389Y0173708D02*
X0305269Y0173708D01*
X0305868Y0174307D02*
X0224790Y0174307D01*
X0224192Y0174905D02*
X0306927Y0174905D01*
X0306436Y0177898D02*
X0179652Y0177898D01*
X0179800Y0177300D02*
X0315403Y0177300D01*
X0311300Y0181300D02*
X0211300Y0181300D01*
X0177700Y0214900D01*
X0156100Y0214900D01*
X0156100Y0209500D01*
X0126700Y0180100D01*
X0126700Y0176500D01*
X0126300Y0176300D01*
X0128658Y0173708D02*
X0172194Y0173708D01*
X0172793Y0173110D02*
X0128060Y0173110D01*
X0129257Y0174307D02*
X0171596Y0174307D01*
X0171100Y0174905D02*
X0129800Y0174905D01*
X0129800Y0175504D02*
X0171100Y0175504D01*
X0171100Y0176103D02*
X0129800Y0176103D01*
X0129800Y0176701D02*
X0171100Y0176701D01*
X0171100Y0177300D02*
X0129800Y0177300D01*
X0129652Y0177898D02*
X0171100Y0177898D01*
X0171400Y0178497D02*
X0129053Y0178497D01*
X0128455Y0179095D02*
X0171998Y0179095D01*
X0172597Y0179694D02*
X0127991Y0179694D01*
X0128589Y0180292D02*
X0173195Y0180292D01*
X0173794Y0180891D02*
X0129188Y0180891D01*
X0129786Y0181489D02*
X0174392Y0181489D01*
X0174700Y0182088D02*
X0130385Y0182088D01*
X0130983Y0182686D02*
X0174700Y0182686D01*
X0174700Y0183285D02*
X0131582Y0183285D01*
X0132180Y0183883D02*
X0174700Y0183883D01*
X0174700Y0184482D02*
X0132779Y0184482D01*
X0133377Y0185080D02*
X0174700Y0185080D01*
X0174700Y0185679D02*
X0133976Y0185679D01*
X0134574Y0186277D02*
X0174700Y0186277D01*
X0174700Y0186876D02*
X0135173Y0186876D01*
X0135771Y0187474D02*
X0174700Y0187474D01*
X0174700Y0188073D02*
X0136370Y0188073D01*
X0136968Y0188671D02*
X0174700Y0188671D01*
X0174700Y0189270D02*
X0137567Y0189270D01*
X0138165Y0189868D02*
X0174700Y0189868D01*
X0174700Y0190467D02*
X0138764Y0190467D01*
X0139362Y0191065D02*
X0174700Y0191065D01*
X0174700Y0191664D02*
X0139961Y0191664D01*
X0140559Y0192262D02*
X0174700Y0192262D01*
X0174700Y0192861D02*
X0141158Y0192861D01*
X0141756Y0193459D02*
X0174700Y0193459D01*
X0174700Y0194058D02*
X0142355Y0194058D01*
X0142953Y0194656D02*
X0174700Y0194656D01*
X0174700Y0195255D02*
X0143552Y0195255D01*
X0144150Y0195853D02*
X0174700Y0195853D01*
X0174700Y0196452D02*
X0144749Y0196452D01*
X0145347Y0197050D02*
X0174700Y0197050D01*
X0174700Y0197649D02*
X0145946Y0197649D01*
X0146544Y0198247D02*
X0174700Y0198247D01*
X0174700Y0198846D02*
X0147143Y0198846D01*
X0147741Y0199444D02*
X0174700Y0199444D01*
X0174700Y0200043D02*
X0148340Y0200043D01*
X0148939Y0200641D02*
X0174700Y0200641D01*
X0174700Y0201240D02*
X0149537Y0201240D01*
X0150136Y0201839D02*
X0174700Y0201839D01*
X0174700Y0202437D02*
X0150734Y0202437D01*
X0151333Y0203036D02*
X0174700Y0203036D01*
X0174700Y0203634D02*
X0151931Y0203634D01*
X0152530Y0204233D02*
X0174700Y0204233D01*
X0174700Y0204831D02*
X0153128Y0204831D01*
X0153727Y0205430D02*
X0174700Y0205430D01*
X0174700Y0206028D02*
X0154325Y0206028D01*
X0154924Y0206627D02*
X0174700Y0206627D01*
X0174700Y0207225D02*
X0155522Y0207225D01*
X0156121Y0207824D02*
X0174700Y0207824D01*
X0174228Y0208422D02*
X0156719Y0208422D01*
X0157300Y0209021D02*
X0173630Y0209021D01*
X0173031Y0209619D02*
X0157300Y0209619D01*
X0157300Y0210218D02*
X0172800Y0210218D01*
X0172800Y0210816D02*
X0157300Y0210816D01*
X0157300Y0211415D02*
X0172800Y0211415D01*
X0172800Y0212013D02*
X0157300Y0212013D01*
X0157300Y0212612D02*
X0172800Y0212612D01*
X0173260Y0213210D02*
X0157300Y0213210D01*
X0156100Y0214900D02*
X0156100Y0246100D01*
X0156300Y0246300D01*
X0160168Y0246128D02*
X0163375Y0246128D01*
X0163973Y0245530D02*
X0160168Y0245530D01*
X0160168Y0244931D02*
X0164572Y0244931D01*
X0165170Y0244333D02*
X0160168Y0244333D01*
X0160168Y0243734D02*
X0165769Y0243734D01*
X0166367Y0243136D02*
X0160168Y0243136D01*
X0160168Y0242562D02*
X0160168Y0249334D01*
X0199403Y0210100D01*
X0207800Y0210100D01*
X0207800Y0209850D01*
X0209850Y0207800D01*
X0212750Y0207800D01*
X0214800Y0209850D01*
X0214800Y0212750D01*
X0214623Y0212926D01*
X0222100Y0220403D01*
X0222100Y0245243D01*
X0223283Y0245733D01*
X0224267Y0246717D01*
X0224800Y0248004D01*
X0224800Y0254596D01*
X0224267Y0255883D01*
X0223850Y0256300D01*
X0228750Y0256300D01*
X0228333Y0255883D01*
X0227800Y0254596D01*
X0227800Y0248004D01*
X0228333Y0246717D01*
X0229317Y0245733D01*
X0229900Y0245492D01*
X0229900Y0203279D01*
X0228711Y0202090D01*
X0228711Y0200110D01*
X0229485Y0199337D01*
X0229317Y0199267D01*
X0228333Y0198283D01*
X0227800Y0196996D01*
X0227800Y0195604D01*
X0228333Y0194317D01*
X0229317Y0193333D01*
X0230604Y0192800D01*
X0231996Y0192800D01*
X0233283Y0193333D01*
X0234267Y0194317D01*
X0234800Y0195604D01*
X0234800Y0196996D01*
X0234267Y0198283D01*
X0233283Y0199267D01*
X0232832Y0199454D01*
X0233489Y0200110D01*
X0233489Y0202090D01*
X0232300Y0203279D01*
X0232300Y0245326D01*
X0233283Y0245733D01*
X0234267Y0246717D01*
X0234800Y0248004D01*
X0234800Y0254596D01*
X0234267Y0255883D01*
X0233850Y0256300D01*
X0238750Y0256300D01*
X0238333Y0255883D01*
X0237800Y0254596D01*
X0237800Y0248004D01*
X0238333Y0246717D01*
X0239317Y0245733D01*
X0240604Y0245200D01*
X0241996Y0245200D01*
X0243283Y0245733D01*
X0244267Y0246717D01*
X0244800Y0248004D01*
X0244800Y0254596D01*
X0244267Y0255883D01*
X0243850Y0256300D01*
X0248750Y0256300D01*
X0248333Y0255883D01*
X0247800Y0254596D01*
X0247800Y0248004D01*
X0248333Y0246717D01*
X0249317Y0245733D01*
X0250604Y0245200D01*
X0251996Y0245200D01*
X0253283Y0245733D01*
X0254267Y0246717D01*
X0254800Y0248004D01*
X0254800Y0254596D01*
X0254267Y0255883D01*
X0253850Y0256300D01*
X0258750Y0256300D01*
X0258333Y0255883D01*
X0257800Y0254596D01*
X0257800Y0248004D01*
X0258333Y0246717D01*
X0259317Y0245733D01*
X0260604Y0245200D01*
X0261996Y0245200D01*
X0263283Y0245733D01*
X0264267Y0246717D01*
X0264800Y0248004D01*
X0264800Y0254596D01*
X0264267Y0255883D01*
X0263850Y0256300D01*
X0268750Y0256300D01*
X0268333Y0255883D01*
X0267800Y0254596D01*
X0267800Y0248004D01*
X0268333Y0246717D01*
X0269317Y0245733D01*
X0270604Y0245200D01*
X0271996Y0245200D01*
X0273283Y0245733D01*
X0274267Y0246717D01*
X0274800Y0248004D01*
X0274800Y0254596D01*
X0274267Y0255883D01*
X0273850Y0256300D01*
X0278750Y0256300D01*
X0278333Y0255883D01*
X0277800Y0254596D01*
X0277800Y0248004D01*
X0278333Y0246717D01*
X0279317Y0245733D01*
X0279401Y0245698D01*
X0266003Y0232300D01*
X0264800Y0232300D01*
X0264800Y0232750D01*
X0262750Y0234800D01*
X0259850Y0234800D01*
X0257800Y0232750D01*
X0257800Y0229850D01*
X0259850Y0227800D01*
X0262750Y0227800D01*
X0264800Y0229850D01*
X0264800Y0229900D01*
X0266003Y0229900D01*
X0281103Y0214800D01*
X0279850Y0214800D01*
X0277800Y0212750D01*
X0277800Y0209850D01*
X0279850Y0207800D01*
X0282750Y0207800D01*
X0284800Y0209850D01*
X0284800Y0211103D01*
X0303100Y0192803D01*
X0303100Y0189203D01*
X0307260Y0185043D01*
X0306140Y0184580D01*
X0305052Y0183491D01*
X0304641Y0182500D01*
X0211797Y0182500D01*
X0178197Y0216100D01*
X0157300Y0216100D01*
X0157300Y0239558D01*
X0158491Y0240052D01*
X0159580Y0241140D01*
X0160168Y0242562D01*
X0160158Y0242537D02*
X0166966Y0242537D01*
X0167564Y0241939D02*
X0159910Y0241939D01*
X0159662Y0241340D02*
X0168163Y0241340D01*
X0168761Y0240742D02*
X0159181Y0240742D01*
X0158583Y0240143D02*
X0169360Y0240143D01*
X0169958Y0239545D02*
X0157300Y0239545D01*
X0157300Y0238946D02*
X0170557Y0238946D01*
X0171155Y0238348D02*
X0157300Y0238348D01*
X0157300Y0237749D02*
X0171754Y0237749D01*
X0172352Y0237151D02*
X0157300Y0237151D01*
X0157300Y0236552D02*
X0172951Y0236552D01*
X0173549Y0235954D02*
X0157300Y0235954D01*
X0157300Y0235355D02*
X0174148Y0235355D01*
X0174746Y0234757D02*
X0157300Y0234757D01*
X0157300Y0234158D02*
X0175345Y0234158D01*
X0175943Y0233560D02*
X0157300Y0233560D01*
X0157300Y0232961D02*
X0176542Y0232961D01*
X0177140Y0232363D02*
X0157300Y0232363D01*
X0157300Y0231764D02*
X0177739Y0231764D01*
X0178337Y0231166D02*
X0157300Y0231166D01*
X0157300Y0230567D02*
X0178936Y0230567D01*
X0179534Y0229969D02*
X0157300Y0229969D01*
X0157300Y0229370D02*
X0180133Y0229370D01*
X0180731Y0228772D02*
X0157300Y0228772D01*
X0157300Y0228173D02*
X0181330Y0228173D01*
X0181928Y0227574D02*
X0157300Y0227574D01*
X0157300Y0226976D02*
X0182527Y0226976D01*
X0183125Y0226377D02*
X0157300Y0226377D01*
X0157300Y0225779D02*
X0183724Y0225779D01*
X0184322Y0225180D02*
X0157300Y0225180D01*
X0157300Y0224582D02*
X0184921Y0224582D01*
X0185520Y0223983D02*
X0157300Y0223983D01*
X0157300Y0223385D02*
X0186118Y0223385D01*
X0186717Y0222786D02*
X0157300Y0222786D01*
X0157300Y0222188D02*
X0187315Y0222188D01*
X0187914Y0221589D02*
X0157300Y0221589D01*
X0157300Y0220991D02*
X0188512Y0220991D01*
X0189111Y0220392D02*
X0157300Y0220392D01*
X0157300Y0219794D02*
X0189709Y0219794D01*
X0190308Y0219195D02*
X0157300Y0219195D01*
X0157300Y0218597D02*
X0190906Y0218597D01*
X0191505Y0217998D02*
X0157300Y0217998D01*
X0157300Y0217400D02*
X0192103Y0217400D01*
X0192702Y0216801D02*
X0157300Y0216801D01*
X0157300Y0216203D02*
X0193300Y0216203D01*
X0193899Y0215604D02*
X0178693Y0215604D01*
X0179291Y0215006D02*
X0194497Y0215006D01*
X0195096Y0214407D02*
X0179890Y0214407D01*
X0180488Y0213809D02*
X0195694Y0213809D01*
X0196293Y0213210D02*
X0181087Y0213210D01*
X0181685Y0212612D02*
X0196891Y0212612D01*
X0197490Y0212013D02*
X0182284Y0212013D01*
X0182882Y0211415D02*
X0198088Y0211415D01*
X0198687Y0210816D02*
X0183481Y0210816D01*
X0184079Y0210218D02*
X0199285Y0210218D01*
X0199900Y0211300D02*
X0157900Y0253300D01*
X0153100Y0253300D01*
X0146500Y0246700D01*
X0146300Y0246300D01*
X0150168Y0246128D02*
X0152431Y0246128D01*
X0152431Y0245530D02*
X0150168Y0245530D01*
X0150168Y0244931D02*
X0152431Y0244931D01*
X0152431Y0244333D02*
X0150168Y0244333D01*
X0150168Y0243734D02*
X0152431Y0243734D01*
X0152431Y0243136D02*
X0150168Y0243136D01*
X0150158Y0242537D02*
X0152442Y0242537D01*
X0152690Y0241939D02*
X0149910Y0241939D01*
X0149662Y0241340D02*
X0152938Y0241340D01*
X0153419Y0240742D02*
X0149181Y0240742D01*
X0148583Y0240143D02*
X0154017Y0240143D01*
X0154900Y0239545D02*
X0147267Y0239545D01*
X0145333Y0239545D02*
X0137500Y0239545D01*
X0137500Y0238946D02*
X0154900Y0238946D01*
X0154900Y0238348D02*
X0137500Y0238348D01*
X0137500Y0237749D02*
X0154900Y0237749D01*
X0154900Y0237151D02*
X0137500Y0237151D01*
X0137500Y0236552D02*
X0154900Y0236552D01*
X0154900Y0235954D02*
X0137500Y0235954D01*
X0137500Y0235355D02*
X0154900Y0235355D01*
X0154900Y0234757D02*
X0137500Y0234757D01*
X0137500Y0234158D02*
X0154900Y0234158D01*
X0154900Y0233560D02*
X0137500Y0233560D01*
X0137500Y0232961D02*
X0154900Y0232961D01*
X0154900Y0232363D02*
X0137500Y0232363D01*
X0137500Y0231764D02*
X0154900Y0231764D01*
X0154900Y0231166D02*
X0137500Y0231166D01*
X0137500Y0230567D02*
X0154900Y0230567D01*
X0154900Y0229969D02*
X0137500Y0229969D01*
X0137500Y0229370D02*
X0154900Y0229370D01*
X0154900Y0228772D02*
X0137500Y0228772D01*
X0137500Y0228173D02*
X0154900Y0228173D01*
X0154900Y0227574D02*
X0137500Y0227574D01*
X0137500Y0226976D02*
X0154900Y0226976D01*
X0154900Y0226377D02*
X0137500Y0226377D01*
X0137500Y0225779D02*
X0154900Y0225779D01*
X0154900Y0225180D02*
X0137500Y0225180D01*
X0137500Y0224582D02*
X0154900Y0224582D01*
X0154900Y0223983D02*
X0137500Y0223983D01*
X0137500Y0223385D02*
X0154900Y0223385D01*
X0154900Y0222786D02*
X0137500Y0222786D01*
X0137500Y0222188D02*
X0154900Y0222188D01*
X0154900Y0221589D02*
X0137500Y0221589D01*
X0137500Y0220991D02*
X0154900Y0220991D01*
X0154900Y0220392D02*
X0137500Y0220392D01*
X0137500Y0219794D02*
X0154900Y0219794D01*
X0154900Y0219195D02*
X0137500Y0219195D01*
X0137500Y0218597D02*
X0154900Y0218597D01*
X0154900Y0217998D02*
X0137500Y0217998D01*
X0137500Y0217400D02*
X0154900Y0217400D01*
X0154900Y0216801D02*
X0137500Y0216801D01*
X0137500Y0216203D02*
X0154900Y0216203D01*
X0154900Y0215604D02*
X0137500Y0215604D01*
X0137500Y0215006D02*
X0154900Y0215006D01*
X0154900Y0214407D02*
X0137500Y0214407D01*
X0137500Y0213809D02*
X0154900Y0213809D01*
X0154900Y0213210D02*
X0137500Y0213210D01*
X0137500Y0212612D02*
X0154900Y0212612D01*
X0154900Y0212013D02*
X0137500Y0212013D01*
X0137500Y0211415D02*
X0154900Y0211415D01*
X0154900Y0210816D02*
X0137500Y0210816D01*
X0137500Y0210218D02*
X0154900Y0210218D01*
X0154522Y0209619D02*
X0137500Y0209619D01*
X0137500Y0209021D02*
X0153924Y0209021D01*
X0153325Y0208422D02*
X0137500Y0208422D01*
X0137500Y0207824D02*
X0152727Y0207824D01*
X0152128Y0207225D02*
X0137500Y0207225D01*
X0137500Y0206627D02*
X0151530Y0206627D01*
X0150931Y0206028D02*
X0137500Y0206028D01*
X0137500Y0205430D02*
X0150333Y0205430D01*
X0149734Y0204831D02*
X0137500Y0204831D01*
X0137500Y0204233D02*
X0149136Y0204233D01*
X0148537Y0203634D02*
X0137500Y0203634D01*
X0137500Y0203036D02*
X0147938Y0203036D01*
X0147340Y0202437D02*
X0137500Y0202437D01*
X0137500Y0201839D02*
X0146741Y0201839D01*
X0146143Y0201240D02*
X0137500Y0201240D01*
X0137500Y0200641D02*
X0145544Y0200641D01*
X0144946Y0200043D02*
X0137500Y0200043D01*
X0137500Y0199444D02*
X0144347Y0199444D01*
X0143749Y0198846D02*
X0137500Y0198846D01*
X0137500Y0198247D02*
X0143150Y0198247D01*
X0142552Y0197649D02*
X0137500Y0197649D01*
X0137500Y0197050D02*
X0141953Y0197050D01*
X0141355Y0196452D02*
X0137500Y0196452D01*
X0137500Y0195853D02*
X0140756Y0195853D01*
X0140158Y0195255D02*
X0137500Y0195255D01*
X0137500Y0194656D02*
X0139559Y0194656D01*
X0138961Y0194058D02*
X0137500Y0194058D01*
X0137500Y0193459D02*
X0138362Y0193459D01*
X0137764Y0192861D02*
X0137500Y0192861D01*
X0136300Y0191500D02*
X0122500Y0177700D01*
X0122500Y0162700D01*
X0127900Y0157300D01*
X0127900Y0123100D01*
X0121300Y0116500D01*
X0121300Y0116300D01*
X0121300Y0115900D01*
X0124900Y0112300D01*
X0205300Y0112300D01*
X0250900Y0066700D01*
X0295900Y0066700D01*
X0296300Y0066300D01*
X0294019Y0068969D02*
X0250328Y0068969D01*
X0249730Y0069568D02*
X0294618Y0069568D01*
X0293421Y0068370D02*
X0250927Y0068370D01*
X0249131Y0070166D02*
X0330701Y0070166D01*
X0330701Y0069568D02*
X0297982Y0069568D01*
X0298581Y0068969D02*
X0330701Y0068969D01*
X0330701Y0068370D02*
X0299179Y0068370D01*
X0299778Y0067772D02*
X0330701Y0067772D01*
X0330701Y0067173D02*
X0299800Y0067173D01*
X0299800Y0066575D02*
X0330701Y0066575D01*
X0330701Y0065976D02*
X0299800Y0065976D01*
X0299800Y0065378D02*
X0330701Y0065378D01*
X0330701Y0064779D02*
X0299729Y0064779D01*
X0299131Y0064181D02*
X0330701Y0064181D01*
X0330701Y0063582D02*
X0298532Y0063582D01*
X0297934Y0062984D02*
X0330701Y0062984D01*
X0330701Y0062385D02*
X0180095Y0062385D01*
X0180168Y0062984D02*
X0244666Y0062984D01*
X0244068Y0063582D02*
X0180168Y0063582D01*
X0180168Y0064181D02*
X0243469Y0064181D01*
X0242871Y0064779D02*
X0180168Y0064779D01*
X0180168Y0065378D02*
X0242800Y0065378D01*
X0242800Y0065976D02*
X0180168Y0065976D01*
X0180168Y0066575D02*
X0242800Y0066575D01*
X0242800Y0067173D02*
X0180168Y0067173D01*
X0180168Y0067772D02*
X0242822Y0067772D01*
X0243421Y0068370D02*
X0180168Y0068370D01*
X0180168Y0068969D02*
X0244019Y0068969D01*
X0244618Y0069568D02*
X0180168Y0069568D01*
X0180115Y0070166D02*
X0245737Y0070166D01*
X0245138Y0070765D02*
X0179868Y0070765D01*
X0179620Y0071363D02*
X0244540Y0071363D01*
X0243941Y0071962D02*
X0179078Y0071962D01*
X0178462Y0072560D02*
X0243343Y0072560D01*
X0242744Y0073159D02*
X0218108Y0073159D01*
X0218707Y0073757D02*
X0242146Y0073757D01*
X0241547Y0074356D02*
X0219305Y0074356D01*
X0219800Y0074954D02*
X0240949Y0074954D01*
X0240350Y0075553D02*
X0219800Y0075553D01*
X0219800Y0076151D02*
X0239752Y0076151D01*
X0239153Y0076750D02*
X0219800Y0076750D01*
X0219800Y0077348D02*
X0238555Y0077348D01*
X0237956Y0077947D02*
X0219603Y0077947D01*
X0219005Y0078545D02*
X0237358Y0078545D01*
X0236759Y0079144D02*
X0218406Y0079144D01*
X0217808Y0079742D02*
X0236161Y0079742D01*
X0237759Y0081538D02*
X0330701Y0081538D01*
X0330701Y0082136D02*
X0237161Y0082136D01*
X0236562Y0082735D02*
X0330701Y0082735D01*
X0330701Y0083333D02*
X0235964Y0083333D01*
X0235365Y0083932D02*
X0330701Y0083932D01*
X0330701Y0084530D02*
X0234767Y0084530D01*
X0234168Y0085129D02*
X0330701Y0085129D01*
X0330701Y0085727D02*
X0233570Y0085727D01*
X0232971Y0086326D02*
X0330701Y0086326D01*
X0330701Y0086924D02*
X0232373Y0086924D01*
X0231774Y0087523D02*
X0330701Y0087523D01*
X0330701Y0088121D02*
X0231176Y0088121D01*
X0230577Y0088720D02*
X0330701Y0088720D01*
X0330701Y0089318D02*
X0229979Y0089318D01*
X0229380Y0089917D02*
X0330701Y0089917D01*
X0330701Y0090515D02*
X0228782Y0090515D01*
X0228183Y0091114D02*
X0330701Y0091114D01*
X0330701Y0091712D02*
X0227585Y0091712D01*
X0226986Y0092311D02*
X0330701Y0092311D01*
X0330701Y0092909D02*
X0226388Y0092909D01*
X0225789Y0093508D02*
X0330701Y0093508D01*
X0330701Y0094106D02*
X0225191Y0094106D01*
X0224592Y0094705D02*
X0330701Y0094705D01*
X0330701Y0095303D02*
X0223994Y0095303D01*
X0223395Y0095902D02*
X0330701Y0095902D01*
X0330701Y0096501D02*
X0222797Y0096501D01*
X0222198Y0097099D02*
X0330701Y0097099D01*
X0330701Y0080939D02*
X0238358Y0080939D01*
X0238956Y0080341D02*
X0330701Y0080341D01*
X0330701Y0079742D02*
X0239555Y0079742D01*
X0240153Y0079144D02*
X0330701Y0079144D01*
X0330701Y0078545D02*
X0240752Y0078545D01*
X0241350Y0077947D02*
X0330701Y0077947D01*
X0330701Y0077348D02*
X0241949Y0077348D01*
X0242547Y0076750D02*
X0330701Y0076750D01*
X0330701Y0076151D02*
X0243146Y0076151D01*
X0243744Y0075553D02*
X0330701Y0075553D01*
X0330701Y0074954D02*
X0244343Y0074954D01*
X0244941Y0074356D02*
X0330701Y0074356D01*
X0330701Y0073757D02*
X0245540Y0073757D01*
X0246138Y0073159D02*
X0330701Y0073159D01*
X0330701Y0072560D02*
X0246737Y0072560D01*
X0247335Y0071962D02*
X0330701Y0071962D01*
X0330701Y0071363D02*
X0247934Y0071363D01*
X0248533Y0070765D02*
X0330701Y0070765D01*
X0330701Y0061787D02*
X0179847Y0061787D01*
X0179600Y0061188D02*
X0330701Y0061188D01*
X0330701Y0060590D02*
X0179029Y0060590D01*
X0178345Y0059991D02*
X0330701Y0059991D01*
X0313678Y0056999D02*
X0028922Y0056999D01*
X0030065Y0056400D02*
X0046127Y0056400D01*
X0045900Y0056173D02*
X0045900Y0046427D01*
X0046427Y0045900D01*
X0056173Y0045900D01*
X0056700Y0046427D01*
X0056700Y0056173D01*
X0056173Y0056700D01*
X0046427Y0056700D01*
X0045900Y0056173D01*
X0045900Y0055802D02*
X0030663Y0055802D01*
X0031262Y0055203D02*
X0045900Y0055203D01*
X0045900Y0054605D02*
X0031716Y0054605D01*
X0031964Y0054006D02*
X0045900Y0054006D01*
X0045900Y0053408D02*
X0032212Y0053408D01*
X0032460Y0052809D02*
X0045900Y0052809D01*
X0045900Y0052211D02*
X0032568Y0052211D01*
X0032568Y0051612D02*
X0045900Y0051612D01*
X0045900Y0051014D02*
X0032568Y0051014D01*
X0032568Y0050415D02*
X0045900Y0050415D01*
X0045900Y0049817D02*
X0032471Y0049817D01*
X0032223Y0049218D02*
X0045900Y0049218D01*
X0045900Y0048620D02*
X0031975Y0048620D01*
X0031727Y0048021D02*
X0045900Y0048021D01*
X0045900Y0047423D02*
X0031288Y0047423D01*
X0030689Y0046824D02*
X0045900Y0046824D01*
X0046102Y0046226D02*
X0030091Y0046226D01*
X0028985Y0045627D02*
X0313615Y0045627D01*
X0312509Y0046226D02*
X0056498Y0046226D01*
X0056700Y0046824D02*
X0311911Y0046824D01*
X0311312Y0047423D02*
X0056700Y0047423D01*
X0056700Y0048021D02*
X0310873Y0048021D01*
X0310625Y0048620D02*
X0056700Y0048620D01*
X0056700Y0049218D02*
X0310377Y0049218D01*
X0310129Y0049817D02*
X0056700Y0049817D01*
X0056700Y0050415D02*
X0310031Y0050415D01*
X0310031Y0051014D02*
X0056700Y0051014D01*
X0056700Y0051612D02*
X0310031Y0051612D01*
X0310031Y0052211D02*
X0056700Y0052211D01*
X0056700Y0052809D02*
X0310140Y0052809D01*
X0310388Y0053408D02*
X0056700Y0053408D01*
X0056700Y0054006D02*
X0310636Y0054006D01*
X0310884Y0054605D02*
X0056700Y0054605D01*
X0056700Y0055203D02*
X0311338Y0055203D01*
X0311937Y0055802D02*
X0056700Y0055802D01*
X0056473Y0056400D02*
X0312535Y0056400D01*
X0294666Y0062984D02*
X0247934Y0062984D01*
X0248532Y0063582D02*
X0294068Y0063582D01*
X0293469Y0064181D02*
X0249131Y0064181D01*
X0249729Y0064779D02*
X0292871Y0064779D01*
X0292800Y0065378D02*
X0249800Y0065378D01*
X0249800Y0065976D02*
X0249927Y0065976D01*
X0260570Y0107628D02*
X0262030Y0107628D01*
X0263380Y0108187D01*
X0264413Y0109220D01*
X0264972Y0110570D01*
X0264972Y0112030D01*
X0264413Y0113380D01*
X0263380Y0114413D01*
X0262030Y0114972D01*
X0260570Y0114972D01*
X0259220Y0114413D01*
X0258187Y0113380D01*
X0257989Y0112900D01*
X0251397Y0112900D01*
X0219623Y0144674D01*
X0219800Y0144850D01*
X0219800Y0147750D01*
X0217750Y0149800D01*
X0214850Y0149800D01*
X0212800Y0147750D01*
X0212800Y0144850D01*
X0214850Y0142800D01*
X0217750Y0142800D01*
X0217926Y0142977D01*
X0250403Y0110500D01*
X0257657Y0110500D01*
X0258187Y0109220D01*
X0259220Y0108187D01*
X0260570Y0107628D01*
X0259981Y0107872D02*
X0211425Y0107872D01*
X0210826Y0108471D02*
X0258937Y0108471D01*
X0258338Y0109069D02*
X0210228Y0109069D01*
X0209629Y0109668D02*
X0258002Y0109668D01*
X0257754Y0110266D02*
X0209031Y0110266D01*
X0208432Y0110865D02*
X0250038Y0110865D01*
X0249440Y0111463D02*
X0207834Y0111463D01*
X0207235Y0112062D02*
X0248841Y0112062D01*
X0248243Y0112660D02*
X0206637Y0112660D01*
X0206038Y0113259D02*
X0247644Y0113259D01*
X0247046Y0113857D02*
X0186407Y0113857D01*
X0186924Y0114456D02*
X0246447Y0114456D01*
X0245849Y0115054D02*
X0187172Y0115054D01*
X0187400Y0115653D02*
X0245250Y0115653D01*
X0244652Y0116251D02*
X0187400Y0116251D01*
X0187400Y0116850D02*
X0244053Y0116850D01*
X0243455Y0117448D02*
X0187213Y0117448D01*
X0186965Y0118047D02*
X0242856Y0118047D01*
X0242258Y0118645D02*
X0186504Y0118645D01*
X0185906Y0119244D02*
X0241659Y0119244D01*
X0241060Y0119842D02*
X0126339Y0119842D01*
X0125906Y0119244D02*
X0146694Y0119244D01*
X0146096Y0118645D02*
X0126504Y0118645D01*
X0126965Y0118047D02*
X0145635Y0118047D01*
X0145387Y0117448D02*
X0127213Y0117448D01*
X0127400Y0116850D02*
X0145200Y0116850D01*
X0145200Y0116251D02*
X0127400Y0116251D01*
X0127400Y0115653D02*
X0145200Y0115653D01*
X0145428Y0115054D02*
X0127172Y0115054D01*
X0126924Y0114456D02*
X0145675Y0114456D01*
X0146193Y0113857D02*
X0126407Y0113857D01*
X0124040Y0111463D02*
X0120234Y0111463D01*
X0119635Y0112062D02*
X0123441Y0112062D01*
X0122843Y0112660D02*
X0119037Y0112660D01*
X0117438Y0110865D02*
X0056700Y0110865D01*
X0056700Y0111463D02*
X0116840Y0111463D01*
X0116241Y0112062D02*
X0056700Y0112062D01*
X0056700Y0112660D02*
X0115643Y0112660D01*
X0115044Y0113259D02*
X0095704Y0113259D01*
X0095883Y0113333D02*
X0096867Y0114317D01*
X0097400Y0115604D01*
X0097400Y0116996D01*
X0096867Y0118283D01*
X0095883Y0119267D01*
X0094596Y0119800D01*
X0088004Y0119800D01*
X0086717Y0119267D01*
X0085733Y0118283D01*
X0085200Y0116996D01*
X0085200Y0115604D01*
X0085733Y0114317D01*
X0086717Y0113333D01*
X0088004Y0112800D01*
X0094596Y0112800D01*
X0095883Y0113333D01*
X0096407Y0113857D02*
X0114446Y0113857D01*
X0113847Y0114456D02*
X0096924Y0114456D01*
X0097172Y0115054D02*
X0113500Y0115054D01*
X0113500Y0115653D02*
X0097400Y0115653D01*
X0097400Y0116251D02*
X0113500Y0116251D01*
X0113500Y0116850D02*
X0097400Y0116850D01*
X0097213Y0117448D02*
X0113500Y0117448D01*
X0113500Y0118047D02*
X0096965Y0118047D01*
X0096504Y0118645D02*
X0113500Y0118645D01*
X0113500Y0119244D02*
X0095906Y0119244D01*
X0094596Y0122800D02*
X0095883Y0123333D01*
X0096867Y0124317D01*
X0097400Y0125604D01*
X0097400Y0126996D01*
X0096867Y0128283D01*
X0095883Y0129267D01*
X0094596Y0129800D01*
X0088004Y0129800D01*
X0086717Y0129267D01*
X0085733Y0128283D01*
X0085200Y0126996D01*
X0085200Y0125604D01*
X0085733Y0124317D01*
X0086717Y0123333D01*
X0088004Y0122800D01*
X0094596Y0122800D01*
X0094681Y0122835D02*
X0110868Y0122835D01*
X0111466Y0122237D02*
X0020600Y0122237D01*
X0020600Y0122835D02*
X0087919Y0122835D01*
X0086617Y0123434D02*
X0020600Y0123434D01*
X0020600Y0124032D02*
X0086018Y0124032D01*
X0085603Y0124631D02*
X0020600Y0124631D01*
X0020600Y0125229D02*
X0085355Y0125229D01*
X0085200Y0125828D02*
X0020600Y0125828D01*
X0020600Y0126426D02*
X0085200Y0126426D01*
X0085212Y0127025D02*
X0020600Y0127025D01*
X0020600Y0127623D02*
X0085460Y0127623D01*
X0085708Y0128222D02*
X0020600Y0128222D01*
X0020600Y0128820D02*
X0086270Y0128820D01*
X0087083Y0129419D02*
X0020600Y0129419D01*
X0020600Y0130017D02*
X0103686Y0130017D01*
X0104284Y0129419D02*
X0095517Y0129419D01*
X0096330Y0128820D02*
X0104883Y0128820D01*
X0105481Y0128222D02*
X0096892Y0128222D01*
X0097140Y0127623D02*
X0106080Y0127623D01*
X0106678Y0127025D02*
X0097388Y0127025D01*
X0097400Y0126426D02*
X0107277Y0126426D01*
X0107875Y0125828D02*
X0097400Y0125828D01*
X0097245Y0125229D02*
X0108474Y0125229D01*
X0109072Y0124631D02*
X0096997Y0124631D01*
X0096582Y0124032D02*
X0109671Y0124032D01*
X0110269Y0123434D02*
X0095983Y0123434D01*
X0086694Y0119244D02*
X0020600Y0119244D01*
X0020600Y0119842D02*
X0113500Y0119842D01*
X0113262Y0120441D02*
X0020600Y0120441D01*
X0020600Y0121039D02*
X0112663Y0121039D01*
X0112065Y0121638D02*
X0020600Y0121638D01*
X0020600Y0118645D02*
X0086096Y0118645D01*
X0085635Y0118047D02*
X0020600Y0118047D01*
X0020600Y0117448D02*
X0085387Y0117448D01*
X0085200Y0116850D02*
X0020600Y0116850D01*
X0020600Y0116251D02*
X0045979Y0116251D01*
X0045900Y0116173D02*
X0045900Y0106427D01*
X0046427Y0105900D01*
X0056173Y0105900D01*
X0056700Y0106427D01*
X0056700Y0116173D01*
X0056173Y0116700D01*
X0046427Y0116700D01*
X0045900Y0116173D01*
X0045900Y0115653D02*
X0020600Y0115653D01*
X0020600Y0115054D02*
X0045900Y0115054D01*
X0045900Y0114456D02*
X0020600Y0114456D01*
X0020600Y0113857D02*
X0045900Y0113857D01*
X0045900Y0113259D02*
X0020600Y0113259D01*
X0020600Y0112660D02*
X0045900Y0112660D01*
X0045900Y0112062D02*
X0020600Y0112062D01*
X0020600Y0111463D02*
X0045900Y0111463D01*
X0045900Y0110865D02*
X0020600Y0110865D01*
X0020600Y0110266D02*
X0045900Y0110266D01*
X0045900Y0109668D02*
X0020600Y0109668D01*
X0020600Y0109069D02*
X0045900Y0109069D01*
X0045900Y0108471D02*
X0020600Y0108471D01*
X0020600Y0107872D02*
X0045900Y0107872D01*
X0045900Y0107274D02*
X0020600Y0107274D01*
X0020600Y0106675D02*
X0045900Y0106675D01*
X0046251Y0106077D02*
X0020600Y0106077D01*
X0020600Y0105478D02*
X0085252Y0105478D01*
X0085200Y0105604D02*
X0085733Y0104317D01*
X0086717Y0103333D01*
X0088004Y0102800D01*
X0094596Y0102800D01*
X0095883Y0103333D01*
X0096867Y0104317D01*
X0097400Y0105604D01*
X0097400Y0106996D01*
X0096867Y0108283D01*
X0095883Y0109267D01*
X0094596Y0109800D01*
X0088004Y0109800D01*
X0086717Y0109267D01*
X0085733Y0108283D01*
X0085200Y0106996D01*
X0085200Y0105604D01*
X0085200Y0106077D02*
X0056349Y0106077D01*
X0056700Y0106675D02*
X0085200Y0106675D01*
X0085315Y0107274D02*
X0056700Y0107274D01*
X0056700Y0107872D02*
X0085563Y0107872D01*
X0085921Y0108471D02*
X0056700Y0108471D01*
X0056700Y0109069D02*
X0086520Y0109069D01*
X0087685Y0109668D02*
X0056700Y0109668D01*
X0056700Y0110266D02*
X0118037Y0110266D01*
X0117685Y0109668D02*
X0094915Y0109668D01*
X0096080Y0109069D02*
X0116520Y0109069D01*
X0115921Y0108471D02*
X0096679Y0108471D01*
X0097037Y0107872D02*
X0115563Y0107872D01*
X0115315Y0107274D02*
X0097285Y0107274D01*
X0097400Y0106675D02*
X0115200Y0106675D01*
X0115200Y0106077D02*
X0097400Y0106077D01*
X0097348Y0105478D02*
X0115252Y0105478D01*
X0115500Y0104880D02*
X0097100Y0104880D01*
X0096831Y0104281D02*
X0115769Y0104281D01*
X0116368Y0103683D02*
X0096232Y0103683D01*
X0095282Y0103084D02*
X0117318Y0103084D01*
X0118004Y0099800D02*
X0116717Y0099267D01*
X0115733Y0098283D01*
X0115200Y0096996D01*
X0115200Y0095604D01*
X0115733Y0094317D01*
X0116717Y0093333D01*
X0118004Y0092800D01*
X0124596Y0092800D01*
X0125883Y0093333D01*
X0126867Y0094317D01*
X0127400Y0095604D01*
X0127400Y0096996D01*
X0126867Y0098283D01*
X0125883Y0099267D01*
X0124596Y0099800D01*
X0118004Y0099800D01*
X0117263Y0099493D02*
X0095337Y0099493D01*
X0095883Y0099267D02*
X0094596Y0099800D01*
X0088004Y0099800D01*
X0086717Y0099267D01*
X0085733Y0098283D01*
X0085200Y0096996D01*
X0085200Y0095604D01*
X0085733Y0094317D01*
X0086717Y0093333D01*
X0088004Y0092800D01*
X0094596Y0092800D01*
X0095883Y0093333D01*
X0096867Y0094317D01*
X0097400Y0095604D01*
X0097400Y0096996D01*
X0096867Y0098283D01*
X0095883Y0099267D01*
X0096255Y0098895D02*
X0116345Y0098895D01*
X0115746Y0098296D02*
X0096854Y0098296D01*
X0097109Y0097698D02*
X0115491Y0097698D01*
X0115243Y0097099D02*
X0097357Y0097099D01*
X0097400Y0096501D02*
X0115200Y0096501D01*
X0115200Y0095902D02*
X0097400Y0095902D01*
X0097276Y0095303D02*
X0115324Y0095303D01*
X0115572Y0094705D02*
X0097028Y0094705D01*
X0096656Y0094106D02*
X0115944Y0094106D01*
X0116542Y0093508D02*
X0096058Y0093508D01*
X0094860Y0092909D02*
X0117740Y0092909D01*
X0124860Y0092909D02*
X0144993Y0092909D01*
X0144395Y0093508D02*
X0126058Y0093508D01*
X0126656Y0094106D02*
X0143796Y0094106D01*
X0143198Y0094705D02*
X0127028Y0094705D01*
X0127276Y0095303D02*
X0142599Y0095303D01*
X0142001Y0095902D02*
X0127400Y0095902D01*
X0127400Y0096501D02*
X0141402Y0096501D01*
X0140804Y0097099D02*
X0127357Y0097099D01*
X0127109Y0097698D02*
X0140205Y0097698D01*
X0139607Y0098296D02*
X0126854Y0098296D01*
X0126255Y0098895D02*
X0139008Y0098895D01*
X0138410Y0099493D02*
X0125337Y0099493D01*
X0125282Y0103084D02*
X0134819Y0103084D01*
X0135417Y0102486D02*
X0020600Y0102486D01*
X0020600Y0103084D02*
X0087318Y0103084D01*
X0086368Y0103683D02*
X0020600Y0103683D01*
X0020600Y0104281D02*
X0085769Y0104281D01*
X0085500Y0104880D02*
X0020600Y0104880D01*
X0020600Y0101887D02*
X0136016Y0101887D01*
X0136614Y0101289D02*
X0020600Y0101289D01*
X0020600Y0100690D02*
X0137213Y0100690D01*
X0137811Y0100092D02*
X0020600Y0100092D01*
X0020600Y0099493D02*
X0087263Y0099493D01*
X0086345Y0098895D02*
X0020600Y0098895D01*
X0020600Y0098296D02*
X0085746Y0098296D01*
X0085491Y0097698D02*
X0020600Y0097698D01*
X0020600Y0097099D02*
X0085243Y0097099D01*
X0085200Y0096501D02*
X0020600Y0096501D01*
X0020600Y0095902D02*
X0085200Y0095902D01*
X0085324Y0095303D02*
X0020600Y0095303D01*
X0020600Y0094705D02*
X0085572Y0094705D01*
X0085944Y0094106D02*
X0020600Y0094106D01*
X0020600Y0093508D02*
X0086542Y0093508D01*
X0087740Y0092909D02*
X0020600Y0092909D01*
X0020600Y0092311D02*
X0145592Y0092311D01*
X0146191Y0091712D02*
X0020600Y0091712D01*
X0020600Y0091114D02*
X0146789Y0091114D01*
X0147388Y0090515D02*
X0020600Y0090515D01*
X0020600Y0089917D02*
X0147986Y0089917D01*
X0148585Y0089318D02*
X0020600Y0089318D01*
X0020600Y0088720D02*
X0149183Y0088720D01*
X0149782Y0088121D02*
X0020600Y0088121D01*
X0020600Y0087523D02*
X0150380Y0087523D01*
X0150979Y0086924D02*
X0020600Y0086924D01*
X0020600Y0086326D02*
X0151577Y0086326D01*
X0152176Y0085727D02*
X0020600Y0085727D01*
X0020600Y0085129D02*
X0152774Y0085129D01*
X0153373Y0084530D02*
X0020600Y0084530D01*
X0020600Y0083932D02*
X0153971Y0083932D01*
X0154570Y0083333D02*
X0020600Y0083333D01*
X0020600Y0082735D02*
X0155168Y0082735D01*
X0155767Y0082136D02*
X0020600Y0082136D01*
X0020600Y0081538D02*
X0156365Y0081538D01*
X0156964Y0080939D02*
X0020600Y0080939D01*
X0020600Y0080341D02*
X0157562Y0080341D01*
X0158161Y0079742D02*
X0020600Y0079742D01*
X0020600Y0079144D02*
X0158759Y0079144D01*
X0159358Y0078545D02*
X0020600Y0078545D01*
X0020600Y0077947D02*
X0159956Y0077947D01*
X0160555Y0077348D02*
X0020600Y0077348D01*
X0020600Y0076750D02*
X0161153Y0076750D01*
X0161752Y0076151D02*
X0020600Y0076151D01*
X0020600Y0075553D02*
X0162350Y0075553D01*
X0162949Y0074954D02*
X0020600Y0074954D01*
X0020600Y0074356D02*
X0163547Y0074356D01*
X0164146Y0073757D02*
X0020600Y0073757D01*
X0056700Y0113259D02*
X0086896Y0113259D01*
X0086193Y0113857D02*
X0056700Y0113857D01*
X0056700Y0114456D02*
X0085675Y0114456D01*
X0085428Y0115054D02*
X0056700Y0115054D01*
X0056700Y0115653D02*
X0085200Y0115653D01*
X0085200Y0116251D02*
X0056621Y0116251D01*
X0085531Y0134805D02*
X0020600Y0134805D01*
X0020600Y0134207D02*
X0085844Y0134207D01*
X0086442Y0133608D02*
X0020600Y0133608D01*
X0020600Y0133010D02*
X0087498Y0133010D01*
X0085283Y0135404D02*
X0020600Y0135404D01*
X0020600Y0136002D02*
X0085200Y0136002D01*
X0085200Y0136601D02*
X0020600Y0136601D01*
X0020600Y0137199D02*
X0085284Y0137199D01*
X0085532Y0137798D02*
X0020600Y0137798D01*
X0020600Y0138396D02*
X0085847Y0138396D01*
X0086445Y0138995D02*
X0020600Y0138995D01*
X0020600Y0139593D02*
X0087505Y0139593D01*
X0088111Y0140192D02*
X0020600Y0140192D01*
X0020600Y0140790D02*
X0087513Y0140790D01*
X0086914Y0141389D02*
X0020600Y0141389D01*
X0020600Y0141987D02*
X0086316Y0141987D01*
X0085717Y0142586D02*
X0020600Y0142586D01*
X0020600Y0143184D02*
X0085119Y0143184D01*
X0084520Y0143783D02*
X0020600Y0143783D01*
X0020600Y0144381D02*
X0083922Y0144381D01*
X0083500Y0144980D02*
X0020600Y0144980D01*
X0020600Y0145578D02*
X0083500Y0145578D01*
X0083500Y0146177D02*
X0020600Y0146177D01*
X0020600Y0146775D02*
X0083500Y0146775D01*
X0083500Y0147374D02*
X0020600Y0147374D01*
X0020600Y0147972D02*
X0083500Y0147972D01*
X0083500Y0148571D02*
X0020600Y0148571D01*
X0020600Y0149170D02*
X0083500Y0149170D01*
X0083500Y0149768D02*
X0020600Y0149768D01*
X0020600Y0150367D02*
X0083500Y0150367D01*
X0083500Y0150965D02*
X0020600Y0150965D01*
X0020600Y0151564D02*
X0083500Y0151564D01*
X0083500Y0152162D02*
X0020600Y0152162D01*
X0020600Y0152761D02*
X0083500Y0152761D01*
X0083500Y0153359D02*
X0020600Y0153359D01*
X0020600Y0153958D02*
X0083500Y0153958D01*
X0083500Y0154556D02*
X0020600Y0154556D01*
X0020600Y0155155D02*
X0083500Y0155155D01*
X0083500Y0155753D02*
X0020600Y0155753D01*
X0020600Y0156352D02*
X0083351Y0156352D01*
X0082753Y0156950D02*
X0020600Y0156950D01*
X0020600Y0157549D02*
X0082154Y0157549D01*
X0081556Y0158147D02*
X0020600Y0158147D01*
X0020600Y0158746D02*
X0080957Y0158746D01*
X0080359Y0159344D02*
X0020600Y0159344D01*
X0020600Y0159943D02*
X0079760Y0159943D01*
X0079162Y0160541D02*
X0020600Y0160541D01*
X0020600Y0161140D02*
X0078563Y0161140D01*
X0077965Y0161738D02*
X0020600Y0161738D01*
X0020600Y0162337D02*
X0077366Y0162337D01*
X0076768Y0162935D02*
X0020600Y0162935D01*
X0020600Y0163534D02*
X0076169Y0163534D01*
X0075571Y0164132D02*
X0020600Y0164132D01*
X0020600Y0164731D02*
X0074972Y0164731D01*
X0074374Y0165329D02*
X0020600Y0165329D01*
X0020600Y0165928D02*
X0073775Y0165928D01*
X0073177Y0166526D02*
X0020600Y0166526D01*
X0020600Y0167125D02*
X0072578Y0167125D01*
X0071980Y0167723D02*
X0055743Y0167723D01*
X0055038Y0167431D02*
X0056460Y0168020D01*
X0057548Y0169109D01*
X0058137Y0170530D01*
X0058137Y0172069D01*
X0057548Y0173491D01*
X0056460Y0174580D01*
X0055038Y0175168D01*
X0047562Y0175168D01*
X0046140Y0174580D01*
X0045052Y0173491D01*
X0044463Y0172069D01*
X0044463Y0170530D01*
X0045052Y0169109D01*
X0046140Y0168020D01*
X0047562Y0167431D01*
X0055038Y0167431D01*
X0056761Y0168322D02*
X0071381Y0168322D01*
X0070783Y0168920D02*
X0057360Y0168920D01*
X0057718Y0169519D02*
X0070184Y0169519D01*
X0069586Y0170117D02*
X0057966Y0170117D01*
X0058137Y0170716D02*
X0068987Y0170716D01*
X0068389Y0171314D02*
X0058137Y0171314D01*
X0058137Y0171913D02*
X0067790Y0171913D01*
X0067191Y0172511D02*
X0057954Y0172511D01*
X0057706Y0173110D02*
X0066593Y0173110D01*
X0065994Y0173708D02*
X0057331Y0173708D01*
X0056732Y0174307D02*
X0065396Y0174307D01*
X0064797Y0174905D02*
X0055673Y0174905D01*
X0056164Y0177898D02*
X0061805Y0177898D01*
X0062403Y0177300D02*
X0020600Y0177300D01*
X0020600Y0177898D02*
X0046436Y0177898D01*
X0045664Y0178497D02*
X0020600Y0178497D01*
X0020600Y0179095D02*
X0045066Y0179095D01*
X0044810Y0179694D02*
X0020600Y0179694D01*
X0020600Y0180292D02*
X0044562Y0180292D01*
X0044463Y0180891D02*
X0020600Y0180891D01*
X0020600Y0181489D02*
X0044463Y0181489D01*
X0044471Y0182088D02*
X0020600Y0182088D01*
X0020600Y0182686D02*
X0044718Y0182686D01*
X0044966Y0183285D02*
X0020600Y0183285D01*
X0020600Y0183883D02*
X0045444Y0183883D01*
X0046042Y0184482D02*
X0020600Y0184482D01*
X0020600Y0185080D02*
X0047349Y0185080D01*
X0047459Y0187474D02*
X0020600Y0187474D01*
X0020600Y0186876D02*
X0052827Y0186876D01*
X0053426Y0186277D02*
X0020600Y0186277D01*
X0020600Y0185679D02*
X0054024Y0185679D01*
X0055623Y0187474D02*
X0130577Y0187474D01*
X0129979Y0186876D02*
X0056221Y0186876D01*
X0056820Y0186277D02*
X0129380Y0186277D01*
X0128782Y0185679D02*
X0057418Y0185679D01*
X0058017Y0185080D02*
X0128183Y0185080D01*
X0127585Y0184482D02*
X0058615Y0184482D01*
X0059214Y0183883D02*
X0126986Y0183883D01*
X0126388Y0183285D02*
X0059812Y0183285D01*
X0060411Y0182686D02*
X0125789Y0182686D01*
X0125191Y0182088D02*
X0061009Y0182088D01*
X0061608Y0181489D02*
X0124592Y0181489D01*
X0123994Y0180891D02*
X0062206Y0180891D01*
X0062805Y0180292D02*
X0123395Y0180292D01*
X0122797Y0179694D02*
X0063403Y0179694D01*
X0064002Y0179095D02*
X0122198Y0179095D01*
X0121600Y0178497D02*
X0064600Y0178497D01*
X0065199Y0177898D02*
X0121300Y0177898D01*
X0121300Y0177300D02*
X0065797Y0177300D01*
X0066396Y0176701D02*
X0121300Y0176701D01*
X0121300Y0176103D02*
X0066995Y0176103D01*
X0067593Y0175504D02*
X0121300Y0175504D01*
X0121300Y0174905D02*
X0068192Y0174905D01*
X0068790Y0174307D02*
X0121300Y0174307D01*
X0121300Y0173708D02*
X0069389Y0173708D01*
X0069987Y0173110D02*
X0121300Y0173110D01*
X0121300Y0172511D02*
X0070586Y0172511D01*
X0071184Y0171913D02*
X0121300Y0171913D01*
X0121300Y0171314D02*
X0071783Y0171314D01*
X0072381Y0170716D02*
X0121300Y0170716D01*
X0121300Y0170117D02*
X0072980Y0170117D01*
X0073578Y0169519D02*
X0121300Y0169519D01*
X0121300Y0168920D02*
X0074177Y0168920D01*
X0074775Y0168322D02*
X0121300Y0168322D01*
X0121300Y0167723D02*
X0075374Y0167723D01*
X0075972Y0167125D02*
X0121300Y0167125D01*
X0121300Y0166526D02*
X0076571Y0166526D01*
X0077169Y0165928D02*
X0121300Y0165928D01*
X0121300Y0165329D02*
X0077768Y0165329D01*
X0078366Y0164731D02*
X0121300Y0164731D01*
X0121300Y0164132D02*
X0078965Y0164132D01*
X0079563Y0163534D02*
X0121300Y0163534D01*
X0121300Y0162935D02*
X0080162Y0162935D01*
X0080760Y0162337D02*
X0121300Y0162337D01*
X0121765Y0161738D02*
X0081359Y0161738D01*
X0081957Y0161140D02*
X0122363Y0161140D01*
X0122962Y0160541D02*
X0082556Y0160541D01*
X0083154Y0159943D02*
X0123560Y0159943D01*
X0125159Y0161738D02*
X0277800Y0161738D01*
X0277800Y0161140D02*
X0125757Y0161140D01*
X0126356Y0160541D02*
X0277800Y0160541D01*
X0277800Y0159943D02*
X0126954Y0159943D01*
X0127553Y0159344D02*
X0146903Y0159344D01*
X0146717Y0159267D02*
X0145733Y0158283D01*
X0145200Y0156996D01*
X0145200Y0155604D01*
X0145733Y0154317D01*
X0146717Y0153333D01*
X0148004Y0152800D01*
X0152903Y0152800D01*
X0154403Y0151300D01*
X0182603Y0151300D01*
X0184103Y0149800D01*
X0178004Y0149800D01*
X0176717Y0149267D01*
X0175733Y0148283D01*
X0175200Y0146996D01*
X0175200Y0145604D01*
X0175733Y0144317D01*
X0176717Y0143333D01*
X0178004Y0142800D01*
X0184596Y0142800D01*
X0185883Y0143333D01*
X0186867Y0144317D01*
X0187400Y0145604D01*
X0187400Y0146503D01*
X0208403Y0125500D01*
X0212800Y0125500D01*
X0212800Y0124850D01*
X0214850Y0122800D01*
X0217750Y0122800D01*
X0219800Y0124850D01*
X0219800Y0127750D01*
X0217750Y0129800D01*
X0214850Y0129800D01*
X0212950Y0127900D01*
X0209397Y0127900D01*
X0184497Y0152800D01*
X0184596Y0152800D01*
X0185883Y0153333D01*
X0186867Y0154317D01*
X0187400Y0155604D01*
X0187400Y0156996D01*
X0186867Y0158283D01*
X0185883Y0159267D01*
X0184596Y0159800D01*
X0178004Y0159800D01*
X0176717Y0159267D01*
X0175733Y0158283D01*
X0175200Y0156996D01*
X0175200Y0155604D01*
X0175733Y0154317D01*
X0176350Y0153700D01*
X0156250Y0153700D01*
X0156867Y0154317D01*
X0157400Y0155604D01*
X0157400Y0156996D01*
X0156867Y0158283D01*
X0155883Y0159267D01*
X0154596Y0159800D01*
X0148004Y0159800D01*
X0146717Y0159267D01*
X0146196Y0158746D02*
X0128151Y0158746D01*
X0128750Y0158147D02*
X0145677Y0158147D01*
X0145429Y0157549D02*
X0129100Y0157549D01*
X0129100Y0156950D02*
X0145200Y0156950D01*
X0145200Y0156352D02*
X0129100Y0156352D01*
X0129100Y0155753D02*
X0145200Y0155753D01*
X0145386Y0155155D02*
X0129100Y0155155D01*
X0129100Y0154556D02*
X0145634Y0154556D01*
X0146093Y0153958D02*
X0129100Y0153958D01*
X0129100Y0153359D02*
X0146691Y0153359D01*
X0148004Y0149800D02*
X0146717Y0149267D01*
X0145733Y0148283D01*
X0145200Y0146996D01*
X0145200Y0145604D01*
X0145733Y0144317D01*
X0146717Y0143333D01*
X0148004Y0142800D01*
X0154596Y0142800D01*
X0155883Y0143333D01*
X0156867Y0144317D01*
X0157400Y0145604D01*
X0157400Y0146996D01*
X0156867Y0148283D01*
X0155883Y0149267D01*
X0154596Y0149800D01*
X0148004Y0149800D01*
X0147927Y0149768D02*
X0129100Y0149768D01*
X0129100Y0149170D02*
X0146620Y0149170D01*
X0146021Y0148571D02*
X0129100Y0148571D01*
X0129100Y0147972D02*
X0145604Y0147972D01*
X0145356Y0147374D02*
X0129100Y0147374D01*
X0129100Y0146775D02*
X0145200Y0146775D01*
X0145200Y0146177D02*
X0129100Y0146177D01*
X0129100Y0145578D02*
X0145210Y0145578D01*
X0145458Y0144980D02*
X0129100Y0144980D01*
X0129100Y0144381D02*
X0145706Y0144381D01*
X0146267Y0143783D02*
X0129100Y0143783D01*
X0129100Y0143184D02*
X0147076Y0143184D01*
X0148004Y0139800D02*
X0146717Y0139267D01*
X0145733Y0138283D01*
X0145200Y0136996D01*
X0145200Y0135604D01*
X0145733Y0134317D01*
X0146717Y0133333D01*
X0148004Y0132800D01*
X0154596Y0132800D01*
X0155883Y0133333D01*
X0156867Y0134317D01*
X0157400Y0135604D01*
X0157400Y0136996D01*
X0156867Y0138283D01*
X0155883Y0139267D01*
X0154596Y0139800D01*
X0148004Y0139800D01*
X0147505Y0139593D02*
X0129100Y0139593D01*
X0129100Y0138995D02*
X0146445Y0138995D01*
X0145847Y0138396D02*
X0129100Y0138396D01*
X0129100Y0137798D02*
X0145532Y0137798D01*
X0145284Y0137199D02*
X0129100Y0137199D01*
X0129100Y0136601D02*
X0145200Y0136601D01*
X0145200Y0136002D02*
X0129100Y0136002D01*
X0129100Y0135404D02*
X0145283Y0135404D01*
X0145531Y0134805D02*
X0129100Y0134805D01*
X0129100Y0134207D02*
X0145844Y0134207D01*
X0146442Y0133608D02*
X0129100Y0133608D01*
X0129100Y0133010D02*
X0147498Y0133010D01*
X0148004Y0129800D02*
X0146717Y0129267D01*
X0145733Y0128283D01*
X0145200Y0126996D01*
X0145200Y0125604D01*
X0145733Y0124317D01*
X0146717Y0123333D01*
X0148004Y0122800D01*
X0154596Y0122800D01*
X0155883Y0123333D01*
X0156867Y0124317D01*
X0157400Y0125604D01*
X0157400Y0126996D01*
X0156867Y0128283D01*
X0155883Y0129267D01*
X0154596Y0129800D01*
X0148004Y0129800D01*
X0147083Y0129419D02*
X0129100Y0129419D01*
X0129100Y0130017D02*
X0203886Y0130017D01*
X0204484Y0129419D02*
X0185517Y0129419D01*
X0185883Y0129267D02*
X0184596Y0129800D01*
X0178004Y0129800D01*
X0176717Y0129267D01*
X0175733Y0128283D01*
X0175200Y0126996D01*
X0175200Y0125604D01*
X0175733Y0124317D01*
X0176717Y0123333D01*
X0178004Y0122800D01*
X0184596Y0122800D01*
X0185883Y0123333D01*
X0186867Y0124317D01*
X0187400Y0125604D01*
X0187400Y0126996D01*
X0186867Y0128283D01*
X0185883Y0129267D01*
X0186330Y0128820D02*
X0205083Y0128820D01*
X0205681Y0128222D02*
X0186892Y0128222D01*
X0187140Y0127623D02*
X0206280Y0127623D01*
X0206878Y0127025D02*
X0187388Y0127025D01*
X0187400Y0126426D02*
X0207477Y0126426D01*
X0208075Y0125828D02*
X0187400Y0125828D01*
X0187245Y0125229D02*
X0212800Y0125229D01*
X0213020Y0124631D02*
X0186997Y0124631D01*
X0186582Y0124032D02*
X0213618Y0124032D01*
X0214217Y0123434D02*
X0185983Y0123434D01*
X0184681Y0122835D02*
X0214815Y0122835D01*
X0217785Y0122835D02*
X0238068Y0122835D01*
X0238666Y0122237D02*
X0128734Y0122237D01*
X0129100Y0122835D02*
X0147919Y0122835D01*
X0146617Y0123434D02*
X0129100Y0123434D01*
X0129100Y0124032D02*
X0146018Y0124032D01*
X0145603Y0124631D02*
X0129100Y0124631D01*
X0129100Y0125229D02*
X0145355Y0125229D01*
X0145200Y0125828D02*
X0129100Y0125828D01*
X0129100Y0126426D02*
X0145200Y0126426D01*
X0145212Y0127025D02*
X0129100Y0127025D01*
X0129100Y0127623D02*
X0145460Y0127623D01*
X0145708Y0128222D02*
X0129100Y0128222D01*
X0129100Y0128820D02*
X0146270Y0128820D01*
X0155517Y0129419D02*
X0177083Y0129419D01*
X0176270Y0128820D02*
X0156330Y0128820D01*
X0156892Y0128222D02*
X0175708Y0128222D01*
X0175460Y0127623D02*
X0157140Y0127623D01*
X0157388Y0127025D02*
X0175212Y0127025D01*
X0175200Y0126426D02*
X0157400Y0126426D01*
X0157400Y0125828D02*
X0175200Y0125828D01*
X0175355Y0125229D02*
X0157245Y0125229D01*
X0156997Y0124631D02*
X0175603Y0124631D01*
X0176018Y0124032D02*
X0156582Y0124032D01*
X0155983Y0123434D02*
X0176617Y0123434D01*
X0177919Y0122835D02*
X0154681Y0122835D01*
X0155906Y0119244D02*
X0176694Y0119244D01*
X0176096Y0118645D02*
X0156504Y0118645D01*
X0156965Y0118047D02*
X0175635Y0118047D01*
X0175387Y0117448D02*
X0157213Y0117448D01*
X0157400Y0116850D02*
X0175200Y0116850D01*
X0175200Y0116251D02*
X0157400Y0116251D01*
X0157400Y0115653D02*
X0175200Y0115653D01*
X0175428Y0115054D02*
X0157172Y0115054D01*
X0156924Y0114456D02*
X0175675Y0114456D01*
X0176193Y0113857D02*
X0156407Y0113857D01*
X0154915Y0109668D02*
X0177685Y0109668D01*
X0176520Y0109069D02*
X0156080Y0109069D01*
X0156679Y0108471D02*
X0175921Y0108471D01*
X0175563Y0107872D02*
X0157037Y0107872D01*
X0157285Y0107274D02*
X0175315Y0107274D01*
X0175200Y0106675D02*
X0157400Y0106675D01*
X0157400Y0106077D02*
X0175200Y0106077D01*
X0175252Y0105478D02*
X0157348Y0105478D01*
X0157100Y0104880D02*
X0175500Y0104880D01*
X0175769Y0104281D02*
X0156831Y0104281D01*
X0156232Y0103683D02*
X0176368Y0103683D01*
X0177318Y0103084D02*
X0155282Y0103084D01*
X0155337Y0099493D02*
X0177263Y0099493D01*
X0176345Y0098895D02*
X0156255Y0098895D01*
X0156854Y0098296D02*
X0175746Y0098296D01*
X0175491Y0097698D02*
X0157109Y0097698D01*
X0157357Y0097099D02*
X0175243Y0097099D01*
X0175200Y0096501D02*
X0157400Y0096501D01*
X0157400Y0095902D02*
X0175200Y0095902D01*
X0175324Y0095303D02*
X0157276Y0095303D01*
X0157028Y0094705D02*
X0175572Y0094705D01*
X0175944Y0094106D02*
X0156656Y0094106D01*
X0156058Y0093508D02*
X0176542Y0093508D01*
X0177740Y0092909D02*
X0154860Y0092909D01*
X0147263Y0099493D02*
X0141804Y0099493D01*
X0142402Y0098895D02*
X0146345Y0098895D01*
X0145746Y0098296D02*
X0143001Y0098296D01*
X0143599Y0097698D02*
X0145491Y0097698D01*
X0145243Y0097099D02*
X0144198Y0097099D01*
X0144797Y0096501D02*
X0145200Y0096501D01*
X0134220Y0103683D02*
X0126232Y0103683D01*
X0126831Y0104281D02*
X0133622Y0104281D01*
X0133023Y0104880D02*
X0127100Y0104880D01*
X0127348Y0105478D02*
X0132425Y0105478D01*
X0131826Y0106077D02*
X0127400Y0106077D01*
X0127400Y0106675D02*
X0131228Y0106675D01*
X0130629Y0107274D02*
X0127285Y0107274D01*
X0127037Y0107872D02*
X0130031Y0107872D01*
X0129432Y0108471D02*
X0126679Y0108471D01*
X0129700Y0109900D02*
X0166300Y0073300D01*
X0169300Y0073300D01*
X0176300Y0066300D01*
X0205038Y0110865D02*
X0130432Y0110865D01*
X0129700Y0109900D02*
X0120100Y0109900D01*
X0114700Y0115300D01*
X0114700Y0120700D01*
X0095500Y0139900D01*
X0090100Y0139900D01*
X0084700Y0145300D01*
X0084700Y0156700D01*
X0051700Y0189700D01*
X0051700Y0190900D01*
X0051300Y0191300D01*
X0056274Y0194656D02*
X0135100Y0194656D01*
X0135100Y0194058D02*
X0056982Y0194058D01*
X0057561Y0193459D02*
X0135100Y0193459D01*
X0135100Y0192861D02*
X0057809Y0192861D01*
X0058057Y0192262D02*
X0135100Y0192262D01*
X0134767Y0191664D02*
X0058137Y0191664D01*
X0058137Y0191065D02*
X0134168Y0191065D01*
X0133570Y0190467D02*
X0058111Y0190467D01*
X0057863Y0189868D02*
X0132971Y0189868D01*
X0132373Y0189270D02*
X0057615Y0189270D01*
X0057111Y0188671D02*
X0131774Y0188671D01*
X0131176Y0188073D02*
X0056512Y0188073D01*
X0058137Y0181489D02*
X0058214Y0181489D01*
X0058137Y0180891D02*
X0058812Y0180891D01*
X0059411Y0180292D02*
X0058038Y0180292D01*
X0057790Y0179694D02*
X0060009Y0179694D01*
X0060608Y0179095D02*
X0057534Y0179095D01*
X0056936Y0178497D02*
X0061206Y0178497D01*
X0063002Y0176701D02*
X0020600Y0176701D01*
X0020600Y0176103D02*
X0063600Y0176103D01*
X0064199Y0175504D02*
X0020600Y0175504D01*
X0020600Y0174905D02*
X0046927Y0174905D01*
X0045868Y0174307D02*
X0020600Y0174307D01*
X0020600Y0173708D02*
X0045269Y0173708D01*
X0044894Y0173110D02*
X0020600Y0173110D01*
X0020600Y0172511D02*
X0044646Y0172511D01*
X0044463Y0171913D02*
X0020600Y0171913D01*
X0020600Y0171314D02*
X0044463Y0171314D01*
X0044463Y0170716D02*
X0020600Y0170716D01*
X0020600Y0170117D02*
X0044634Y0170117D01*
X0044882Y0169519D02*
X0020600Y0169519D01*
X0020600Y0168920D02*
X0045240Y0168920D01*
X0045839Y0168322D02*
X0020600Y0168322D01*
X0020600Y0167723D02*
X0046857Y0167723D01*
X0046088Y0188073D02*
X0020600Y0188073D01*
X0020600Y0188671D02*
X0045489Y0188671D01*
X0044985Y0189270D02*
X0020600Y0189270D01*
X0020600Y0189868D02*
X0044737Y0189868D01*
X0044489Y0190467D02*
X0020600Y0190467D01*
X0020600Y0191065D02*
X0044463Y0191065D01*
X0044463Y0191664D02*
X0020600Y0191664D01*
X0020600Y0192262D02*
X0044543Y0192262D01*
X0044791Y0192861D02*
X0020600Y0192861D01*
X0020600Y0193459D02*
X0045039Y0193459D01*
X0045618Y0194058D02*
X0020600Y0194058D01*
X0020600Y0194656D02*
X0046326Y0194656D01*
X0020600Y0195255D02*
X0135100Y0195255D01*
X0135100Y0195853D02*
X0020600Y0195853D01*
X0020600Y0196452D02*
X0135100Y0196452D01*
X0135100Y0197050D02*
X0020600Y0197050D01*
X0020600Y0197649D02*
X0135100Y0197649D01*
X0135100Y0198247D02*
X0020600Y0198247D01*
X0020600Y0198846D02*
X0135100Y0198846D01*
X0135100Y0199444D02*
X0020600Y0199444D01*
X0020600Y0200043D02*
X0135100Y0200043D01*
X0135100Y0200641D02*
X0020600Y0200641D01*
X0020600Y0201240D02*
X0135100Y0201240D01*
X0135100Y0201839D02*
X0020600Y0201839D01*
X0020600Y0202437D02*
X0135100Y0202437D01*
X0135100Y0203036D02*
X0020600Y0203036D01*
X0020600Y0203634D02*
X0135100Y0203634D01*
X0135100Y0204233D02*
X0020600Y0204233D01*
X0020600Y0204831D02*
X0135100Y0204831D01*
X0135100Y0205430D02*
X0020600Y0205430D01*
X0020600Y0206028D02*
X0135100Y0206028D01*
X0135100Y0206627D02*
X0020600Y0206627D01*
X0020600Y0207225D02*
X0135100Y0207225D01*
X0135100Y0207824D02*
X0127773Y0207824D01*
X0127750Y0207800D02*
X0129800Y0209850D01*
X0129800Y0212750D01*
X0127750Y0214800D01*
X0124850Y0214800D01*
X0122800Y0212750D01*
X0122800Y0209850D01*
X0124850Y0207800D01*
X0127750Y0207800D01*
X0128372Y0208422D02*
X0135100Y0208422D01*
X0135100Y0209021D02*
X0128970Y0209021D01*
X0129569Y0209619D02*
X0135100Y0209619D01*
X0135100Y0210218D02*
X0129800Y0210218D01*
X0129800Y0210816D02*
X0135100Y0210816D01*
X0135100Y0211415D02*
X0129800Y0211415D01*
X0129800Y0212013D02*
X0135100Y0212013D01*
X0135100Y0212612D02*
X0129800Y0212612D01*
X0129340Y0213210D02*
X0135100Y0213210D01*
X0135100Y0213809D02*
X0128741Y0213809D01*
X0128142Y0214407D02*
X0135100Y0214407D01*
X0135100Y0215006D02*
X0020600Y0215006D01*
X0020600Y0215604D02*
X0135100Y0215604D01*
X0135100Y0216203D02*
X0020600Y0216203D01*
X0020600Y0216801D02*
X0135100Y0216801D01*
X0135100Y0217400D02*
X0020600Y0217400D01*
X0020600Y0217998D02*
X0135100Y0217998D01*
X0135100Y0218597D02*
X0020600Y0218597D01*
X0020600Y0219195D02*
X0135100Y0219195D01*
X0135100Y0219794D02*
X0020600Y0219794D01*
X0020600Y0220392D02*
X0135100Y0220392D01*
X0135100Y0220991D02*
X0020600Y0220991D01*
X0020600Y0221589D02*
X0135100Y0221589D01*
X0135100Y0222188D02*
X0020600Y0222188D01*
X0020600Y0222786D02*
X0135100Y0222786D01*
X0135100Y0223385D02*
X0103335Y0223385D01*
X0102750Y0222800D02*
X0104800Y0224850D01*
X0104800Y0227750D01*
X0102750Y0229800D01*
X0099850Y0229800D01*
X0097800Y0227750D01*
X0097800Y0224850D01*
X0099850Y0222800D01*
X0102750Y0222800D01*
X0103933Y0223983D02*
X0135100Y0223983D01*
X0135100Y0224582D02*
X0104532Y0224582D01*
X0104800Y0225180D02*
X0135100Y0225180D01*
X0135100Y0225779D02*
X0104800Y0225779D01*
X0104800Y0226377D02*
X0135100Y0226377D01*
X0135100Y0226976D02*
X0104800Y0226976D01*
X0104800Y0227574D02*
X0135100Y0227574D01*
X0135100Y0228173D02*
X0104377Y0228173D01*
X0103778Y0228772D02*
X0135100Y0228772D01*
X0135100Y0229370D02*
X0103180Y0229370D01*
X0099420Y0229370D02*
X0053180Y0229370D01*
X0052750Y0229800D02*
X0049850Y0229800D01*
X0047800Y0227750D01*
X0047800Y0224850D01*
X0049850Y0222800D01*
X0052750Y0222800D01*
X0054800Y0224850D01*
X0054800Y0227750D01*
X0052750Y0229800D01*
X0053778Y0228772D02*
X0098822Y0228772D01*
X0098223Y0228173D02*
X0054377Y0228173D01*
X0054800Y0227574D02*
X0097800Y0227574D01*
X0097800Y0226976D02*
X0054800Y0226976D01*
X0054800Y0226377D02*
X0097800Y0226377D01*
X0097800Y0225779D02*
X0054800Y0225779D01*
X0054800Y0225180D02*
X0097800Y0225180D01*
X0098068Y0224582D02*
X0054532Y0224582D01*
X0053933Y0223983D02*
X0098667Y0223983D01*
X0099265Y0223385D02*
X0053335Y0223385D01*
X0049265Y0223385D02*
X0020600Y0223385D01*
X0020600Y0223983D02*
X0048667Y0223983D01*
X0048068Y0224582D02*
X0020600Y0224582D01*
X0020600Y0225180D02*
X0047800Y0225180D01*
X0047800Y0225779D02*
X0020600Y0225779D01*
X0020600Y0226377D02*
X0047800Y0226377D01*
X0047800Y0226976D02*
X0020600Y0226976D01*
X0020600Y0227574D02*
X0047800Y0227574D01*
X0048223Y0228173D02*
X0020600Y0228173D01*
X0020600Y0228772D02*
X0048822Y0228772D01*
X0049420Y0229370D02*
X0020600Y0229370D01*
X0020600Y0229969D02*
X0135100Y0229969D01*
X0135100Y0230567D02*
X0020600Y0230567D01*
X0020600Y0231166D02*
X0135100Y0231166D01*
X0135100Y0231764D02*
X0020600Y0231764D01*
X0020600Y0232363D02*
X0135100Y0232363D01*
X0135100Y0232961D02*
X0020600Y0232961D01*
X0020600Y0233560D02*
X0135100Y0233560D01*
X0135100Y0234158D02*
X0020600Y0234158D01*
X0020600Y0234757D02*
X0135100Y0234757D01*
X0135100Y0235355D02*
X0020600Y0235355D01*
X0020600Y0235954D02*
X0135100Y0235954D01*
X0135100Y0236552D02*
X0020600Y0236552D01*
X0020600Y0237151D02*
X0135100Y0237151D01*
X0135100Y0237749D02*
X0020600Y0237749D01*
X0020600Y0238348D02*
X0135100Y0238348D01*
X0135100Y0238946D02*
X0020600Y0238946D01*
X0020600Y0239545D02*
X0135100Y0239545D01*
X0134017Y0240143D02*
X0020600Y0240143D01*
X0020600Y0240742D02*
X0133419Y0240742D01*
X0132938Y0241340D02*
X0020600Y0241340D01*
X0020600Y0241939D02*
X0132690Y0241939D01*
X0132442Y0242537D02*
X0020600Y0242537D01*
X0020600Y0243136D02*
X0132431Y0243136D01*
X0132431Y0243734D02*
X0020600Y0243734D01*
X0020600Y0244333D02*
X0132431Y0244333D01*
X0132431Y0244931D02*
X0020600Y0244931D01*
X0020600Y0245530D02*
X0132431Y0245530D01*
X0132431Y0246128D02*
X0020600Y0246128D01*
X0020600Y0246727D02*
X0132431Y0246727D01*
X0132431Y0247325D02*
X0020600Y0247325D01*
X0020600Y0247924D02*
X0132431Y0247924D01*
X0132431Y0248522D02*
X0020600Y0248522D01*
X0020600Y0249121D02*
X0132431Y0249121D01*
X0132431Y0249719D02*
X0020600Y0249719D01*
X0020600Y0250318D02*
X0024362Y0250318D01*
X0022917Y0250916D02*
X0020600Y0250916D01*
X0020600Y0251515D02*
X0022220Y0251515D01*
X0021622Y0252113D02*
X0020600Y0252113D01*
X0020600Y0252712D02*
X0021023Y0252712D01*
X0020753Y0253310D02*
X0020600Y0253310D01*
X0020600Y0258919D02*
X0020600Y0261961D01*
X0023586Y0261961D01*
X0022749Y0261614D01*
X0020986Y0259851D01*
X0020600Y0258919D01*
X0020600Y0259296D02*
X0020756Y0259296D01*
X0020600Y0259894D02*
X0021029Y0259894D01*
X0020600Y0260493D02*
X0021628Y0260493D01*
X0022226Y0261091D02*
X0020600Y0261091D01*
X0020600Y0261690D02*
X0022931Y0261690D01*
X0029669Y0261690D02*
X0317931Y0261690D01*
X0317226Y0261091D02*
X0030374Y0261091D01*
X0030972Y0260493D02*
X0316628Y0260493D01*
X0316029Y0259894D02*
X0031571Y0259894D01*
X0031844Y0259296D02*
X0315756Y0259296D01*
X0315508Y0258697D02*
X0283200Y0258697D01*
X0283798Y0258099D02*
X0315260Y0258099D01*
X0315031Y0257500D02*
X0284397Y0257500D01*
X0284995Y0256902D02*
X0315031Y0256902D01*
X0315031Y0256303D02*
X0285594Y0256303D01*
X0286193Y0255705D02*
X0315031Y0255705D01*
X0315031Y0255106D02*
X0286791Y0255106D01*
X0287390Y0254508D02*
X0315257Y0254508D01*
X0315505Y0253909D02*
X0287988Y0253909D01*
X0288587Y0253310D02*
X0315753Y0253310D01*
X0316023Y0252712D02*
X0289185Y0252712D01*
X0289784Y0252113D02*
X0316622Y0252113D01*
X0317220Y0251515D02*
X0290382Y0251515D01*
X0290981Y0250916D02*
X0317917Y0250916D01*
X0319362Y0250318D02*
X0291579Y0250318D01*
X0292178Y0249719D02*
X0330701Y0249719D01*
X0330701Y0249121D02*
X0292776Y0249121D01*
X0293375Y0248522D02*
X0330701Y0248522D01*
X0330701Y0247924D02*
X0293973Y0247924D01*
X0294572Y0247325D02*
X0330701Y0247325D01*
X0330701Y0246727D02*
X0295170Y0246727D01*
X0295769Y0246128D02*
X0330701Y0246128D01*
X0330701Y0245530D02*
X0296367Y0245530D01*
X0296966Y0244931D02*
X0330701Y0244931D01*
X0330701Y0244333D02*
X0297564Y0244333D01*
X0298163Y0243734D02*
X0330701Y0243734D01*
X0330701Y0243136D02*
X0298761Y0243136D01*
X0299360Y0242537D02*
X0330701Y0242537D01*
X0330701Y0241939D02*
X0299958Y0241939D01*
X0300557Y0241340D02*
X0330701Y0241340D01*
X0330701Y0240742D02*
X0301155Y0240742D01*
X0301754Y0240143D02*
X0330701Y0240143D01*
X0330701Y0239545D02*
X0302352Y0239545D01*
X0302951Y0238946D02*
X0330701Y0238946D01*
X0330701Y0238348D02*
X0303549Y0238348D01*
X0304148Y0237749D02*
X0330701Y0237749D01*
X0330701Y0237151D02*
X0304746Y0237151D01*
X0305345Y0236552D02*
X0330701Y0236552D01*
X0330701Y0235954D02*
X0305943Y0235954D01*
X0306542Y0235355D02*
X0330701Y0235355D01*
X0330701Y0234757D02*
X0307140Y0234757D01*
X0307739Y0234158D02*
X0330701Y0234158D01*
X0330701Y0233560D02*
X0308337Y0233560D01*
X0308936Y0232961D02*
X0330701Y0232961D01*
X0330701Y0232363D02*
X0309534Y0232363D01*
X0310133Y0231764D02*
X0330701Y0231764D01*
X0330701Y0231166D02*
X0310731Y0231166D01*
X0311330Y0230567D02*
X0330701Y0230567D01*
X0330701Y0229969D02*
X0311928Y0229969D01*
X0312100Y0229370D02*
X0330701Y0229370D01*
X0330701Y0228772D02*
X0312100Y0228772D01*
X0312100Y0228173D02*
X0330701Y0228173D01*
X0330701Y0227574D02*
X0312100Y0227574D01*
X0312100Y0226976D02*
X0330701Y0226976D01*
X0330701Y0226377D02*
X0312100Y0226377D01*
X0312100Y0225779D02*
X0330701Y0225779D01*
X0330701Y0225180D02*
X0312100Y0225180D01*
X0312100Y0224582D02*
X0330701Y0224582D01*
X0330701Y0223983D02*
X0312100Y0223983D01*
X0312100Y0223385D02*
X0330701Y0223385D01*
X0330701Y0222786D02*
X0312100Y0222786D01*
X0312100Y0222188D02*
X0330701Y0222188D01*
X0330701Y0221589D02*
X0312100Y0221589D01*
X0312100Y0220991D02*
X0330701Y0220991D01*
X0330701Y0220392D02*
X0312100Y0220392D01*
X0312100Y0219794D02*
X0330701Y0219794D01*
X0330701Y0219195D02*
X0312100Y0219195D01*
X0312100Y0218597D02*
X0330701Y0218597D01*
X0330701Y0217998D02*
X0312100Y0217998D01*
X0312100Y0217400D02*
X0330701Y0217400D01*
X0330701Y0216801D02*
X0312100Y0216801D01*
X0312100Y0216203D02*
X0330701Y0216203D01*
X0330701Y0215604D02*
X0312100Y0215604D01*
X0312100Y0215006D02*
X0330701Y0215006D01*
X0330701Y0214407D02*
X0312100Y0214407D01*
X0312100Y0213809D02*
X0330701Y0213809D01*
X0330701Y0213210D02*
X0312100Y0213210D01*
X0312100Y0212612D02*
X0330701Y0212612D01*
X0330701Y0212013D02*
X0312100Y0212013D01*
X0312100Y0211415D02*
X0330701Y0211415D01*
X0330701Y0210816D02*
X0312100Y0210816D01*
X0312100Y0210218D02*
X0330701Y0210218D01*
X0330701Y0209619D02*
X0312100Y0209619D01*
X0312100Y0209021D02*
X0330701Y0209021D01*
X0330701Y0208422D02*
X0312100Y0208422D01*
X0312100Y0207824D02*
X0330701Y0207824D01*
X0330701Y0207225D02*
X0312100Y0207225D01*
X0312100Y0206627D02*
X0330701Y0206627D01*
X0330701Y0206028D02*
X0312100Y0206028D01*
X0312100Y0205430D02*
X0330701Y0205430D01*
X0330701Y0204831D02*
X0312100Y0204831D01*
X0312100Y0204233D02*
X0330701Y0204233D01*
X0330701Y0203634D02*
X0312100Y0203634D01*
X0312100Y0203036D02*
X0330701Y0203036D01*
X0330701Y0202437D02*
X0312100Y0202437D01*
X0312100Y0201839D02*
X0330701Y0201839D01*
X0330701Y0201240D02*
X0312100Y0201240D01*
X0312100Y0200641D02*
X0330701Y0200641D01*
X0330701Y0200043D02*
X0312100Y0200043D01*
X0312100Y0199444D02*
X0330701Y0199444D01*
X0330701Y0198846D02*
X0312100Y0198846D01*
X0312100Y0198247D02*
X0330701Y0198247D01*
X0330701Y0197649D02*
X0312100Y0197649D01*
X0312100Y0197050D02*
X0330701Y0197050D01*
X0330701Y0196452D02*
X0312100Y0196452D01*
X0312100Y0195853D02*
X0330701Y0195853D01*
X0330701Y0195255D02*
X0312100Y0195255D01*
X0309700Y0195255D02*
X0304042Y0195255D01*
X0303444Y0195853D02*
X0309700Y0195853D01*
X0309700Y0196452D02*
X0302845Y0196452D01*
X0302247Y0197050D02*
X0309700Y0197050D01*
X0309700Y0197649D02*
X0301648Y0197649D01*
X0301050Y0198247D02*
X0309700Y0198247D01*
X0309700Y0198846D02*
X0300451Y0198846D01*
X0299853Y0199444D02*
X0309700Y0199444D01*
X0309700Y0200043D02*
X0299254Y0200043D01*
X0298656Y0200641D02*
X0309700Y0200641D01*
X0309700Y0201240D02*
X0298057Y0201240D01*
X0297459Y0201839D02*
X0309700Y0201839D01*
X0309700Y0202437D02*
X0296860Y0202437D01*
X0296262Y0203036D02*
X0309700Y0203036D01*
X0309700Y0203634D02*
X0295663Y0203634D01*
X0295064Y0204233D02*
X0309700Y0204233D01*
X0309700Y0204831D02*
X0294466Y0204831D01*
X0293867Y0205430D02*
X0309700Y0205430D01*
X0309700Y0206028D02*
X0293269Y0206028D01*
X0292670Y0206627D02*
X0309700Y0206627D01*
X0309700Y0207225D02*
X0292072Y0207225D01*
X0291473Y0207824D02*
X0309700Y0207824D01*
X0309700Y0208422D02*
X0290875Y0208422D01*
X0290276Y0209021D02*
X0309700Y0209021D01*
X0309700Y0209619D02*
X0289678Y0209619D01*
X0289079Y0210218D02*
X0309700Y0210218D01*
X0309700Y0210816D02*
X0288481Y0210816D01*
X0287882Y0211415D02*
X0309700Y0211415D01*
X0309700Y0212013D02*
X0287284Y0212013D01*
X0286685Y0212612D02*
X0309700Y0212612D01*
X0309700Y0213210D02*
X0286087Y0213210D01*
X0285488Y0213809D02*
X0309700Y0213809D01*
X0309700Y0214407D02*
X0284890Y0214407D01*
X0284291Y0215006D02*
X0309700Y0215006D01*
X0309700Y0215604D02*
X0283693Y0215604D01*
X0283094Y0216203D02*
X0309700Y0216203D01*
X0309700Y0216801D02*
X0282496Y0216801D01*
X0281897Y0217400D02*
X0309700Y0217400D01*
X0309700Y0217998D02*
X0281299Y0217998D01*
X0280700Y0218597D02*
X0309700Y0218597D01*
X0309700Y0219195D02*
X0280102Y0219195D01*
X0279503Y0219794D02*
X0309700Y0219794D01*
X0309700Y0220392D02*
X0278905Y0220392D01*
X0278306Y0220991D02*
X0309700Y0220991D01*
X0309700Y0221589D02*
X0277708Y0221589D01*
X0277109Y0222188D02*
X0309700Y0222188D01*
X0309700Y0222786D02*
X0276511Y0222786D01*
X0275912Y0223385D02*
X0309700Y0223385D01*
X0309700Y0223983D02*
X0275314Y0223983D01*
X0274715Y0224582D02*
X0309700Y0224582D01*
X0309700Y0225180D02*
X0274117Y0225180D01*
X0273518Y0225779D02*
X0309700Y0225779D01*
X0309700Y0226377D02*
X0272920Y0226377D01*
X0272321Y0226976D02*
X0309700Y0226976D01*
X0309700Y0227574D02*
X0271723Y0227574D01*
X0271124Y0228173D02*
X0309700Y0228173D01*
X0309700Y0228772D02*
X0270526Y0228772D01*
X0269927Y0229370D02*
X0309133Y0229370D01*
X0309700Y0228803D02*
X0309700Y0195168D01*
X0307562Y0195168D01*
X0306140Y0194580D01*
X0305429Y0193868D01*
X0304797Y0194500D01*
X0268197Y0231100D01*
X0282100Y0245003D01*
X0282100Y0245243D01*
X0283283Y0245733D01*
X0284267Y0246717D01*
X0284800Y0248004D01*
X0284800Y0253703D01*
X0309700Y0228803D01*
X0310900Y0229300D02*
X0310900Y0191500D01*
X0311300Y0191300D01*
X0315141Y0187474D02*
X0330701Y0187474D01*
X0330701Y0188073D02*
X0316512Y0188073D01*
X0317111Y0188671D02*
X0330701Y0188671D01*
X0330701Y0189270D02*
X0317615Y0189270D01*
X0317863Y0189868D02*
X0330701Y0189868D01*
X0330701Y0190467D02*
X0318111Y0190467D01*
X0318137Y0191065D02*
X0330701Y0191065D01*
X0330701Y0191664D02*
X0318137Y0191664D01*
X0318057Y0192262D02*
X0330701Y0192262D01*
X0330701Y0192861D02*
X0317809Y0192861D01*
X0317561Y0193459D02*
X0330701Y0193459D01*
X0330701Y0194058D02*
X0316982Y0194058D01*
X0316274Y0194656D02*
X0330701Y0194656D01*
X0308500Y0185500D02*
X0304300Y0189700D01*
X0304300Y0193300D01*
X0266500Y0231100D01*
X0280900Y0245500D01*
X0280900Y0250900D01*
X0281300Y0251300D01*
X0284800Y0251515D02*
X0286988Y0251515D01*
X0286389Y0252113D02*
X0284800Y0252113D01*
X0284800Y0252712D02*
X0285791Y0252712D01*
X0285192Y0253310D02*
X0284800Y0253310D01*
X0284800Y0250916D02*
X0287587Y0250916D01*
X0288185Y0250318D02*
X0284800Y0250318D01*
X0284800Y0249719D02*
X0288784Y0249719D01*
X0289382Y0249121D02*
X0284800Y0249121D01*
X0284800Y0248522D02*
X0289981Y0248522D01*
X0290579Y0247924D02*
X0284767Y0247924D01*
X0284519Y0247325D02*
X0291178Y0247325D01*
X0291776Y0246727D02*
X0284271Y0246727D01*
X0283678Y0246128D02*
X0292375Y0246128D01*
X0292973Y0245530D02*
X0282792Y0245530D01*
X0282028Y0244931D02*
X0293572Y0244931D01*
X0294170Y0244333D02*
X0281430Y0244333D01*
X0280831Y0243734D02*
X0294769Y0243734D01*
X0295367Y0243136D02*
X0280233Y0243136D01*
X0279634Y0242537D02*
X0295966Y0242537D01*
X0296564Y0241939D02*
X0279036Y0241939D01*
X0278437Y0241340D02*
X0297163Y0241340D01*
X0297761Y0240742D02*
X0277839Y0240742D01*
X0277240Y0240143D02*
X0298360Y0240143D01*
X0298958Y0239545D02*
X0276642Y0239545D01*
X0276043Y0238946D02*
X0299557Y0238946D01*
X0300155Y0238348D02*
X0275445Y0238348D01*
X0274846Y0237749D02*
X0300754Y0237749D01*
X0301352Y0237151D02*
X0274248Y0237151D01*
X0273649Y0236552D02*
X0301951Y0236552D01*
X0302549Y0235954D02*
X0273051Y0235954D01*
X0272452Y0235355D02*
X0303148Y0235355D01*
X0303746Y0234757D02*
X0271854Y0234757D01*
X0271255Y0234158D02*
X0304345Y0234158D01*
X0304943Y0233560D02*
X0270657Y0233560D01*
X0270058Y0232961D02*
X0305542Y0232961D01*
X0306140Y0232363D02*
X0269460Y0232363D01*
X0268861Y0231764D02*
X0306739Y0231764D01*
X0307337Y0231166D02*
X0268263Y0231166D01*
X0268730Y0230567D02*
X0307936Y0230567D01*
X0308534Y0229969D02*
X0269328Y0229969D01*
X0267730Y0228173D02*
X0263123Y0228173D01*
X0263721Y0228772D02*
X0267131Y0228772D01*
X0266533Y0229370D02*
X0264320Y0229370D01*
X0266500Y0231100D02*
X0261700Y0231100D01*
X0261300Y0231300D01*
X0258879Y0228772D02*
X0232300Y0228772D01*
X0232300Y0229370D02*
X0258280Y0229370D01*
X0257800Y0229969D02*
X0232300Y0229969D01*
X0232300Y0230567D02*
X0257800Y0230567D01*
X0257800Y0231166D02*
X0232300Y0231166D01*
X0232300Y0231764D02*
X0257800Y0231764D01*
X0257800Y0232363D02*
X0232300Y0232363D01*
X0232300Y0232961D02*
X0258011Y0232961D01*
X0258610Y0233560D02*
X0232300Y0233560D01*
X0232300Y0234158D02*
X0259208Y0234158D01*
X0259807Y0234757D02*
X0232300Y0234757D01*
X0232300Y0235355D02*
X0269058Y0235355D01*
X0268460Y0234757D02*
X0262793Y0234757D01*
X0263392Y0234158D02*
X0267861Y0234158D01*
X0267263Y0233560D02*
X0263990Y0233560D01*
X0264589Y0232961D02*
X0266664Y0232961D01*
X0266066Y0232363D02*
X0264800Y0232363D01*
X0268328Y0227574D02*
X0232300Y0227574D01*
X0232300Y0226976D02*
X0268927Y0226976D01*
X0269525Y0226377D02*
X0232300Y0226377D01*
X0232300Y0225779D02*
X0270124Y0225779D01*
X0270723Y0225180D02*
X0232300Y0225180D01*
X0232300Y0224582D02*
X0271321Y0224582D01*
X0271920Y0223983D02*
X0232300Y0223983D01*
X0232300Y0223385D02*
X0272518Y0223385D01*
X0273117Y0222786D02*
X0232300Y0222786D01*
X0232300Y0222188D02*
X0273715Y0222188D01*
X0274314Y0221589D02*
X0232300Y0221589D01*
X0232300Y0220991D02*
X0274912Y0220991D01*
X0275511Y0220392D02*
X0232300Y0220392D01*
X0232300Y0219794D02*
X0276109Y0219794D01*
X0276708Y0219195D02*
X0232300Y0219195D01*
X0232300Y0218597D02*
X0277306Y0218597D01*
X0277905Y0217998D02*
X0232300Y0217998D01*
X0232300Y0217400D02*
X0278503Y0217400D01*
X0279102Y0216801D02*
X0232300Y0216801D01*
X0232300Y0216203D02*
X0279700Y0216203D01*
X0280299Y0215604D02*
X0232300Y0215604D01*
X0232300Y0215006D02*
X0280897Y0215006D01*
X0279458Y0214407D02*
X0263142Y0214407D01*
X0262750Y0214800D02*
X0259850Y0214800D01*
X0257800Y0212750D01*
X0257800Y0209850D01*
X0259850Y0207800D01*
X0262750Y0207800D01*
X0264800Y0209850D01*
X0264800Y0212750D01*
X0262750Y0214800D01*
X0263741Y0213809D02*
X0278859Y0213809D01*
X0278260Y0213210D02*
X0264340Y0213210D01*
X0264800Y0212612D02*
X0277800Y0212612D01*
X0277800Y0212013D02*
X0264800Y0212013D01*
X0264800Y0211415D02*
X0277800Y0211415D01*
X0277800Y0210816D02*
X0264800Y0210816D01*
X0264800Y0210218D02*
X0277800Y0210218D01*
X0278031Y0209619D02*
X0264569Y0209619D01*
X0263970Y0209021D02*
X0278630Y0209021D01*
X0279228Y0208422D02*
X0263372Y0208422D01*
X0262773Y0207824D02*
X0279827Y0207824D01*
X0282773Y0207824D02*
X0288079Y0207824D01*
X0287481Y0208422D02*
X0283372Y0208422D01*
X0283970Y0209021D02*
X0286882Y0209021D01*
X0286284Y0209619D02*
X0284569Y0209619D01*
X0284800Y0210218D02*
X0285685Y0210218D01*
X0285087Y0210816D02*
X0284800Y0210816D01*
X0288678Y0207225D02*
X0232300Y0207225D01*
X0232300Y0206627D02*
X0289276Y0206627D01*
X0289875Y0206028D02*
X0232300Y0206028D01*
X0232300Y0205430D02*
X0290473Y0205430D01*
X0291072Y0204831D02*
X0232300Y0204831D01*
X0232300Y0204233D02*
X0291670Y0204233D01*
X0292269Y0203634D02*
X0232300Y0203634D01*
X0232543Y0203036D02*
X0292867Y0203036D01*
X0293466Y0202437D02*
X0233141Y0202437D01*
X0233489Y0201839D02*
X0294064Y0201839D01*
X0294663Y0201240D02*
X0233489Y0201240D01*
X0233489Y0200641D02*
X0295261Y0200641D01*
X0295860Y0200043D02*
X0233421Y0200043D01*
X0232854Y0199444D02*
X0239745Y0199444D01*
X0239317Y0199267D02*
X0240604Y0199800D01*
X0241996Y0199800D01*
X0243283Y0199267D01*
X0244267Y0198283D01*
X0244800Y0196996D01*
X0244800Y0195604D01*
X0244267Y0194317D01*
X0243283Y0193333D01*
X0241996Y0192800D01*
X0240604Y0192800D01*
X0239317Y0193333D01*
X0238333Y0194317D01*
X0237800Y0195604D01*
X0237800Y0196996D01*
X0238333Y0198283D01*
X0239317Y0199267D01*
X0238896Y0198846D02*
X0233704Y0198846D01*
X0234282Y0198247D02*
X0238318Y0198247D01*
X0238070Y0197649D02*
X0234530Y0197649D01*
X0234778Y0197050D02*
X0237822Y0197050D01*
X0237800Y0196452D02*
X0234800Y0196452D01*
X0234800Y0195853D02*
X0237800Y0195853D01*
X0237945Y0195255D02*
X0234655Y0195255D01*
X0234408Y0194656D02*
X0238192Y0194656D01*
X0238592Y0194058D02*
X0234008Y0194058D01*
X0233409Y0193459D02*
X0239191Y0193459D01*
X0240457Y0192861D02*
X0232143Y0192861D01*
X0230457Y0192861D02*
X0222143Y0192861D01*
X0221996Y0192800D02*
X0223283Y0193333D01*
X0224267Y0194317D01*
X0224800Y0195604D01*
X0224800Y0196996D01*
X0224267Y0198283D01*
X0223283Y0199267D01*
X0221996Y0199800D01*
X0220604Y0199800D01*
X0219317Y0199267D01*
X0218333Y0198283D01*
X0217800Y0196996D01*
X0217800Y0195604D01*
X0218333Y0194317D01*
X0219317Y0193333D01*
X0220604Y0192800D01*
X0221996Y0192800D01*
X0220457Y0192861D02*
X0201436Y0192861D01*
X0200838Y0193459D02*
X0219191Y0193459D01*
X0218592Y0194058D02*
X0200239Y0194058D01*
X0199641Y0194656D02*
X0218192Y0194656D01*
X0217945Y0195255D02*
X0199042Y0195255D01*
X0198444Y0195853D02*
X0217800Y0195853D01*
X0217800Y0196452D02*
X0197845Y0196452D01*
X0197247Y0197050D02*
X0217822Y0197050D01*
X0218070Y0197649D02*
X0196648Y0197649D01*
X0196050Y0198247D02*
X0218318Y0198247D01*
X0218896Y0198846D02*
X0195451Y0198846D01*
X0194853Y0199444D02*
X0219745Y0199444D01*
X0222855Y0199444D02*
X0229377Y0199444D01*
X0228896Y0198846D02*
X0223704Y0198846D01*
X0224282Y0198247D02*
X0228318Y0198247D01*
X0228070Y0197649D02*
X0224530Y0197649D01*
X0224778Y0197050D02*
X0227822Y0197050D01*
X0227800Y0196452D02*
X0224800Y0196452D01*
X0224800Y0195853D02*
X0227800Y0195853D01*
X0227945Y0195255D02*
X0224655Y0195255D01*
X0224408Y0194656D02*
X0228192Y0194656D01*
X0228592Y0194058D02*
X0224008Y0194058D01*
X0223409Y0193459D02*
X0229191Y0193459D01*
X0228778Y0200043D02*
X0194254Y0200043D01*
X0193656Y0200641D02*
X0228711Y0200641D01*
X0228711Y0201240D02*
X0193057Y0201240D01*
X0192459Y0201839D02*
X0228711Y0201839D01*
X0229059Y0202437D02*
X0191860Y0202437D01*
X0191262Y0203036D02*
X0229657Y0203036D01*
X0229900Y0203634D02*
X0190663Y0203634D01*
X0190064Y0204233D02*
X0229900Y0204233D01*
X0229900Y0204831D02*
X0189466Y0204831D01*
X0188867Y0205430D02*
X0229900Y0205430D01*
X0229900Y0206028D02*
X0188269Y0206028D01*
X0187670Y0206627D02*
X0229900Y0206627D01*
X0229900Y0207225D02*
X0187072Y0207225D01*
X0186473Y0207824D02*
X0209827Y0207824D01*
X0209228Y0208422D02*
X0185875Y0208422D01*
X0185276Y0209021D02*
X0208630Y0209021D01*
X0208031Y0209619D02*
X0184678Y0209619D01*
X0183079Y0207824D02*
X0177773Y0207824D01*
X0178372Y0208422D02*
X0182481Y0208422D01*
X0181882Y0209021D02*
X0178970Y0209021D01*
X0179569Y0209619D02*
X0181284Y0209619D01*
X0180685Y0210218D02*
X0179800Y0210218D01*
X0179800Y0210816D02*
X0180087Y0210816D01*
X0176300Y0211300D02*
X0175900Y0211300D01*
X0175900Y0181300D01*
X0172300Y0177700D01*
X0172300Y0175300D01*
X0181300Y0166300D01*
X0221300Y0166300D01*
X0219925Y0169519D02*
X0179778Y0169519D01*
X0179180Y0170117D02*
X0225586Y0170117D01*
X0226184Y0169519D02*
X0222675Y0169519D01*
X0223629Y0168920D02*
X0226783Y0168920D01*
X0227381Y0168322D02*
X0224228Y0168322D01*
X0224499Y0167723D02*
X0227980Y0167723D01*
X0227853Y0167125D02*
X0224747Y0167125D01*
X0224800Y0166526D02*
X0227800Y0166526D01*
X0227800Y0165928D02*
X0224800Y0165928D01*
X0224686Y0165329D02*
X0227914Y0165329D01*
X0228162Y0164731D02*
X0224438Y0164731D01*
X0224082Y0164132D02*
X0228518Y0164132D01*
X0229116Y0163534D02*
X0223484Y0163534D01*
X0222323Y0162935D02*
X0230277Y0162935D01*
X0232323Y0162935D02*
X0240277Y0162935D01*
X0240604Y0162800D02*
X0241996Y0162800D01*
X0243283Y0163333D01*
X0244267Y0164317D01*
X0244800Y0165604D01*
X0244800Y0166996D01*
X0244267Y0168283D01*
X0243283Y0169267D01*
X0241996Y0169800D01*
X0240604Y0169800D01*
X0239317Y0169267D01*
X0238333Y0168283D01*
X0237800Y0166996D01*
X0237800Y0165604D01*
X0238333Y0164317D01*
X0239317Y0163333D01*
X0240604Y0162800D01*
X0239116Y0163534D02*
X0233484Y0163534D01*
X0234082Y0164132D02*
X0238518Y0164132D01*
X0238162Y0164731D02*
X0234438Y0164731D01*
X0234686Y0165329D02*
X0237914Y0165329D01*
X0237800Y0165928D02*
X0234800Y0165928D01*
X0234800Y0166526D02*
X0237800Y0166526D01*
X0237853Y0167125D02*
X0234747Y0167125D01*
X0234499Y0167723D02*
X0238101Y0167723D01*
X0238372Y0168322D02*
X0234228Y0168322D01*
X0233629Y0168920D02*
X0238971Y0168920D01*
X0239925Y0169519D02*
X0232675Y0169519D01*
X0242675Y0169519D02*
X0249925Y0169519D01*
X0248971Y0168920D02*
X0243629Y0168920D01*
X0244228Y0168322D02*
X0248372Y0168322D01*
X0248101Y0167723D02*
X0244499Y0167723D01*
X0244747Y0167125D02*
X0247853Y0167125D01*
X0247800Y0166526D02*
X0244800Y0166526D01*
X0244800Y0165928D02*
X0247800Y0165928D01*
X0247914Y0165329D02*
X0244686Y0165329D01*
X0244438Y0164731D02*
X0248162Y0164731D01*
X0248518Y0164132D02*
X0244082Y0164132D01*
X0243484Y0163534D02*
X0249116Y0163534D01*
X0250277Y0162935D02*
X0242323Y0162935D01*
X0252323Y0162935D02*
X0277986Y0162935D01*
X0277800Y0162337D02*
X0124560Y0162337D01*
X0123962Y0162935D02*
X0220277Y0162935D01*
X0219116Y0163534D02*
X0123700Y0163534D01*
X0123700Y0164132D02*
X0218518Y0164132D01*
X0218162Y0164731D02*
X0123700Y0164731D01*
X0123700Y0165329D02*
X0180574Y0165329D01*
X0179975Y0165928D02*
X0123700Y0165928D01*
X0123700Y0166526D02*
X0179377Y0166526D01*
X0178778Y0167125D02*
X0123700Y0167125D01*
X0123700Y0167723D02*
X0178180Y0167723D01*
X0177581Y0168322D02*
X0123700Y0168322D01*
X0123700Y0168920D02*
X0176983Y0168920D01*
X0176384Y0169519D02*
X0123700Y0169519D01*
X0123700Y0170117D02*
X0175786Y0170117D01*
X0175187Y0170716D02*
X0123700Y0170716D01*
X0123700Y0171314D02*
X0174589Y0171314D01*
X0173990Y0171913D02*
X0123700Y0171913D01*
X0123700Y0172511D02*
X0173391Y0172511D01*
X0176786Y0172511D02*
X0223191Y0172511D01*
X0222593Y0173110D02*
X0178060Y0173110D01*
X0178658Y0173708D02*
X0221994Y0173708D01*
X0221396Y0174307D02*
X0179257Y0174307D01*
X0177384Y0171913D02*
X0223790Y0171913D01*
X0224389Y0171314D02*
X0177983Y0171314D01*
X0178581Y0170716D02*
X0224987Y0170716D01*
X0218971Y0168920D02*
X0180377Y0168920D01*
X0180975Y0168322D02*
X0218372Y0168322D01*
X0218101Y0167723D02*
X0181574Y0167723D01*
X0185697Y0159344D02*
X0278306Y0159344D01*
X0278905Y0158746D02*
X0186404Y0158746D01*
X0186923Y0158147D02*
X0279503Y0158147D01*
X0281500Y0160900D02*
X0281300Y0161300D01*
X0281500Y0160900D02*
X0310900Y0131500D01*
X0310900Y0111700D01*
X0311300Y0111300D01*
X0307889Y0112660D02*
X0264711Y0112660D01*
X0264959Y0112062D02*
X0307641Y0112062D01*
X0307628Y0111463D02*
X0264972Y0111463D01*
X0264972Y0110865D02*
X0307628Y0110865D01*
X0307754Y0110266D02*
X0264846Y0110266D01*
X0264598Y0109668D02*
X0308002Y0109668D01*
X0308338Y0109069D02*
X0264262Y0109069D01*
X0263663Y0108471D02*
X0308937Y0108471D01*
X0309981Y0107872D02*
X0262619Y0107872D01*
X0261300Y0111300D02*
X0261100Y0111700D01*
X0250900Y0111700D01*
X0216300Y0146300D01*
X0213867Y0143783D02*
X0193514Y0143783D01*
X0192916Y0144381D02*
X0213269Y0144381D01*
X0212800Y0144980D02*
X0192317Y0144980D01*
X0191719Y0145578D02*
X0212800Y0145578D01*
X0212800Y0146177D02*
X0191120Y0146177D01*
X0190522Y0146775D02*
X0212800Y0146775D01*
X0212800Y0147374D02*
X0189923Y0147374D01*
X0189325Y0147972D02*
X0213023Y0147972D01*
X0213621Y0148571D02*
X0188726Y0148571D01*
X0188128Y0149170D02*
X0214220Y0149170D01*
X0214818Y0149768D02*
X0187529Y0149768D01*
X0186930Y0150367D02*
X0290336Y0150367D01*
X0289738Y0150965D02*
X0186332Y0150965D01*
X0185733Y0151564D02*
X0289139Y0151564D01*
X0288541Y0152162D02*
X0185135Y0152162D01*
X0184536Y0152761D02*
X0287942Y0152761D01*
X0287344Y0153359D02*
X0185909Y0153359D01*
X0186507Y0153958D02*
X0286745Y0153958D01*
X0286147Y0154556D02*
X0186966Y0154556D01*
X0187214Y0155155D02*
X0285548Y0155155D01*
X0284950Y0155753D02*
X0187400Y0155753D01*
X0187400Y0156352D02*
X0284351Y0156352D01*
X0283753Y0156950D02*
X0187400Y0156950D01*
X0187171Y0157549D02*
X0283154Y0157549D01*
X0278584Y0163534D02*
X0253484Y0163534D01*
X0254082Y0164132D02*
X0279183Y0164132D01*
X0279781Y0164731D02*
X0254438Y0164731D01*
X0254499Y0167723D02*
X0306857Y0167723D01*
X0305839Y0168322D02*
X0254228Y0168322D01*
X0253629Y0168920D02*
X0305240Y0168920D01*
X0304882Y0169519D02*
X0252675Y0169519D01*
X0264850Y0149800D02*
X0262800Y0147750D01*
X0262800Y0144850D01*
X0264850Y0142800D01*
X0267750Y0142800D01*
X0269800Y0144850D01*
X0269800Y0147750D01*
X0267750Y0149800D01*
X0264850Y0149800D01*
X0264818Y0149768D02*
X0217782Y0149768D01*
X0218380Y0149170D02*
X0264220Y0149170D01*
X0263621Y0148571D02*
X0218979Y0148571D01*
X0219577Y0147972D02*
X0263023Y0147972D01*
X0262800Y0147374D02*
X0219800Y0147374D01*
X0219800Y0146775D02*
X0262800Y0146775D01*
X0262800Y0146177D02*
X0219800Y0146177D01*
X0219800Y0145578D02*
X0262800Y0145578D01*
X0262800Y0144980D02*
X0219800Y0144980D01*
X0219916Y0144381D02*
X0263269Y0144381D01*
X0263867Y0143783D02*
X0220514Y0143783D01*
X0221113Y0143184D02*
X0264466Y0143184D01*
X0268134Y0143184D02*
X0297519Y0143184D01*
X0298117Y0142586D02*
X0221711Y0142586D01*
X0222310Y0141987D02*
X0298716Y0141987D01*
X0299314Y0141389D02*
X0222908Y0141389D01*
X0223507Y0140790D02*
X0299913Y0140790D01*
X0300511Y0140192D02*
X0224105Y0140192D01*
X0224704Y0139593D02*
X0301110Y0139593D01*
X0301708Y0138995D02*
X0225302Y0138995D01*
X0225901Y0138396D02*
X0302307Y0138396D01*
X0302905Y0137798D02*
X0226499Y0137798D01*
X0227098Y0137199D02*
X0303504Y0137199D01*
X0304102Y0136601D02*
X0227696Y0136601D01*
X0228295Y0136002D02*
X0304701Y0136002D01*
X0305299Y0135404D02*
X0228893Y0135404D01*
X0229492Y0134805D02*
X0305898Y0134805D01*
X0306496Y0134207D02*
X0230090Y0134207D01*
X0230689Y0133608D02*
X0307095Y0133608D01*
X0307693Y0133010D02*
X0231287Y0133010D01*
X0231886Y0132411D02*
X0308292Y0132411D01*
X0308890Y0131813D02*
X0232484Y0131813D01*
X0233083Y0131214D02*
X0309489Y0131214D01*
X0309700Y0130616D02*
X0233681Y0130616D01*
X0234280Y0130017D02*
X0309700Y0130017D01*
X0309700Y0129419D02*
X0234878Y0129419D01*
X0235477Y0128820D02*
X0309700Y0128820D01*
X0309700Y0128222D02*
X0236075Y0128222D01*
X0236674Y0127623D02*
X0309700Y0127623D01*
X0309700Y0127025D02*
X0237272Y0127025D01*
X0237871Y0126426D02*
X0309700Y0126426D01*
X0309700Y0125828D02*
X0238469Y0125828D01*
X0239068Y0125229D02*
X0309700Y0125229D01*
X0309700Y0124631D02*
X0239666Y0124631D01*
X0240265Y0124032D02*
X0309700Y0124032D01*
X0309700Y0123434D02*
X0240864Y0123434D01*
X0241462Y0122835D02*
X0309700Y0122835D01*
X0309700Y0122237D02*
X0242061Y0122237D01*
X0242659Y0121638D02*
X0309700Y0121638D01*
X0309700Y0121039D02*
X0243258Y0121039D01*
X0243856Y0120441D02*
X0309700Y0120441D01*
X0309700Y0119842D02*
X0244455Y0119842D01*
X0245053Y0119244D02*
X0309700Y0119244D01*
X0309700Y0118645D02*
X0245652Y0118645D01*
X0246250Y0118047D02*
X0309700Y0118047D01*
X0309700Y0117448D02*
X0246849Y0117448D01*
X0247447Y0116850D02*
X0309700Y0116850D01*
X0309700Y0116251D02*
X0248046Y0116251D01*
X0248644Y0115653D02*
X0309700Y0115653D01*
X0309700Y0115054D02*
X0249243Y0115054D01*
X0249841Y0114456D02*
X0259324Y0114456D01*
X0258665Y0113857D02*
X0250440Y0113857D01*
X0251038Y0113259D02*
X0258137Y0113259D01*
X0263276Y0114456D02*
X0309324Y0114456D01*
X0308665Y0113857D02*
X0263935Y0113857D01*
X0264463Y0113259D02*
X0308137Y0113259D01*
X0296920Y0143783D02*
X0268733Y0143783D01*
X0269331Y0144381D02*
X0296322Y0144381D01*
X0295723Y0144980D02*
X0269800Y0144980D01*
X0269800Y0145578D02*
X0295124Y0145578D01*
X0294526Y0146177D02*
X0269800Y0146177D01*
X0269800Y0146775D02*
X0293927Y0146775D01*
X0293329Y0147374D02*
X0269800Y0147374D01*
X0269577Y0147972D02*
X0292730Y0147972D01*
X0292132Y0148571D02*
X0268979Y0148571D01*
X0268380Y0149170D02*
X0291533Y0149170D01*
X0290935Y0149768D02*
X0267782Y0149768D01*
X0236871Y0124032D02*
X0218982Y0124032D01*
X0219580Y0124631D02*
X0236272Y0124631D01*
X0235674Y0125229D02*
X0219800Y0125229D01*
X0219800Y0125828D02*
X0235075Y0125828D01*
X0234477Y0126426D02*
X0219800Y0126426D01*
X0219800Y0127025D02*
X0233878Y0127025D01*
X0233280Y0127623D02*
X0219800Y0127623D01*
X0219328Y0128222D02*
X0232681Y0128222D01*
X0232083Y0128820D02*
X0218730Y0128820D01*
X0218131Y0129419D02*
X0231484Y0129419D01*
X0230886Y0130017D02*
X0207280Y0130017D01*
X0207878Y0129419D02*
X0214469Y0129419D01*
X0213870Y0128820D02*
X0208477Y0128820D01*
X0209075Y0128222D02*
X0213272Y0128222D01*
X0216100Y0126700D02*
X0216300Y0126300D01*
X0216100Y0126700D02*
X0208900Y0126700D01*
X0183100Y0152500D01*
X0154900Y0152500D01*
X0151300Y0156100D01*
X0151300Y0156300D01*
X0152942Y0152761D02*
X0129100Y0152761D01*
X0129100Y0152162D02*
X0153541Y0152162D01*
X0154139Y0151564D02*
X0129100Y0151564D01*
X0129100Y0150965D02*
X0182938Y0150965D01*
X0183536Y0150367D02*
X0129100Y0150367D01*
X0126700Y0150367D02*
X0085900Y0150367D01*
X0085900Y0150965D02*
X0126700Y0150965D01*
X0126700Y0151564D02*
X0085900Y0151564D01*
X0085900Y0152162D02*
X0126700Y0152162D01*
X0126700Y0152761D02*
X0085900Y0152761D01*
X0085900Y0153359D02*
X0086691Y0153359D01*
X0086093Y0153958D02*
X0085900Y0153958D01*
X0085900Y0149768D02*
X0087927Y0149768D01*
X0086620Y0149170D02*
X0085900Y0149170D01*
X0085900Y0148571D02*
X0086021Y0148571D01*
X0089111Y0142586D02*
X0126700Y0142586D01*
X0126700Y0143184D02*
X0125524Y0143184D01*
X0126333Y0143783D02*
X0126700Y0143783D01*
X0126700Y0141987D02*
X0089710Y0141987D01*
X0090308Y0141389D02*
X0126700Y0141389D01*
X0126700Y0140790D02*
X0096307Y0140790D01*
X0096905Y0140192D02*
X0126700Y0140192D01*
X0126700Y0139593D02*
X0125095Y0139593D01*
X0126155Y0138995D02*
X0126700Y0138995D01*
X0129100Y0140192D02*
X0193711Y0140192D01*
X0193113Y0140790D02*
X0129100Y0140790D01*
X0129100Y0141389D02*
X0192514Y0141389D01*
X0191916Y0141987D02*
X0129100Y0141987D01*
X0129100Y0142586D02*
X0191317Y0142586D01*
X0190719Y0143184D02*
X0185524Y0143184D01*
X0186333Y0143783D02*
X0190120Y0143783D01*
X0189522Y0144381D02*
X0186894Y0144381D01*
X0187142Y0144980D02*
X0188923Y0144980D01*
X0188324Y0145578D02*
X0187389Y0145578D01*
X0187400Y0146177D02*
X0187726Y0146177D01*
X0194113Y0143184D02*
X0214466Y0143184D01*
X0218317Y0142586D02*
X0194711Y0142586D01*
X0195310Y0141987D02*
X0218916Y0141987D01*
X0219514Y0141389D02*
X0195908Y0141389D01*
X0196507Y0140790D02*
X0220113Y0140790D01*
X0220711Y0140192D02*
X0197105Y0140192D01*
X0197704Y0139593D02*
X0221310Y0139593D01*
X0221908Y0138995D02*
X0198302Y0138995D01*
X0198901Y0138396D02*
X0222507Y0138396D01*
X0223105Y0137798D02*
X0199499Y0137798D01*
X0200098Y0137199D02*
X0223704Y0137199D01*
X0224302Y0136601D02*
X0200696Y0136601D01*
X0201295Y0136002D02*
X0224901Y0136002D01*
X0225499Y0135404D02*
X0201893Y0135404D01*
X0202492Y0134805D02*
X0226098Y0134805D01*
X0226696Y0134207D02*
X0203090Y0134207D01*
X0203689Y0133608D02*
X0227295Y0133608D01*
X0227893Y0133010D02*
X0204287Y0133010D01*
X0204886Y0132411D02*
X0228492Y0132411D01*
X0229090Y0131813D02*
X0205484Y0131813D01*
X0206083Y0131214D02*
X0229689Y0131214D01*
X0230287Y0130616D02*
X0206681Y0130616D01*
X0203287Y0130616D02*
X0129100Y0130616D01*
X0129100Y0131214D02*
X0202689Y0131214D01*
X0202090Y0131813D02*
X0129100Y0131813D01*
X0129100Y0132411D02*
X0201492Y0132411D01*
X0200893Y0133010D02*
X0185102Y0133010D01*
X0184596Y0132800D02*
X0185883Y0133333D01*
X0186867Y0134317D01*
X0187400Y0135604D01*
X0187400Y0136996D01*
X0186867Y0138283D01*
X0185883Y0139267D01*
X0184596Y0139800D01*
X0178004Y0139800D01*
X0176717Y0139267D01*
X0175733Y0138283D01*
X0175200Y0136996D01*
X0175200Y0135604D01*
X0175733Y0134317D01*
X0176717Y0133333D01*
X0178004Y0132800D01*
X0184596Y0132800D01*
X0186158Y0133608D02*
X0200295Y0133608D01*
X0199696Y0134207D02*
X0186756Y0134207D01*
X0187069Y0134805D02*
X0199098Y0134805D01*
X0198499Y0135404D02*
X0187317Y0135404D01*
X0187400Y0136002D02*
X0197901Y0136002D01*
X0197302Y0136601D02*
X0187400Y0136601D01*
X0187316Y0137199D02*
X0196704Y0137199D01*
X0196105Y0137798D02*
X0187068Y0137798D01*
X0186753Y0138396D02*
X0195507Y0138396D01*
X0194908Y0138995D02*
X0186155Y0138995D01*
X0185095Y0139593D02*
X0194310Y0139593D01*
X0177505Y0139593D02*
X0155095Y0139593D01*
X0156155Y0138995D02*
X0176445Y0138995D01*
X0175847Y0138396D02*
X0156753Y0138396D01*
X0157068Y0137798D02*
X0175532Y0137798D01*
X0175284Y0137199D02*
X0157316Y0137199D01*
X0157400Y0136601D02*
X0175200Y0136601D01*
X0175200Y0136002D02*
X0157400Y0136002D01*
X0157317Y0135404D02*
X0175283Y0135404D01*
X0175531Y0134805D02*
X0157069Y0134805D01*
X0156756Y0134207D02*
X0175844Y0134207D01*
X0176442Y0133608D02*
X0156158Y0133608D01*
X0155102Y0133010D02*
X0177498Y0133010D01*
X0177076Y0143184D02*
X0155524Y0143184D01*
X0156333Y0143783D02*
X0176267Y0143783D01*
X0175706Y0144381D02*
X0156894Y0144381D01*
X0157142Y0144980D02*
X0175458Y0144980D01*
X0175210Y0145578D02*
X0157389Y0145578D01*
X0157400Y0146177D02*
X0175200Y0146177D01*
X0175200Y0146775D02*
X0157400Y0146775D01*
X0157244Y0147374D02*
X0175356Y0147374D01*
X0175604Y0147972D02*
X0156996Y0147972D01*
X0156579Y0148571D02*
X0176021Y0148571D01*
X0176620Y0149170D02*
X0155980Y0149170D01*
X0154673Y0149768D02*
X0177927Y0149768D01*
X0176093Y0153958D02*
X0156507Y0153958D01*
X0156966Y0154556D02*
X0175634Y0154556D01*
X0175386Y0155155D02*
X0157214Y0155155D01*
X0157400Y0155753D02*
X0175200Y0155753D01*
X0175200Y0156352D02*
X0157400Y0156352D01*
X0157400Y0156950D02*
X0175200Y0156950D01*
X0175429Y0157549D02*
X0157171Y0157549D01*
X0156923Y0158147D02*
X0175677Y0158147D01*
X0176196Y0158746D02*
X0156404Y0158746D01*
X0155697Y0159344D02*
X0176903Y0159344D01*
X0176500Y0175900D02*
X0176300Y0176300D01*
X0176500Y0175900D02*
X0221500Y0175900D01*
X0211611Y0182686D02*
X0304718Y0182686D01*
X0304966Y0183285D02*
X0211012Y0183285D01*
X0210414Y0183883D02*
X0305444Y0183883D01*
X0306042Y0184482D02*
X0209815Y0184482D01*
X0209217Y0185080D02*
X0307223Y0185080D01*
X0306624Y0185679D02*
X0208618Y0185679D01*
X0208020Y0186277D02*
X0306026Y0186277D01*
X0305427Y0186876D02*
X0207421Y0186876D01*
X0206823Y0187474D02*
X0304829Y0187474D01*
X0304230Y0188073D02*
X0206224Y0188073D01*
X0205626Y0188671D02*
X0303632Y0188671D01*
X0303100Y0189270D02*
X0205027Y0189270D01*
X0204429Y0189868D02*
X0303100Y0189868D01*
X0303100Y0190467D02*
X0203830Y0190467D01*
X0203232Y0191065D02*
X0303100Y0191065D01*
X0303100Y0191664D02*
X0202633Y0191664D01*
X0202035Y0192262D02*
X0303100Y0192262D01*
X0303042Y0192861D02*
X0252143Y0192861D01*
X0251996Y0192800D02*
X0253283Y0193333D01*
X0254267Y0194317D01*
X0254800Y0195604D01*
X0254800Y0196996D01*
X0254267Y0198283D01*
X0253283Y0199267D01*
X0251996Y0199800D01*
X0250604Y0199800D01*
X0249317Y0199267D01*
X0248333Y0198283D01*
X0247800Y0196996D01*
X0247800Y0195604D01*
X0248333Y0194317D01*
X0249317Y0193333D01*
X0250604Y0192800D01*
X0251996Y0192800D01*
X0250457Y0192861D02*
X0242143Y0192861D01*
X0243409Y0193459D02*
X0249191Y0193459D01*
X0248592Y0194058D02*
X0244008Y0194058D01*
X0244408Y0194656D02*
X0248192Y0194656D01*
X0247945Y0195255D02*
X0244655Y0195255D01*
X0244800Y0195853D02*
X0247800Y0195853D01*
X0247800Y0196452D02*
X0244800Y0196452D01*
X0244778Y0197050D02*
X0247822Y0197050D01*
X0248070Y0197649D02*
X0244530Y0197649D01*
X0244282Y0198247D02*
X0248318Y0198247D01*
X0248896Y0198846D02*
X0243704Y0198846D01*
X0242855Y0199444D02*
X0249745Y0199444D01*
X0252855Y0199444D02*
X0296458Y0199444D01*
X0297057Y0198846D02*
X0253704Y0198846D01*
X0254282Y0198247D02*
X0297655Y0198247D01*
X0298254Y0197649D02*
X0254530Y0197649D01*
X0254778Y0197050D02*
X0298853Y0197050D01*
X0299451Y0196452D02*
X0254800Y0196452D01*
X0254800Y0195853D02*
X0300050Y0195853D01*
X0300648Y0195255D02*
X0254655Y0195255D01*
X0254408Y0194656D02*
X0301247Y0194656D01*
X0301845Y0194058D02*
X0254008Y0194058D01*
X0253409Y0193459D02*
X0302444Y0193459D01*
X0304641Y0194656D02*
X0306326Y0194656D01*
X0305618Y0194058D02*
X0305239Y0194058D01*
X0304810Y0179694D02*
X0177856Y0179694D01*
X0178455Y0179095D02*
X0305066Y0179095D01*
X0305664Y0178497D02*
X0179053Y0178497D01*
X0176589Y0180292D02*
X0210611Y0180292D01*
X0210012Y0180891D02*
X0177100Y0180891D01*
X0177100Y0181489D02*
X0209414Y0181489D01*
X0208815Y0182088D02*
X0177100Y0182088D01*
X0177100Y0182686D02*
X0208217Y0182686D01*
X0207618Y0183285D02*
X0177100Y0183285D01*
X0177100Y0183883D02*
X0207020Y0183883D01*
X0206421Y0184482D02*
X0177100Y0184482D01*
X0177100Y0185080D02*
X0205823Y0185080D01*
X0205224Y0185679D02*
X0177100Y0185679D01*
X0177100Y0186277D02*
X0204626Y0186277D01*
X0204027Y0186876D02*
X0177100Y0186876D01*
X0177100Y0187474D02*
X0203429Y0187474D01*
X0202830Y0188073D02*
X0177100Y0188073D01*
X0177100Y0188671D02*
X0202232Y0188671D01*
X0201633Y0189270D02*
X0177100Y0189270D01*
X0177100Y0189868D02*
X0201035Y0189868D01*
X0200436Y0190467D02*
X0177100Y0190467D01*
X0177100Y0191065D02*
X0199838Y0191065D01*
X0199239Y0191664D02*
X0177100Y0191664D01*
X0177100Y0192262D02*
X0198641Y0192262D01*
X0198042Y0192861D02*
X0177100Y0192861D01*
X0177100Y0193459D02*
X0197444Y0193459D01*
X0196845Y0194058D02*
X0177100Y0194058D01*
X0177100Y0194656D02*
X0196247Y0194656D01*
X0195648Y0195255D02*
X0177100Y0195255D01*
X0177100Y0195853D02*
X0195050Y0195853D01*
X0194451Y0196452D02*
X0177100Y0196452D01*
X0177100Y0197050D02*
X0193853Y0197050D01*
X0193254Y0197649D02*
X0177100Y0197649D01*
X0177100Y0198247D02*
X0192655Y0198247D01*
X0192057Y0198846D02*
X0177100Y0198846D01*
X0177100Y0199444D02*
X0191458Y0199444D01*
X0190860Y0200043D02*
X0177100Y0200043D01*
X0177100Y0200641D02*
X0190261Y0200641D01*
X0189663Y0201240D02*
X0177100Y0201240D01*
X0177100Y0201839D02*
X0189064Y0201839D01*
X0188466Y0202437D02*
X0177100Y0202437D01*
X0177100Y0203036D02*
X0187867Y0203036D01*
X0187269Y0203634D02*
X0177100Y0203634D01*
X0177100Y0204233D02*
X0186670Y0204233D01*
X0186072Y0204831D02*
X0177100Y0204831D01*
X0177100Y0205430D02*
X0185473Y0205430D01*
X0184875Y0206028D02*
X0177100Y0206028D01*
X0177100Y0206627D02*
X0184276Y0206627D01*
X0183678Y0207225D02*
X0177100Y0207225D01*
X0191906Y0220991D02*
X0219294Y0220991D01*
X0219700Y0221589D02*
X0191308Y0221589D01*
X0190709Y0222188D02*
X0219700Y0222188D01*
X0219700Y0222786D02*
X0190111Y0222786D01*
X0189512Y0223385D02*
X0219700Y0223385D01*
X0219700Y0223983D02*
X0188914Y0223983D01*
X0188315Y0224582D02*
X0219700Y0224582D01*
X0219700Y0225180D02*
X0187717Y0225180D01*
X0187118Y0225779D02*
X0219700Y0225779D01*
X0219700Y0226377D02*
X0186520Y0226377D01*
X0185921Y0226976D02*
X0219700Y0226976D01*
X0219700Y0227574D02*
X0185323Y0227574D01*
X0184724Y0228173D02*
X0209477Y0228173D01*
X0209850Y0227800D02*
X0212750Y0227800D01*
X0214800Y0229850D01*
X0214800Y0232750D01*
X0212750Y0234800D01*
X0209850Y0234800D01*
X0207800Y0232750D01*
X0207800Y0229850D01*
X0209850Y0227800D01*
X0208879Y0228772D02*
X0184126Y0228772D01*
X0183527Y0229370D02*
X0208280Y0229370D01*
X0207800Y0229969D02*
X0182928Y0229969D01*
X0182330Y0230567D02*
X0207800Y0230567D01*
X0207800Y0231166D02*
X0181731Y0231166D01*
X0181133Y0231764D02*
X0207800Y0231764D01*
X0207800Y0232363D02*
X0180534Y0232363D01*
X0179936Y0232961D02*
X0208011Y0232961D01*
X0208610Y0233560D02*
X0179337Y0233560D01*
X0178739Y0234158D02*
X0209208Y0234158D01*
X0209807Y0234757D02*
X0178140Y0234757D01*
X0177542Y0235355D02*
X0219700Y0235355D01*
X0219700Y0234757D02*
X0212793Y0234757D01*
X0213392Y0234158D02*
X0219700Y0234158D01*
X0219700Y0233560D02*
X0213990Y0233560D01*
X0214589Y0232961D02*
X0219700Y0232961D01*
X0219700Y0232363D02*
X0214800Y0232363D01*
X0214800Y0231764D02*
X0219700Y0231764D01*
X0219700Y0231166D02*
X0214800Y0231166D01*
X0214800Y0230567D02*
X0219700Y0230567D01*
X0219700Y0229969D02*
X0214800Y0229969D01*
X0214320Y0229370D02*
X0219700Y0229370D01*
X0219700Y0228772D02*
X0213721Y0228772D01*
X0213123Y0228173D02*
X0219700Y0228173D01*
X0222100Y0228173D02*
X0229900Y0228173D01*
X0229900Y0227574D02*
X0222100Y0227574D01*
X0222100Y0226976D02*
X0229900Y0226976D01*
X0229900Y0226377D02*
X0222100Y0226377D01*
X0222100Y0225779D02*
X0229900Y0225779D01*
X0229900Y0225180D02*
X0222100Y0225180D01*
X0222100Y0224582D02*
X0229900Y0224582D01*
X0229900Y0223983D02*
X0222100Y0223983D01*
X0222100Y0223385D02*
X0229900Y0223385D01*
X0229900Y0222786D02*
X0222100Y0222786D01*
X0222100Y0222188D02*
X0229900Y0222188D01*
X0229900Y0221589D02*
X0222100Y0221589D01*
X0222100Y0220991D02*
X0229900Y0220991D01*
X0229900Y0220392D02*
X0222089Y0220392D01*
X0221491Y0219794D02*
X0229900Y0219794D01*
X0229900Y0219195D02*
X0220892Y0219195D01*
X0220294Y0218597D02*
X0229900Y0218597D01*
X0229900Y0217998D02*
X0219695Y0217998D01*
X0219097Y0217400D02*
X0229900Y0217400D01*
X0229900Y0216801D02*
X0218498Y0216801D01*
X0217900Y0216203D02*
X0229900Y0216203D01*
X0229900Y0215604D02*
X0217301Y0215604D01*
X0216703Y0215006D02*
X0229900Y0215006D01*
X0229900Y0214407D02*
X0216104Y0214407D01*
X0215506Y0213809D02*
X0229900Y0213809D01*
X0229900Y0213210D02*
X0214907Y0213210D01*
X0214800Y0212612D02*
X0229900Y0212612D01*
X0229900Y0212013D02*
X0214800Y0212013D01*
X0214800Y0211415D02*
X0229900Y0211415D01*
X0229900Y0210816D02*
X0214800Y0210816D01*
X0214800Y0210218D02*
X0229900Y0210218D01*
X0229900Y0209619D02*
X0214569Y0209619D01*
X0213970Y0209021D02*
X0229900Y0209021D01*
X0229900Y0208422D02*
X0213372Y0208422D01*
X0212773Y0207824D02*
X0229900Y0207824D01*
X0232300Y0207824D02*
X0259827Y0207824D01*
X0259228Y0208422D02*
X0232300Y0208422D01*
X0232300Y0209021D02*
X0258630Y0209021D01*
X0258031Y0209619D02*
X0232300Y0209619D01*
X0232300Y0210218D02*
X0257800Y0210218D01*
X0257800Y0210816D02*
X0232300Y0210816D01*
X0232300Y0211415D02*
X0257800Y0211415D01*
X0257800Y0212013D02*
X0232300Y0212013D01*
X0232300Y0212612D02*
X0257800Y0212612D01*
X0258260Y0213210D02*
X0232300Y0213210D01*
X0232300Y0213809D02*
X0258859Y0213809D01*
X0259458Y0214407D02*
X0232300Y0214407D01*
X0220900Y0220900D02*
X0211300Y0211300D01*
X0199900Y0211300D01*
X0200285Y0212612D02*
X0207800Y0212612D01*
X0208260Y0213210D02*
X0199687Y0213210D01*
X0199088Y0213809D02*
X0208859Y0213809D01*
X0209458Y0214407D02*
X0198490Y0214407D01*
X0197891Y0215006D02*
X0213309Y0215006D01*
X0213907Y0215604D02*
X0197293Y0215604D01*
X0196694Y0216203D02*
X0214506Y0216203D01*
X0215104Y0216801D02*
X0196096Y0216801D01*
X0195497Y0217400D02*
X0215703Y0217400D01*
X0216301Y0217998D02*
X0194899Y0217998D01*
X0194300Y0218597D02*
X0216900Y0218597D01*
X0217498Y0219195D02*
X0193702Y0219195D01*
X0193103Y0219794D02*
X0218097Y0219794D01*
X0218695Y0220392D02*
X0192505Y0220392D01*
X0176943Y0235954D02*
X0219700Y0235954D01*
X0219700Y0236552D02*
X0176345Y0236552D01*
X0175746Y0237151D02*
X0219700Y0237151D01*
X0219700Y0237749D02*
X0175148Y0237749D01*
X0174549Y0238348D02*
X0219700Y0238348D01*
X0219700Y0238946D02*
X0173951Y0238946D01*
X0173352Y0239545D02*
X0219700Y0239545D01*
X0219700Y0240143D02*
X0172754Y0240143D01*
X0172155Y0240742D02*
X0219700Y0240742D01*
X0219700Y0241340D02*
X0171557Y0241340D01*
X0170958Y0241939D02*
X0219700Y0241939D01*
X0219700Y0242537D02*
X0170360Y0242537D01*
X0169761Y0243136D02*
X0219700Y0243136D01*
X0219700Y0243734D02*
X0169163Y0243734D01*
X0168564Y0244333D02*
X0219700Y0244333D01*
X0219700Y0244931D02*
X0167966Y0244931D01*
X0167367Y0245530D02*
X0199807Y0245530D01*
X0198922Y0246128D02*
X0166769Y0246128D01*
X0166170Y0246727D02*
X0198329Y0246727D01*
X0198081Y0247325D02*
X0165572Y0247325D01*
X0164973Y0247924D02*
X0197833Y0247924D01*
X0197800Y0248522D02*
X0164375Y0248522D01*
X0163776Y0249121D02*
X0197800Y0249121D01*
X0197800Y0249719D02*
X0163178Y0249719D01*
X0162579Y0250318D02*
X0197800Y0250318D01*
X0197800Y0250916D02*
X0161981Y0250916D01*
X0161382Y0251515D02*
X0197800Y0251515D01*
X0197800Y0252113D02*
X0160784Y0252113D01*
X0160185Y0252712D02*
X0197800Y0252712D01*
X0197800Y0253310D02*
X0159587Y0253310D01*
X0158988Y0253909D02*
X0197800Y0253909D01*
X0197800Y0254508D02*
X0032342Y0254508D01*
X0032568Y0255106D02*
X0198011Y0255106D01*
X0198259Y0255705D02*
X0032568Y0255705D01*
X0032568Y0256303D02*
X0198753Y0256303D01*
X0199400Y0256902D02*
X0032568Y0256902D01*
X0032568Y0257500D02*
X0207803Y0257500D01*
X0207205Y0256902D02*
X0203200Y0256902D01*
X0203847Y0256303D02*
X0206606Y0256303D01*
X0206007Y0255705D02*
X0204341Y0255705D01*
X0204589Y0255106D02*
X0205409Y0255106D01*
X0204810Y0254508D02*
X0204800Y0254508D01*
X0206409Y0252712D02*
X0207800Y0252712D01*
X0207800Y0253310D02*
X0207008Y0253310D01*
X0207606Y0253909D02*
X0207800Y0253909D01*
X0207800Y0252113D02*
X0205810Y0252113D01*
X0205212Y0251515D02*
X0207800Y0251515D01*
X0207800Y0250916D02*
X0204800Y0250916D01*
X0204800Y0250318D02*
X0207800Y0250318D01*
X0207800Y0249719D02*
X0204800Y0249719D01*
X0204800Y0249121D02*
X0207800Y0249121D01*
X0207800Y0248522D02*
X0204800Y0248522D01*
X0204767Y0247924D02*
X0207833Y0247924D01*
X0208081Y0247325D02*
X0204519Y0247325D01*
X0204271Y0246727D02*
X0208329Y0246727D01*
X0208922Y0246128D02*
X0203678Y0246128D01*
X0202792Y0245530D02*
X0209807Y0245530D01*
X0212792Y0245530D02*
X0219700Y0245530D01*
X0218922Y0246128D02*
X0213678Y0246128D01*
X0214271Y0246727D02*
X0218329Y0246727D01*
X0218081Y0247325D02*
X0214519Y0247325D01*
X0214767Y0247924D02*
X0217833Y0247924D01*
X0217800Y0248522D02*
X0214800Y0248522D01*
X0214800Y0249121D02*
X0217800Y0249121D01*
X0217800Y0249719D02*
X0214800Y0249719D01*
X0214800Y0250318D02*
X0217800Y0250318D01*
X0217800Y0250916D02*
X0214800Y0250916D01*
X0214800Y0251515D02*
X0217800Y0251515D01*
X0217800Y0252113D02*
X0214800Y0252113D01*
X0214800Y0252712D02*
X0217800Y0252712D01*
X0217800Y0253310D02*
X0214800Y0253310D01*
X0214800Y0253909D02*
X0217800Y0253909D01*
X0217800Y0254508D02*
X0214800Y0254508D01*
X0214589Y0255106D02*
X0218011Y0255106D01*
X0218259Y0255705D02*
X0214341Y0255705D01*
X0209500Y0257500D02*
X0282700Y0257500D01*
X0310900Y0229300D01*
X0323238Y0250318D02*
X0330701Y0250318D01*
X0330701Y0250916D02*
X0324683Y0250916D01*
X0325380Y0251515D02*
X0330701Y0251515D01*
X0330701Y0252113D02*
X0325978Y0252113D01*
X0326577Y0252712D02*
X0330701Y0252712D01*
X0330701Y0253310D02*
X0326847Y0253310D01*
X0327095Y0253909D02*
X0330701Y0253909D01*
X0330701Y0254508D02*
X0327342Y0254508D01*
X0327568Y0255106D02*
X0330701Y0255106D01*
X0330701Y0255705D02*
X0327568Y0255705D01*
X0327568Y0256303D02*
X0330701Y0256303D01*
X0330701Y0256902D02*
X0327568Y0256902D01*
X0327568Y0257500D02*
X0330701Y0257500D01*
X0330701Y0258099D02*
X0327340Y0258099D01*
X0327092Y0258697D02*
X0330701Y0258697D01*
X0330701Y0259296D02*
X0326844Y0259296D01*
X0326571Y0259894D02*
X0330701Y0259894D01*
X0330701Y0260493D02*
X0325972Y0260493D01*
X0325374Y0261091D02*
X0330701Y0261091D01*
X0330701Y0261690D02*
X0324669Y0261690D01*
X0356300Y0271266D02*
X0001300Y0271266D01*
X0001300Y0271864D02*
X0356300Y0271864D01*
X0356300Y0272463D02*
X0001300Y0272463D01*
X0001300Y0273061D02*
X0356300Y0273061D01*
X0356300Y0273660D02*
X0001300Y0273660D01*
X0001300Y0274258D02*
X0356300Y0274258D01*
X0356300Y0274857D02*
X0001300Y0274857D01*
X0001300Y0275455D02*
X0356300Y0275455D01*
X0356300Y0276054D02*
X0001300Y0276054D01*
X0001300Y0276652D02*
X0356300Y0276652D01*
X0356300Y0277251D02*
X0001300Y0277251D01*
X0001300Y0277849D02*
X0356300Y0277849D01*
X0356300Y0278448D02*
X0001300Y0278448D01*
X0001300Y0279046D02*
X0356300Y0279046D01*
X0356300Y0279645D02*
X0001300Y0279645D01*
X0001300Y0280243D02*
X0356300Y0280243D01*
X0356300Y0280842D02*
X0001300Y0280842D01*
X0032092Y0258697D02*
X0209000Y0258697D01*
X0208402Y0258099D02*
X0032340Y0258099D01*
X0032095Y0253909D02*
X0152012Y0253909D01*
X0151413Y0253310D02*
X0031847Y0253310D01*
X0031577Y0252712D02*
X0134504Y0252712D01*
X0133674Y0252113D02*
X0030978Y0252113D01*
X0030380Y0251515D02*
X0133076Y0251515D01*
X0132795Y0250916D02*
X0029683Y0250916D01*
X0028238Y0250318D02*
X0132547Y0250318D01*
X0138096Y0252712D02*
X0144504Y0252712D01*
X0143674Y0252113D02*
X0138926Y0252113D01*
X0139524Y0251515D02*
X0143076Y0251515D01*
X0142795Y0250916D02*
X0139805Y0250916D01*
X0140053Y0250318D02*
X0142547Y0250318D01*
X0142431Y0249719D02*
X0140168Y0249719D01*
X0140168Y0249121D02*
X0142431Y0249121D01*
X0142431Y0248522D02*
X0140168Y0248522D01*
X0140168Y0247924D02*
X0142431Y0247924D01*
X0142431Y0247325D02*
X0140168Y0247325D01*
X0140168Y0246727D02*
X0142431Y0246727D01*
X0142431Y0246128D02*
X0140168Y0246128D01*
X0140168Y0245530D02*
X0142431Y0245530D01*
X0142431Y0244931D02*
X0140168Y0244931D01*
X0140168Y0244333D02*
X0142431Y0244333D01*
X0142431Y0243734D02*
X0140168Y0243734D01*
X0140168Y0243136D02*
X0142431Y0243136D01*
X0142442Y0242537D02*
X0140158Y0242537D01*
X0139910Y0241939D02*
X0142690Y0241939D01*
X0142938Y0241340D02*
X0139662Y0241340D01*
X0139181Y0240742D02*
X0143419Y0240742D01*
X0144017Y0240143D02*
X0138583Y0240143D01*
X0136300Y0246300D02*
X0136300Y0191500D01*
X0124827Y0207824D02*
X0020600Y0207824D01*
X0020600Y0208422D02*
X0124228Y0208422D01*
X0123630Y0209021D02*
X0020600Y0209021D01*
X0020600Y0209619D02*
X0123031Y0209619D01*
X0122800Y0210218D02*
X0020600Y0210218D01*
X0020600Y0210816D02*
X0122800Y0210816D01*
X0122800Y0211415D02*
X0020600Y0211415D01*
X0020600Y0212013D02*
X0122800Y0212013D01*
X0122800Y0212612D02*
X0020600Y0212612D01*
X0020600Y0213210D02*
X0123260Y0213210D01*
X0123859Y0213809D02*
X0020600Y0213809D01*
X0020600Y0214407D02*
X0124458Y0214407D01*
X0150168Y0246727D02*
X0152431Y0246727D01*
X0152431Y0247325D02*
X0150168Y0247325D01*
X0150168Y0247924D02*
X0152431Y0247924D01*
X0152431Y0248522D02*
X0150168Y0248522D01*
X0150618Y0249121D02*
X0152431Y0249121D01*
X0152431Y0249719D02*
X0151216Y0249719D01*
X0151815Y0250318D02*
X0152547Y0250318D01*
X0152413Y0250916D02*
X0152795Y0250916D01*
X0153012Y0251515D02*
X0153076Y0251515D01*
X0150815Y0252712D02*
X0148096Y0252712D01*
X0148926Y0252113D02*
X0150216Y0252113D01*
X0149618Y0251515D02*
X0149524Y0251515D01*
X0160168Y0249121D02*
X0160382Y0249121D01*
X0160168Y0248522D02*
X0160981Y0248522D01*
X0161579Y0247924D02*
X0160168Y0247924D01*
X0160168Y0247325D02*
X0162178Y0247325D01*
X0162776Y0246727D02*
X0160168Y0246727D01*
X0201300Y0251300D02*
X0201700Y0251500D01*
X0203500Y0251500D01*
X0209500Y0257500D01*
X0220900Y0250900D02*
X0221300Y0251300D01*
X0220900Y0250900D02*
X0220900Y0220900D01*
X0222100Y0228772D02*
X0229900Y0228772D01*
X0229900Y0229370D02*
X0222100Y0229370D01*
X0222100Y0229969D02*
X0229900Y0229969D01*
X0229900Y0230567D02*
X0222100Y0230567D01*
X0222100Y0231166D02*
X0229900Y0231166D01*
X0229900Y0231764D02*
X0222100Y0231764D01*
X0222100Y0232363D02*
X0229900Y0232363D01*
X0229900Y0232961D02*
X0222100Y0232961D01*
X0222100Y0233560D02*
X0229900Y0233560D01*
X0229900Y0234158D02*
X0222100Y0234158D01*
X0222100Y0234757D02*
X0229900Y0234757D01*
X0229900Y0235355D02*
X0222100Y0235355D01*
X0222100Y0235954D02*
X0229900Y0235954D01*
X0229900Y0236552D02*
X0222100Y0236552D01*
X0222100Y0237151D02*
X0229900Y0237151D01*
X0229900Y0237749D02*
X0222100Y0237749D01*
X0222100Y0238348D02*
X0229900Y0238348D01*
X0229900Y0238946D02*
X0222100Y0238946D01*
X0222100Y0239545D02*
X0229900Y0239545D01*
X0229900Y0240143D02*
X0222100Y0240143D01*
X0222100Y0240742D02*
X0229900Y0240742D01*
X0229900Y0241340D02*
X0222100Y0241340D01*
X0222100Y0241939D02*
X0229900Y0241939D01*
X0229900Y0242537D02*
X0222100Y0242537D01*
X0222100Y0243136D02*
X0229900Y0243136D01*
X0229900Y0243734D02*
X0222100Y0243734D01*
X0222100Y0244333D02*
X0229900Y0244333D01*
X0229900Y0244931D02*
X0222100Y0244931D01*
X0222792Y0245530D02*
X0229808Y0245530D01*
X0228922Y0246128D02*
X0223678Y0246128D01*
X0224271Y0246727D02*
X0228329Y0246727D01*
X0228081Y0247325D02*
X0224519Y0247325D01*
X0224767Y0247924D02*
X0227833Y0247924D01*
X0227800Y0248522D02*
X0224800Y0248522D01*
X0224800Y0249121D02*
X0227800Y0249121D01*
X0227800Y0249719D02*
X0224800Y0249719D01*
X0224800Y0250318D02*
X0227800Y0250318D01*
X0227800Y0250916D02*
X0224800Y0250916D01*
X0224800Y0251515D02*
X0227800Y0251515D01*
X0227800Y0252113D02*
X0224800Y0252113D01*
X0224800Y0252712D02*
X0227800Y0252712D01*
X0227800Y0253310D02*
X0224800Y0253310D01*
X0224800Y0253909D02*
X0227800Y0253909D01*
X0227800Y0254508D02*
X0224800Y0254508D01*
X0224589Y0255106D02*
X0228011Y0255106D01*
X0228259Y0255705D02*
X0224341Y0255705D01*
X0231300Y0251300D02*
X0231100Y0250900D01*
X0231100Y0201100D01*
X0232300Y0228173D02*
X0259477Y0228173D01*
X0269657Y0235954D02*
X0232300Y0235954D01*
X0232300Y0236552D02*
X0270255Y0236552D01*
X0270854Y0237151D02*
X0232300Y0237151D01*
X0232300Y0237749D02*
X0271452Y0237749D01*
X0272051Y0238348D02*
X0232300Y0238348D01*
X0232300Y0238946D02*
X0272649Y0238946D01*
X0273248Y0239545D02*
X0232300Y0239545D01*
X0232300Y0240143D02*
X0273846Y0240143D01*
X0274445Y0240742D02*
X0232300Y0240742D01*
X0232300Y0241340D02*
X0275043Y0241340D01*
X0275642Y0241939D02*
X0232300Y0241939D01*
X0232300Y0242537D02*
X0276240Y0242537D01*
X0276839Y0243136D02*
X0232300Y0243136D01*
X0232300Y0243734D02*
X0277437Y0243734D01*
X0278036Y0244333D02*
X0232300Y0244333D01*
X0232300Y0244931D02*
X0278634Y0244931D01*
X0279233Y0245530D02*
X0272792Y0245530D01*
X0273678Y0246128D02*
X0278922Y0246128D01*
X0278329Y0246727D02*
X0274271Y0246727D01*
X0274519Y0247325D02*
X0278081Y0247325D01*
X0277833Y0247924D02*
X0274767Y0247924D01*
X0274800Y0248522D02*
X0277800Y0248522D01*
X0277800Y0249121D02*
X0274800Y0249121D01*
X0274800Y0249719D02*
X0277800Y0249719D01*
X0277800Y0250318D02*
X0274800Y0250318D01*
X0274800Y0250916D02*
X0277800Y0250916D01*
X0277800Y0251515D02*
X0274800Y0251515D01*
X0274800Y0252113D02*
X0277800Y0252113D01*
X0277800Y0252712D02*
X0274800Y0252712D01*
X0274800Y0253310D02*
X0277800Y0253310D01*
X0277800Y0253909D02*
X0274800Y0253909D01*
X0274800Y0254508D02*
X0277800Y0254508D01*
X0278011Y0255106D02*
X0274589Y0255106D01*
X0274341Y0255705D02*
X0278259Y0255705D01*
X0268259Y0255705D02*
X0264341Y0255705D01*
X0264589Y0255106D02*
X0268011Y0255106D01*
X0267800Y0254508D02*
X0264800Y0254508D01*
X0264800Y0253909D02*
X0267800Y0253909D01*
X0267800Y0253310D02*
X0264800Y0253310D01*
X0264800Y0252712D02*
X0267800Y0252712D01*
X0267800Y0252113D02*
X0264800Y0252113D01*
X0264800Y0251515D02*
X0267800Y0251515D01*
X0267800Y0250916D02*
X0264800Y0250916D01*
X0264800Y0250318D02*
X0267800Y0250318D01*
X0267800Y0249719D02*
X0264800Y0249719D01*
X0264800Y0249121D02*
X0267800Y0249121D01*
X0267800Y0248522D02*
X0264800Y0248522D01*
X0264767Y0247924D02*
X0267833Y0247924D01*
X0268081Y0247325D02*
X0264519Y0247325D01*
X0264271Y0246727D02*
X0268329Y0246727D01*
X0268922Y0246128D02*
X0263678Y0246128D01*
X0262792Y0245530D02*
X0269807Y0245530D01*
X0259807Y0245530D02*
X0252792Y0245530D01*
X0253678Y0246128D02*
X0258922Y0246128D01*
X0258329Y0246727D02*
X0254271Y0246727D01*
X0254519Y0247325D02*
X0258081Y0247325D01*
X0257833Y0247924D02*
X0254767Y0247924D01*
X0254800Y0248522D02*
X0257800Y0248522D01*
X0257800Y0249121D02*
X0254800Y0249121D01*
X0254800Y0249719D02*
X0257800Y0249719D01*
X0257800Y0250318D02*
X0254800Y0250318D01*
X0254800Y0250916D02*
X0257800Y0250916D01*
X0257800Y0251515D02*
X0254800Y0251515D01*
X0254800Y0252113D02*
X0257800Y0252113D01*
X0257800Y0252712D02*
X0254800Y0252712D01*
X0254800Y0253310D02*
X0257800Y0253310D01*
X0257800Y0253909D02*
X0254800Y0253909D01*
X0254800Y0254508D02*
X0257800Y0254508D01*
X0258011Y0255106D02*
X0254589Y0255106D01*
X0254341Y0255705D02*
X0258259Y0255705D01*
X0248259Y0255705D02*
X0244341Y0255705D01*
X0244589Y0255106D02*
X0248011Y0255106D01*
X0247800Y0254508D02*
X0244800Y0254508D01*
X0244800Y0253909D02*
X0247800Y0253909D01*
X0247800Y0253310D02*
X0244800Y0253310D01*
X0244800Y0252712D02*
X0247800Y0252712D01*
X0247800Y0252113D02*
X0244800Y0252113D01*
X0244800Y0251515D02*
X0247800Y0251515D01*
X0247800Y0250916D02*
X0244800Y0250916D01*
X0244800Y0250318D02*
X0247800Y0250318D01*
X0247800Y0249719D02*
X0244800Y0249719D01*
X0244800Y0249121D02*
X0247800Y0249121D01*
X0247800Y0248522D02*
X0244800Y0248522D01*
X0244767Y0247924D02*
X0247833Y0247924D01*
X0248081Y0247325D02*
X0244519Y0247325D01*
X0244271Y0246727D02*
X0248329Y0246727D01*
X0248922Y0246128D02*
X0243678Y0246128D01*
X0242792Y0245530D02*
X0249807Y0245530D01*
X0239807Y0245530D02*
X0232792Y0245530D01*
X0233678Y0246128D02*
X0238922Y0246128D01*
X0238329Y0246727D02*
X0234271Y0246727D01*
X0234519Y0247325D02*
X0238081Y0247325D01*
X0237833Y0247924D02*
X0234767Y0247924D01*
X0234800Y0248522D02*
X0237800Y0248522D01*
X0237800Y0249121D02*
X0234800Y0249121D01*
X0234800Y0249719D02*
X0237800Y0249719D01*
X0237800Y0250318D02*
X0234800Y0250318D01*
X0234800Y0250916D02*
X0237800Y0250916D01*
X0237800Y0251515D02*
X0234800Y0251515D01*
X0234800Y0252113D02*
X0237800Y0252113D01*
X0237800Y0252712D02*
X0234800Y0252712D01*
X0234800Y0253310D02*
X0237800Y0253310D01*
X0237800Y0253909D02*
X0234800Y0253909D01*
X0234800Y0254508D02*
X0237800Y0254508D01*
X0238011Y0255106D02*
X0234589Y0255106D01*
X0234341Y0255705D02*
X0238259Y0255705D01*
X0124540Y0173110D02*
X0123700Y0173110D01*
X0123700Y0173708D02*
X0123942Y0173708D01*
X0116903Y0159344D02*
X0095697Y0159344D01*
X0096404Y0158746D02*
X0116196Y0158746D01*
X0115677Y0158147D02*
X0096923Y0158147D01*
X0097171Y0157549D02*
X0115429Y0157549D01*
X0115200Y0156950D02*
X0097400Y0156950D01*
X0097400Y0156352D02*
X0115200Y0156352D01*
X0115200Y0155753D02*
X0097400Y0155753D01*
X0097214Y0155155D02*
X0115386Y0155155D01*
X0115634Y0154556D02*
X0096966Y0154556D01*
X0096507Y0153958D02*
X0116093Y0153958D01*
X0116691Y0153359D02*
X0095909Y0153359D01*
X0094673Y0149768D02*
X0117927Y0149768D01*
X0116620Y0149170D02*
X0095980Y0149170D01*
X0096579Y0148571D02*
X0116021Y0148571D01*
X0115604Y0147972D02*
X0096996Y0147972D01*
X0097244Y0147374D02*
X0115356Y0147374D01*
X0115200Y0146775D02*
X0097400Y0146775D01*
X0097400Y0146177D02*
X0115200Y0146177D01*
X0115210Y0145578D02*
X0097389Y0145578D01*
X0097142Y0144980D02*
X0115458Y0144980D01*
X0115706Y0144381D02*
X0096894Y0144381D01*
X0096333Y0143783D02*
X0116267Y0143783D01*
X0117076Y0143184D02*
X0095524Y0143184D01*
X0097504Y0139593D02*
X0117505Y0139593D01*
X0116445Y0138995D02*
X0098102Y0138995D01*
X0098701Y0138396D02*
X0115847Y0138396D01*
X0115532Y0137798D02*
X0099299Y0137798D01*
X0099898Y0137199D02*
X0115284Y0137199D01*
X0115200Y0136601D02*
X0100496Y0136601D01*
X0101095Y0136002D02*
X0115200Y0136002D01*
X0115283Y0135404D02*
X0101693Y0135404D01*
X0102292Y0134805D02*
X0115531Y0134805D01*
X0115844Y0134207D02*
X0102890Y0134207D01*
X0103489Y0133608D02*
X0116442Y0133608D01*
X0117498Y0133010D02*
X0104087Y0133010D01*
X0104686Y0132411D02*
X0126700Y0132411D01*
X0126700Y0131813D02*
X0105284Y0131813D01*
X0105883Y0131214D02*
X0126700Y0131214D01*
X0126700Y0130616D02*
X0106481Y0130616D01*
X0107080Y0130017D02*
X0126700Y0130017D01*
X0126700Y0129419D02*
X0125517Y0129419D01*
X0126330Y0128820D02*
X0126700Y0128820D01*
X0126700Y0124032D02*
X0126582Y0124032D01*
X0126536Y0123434D02*
X0125983Y0123434D01*
X0125938Y0122835D02*
X0124681Y0122835D01*
X0125339Y0122237D02*
X0114861Y0122237D01*
X0114262Y0122835D02*
X0117919Y0122835D01*
X0116617Y0123434D02*
X0113664Y0123434D01*
X0113065Y0124032D02*
X0116018Y0124032D01*
X0115603Y0124631D02*
X0112466Y0124631D01*
X0111868Y0125229D02*
X0115355Y0125229D01*
X0115200Y0125828D02*
X0111269Y0125828D01*
X0110671Y0126426D02*
X0115200Y0126426D01*
X0115212Y0127025D02*
X0110072Y0127025D01*
X0109474Y0127623D02*
X0115460Y0127623D01*
X0115708Y0128222D02*
X0108875Y0128222D01*
X0108277Y0128820D02*
X0116270Y0128820D01*
X0117083Y0129419D02*
X0107678Y0129419D01*
X0103087Y0130616D02*
X0020600Y0130616D01*
X0020600Y0131214D02*
X0102489Y0131214D01*
X0101890Y0131813D02*
X0020600Y0131813D01*
X0020600Y0132411D02*
X0101292Y0132411D01*
X0100693Y0133010D02*
X0095102Y0133010D01*
X0096158Y0133608D02*
X0100095Y0133608D01*
X0099496Y0134207D02*
X0096756Y0134207D01*
X0097069Y0134805D02*
X0098898Y0134805D01*
X0098299Y0135404D02*
X0097317Y0135404D01*
X0097400Y0136002D02*
X0097701Y0136002D01*
X0115459Y0121638D02*
X0124741Y0121638D01*
X0124142Y0121039D02*
X0115900Y0121039D01*
X0115900Y0120441D02*
X0123544Y0120441D01*
X0122945Y0119842D02*
X0115900Y0119842D01*
X0115900Y0119244D02*
X0116694Y0119244D01*
X0116096Y0118645D02*
X0115900Y0118645D01*
X0126938Y0120441D02*
X0240462Y0120441D01*
X0239863Y0121039D02*
X0127537Y0121039D01*
X0128135Y0121638D02*
X0239265Y0121638D01*
X0237469Y0123434D02*
X0218383Y0123434D01*
X0126700Y0133010D02*
X0125102Y0133010D01*
X0126158Y0133608D02*
X0126700Y0133608D01*
X0126579Y0148571D02*
X0126700Y0148571D01*
X0126700Y0149170D02*
X0125980Y0149170D01*
X0126700Y0149768D02*
X0124673Y0149768D01*
X0125909Y0153359D02*
X0126700Y0153359D01*
X0126700Y0153958D02*
X0126507Y0153958D01*
X0086903Y0159344D02*
X0083753Y0159344D01*
X0084351Y0158746D02*
X0086196Y0158746D01*
X0085677Y0158147D02*
X0084950Y0158147D01*
D17*
X0231100Y0201100D03*
M02*
