G75*
%MOIN*%
%OFA0B0*%
%FSLAX25Y25*%
%IPPOS*%
%LPD*%
%AMOC8*
5,1,8,0,0,1.08239X$1,22.5*
%
%ADD10C,0.04737*%
%ADD11R,0.09800X0.09800*%
%ADD12C,0.06000*%
%ADD13C,0.06000*%
%ADD14C,0.06737*%
%ADD15OC8,0.06000*%
%ADD16C,0.06343*%
D10*
X0068342Y0051300D03*
X0068342Y0256300D03*
X0358342Y0051300D03*
X0363342Y0256300D03*
D11*
X0093342Y0111300D03*
X0093342Y0051300D03*
D12*
X0263342Y0166300D03*
X0273342Y0166300D03*
X0283342Y0166300D03*
X0293342Y0166300D03*
X0293342Y0196300D03*
X0283342Y0196300D03*
X0273342Y0196300D03*
X0263342Y0196300D03*
D13*
X0225942Y0156300D02*
X0220742Y0156300D01*
X0220742Y0146300D02*
X0225942Y0146300D01*
X0225942Y0136300D02*
X0220742Y0136300D01*
X0220742Y0126300D02*
X0225942Y0126300D01*
X0225942Y0116300D02*
X0220742Y0116300D01*
X0220742Y0106300D02*
X0225942Y0106300D01*
X0225942Y0096300D02*
X0220742Y0096300D01*
X0195942Y0096300D02*
X0190742Y0096300D01*
X0190742Y0106300D02*
X0195942Y0106300D01*
X0195942Y0116300D02*
X0190742Y0116300D01*
X0190742Y0126300D02*
X0195942Y0126300D01*
X0195942Y0136300D02*
X0190742Y0136300D01*
X0190742Y0146300D02*
X0195942Y0146300D01*
X0195942Y0156300D02*
X0190742Y0156300D01*
X0165942Y0156300D02*
X0160742Y0156300D01*
X0160742Y0146300D02*
X0165942Y0146300D01*
X0165942Y0136300D02*
X0160742Y0136300D01*
X0160742Y0126300D02*
X0165942Y0126300D01*
X0165942Y0116300D02*
X0160742Y0116300D01*
X0160742Y0106300D02*
X0165942Y0106300D01*
X0165942Y0096300D02*
X0160742Y0096300D01*
X0135942Y0096300D02*
X0130742Y0096300D01*
X0130742Y0106300D02*
X0135942Y0106300D01*
X0135942Y0116300D02*
X0130742Y0116300D01*
X0130742Y0126300D02*
X0135942Y0126300D01*
X0135942Y0136300D02*
X0130742Y0136300D01*
X0130742Y0146300D02*
X0135942Y0146300D01*
X0135942Y0156300D02*
X0130742Y0156300D01*
X0243342Y0248700D02*
X0243342Y0253900D01*
X0253342Y0253900D02*
X0253342Y0248700D01*
X0263342Y0248700D02*
X0263342Y0253900D01*
X0273342Y0253900D02*
X0273342Y0248700D01*
X0283342Y0248700D02*
X0283342Y0253900D01*
X0293342Y0253900D02*
X0293342Y0248700D01*
X0303342Y0248700D02*
X0303342Y0253900D01*
X0313342Y0253900D02*
X0313342Y0248700D01*
X0323342Y0248700D02*
X0323342Y0253900D01*
D14*
X0350373Y0191300D02*
X0356310Y0191300D01*
X0356310Y0181300D02*
X0350373Y0181300D01*
X0350373Y0171300D02*
X0356310Y0171300D01*
X0218342Y0069269D02*
X0218342Y0063331D01*
X0208342Y0063331D02*
X0208342Y0069269D01*
X0198342Y0069269D02*
X0198342Y0063331D01*
X0096310Y0171300D02*
X0090373Y0171300D01*
X0090373Y0181300D02*
X0096310Y0181300D01*
X0096310Y0191300D02*
X0090373Y0191300D01*
X0178342Y0243331D02*
X0178342Y0249269D01*
X0188342Y0249269D02*
X0188342Y0243331D01*
X0198342Y0243331D02*
X0198342Y0249269D01*
D15*
X0218342Y0211300D03*
X0253342Y0211300D03*
X0253342Y0231300D03*
X0303342Y0231300D03*
X0303342Y0211300D03*
X0323342Y0211300D03*
X0323342Y0161300D03*
X0308342Y0146300D03*
X0258342Y0146300D03*
X0258342Y0126300D03*
X0258342Y0076300D03*
X0288342Y0066300D03*
X0338342Y0066300D03*
X0218342Y0176300D03*
X0168342Y0176300D03*
X0168342Y0211300D03*
X0143342Y0226300D03*
X0093342Y0226300D03*
D16*
X0303342Y0111300D03*
X0333342Y0101300D03*
X0353342Y0111300D03*
M02*
