%
M48
M72
T01C0.03200
T02C0.03543
T03C0.03937
T04C0.05600
%
T01
X123342Y96300
X123342Y106300
X123342Y116300
X123342Y126300
X123342Y136300
X123342Y146300
X123342Y156300
X153342Y156300
X153342Y146300
X153342Y136300
X153342Y126300
X153342Y116300
X153342Y106300
X153342Y96300
X183342Y96300
X183342Y106300
X183342Y116300
X183342Y126300
X183342Y136300
X183342Y146300
X183342Y156300
X208342Y176300
X213342Y156300
X213342Y146300
X213342Y136300
X213342Y126300
X213342Y116300
X213342Y106300
X213342Y96300
X243342Y66300
X253342Y66300
X263342Y66300
X273342Y66300
X283342Y66300
X293342Y66300
X303342Y66300
X313342Y66300
X323342Y66300
X298342Y146300
X313342Y161300
X283342Y166300
X273342Y166300
X263342Y166300
X253342Y166300
X248342Y146300
X253342Y196300
X263342Y196300
X273342Y196300
X283342Y196300
X293342Y211300
X313342Y211300
X293342Y231300
X243342Y231300
X243342Y211300
X208342Y211300
X158342Y211300
X158342Y196300
X158342Y176300
X108342Y196300
X133342Y226300
X128342Y251300
X83342Y226300
X78342Y251300
T02
X293342Y126300
X323342Y116300
X343342Y126300
T03
X58342Y51300
X188342Y66300
X198342Y66300
X208342Y66300
X83342Y171300
X83342Y181300
X83342Y191300
X58342Y256300
X168342Y246300
X178342Y246300
X188342Y246300
X343342Y191300
X343342Y181300
X343342Y171300
X353342Y256300
X348342Y51300
T04
X83342Y51300
X83342Y111300
M30
