G75*
%MOIN*%
%OFA0B0*%
%FSLAX25Y25*%
%IPPOS*%
%LPD*%
%AMOC8*
5,1,8,0,0,1.08239X$1,22.5*
%
%ADD10C,0.04737*%
%ADD11R,0.09800X0.09800*%
%ADD12C,0.06000*%
%ADD13C,0.06000*%
%ADD14C,0.06737*%
%ADD15OC8,0.06000*%
%ADD16C,0.06343*%
%ADD17C,0.03778*%
D10*
X0026300Y0051300D03*
X0026300Y0256300D03*
X0316300Y0051300D03*
X0321300Y0256300D03*
D11*
X0051300Y0111300D03*
X0051300Y0051300D03*
D12*
X0221300Y0166300D03*
X0231300Y0166300D03*
X0241300Y0166300D03*
X0251300Y0166300D03*
X0251300Y0196300D03*
X0241300Y0196300D03*
X0231300Y0196300D03*
X0221300Y0196300D03*
D13*
X0183900Y0156300D02*
X0178700Y0156300D01*
X0178700Y0146300D02*
X0183900Y0146300D01*
X0183900Y0136300D02*
X0178700Y0136300D01*
X0178700Y0126300D02*
X0183900Y0126300D01*
X0183900Y0116300D02*
X0178700Y0116300D01*
X0178700Y0106300D02*
X0183900Y0106300D01*
X0183900Y0096300D02*
X0178700Y0096300D01*
X0153900Y0096300D02*
X0148700Y0096300D01*
X0148700Y0106300D02*
X0153900Y0106300D01*
X0153900Y0116300D02*
X0148700Y0116300D01*
X0148700Y0126300D02*
X0153900Y0126300D01*
X0153900Y0136300D02*
X0148700Y0136300D01*
X0148700Y0146300D02*
X0153900Y0146300D01*
X0153900Y0156300D02*
X0148700Y0156300D01*
X0123900Y0156300D02*
X0118700Y0156300D01*
X0118700Y0146300D02*
X0123900Y0146300D01*
X0123900Y0136300D02*
X0118700Y0136300D01*
X0118700Y0126300D02*
X0123900Y0126300D01*
X0123900Y0116300D02*
X0118700Y0116300D01*
X0118700Y0106300D02*
X0123900Y0106300D01*
X0123900Y0096300D02*
X0118700Y0096300D01*
X0093900Y0096300D02*
X0088700Y0096300D01*
X0088700Y0106300D02*
X0093900Y0106300D01*
X0093900Y0116300D02*
X0088700Y0116300D01*
X0088700Y0126300D02*
X0093900Y0126300D01*
X0093900Y0136300D02*
X0088700Y0136300D01*
X0088700Y0146300D02*
X0093900Y0146300D01*
X0093900Y0156300D02*
X0088700Y0156300D01*
X0201300Y0248700D02*
X0201300Y0253900D01*
X0211300Y0253900D02*
X0211300Y0248700D01*
X0221300Y0248700D02*
X0221300Y0253900D01*
X0231300Y0253900D02*
X0231300Y0248700D01*
X0241300Y0248700D02*
X0241300Y0253900D01*
X0251300Y0253900D02*
X0251300Y0248700D01*
X0261300Y0248700D02*
X0261300Y0253900D01*
X0271300Y0253900D02*
X0271300Y0248700D01*
X0281300Y0248700D02*
X0281300Y0253900D01*
D14*
X0308331Y0191300D02*
X0314269Y0191300D01*
X0314269Y0181300D02*
X0308331Y0181300D01*
X0308331Y0171300D02*
X0314269Y0171300D01*
X0176300Y0069269D02*
X0176300Y0063331D01*
X0166300Y0063331D02*
X0166300Y0069269D01*
X0156300Y0069269D02*
X0156300Y0063331D01*
X0054269Y0171300D02*
X0048331Y0171300D01*
X0048331Y0181300D02*
X0054269Y0181300D01*
X0054269Y0191300D02*
X0048331Y0191300D01*
X0136300Y0243331D02*
X0136300Y0249269D01*
X0146300Y0249269D02*
X0146300Y0243331D01*
X0156300Y0243331D02*
X0156300Y0249269D01*
D15*
X0176300Y0211300D03*
X0211300Y0211300D03*
X0211300Y0231300D03*
X0261300Y0231300D03*
X0261300Y0211300D03*
X0281300Y0211300D03*
X0281300Y0161300D03*
X0266300Y0146300D03*
X0216300Y0146300D03*
X0216300Y0126300D03*
X0216300Y0076300D03*
X0246300Y0066300D03*
X0296300Y0066300D03*
X0176300Y0176300D03*
X0126300Y0176300D03*
X0126300Y0211300D03*
X0101300Y0226300D03*
X0051300Y0226300D03*
D16*
X0261300Y0111300D03*
X0291300Y0101300D03*
X0311300Y0111300D03*
D17*
X0231100Y0201100D03*
M02*
