G75*
%MOIN*%
%OFA0B0*%
%FSLAX25Y25*%
%IPPOS*%
%LPD*%
%AMOC8*
5,1,8,0,0,1.08239X$1,22.5*
%
%ADD10R,0.09000X0.09000*%
%ADD11C,0.05200*%
%ADD12C,0.05200*%
%ADD13C,0.05937*%
%ADD14OC8,0.05200*%
%ADD15C,0.05543*%
%ADD16C,0.00600*%
D10*
X0093342Y0051300D03*
X0093342Y0111300D03*
D11*
X0263342Y0166300D03*
X0273342Y0166300D03*
X0283342Y0166300D03*
X0293342Y0166300D03*
X0293342Y0196300D03*
X0283342Y0196300D03*
X0273342Y0196300D03*
X0263342Y0196300D03*
D12*
X0225942Y0156300D02*
X0220742Y0156300D01*
X0220742Y0146300D02*
X0225942Y0146300D01*
X0225942Y0136300D02*
X0220742Y0136300D01*
X0220742Y0126300D02*
X0225942Y0126300D01*
X0225942Y0116300D02*
X0220742Y0116300D01*
X0220742Y0106300D02*
X0225942Y0106300D01*
X0225942Y0096300D02*
X0220742Y0096300D01*
X0195942Y0096300D02*
X0190742Y0096300D01*
X0190742Y0106300D02*
X0195942Y0106300D01*
X0195942Y0116300D02*
X0190742Y0116300D01*
X0190742Y0126300D02*
X0195942Y0126300D01*
X0195942Y0136300D02*
X0190742Y0136300D01*
X0190742Y0146300D02*
X0195942Y0146300D01*
X0195942Y0156300D02*
X0190742Y0156300D01*
X0165942Y0156300D02*
X0160742Y0156300D01*
X0160742Y0146300D02*
X0165942Y0146300D01*
X0165942Y0136300D02*
X0160742Y0136300D01*
X0160742Y0126300D02*
X0165942Y0126300D01*
X0165942Y0116300D02*
X0160742Y0116300D01*
X0160742Y0106300D02*
X0165942Y0106300D01*
X0165942Y0096300D02*
X0160742Y0096300D01*
X0135942Y0096300D02*
X0130742Y0096300D01*
X0130742Y0106300D02*
X0135942Y0106300D01*
X0135942Y0116300D02*
X0130742Y0116300D01*
X0130742Y0126300D02*
X0135942Y0126300D01*
X0135942Y0136300D02*
X0130742Y0136300D01*
X0130742Y0146300D02*
X0135942Y0146300D01*
X0135942Y0156300D02*
X0130742Y0156300D01*
X0253342Y0068900D02*
X0253342Y0063700D01*
X0263342Y0063700D02*
X0263342Y0068900D01*
X0273342Y0068900D02*
X0273342Y0063700D01*
X0283342Y0063700D02*
X0283342Y0068900D01*
X0293342Y0068900D02*
X0293342Y0063700D01*
X0303342Y0063700D02*
X0303342Y0068900D01*
X0313342Y0068900D02*
X0313342Y0063700D01*
X0323342Y0063700D02*
X0323342Y0068900D01*
X0333342Y0068900D02*
X0333342Y0063700D01*
D13*
X0218342Y0063331D02*
X0218342Y0069269D01*
X0208342Y0069269D02*
X0208342Y0063331D01*
X0198342Y0063331D02*
X0198342Y0069269D01*
X0096310Y0171300D02*
X0090373Y0171300D01*
X0090373Y0181300D02*
X0096310Y0181300D01*
X0096310Y0191300D02*
X0090373Y0191300D01*
X0178342Y0243331D02*
X0178342Y0249269D01*
X0188342Y0249269D02*
X0188342Y0243331D01*
X0198342Y0243331D02*
X0198342Y0249269D01*
X0350373Y0191300D02*
X0356310Y0191300D01*
X0356310Y0181300D02*
X0350373Y0181300D01*
X0350373Y0171300D02*
X0356310Y0171300D01*
D14*
X0323342Y0161300D03*
X0308342Y0146300D03*
X0258342Y0146300D03*
X0218342Y0176300D03*
X0218342Y0211300D03*
X0253342Y0211300D03*
X0253342Y0231300D03*
X0303342Y0231300D03*
X0303342Y0211300D03*
X0323342Y0211300D03*
X0168342Y0211300D03*
X0168342Y0196300D03*
X0168342Y0176300D03*
X0118342Y0196300D03*
X0143342Y0226300D03*
X0138342Y0251300D03*
X0093342Y0226300D03*
X0088342Y0251300D03*
D15*
X0303342Y0126300D03*
X0333342Y0116300D03*
X0353342Y0126300D03*
D16*
X0398342Y0001300D02*
X0043342Y0001300D01*
X0048342Y0276300D01*
X0398342Y0281300D01*
X0398342Y0001300D01*
X0398342Y0001337D02*
X0043342Y0001337D01*
X0043353Y0001936D02*
X0398342Y0001936D01*
X0398342Y0002534D02*
X0043364Y0002534D01*
X0043375Y0003133D02*
X0398342Y0003133D01*
X0398342Y0003731D02*
X0043386Y0003731D01*
X0043397Y0004330D02*
X0398342Y0004330D01*
X0398342Y0004928D02*
X0043408Y0004928D01*
X0043419Y0005527D02*
X0398342Y0005527D01*
X0398342Y0006125D02*
X0043430Y0006125D01*
X0043440Y0006724D02*
X0398342Y0006724D01*
X0398342Y0007322D02*
X0043451Y0007322D01*
X0043462Y0007921D02*
X0398342Y0007921D01*
X0398342Y0008519D02*
X0043473Y0008519D01*
X0043484Y0009118D02*
X0398342Y0009118D01*
X0398342Y0009716D02*
X0043495Y0009716D01*
X0043506Y0010315D02*
X0398342Y0010315D01*
X0398342Y0010913D02*
X0043517Y0010913D01*
X0043527Y0011512D02*
X0398342Y0011512D01*
X0398342Y0012110D02*
X0043538Y0012110D01*
X0043549Y0012709D02*
X0398342Y0012709D01*
X0398342Y0013307D02*
X0043560Y0013307D01*
X0043571Y0013906D02*
X0398342Y0013906D01*
X0398342Y0014504D02*
X0043582Y0014504D01*
X0043593Y0015103D02*
X0398342Y0015103D01*
X0398342Y0015701D02*
X0043604Y0015701D01*
X0043615Y0016300D02*
X0398342Y0016300D01*
X0398342Y0016899D02*
X0043625Y0016899D01*
X0043636Y0017497D02*
X0398342Y0017497D01*
X0398342Y0018096D02*
X0043647Y0018096D01*
X0043658Y0018694D02*
X0398342Y0018694D01*
X0398342Y0019293D02*
X0043669Y0019293D01*
X0043680Y0019891D02*
X0398342Y0019891D01*
X0398342Y0020490D02*
X0043691Y0020490D01*
X0043702Y0021088D02*
X0398342Y0021088D01*
X0398342Y0021687D02*
X0043712Y0021687D01*
X0043723Y0022285D02*
X0398342Y0022285D01*
X0398342Y0022884D02*
X0043734Y0022884D01*
X0043745Y0023482D02*
X0398342Y0023482D01*
X0398342Y0024081D02*
X0043756Y0024081D01*
X0043767Y0024679D02*
X0398342Y0024679D01*
X0398342Y0025278D02*
X0043778Y0025278D01*
X0043789Y0025876D02*
X0398342Y0025876D01*
X0398342Y0026475D02*
X0043800Y0026475D01*
X0043810Y0027073D02*
X0398342Y0027073D01*
X0398342Y0027672D02*
X0043821Y0027672D01*
X0043832Y0028270D02*
X0398342Y0028270D01*
X0398342Y0028869D02*
X0043843Y0028869D01*
X0043854Y0029467D02*
X0398342Y0029467D01*
X0398342Y0030066D02*
X0043865Y0030066D01*
X0043876Y0030664D02*
X0398342Y0030664D01*
X0398342Y0031263D02*
X0043887Y0031263D01*
X0043897Y0031861D02*
X0398342Y0031861D01*
X0398342Y0032460D02*
X0043908Y0032460D01*
X0043919Y0033058D02*
X0398342Y0033058D01*
X0398342Y0033657D02*
X0043930Y0033657D01*
X0043941Y0034255D02*
X0398342Y0034255D01*
X0398342Y0034854D02*
X0043952Y0034854D01*
X0043963Y0035452D02*
X0398342Y0035452D01*
X0398342Y0036051D02*
X0043974Y0036051D01*
X0043985Y0036649D02*
X0398342Y0036649D01*
X0398342Y0037248D02*
X0378496Y0037248D01*
X0377898Y0037000D02*
X0379478Y0037655D01*
X0380688Y0038864D01*
X0381343Y0040445D01*
X0381343Y0267116D01*
X0380688Y0268696D01*
X0379478Y0269906D01*
X0377898Y0270561D01*
X0057486Y0270561D01*
X0055906Y0269906D01*
X0054696Y0268696D01*
X0054042Y0267116D01*
X0054042Y0040445D01*
X0054696Y0038864D01*
X0055906Y0037655D01*
X0057486Y0037000D01*
X0059197Y0037000D01*
X0376187Y0037000D01*
X0377898Y0037000D01*
X0379670Y0037846D02*
X0398342Y0037846D01*
X0398342Y0038445D02*
X0380269Y0038445D01*
X0380762Y0039043D02*
X0398342Y0039043D01*
X0398342Y0039642D02*
X0381010Y0039642D01*
X0381258Y0040240D02*
X0398342Y0040240D01*
X0398342Y0040839D02*
X0381343Y0040839D01*
X0381343Y0041437D02*
X0398342Y0041437D01*
X0398342Y0042036D02*
X0381343Y0042036D01*
X0381343Y0042634D02*
X0398342Y0042634D01*
X0398342Y0043233D02*
X0381343Y0043233D01*
X0381343Y0043832D02*
X0398342Y0043832D01*
X0398342Y0044430D02*
X0381343Y0044430D01*
X0381343Y0045029D02*
X0398342Y0045029D01*
X0398342Y0045627D02*
X0381343Y0045627D01*
X0381343Y0046226D02*
X0398342Y0046226D01*
X0398342Y0046824D02*
X0381343Y0046824D01*
X0381343Y0047423D02*
X0398342Y0047423D01*
X0398342Y0048021D02*
X0381343Y0048021D01*
X0381343Y0048620D02*
X0398342Y0048620D01*
X0398342Y0049218D02*
X0381343Y0049218D01*
X0381343Y0049817D02*
X0398342Y0049817D01*
X0398342Y0050415D02*
X0381343Y0050415D01*
X0381343Y0051014D02*
X0398342Y0051014D01*
X0398342Y0051612D02*
X0381343Y0051612D01*
X0381343Y0052211D02*
X0398342Y0052211D01*
X0398342Y0052809D02*
X0381343Y0052809D01*
X0381343Y0053408D02*
X0398342Y0053408D01*
X0398342Y0054006D02*
X0381343Y0054006D01*
X0381343Y0054605D02*
X0398342Y0054605D01*
X0398342Y0055203D02*
X0381343Y0055203D01*
X0381343Y0055802D02*
X0398342Y0055802D01*
X0398342Y0056400D02*
X0381343Y0056400D01*
X0381343Y0056999D02*
X0398342Y0056999D01*
X0398342Y0057597D02*
X0381343Y0057597D01*
X0381343Y0058196D02*
X0398342Y0058196D01*
X0398342Y0058794D02*
X0381343Y0058794D01*
X0381343Y0059393D02*
X0398342Y0059393D01*
X0398342Y0059991D02*
X0381343Y0059991D01*
X0381343Y0060590D02*
X0398342Y0060590D01*
X0398342Y0061188D02*
X0381343Y0061188D01*
X0381343Y0061787D02*
X0398342Y0061787D01*
X0398342Y0062385D02*
X0381343Y0062385D01*
X0381343Y0062984D02*
X0398342Y0062984D01*
X0398342Y0063582D02*
X0381343Y0063582D01*
X0381343Y0064181D02*
X0398342Y0064181D01*
X0398342Y0064779D02*
X0381343Y0064779D01*
X0381343Y0065378D02*
X0398342Y0065378D01*
X0398342Y0065976D02*
X0381343Y0065976D01*
X0381343Y0066575D02*
X0398342Y0066575D01*
X0398342Y0067173D02*
X0381343Y0067173D01*
X0381343Y0067772D02*
X0398342Y0067772D01*
X0398342Y0068370D02*
X0381343Y0068370D01*
X0381343Y0068969D02*
X0398342Y0068969D01*
X0398342Y0069568D02*
X0381343Y0069568D01*
X0381343Y0070166D02*
X0398342Y0070166D01*
X0398342Y0070765D02*
X0381343Y0070765D01*
X0381343Y0071363D02*
X0398342Y0071363D01*
X0398342Y0071962D02*
X0381343Y0071962D01*
X0381343Y0072560D02*
X0398342Y0072560D01*
X0398342Y0073159D02*
X0381343Y0073159D01*
X0381343Y0073757D02*
X0398342Y0073757D01*
X0398342Y0074356D02*
X0381343Y0074356D01*
X0381343Y0074954D02*
X0398342Y0074954D01*
X0398342Y0075553D02*
X0381343Y0075553D01*
X0381343Y0076151D02*
X0398342Y0076151D01*
X0398342Y0076750D02*
X0381343Y0076750D01*
X0381343Y0077348D02*
X0398342Y0077348D01*
X0398342Y0077947D02*
X0381343Y0077947D01*
X0381343Y0078545D02*
X0398342Y0078545D01*
X0398342Y0079144D02*
X0381343Y0079144D01*
X0381343Y0079742D02*
X0398342Y0079742D01*
X0398342Y0080341D02*
X0381343Y0080341D01*
X0381343Y0080939D02*
X0398342Y0080939D01*
X0398342Y0081538D02*
X0381343Y0081538D01*
X0381343Y0082136D02*
X0398342Y0082136D01*
X0398342Y0082735D02*
X0381343Y0082735D01*
X0381343Y0083333D02*
X0398342Y0083333D01*
X0398342Y0083932D02*
X0381343Y0083932D01*
X0381343Y0084530D02*
X0398342Y0084530D01*
X0398342Y0085129D02*
X0381343Y0085129D01*
X0381343Y0085727D02*
X0398342Y0085727D01*
X0398342Y0086326D02*
X0381343Y0086326D01*
X0381343Y0086924D02*
X0398342Y0086924D01*
X0398342Y0087523D02*
X0381343Y0087523D01*
X0381343Y0088121D02*
X0398342Y0088121D01*
X0398342Y0088720D02*
X0381343Y0088720D01*
X0381343Y0089318D02*
X0398342Y0089318D01*
X0398342Y0089917D02*
X0381343Y0089917D01*
X0381343Y0090515D02*
X0398342Y0090515D01*
X0398342Y0091114D02*
X0381343Y0091114D01*
X0381343Y0091712D02*
X0398342Y0091712D01*
X0398342Y0092311D02*
X0381343Y0092311D01*
X0381343Y0092909D02*
X0398342Y0092909D01*
X0398342Y0093508D02*
X0381343Y0093508D01*
X0381343Y0094106D02*
X0398342Y0094106D01*
X0398342Y0094705D02*
X0381343Y0094705D01*
X0381343Y0095303D02*
X0398342Y0095303D01*
X0398342Y0095902D02*
X0381343Y0095902D01*
X0381343Y0096501D02*
X0398342Y0096501D01*
X0398342Y0097099D02*
X0381343Y0097099D01*
X0381343Y0097698D02*
X0398342Y0097698D01*
X0398342Y0098296D02*
X0381343Y0098296D01*
X0381343Y0098895D02*
X0398342Y0098895D01*
X0398342Y0099493D02*
X0381343Y0099493D01*
X0381343Y0100092D02*
X0398342Y0100092D01*
X0398342Y0100690D02*
X0381343Y0100690D01*
X0381343Y0101289D02*
X0398342Y0101289D01*
X0398342Y0101887D02*
X0381343Y0101887D01*
X0381343Y0102486D02*
X0398342Y0102486D01*
X0398342Y0103084D02*
X0381343Y0103084D01*
X0381343Y0103683D02*
X0398342Y0103683D01*
X0398342Y0104281D02*
X0381343Y0104281D01*
X0381343Y0104880D02*
X0398342Y0104880D01*
X0398342Y0105478D02*
X0381343Y0105478D01*
X0381343Y0106077D02*
X0398342Y0106077D01*
X0398342Y0106675D02*
X0381343Y0106675D01*
X0381343Y0107274D02*
X0398342Y0107274D01*
X0398342Y0107872D02*
X0381343Y0107872D01*
X0381343Y0108471D02*
X0398342Y0108471D01*
X0398342Y0109069D02*
X0381343Y0109069D01*
X0381343Y0109668D02*
X0398342Y0109668D01*
X0398342Y0110266D02*
X0381343Y0110266D01*
X0381343Y0110865D02*
X0398342Y0110865D01*
X0398342Y0111463D02*
X0381343Y0111463D01*
X0381343Y0112062D02*
X0398342Y0112062D01*
X0398342Y0112660D02*
X0381343Y0112660D01*
X0381343Y0113259D02*
X0398342Y0113259D01*
X0398342Y0113857D02*
X0381343Y0113857D01*
X0381343Y0114456D02*
X0398342Y0114456D01*
X0398342Y0115054D02*
X0381343Y0115054D01*
X0381343Y0115653D02*
X0398342Y0115653D01*
X0398342Y0116251D02*
X0381343Y0116251D01*
X0381343Y0116850D02*
X0398342Y0116850D01*
X0398342Y0117448D02*
X0381343Y0117448D01*
X0381343Y0118047D02*
X0398342Y0118047D01*
X0398342Y0118645D02*
X0381343Y0118645D01*
X0381343Y0119244D02*
X0398342Y0119244D01*
X0398342Y0119842D02*
X0381343Y0119842D01*
X0381343Y0120441D02*
X0398342Y0120441D01*
X0398342Y0121039D02*
X0381343Y0121039D01*
X0381343Y0121638D02*
X0398342Y0121638D01*
X0398342Y0122237D02*
X0381343Y0122237D01*
X0381343Y0122835D02*
X0398342Y0122835D01*
X0398342Y0123434D02*
X0381343Y0123434D01*
X0381343Y0124032D02*
X0398342Y0124032D01*
X0398342Y0124631D02*
X0381343Y0124631D01*
X0381343Y0125229D02*
X0398342Y0125229D01*
X0398342Y0125828D02*
X0381343Y0125828D01*
X0381343Y0126426D02*
X0398342Y0126426D01*
X0398342Y0127025D02*
X0381343Y0127025D01*
X0381343Y0127623D02*
X0398342Y0127623D01*
X0398342Y0128222D02*
X0381343Y0128222D01*
X0381343Y0128820D02*
X0398342Y0128820D01*
X0398342Y0129419D02*
X0381343Y0129419D01*
X0381343Y0130017D02*
X0398342Y0130017D01*
X0398342Y0130616D02*
X0381343Y0130616D01*
X0381343Y0131214D02*
X0398342Y0131214D01*
X0398342Y0131813D02*
X0381343Y0131813D01*
X0381343Y0132411D02*
X0398342Y0132411D01*
X0398342Y0133010D02*
X0381343Y0133010D01*
X0381343Y0133608D02*
X0398342Y0133608D01*
X0398342Y0134207D02*
X0381343Y0134207D01*
X0381343Y0134805D02*
X0398342Y0134805D01*
X0398342Y0135404D02*
X0381343Y0135404D01*
X0381343Y0136002D02*
X0398342Y0136002D01*
X0398342Y0136601D02*
X0381343Y0136601D01*
X0381343Y0137199D02*
X0398342Y0137199D01*
X0398342Y0137798D02*
X0381343Y0137798D01*
X0381343Y0138396D02*
X0398342Y0138396D01*
X0398342Y0138995D02*
X0381343Y0138995D01*
X0381343Y0139593D02*
X0398342Y0139593D01*
X0398342Y0140192D02*
X0381343Y0140192D01*
X0381343Y0140790D02*
X0398342Y0140790D01*
X0398342Y0141389D02*
X0381343Y0141389D01*
X0381343Y0141987D02*
X0398342Y0141987D01*
X0398342Y0142586D02*
X0381343Y0142586D01*
X0381343Y0143184D02*
X0398342Y0143184D01*
X0398342Y0143783D02*
X0381343Y0143783D01*
X0381343Y0144381D02*
X0398342Y0144381D01*
X0398342Y0144980D02*
X0381343Y0144980D01*
X0381343Y0145578D02*
X0398342Y0145578D01*
X0398342Y0146177D02*
X0381343Y0146177D01*
X0381343Y0146775D02*
X0398342Y0146775D01*
X0398342Y0147374D02*
X0381343Y0147374D01*
X0381343Y0147972D02*
X0398342Y0147972D01*
X0398342Y0148571D02*
X0381343Y0148571D01*
X0381343Y0149170D02*
X0398342Y0149170D01*
X0398342Y0149768D02*
X0381343Y0149768D01*
X0381343Y0150367D02*
X0398342Y0150367D01*
X0398342Y0150965D02*
X0381343Y0150965D01*
X0381343Y0151564D02*
X0398342Y0151564D01*
X0398342Y0152162D02*
X0381343Y0152162D01*
X0381343Y0152761D02*
X0398342Y0152761D01*
X0398342Y0153359D02*
X0381343Y0153359D01*
X0381343Y0153958D02*
X0398342Y0153958D01*
X0398342Y0154556D02*
X0381343Y0154556D01*
X0381343Y0155155D02*
X0398342Y0155155D01*
X0398342Y0155753D02*
X0381343Y0155753D01*
X0381343Y0156352D02*
X0398342Y0156352D01*
X0398342Y0156950D02*
X0381343Y0156950D01*
X0381343Y0157549D02*
X0398342Y0157549D01*
X0398342Y0158147D02*
X0381343Y0158147D01*
X0381343Y0158746D02*
X0398342Y0158746D01*
X0398342Y0159344D02*
X0381343Y0159344D01*
X0381343Y0159943D02*
X0398342Y0159943D01*
X0398342Y0160541D02*
X0381343Y0160541D01*
X0381343Y0161140D02*
X0398342Y0161140D01*
X0398342Y0161738D02*
X0381343Y0161738D01*
X0381343Y0162337D02*
X0398342Y0162337D01*
X0398342Y0162935D02*
X0381343Y0162935D01*
X0381343Y0163534D02*
X0398342Y0163534D01*
X0398342Y0164132D02*
X0381343Y0164132D01*
X0381343Y0164731D02*
X0398342Y0164731D01*
X0398342Y0165329D02*
X0381343Y0165329D01*
X0381343Y0165928D02*
X0398342Y0165928D01*
X0398342Y0166526D02*
X0381343Y0166526D01*
X0381343Y0167125D02*
X0398342Y0167125D01*
X0398342Y0167723D02*
X0381343Y0167723D01*
X0381343Y0168322D02*
X0398342Y0168322D01*
X0398342Y0168920D02*
X0381343Y0168920D01*
X0381343Y0169519D02*
X0398342Y0169519D01*
X0398342Y0170117D02*
X0381343Y0170117D01*
X0381343Y0170716D02*
X0398342Y0170716D01*
X0398342Y0171314D02*
X0381343Y0171314D01*
X0381343Y0171913D02*
X0398342Y0171913D01*
X0398342Y0172511D02*
X0381343Y0172511D01*
X0381343Y0173110D02*
X0398342Y0173110D01*
X0398342Y0173708D02*
X0381343Y0173708D01*
X0381343Y0174307D02*
X0398342Y0174307D01*
X0398342Y0174905D02*
X0381343Y0174905D01*
X0381343Y0175504D02*
X0398342Y0175504D01*
X0398342Y0176103D02*
X0381343Y0176103D01*
X0381343Y0176701D02*
X0398342Y0176701D01*
X0398342Y0177300D02*
X0381343Y0177300D01*
X0381343Y0177898D02*
X0398342Y0177898D01*
X0398342Y0178497D02*
X0381343Y0178497D01*
X0381343Y0179095D02*
X0398342Y0179095D01*
X0398342Y0179694D02*
X0381343Y0179694D01*
X0381343Y0180292D02*
X0398342Y0180292D01*
X0398342Y0180891D02*
X0381343Y0180891D01*
X0381343Y0181489D02*
X0398342Y0181489D01*
X0398342Y0182088D02*
X0381343Y0182088D01*
X0381343Y0182686D02*
X0398342Y0182686D01*
X0398342Y0183285D02*
X0381343Y0183285D01*
X0381343Y0183883D02*
X0398342Y0183883D01*
X0398342Y0184482D02*
X0381343Y0184482D01*
X0381343Y0185080D02*
X0398342Y0185080D01*
X0398342Y0185679D02*
X0381343Y0185679D01*
X0381343Y0186277D02*
X0398342Y0186277D01*
X0398342Y0186876D02*
X0381343Y0186876D01*
X0381343Y0187474D02*
X0398342Y0187474D01*
X0398342Y0188073D02*
X0381343Y0188073D01*
X0381343Y0188671D02*
X0398342Y0188671D01*
X0398342Y0189270D02*
X0381343Y0189270D01*
X0381343Y0189868D02*
X0398342Y0189868D01*
X0398342Y0190467D02*
X0381343Y0190467D01*
X0381343Y0191065D02*
X0398342Y0191065D01*
X0398342Y0191664D02*
X0381343Y0191664D01*
X0381343Y0192262D02*
X0398342Y0192262D01*
X0398342Y0192861D02*
X0381343Y0192861D01*
X0381343Y0193459D02*
X0398342Y0193459D01*
X0398342Y0194058D02*
X0381343Y0194058D01*
X0381343Y0194656D02*
X0398342Y0194656D01*
X0398342Y0195255D02*
X0381343Y0195255D01*
X0381343Y0195853D02*
X0398342Y0195853D01*
X0398342Y0196452D02*
X0381343Y0196452D01*
X0381343Y0197050D02*
X0398342Y0197050D01*
X0398342Y0197649D02*
X0381343Y0197649D01*
X0381343Y0198247D02*
X0398342Y0198247D01*
X0398342Y0198846D02*
X0381343Y0198846D01*
X0381343Y0199444D02*
X0398342Y0199444D01*
X0398342Y0200043D02*
X0381343Y0200043D01*
X0381343Y0200641D02*
X0398342Y0200641D01*
X0398342Y0201240D02*
X0381343Y0201240D01*
X0381343Y0201839D02*
X0398342Y0201839D01*
X0398342Y0202437D02*
X0381343Y0202437D01*
X0381343Y0203036D02*
X0398342Y0203036D01*
X0398342Y0203634D02*
X0381343Y0203634D01*
X0381343Y0204233D02*
X0398342Y0204233D01*
X0398342Y0204831D02*
X0381343Y0204831D01*
X0381343Y0205430D02*
X0398342Y0205430D01*
X0398342Y0206028D02*
X0381343Y0206028D01*
X0381343Y0206627D02*
X0398342Y0206627D01*
X0398342Y0207225D02*
X0381343Y0207225D01*
X0381343Y0207824D02*
X0398342Y0207824D01*
X0398342Y0208422D02*
X0381343Y0208422D01*
X0381343Y0209021D02*
X0398342Y0209021D01*
X0398342Y0209619D02*
X0381343Y0209619D01*
X0381343Y0210218D02*
X0398342Y0210218D01*
X0398342Y0210816D02*
X0381343Y0210816D01*
X0381343Y0211415D02*
X0398342Y0211415D01*
X0398342Y0212013D02*
X0381343Y0212013D01*
X0381343Y0212612D02*
X0398342Y0212612D01*
X0398342Y0213210D02*
X0381343Y0213210D01*
X0381343Y0213809D02*
X0398342Y0213809D01*
X0398342Y0214407D02*
X0381343Y0214407D01*
X0381343Y0215006D02*
X0398342Y0215006D01*
X0398342Y0215604D02*
X0381343Y0215604D01*
X0381343Y0216203D02*
X0398342Y0216203D01*
X0398342Y0216801D02*
X0381343Y0216801D01*
X0381343Y0217400D02*
X0398342Y0217400D01*
X0398342Y0217998D02*
X0381343Y0217998D01*
X0381343Y0218597D02*
X0398342Y0218597D01*
X0398342Y0219195D02*
X0381343Y0219195D01*
X0381343Y0219794D02*
X0398342Y0219794D01*
X0398342Y0220392D02*
X0381343Y0220392D01*
X0381343Y0220991D02*
X0398342Y0220991D01*
X0398342Y0221589D02*
X0381343Y0221589D01*
X0381343Y0222188D02*
X0398342Y0222188D01*
X0398342Y0222786D02*
X0381343Y0222786D01*
X0381343Y0223385D02*
X0398342Y0223385D01*
X0398342Y0223983D02*
X0381343Y0223983D01*
X0381343Y0224582D02*
X0398342Y0224582D01*
X0398342Y0225180D02*
X0381343Y0225180D01*
X0381343Y0225779D02*
X0398342Y0225779D01*
X0398342Y0226377D02*
X0381343Y0226377D01*
X0381343Y0226976D02*
X0398342Y0226976D01*
X0398342Y0227574D02*
X0381343Y0227574D01*
X0381343Y0228173D02*
X0398342Y0228173D01*
X0398342Y0228772D02*
X0381343Y0228772D01*
X0381343Y0229370D02*
X0398342Y0229370D01*
X0398342Y0229969D02*
X0381343Y0229969D01*
X0381343Y0230567D02*
X0398342Y0230567D01*
X0398342Y0231166D02*
X0381343Y0231166D01*
X0381343Y0231764D02*
X0398342Y0231764D01*
X0398342Y0232363D02*
X0381343Y0232363D01*
X0381343Y0232961D02*
X0398342Y0232961D01*
X0398342Y0233560D02*
X0381343Y0233560D01*
X0381343Y0234158D02*
X0398342Y0234158D01*
X0398342Y0234757D02*
X0381343Y0234757D01*
X0381343Y0235355D02*
X0398342Y0235355D01*
X0398342Y0235954D02*
X0381343Y0235954D01*
X0381343Y0236552D02*
X0398342Y0236552D01*
X0398342Y0237151D02*
X0381343Y0237151D01*
X0381343Y0237749D02*
X0398342Y0237749D01*
X0398342Y0238348D02*
X0381343Y0238348D01*
X0381343Y0238946D02*
X0398342Y0238946D01*
X0398342Y0239545D02*
X0381343Y0239545D01*
X0381343Y0240143D02*
X0398342Y0240143D01*
X0398342Y0240742D02*
X0381343Y0240742D01*
X0381343Y0241340D02*
X0398342Y0241340D01*
X0398342Y0241939D02*
X0381343Y0241939D01*
X0381343Y0242537D02*
X0398342Y0242537D01*
X0398342Y0243136D02*
X0381343Y0243136D01*
X0381343Y0243734D02*
X0398342Y0243734D01*
X0398342Y0244333D02*
X0381343Y0244333D01*
X0381343Y0244931D02*
X0398342Y0244931D01*
X0398342Y0245530D02*
X0381343Y0245530D01*
X0381343Y0246128D02*
X0398342Y0246128D01*
X0398342Y0246727D02*
X0381343Y0246727D01*
X0381343Y0247325D02*
X0398342Y0247325D01*
X0398342Y0247924D02*
X0381343Y0247924D01*
X0381343Y0248522D02*
X0398342Y0248522D01*
X0398342Y0249121D02*
X0381343Y0249121D01*
X0381343Y0249719D02*
X0398342Y0249719D01*
X0398342Y0250318D02*
X0381343Y0250318D01*
X0381343Y0250916D02*
X0398342Y0250916D01*
X0398342Y0251515D02*
X0381343Y0251515D01*
X0381343Y0252113D02*
X0398342Y0252113D01*
X0398342Y0252712D02*
X0381343Y0252712D01*
X0381343Y0253310D02*
X0398342Y0253310D01*
X0398342Y0253909D02*
X0381343Y0253909D01*
X0381343Y0254508D02*
X0398342Y0254508D01*
X0398342Y0255106D02*
X0381343Y0255106D01*
X0381343Y0255705D02*
X0398342Y0255705D01*
X0398342Y0256303D02*
X0381343Y0256303D01*
X0381343Y0256902D02*
X0398342Y0256902D01*
X0398342Y0257500D02*
X0381343Y0257500D01*
X0381343Y0258099D02*
X0398342Y0258099D01*
X0398342Y0258697D02*
X0381343Y0258697D01*
X0381343Y0259296D02*
X0398342Y0259296D01*
X0398342Y0259894D02*
X0381343Y0259894D01*
X0381343Y0260493D02*
X0398342Y0260493D01*
X0398342Y0261091D02*
X0381343Y0261091D01*
X0381343Y0261690D02*
X0398342Y0261690D01*
X0398342Y0262288D02*
X0381343Y0262288D01*
X0381343Y0262887D02*
X0398342Y0262887D01*
X0398342Y0263485D02*
X0381343Y0263485D01*
X0381343Y0264084D02*
X0398342Y0264084D01*
X0398342Y0264682D02*
X0381343Y0264682D01*
X0381343Y0265281D02*
X0398342Y0265281D01*
X0398342Y0265879D02*
X0381343Y0265879D01*
X0381343Y0266478D02*
X0398342Y0266478D01*
X0398342Y0267076D02*
X0381343Y0267076D01*
X0381111Y0267675D02*
X0398342Y0267675D01*
X0398342Y0268273D02*
X0380863Y0268273D01*
X0380513Y0268872D02*
X0398342Y0268872D01*
X0398342Y0269470D02*
X0379914Y0269470D01*
X0379085Y0270069D02*
X0398342Y0270069D01*
X0398342Y0270667D02*
X0048239Y0270667D01*
X0048229Y0270069D02*
X0056299Y0270069D01*
X0055470Y0269470D02*
X0048218Y0269470D01*
X0048207Y0268872D02*
X0054872Y0268872D01*
X0054521Y0268273D02*
X0048196Y0268273D01*
X0048185Y0267675D02*
X0054273Y0267675D01*
X0054042Y0267076D02*
X0048174Y0267076D01*
X0048163Y0266478D02*
X0054042Y0266478D01*
X0054042Y0265879D02*
X0048152Y0265879D01*
X0048141Y0265281D02*
X0054042Y0265281D01*
X0054042Y0264682D02*
X0048131Y0264682D01*
X0048120Y0264084D02*
X0054042Y0264084D01*
X0054042Y0263485D02*
X0048109Y0263485D01*
X0048098Y0262887D02*
X0054042Y0262887D01*
X0054042Y0262288D02*
X0048087Y0262288D01*
X0048076Y0261690D02*
X0054042Y0261690D01*
X0054042Y0261091D02*
X0048065Y0261091D01*
X0048054Y0260493D02*
X0054042Y0260493D01*
X0054042Y0259894D02*
X0048044Y0259894D01*
X0048033Y0259296D02*
X0054042Y0259296D01*
X0054042Y0258697D02*
X0048022Y0258697D01*
X0048011Y0258099D02*
X0054042Y0258099D01*
X0054042Y0257500D02*
X0048000Y0257500D01*
X0047989Y0256902D02*
X0054042Y0256902D01*
X0054042Y0256303D02*
X0047978Y0256303D01*
X0047967Y0255705D02*
X0054042Y0255705D01*
X0054042Y0255106D02*
X0047956Y0255106D01*
X0047946Y0254508D02*
X0054042Y0254508D01*
X0054042Y0253909D02*
X0047935Y0253909D01*
X0047924Y0253310D02*
X0054042Y0253310D01*
X0054042Y0252712D02*
X0047913Y0252712D01*
X0047902Y0252113D02*
X0054042Y0252113D01*
X0054042Y0251515D02*
X0047891Y0251515D01*
X0047880Y0250916D02*
X0054042Y0250916D01*
X0054042Y0250318D02*
X0047869Y0250318D01*
X0047859Y0249719D02*
X0054042Y0249719D01*
X0054042Y0249121D02*
X0047848Y0249121D01*
X0047837Y0248522D02*
X0054042Y0248522D01*
X0054042Y0247924D02*
X0047826Y0247924D01*
X0047815Y0247325D02*
X0054042Y0247325D01*
X0054042Y0246727D02*
X0047804Y0246727D01*
X0047793Y0246128D02*
X0054042Y0246128D01*
X0054042Y0245530D02*
X0047782Y0245530D01*
X0047771Y0244931D02*
X0054042Y0244931D01*
X0054042Y0244333D02*
X0047761Y0244333D01*
X0047750Y0243734D02*
X0054042Y0243734D01*
X0054042Y0243136D02*
X0047739Y0243136D01*
X0047728Y0242537D02*
X0054042Y0242537D01*
X0054042Y0241939D02*
X0047717Y0241939D01*
X0047706Y0241340D02*
X0054042Y0241340D01*
X0054042Y0240742D02*
X0047695Y0240742D01*
X0047684Y0240143D02*
X0054042Y0240143D01*
X0054042Y0239545D02*
X0047674Y0239545D01*
X0047663Y0238946D02*
X0054042Y0238946D01*
X0054042Y0238348D02*
X0047652Y0238348D01*
X0047641Y0237749D02*
X0054042Y0237749D01*
X0054042Y0237151D02*
X0047630Y0237151D01*
X0047619Y0236552D02*
X0054042Y0236552D01*
X0054042Y0235954D02*
X0047608Y0235954D01*
X0047597Y0235355D02*
X0054042Y0235355D01*
X0054042Y0234757D02*
X0047586Y0234757D01*
X0047576Y0234158D02*
X0054042Y0234158D01*
X0054042Y0233560D02*
X0047565Y0233560D01*
X0047554Y0232961D02*
X0054042Y0232961D01*
X0054042Y0232363D02*
X0047543Y0232363D01*
X0047532Y0231764D02*
X0054042Y0231764D01*
X0054042Y0231166D02*
X0047521Y0231166D01*
X0047510Y0230567D02*
X0054042Y0230567D01*
X0054042Y0229969D02*
X0047499Y0229969D01*
X0047489Y0229370D02*
X0054042Y0229370D01*
X0054042Y0228772D02*
X0047478Y0228772D01*
X0047467Y0228173D02*
X0054042Y0228173D01*
X0054042Y0227574D02*
X0047456Y0227574D01*
X0047445Y0226976D02*
X0054042Y0226976D01*
X0054042Y0226377D02*
X0047434Y0226377D01*
X0047423Y0225779D02*
X0054042Y0225779D01*
X0054042Y0225180D02*
X0047412Y0225180D01*
X0047401Y0224582D02*
X0054042Y0224582D01*
X0054042Y0223983D02*
X0047391Y0223983D01*
X0047380Y0223385D02*
X0054042Y0223385D01*
X0054042Y0222786D02*
X0047369Y0222786D01*
X0047358Y0222188D02*
X0054042Y0222188D01*
X0054042Y0221589D02*
X0047347Y0221589D01*
X0047336Y0220991D02*
X0054042Y0220991D01*
X0054042Y0220392D02*
X0047325Y0220392D01*
X0047314Y0219794D02*
X0054042Y0219794D01*
X0054042Y0219195D02*
X0047304Y0219195D01*
X0047293Y0218597D02*
X0054042Y0218597D01*
X0054042Y0217998D02*
X0047282Y0217998D01*
X0047271Y0217400D02*
X0054042Y0217400D01*
X0054042Y0216801D02*
X0047260Y0216801D01*
X0047249Y0216203D02*
X0054042Y0216203D01*
X0054042Y0215604D02*
X0047238Y0215604D01*
X0047227Y0215006D02*
X0054042Y0215006D01*
X0054042Y0214407D02*
X0047216Y0214407D01*
X0047206Y0213809D02*
X0054042Y0213809D01*
X0054042Y0213210D02*
X0047195Y0213210D01*
X0047184Y0212612D02*
X0054042Y0212612D01*
X0054042Y0212013D02*
X0047173Y0212013D01*
X0047162Y0211415D02*
X0054042Y0211415D01*
X0054042Y0210816D02*
X0047151Y0210816D01*
X0047140Y0210218D02*
X0054042Y0210218D01*
X0054042Y0209619D02*
X0047129Y0209619D01*
X0047119Y0209021D02*
X0054042Y0209021D01*
X0054042Y0208422D02*
X0047108Y0208422D01*
X0047097Y0207824D02*
X0054042Y0207824D01*
X0054042Y0207225D02*
X0047086Y0207225D01*
X0047075Y0206627D02*
X0054042Y0206627D01*
X0054042Y0206028D02*
X0047064Y0206028D01*
X0047053Y0205430D02*
X0054042Y0205430D01*
X0054042Y0204831D02*
X0047042Y0204831D01*
X0047031Y0204233D02*
X0054042Y0204233D01*
X0054042Y0203634D02*
X0047021Y0203634D01*
X0047010Y0203036D02*
X0054042Y0203036D01*
X0054042Y0202437D02*
X0046999Y0202437D01*
X0046988Y0201839D02*
X0054042Y0201839D01*
X0054042Y0201240D02*
X0046977Y0201240D01*
X0046966Y0200641D02*
X0054042Y0200641D01*
X0054042Y0200043D02*
X0046955Y0200043D01*
X0046944Y0199444D02*
X0054042Y0199444D01*
X0054042Y0198846D02*
X0046934Y0198846D01*
X0046923Y0198247D02*
X0054042Y0198247D01*
X0054042Y0197649D02*
X0046912Y0197649D01*
X0046901Y0197050D02*
X0054042Y0197050D01*
X0054042Y0196452D02*
X0046890Y0196452D01*
X0046879Y0195853D02*
X0054042Y0195853D01*
X0054042Y0195255D02*
X0046868Y0195255D01*
X0046857Y0194656D02*
X0054042Y0194656D01*
X0054042Y0194058D02*
X0046846Y0194058D01*
X0046836Y0193459D02*
X0054042Y0193459D01*
X0054042Y0192861D02*
X0046825Y0192861D01*
X0046814Y0192262D02*
X0054042Y0192262D01*
X0054042Y0191664D02*
X0046803Y0191664D01*
X0046792Y0191065D02*
X0054042Y0191065D01*
X0054042Y0190467D02*
X0046781Y0190467D01*
X0046770Y0189868D02*
X0054042Y0189868D01*
X0054042Y0189270D02*
X0046759Y0189270D01*
X0046749Y0188671D02*
X0054042Y0188671D01*
X0054042Y0188073D02*
X0046738Y0188073D01*
X0046727Y0187474D02*
X0054042Y0187474D01*
X0054042Y0186876D02*
X0046716Y0186876D01*
X0046705Y0186277D02*
X0054042Y0186277D01*
X0054042Y0185679D02*
X0046694Y0185679D01*
X0046683Y0185080D02*
X0054042Y0185080D01*
X0054042Y0184482D02*
X0046672Y0184482D01*
X0046661Y0183883D02*
X0054042Y0183883D01*
X0054042Y0183285D02*
X0046651Y0183285D01*
X0046640Y0182686D02*
X0054042Y0182686D01*
X0054042Y0182088D02*
X0046629Y0182088D01*
X0046618Y0181489D02*
X0054042Y0181489D01*
X0054042Y0180891D02*
X0046607Y0180891D01*
X0046596Y0180292D02*
X0054042Y0180292D01*
X0054042Y0179694D02*
X0046585Y0179694D01*
X0046574Y0179095D02*
X0054042Y0179095D01*
X0054042Y0178497D02*
X0046564Y0178497D01*
X0046553Y0177898D02*
X0054042Y0177898D01*
X0054042Y0177300D02*
X0046542Y0177300D01*
X0046531Y0176701D02*
X0054042Y0176701D01*
X0054042Y0176103D02*
X0046520Y0176103D01*
X0046509Y0175504D02*
X0054042Y0175504D01*
X0054042Y0174905D02*
X0046498Y0174905D01*
X0046487Y0174307D02*
X0054042Y0174307D01*
X0054042Y0173708D02*
X0046477Y0173708D01*
X0046466Y0173110D02*
X0054042Y0173110D01*
X0054042Y0172511D02*
X0046455Y0172511D01*
X0046444Y0171913D02*
X0054042Y0171913D01*
X0054042Y0171314D02*
X0046433Y0171314D01*
X0046422Y0170716D02*
X0054042Y0170716D01*
X0054042Y0170117D02*
X0046411Y0170117D01*
X0046400Y0169519D02*
X0054042Y0169519D01*
X0054042Y0168920D02*
X0046389Y0168920D01*
X0046379Y0168322D02*
X0054042Y0168322D01*
X0054042Y0167723D02*
X0046368Y0167723D01*
X0046357Y0167125D02*
X0054042Y0167125D01*
X0054042Y0166526D02*
X0046346Y0166526D01*
X0046335Y0165928D02*
X0054042Y0165928D01*
X0054042Y0165329D02*
X0046324Y0165329D01*
X0046313Y0164731D02*
X0054042Y0164731D01*
X0054042Y0164132D02*
X0046302Y0164132D01*
X0046292Y0163534D02*
X0054042Y0163534D01*
X0054042Y0162935D02*
X0046281Y0162935D01*
X0046270Y0162337D02*
X0054042Y0162337D01*
X0054042Y0161738D02*
X0046259Y0161738D01*
X0046248Y0161140D02*
X0054042Y0161140D01*
X0054042Y0160541D02*
X0046237Y0160541D01*
X0046226Y0159943D02*
X0054042Y0159943D01*
X0054042Y0159344D02*
X0046215Y0159344D01*
X0046204Y0158746D02*
X0054042Y0158746D01*
X0054042Y0158147D02*
X0046194Y0158147D01*
X0046183Y0157549D02*
X0054042Y0157549D01*
X0054042Y0156950D02*
X0046172Y0156950D01*
X0046161Y0156352D02*
X0054042Y0156352D01*
X0054042Y0155753D02*
X0046150Y0155753D01*
X0046139Y0155155D02*
X0054042Y0155155D01*
X0054042Y0154556D02*
X0046128Y0154556D01*
X0046117Y0153958D02*
X0054042Y0153958D01*
X0054042Y0153359D02*
X0046107Y0153359D01*
X0046096Y0152761D02*
X0054042Y0152761D01*
X0054042Y0152162D02*
X0046085Y0152162D01*
X0046074Y0151564D02*
X0054042Y0151564D01*
X0054042Y0150965D02*
X0046063Y0150965D01*
X0046052Y0150367D02*
X0054042Y0150367D01*
X0054042Y0149768D02*
X0046041Y0149768D01*
X0046030Y0149170D02*
X0054042Y0149170D01*
X0054042Y0148571D02*
X0046019Y0148571D01*
X0046009Y0147972D02*
X0054042Y0147972D01*
X0054042Y0147374D02*
X0045998Y0147374D01*
X0045987Y0146775D02*
X0054042Y0146775D01*
X0054042Y0146177D02*
X0045976Y0146177D01*
X0045965Y0145578D02*
X0054042Y0145578D01*
X0054042Y0144980D02*
X0045954Y0144980D01*
X0045943Y0144381D02*
X0054042Y0144381D01*
X0054042Y0143783D02*
X0045932Y0143783D01*
X0045922Y0143184D02*
X0054042Y0143184D01*
X0054042Y0142586D02*
X0045911Y0142586D01*
X0045900Y0141987D02*
X0054042Y0141987D01*
X0054042Y0141389D02*
X0045889Y0141389D01*
X0045878Y0140790D02*
X0054042Y0140790D01*
X0054042Y0140192D02*
X0045867Y0140192D01*
X0045856Y0139593D02*
X0054042Y0139593D01*
X0054042Y0138995D02*
X0045845Y0138995D01*
X0045834Y0138396D02*
X0054042Y0138396D01*
X0054042Y0137798D02*
X0045824Y0137798D01*
X0045813Y0137199D02*
X0054042Y0137199D01*
X0054042Y0136601D02*
X0045802Y0136601D01*
X0045791Y0136002D02*
X0054042Y0136002D01*
X0054042Y0135404D02*
X0045780Y0135404D01*
X0045769Y0134805D02*
X0054042Y0134805D01*
X0054042Y0134207D02*
X0045758Y0134207D01*
X0045747Y0133608D02*
X0054042Y0133608D01*
X0054042Y0133010D02*
X0045737Y0133010D01*
X0045726Y0132411D02*
X0054042Y0132411D01*
X0054042Y0131813D02*
X0045715Y0131813D01*
X0045704Y0131214D02*
X0054042Y0131214D01*
X0054042Y0130616D02*
X0045693Y0130616D01*
X0045682Y0130017D02*
X0054042Y0130017D01*
X0054042Y0129419D02*
X0045671Y0129419D01*
X0045660Y0128820D02*
X0054042Y0128820D01*
X0054042Y0128222D02*
X0045649Y0128222D01*
X0045639Y0127623D02*
X0054042Y0127623D01*
X0054042Y0127025D02*
X0045628Y0127025D01*
X0045617Y0126426D02*
X0054042Y0126426D01*
X0054042Y0125828D02*
X0045606Y0125828D01*
X0045595Y0125229D02*
X0054042Y0125229D01*
X0054042Y0124631D02*
X0045584Y0124631D01*
X0045573Y0124032D02*
X0054042Y0124032D01*
X0054042Y0123434D02*
X0045562Y0123434D01*
X0045552Y0122835D02*
X0054042Y0122835D01*
X0054042Y0122237D02*
X0045541Y0122237D01*
X0045530Y0121638D02*
X0054042Y0121638D01*
X0054042Y0121039D02*
X0045519Y0121039D01*
X0045508Y0120441D02*
X0054042Y0120441D01*
X0054042Y0119842D02*
X0045497Y0119842D01*
X0045486Y0119244D02*
X0054042Y0119244D01*
X0054042Y0118645D02*
X0045475Y0118645D01*
X0045464Y0118047D02*
X0054042Y0118047D01*
X0054042Y0117448D02*
X0045454Y0117448D01*
X0045443Y0116850D02*
X0054042Y0116850D01*
X0054042Y0116251D02*
X0045432Y0116251D01*
X0045421Y0115653D02*
X0054042Y0115653D01*
X0054042Y0115054D02*
X0045410Y0115054D01*
X0045399Y0114456D02*
X0054042Y0114456D01*
X0054042Y0113857D02*
X0045388Y0113857D01*
X0045377Y0113259D02*
X0054042Y0113259D01*
X0054042Y0112660D02*
X0045367Y0112660D01*
X0045356Y0112062D02*
X0054042Y0112062D01*
X0054042Y0111463D02*
X0045345Y0111463D01*
X0045334Y0110865D02*
X0054042Y0110865D01*
X0054042Y0110266D02*
X0045323Y0110266D01*
X0045312Y0109668D02*
X0054042Y0109668D01*
X0054042Y0109069D02*
X0045301Y0109069D01*
X0045290Y0108471D02*
X0054042Y0108471D01*
X0054042Y0107872D02*
X0045279Y0107872D01*
X0045269Y0107274D02*
X0054042Y0107274D01*
X0054042Y0106675D02*
X0045258Y0106675D01*
X0045247Y0106077D02*
X0054042Y0106077D01*
X0054042Y0105478D02*
X0045236Y0105478D01*
X0045225Y0104880D02*
X0054042Y0104880D01*
X0054042Y0104281D02*
X0045214Y0104281D01*
X0045203Y0103683D02*
X0054042Y0103683D01*
X0054042Y0103084D02*
X0045192Y0103084D01*
X0045182Y0102486D02*
X0054042Y0102486D01*
X0054042Y0101887D02*
X0045171Y0101887D01*
X0045160Y0101289D02*
X0054042Y0101289D01*
X0054042Y0100690D02*
X0045149Y0100690D01*
X0045138Y0100092D02*
X0054042Y0100092D01*
X0054042Y0099493D02*
X0045127Y0099493D01*
X0045116Y0098895D02*
X0054042Y0098895D01*
X0054042Y0098296D02*
X0045105Y0098296D01*
X0045094Y0097698D02*
X0054042Y0097698D01*
X0054042Y0097099D02*
X0045084Y0097099D01*
X0045073Y0096501D02*
X0054042Y0096501D01*
X0054042Y0095902D02*
X0045062Y0095902D01*
X0045051Y0095303D02*
X0054042Y0095303D01*
X0054042Y0094705D02*
X0045040Y0094705D01*
X0045029Y0094106D02*
X0054042Y0094106D01*
X0054042Y0093508D02*
X0045018Y0093508D01*
X0045007Y0092909D02*
X0054042Y0092909D01*
X0054042Y0092311D02*
X0044997Y0092311D01*
X0044986Y0091712D02*
X0054042Y0091712D01*
X0054042Y0091114D02*
X0044975Y0091114D01*
X0044964Y0090515D02*
X0054042Y0090515D01*
X0054042Y0089917D02*
X0044953Y0089917D01*
X0044942Y0089318D02*
X0054042Y0089318D01*
X0054042Y0088720D02*
X0044931Y0088720D01*
X0044920Y0088121D02*
X0054042Y0088121D01*
X0054042Y0087523D02*
X0044909Y0087523D01*
X0044899Y0086924D02*
X0054042Y0086924D01*
X0054042Y0086326D02*
X0044888Y0086326D01*
X0044877Y0085727D02*
X0054042Y0085727D01*
X0054042Y0085129D02*
X0044866Y0085129D01*
X0044855Y0084530D02*
X0054042Y0084530D01*
X0054042Y0083932D02*
X0044844Y0083932D01*
X0044833Y0083333D02*
X0054042Y0083333D01*
X0054042Y0082735D02*
X0044822Y0082735D01*
X0044812Y0082136D02*
X0054042Y0082136D01*
X0054042Y0081538D02*
X0044801Y0081538D01*
X0044790Y0080939D02*
X0054042Y0080939D01*
X0054042Y0080341D02*
X0044779Y0080341D01*
X0044768Y0079742D02*
X0054042Y0079742D01*
X0054042Y0079144D02*
X0044757Y0079144D01*
X0044746Y0078545D02*
X0054042Y0078545D01*
X0054042Y0077947D02*
X0044735Y0077947D01*
X0044724Y0077348D02*
X0054042Y0077348D01*
X0054042Y0076750D02*
X0044714Y0076750D01*
X0044703Y0076151D02*
X0054042Y0076151D01*
X0054042Y0075553D02*
X0044692Y0075553D01*
X0044681Y0074954D02*
X0054042Y0074954D01*
X0054042Y0074356D02*
X0044670Y0074356D01*
X0044659Y0073757D02*
X0054042Y0073757D01*
X0054042Y0073159D02*
X0044648Y0073159D01*
X0044637Y0072560D02*
X0054042Y0072560D01*
X0054042Y0071962D02*
X0044627Y0071962D01*
X0044616Y0071363D02*
X0054042Y0071363D01*
X0054042Y0070765D02*
X0044605Y0070765D01*
X0044594Y0070166D02*
X0054042Y0070166D01*
X0054042Y0069568D02*
X0044583Y0069568D01*
X0044572Y0068969D02*
X0054042Y0068969D01*
X0054042Y0068370D02*
X0044561Y0068370D01*
X0044550Y0067772D02*
X0054042Y0067772D01*
X0054042Y0067173D02*
X0044540Y0067173D01*
X0044529Y0066575D02*
X0054042Y0066575D01*
X0054042Y0065976D02*
X0044518Y0065976D01*
X0044507Y0065378D02*
X0054042Y0065378D01*
X0054042Y0064779D02*
X0044496Y0064779D01*
X0044485Y0064181D02*
X0054042Y0064181D01*
X0054042Y0063582D02*
X0044474Y0063582D01*
X0044463Y0062984D02*
X0054042Y0062984D01*
X0054042Y0062385D02*
X0044452Y0062385D01*
X0044442Y0061787D02*
X0054042Y0061787D01*
X0054042Y0061188D02*
X0044431Y0061188D01*
X0044420Y0060590D02*
X0054042Y0060590D01*
X0054042Y0059991D02*
X0044409Y0059991D01*
X0044398Y0059393D02*
X0054042Y0059393D01*
X0054042Y0058794D02*
X0044387Y0058794D01*
X0044376Y0058196D02*
X0054042Y0058196D01*
X0054042Y0057597D02*
X0044365Y0057597D01*
X0044355Y0056999D02*
X0054042Y0056999D01*
X0054042Y0056400D02*
X0044344Y0056400D01*
X0044333Y0055802D02*
X0054042Y0055802D01*
X0054042Y0055203D02*
X0044322Y0055203D01*
X0044311Y0054605D02*
X0054042Y0054605D01*
X0054042Y0054006D02*
X0044300Y0054006D01*
X0044289Y0053408D02*
X0054042Y0053408D01*
X0054042Y0052809D02*
X0044278Y0052809D01*
X0044267Y0052211D02*
X0054042Y0052211D01*
X0054042Y0051612D02*
X0044257Y0051612D01*
X0044246Y0051014D02*
X0054042Y0051014D01*
X0054042Y0050415D02*
X0044235Y0050415D01*
X0044224Y0049817D02*
X0054042Y0049817D01*
X0054042Y0049218D02*
X0044213Y0049218D01*
X0044202Y0048620D02*
X0054042Y0048620D01*
X0054042Y0048021D02*
X0044191Y0048021D01*
X0044180Y0047423D02*
X0054042Y0047423D01*
X0054042Y0046824D02*
X0044170Y0046824D01*
X0044159Y0046226D02*
X0054042Y0046226D01*
X0054042Y0045627D02*
X0044148Y0045627D01*
X0044137Y0045029D02*
X0054042Y0045029D01*
X0054042Y0044430D02*
X0044126Y0044430D01*
X0044115Y0043832D02*
X0054042Y0043832D01*
X0054042Y0043233D02*
X0044104Y0043233D01*
X0044093Y0042634D02*
X0054042Y0042634D01*
X0054042Y0042036D02*
X0044082Y0042036D01*
X0044072Y0041437D02*
X0054042Y0041437D01*
X0054042Y0040839D02*
X0044061Y0040839D01*
X0044050Y0040240D02*
X0054126Y0040240D01*
X0054374Y0039642D02*
X0044039Y0039642D01*
X0044028Y0039043D02*
X0054622Y0039043D01*
X0055116Y0038445D02*
X0044017Y0038445D01*
X0044006Y0037846D02*
X0055714Y0037846D01*
X0056888Y0037248D02*
X0043995Y0037248D01*
X0062642Y0045600D02*
X0062642Y0048681D01*
X0063028Y0047749D01*
X0064791Y0045986D01*
X0065722Y0045600D01*
X0062642Y0045600D01*
X0062642Y0045627D02*
X0065657Y0045627D01*
X0064551Y0046226D02*
X0062642Y0046226D01*
X0062642Y0046824D02*
X0063953Y0046824D01*
X0063354Y0047423D02*
X0062642Y0047423D01*
X0062642Y0048021D02*
X0062915Y0048021D01*
X0062667Y0048620D02*
X0062642Y0048620D01*
X0062642Y0053919D02*
X0062642Y0253681D01*
X0063028Y0252749D01*
X0064791Y0250986D01*
X0067095Y0250031D01*
X0069589Y0250031D01*
X0071893Y0250986D01*
X0073656Y0252749D01*
X0074610Y0255053D01*
X0074610Y0257547D01*
X0073656Y0259851D01*
X0071893Y0261614D01*
X0071056Y0261961D01*
X0360627Y0261961D01*
X0359791Y0261614D01*
X0358028Y0259851D01*
X0357073Y0257547D01*
X0357073Y0255053D01*
X0358028Y0252749D01*
X0359791Y0250986D01*
X0362095Y0250031D01*
X0364589Y0250031D01*
X0366893Y0250986D01*
X0368656Y0252749D01*
X0369610Y0255053D01*
X0369610Y0257547D01*
X0368656Y0259851D01*
X0366893Y0261614D01*
X0366056Y0261961D01*
X0372743Y0261961D01*
X0372743Y0045600D01*
X0360961Y0045600D01*
X0361893Y0045986D01*
X0363656Y0047749D01*
X0364610Y0050053D01*
X0364610Y0052547D01*
X0363656Y0054851D01*
X0361893Y0056614D01*
X0359589Y0057568D01*
X0357095Y0057568D01*
X0354791Y0056614D01*
X0353028Y0054851D01*
X0352073Y0052547D01*
X0352073Y0050053D01*
X0353028Y0047749D01*
X0354791Y0045986D01*
X0355722Y0045600D01*
X0070961Y0045600D01*
X0071893Y0045986D01*
X0073656Y0047749D01*
X0074610Y0050053D01*
X0074610Y0052547D01*
X0073656Y0054851D01*
X0071893Y0056614D01*
X0069589Y0057568D01*
X0067095Y0057568D01*
X0064791Y0056614D01*
X0063028Y0054851D01*
X0062642Y0053919D01*
X0062642Y0054006D02*
X0062678Y0054006D01*
X0062642Y0054605D02*
X0062926Y0054605D01*
X0062642Y0055203D02*
X0063380Y0055203D01*
X0063979Y0055802D02*
X0062642Y0055802D01*
X0062642Y0056400D02*
X0064577Y0056400D01*
X0065719Y0056999D02*
X0062642Y0056999D01*
X0062642Y0057597D02*
X0372743Y0057597D01*
X0372743Y0056999D02*
X0360964Y0056999D01*
X0362107Y0056400D02*
X0372743Y0056400D01*
X0372743Y0055802D02*
X0362705Y0055802D01*
X0363304Y0055203D02*
X0372743Y0055203D01*
X0372743Y0054605D02*
X0363758Y0054605D01*
X0364006Y0054006D02*
X0372743Y0054006D01*
X0372743Y0053408D02*
X0364254Y0053408D01*
X0364502Y0052809D02*
X0372743Y0052809D01*
X0372743Y0052211D02*
X0364610Y0052211D01*
X0364610Y0051612D02*
X0372743Y0051612D01*
X0372743Y0051014D02*
X0364610Y0051014D01*
X0364610Y0050415D02*
X0372743Y0050415D01*
X0372743Y0049817D02*
X0364512Y0049817D01*
X0364264Y0049218D02*
X0372743Y0049218D01*
X0372743Y0048620D02*
X0364017Y0048620D01*
X0363769Y0048021D02*
X0372743Y0048021D01*
X0372743Y0047423D02*
X0363329Y0047423D01*
X0362731Y0046824D02*
X0372743Y0046824D01*
X0372743Y0046226D02*
X0362132Y0046226D01*
X0361026Y0045627D02*
X0372743Y0045627D01*
X0355719Y0056999D02*
X0070964Y0056999D01*
X0072107Y0056400D02*
X0088169Y0056400D01*
X0087942Y0056173D02*
X0087942Y0046427D01*
X0088469Y0045900D01*
X0098215Y0045900D01*
X0098742Y0046427D01*
X0098742Y0056173D01*
X0098215Y0056700D01*
X0088469Y0056700D01*
X0087942Y0056173D01*
X0087942Y0055802D02*
X0072705Y0055802D01*
X0073304Y0055203D02*
X0087942Y0055203D01*
X0087942Y0054605D02*
X0073758Y0054605D01*
X0074006Y0054006D02*
X0087942Y0054006D01*
X0087942Y0053408D02*
X0074254Y0053408D01*
X0074502Y0052809D02*
X0087942Y0052809D01*
X0087942Y0052211D02*
X0074610Y0052211D01*
X0074610Y0051612D02*
X0087942Y0051612D01*
X0087942Y0051014D02*
X0074610Y0051014D01*
X0074610Y0050415D02*
X0087942Y0050415D01*
X0087942Y0049817D02*
X0074512Y0049817D01*
X0074264Y0049218D02*
X0087942Y0049218D01*
X0087942Y0048620D02*
X0074017Y0048620D01*
X0073769Y0048021D02*
X0087942Y0048021D01*
X0087942Y0047423D02*
X0073329Y0047423D01*
X0072731Y0046824D02*
X0087942Y0046824D01*
X0088143Y0046226D02*
X0072132Y0046226D01*
X0071026Y0045627D02*
X0355657Y0045627D01*
X0354551Y0046226D02*
X0098540Y0046226D01*
X0098742Y0046824D02*
X0353953Y0046824D01*
X0353354Y0047423D02*
X0098742Y0047423D01*
X0098742Y0048021D02*
X0352915Y0048021D01*
X0352667Y0048620D02*
X0098742Y0048620D01*
X0098742Y0049218D02*
X0352419Y0049218D01*
X0352171Y0049817D02*
X0098742Y0049817D01*
X0098742Y0050415D02*
X0352073Y0050415D01*
X0352073Y0051014D02*
X0098742Y0051014D01*
X0098742Y0051612D02*
X0352073Y0051612D01*
X0352073Y0052211D02*
X0098742Y0052211D01*
X0098742Y0052809D02*
X0352182Y0052809D01*
X0352430Y0053408D02*
X0098742Y0053408D01*
X0098742Y0054006D02*
X0352678Y0054006D01*
X0352926Y0054605D02*
X0098742Y0054605D01*
X0098742Y0055203D02*
X0353380Y0055203D01*
X0353979Y0055802D02*
X0098742Y0055802D01*
X0098514Y0056400D02*
X0354577Y0056400D01*
X0372743Y0061188D02*
X0335780Y0061188D01*
X0335324Y0060733D02*
X0336309Y0061717D01*
X0336842Y0063004D01*
X0336842Y0069596D01*
X0336309Y0070883D01*
X0335324Y0071867D01*
X0334038Y0072400D01*
X0332646Y0072400D01*
X0331359Y0071867D01*
X0330375Y0070883D01*
X0329842Y0069596D01*
X0329842Y0063004D01*
X0330375Y0061717D01*
X0331359Y0060733D01*
X0332646Y0060200D01*
X0334038Y0060200D01*
X0335324Y0060733D01*
X0334979Y0060590D02*
X0372743Y0060590D01*
X0372743Y0059991D02*
X0306530Y0059991D01*
X0306142Y0059603D02*
X0308542Y0062003D01*
X0308542Y0067403D01*
X0309842Y0068703D01*
X0309842Y0063004D01*
X0310375Y0061717D01*
X0311359Y0060733D01*
X0312646Y0060200D01*
X0314038Y0060200D01*
X0315324Y0060733D01*
X0316309Y0061717D01*
X0316842Y0063004D01*
X0316842Y0069596D01*
X0316309Y0070883D01*
X0315324Y0071867D01*
X0314038Y0072400D01*
X0313539Y0072400D01*
X0354142Y0113003D01*
X0354142Y0122657D01*
X0355422Y0123187D01*
X0356454Y0124220D01*
X0357013Y0125570D01*
X0357013Y0127030D01*
X0356454Y0128380D01*
X0355422Y0129413D01*
X0354142Y0129943D01*
X0354142Y0143997D01*
X0336639Y0161500D01*
X0346505Y0171366D01*
X0346505Y0170530D01*
X0347094Y0169109D01*
X0348182Y0168020D01*
X0349604Y0167431D01*
X0357080Y0167431D01*
X0358502Y0168020D01*
X0359590Y0169109D01*
X0360179Y0170530D01*
X0360179Y0172069D01*
X0359590Y0173491D01*
X0358502Y0174580D01*
X0357080Y0175168D01*
X0350307Y0175168D01*
X0351039Y0175900D01*
X0358239Y0175900D01*
X0361239Y0178900D01*
X0361942Y0179603D01*
X0361942Y0184197D01*
X0358231Y0187908D01*
X0358502Y0188020D01*
X0359590Y0189109D01*
X0360179Y0190530D01*
X0360179Y0192069D01*
X0359590Y0193491D01*
X0358502Y0194580D01*
X0357080Y0195168D01*
X0349604Y0195168D01*
X0348182Y0194580D01*
X0347094Y0193491D01*
X0346505Y0192069D01*
X0346505Y0191234D01*
X0328342Y0209397D01*
X0328342Y0212997D01*
X0305542Y0235797D01*
X0304839Y0236500D01*
X0199342Y0236500D01*
X0199342Y0239558D01*
X0200533Y0240052D01*
X0201621Y0241140D01*
X0202210Y0242562D01*
X0202210Y0250038D01*
X0201621Y0251460D01*
X0200533Y0252548D01*
X0199111Y0253137D01*
X0197572Y0253137D01*
X0196150Y0252548D01*
X0195062Y0251460D01*
X0194473Y0250038D01*
X0194473Y0242562D01*
X0195062Y0241140D01*
X0196150Y0240052D01*
X0196942Y0239724D01*
X0196942Y0214197D01*
X0179542Y0196797D01*
X0179542Y0239641D01*
X0180533Y0240052D01*
X0181621Y0241140D01*
X0182210Y0242562D01*
X0182210Y0250038D01*
X0181621Y0251460D01*
X0180533Y0252548D01*
X0179111Y0253137D01*
X0177572Y0253137D01*
X0176150Y0252548D01*
X0175062Y0251460D01*
X0174473Y0250038D01*
X0174473Y0242562D01*
X0175062Y0241140D01*
X0176150Y0240052D01*
X0177142Y0239641D01*
X0177142Y0196197D01*
X0173842Y0192897D01*
X0171842Y0194897D01*
X0171842Y0197750D01*
X0169792Y0199800D01*
X0166892Y0199800D01*
X0164842Y0197750D01*
X0164842Y0194850D01*
X0166892Y0192800D01*
X0169792Y0192800D01*
X0170168Y0193177D01*
X0172145Y0191200D01*
X0164045Y0183100D01*
X0163342Y0182397D01*
X0163342Y0162203D01*
X0165745Y0159800D01*
X0160046Y0159800D01*
X0158759Y0159267D01*
X0157942Y0158450D01*
X0157942Y0168597D01*
X0157239Y0169300D01*
X0089542Y0236997D01*
X0089542Y0247800D01*
X0089792Y0247800D01*
X0091842Y0249850D01*
X0091842Y0252750D01*
X0089792Y0254800D01*
X0086892Y0254800D01*
X0084842Y0252750D01*
X0084842Y0249850D01*
X0086892Y0247800D01*
X0087142Y0247800D01*
X0087142Y0236003D01*
X0093345Y0229800D01*
X0091892Y0229800D01*
X0089842Y0227750D01*
X0089842Y0224850D01*
X0091892Y0222800D01*
X0094792Y0222800D01*
X0096842Y0224850D01*
X0096842Y0226303D01*
X0155542Y0167603D01*
X0155542Y0143397D01*
X0119542Y0179397D01*
X0119542Y0192800D01*
X0119792Y0192800D01*
X0121842Y0194850D01*
X0121842Y0197750D01*
X0119792Y0199800D01*
X0116892Y0199800D01*
X0114842Y0197750D01*
X0114842Y0197500D01*
X0098045Y0197500D01*
X0095713Y0195168D01*
X0089604Y0195168D01*
X0088182Y0194580D01*
X0087094Y0193491D01*
X0086505Y0192069D01*
X0086505Y0190530D01*
X0087094Y0189109D01*
X0088182Y0188020D01*
X0089604Y0187431D01*
X0097080Y0187431D01*
X0098502Y0188020D01*
X0099590Y0189109D01*
X0100179Y0190530D01*
X0100179Y0192069D01*
X0099590Y0193491D01*
X0098510Y0194571D01*
X0099039Y0195100D01*
X0114842Y0195100D01*
X0114842Y0194850D01*
X0116892Y0192800D01*
X0117142Y0192800D01*
X0117142Y0178403D01*
X0135745Y0159800D01*
X0130046Y0159800D01*
X0128759Y0159267D01*
X0127775Y0158283D01*
X0127242Y0156996D01*
X0127242Y0155604D01*
X0127775Y0154317D01*
X0128759Y0153333D01*
X0130046Y0152800D01*
X0136638Y0152800D01*
X0137924Y0153333D01*
X0138909Y0154317D01*
X0139442Y0155604D01*
X0139442Y0156103D01*
X0154342Y0141203D01*
X0154342Y0105803D01*
X0160342Y0099803D01*
X0160345Y0099800D01*
X0160046Y0099800D01*
X0158759Y0099267D01*
X0157775Y0098283D01*
X0157242Y0096996D01*
X0157242Y0095604D01*
X0157775Y0094317D01*
X0158759Y0093333D01*
X0160046Y0092800D01*
X0166638Y0092800D01*
X0167924Y0093333D01*
X0168909Y0094317D01*
X0169442Y0095604D01*
X0169442Y0096996D01*
X0168909Y0098283D01*
X0168092Y0099100D01*
X0180845Y0099100D01*
X0207032Y0072913D01*
X0206150Y0072548D01*
X0205062Y0071460D01*
X0204473Y0070038D01*
X0204473Y0062562D01*
X0205062Y0061140D01*
X0206150Y0060052D01*
X0207572Y0059463D01*
X0209111Y0059463D01*
X0210533Y0060052D01*
X0211621Y0061140D01*
X0212210Y0062562D01*
X0212210Y0070038D01*
X0211718Y0071227D01*
X0214473Y0068471D01*
X0214473Y0062562D01*
X0215062Y0061140D01*
X0216150Y0060052D01*
X0217572Y0059463D01*
X0219111Y0059463D01*
X0220533Y0060052D01*
X0221621Y0061140D01*
X0222210Y0062562D01*
X0222210Y0065500D01*
X0249842Y0065500D01*
X0249842Y0063004D01*
X0250375Y0061717D01*
X0251359Y0060733D01*
X0252646Y0060200D01*
X0254038Y0060200D01*
X0255324Y0060733D01*
X0256168Y0061577D01*
X0258845Y0058900D01*
X0305439Y0058900D01*
X0306142Y0059603D01*
X0305932Y0059393D02*
X0372743Y0059393D01*
X0372743Y0058794D02*
X0062642Y0058794D01*
X0062642Y0058196D02*
X0372743Y0058196D01*
X0372743Y0061787D02*
X0336338Y0061787D01*
X0336586Y0062385D02*
X0372743Y0062385D01*
X0372743Y0062984D02*
X0336834Y0062984D01*
X0336842Y0063582D02*
X0372743Y0063582D01*
X0372743Y0064181D02*
X0336842Y0064181D01*
X0336842Y0064779D02*
X0372743Y0064779D01*
X0372743Y0065378D02*
X0336842Y0065378D01*
X0336842Y0065976D02*
X0372743Y0065976D01*
X0372743Y0066575D02*
X0336842Y0066575D01*
X0336842Y0067173D02*
X0372743Y0067173D01*
X0372743Y0067772D02*
X0336842Y0067772D01*
X0336842Y0068370D02*
X0372743Y0068370D01*
X0372743Y0068969D02*
X0336842Y0068969D01*
X0336842Y0069568D02*
X0372743Y0069568D01*
X0372743Y0070166D02*
X0336606Y0070166D01*
X0336358Y0070765D02*
X0372743Y0070765D01*
X0372743Y0071363D02*
X0335828Y0071363D01*
X0335096Y0071962D02*
X0372743Y0071962D01*
X0372743Y0072560D02*
X0313699Y0072560D01*
X0314297Y0073159D02*
X0372743Y0073159D01*
X0372743Y0073757D02*
X0314896Y0073757D01*
X0315494Y0074356D02*
X0372743Y0074356D01*
X0372743Y0074954D02*
X0316093Y0074954D01*
X0316691Y0075553D02*
X0372743Y0075553D01*
X0372743Y0076151D02*
X0317290Y0076151D01*
X0317888Y0076750D02*
X0372743Y0076750D01*
X0372743Y0077348D02*
X0318487Y0077348D01*
X0319086Y0077947D02*
X0372743Y0077947D01*
X0372743Y0078545D02*
X0319684Y0078545D01*
X0320283Y0079144D02*
X0372743Y0079144D01*
X0372743Y0079742D02*
X0320881Y0079742D01*
X0321480Y0080341D02*
X0372743Y0080341D01*
X0372743Y0080939D02*
X0322078Y0080939D01*
X0322677Y0081538D02*
X0372743Y0081538D01*
X0372743Y0082136D02*
X0323275Y0082136D01*
X0323874Y0082735D02*
X0372743Y0082735D01*
X0372743Y0083333D02*
X0324472Y0083333D01*
X0325071Y0083932D02*
X0372743Y0083932D01*
X0372743Y0084530D02*
X0325669Y0084530D01*
X0326268Y0085129D02*
X0372743Y0085129D01*
X0372743Y0085727D02*
X0326866Y0085727D01*
X0327465Y0086326D02*
X0372743Y0086326D01*
X0372743Y0086924D02*
X0328063Y0086924D01*
X0328662Y0087523D02*
X0372743Y0087523D01*
X0372743Y0088121D02*
X0329260Y0088121D01*
X0329859Y0088720D02*
X0372743Y0088720D01*
X0372743Y0089318D02*
X0330457Y0089318D01*
X0331056Y0089917D02*
X0372743Y0089917D01*
X0372743Y0090515D02*
X0331654Y0090515D01*
X0332253Y0091114D02*
X0372743Y0091114D01*
X0372743Y0091712D02*
X0332851Y0091712D01*
X0333450Y0092311D02*
X0372743Y0092311D01*
X0372743Y0092909D02*
X0334048Y0092909D01*
X0334647Y0093508D02*
X0372743Y0093508D01*
X0372743Y0094106D02*
X0335245Y0094106D01*
X0335844Y0094705D02*
X0372743Y0094705D01*
X0372743Y0095303D02*
X0336442Y0095303D01*
X0337041Y0095902D02*
X0372743Y0095902D01*
X0372743Y0096501D02*
X0337639Y0096501D01*
X0338238Y0097099D02*
X0372743Y0097099D01*
X0372743Y0097698D02*
X0338836Y0097698D01*
X0339435Y0098296D02*
X0372743Y0098296D01*
X0372743Y0098895D02*
X0340033Y0098895D01*
X0340632Y0099493D02*
X0372743Y0099493D01*
X0372743Y0100092D02*
X0341230Y0100092D01*
X0341829Y0100690D02*
X0372743Y0100690D01*
X0372743Y0101289D02*
X0342427Y0101289D01*
X0343026Y0101887D02*
X0372743Y0101887D01*
X0372743Y0102486D02*
X0343624Y0102486D01*
X0344223Y0103084D02*
X0372743Y0103084D01*
X0372743Y0103683D02*
X0344821Y0103683D01*
X0345420Y0104281D02*
X0372743Y0104281D01*
X0372743Y0104880D02*
X0346019Y0104880D01*
X0346617Y0105478D02*
X0372743Y0105478D01*
X0372743Y0106077D02*
X0347216Y0106077D01*
X0347814Y0106675D02*
X0372743Y0106675D01*
X0372743Y0107274D02*
X0348413Y0107274D01*
X0349011Y0107872D02*
X0372743Y0107872D01*
X0372743Y0108471D02*
X0349610Y0108471D01*
X0350208Y0109069D02*
X0372743Y0109069D01*
X0372743Y0109668D02*
X0350807Y0109668D01*
X0351405Y0110266D02*
X0372743Y0110266D01*
X0372743Y0110865D02*
X0352004Y0110865D01*
X0352602Y0111463D02*
X0372743Y0111463D01*
X0372743Y0112062D02*
X0353201Y0112062D01*
X0353799Y0112660D02*
X0372743Y0112660D01*
X0372743Y0113259D02*
X0354142Y0113259D01*
X0354142Y0113857D02*
X0372743Y0113857D01*
X0372743Y0114456D02*
X0354142Y0114456D01*
X0354142Y0115054D02*
X0372743Y0115054D01*
X0372743Y0115653D02*
X0354142Y0115653D01*
X0354142Y0116251D02*
X0372743Y0116251D01*
X0372743Y0116850D02*
X0354142Y0116850D01*
X0354142Y0117448D02*
X0372743Y0117448D01*
X0372743Y0118047D02*
X0354142Y0118047D01*
X0354142Y0118645D02*
X0372743Y0118645D01*
X0372743Y0119244D02*
X0354142Y0119244D01*
X0354142Y0119842D02*
X0372743Y0119842D01*
X0372743Y0120441D02*
X0354142Y0120441D01*
X0354142Y0121039D02*
X0372743Y0121039D01*
X0372743Y0121638D02*
X0354142Y0121638D01*
X0354142Y0122237D02*
X0372743Y0122237D01*
X0372743Y0122835D02*
X0354571Y0122835D01*
X0355668Y0123434D02*
X0372743Y0123434D01*
X0372743Y0124032D02*
X0356266Y0124032D01*
X0356624Y0124631D02*
X0372743Y0124631D01*
X0372743Y0125229D02*
X0356872Y0125229D01*
X0357013Y0125828D02*
X0372743Y0125828D01*
X0372743Y0126426D02*
X0357013Y0126426D01*
X0357013Y0127025D02*
X0372743Y0127025D01*
X0372743Y0127623D02*
X0356768Y0127623D01*
X0356520Y0128222D02*
X0372743Y0128222D01*
X0372743Y0128820D02*
X0356014Y0128820D01*
X0355407Y0129419D02*
X0372743Y0129419D01*
X0372743Y0130017D02*
X0354142Y0130017D01*
X0354142Y0130616D02*
X0372743Y0130616D01*
X0372743Y0131214D02*
X0354142Y0131214D01*
X0354142Y0131813D02*
X0372743Y0131813D01*
X0372743Y0132411D02*
X0354142Y0132411D01*
X0354142Y0133010D02*
X0372743Y0133010D01*
X0372743Y0133608D02*
X0354142Y0133608D01*
X0354142Y0134207D02*
X0372743Y0134207D01*
X0372743Y0134805D02*
X0354142Y0134805D01*
X0354142Y0135404D02*
X0372743Y0135404D01*
X0372743Y0136002D02*
X0354142Y0136002D01*
X0354142Y0136601D02*
X0372743Y0136601D01*
X0372743Y0137199D02*
X0354142Y0137199D01*
X0354142Y0137798D02*
X0372743Y0137798D01*
X0372743Y0138396D02*
X0354142Y0138396D01*
X0354142Y0138995D02*
X0372743Y0138995D01*
X0372743Y0139593D02*
X0354142Y0139593D01*
X0354142Y0140192D02*
X0372743Y0140192D01*
X0372743Y0140790D02*
X0354142Y0140790D01*
X0354142Y0141389D02*
X0372743Y0141389D01*
X0372743Y0141987D02*
X0354142Y0141987D01*
X0354142Y0142586D02*
X0372743Y0142586D01*
X0372743Y0143184D02*
X0354142Y0143184D01*
X0354142Y0143783D02*
X0372743Y0143783D01*
X0372743Y0144381D02*
X0353757Y0144381D01*
X0353159Y0144980D02*
X0372743Y0144980D01*
X0372743Y0145578D02*
X0352560Y0145578D01*
X0351962Y0146177D02*
X0372743Y0146177D01*
X0372743Y0146775D02*
X0351363Y0146775D01*
X0350765Y0147374D02*
X0372743Y0147374D01*
X0372743Y0147972D02*
X0350166Y0147972D01*
X0349568Y0148571D02*
X0372743Y0148571D01*
X0372743Y0149170D02*
X0348969Y0149170D01*
X0348371Y0149768D02*
X0372743Y0149768D01*
X0372743Y0150367D02*
X0347772Y0150367D01*
X0347174Y0150965D02*
X0372743Y0150965D01*
X0372743Y0151564D02*
X0346575Y0151564D01*
X0345977Y0152162D02*
X0372743Y0152162D01*
X0372743Y0152761D02*
X0345378Y0152761D01*
X0344780Y0153359D02*
X0372743Y0153359D01*
X0372743Y0153958D02*
X0344181Y0153958D01*
X0343583Y0154556D02*
X0372743Y0154556D01*
X0372743Y0155155D02*
X0342984Y0155155D01*
X0342386Y0155753D02*
X0372743Y0155753D01*
X0372743Y0156352D02*
X0341787Y0156352D01*
X0341189Y0156950D02*
X0372743Y0156950D01*
X0372743Y0157549D02*
X0340590Y0157549D01*
X0339992Y0158147D02*
X0372743Y0158147D01*
X0372743Y0158746D02*
X0339393Y0158746D01*
X0338795Y0159344D02*
X0372743Y0159344D01*
X0372743Y0159943D02*
X0338196Y0159943D01*
X0337598Y0160541D02*
X0372743Y0160541D01*
X0372743Y0161140D02*
X0336999Y0161140D01*
X0336877Y0161738D02*
X0372743Y0161738D01*
X0372743Y0162337D02*
X0337476Y0162337D01*
X0338074Y0162935D02*
X0372743Y0162935D01*
X0372743Y0163534D02*
X0338673Y0163534D01*
X0339271Y0164132D02*
X0372743Y0164132D01*
X0372743Y0164731D02*
X0339870Y0164731D01*
X0340468Y0165329D02*
X0372743Y0165329D01*
X0372743Y0165928D02*
X0341067Y0165928D01*
X0341665Y0166526D02*
X0372743Y0166526D01*
X0372743Y0167125D02*
X0342264Y0167125D01*
X0342862Y0167723D02*
X0348899Y0167723D01*
X0347881Y0168322D02*
X0343461Y0168322D01*
X0344059Y0168920D02*
X0347282Y0168920D01*
X0346924Y0169519D02*
X0344658Y0169519D01*
X0345256Y0170117D02*
X0346676Y0170117D01*
X0346505Y0170716D02*
X0345855Y0170716D01*
X0346453Y0171314D02*
X0346505Y0171314D01*
X0344855Y0173110D02*
X0309142Y0173110D01*
X0309142Y0173708D02*
X0345453Y0173708D01*
X0346052Y0174307D02*
X0309142Y0174307D01*
X0309142Y0174905D02*
X0346650Y0174905D01*
X0347249Y0175504D02*
X0309142Y0175504D01*
X0309142Y0176103D02*
X0347847Y0176103D01*
X0348446Y0176701D02*
X0309142Y0176701D01*
X0309142Y0177300D02*
X0349044Y0177300D01*
X0349301Y0177557D02*
X0334445Y0162700D01*
X0326842Y0162700D01*
X0326842Y0162750D01*
X0324792Y0164800D01*
X0321892Y0164800D01*
X0319842Y0162750D01*
X0319842Y0159850D01*
X0321892Y0157800D01*
X0324792Y0157800D01*
X0326842Y0159850D01*
X0326842Y0160300D01*
X0334445Y0160300D01*
X0351742Y0143003D01*
X0351742Y0129611D01*
X0351262Y0129413D01*
X0350229Y0128380D01*
X0349670Y0127030D01*
X0349670Y0125570D01*
X0350229Y0124220D01*
X0351262Y0123187D01*
X0351742Y0122989D01*
X0351742Y0113997D01*
X0306845Y0069100D01*
X0306842Y0069097D01*
X0306842Y0069596D01*
X0306309Y0070883D01*
X0305324Y0071867D01*
X0304942Y0072026D01*
X0304942Y0086003D01*
X0331873Y0112934D01*
X0332611Y0112628D01*
X0334072Y0112628D01*
X0335422Y0113187D01*
X0336454Y0114220D01*
X0337013Y0115570D01*
X0337013Y0117030D01*
X0336454Y0118380D01*
X0335422Y0119413D01*
X0334072Y0119972D01*
X0332611Y0119972D01*
X0331262Y0119413D01*
X0330229Y0118380D01*
X0329670Y0117030D01*
X0329670Y0115570D01*
X0330093Y0114548D01*
X0303742Y0088197D01*
X0288039Y0103900D01*
X0228492Y0103900D01*
X0228909Y0104317D01*
X0229442Y0105604D01*
X0229442Y0106996D01*
X0228909Y0108283D01*
X0227924Y0109267D01*
X0226638Y0109800D01*
X0220046Y0109800D01*
X0218759Y0109267D01*
X0217775Y0108283D01*
X0217242Y0106996D01*
X0217242Y0106297D01*
X0216039Y0107500D01*
X0199233Y0107500D01*
X0198909Y0108283D01*
X0197924Y0109267D01*
X0196638Y0109800D01*
X0190046Y0109800D01*
X0188759Y0109267D01*
X0187775Y0108283D01*
X0187242Y0106996D01*
X0187242Y0106297D01*
X0172342Y0121197D01*
X0172342Y0173997D01*
X0171665Y0174674D01*
X0171842Y0174850D01*
X0171842Y0177750D01*
X0169942Y0179650D01*
X0169942Y0183803D01*
X0198639Y0212500D01*
X0199342Y0213203D01*
X0199342Y0234100D01*
X0251192Y0234100D01*
X0249842Y0232750D01*
X0249842Y0232300D01*
X0232445Y0232300D01*
X0199445Y0199300D01*
X0198742Y0198597D01*
X0198742Y0158450D01*
X0197924Y0159267D01*
X0196638Y0159800D01*
X0190046Y0159800D01*
X0188759Y0159267D01*
X0187775Y0158283D01*
X0187242Y0156996D01*
X0187242Y0155604D01*
X0187775Y0154317D01*
X0188759Y0153333D01*
X0190046Y0152800D01*
X0196638Y0152800D01*
X0197924Y0153333D01*
X0198742Y0154150D01*
X0198742Y0153597D01*
X0194945Y0149800D01*
X0190046Y0149800D01*
X0188759Y0149267D01*
X0187775Y0148283D01*
X0187242Y0146996D01*
X0187242Y0145604D01*
X0187775Y0144317D01*
X0188759Y0143333D01*
X0190046Y0142800D01*
X0196638Y0142800D01*
X0197924Y0143333D01*
X0198909Y0144317D01*
X0199442Y0145604D01*
X0199442Y0146996D01*
X0198909Y0148283D01*
X0197924Y0149267D01*
X0197841Y0149302D01*
X0201142Y0152603D01*
X0201142Y0197603D01*
X0214842Y0211303D01*
X0214842Y0209850D01*
X0216742Y0207950D01*
X0216742Y0181797D01*
X0213845Y0178900D01*
X0213142Y0178197D01*
X0213142Y0174803D01*
X0235445Y0152500D01*
X0229442Y0146497D01*
X0229442Y0146996D01*
X0228909Y0148283D01*
X0227924Y0149267D01*
X0226638Y0149800D01*
X0220046Y0149800D01*
X0218759Y0149267D01*
X0217775Y0148283D01*
X0217242Y0146996D01*
X0217242Y0145604D01*
X0217775Y0144317D01*
X0218759Y0143333D01*
X0220046Y0142800D01*
X0225745Y0142800D01*
X0224045Y0141100D01*
X0206045Y0141100D01*
X0194745Y0129800D01*
X0190046Y0129800D01*
X0188759Y0129267D01*
X0187775Y0128283D01*
X0187242Y0126996D01*
X0187242Y0125604D01*
X0187775Y0124317D01*
X0188759Y0123333D01*
X0190046Y0122800D01*
X0196638Y0122800D01*
X0197924Y0123333D01*
X0198909Y0124317D01*
X0199442Y0125604D01*
X0199442Y0126996D01*
X0198909Y0128283D01*
X0197924Y0129267D01*
X0197699Y0129360D01*
X0207039Y0138700D01*
X0218192Y0138700D01*
X0217775Y0138283D01*
X0217242Y0136996D01*
X0217242Y0135604D01*
X0217775Y0134317D01*
X0218759Y0133333D01*
X0220046Y0132800D01*
X0226638Y0132800D01*
X0227924Y0133333D01*
X0228909Y0134317D01*
X0229233Y0135100D01*
X0243639Y0135100D01*
X0254842Y0146303D01*
X0254842Y0144850D01*
X0256892Y0142800D01*
X0259792Y0142800D01*
X0259968Y0142977D01*
X0277445Y0125500D01*
X0299699Y0125500D01*
X0300229Y0124220D01*
X0301262Y0123187D01*
X0302611Y0122628D01*
X0304072Y0122628D01*
X0305422Y0123187D01*
X0306454Y0124220D01*
X0307013Y0125570D01*
X0307013Y0127030D01*
X0306454Y0128380D01*
X0305422Y0129413D01*
X0304072Y0129972D01*
X0302611Y0129972D01*
X0301262Y0129413D01*
X0300229Y0128380D01*
X0300030Y0127900D01*
X0278439Y0127900D01*
X0261665Y0144674D01*
X0261842Y0144850D01*
X0261842Y0147750D01*
X0259792Y0149800D01*
X0258339Y0149800D01*
X0270039Y0161500D01*
X0289839Y0161500D01*
X0291580Y0163241D01*
X0292646Y0162800D01*
X0294038Y0162800D01*
X0295324Y0163333D01*
X0296309Y0164317D01*
X0296842Y0165604D01*
X0296842Y0166996D01*
X0296309Y0168283D01*
X0295324Y0169267D01*
X0294038Y0169800D01*
X0292646Y0169800D01*
X0291359Y0169267D01*
X0290375Y0168283D01*
X0289842Y0166996D01*
X0289842Y0165604D01*
X0290049Y0165104D01*
X0288845Y0163900D01*
X0285892Y0163900D01*
X0286309Y0164317D01*
X0286842Y0165604D01*
X0286842Y0166996D01*
X0286309Y0168283D01*
X0285324Y0169267D01*
X0284038Y0169800D01*
X0282646Y0169800D01*
X0281359Y0169267D01*
X0280375Y0168283D01*
X0279842Y0166996D01*
X0279842Y0165604D01*
X0280375Y0164317D01*
X0280792Y0163900D01*
X0275892Y0163900D01*
X0276309Y0164317D01*
X0276842Y0165604D01*
X0276842Y0166996D01*
X0276309Y0168283D01*
X0275324Y0169267D01*
X0274038Y0169800D01*
X0272646Y0169800D01*
X0271722Y0169417D01*
X0264039Y0177100D01*
X0221842Y0177100D01*
X0221842Y0177750D01*
X0219792Y0179800D01*
X0218139Y0179800D01*
X0219142Y0180803D01*
X0219142Y0207800D01*
X0219792Y0207800D01*
X0221842Y0209850D01*
X0221842Y0212750D01*
X0219792Y0214800D01*
X0218339Y0214800D01*
X0233439Y0229900D01*
X0249842Y0229900D01*
X0249842Y0229850D01*
X0251892Y0227800D01*
X0254792Y0227800D01*
X0256842Y0229850D01*
X0256842Y0232750D01*
X0255492Y0234100D01*
X0301192Y0234100D01*
X0299842Y0232750D01*
X0299842Y0229850D01*
X0301892Y0227800D01*
X0302542Y0227800D01*
X0302542Y0215603D01*
X0303345Y0214800D01*
X0301892Y0214800D01*
X0299842Y0212750D01*
X0299842Y0209850D01*
X0301892Y0207800D01*
X0304792Y0207800D01*
X0306742Y0209750D01*
X0306742Y0149650D01*
X0304842Y0147750D01*
X0304842Y0144850D01*
X0306892Y0142800D01*
X0309792Y0142800D01*
X0311842Y0144850D01*
X0311842Y0147750D01*
X0309792Y0149800D01*
X0309142Y0149800D01*
X0309142Y0212397D01*
X0308439Y0213100D01*
X0304942Y0216597D01*
X0304942Y0227950D01*
X0306842Y0229850D01*
X0306842Y0231103D01*
X0323145Y0214800D01*
X0321892Y0214800D01*
X0319842Y0212750D01*
X0319842Y0209850D01*
X0321892Y0207800D01*
X0324792Y0207800D01*
X0325942Y0208950D01*
X0325942Y0208403D01*
X0326645Y0207700D01*
X0349301Y0185043D01*
X0348182Y0184580D01*
X0347094Y0183491D01*
X0346505Y0182069D01*
X0346505Y0180530D01*
X0347094Y0179109D01*
X0348182Y0178020D01*
X0349301Y0177557D01*
X0348477Y0177898D02*
X0309142Y0177898D01*
X0309142Y0178497D02*
X0347706Y0178497D01*
X0347107Y0179095D02*
X0309142Y0179095D01*
X0309142Y0179694D02*
X0346851Y0179694D01*
X0346604Y0180292D02*
X0309142Y0180292D01*
X0309142Y0180891D02*
X0346505Y0180891D01*
X0346505Y0181489D02*
X0309142Y0181489D01*
X0309142Y0182088D02*
X0346512Y0182088D01*
X0346760Y0182686D02*
X0309142Y0182686D01*
X0309142Y0183285D02*
X0347008Y0183285D01*
X0347486Y0183883D02*
X0309142Y0183883D01*
X0309142Y0184482D02*
X0348084Y0184482D01*
X0349265Y0185080D02*
X0309142Y0185080D01*
X0309142Y0185679D02*
X0348666Y0185679D01*
X0348068Y0186277D02*
X0309142Y0186277D01*
X0309142Y0186876D02*
X0347469Y0186876D01*
X0346871Y0187474D02*
X0309142Y0187474D01*
X0309142Y0188073D02*
X0346272Y0188073D01*
X0345673Y0188671D02*
X0309142Y0188671D01*
X0309142Y0189270D02*
X0345075Y0189270D01*
X0344476Y0189868D02*
X0309142Y0189868D01*
X0309142Y0190467D02*
X0343878Y0190467D01*
X0343279Y0191065D02*
X0309142Y0191065D01*
X0309142Y0191664D02*
X0342681Y0191664D01*
X0342082Y0192262D02*
X0309142Y0192262D01*
X0309142Y0192861D02*
X0341484Y0192861D01*
X0340885Y0193459D02*
X0309142Y0193459D01*
X0309142Y0194058D02*
X0340287Y0194058D01*
X0339688Y0194656D02*
X0309142Y0194656D01*
X0309142Y0195255D02*
X0339090Y0195255D01*
X0338491Y0195853D02*
X0309142Y0195853D01*
X0309142Y0196452D02*
X0337893Y0196452D01*
X0337294Y0197050D02*
X0309142Y0197050D01*
X0309142Y0197649D02*
X0336696Y0197649D01*
X0336097Y0198247D02*
X0309142Y0198247D01*
X0309142Y0198846D02*
X0335499Y0198846D01*
X0334900Y0199444D02*
X0309142Y0199444D01*
X0309142Y0200043D02*
X0334302Y0200043D01*
X0333703Y0200641D02*
X0309142Y0200641D01*
X0309142Y0201240D02*
X0333105Y0201240D01*
X0332506Y0201839D02*
X0309142Y0201839D01*
X0309142Y0202437D02*
X0331908Y0202437D01*
X0331309Y0203036D02*
X0309142Y0203036D01*
X0309142Y0203634D02*
X0330711Y0203634D01*
X0330112Y0204233D02*
X0309142Y0204233D01*
X0309142Y0204831D02*
X0329514Y0204831D01*
X0328915Y0205430D02*
X0309142Y0205430D01*
X0309142Y0206028D02*
X0328317Y0206028D01*
X0327718Y0206627D02*
X0309142Y0206627D01*
X0309142Y0207225D02*
X0327120Y0207225D01*
X0326521Y0207824D02*
X0324815Y0207824D01*
X0325414Y0208422D02*
X0325942Y0208422D01*
X0327142Y0208900D02*
X0327142Y0212500D01*
X0304342Y0235300D01*
X0198142Y0235300D01*
X0198142Y0213700D01*
X0168742Y0184300D01*
X0168742Y0176500D01*
X0168342Y0176300D01*
X0171142Y0173500D01*
X0171142Y0120700D01*
X0190342Y0101500D01*
X0225742Y0101500D01*
X0260542Y0066700D01*
X0262942Y0066700D01*
X0263342Y0066300D01*
X0266842Y0066575D02*
X0269842Y0066575D01*
X0269842Y0067173D02*
X0266842Y0067173D01*
X0266842Y0067772D02*
X0269842Y0067772D01*
X0269842Y0068370D02*
X0266842Y0068370D01*
X0266842Y0068969D02*
X0269842Y0068969D01*
X0269842Y0069568D02*
X0266842Y0069568D01*
X0266842Y0069596D02*
X0266309Y0070883D01*
X0265324Y0071867D01*
X0264038Y0072400D01*
X0262646Y0072400D01*
X0261359Y0071867D01*
X0260375Y0070883D01*
X0259842Y0069596D01*
X0259842Y0069097D01*
X0227439Y0101500D01*
X0287045Y0101500D01*
X0302542Y0086003D01*
X0302542Y0072357D01*
X0301359Y0071867D01*
X0300375Y0070883D01*
X0299842Y0069596D01*
X0299842Y0063004D01*
X0300375Y0061717D01*
X0300792Y0061300D01*
X0295892Y0061300D01*
X0296309Y0061717D01*
X0296842Y0063004D01*
X0296842Y0069596D01*
X0296309Y0070883D01*
X0295324Y0071867D01*
X0294038Y0072400D01*
X0292646Y0072400D01*
X0291359Y0071867D01*
X0290375Y0070883D01*
X0289842Y0069596D01*
X0289842Y0063004D01*
X0290375Y0061717D01*
X0290792Y0061300D01*
X0285892Y0061300D01*
X0286309Y0061717D01*
X0286842Y0063004D01*
X0286842Y0069596D01*
X0286309Y0070883D01*
X0285324Y0071867D01*
X0284038Y0072400D01*
X0282646Y0072400D01*
X0281359Y0071867D01*
X0280375Y0070883D01*
X0279842Y0069596D01*
X0279842Y0063004D01*
X0280375Y0061717D01*
X0280792Y0061300D01*
X0275892Y0061300D01*
X0276309Y0061717D01*
X0276842Y0063004D01*
X0276842Y0069596D01*
X0276309Y0070883D01*
X0275324Y0071867D01*
X0274038Y0072400D01*
X0272646Y0072400D01*
X0271359Y0071867D01*
X0270375Y0070883D01*
X0269842Y0069596D01*
X0269842Y0063004D01*
X0270375Y0061717D01*
X0270792Y0061300D01*
X0265892Y0061300D01*
X0266309Y0061717D01*
X0266842Y0063004D01*
X0266842Y0069596D01*
X0266606Y0070166D02*
X0270078Y0070166D01*
X0270326Y0070765D02*
X0266358Y0070765D01*
X0265828Y0071363D02*
X0270855Y0071363D01*
X0271587Y0071962D02*
X0265096Y0071962D01*
X0261587Y0071962D02*
X0256977Y0071962D01*
X0256379Y0072560D02*
X0302542Y0072560D01*
X0302542Y0073159D02*
X0255780Y0073159D01*
X0255182Y0073757D02*
X0302542Y0073757D01*
X0302542Y0074356D02*
X0254583Y0074356D01*
X0253985Y0074954D02*
X0302542Y0074954D01*
X0302542Y0075553D02*
X0253386Y0075553D01*
X0252788Y0076151D02*
X0302542Y0076151D01*
X0302542Y0076750D02*
X0252189Y0076750D01*
X0251591Y0077348D02*
X0302542Y0077348D01*
X0302542Y0077947D02*
X0250992Y0077947D01*
X0250394Y0078545D02*
X0302542Y0078545D01*
X0302542Y0079144D02*
X0249795Y0079144D01*
X0249197Y0079742D02*
X0302542Y0079742D01*
X0302542Y0080341D02*
X0248598Y0080341D01*
X0248000Y0080939D02*
X0302542Y0080939D01*
X0302542Y0081538D02*
X0247401Y0081538D01*
X0246803Y0082136D02*
X0302542Y0082136D01*
X0302542Y0082735D02*
X0246204Y0082735D01*
X0245606Y0083333D02*
X0302542Y0083333D01*
X0302542Y0083932D02*
X0245007Y0083932D01*
X0244409Y0084530D02*
X0302542Y0084530D01*
X0302542Y0085129D02*
X0243810Y0085129D01*
X0243212Y0085727D02*
X0302542Y0085727D01*
X0302219Y0086326D02*
X0242613Y0086326D01*
X0242014Y0086924D02*
X0301620Y0086924D01*
X0301022Y0087523D02*
X0241416Y0087523D01*
X0240817Y0088121D02*
X0300423Y0088121D01*
X0299825Y0088720D02*
X0240219Y0088720D01*
X0239620Y0089318D02*
X0299226Y0089318D01*
X0298628Y0089917D02*
X0239022Y0089917D01*
X0238423Y0090515D02*
X0298029Y0090515D01*
X0297431Y0091114D02*
X0237825Y0091114D01*
X0237226Y0091712D02*
X0296832Y0091712D01*
X0296234Y0092311D02*
X0236628Y0092311D01*
X0236029Y0092909D02*
X0295635Y0092909D01*
X0295037Y0093508D02*
X0235431Y0093508D01*
X0234832Y0094106D02*
X0294438Y0094106D01*
X0293840Y0094705D02*
X0234234Y0094705D01*
X0233635Y0095303D02*
X0293241Y0095303D01*
X0292643Y0095902D02*
X0233037Y0095902D01*
X0232438Y0096501D02*
X0292044Y0096501D01*
X0291446Y0097099D02*
X0231840Y0097099D01*
X0231241Y0097698D02*
X0290847Y0097698D01*
X0290249Y0098296D02*
X0230643Y0098296D01*
X0230044Y0098895D02*
X0289650Y0098895D01*
X0289052Y0099493D02*
X0229446Y0099493D01*
X0228847Y0100092D02*
X0288453Y0100092D01*
X0287855Y0100690D02*
X0228249Y0100690D01*
X0227650Y0101289D02*
X0287256Y0101289D01*
X0287542Y0102700D02*
X0303742Y0086500D01*
X0333142Y0115900D01*
X0333342Y0116300D01*
X0337013Y0116251D02*
X0351742Y0116251D01*
X0351742Y0115653D02*
X0337013Y0115653D01*
X0336800Y0115054D02*
X0351742Y0115054D01*
X0351742Y0114456D02*
X0336552Y0114456D01*
X0336092Y0113857D02*
X0351602Y0113857D01*
X0351004Y0113259D02*
X0335493Y0113259D01*
X0334149Y0112660D02*
X0350405Y0112660D01*
X0349807Y0112062D02*
X0331001Y0112062D01*
X0331599Y0112660D02*
X0332534Y0112660D01*
X0330402Y0111463D02*
X0349208Y0111463D01*
X0348610Y0110865D02*
X0329804Y0110865D01*
X0329205Y0110266D02*
X0348011Y0110266D01*
X0347413Y0109668D02*
X0328607Y0109668D01*
X0328008Y0109069D02*
X0346814Y0109069D01*
X0346216Y0108471D02*
X0327410Y0108471D01*
X0326811Y0107872D02*
X0345617Y0107872D01*
X0345018Y0107274D02*
X0326213Y0107274D01*
X0325614Y0106675D02*
X0344420Y0106675D01*
X0343821Y0106077D02*
X0325016Y0106077D01*
X0324417Y0105478D02*
X0343223Y0105478D01*
X0342624Y0104880D02*
X0323819Y0104880D01*
X0323220Y0104281D02*
X0342026Y0104281D01*
X0341427Y0103683D02*
X0322622Y0103683D01*
X0322023Y0103084D02*
X0340829Y0103084D01*
X0340230Y0102486D02*
X0321424Y0102486D01*
X0320826Y0101887D02*
X0339632Y0101887D01*
X0339033Y0101289D02*
X0320227Y0101289D01*
X0319629Y0100690D02*
X0338435Y0100690D01*
X0337836Y0100092D02*
X0319030Y0100092D01*
X0318432Y0099493D02*
X0337238Y0099493D01*
X0336639Y0098895D02*
X0317833Y0098895D01*
X0317235Y0098296D02*
X0336041Y0098296D01*
X0335442Y0097698D02*
X0316636Y0097698D01*
X0316038Y0097099D02*
X0334844Y0097099D01*
X0334245Y0096501D02*
X0315439Y0096501D01*
X0314841Y0095902D02*
X0333647Y0095902D01*
X0333048Y0095303D02*
X0314242Y0095303D01*
X0313644Y0094705D02*
X0332450Y0094705D01*
X0331851Y0094106D02*
X0313045Y0094106D01*
X0312447Y0093508D02*
X0331253Y0093508D01*
X0330654Y0092909D02*
X0311848Y0092909D01*
X0311250Y0092311D02*
X0330056Y0092311D01*
X0329457Y0091712D02*
X0310651Y0091712D01*
X0310053Y0091114D02*
X0328859Y0091114D01*
X0328260Y0090515D02*
X0309454Y0090515D01*
X0308856Y0089917D02*
X0327662Y0089917D01*
X0327063Y0089318D02*
X0308257Y0089318D01*
X0307659Y0088720D02*
X0326465Y0088720D01*
X0325866Y0088121D02*
X0307060Y0088121D01*
X0306462Y0087523D02*
X0325268Y0087523D01*
X0324669Y0086924D02*
X0305863Y0086924D01*
X0305265Y0086326D02*
X0324071Y0086326D01*
X0323472Y0085727D02*
X0304942Y0085727D01*
X0304942Y0085129D02*
X0322874Y0085129D01*
X0322275Y0084530D02*
X0304942Y0084530D01*
X0304942Y0083932D02*
X0321677Y0083932D01*
X0321078Y0083333D02*
X0304942Y0083333D01*
X0304942Y0082735D02*
X0320480Y0082735D01*
X0319881Y0082136D02*
X0304942Y0082136D01*
X0304942Y0081538D02*
X0319282Y0081538D01*
X0318684Y0080939D02*
X0304942Y0080939D01*
X0304942Y0080341D02*
X0318085Y0080341D01*
X0317487Y0079742D02*
X0304942Y0079742D01*
X0304942Y0079144D02*
X0316888Y0079144D01*
X0316290Y0078545D02*
X0304942Y0078545D01*
X0304942Y0077947D02*
X0315691Y0077947D01*
X0315093Y0077348D02*
X0304942Y0077348D01*
X0304942Y0076750D02*
X0314494Y0076750D01*
X0313896Y0076151D02*
X0304942Y0076151D01*
X0304942Y0075553D02*
X0313297Y0075553D01*
X0312699Y0074954D02*
X0304942Y0074954D01*
X0304942Y0074356D02*
X0312100Y0074356D01*
X0311502Y0073757D02*
X0304942Y0073757D01*
X0304942Y0073159D02*
X0310903Y0073159D01*
X0310305Y0072560D02*
X0304942Y0072560D01*
X0305096Y0071962D02*
X0309706Y0071962D01*
X0309108Y0071363D02*
X0305828Y0071363D01*
X0306358Y0070765D02*
X0308509Y0070765D01*
X0307911Y0070166D02*
X0306606Y0070166D01*
X0306842Y0069568D02*
X0307312Y0069568D01*
X0307342Y0067900D02*
X0307342Y0062500D01*
X0304942Y0060100D01*
X0259342Y0060100D01*
X0253342Y0066100D01*
X0253342Y0066300D01*
X0253342Y0066700D01*
X0218542Y0066700D01*
X0218342Y0066300D01*
X0211342Y0073300D01*
X0208342Y0073300D01*
X0181342Y0100300D01*
X0161542Y0100300D01*
X0155542Y0106300D01*
X0155542Y0141700D01*
X0118342Y0178900D01*
X0118342Y0196300D01*
X0098542Y0196300D01*
X0093742Y0191500D01*
X0093342Y0191300D01*
X0095800Y0195255D02*
X0062642Y0195255D01*
X0062642Y0195853D02*
X0096398Y0195853D01*
X0096997Y0196452D02*
X0062642Y0196452D01*
X0062642Y0197050D02*
X0097595Y0197050D01*
X0098595Y0194656D02*
X0115036Y0194656D01*
X0115634Y0194058D02*
X0099023Y0194058D01*
X0099603Y0193459D02*
X0116233Y0193459D01*
X0116831Y0192861D02*
X0099851Y0192861D01*
X0100099Y0192262D02*
X0117142Y0192262D01*
X0117142Y0191664D02*
X0100179Y0191664D01*
X0100179Y0191065D02*
X0117142Y0191065D01*
X0117142Y0190467D02*
X0100152Y0190467D01*
X0099905Y0189868D02*
X0117142Y0189868D01*
X0117142Y0189270D02*
X0099657Y0189270D01*
X0099152Y0188671D02*
X0117142Y0188671D01*
X0117142Y0188073D02*
X0098554Y0188073D01*
X0097183Y0187474D02*
X0117142Y0187474D01*
X0117142Y0186876D02*
X0062642Y0186876D01*
X0062642Y0187474D02*
X0089501Y0187474D01*
X0088130Y0188073D02*
X0062642Y0188073D01*
X0062642Y0188671D02*
X0087531Y0188671D01*
X0087027Y0189270D02*
X0062642Y0189270D01*
X0062642Y0189868D02*
X0086779Y0189868D01*
X0086531Y0190467D02*
X0062642Y0190467D01*
X0062642Y0191065D02*
X0086505Y0191065D01*
X0086505Y0191664D02*
X0062642Y0191664D01*
X0062642Y0192262D02*
X0086585Y0192262D01*
X0086833Y0192861D02*
X0062642Y0192861D01*
X0062642Y0193459D02*
X0087080Y0193459D01*
X0087660Y0194058D02*
X0062642Y0194058D01*
X0062642Y0194656D02*
X0088367Y0194656D01*
X0089604Y0185168D02*
X0088182Y0184580D01*
X0087094Y0183491D01*
X0086505Y0182069D01*
X0086505Y0180530D01*
X0087094Y0179109D01*
X0088182Y0178020D01*
X0089604Y0177431D01*
X0097080Y0177431D01*
X0098502Y0178020D01*
X0099590Y0179109D01*
X0100179Y0180530D01*
X0100179Y0182069D01*
X0099590Y0183491D01*
X0098502Y0184580D01*
X0097080Y0185168D01*
X0089604Y0185168D01*
X0089391Y0185080D02*
X0062642Y0185080D01*
X0062642Y0184482D02*
X0088084Y0184482D01*
X0087486Y0183883D02*
X0062642Y0183883D01*
X0062642Y0183285D02*
X0087008Y0183285D01*
X0086760Y0182686D02*
X0062642Y0182686D01*
X0062642Y0182088D02*
X0086512Y0182088D01*
X0086505Y0181489D02*
X0062642Y0181489D01*
X0062642Y0180891D02*
X0086505Y0180891D01*
X0086604Y0180292D02*
X0062642Y0180292D01*
X0062642Y0179694D02*
X0086851Y0179694D01*
X0087107Y0179095D02*
X0062642Y0179095D01*
X0062642Y0178497D02*
X0087706Y0178497D01*
X0088477Y0177898D02*
X0062642Y0177898D01*
X0062642Y0177300D02*
X0118245Y0177300D01*
X0117647Y0177898D02*
X0098206Y0177898D01*
X0098978Y0178497D02*
X0117142Y0178497D01*
X0117142Y0179095D02*
X0099576Y0179095D01*
X0099832Y0179694D02*
X0117142Y0179694D01*
X0117142Y0180292D02*
X0100080Y0180292D01*
X0100179Y0180891D02*
X0117142Y0180891D01*
X0117142Y0181489D02*
X0100179Y0181489D01*
X0100171Y0182088D02*
X0117142Y0182088D01*
X0117142Y0182686D02*
X0099923Y0182686D01*
X0099675Y0183285D02*
X0117142Y0183285D01*
X0117142Y0183883D02*
X0099198Y0183883D01*
X0098600Y0184482D02*
X0117142Y0184482D01*
X0117142Y0185080D02*
X0097293Y0185080D01*
X0097080Y0175168D02*
X0089604Y0175168D01*
X0088182Y0174580D01*
X0087094Y0173491D01*
X0086505Y0172069D01*
X0086505Y0170530D01*
X0087094Y0169109D01*
X0088182Y0168020D01*
X0089604Y0167431D01*
X0097080Y0167431D01*
X0098502Y0168020D01*
X0099590Y0169109D01*
X0100179Y0170530D01*
X0100179Y0172069D01*
X0099590Y0173491D01*
X0098502Y0174580D01*
X0097080Y0175168D01*
X0097715Y0174905D02*
X0120639Y0174905D01*
X0121238Y0174307D02*
X0098774Y0174307D01*
X0099373Y0173708D02*
X0121836Y0173708D01*
X0122435Y0173110D02*
X0099748Y0173110D01*
X0099996Y0172511D02*
X0123033Y0172511D01*
X0123632Y0171913D02*
X0100179Y0171913D01*
X0100179Y0171314D02*
X0124230Y0171314D01*
X0124829Y0170716D02*
X0100179Y0170716D01*
X0100008Y0170117D02*
X0125427Y0170117D01*
X0126026Y0169519D02*
X0099760Y0169519D01*
X0099402Y0168920D02*
X0126624Y0168920D01*
X0127223Y0168322D02*
X0098803Y0168322D01*
X0097784Y0167723D02*
X0127821Y0167723D01*
X0128420Y0167125D02*
X0062642Y0167125D01*
X0062642Y0167723D02*
X0088899Y0167723D01*
X0087881Y0168322D02*
X0062642Y0168322D01*
X0062642Y0168920D02*
X0087282Y0168920D01*
X0086924Y0169519D02*
X0062642Y0169519D01*
X0062642Y0170117D02*
X0086676Y0170117D01*
X0086505Y0170716D02*
X0062642Y0170716D01*
X0062642Y0171314D02*
X0086505Y0171314D01*
X0086505Y0171913D02*
X0062642Y0171913D01*
X0062642Y0172511D02*
X0086688Y0172511D01*
X0086936Y0173110D02*
X0062642Y0173110D01*
X0062642Y0173708D02*
X0087311Y0173708D01*
X0087909Y0174307D02*
X0062642Y0174307D01*
X0062642Y0174905D02*
X0088969Y0174905D01*
X0062642Y0175504D02*
X0120041Y0175504D01*
X0119442Y0176103D02*
X0062642Y0176103D01*
X0062642Y0176701D02*
X0118844Y0176701D01*
X0120442Y0178497D02*
X0144648Y0178497D01*
X0144050Y0179095D02*
X0119844Y0179095D01*
X0119542Y0179694D02*
X0143451Y0179694D01*
X0142853Y0180292D02*
X0119542Y0180292D01*
X0119542Y0180891D02*
X0142254Y0180891D01*
X0141656Y0181489D02*
X0119542Y0181489D01*
X0119542Y0182088D02*
X0141057Y0182088D01*
X0140459Y0182686D02*
X0119542Y0182686D01*
X0119542Y0183285D02*
X0139860Y0183285D01*
X0139262Y0183883D02*
X0119542Y0183883D01*
X0119542Y0184482D02*
X0138663Y0184482D01*
X0138065Y0185080D02*
X0119542Y0185080D01*
X0119542Y0185679D02*
X0137466Y0185679D01*
X0136868Y0186277D02*
X0119542Y0186277D01*
X0119542Y0186876D02*
X0136269Y0186876D01*
X0135671Y0187474D02*
X0119542Y0187474D01*
X0119542Y0188073D02*
X0135072Y0188073D01*
X0134473Y0188671D02*
X0119542Y0188671D01*
X0119542Y0189270D02*
X0133875Y0189270D01*
X0133276Y0189868D02*
X0119542Y0189868D01*
X0119542Y0190467D02*
X0132678Y0190467D01*
X0132079Y0191065D02*
X0119542Y0191065D01*
X0119542Y0191664D02*
X0131481Y0191664D01*
X0130882Y0192262D02*
X0119542Y0192262D01*
X0119852Y0192861D02*
X0130284Y0192861D01*
X0129685Y0193459D02*
X0120451Y0193459D01*
X0121049Y0194058D02*
X0129087Y0194058D01*
X0128488Y0194656D02*
X0121648Y0194656D01*
X0121842Y0195255D02*
X0127890Y0195255D01*
X0127291Y0195853D02*
X0121842Y0195853D01*
X0121842Y0196452D02*
X0126693Y0196452D01*
X0126094Y0197050D02*
X0121842Y0197050D01*
X0121842Y0197649D02*
X0125496Y0197649D01*
X0124897Y0198247D02*
X0121344Y0198247D01*
X0120746Y0198846D02*
X0124299Y0198846D01*
X0123700Y0199444D02*
X0120147Y0199444D01*
X0121905Y0201240D02*
X0062642Y0201240D01*
X0062642Y0201839D02*
X0121306Y0201839D01*
X0120708Y0202437D02*
X0062642Y0202437D01*
X0062642Y0203036D02*
X0120109Y0203036D01*
X0119511Y0203634D02*
X0062642Y0203634D01*
X0062642Y0204233D02*
X0118912Y0204233D01*
X0118314Y0204831D02*
X0062642Y0204831D01*
X0062642Y0205430D02*
X0117715Y0205430D01*
X0117117Y0206028D02*
X0062642Y0206028D01*
X0062642Y0206627D02*
X0116518Y0206627D01*
X0115920Y0207225D02*
X0062642Y0207225D01*
X0062642Y0207824D02*
X0115321Y0207824D01*
X0114723Y0208422D02*
X0062642Y0208422D01*
X0062642Y0209021D02*
X0114124Y0209021D01*
X0113526Y0209619D02*
X0062642Y0209619D01*
X0062642Y0210218D02*
X0112927Y0210218D01*
X0112329Y0210816D02*
X0062642Y0210816D01*
X0062642Y0211415D02*
X0111730Y0211415D01*
X0111132Y0212013D02*
X0062642Y0212013D01*
X0062642Y0212612D02*
X0110533Y0212612D01*
X0109935Y0213210D02*
X0062642Y0213210D01*
X0062642Y0213809D02*
X0109336Y0213809D01*
X0108737Y0214407D02*
X0062642Y0214407D01*
X0062642Y0215006D02*
X0108139Y0215006D01*
X0107540Y0215604D02*
X0062642Y0215604D01*
X0062642Y0216203D02*
X0106942Y0216203D01*
X0106343Y0216801D02*
X0062642Y0216801D01*
X0062642Y0217400D02*
X0105745Y0217400D01*
X0105146Y0217998D02*
X0062642Y0217998D01*
X0062642Y0218597D02*
X0104548Y0218597D01*
X0103949Y0219195D02*
X0062642Y0219195D01*
X0062642Y0219794D02*
X0103351Y0219794D01*
X0102752Y0220392D02*
X0062642Y0220392D01*
X0062642Y0220991D02*
X0102154Y0220991D01*
X0101555Y0221589D02*
X0062642Y0221589D01*
X0062642Y0222188D02*
X0100957Y0222188D01*
X0100358Y0222786D02*
X0062642Y0222786D01*
X0062642Y0223385D02*
X0091307Y0223385D01*
X0090709Y0223983D02*
X0062642Y0223983D01*
X0062642Y0224582D02*
X0090110Y0224582D01*
X0089842Y0225180D02*
X0062642Y0225180D01*
X0062642Y0225779D02*
X0089842Y0225779D01*
X0089842Y0226377D02*
X0062642Y0226377D01*
X0062642Y0226976D02*
X0089842Y0226976D01*
X0089842Y0227574D02*
X0062642Y0227574D01*
X0062642Y0228173D02*
X0090265Y0228173D01*
X0090864Y0228772D02*
X0062642Y0228772D01*
X0062642Y0229370D02*
X0091462Y0229370D01*
X0092578Y0230567D02*
X0062642Y0230567D01*
X0062642Y0229969D02*
X0093176Y0229969D01*
X0091979Y0231166D02*
X0062642Y0231166D01*
X0062642Y0231764D02*
X0091381Y0231764D01*
X0090782Y0232363D02*
X0062642Y0232363D01*
X0062642Y0232961D02*
X0090184Y0232961D01*
X0089585Y0233560D02*
X0062642Y0233560D01*
X0062642Y0234158D02*
X0088987Y0234158D01*
X0088388Y0234757D02*
X0062642Y0234757D01*
X0062642Y0235355D02*
X0087790Y0235355D01*
X0087191Y0235954D02*
X0062642Y0235954D01*
X0062642Y0236552D02*
X0087142Y0236552D01*
X0087142Y0237151D02*
X0062642Y0237151D01*
X0062642Y0237749D02*
X0087142Y0237749D01*
X0087142Y0238348D02*
X0062642Y0238348D01*
X0062642Y0238946D02*
X0087142Y0238946D01*
X0087142Y0239545D02*
X0062642Y0239545D01*
X0062642Y0240143D02*
X0087142Y0240143D01*
X0087142Y0240742D02*
X0062642Y0240742D01*
X0062642Y0241340D02*
X0087142Y0241340D01*
X0087142Y0241939D02*
X0062642Y0241939D01*
X0062642Y0242537D02*
X0087142Y0242537D01*
X0087142Y0243136D02*
X0062642Y0243136D01*
X0062642Y0243734D02*
X0087142Y0243734D01*
X0087142Y0244333D02*
X0062642Y0244333D01*
X0062642Y0244931D02*
X0087142Y0244931D01*
X0087142Y0245530D02*
X0062642Y0245530D01*
X0062642Y0246128D02*
X0087142Y0246128D01*
X0087142Y0246727D02*
X0062642Y0246727D01*
X0062642Y0247325D02*
X0087142Y0247325D01*
X0086768Y0247924D02*
X0062642Y0247924D01*
X0062642Y0248522D02*
X0086170Y0248522D01*
X0085571Y0249121D02*
X0062642Y0249121D01*
X0062642Y0249719D02*
X0084973Y0249719D01*
X0084842Y0250318D02*
X0070280Y0250318D01*
X0071725Y0250916D02*
X0084842Y0250916D01*
X0084842Y0251515D02*
X0072422Y0251515D01*
X0073020Y0252113D02*
X0084842Y0252113D01*
X0084842Y0252712D02*
X0073619Y0252712D01*
X0073888Y0253310D02*
X0085403Y0253310D01*
X0086001Y0253909D02*
X0074136Y0253909D01*
X0074384Y0254508D02*
X0086600Y0254508D01*
X0090084Y0254508D02*
X0136600Y0254508D01*
X0136892Y0254800D02*
X0134842Y0252750D01*
X0134842Y0249850D01*
X0136892Y0247800D01*
X0139792Y0247800D01*
X0141842Y0249850D01*
X0141842Y0252750D01*
X0139792Y0254800D01*
X0136892Y0254800D01*
X0136001Y0253909D02*
X0090683Y0253909D01*
X0091281Y0253310D02*
X0135403Y0253310D01*
X0134842Y0252712D02*
X0091842Y0252712D01*
X0091842Y0252113D02*
X0134842Y0252113D01*
X0134842Y0251515D02*
X0091842Y0251515D01*
X0091842Y0250916D02*
X0134842Y0250916D01*
X0134842Y0250318D02*
X0091842Y0250318D01*
X0091711Y0249719D02*
X0134973Y0249719D01*
X0135571Y0249121D02*
X0091112Y0249121D01*
X0090514Y0248522D02*
X0136170Y0248522D01*
X0136768Y0247924D02*
X0089915Y0247924D01*
X0089542Y0247325D02*
X0174473Y0247325D01*
X0174473Y0246727D02*
X0089542Y0246727D01*
X0089542Y0246128D02*
X0174473Y0246128D01*
X0174473Y0245530D02*
X0089542Y0245530D01*
X0089542Y0244931D02*
X0174473Y0244931D01*
X0174473Y0244333D02*
X0089542Y0244333D01*
X0089542Y0243734D02*
X0174473Y0243734D01*
X0174473Y0243136D02*
X0089542Y0243136D01*
X0089542Y0242537D02*
X0174484Y0242537D01*
X0174731Y0241939D02*
X0089542Y0241939D01*
X0089542Y0241340D02*
X0174979Y0241340D01*
X0175461Y0240742D02*
X0089542Y0240742D01*
X0089542Y0240143D02*
X0176059Y0240143D01*
X0177142Y0239545D02*
X0089542Y0239545D01*
X0089542Y0238946D02*
X0177142Y0238946D01*
X0177142Y0238348D02*
X0089542Y0238348D01*
X0089542Y0237749D02*
X0177142Y0237749D01*
X0177142Y0237151D02*
X0089542Y0237151D01*
X0089987Y0236552D02*
X0177142Y0236552D01*
X0177142Y0235954D02*
X0090585Y0235954D01*
X0091184Y0235355D02*
X0177142Y0235355D01*
X0177142Y0234757D02*
X0091782Y0234757D01*
X0092381Y0234158D02*
X0177142Y0234158D01*
X0177142Y0233560D02*
X0092979Y0233560D01*
X0093578Y0232961D02*
X0177142Y0232961D01*
X0177142Y0232363D02*
X0094176Y0232363D01*
X0094775Y0231764D02*
X0177142Y0231764D01*
X0177142Y0231166D02*
X0095373Y0231166D01*
X0095972Y0230567D02*
X0177142Y0230567D01*
X0177142Y0229969D02*
X0096570Y0229969D01*
X0097169Y0229370D02*
X0141462Y0229370D01*
X0141892Y0229800D02*
X0139842Y0227750D01*
X0139842Y0224850D01*
X0141892Y0222800D01*
X0144792Y0222800D01*
X0146842Y0224850D01*
X0146842Y0227750D01*
X0144792Y0229800D01*
X0141892Y0229800D01*
X0140864Y0228772D02*
X0097767Y0228772D01*
X0098366Y0228173D02*
X0140265Y0228173D01*
X0139842Y0227574D02*
X0098964Y0227574D01*
X0099563Y0226976D02*
X0139842Y0226976D01*
X0139842Y0226377D02*
X0100161Y0226377D01*
X0100760Y0225779D02*
X0139842Y0225779D01*
X0139842Y0225180D02*
X0101358Y0225180D01*
X0101957Y0224582D02*
X0140110Y0224582D01*
X0140709Y0223983D02*
X0102555Y0223983D01*
X0103154Y0223385D02*
X0141307Y0223385D01*
X0145376Y0223385D02*
X0177142Y0223385D01*
X0177142Y0223983D02*
X0145975Y0223983D01*
X0146573Y0224582D02*
X0177142Y0224582D01*
X0177142Y0225180D02*
X0146842Y0225180D01*
X0146842Y0225779D02*
X0177142Y0225779D01*
X0177142Y0226377D02*
X0146842Y0226377D01*
X0146842Y0226976D02*
X0177142Y0226976D01*
X0177142Y0227574D02*
X0146842Y0227574D01*
X0146419Y0228173D02*
X0177142Y0228173D01*
X0177142Y0228772D02*
X0145820Y0228772D01*
X0145222Y0229370D02*
X0177142Y0229370D01*
X0179542Y0229370D02*
X0196942Y0229370D01*
X0196942Y0228772D02*
X0179542Y0228772D01*
X0179542Y0228173D02*
X0196942Y0228173D01*
X0196942Y0227574D02*
X0179542Y0227574D01*
X0179542Y0226976D02*
X0196942Y0226976D01*
X0196942Y0226377D02*
X0179542Y0226377D01*
X0179542Y0225779D02*
X0196942Y0225779D01*
X0196942Y0225180D02*
X0179542Y0225180D01*
X0179542Y0224582D02*
X0196942Y0224582D01*
X0196942Y0223983D02*
X0179542Y0223983D01*
X0179542Y0223385D02*
X0196942Y0223385D01*
X0196942Y0222786D02*
X0179542Y0222786D01*
X0179542Y0222188D02*
X0196942Y0222188D01*
X0196942Y0221589D02*
X0179542Y0221589D01*
X0179542Y0220991D02*
X0196942Y0220991D01*
X0196942Y0220392D02*
X0179542Y0220392D01*
X0179542Y0219794D02*
X0196942Y0219794D01*
X0196942Y0219195D02*
X0179542Y0219195D01*
X0179542Y0218597D02*
X0196942Y0218597D01*
X0196942Y0217998D02*
X0179542Y0217998D01*
X0179542Y0217400D02*
X0196942Y0217400D01*
X0196942Y0216801D02*
X0179542Y0216801D01*
X0179542Y0216203D02*
X0196942Y0216203D01*
X0196942Y0215604D02*
X0179542Y0215604D01*
X0179542Y0215006D02*
X0196942Y0215006D01*
X0196942Y0214407D02*
X0179542Y0214407D01*
X0179542Y0213809D02*
X0196554Y0213809D01*
X0195955Y0213210D02*
X0179542Y0213210D01*
X0179542Y0212612D02*
X0195356Y0212612D01*
X0194758Y0212013D02*
X0179542Y0212013D01*
X0179542Y0211415D02*
X0194159Y0211415D01*
X0193561Y0210816D02*
X0179542Y0210816D01*
X0179542Y0210218D02*
X0192962Y0210218D01*
X0192364Y0209619D02*
X0179542Y0209619D01*
X0179542Y0209021D02*
X0191765Y0209021D01*
X0191167Y0208422D02*
X0179542Y0208422D01*
X0179542Y0207824D02*
X0190568Y0207824D01*
X0189970Y0207225D02*
X0179542Y0207225D01*
X0179542Y0206627D02*
X0189371Y0206627D01*
X0188773Y0206028D02*
X0179542Y0206028D01*
X0179542Y0205430D02*
X0188174Y0205430D01*
X0187576Y0204831D02*
X0179542Y0204831D01*
X0179542Y0204233D02*
X0186977Y0204233D01*
X0186379Y0203634D02*
X0179542Y0203634D01*
X0179542Y0203036D02*
X0185780Y0203036D01*
X0185182Y0202437D02*
X0179542Y0202437D01*
X0179542Y0201839D02*
X0184583Y0201839D01*
X0183985Y0201240D02*
X0179542Y0201240D01*
X0179542Y0200641D02*
X0183386Y0200641D01*
X0182788Y0200043D02*
X0179542Y0200043D01*
X0179542Y0199444D02*
X0182189Y0199444D01*
X0181591Y0198846D02*
X0179542Y0198846D01*
X0179542Y0198247D02*
X0180992Y0198247D01*
X0180394Y0197649D02*
X0179542Y0197649D01*
X0179542Y0197050D02*
X0179795Y0197050D01*
X0178342Y0195700D02*
X0174142Y0191500D01*
X0173542Y0191500D01*
X0168742Y0196300D01*
X0168342Y0196300D01*
X0170746Y0198846D02*
X0177142Y0198846D01*
X0177142Y0199444D02*
X0170147Y0199444D01*
X0171344Y0198247D02*
X0177142Y0198247D01*
X0177142Y0197649D02*
X0171842Y0197649D01*
X0171842Y0197050D02*
X0177142Y0197050D01*
X0177142Y0196452D02*
X0171842Y0196452D01*
X0171842Y0195853D02*
X0176798Y0195853D01*
X0176200Y0195255D02*
X0171842Y0195255D01*
X0172082Y0194656D02*
X0175601Y0194656D01*
X0175003Y0194058D02*
X0172681Y0194058D01*
X0173279Y0193459D02*
X0174404Y0193459D01*
X0174142Y0191500D02*
X0164542Y0181900D01*
X0164542Y0162700D01*
X0169942Y0157300D01*
X0169942Y0123100D01*
X0163342Y0116500D01*
X0163342Y0116300D01*
X0164945Y0119800D02*
X0160046Y0119800D01*
X0158759Y0119267D01*
X0157942Y0118450D01*
X0157942Y0124150D01*
X0158759Y0123333D01*
X0160046Y0122800D01*
X0166638Y0122800D01*
X0167924Y0123333D01*
X0168742Y0124150D01*
X0168742Y0123597D01*
X0164945Y0119800D01*
X0164987Y0119842D02*
X0157942Y0119842D01*
X0157942Y0119244D02*
X0158736Y0119244D01*
X0158138Y0118645D02*
X0157942Y0118645D01*
X0157942Y0120441D02*
X0165586Y0120441D01*
X0166184Y0121039D02*
X0157942Y0121039D01*
X0157942Y0121638D02*
X0166783Y0121638D01*
X0167381Y0122237D02*
X0157942Y0122237D01*
X0157942Y0122835D02*
X0159961Y0122835D01*
X0158659Y0123434D02*
X0157942Y0123434D01*
X0157942Y0124032D02*
X0158060Y0124032D01*
X0154342Y0124032D02*
X0138624Y0124032D01*
X0138909Y0124317D02*
X0139442Y0125604D01*
X0139442Y0126996D01*
X0138909Y0128283D01*
X0137924Y0129267D01*
X0136638Y0129800D01*
X0130046Y0129800D01*
X0128759Y0129267D01*
X0127775Y0128283D01*
X0127242Y0126996D01*
X0127242Y0125604D01*
X0127775Y0124317D01*
X0128759Y0123333D01*
X0130046Y0122800D01*
X0136638Y0122800D01*
X0137924Y0123333D01*
X0138909Y0124317D01*
X0139039Y0124631D02*
X0154342Y0124631D01*
X0154342Y0125229D02*
X0139287Y0125229D01*
X0139442Y0125828D02*
X0154342Y0125828D01*
X0154342Y0126426D02*
X0139442Y0126426D01*
X0139430Y0127025D02*
X0154342Y0127025D01*
X0154342Y0127623D02*
X0139182Y0127623D01*
X0138934Y0128222D02*
X0154342Y0128222D01*
X0154342Y0128820D02*
X0138371Y0128820D01*
X0137559Y0129419D02*
X0154342Y0129419D01*
X0154342Y0130017D02*
X0062642Y0130017D01*
X0062642Y0129419D02*
X0129125Y0129419D01*
X0128312Y0128820D02*
X0062642Y0128820D01*
X0062642Y0128222D02*
X0127749Y0128222D01*
X0127501Y0127623D02*
X0062642Y0127623D01*
X0062642Y0127025D02*
X0127254Y0127025D01*
X0127242Y0126426D02*
X0062642Y0126426D01*
X0062642Y0125828D02*
X0127242Y0125828D01*
X0127397Y0125229D02*
X0062642Y0125229D01*
X0062642Y0124631D02*
X0127645Y0124631D01*
X0128060Y0124032D02*
X0062642Y0124032D01*
X0062642Y0123434D02*
X0128659Y0123434D01*
X0129961Y0122835D02*
X0062642Y0122835D01*
X0062642Y0122237D02*
X0154342Y0122237D01*
X0154342Y0122835D02*
X0136723Y0122835D01*
X0138025Y0123434D02*
X0154342Y0123434D01*
X0154342Y0121638D02*
X0062642Y0121638D01*
X0062642Y0121039D02*
X0154342Y0121039D01*
X0154342Y0120441D02*
X0062642Y0120441D01*
X0062642Y0119842D02*
X0154342Y0119842D01*
X0154342Y0119244D02*
X0137948Y0119244D01*
X0137924Y0119267D02*
X0136638Y0119800D01*
X0130046Y0119800D01*
X0128759Y0119267D01*
X0127775Y0118283D01*
X0127242Y0116996D01*
X0127242Y0115604D01*
X0127775Y0114317D01*
X0128759Y0113333D01*
X0130046Y0112800D01*
X0136638Y0112800D01*
X0137924Y0113333D01*
X0138909Y0114317D01*
X0139442Y0115604D01*
X0139442Y0116996D01*
X0138909Y0118283D01*
X0137924Y0119267D01*
X0138546Y0118645D02*
X0154342Y0118645D01*
X0154342Y0118047D02*
X0139007Y0118047D01*
X0139254Y0117448D02*
X0154342Y0117448D01*
X0154342Y0116850D02*
X0139442Y0116850D01*
X0139442Y0116251D02*
X0154342Y0116251D01*
X0154342Y0115653D02*
X0139442Y0115653D01*
X0139214Y0115054D02*
X0154342Y0115054D01*
X0154342Y0114456D02*
X0138966Y0114456D01*
X0138449Y0113857D02*
X0154342Y0113857D01*
X0154342Y0113259D02*
X0137746Y0113259D01*
X0136638Y0109800D02*
X0130046Y0109800D01*
X0128759Y0109267D01*
X0127775Y0108283D01*
X0127242Y0106996D01*
X0127242Y0105604D01*
X0127775Y0104317D01*
X0128759Y0103333D01*
X0130046Y0102800D01*
X0136638Y0102800D01*
X0137924Y0103333D01*
X0138909Y0104317D01*
X0139442Y0105604D01*
X0139442Y0106996D01*
X0138909Y0108283D01*
X0137924Y0109267D01*
X0136638Y0109800D01*
X0136957Y0109668D02*
X0154342Y0109668D01*
X0154342Y0110266D02*
X0098742Y0110266D01*
X0098742Y0109668D02*
X0129726Y0109668D01*
X0128561Y0109069D02*
X0098742Y0109069D01*
X0098742Y0108471D02*
X0127963Y0108471D01*
X0127605Y0107872D02*
X0098742Y0107872D01*
X0098742Y0107274D02*
X0127357Y0107274D01*
X0127242Y0106675D02*
X0098742Y0106675D01*
X0098742Y0106427D02*
X0098742Y0116173D01*
X0098215Y0116700D01*
X0088469Y0116700D01*
X0087942Y0116173D01*
X0087942Y0106427D01*
X0088469Y0105900D01*
X0098215Y0105900D01*
X0098742Y0106427D01*
X0098391Y0106077D02*
X0127242Y0106077D01*
X0127294Y0105478D02*
X0062642Y0105478D01*
X0062642Y0104880D02*
X0127542Y0104880D01*
X0127811Y0104281D02*
X0062642Y0104281D01*
X0062642Y0103683D02*
X0128409Y0103683D01*
X0129360Y0103084D02*
X0062642Y0103084D01*
X0062642Y0102486D02*
X0157659Y0102486D01*
X0157061Y0103084D02*
X0137324Y0103084D01*
X0138274Y0103683D02*
X0156462Y0103683D01*
X0155864Y0104281D02*
X0138873Y0104281D01*
X0139142Y0104880D02*
X0155265Y0104880D01*
X0154667Y0105478D02*
X0139390Y0105478D01*
X0139442Y0106077D02*
X0154342Y0106077D01*
X0154342Y0106675D02*
X0139442Y0106675D01*
X0139327Y0107274D02*
X0154342Y0107274D01*
X0154342Y0107872D02*
X0139079Y0107872D01*
X0138721Y0108471D02*
X0154342Y0108471D01*
X0154342Y0109069D02*
X0138122Y0109069D01*
X0128938Y0113259D02*
X0098742Y0113259D01*
X0098742Y0113857D02*
X0128235Y0113857D01*
X0127717Y0114456D02*
X0098742Y0114456D01*
X0098742Y0115054D02*
X0127469Y0115054D01*
X0127242Y0115653D02*
X0098742Y0115653D01*
X0098663Y0116251D02*
X0127242Y0116251D01*
X0127242Y0116850D02*
X0062642Y0116850D01*
X0062642Y0117448D02*
X0127429Y0117448D01*
X0127677Y0118047D02*
X0062642Y0118047D01*
X0062642Y0118645D02*
X0128137Y0118645D01*
X0128736Y0119244D02*
X0062642Y0119244D01*
X0062642Y0116251D02*
X0088020Y0116251D01*
X0087942Y0115653D02*
X0062642Y0115653D01*
X0062642Y0115054D02*
X0087942Y0115054D01*
X0087942Y0114456D02*
X0062642Y0114456D01*
X0062642Y0113857D02*
X0087942Y0113857D01*
X0087942Y0113259D02*
X0062642Y0113259D01*
X0062642Y0112660D02*
X0087942Y0112660D01*
X0087942Y0112062D02*
X0062642Y0112062D01*
X0062642Y0111463D02*
X0087942Y0111463D01*
X0087942Y0110865D02*
X0062642Y0110865D01*
X0062642Y0110266D02*
X0087942Y0110266D01*
X0087942Y0109668D02*
X0062642Y0109668D01*
X0062642Y0109069D02*
X0087942Y0109069D01*
X0087942Y0108471D02*
X0062642Y0108471D01*
X0062642Y0107872D02*
X0087942Y0107872D01*
X0087942Y0107274D02*
X0062642Y0107274D01*
X0062642Y0106675D02*
X0087942Y0106675D01*
X0088292Y0106077D02*
X0062642Y0106077D01*
X0062642Y0101887D02*
X0158258Y0101887D01*
X0158856Y0101289D02*
X0062642Y0101289D01*
X0062642Y0100690D02*
X0159455Y0100690D01*
X0160053Y0100092D02*
X0062642Y0100092D01*
X0062642Y0099493D02*
X0129305Y0099493D01*
X0128759Y0099267D02*
X0127775Y0098283D01*
X0127242Y0096996D01*
X0127242Y0095604D01*
X0127775Y0094317D01*
X0128759Y0093333D01*
X0130046Y0092800D01*
X0136638Y0092800D01*
X0137924Y0093333D01*
X0138909Y0094317D01*
X0139442Y0095604D01*
X0139442Y0096996D01*
X0138909Y0098283D01*
X0137924Y0099267D01*
X0136638Y0099800D01*
X0130046Y0099800D01*
X0128759Y0099267D01*
X0128387Y0098895D02*
X0062642Y0098895D01*
X0062642Y0098296D02*
X0127788Y0098296D01*
X0127532Y0097698D02*
X0062642Y0097698D01*
X0062642Y0097099D02*
X0127284Y0097099D01*
X0127242Y0096501D02*
X0062642Y0096501D01*
X0062642Y0095902D02*
X0127242Y0095902D01*
X0127366Y0095303D02*
X0062642Y0095303D01*
X0062642Y0094705D02*
X0127614Y0094705D01*
X0127986Y0094106D02*
X0062642Y0094106D01*
X0062642Y0093508D02*
X0128584Y0093508D01*
X0129781Y0092909D02*
X0062642Y0092909D01*
X0062642Y0092311D02*
X0187634Y0092311D01*
X0188232Y0091712D02*
X0062642Y0091712D01*
X0062642Y0091114D02*
X0188831Y0091114D01*
X0189429Y0090515D02*
X0062642Y0090515D01*
X0062642Y0089917D02*
X0190028Y0089917D01*
X0190626Y0089318D02*
X0062642Y0089318D01*
X0062642Y0088720D02*
X0191225Y0088720D01*
X0191823Y0088121D02*
X0062642Y0088121D01*
X0062642Y0087523D02*
X0192422Y0087523D01*
X0193020Y0086924D02*
X0062642Y0086924D01*
X0062642Y0086326D02*
X0193619Y0086326D01*
X0194217Y0085727D02*
X0062642Y0085727D01*
X0062642Y0085129D02*
X0194816Y0085129D01*
X0195414Y0084530D02*
X0062642Y0084530D01*
X0062642Y0083932D02*
X0196013Y0083932D01*
X0196611Y0083333D02*
X0062642Y0083333D01*
X0062642Y0082735D02*
X0197210Y0082735D01*
X0197809Y0082136D02*
X0062642Y0082136D01*
X0062642Y0081538D02*
X0198407Y0081538D01*
X0199006Y0080939D02*
X0062642Y0080939D01*
X0062642Y0080341D02*
X0199604Y0080341D01*
X0200203Y0079742D02*
X0062642Y0079742D01*
X0062642Y0079144D02*
X0200801Y0079144D01*
X0201400Y0078545D02*
X0062642Y0078545D01*
X0062642Y0077947D02*
X0201998Y0077947D01*
X0202597Y0077348D02*
X0062642Y0077348D01*
X0062642Y0076750D02*
X0203195Y0076750D01*
X0203794Y0076151D02*
X0062642Y0076151D01*
X0062642Y0075553D02*
X0204392Y0075553D01*
X0204991Y0074954D02*
X0062642Y0074954D01*
X0062642Y0074356D02*
X0205589Y0074356D01*
X0206188Y0073757D02*
X0062642Y0073757D01*
X0062642Y0073159D02*
X0206786Y0073159D01*
X0206179Y0072560D02*
X0200504Y0072560D01*
X0200533Y0072548D02*
X0199111Y0073137D01*
X0197572Y0073137D01*
X0196150Y0072548D01*
X0195062Y0071460D01*
X0194473Y0070038D01*
X0194473Y0062562D01*
X0195062Y0061140D01*
X0196150Y0060052D01*
X0197572Y0059463D01*
X0199111Y0059463D01*
X0200533Y0060052D01*
X0201621Y0061140D01*
X0202210Y0062562D01*
X0202210Y0070038D01*
X0201621Y0071460D01*
X0200533Y0072548D01*
X0201120Y0071962D02*
X0205564Y0071962D01*
X0205022Y0071363D02*
X0201661Y0071363D01*
X0201909Y0070765D02*
X0204774Y0070765D01*
X0204526Y0070166D02*
X0202157Y0070166D01*
X0202210Y0069568D02*
X0204473Y0069568D01*
X0204473Y0068969D02*
X0202210Y0068969D01*
X0202210Y0068370D02*
X0204473Y0068370D01*
X0204473Y0067772D02*
X0202210Y0067772D01*
X0202210Y0067173D02*
X0204473Y0067173D01*
X0204473Y0066575D02*
X0202210Y0066575D01*
X0202210Y0065976D02*
X0204473Y0065976D01*
X0204473Y0065378D02*
X0202210Y0065378D01*
X0202210Y0064779D02*
X0204473Y0064779D01*
X0204473Y0064181D02*
X0202210Y0064181D01*
X0202210Y0063582D02*
X0204473Y0063582D01*
X0204473Y0062984D02*
X0202210Y0062984D01*
X0202137Y0062385D02*
X0204546Y0062385D01*
X0204794Y0061787D02*
X0201889Y0061787D01*
X0201641Y0061188D02*
X0205042Y0061188D01*
X0205613Y0060590D02*
X0201071Y0060590D01*
X0200387Y0059991D02*
X0206297Y0059991D01*
X0210387Y0059991D02*
X0216297Y0059991D01*
X0215613Y0060590D02*
X0211071Y0060590D01*
X0211641Y0061188D02*
X0215042Y0061188D01*
X0214794Y0061787D02*
X0211889Y0061787D01*
X0212137Y0062385D02*
X0214546Y0062385D01*
X0214473Y0062984D02*
X0212210Y0062984D01*
X0212210Y0063582D02*
X0214473Y0063582D01*
X0214473Y0064181D02*
X0212210Y0064181D01*
X0212210Y0064779D02*
X0214473Y0064779D01*
X0214473Y0065378D02*
X0212210Y0065378D01*
X0212210Y0065976D02*
X0214473Y0065976D01*
X0214473Y0066575D02*
X0212210Y0066575D01*
X0212210Y0067173D02*
X0214473Y0067173D01*
X0214473Y0067772D02*
X0212210Y0067772D01*
X0212210Y0068370D02*
X0214473Y0068370D01*
X0213976Y0068969D02*
X0212210Y0068969D01*
X0212210Y0069568D02*
X0213377Y0069568D01*
X0212779Y0070166D02*
X0212157Y0070166D01*
X0212180Y0070765D02*
X0211909Y0070765D01*
X0213779Y0072560D02*
X0216179Y0072560D01*
X0216150Y0072548D02*
X0215062Y0071460D01*
X0215009Y0071330D01*
X0211839Y0074500D01*
X0208839Y0074500D01*
X0190539Y0092800D01*
X0196638Y0092800D01*
X0197924Y0093333D01*
X0198909Y0094317D01*
X0199442Y0095604D01*
X0199442Y0096996D01*
X0198909Y0098283D01*
X0197924Y0099267D01*
X0196638Y0099800D01*
X0190046Y0099800D01*
X0188759Y0099267D01*
X0187775Y0098283D01*
X0187242Y0096996D01*
X0187242Y0096097D01*
X0181839Y0101500D01*
X0162039Y0101500D01*
X0160739Y0102800D01*
X0166638Y0102800D01*
X0167924Y0103333D01*
X0168909Y0104317D01*
X0169442Y0105604D01*
X0169442Y0106996D01*
X0168909Y0108283D01*
X0167924Y0109267D01*
X0166638Y0109800D01*
X0161539Y0109800D01*
X0157942Y0113397D01*
X0157942Y0114150D01*
X0158759Y0113333D01*
X0160046Y0112800D01*
X0166638Y0112800D01*
X0167924Y0113333D01*
X0168909Y0114317D01*
X0169442Y0115604D01*
X0169442Y0116996D01*
X0168909Y0118283D01*
X0167924Y0119267D01*
X0167841Y0119302D01*
X0169942Y0121403D01*
X0169942Y0120203D01*
X0170645Y0119500D01*
X0189845Y0100300D01*
X0225245Y0100300D01*
X0225745Y0099800D01*
X0220046Y0099800D01*
X0218759Y0099267D01*
X0217775Y0098283D01*
X0217242Y0096996D01*
X0217242Y0095604D01*
X0217775Y0094317D01*
X0218759Y0093333D01*
X0220046Y0092800D01*
X0226638Y0092800D01*
X0227924Y0093333D01*
X0228909Y0094317D01*
X0229442Y0095604D01*
X0229442Y0096103D01*
X0253145Y0072400D01*
X0252646Y0072400D01*
X0251359Y0071867D01*
X0250375Y0070883D01*
X0249842Y0069596D01*
X0249842Y0067900D01*
X0222210Y0067900D01*
X0222210Y0070038D01*
X0221621Y0071460D01*
X0220533Y0072548D01*
X0219111Y0073137D01*
X0217572Y0073137D01*
X0216150Y0072548D01*
X0215564Y0071962D02*
X0214377Y0071962D01*
X0214976Y0071363D02*
X0215022Y0071363D01*
X0213180Y0073159D02*
X0252386Y0073159D01*
X0251788Y0073757D02*
X0212582Y0073757D01*
X0211983Y0074356D02*
X0251189Y0074356D01*
X0250591Y0074954D02*
X0208385Y0074954D01*
X0207786Y0075553D02*
X0249992Y0075553D01*
X0249394Y0076151D02*
X0207188Y0076151D01*
X0206589Y0076750D02*
X0248795Y0076750D01*
X0248197Y0077348D02*
X0205991Y0077348D01*
X0205392Y0077947D02*
X0247598Y0077947D01*
X0247000Y0078545D02*
X0204794Y0078545D01*
X0204195Y0079144D02*
X0246401Y0079144D01*
X0245803Y0079742D02*
X0203597Y0079742D01*
X0202998Y0080341D02*
X0245204Y0080341D01*
X0244606Y0080939D02*
X0202400Y0080939D01*
X0201801Y0081538D02*
X0244007Y0081538D01*
X0243409Y0082136D02*
X0201203Y0082136D01*
X0200604Y0082735D02*
X0242810Y0082735D01*
X0242211Y0083333D02*
X0200006Y0083333D01*
X0199407Y0083932D02*
X0241613Y0083932D01*
X0241014Y0084530D02*
X0198809Y0084530D01*
X0198210Y0085129D02*
X0240416Y0085129D01*
X0239817Y0085727D02*
X0197612Y0085727D01*
X0197013Y0086326D02*
X0239219Y0086326D01*
X0238620Y0086924D02*
X0196415Y0086924D01*
X0195816Y0087523D02*
X0238022Y0087523D01*
X0237423Y0088121D02*
X0195217Y0088121D01*
X0194619Y0088720D02*
X0236825Y0088720D01*
X0236226Y0089318D02*
X0194020Y0089318D01*
X0193422Y0089917D02*
X0235628Y0089917D01*
X0235029Y0090515D02*
X0192823Y0090515D01*
X0192225Y0091114D02*
X0234431Y0091114D01*
X0233832Y0091712D02*
X0191626Y0091712D01*
X0191028Y0092311D02*
X0233234Y0092311D01*
X0232635Y0092909D02*
X0226902Y0092909D01*
X0228100Y0093508D02*
X0232037Y0093508D01*
X0231438Y0094106D02*
X0228698Y0094106D01*
X0229069Y0094705D02*
X0230840Y0094705D01*
X0230241Y0095303D02*
X0229317Y0095303D01*
X0229442Y0095902D02*
X0229643Y0095902D01*
X0225453Y0100092D02*
X0183247Y0100092D01*
X0182649Y0100690D02*
X0189455Y0100690D01*
X0188856Y0101289D02*
X0182050Y0101289D01*
X0183846Y0099493D02*
X0189305Y0099493D01*
X0188387Y0098895D02*
X0184444Y0098895D01*
X0185043Y0098296D02*
X0187788Y0098296D01*
X0187532Y0097698D02*
X0185641Y0097698D01*
X0186240Y0097099D02*
X0187284Y0097099D01*
X0187242Y0096501D02*
X0186838Y0096501D01*
X0185240Y0094705D02*
X0169069Y0094705D01*
X0169317Y0095303D02*
X0184641Y0095303D01*
X0184043Y0095902D02*
X0169442Y0095902D01*
X0169442Y0096501D02*
X0183444Y0096501D01*
X0182846Y0097099D02*
X0169399Y0097099D01*
X0169151Y0097698D02*
X0182247Y0097698D01*
X0181649Y0098296D02*
X0168895Y0098296D01*
X0168297Y0098895D02*
X0181050Y0098895D01*
X0186462Y0103683D02*
X0168274Y0103683D01*
X0168873Y0104281D02*
X0185864Y0104281D01*
X0185265Y0104880D02*
X0169142Y0104880D01*
X0169390Y0105478D02*
X0184667Y0105478D01*
X0184068Y0106077D02*
X0169442Y0106077D01*
X0169442Y0106675D02*
X0183470Y0106675D01*
X0182871Y0107274D02*
X0169327Y0107274D01*
X0169079Y0107872D02*
X0182273Y0107872D01*
X0181674Y0108471D02*
X0168721Y0108471D01*
X0168122Y0109069D02*
X0181075Y0109069D01*
X0180477Y0109668D02*
X0166957Y0109668D01*
X0163342Y0106300D02*
X0156742Y0112900D01*
X0156742Y0168100D01*
X0088342Y0236500D01*
X0088342Y0251300D01*
X0074610Y0255106D02*
X0357073Y0255106D01*
X0357073Y0255705D02*
X0074610Y0255705D01*
X0074610Y0256303D02*
X0357073Y0256303D01*
X0357073Y0256902D02*
X0074610Y0256902D01*
X0074610Y0257500D02*
X0357073Y0257500D01*
X0357302Y0258099D02*
X0074382Y0258099D01*
X0074134Y0258697D02*
X0357550Y0258697D01*
X0357798Y0259296D02*
X0073886Y0259296D01*
X0073613Y0259894D02*
X0358071Y0259894D01*
X0358669Y0260493D02*
X0073014Y0260493D01*
X0072416Y0261091D02*
X0359268Y0261091D01*
X0359973Y0261690D02*
X0071710Y0261690D01*
X0065627Y0261961D02*
X0064791Y0261614D01*
X0063028Y0259851D01*
X0062642Y0258919D01*
X0062642Y0261961D01*
X0065627Y0261961D01*
X0064973Y0261690D02*
X0062642Y0261690D01*
X0062642Y0261091D02*
X0064268Y0261091D01*
X0063669Y0260493D02*
X0062642Y0260493D01*
X0062642Y0259894D02*
X0063071Y0259894D01*
X0062798Y0259296D02*
X0062642Y0259296D01*
X0062642Y0253310D02*
X0062795Y0253310D01*
X0062642Y0252712D02*
X0063065Y0252712D01*
X0062642Y0252113D02*
X0063663Y0252113D01*
X0064262Y0251515D02*
X0062642Y0251515D01*
X0062642Y0250916D02*
X0064958Y0250916D01*
X0066403Y0250318D02*
X0062642Y0250318D01*
X0048250Y0271266D02*
X0398342Y0271266D01*
X0398342Y0271864D02*
X0048261Y0271864D01*
X0048272Y0272463D02*
X0398342Y0272463D01*
X0398342Y0273061D02*
X0048283Y0273061D01*
X0048294Y0273660D02*
X0398342Y0273660D01*
X0398342Y0274258D02*
X0048305Y0274258D01*
X0048316Y0274857D02*
X0398342Y0274857D01*
X0398342Y0275455D02*
X0048326Y0275455D01*
X0048337Y0276054D02*
X0398342Y0276054D01*
X0398342Y0276652D02*
X0073011Y0276652D01*
X0114907Y0277251D02*
X0398342Y0277251D01*
X0398342Y0277849D02*
X0156803Y0277849D01*
X0140084Y0254508D02*
X0357299Y0254508D01*
X0357547Y0253909D02*
X0140683Y0253909D01*
X0141281Y0253310D02*
X0357795Y0253310D01*
X0358065Y0252712D02*
X0200137Y0252712D01*
X0200968Y0252113D02*
X0358663Y0252113D01*
X0359262Y0251515D02*
X0201566Y0251515D01*
X0201846Y0250916D02*
X0359958Y0250916D01*
X0361403Y0250318D02*
X0202094Y0250318D01*
X0202210Y0249719D02*
X0372743Y0249719D01*
X0372743Y0249121D02*
X0202210Y0249121D01*
X0202210Y0248522D02*
X0372743Y0248522D01*
X0372743Y0247924D02*
X0202210Y0247924D01*
X0202210Y0247325D02*
X0372743Y0247325D01*
X0372743Y0246727D02*
X0202210Y0246727D01*
X0202210Y0246128D02*
X0372743Y0246128D01*
X0372743Y0245530D02*
X0202210Y0245530D01*
X0202210Y0244931D02*
X0372743Y0244931D01*
X0372743Y0244333D02*
X0202210Y0244333D01*
X0202210Y0243734D02*
X0372743Y0243734D01*
X0372743Y0243136D02*
X0202210Y0243136D01*
X0202200Y0242537D02*
X0372743Y0242537D01*
X0372743Y0241939D02*
X0201952Y0241939D01*
X0201704Y0241340D02*
X0372743Y0241340D01*
X0372743Y0240742D02*
X0201223Y0240742D01*
X0200624Y0240143D02*
X0372743Y0240143D01*
X0372743Y0239545D02*
X0199342Y0239545D01*
X0199342Y0238946D02*
X0372743Y0238946D01*
X0372743Y0238348D02*
X0199342Y0238348D01*
X0199342Y0237749D02*
X0372743Y0237749D01*
X0372743Y0237151D02*
X0199342Y0237151D01*
X0199342Y0236552D02*
X0372743Y0236552D01*
X0372743Y0235954D02*
X0305385Y0235954D01*
X0305984Y0235355D02*
X0372743Y0235355D01*
X0372743Y0234757D02*
X0306582Y0234757D01*
X0307181Y0234158D02*
X0372743Y0234158D01*
X0372743Y0233560D02*
X0307779Y0233560D01*
X0308378Y0232961D02*
X0372743Y0232961D01*
X0372743Y0232363D02*
X0308976Y0232363D01*
X0309575Y0231764D02*
X0372743Y0231764D01*
X0372743Y0231166D02*
X0310173Y0231166D01*
X0310772Y0230567D02*
X0372743Y0230567D01*
X0372743Y0229969D02*
X0311370Y0229969D01*
X0311969Y0229370D02*
X0372743Y0229370D01*
X0372743Y0228772D02*
X0312567Y0228772D01*
X0313166Y0228173D02*
X0372743Y0228173D01*
X0372743Y0227574D02*
X0313764Y0227574D01*
X0314363Y0226976D02*
X0372743Y0226976D01*
X0372743Y0226377D02*
X0314961Y0226377D01*
X0315560Y0225779D02*
X0372743Y0225779D01*
X0372743Y0225180D02*
X0316158Y0225180D01*
X0316757Y0224582D02*
X0372743Y0224582D01*
X0372743Y0223983D02*
X0317355Y0223983D01*
X0317954Y0223385D02*
X0372743Y0223385D01*
X0372743Y0222786D02*
X0318552Y0222786D01*
X0319151Y0222188D02*
X0372743Y0222188D01*
X0372743Y0221589D02*
X0319749Y0221589D01*
X0320348Y0220991D02*
X0372743Y0220991D01*
X0372743Y0220392D02*
X0320946Y0220392D01*
X0321545Y0219794D02*
X0372743Y0219794D01*
X0372743Y0219195D02*
X0322144Y0219195D01*
X0322742Y0218597D02*
X0372743Y0218597D01*
X0372743Y0217998D02*
X0323341Y0217998D01*
X0323939Y0217400D02*
X0372743Y0217400D01*
X0372743Y0216801D02*
X0324538Y0216801D01*
X0325136Y0216203D02*
X0372743Y0216203D01*
X0372743Y0215604D02*
X0325735Y0215604D01*
X0326333Y0215006D02*
X0372743Y0215006D01*
X0372743Y0214407D02*
X0326932Y0214407D01*
X0327530Y0213809D02*
X0372743Y0213809D01*
X0372743Y0213210D02*
X0328129Y0213210D01*
X0328342Y0212612D02*
X0372743Y0212612D01*
X0372743Y0212013D02*
X0328342Y0212013D01*
X0328342Y0211415D02*
X0372743Y0211415D01*
X0372743Y0210816D02*
X0328342Y0210816D01*
X0328342Y0210218D02*
X0372743Y0210218D01*
X0372743Y0209619D02*
X0328342Y0209619D01*
X0328718Y0209021D02*
X0372743Y0209021D01*
X0372743Y0208422D02*
X0329317Y0208422D01*
X0329915Y0207824D02*
X0372743Y0207824D01*
X0372743Y0207225D02*
X0330514Y0207225D01*
X0331112Y0206627D02*
X0372743Y0206627D01*
X0372743Y0206028D02*
X0331711Y0206028D01*
X0332309Y0205430D02*
X0372743Y0205430D01*
X0372743Y0204831D02*
X0332908Y0204831D01*
X0333506Y0204233D02*
X0372743Y0204233D01*
X0372743Y0203634D02*
X0334105Y0203634D01*
X0334703Y0203036D02*
X0372743Y0203036D01*
X0372743Y0202437D02*
X0335302Y0202437D01*
X0335900Y0201839D02*
X0372743Y0201839D01*
X0372743Y0201240D02*
X0336499Y0201240D01*
X0337097Y0200641D02*
X0372743Y0200641D01*
X0372743Y0200043D02*
X0337696Y0200043D01*
X0338294Y0199444D02*
X0372743Y0199444D01*
X0372743Y0198846D02*
X0338893Y0198846D01*
X0339491Y0198247D02*
X0372743Y0198247D01*
X0372743Y0197649D02*
X0340090Y0197649D01*
X0340688Y0197050D02*
X0372743Y0197050D01*
X0372743Y0196452D02*
X0341287Y0196452D01*
X0341885Y0195853D02*
X0372743Y0195853D01*
X0372743Y0195255D02*
X0342484Y0195255D01*
X0343082Y0194656D02*
X0348367Y0194656D01*
X0347660Y0194058D02*
X0343681Y0194058D01*
X0344279Y0193459D02*
X0347080Y0193459D01*
X0346833Y0192861D02*
X0344878Y0192861D01*
X0345477Y0192262D02*
X0346585Y0192262D01*
X0346505Y0191664D02*
X0346075Y0191664D01*
X0350307Y0187431D02*
X0355313Y0187431D01*
X0357927Y0184817D01*
X0357080Y0185168D01*
X0352570Y0185168D01*
X0350307Y0187431D01*
X0350863Y0186876D02*
X0355869Y0186876D01*
X0356468Y0186277D02*
X0351462Y0186277D01*
X0352060Y0185679D02*
X0357066Y0185679D01*
X0357293Y0185080D02*
X0357665Y0185080D01*
X0359263Y0186876D02*
X0372743Y0186876D01*
X0372743Y0187474D02*
X0358665Y0187474D01*
X0358554Y0188073D02*
X0372743Y0188073D01*
X0372743Y0188671D02*
X0359152Y0188671D01*
X0359657Y0189270D02*
X0372743Y0189270D01*
X0372743Y0189868D02*
X0359905Y0189868D01*
X0360152Y0190467D02*
X0372743Y0190467D01*
X0372743Y0191065D02*
X0360179Y0191065D01*
X0360179Y0191664D02*
X0372743Y0191664D01*
X0372743Y0192262D02*
X0360099Y0192262D01*
X0359851Y0192861D02*
X0372743Y0192861D01*
X0372743Y0193459D02*
X0359603Y0193459D01*
X0359023Y0194058D02*
X0372743Y0194058D01*
X0372743Y0194656D02*
X0358316Y0194656D01*
X0353342Y0191300D02*
X0353542Y0190900D01*
X0360742Y0183700D01*
X0360742Y0180100D01*
X0357742Y0177100D01*
X0350542Y0177100D01*
X0334942Y0161500D01*
X0352942Y0143500D01*
X0352942Y0126700D01*
X0353342Y0126300D01*
X0352942Y0126100D01*
X0352942Y0113500D01*
X0307342Y0067900D01*
X0308542Y0067173D02*
X0309842Y0067173D01*
X0309842Y0066575D02*
X0308542Y0066575D01*
X0308542Y0065976D02*
X0309842Y0065976D01*
X0309842Y0065378D02*
X0308542Y0065378D01*
X0308542Y0064779D02*
X0309842Y0064779D01*
X0309842Y0064181D02*
X0308542Y0064181D01*
X0308542Y0063582D02*
X0309842Y0063582D01*
X0309850Y0062984D02*
X0308542Y0062984D01*
X0308542Y0062385D02*
X0310098Y0062385D01*
X0310346Y0061787D02*
X0308326Y0061787D01*
X0307727Y0061188D02*
X0310904Y0061188D01*
X0311704Y0060590D02*
X0307129Y0060590D01*
X0300346Y0061787D02*
X0296338Y0061787D01*
X0296586Y0062385D02*
X0300098Y0062385D01*
X0299850Y0062984D02*
X0296834Y0062984D01*
X0296842Y0063582D02*
X0299842Y0063582D01*
X0299842Y0064181D02*
X0296842Y0064181D01*
X0296842Y0064779D02*
X0299842Y0064779D01*
X0299842Y0065378D02*
X0296842Y0065378D01*
X0296842Y0065976D02*
X0299842Y0065976D01*
X0299842Y0066575D02*
X0296842Y0066575D01*
X0296842Y0067173D02*
X0299842Y0067173D01*
X0299842Y0067772D02*
X0296842Y0067772D01*
X0296842Y0068370D02*
X0299842Y0068370D01*
X0299842Y0068969D02*
X0296842Y0068969D01*
X0296842Y0069568D02*
X0299842Y0069568D01*
X0300078Y0070166D02*
X0296606Y0070166D01*
X0296358Y0070765D02*
X0300326Y0070765D01*
X0300855Y0071363D02*
X0295828Y0071363D01*
X0295096Y0071962D02*
X0301587Y0071962D01*
X0303742Y0066700D02*
X0303342Y0066300D01*
X0303742Y0066700D02*
X0303742Y0086500D01*
X0303219Y0088720D02*
X0304265Y0088720D01*
X0304863Y0089318D02*
X0302620Y0089318D01*
X0302022Y0089917D02*
X0305462Y0089917D01*
X0306060Y0090515D02*
X0301423Y0090515D01*
X0300825Y0091114D02*
X0306659Y0091114D01*
X0307257Y0091712D02*
X0300226Y0091712D01*
X0299628Y0092311D02*
X0307856Y0092311D01*
X0308454Y0092909D02*
X0299029Y0092909D01*
X0298431Y0093508D02*
X0309053Y0093508D01*
X0309651Y0094106D02*
X0297832Y0094106D01*
X0297234Y0094705D02*
X0310250Y0094705D01*
X0310848Y0095303D02*
X0296635Y0095303D01*
X0296037Y0095902D02*
X0311447Y0095902D01*
X0312045Y0096501D02*
X0295438Y0096501D01*
X0294840Y0097099D02*
X0312644Y0097099D01*
X0313242Y0097698D02*
X0294241Y0097698D01*
X0293643Y0098296D02*
X0313841Y0098296D01*
X0314439Y0098895D02*
X0293044Y0098895D01*
X0292446Y0099493D02*
X0315038Y0099493D01*
X0315636Y0100092D02*
X0291847Y0100092D01*
X0291249Y0100690D02*
X0316235Y0100690D01*
X0316833Y0101289D02*
X0290650Y0101289D01*
X0290052Y0101887D02*
X0317432Y0101887D01*
X0318030Y0102486D02*
X0289453Y0102486D01*
X0288855Y0103084D02*
X0318629Y0103084D01*
X0319227Y0103683D02*
X0288256Y0103683D01*
X0287542Y0102700D02*
X0219142Y0102700D01*
X0215542Y0106300D01*
X0193342Y0106300D01*
X0190739Y0102800D02*
X0196638Y0102800D01*
X0197924Y0103333D01*
X0198909Y0104317D01*
X0199233Y0105100D01*
X0215045Y0105100D01*
X0217445Y0102700D01*
X0190839Y0102700D01*
X0190739Y0102800D01*
X0188258Y0101887D02*
X0161652Y0101887D01*
X0161053Y0102486D02*
X0187659Y0102486D01*
X0187061Y0103084D02*
X0167324Y0103084D01*
X0159305Y0099493D02*
X0137379Y0099493D01*
X0138297Y0098895D02*
X0158387Y0098895D01*
X0157788Y0098296D02*
X0138895Y0098296D01*
X0139151Y0097698D02*
X0157532Y0097698D01*
X0157284Y0097099D02*
X0139399Y0097099D01*
X0139442Y0096501D02*
X0157242Y0096501D01*
X0157242Y0095902D02*
X0139442Y0095902D01*
X0139317Y0095303D02*
X0157366Y0095303D01*
X0157614Y0094705D02*
X0139069Y0094705D01*
X0138698Y0094106D02*
X0157986Y0094106D01*
X0158584Y0093508D02*
X0138100Y0093508D01*
X0136902Y0092909D02*
X0159781Y0092909D01*
X0166902Y0092909D02*
X0187035Y0092909D01*
X0186437Y0093508D02*
X0168100Y0093508D01*
X0168698Y0094106D02*
X0185838Y0094106D01*
X0196902Y0092909D02*
X0219781Y0092909D01*
X0218584Y0093508D02*
X0198100Y0093508D01*
X0198698Y0094106D02*
X0217986Y0094106D01*
X0217614Y0094705D02*
X0199069Y0094705D01*
X0199317Y0095303D02*
X0217366Y0095303D01*
X0217242Y0095902D02*
X0199442Y0095902D01*
X0199442Y0096501D02*
X0217242Y0096501D01*
X0217284Y0097099D02*
X0199399Y0097099D01*
X0199151Y0097698D02*
X0217532Y0097698D01*
X0217788Y0098296D02*
X0198895Y0098296D01*
X0198297Y0098895D02*
X0218387Y0098895D01*
X0219305Y0099493D02*
X0197379Y0099493D01*
X0197324Y0103084D02*
X0217061Y0103084D01*
X0216462Y0103683D02*
X0198274Y0103683D01*
X0198873Y0104281D02*
X0215864Y0104281D01*
X0215265Y0104880D02*
X0199142Y0104880D01*
X0199079Y0107872D02*
X0217605Y0107872D01*
X0217357Y0107274D02*
X0216265Y0107274D01*
X0216864Y0106675D02*
X0217242Y0106675D01*
X0217963Y0108471D02*
X0198721Y0108471D01*
X0198122Y0109069D02*
X0218561Y0109069D01*
X0219726Y0109668D02*
X0196957Y0109668D01*
X0196638Y0112800D02*
X0197924Y0113333D01*
X0198909Y0114317D01*
X0199442Y0115604D01*
X0199442Y0116996D01*
X0198909Y0118283D01*
X0197924Y0119267D01*
X0196638Y0119800D01*
X0190046Y0119800D01*
X0188759Y0119267D01*
X0187775Y0118283D01*
X0187242Y0116996D01*
X0187242Y0115604D01*
X0187775Y0114317D01*
X0188759Y0113333D01*
X0190046Y0112800D01*
X0196638Y0112800D01*
X0197746Y0113259D02*
X0218938Y0113259D01*
X0218759Y0113333D02*
X0220046Y0112800D01*
X0226638Y0112800D01*
X0227924Y0113333D01*
X0228909Y0114317D01*
X0229442Y0115604D01*
X0229442Y0116996D01*
X0228909Y0118283D01*
X0227924Y0119267D01*
X0226638Y0119800D01*
X0220046Y0119800D01*
X0218759Y0119267D01*
X0217775Y0118283D01*
X0217242Y0116996D01*
X0217242Y0115604D01*
X0217775Y0114317D01*
X0218759Y0113333D01*
X0218235Y0113857D02*
X0198449Y0113857D01*
X0198966Y0114456D02*
X0217717Y0114456D01*
X0217469Y0115054D02*
X0199214Y0115054D01*
X0199442Y0115653D02*
X0217242Y0115653D01*
X0217242Y0116251D02*
X0199442Y0116251D01*
X0199442Y0116850D02*
X0217242Y0116850D01*
X0217429Y0117448D02*
X0199254Y0117448D01*
X0199007Y0118047D02*
X0217677Y0118047D01*
X0218137Y0118645D02*
X0198546Y0118645D01*
X0197948Y0119244D02*
X0218736Y0119244D01*
X0220046Y0122800D02*
X0218759Y0123333D01*
X0217775Y0124317D01*
X0217242Y0125604D01*
X0217242Y0126996D01*
X0217775Y0128283D01*
X0218759Y0129267D01*
X0220046Y0129800D01*
X0226638Y0129800D01*
X0227924Y0129267D01*
X0228909Y0128283D01*
X0229442Y0126996D01*
X0229442Y0125604D01*
X0228909Y0124317D01*
X0227924Y0123333D01*
X0226638Y0122800D01*
X0220046Y0122800D01*
X0219961Y0122835D02*
X0196723Y0122835D01*
X0198025Y0123434D02*
X0218659Y0123434D01*
X0218060Y0124032D02*
X0198624Y0124032D01*
X0199039Y0124631D02*
X0217645Y0124631D01*
X0217397Y0125229D02*
X0199287Y0125229D01*
X0199442Y0125828D02*
X0217242Y0125828D01*
X0217242Y0126426D02*
X0199442Y0126426D01*
X0199430Y0127025D02*
X0217254Y0127025D01*
X0217501Y0127623D02*
X0199182Y0127623D01*
X0198934Y0128222D02*
X0217749Y0128222D01*
X0218312Y0128820D02*
X0198371Y0128820D01*
X0197757Y0129419D02*
X0219125Y0129419D01*
X0219539Y0133010D02*
X0201349Y0133010D01*
X0201947Y0133608D02*
X0218484Y0133608D01*
X0217885Y0134207D02*
X0202546Y0134207D01*
X0203144Y0134805D02*
X0217573Y0134805D01*
X0217325Y0135404D02*
X0203743Y0135404D01*
X0204341Y0136002D02*
X0217242Y0136002D01*
X0217242Y0136601D02*
X0204940Y0136601D01*
X0205538Y0137199D02*
X0217326Y0137199D01*
X0217574Y0137798D02*
X0206137Y0137798D01*
X0206735Y0138396D02*
X0217888Y0138396D01*
X0223342Y0136300D02*
X0243142Y0136300D01*
X0269542Y0162700D01*
X0289342Y0162700D01*
X0292942Y0166300D01*
X0293342Y0166300D01*
X0294717Y0169519D02*
X0306742Y0169519D01*
X0306742Y0170117D02*
X0271021Y0170117D01*
X0270423Y0170716D02*
X0306742Y0170716D01*
X0306742Y0171314D02*
X0269824Y0171314D01*
X0269226Y0171913D02*
X0306742Y0171913D01*
X0306742Y0172511D02*
X0268627Y0172511D01*
X0268029Y0173110D02*
X0306742Y0173110D01*
X0306742Y0173708D02*
X0267430Y0173708D01*
X0266832Y0174307D02*
X0306742Y0174307D01*
X0306742Y0174905D02*
X0266233Y0174905D01*
X0265635Y0175504D02*
X0306742Y0175504D01*
X0306742Y0176103D02*
X0265036Y0176103D01*
X0264438Y0176701D02*
X0306742Y0176701D01*
X0306742Y0177300D02*
X0221842Y0177300D01*
X0221693Y0177898D02*
X0306742Y0177898D01*
X0306742Y0178497D02*
X0221095Y0178497D01*
X0220496Y0179095D02*
X0306742Y0179095D01*
X0306742Y0179694D02*
X0219898Y0179694D01*
X0218631Y0180292D02*
X0306742Y0180292D01*
X0306742Y0180891D02*
X0219142Y0180891D01*
X0219142Y0181489D02*
X0306742Y0181489D01*
X0306742Y0182088D02*
X0219142Y0182088D01*
X0219142Y0182686D02*
X0306742Y0182686D01*
X0306742Y0183285D02*
X0219142Y0183285D01*
X0219142Y0183883D02*
X0306742Y0183883D01*
X0306742Y0184482D02*
X0219142Y0184482D01*
X0219142Y0185080D02*
X0306742Y0185080D01*
X0306742Y0185679D02*
X0219142Y0185679D01*
X0219142Y0186277D02*
X0306742Y0186277D01*
X0306742Y0186876D02*
X0219142Y0186876D01*
X0219142Y0187474D02*
X0306742Y0187474D01*
X0306742Y0188073D02*
X0219142Y0188073D01*
X0219142Y0188671D02*
X0306742Y0188671D01*
X0306742Y0189270D02*
X0219142Y0189270D01*
X0219142Y0189868D02*
X0306742Y0189868D01*
X0306742Y0190467D02*
X0219142Y0190467D01*
X0219142Y0191065D02*
X0306742Y0191065D01*
X0306742Y0191664D02*
X0219142Y0191664D01*
X0219142Y0192262D02*
X0306742Y0192262D01*
X0306742Y0192861D02*
X0294185Y0192861D01*
X0294038Y0192800D02*
X0295324Y0193333D01*
X0296309Y0194317D01*
X0296842Y0195604D01*
X0296842Y0196996D01*
X0296309Y0198283D01*
X0295324Y0199267D01*
X0294038Y0199800D01*
X0292646Y0199800D01*
X0291359Y0199267D01*
X0290375Y0198283D01*
X0289842Y0196996D01*
X0289842Y0195604D01*
X0290375Y0194317D01*
X0291359Y0193333D01*
X0292646Y0192800D01*
X0294038Y0192800D01*
X0292499Y0192861D02*
X0284185Y0192861D01*
X0284038Y0192800D02*
X0285324Y0193333D01*
X0286309Y0194317D01*
X0286842Y0195604D01*
X0286842Y0196996D01*
X0286309Y0198283D01*
X0285324Y0199267D01*
X0284038Y0199800D01*
X0282646Y0199800D01*
X0281359Y0199267D01*
X0280375Y0198283D01*
X0279842Y0196996D01*
X0279842Y0195604D01*
X0280375Y0194317D01*
X0281359Y0193333D01*
X0282646Y0192800D01*
X0284038Y0192800D01*
X0282499Y0192861D02*
X0274185Y0192861D01*
X0274038Y0192800D02*
X0275324Y0193333D01*
X0276309Y0194317D01*
X0276842Y0195604D01*
X0276842Y0196996D01*
X0276309Y0198283D01*
X0275324Y0199267D01*
X0274038Y0199800D01*
X0272646Y0199800D01*
X0271359Y0199267D01*
X0270375Y0198283D01*
X0269842Y0196996D01*
X0269842Y0195604D01*
X0270375Y0194317D01*
X0271359Y0193333D01*
X0272646Y0192800D01*
X0274038Y0192800D01*
X0272499Y0192861D02*
X0264185Y0192861D01*
X0264038Y0192800D02*
X0265324Y0193333D01*
X0266309Y0194317D01*
X0266842Y0195604D01*
X0266842Y0196996D01*
X0266309Y0198283D01*
X0265324Y0199267D01*
X0264038Y0199800D01*
X0262646Y0199800D01*
X0261359Y0199267D01*
X0260375Y0198283D01*
X0259842Y0196996D01*
X0259842Y0195604D01*
X0260375Y0194317D01*
X0261359Y0193333D01*
X0262646Y0192800D01*
X0264038Y0192800D01*
X0262499Y0192861D02*
X0219142Y0192861D01*
X0219142Y0193459D02*
X0261233Y0193459D01*
X0260634Y0194058D02*
X0219142Y0194058D01*
X0219142Y0194656D02*
X0260234Y0194656D01*
X0259986Y0195255D02*
X0219142Y0195255D01*
X0219142Y0195853D02*
X0259842Y0195853D01*
X0259842Y0196452D02*
X0219142Y0196452D01*
X0219142Y0197050D02*
X0259864Y0197050D01*
X0260112Y0197649D02*
X0219142Y0197649D01*
X0219142Y0198247D02*
X0260360Y0198247D01*
X0260938Y0198846D02*
X0219142Y0198846D01*
X0219142Y0199444D02*
X0261787Y0199444D01*
X0264896Y0199444D02*
X0271787Y0199444D01*
X0270938Y0198846D02*
X0265746Y0198846D01*
X0266324Y0198247D02*
X0270360Y0198247D01*
X0270112Y0197649D02*
X0266571Y0197649D01*
X0266819Y0197050D02*
X0269864Y0197050D01*
X0269842Y0196452D02*
X0266842Y0196452D01*
X0266842Y0195853D02*
X0269842Y0195853D01*
X0269986Y0195255D02*
X0266697Y0195255D01*
X0266449Y0194656D02*
X0270234Y0194656D01*
X0270634Y0194058D02*
X0266049Y0194058D01*
X0265451Y0193459D02*
X0271233Y0193459D01*
X0275451Y0193459D02*
X0281233Y0193459D01*
X0280634Y0194058D02*
X0276049Y0194058D01*
X0276449Y0194656D02*
X0280234Y0194656D01*
X0279986Y0195255D02*
X0276697Y0195255D01*
X0276842Y0195853D02*
X0279842Y0195853D01*
X0279842Y0196452D02*
X0276842Y0196452D01*
X0276819Y0197050D02*
X0279864Y0197050D01*
X0280112Y0197649D02*
X0276571Y0197649D01*
X0276324Y0198247D02*
X0280360Y0198247D01*
X0280938Y0198846D02*
X0275746Y0198846D01*
X0274896Y0199444D02*
X0281787Y0199444D01*
X0284896Y0199444D02*
X0291787Y0199444D01*
X0290938Y0198846D02*
X0285746Y0198846D01*
X0286324Y0198247D02*
X0290360Y0198247D01*
X0290112Y0197649D02*
X0286571Y0197649D01*
X0286819Y0197050D02*
X0289864Y0197050D01*
X0289842Y0196452D02*
X0286842Y0196452D01*
X0286842Y0195853D02*
X0289842Y0195853D01*
X0289986Y0195255D02*
X0286697Y0195255D01*
X0286449Y0194656D02*
X0290234Y0194656D01*
X0290634Y0194058D02*
X0286049Y0194058D01*
X0285451Y0193459D02*
X0291233Y0193459D01*
X0295451Y0193459D02*
X0306742Y0193459D01*
X0306742Y0194058D02*
X0296049Y0194058D01*
X0296449Y0194656D02*
X0306742Y0194656D01*
X0306742Y0195255D02*
X0296697Y0195255D01*
X0296842Y0195853D02*
X0306742Y0195853D01*
X0306742Y0196452D02*
X0296842Y0196452D01*
X0296819Y0197050D02*
X0306742Y0197050D01*
X0306742Y0197649D02*
X0296571Y0197649D01*
X0296324Y0198247D02*
X0306742Y0198247D01*
X0306742Y0198846D02*
X0295746Y0198846D01*
X0294896Y0199444D02*
X0306742Y0199444D01*
X0306742Y0200043D02*
X0219142Y0200043D01*
X0219142Y0200641D02*
X0306742Y0200641D01*
X0306742Y0201240D02*
X0219142Y0201240D01*
X0219142Y0201839D02*
X0306742Y0201839D01*
X0306742Y0202437D02*
X0219142Y0202437D01*
X0219142Y0203036D02*
X0306742Y0203036D01*
X0306742Y0203634D02*
X0219142Y0203634D01*
X0219142Y0204233D02*
X0306742Y0204233D01*
X0306742Y0204831D02*
X0219142Y0204831D01*
X0219142Y0205430D02*
X0306742Y0205430D01*
X0306742Y0206028D02*
X0219142Y0206028D01*
X0219142Y0206627D02*
X0306742Y0206627D01*
X0306742Y0207225D02*
X0219142Y0207225D01*
X0219815Y0207824D02*
X0251868Y0207824D01*
X0251892Y0207800D02*
X0254792Y0207800D01*
X0256842Y0209850D01*
X0256842Y0212750D01*
X0254792Y0214800D01*
X0251892Y0214800D01*
X0249842Y0212750D01*
X0249842Y0209850D01*
X0251892Y0207800D01*
X0251270Y0208422D02*
X0220414Y0208422D01*
X0221012Y0209021D02*
X0250671Y0209021D01*
X0250073Y0209619D02*
X0221611Y0209619D01*
X0221842Y0210218D02*
X0249842Y0210218D01*
X0249842Y0210816D02*
X0221842Y0210816D01*
X0221842Y0211415D02*
X0249842Y0211415D01*
X0249842Y0212013D02*
X0221842Y0212013D01*
X0221842Y0212612D02*
X0249842Y0212612D01*
X0250302Y0213210D02*
X0221381Y0213210D01*
X0220783Y0213809D02*
X0250901Y0213809D01*
X0251499Y0214407D02*
X0220184Y0214407D01*
X0219143Y0215604D02*
X0302542Y0215604D01*
X0302542Y0216203D02*
X0219742Y0216203D01*
X0220340Y0216801D02*
X0302542Y0216801D01*
X0302542Y0217400D02*
X0220939Y0217400D01*
X0221537Y0217998D02*
X0302542Y0217998D01*
X0302542Y0218597D02*
X0222136Y0218597D01*
X0222734Y0219195D02*
X0302542Y0219195D01*
X0302542Y0219794D02*
X0223333Y0219794D01*
X0223931Y0220392D02*
X0302542Y0220392D01*
X0302542Y0220991D02*
X0224530Y0220991D01*
X0225128Y0221589D02*
X0302542Y0221589D01*
X0302542Y0222188D02*
X0225727Y0222188D01*
X0226325Y0222786D02*
X0302542Y0222786D01*
X0302542Y0223385D02*
X0226924Y0223385D01*
X0227522Y0223983D02*
X0302542Y0223983D01*
X0302542Y0224582D02*
X0228121Y0224582D01*
X0228719Y0225180D02*
X0302542Y0225180D01*
X0302542Y0225779D02*
X0229318Y0225779D01*
X0229916Y0226377D02*
X0302542Y0226377D01*
X0302542Y0226976D02*
X0230515Y0226976D01*
X0231113Y0227574D02*
X0302542Y0227574D01*
X0301519Y0228173D02*
X0255165Y0228173D01*
X0255763Y0228772D02*
X0300921Y0228772D01*
X0300322Y0229370D02*
X0256362Y0229370D01*
X0256842Y0229969D02*
X0299842Y0229969D01*
X0299842Y0230567D02*
X0256842Y0230567D01*
X0256842Y0231166D02*
X0299842Y0231166D01*
X0299842Y0231764D02*
X0256842Y0231764D01*
X0256842Y0232363D02*
X0299842Y0232363D01*
X0300053Y0232961D02*
X0256630Y0232961D01*
X0256032Y0233560D02*
X0300652Y0233560D01*
X0303342Y0231300D02*
X0303742Y0231100D01*
X0303742Y0216100D01*
X0307942Y0211900D01*
X0307942Y0146500D01*
X0308342Y0146300D01*
X0310774Y0143783D02*
X0350962Y0143783D01*
X0351560Y0143184D02*
X0310176Y0143184D01*
X0311373Y0144381D02*
X0350363Y0144381D01*
X0349765Y0144980D02*
X0311842Y0144980D01*
X0311842Y0145578D02*
X0349166Y0145578D01*
X0348568Y0146177D02*
X0311842Y0146177D01*
X0311842Y0146775D02*
X0347969Y0146775D01*
X0347371Y0147374D02*
X0311842Y0147374D01*
X0311619Y0147972D02*
X0346772Y0147972D01*
X0346174Y0148571D02*
X0311021Y0148571D01*
X0310422Y0149170D02*
X0345575Y0149170D01*
X0344977Y0149768D02*
X0309824Y0149768D01*
X0309142Y0150367D02*
X0344378Y0150367D01*
X0343780Y0150965D02*
X0309142Y0150965D01*
X0309142Y0151564D02*
X0343181Y0151564D01*
X0342583Y0152162D02*
X0309142Y0152162D01*
X0309142Y0152761D02*
X0341984Y0152761D01*
X0341386Y0153359D02*
X0309142Y0153359D01*
X0309142Y0153958D02*
X0340787Y0153958D01*
X0340189Y0154556D02*
X0309142Y0154556D01*
X0309142Y0155155D02*
X0339590Y0155155D01*
X0338992Y0155753D02*
X0309142Y0155753D01*
X0309142Y0156352D02*
X0338393Y0156352D01*
X0337795Y0156950D02*
X0309142Y0156950D01*
X0309142Y0157549D02*
X0337196Y0157549D01*
X0336598Y0158147D02*
X0325139Y0158147D01*
X0325737Y0158746D02*
X0335999Y0158746D01*
X0335401Y0159344D02*
X0326336Y0159344D01*
X0326842Y0159943D02*
X0334802Y0159943D01*
X0334942Y0161500D02*
X0323542Y0161500D01*
X0323342Y0161300D01*
X0320946Y0158746D02*
X0309142Y0158746D01*
X0309142Y0159344D02*
X0320348Y0159344D01*
X0319842Y0159943D02*
X0309142Y0159943D01*
X0309142Y0160541D02*
X0319842Y0160541D01*
X0319842Y0161140D02*
X0309142Y0161140D01*
X0309142Y0161738D02*
X0319842Y0161738D01*
X0319842Y0162337D02*
X0309142Y0162337D01*
X0309142Y0162935D02*
X0320027Y0162935D01*
X0320626Y0163534D02*
X0309142Y0163534D01*
X0309142Y0164132D02*
X0321224Y0164132D01*
X0321823Y0164731D02*
X0309142Y0164731D01*
X0309142Y0165329D02*
X0337074Y0165329D01*
X0336476Y0164731D02*
X0324861Y0164731D01*
X0325459Y0164132D02*
X0335877Y0164132D01*
X0335279Y0163534D02*
X0326058Y0163534D01*
X0326656Y0162935D02*
X0334680Y0162935D01*
X0337673Y0165928D02*
X0309142Y0165928D01*
X0309142Y0166526D02*
X0338271Y0166526D01*
X0338870Y0167125D02*
X0309142Y0167125D01*
X0309142Y0167723D02*
X0339468Y0167723D01*
X0340067Y0168322D02*
X0309142Y0168322D01*
X0309142Y0168920D02*
X0340665Y0168920D01*
X0341264Y0169519D02*
X0309142Y0169519D01*
X0309142Y0170117D02*
X0341862Y0170117D01*
X0342461Y0170716D02*
X0309142Y0170716D01*
X0309142Y0171314D02*
X0343059Y0171314D01*
X0343658Y0171913D02*
X0309142Y0171913D01*
X0309142Y0172511D02*
X0344256Y0172511D01*
X0350643Y0175504D02*
X0372743Y0175504D01*
X0372743Y0174905D02*
X0357715Y0174905D01*
X0358774Y0174307D02*
X0372743Y0174307D01*
X0372743Y0173708D02*
X0359373Y0173708D01*
X0359748Y0173110D02*
X0372743Y0173110D01*
X0372743Y0172511D02*
X0359996Y0172511D01*
X0360179Y0171913D02*
X0372743Y0171913D01*
X0372743Y0171314D02*
X0360179Y0171314D01*
X0360179Y0170716D02*
X0372743Y0170716D01*
X0372743Y0170117D02*
X0360008Y0170117D01*
X0359760Y0169519D02*
X0372743Y0169519D01*
X0372743Y0168920D02*
X0359402Y0168920D01*
X0358803Y0168322D02*
X0372743Y0168322D01*
X0372743Y0167723D02*
X0357784Y0167723D01*
X0358441Y0176103D02*
X0372743Y0176103D01*
X0372743Y0176701D02*
X0359040Y0176701D01*
X0359638Y0177300D02*
X0372743Y0177300D01*
X0372743Y0177898D02*
X0360237Y0177898D01*
X0360835Y0178497D02*
X0372743Y0178497D01*
X0372743Y0179095D02*
X0361434Y0179095D01*
X0361942Y0179694D02*
X0372743Y0179694D01*
X0372743Y0180292D02*
X0361942Y0180292D01*
X0361942Y0180891D02*
X0372743Y0180891D01*
X0372743Y0181489D02*
X0361942Y0181489D01*
X0361942Y0182088D02*
X0372743Y0182088D01*
X0372743Y0182686D02*
X0361942Y0182686D01*
X0361942Y0183285D02*
X0372743Y0183285D01*
X0372743Y0183883D02*
X0361942Y0183883D01*
X0361657Y0184482D02*
X0372743Y0184482D01*
X0372743Y0185080D02*
X0361059Y0185080D01*
X0360460Y0185679D02*
X0372743Y0185679D01*
X0372743Y0186277D02*
X0359862Y0186277D01*
X0352942Y0183100D02*
X0352942Y0181300D01*
X0353342Y0181300D01*
X0352942Y0183100D02*
X0327142Y0208900D01*
X0321868Y0207824D02*
X0309142Y0207824D01*
X0309142Y0208422D02*
X0321270Y0208422D01*
X0320671Y0209021D02*
X0309142Y0209021D01*
X0309142Y0209619D02*
X0320073Y0209619D01*
X0319842Y0210218D02*
X0309142Y0210218D01*
X0309142Y0210816D02*
X0319842Y0210816D01*
X0319842Y0211415D02*
X0309142Y0211415D01*
X0309142Y0212013D02*
X0319842Y0212013D01*
X0319842Y0212612D02*
X0308927Y0212612D01*
X0308329Y0213210D02*
X0320302Y0213210D01*
X0320901Y0213809D02*
X0307730Y0213809D01*
X0307132Y0214407D02*
X0321499Y0214407D01*
X0322340Y0215604D02*
X0305935Y0215604D01*
X0306533Y0215006D02*
X0322939Y0215006D01*
X0321742Y0216203D02*
X0305336Y0216203D01*
X0304942Y0216801D02*
X0321143Y0216801D01*
X0320545Y0217400D02*
X0304942Y0217400D01*
X0304942Y0217998D02*
X0319946Y0217998D01*
X0319348Y0218597D02*
X0304942Y0218597D01*
X0304942Y0219195D02*
X0318749Y0219195D01*
X0318151Y0219794D02*
X0304942Y0219794D01*
X0304942Y0220392D02*
X0317552Y0220392D01*
X0316954Y0220991D02*
X0304942Y0220991D01*
X0304942Y0221589D02*
X0316355Y0221589D01*
X0315757Y0222188D02*
X0304942Y0222188D01*
X0304942Y0222786D02*
X0315158Y0222786D01*
X0314560Y0223385D02*
X0304942Y0223385D01*
X0304942Y0223983D02*
X0313961Y0223983D01*
X0313363Y0224582D02*
X0304942Y0224582D01*
X0304942Y0225180D02*
X0312764Y0225180D01*
X0312166Y0225779D02*
X0304942Y0225779D01*
X0304942Y0226377D02*
X0311567Y0226377D01*
X0310969Y0226976D02*
X0304942Y0226976D01*
X0304942Y0227574D02*
X0310370Y0227574D01*
X0309772Y0228173D02*
X0305165Y0228173D01*
X0305763Y0228772D02*
X0309173Y0228772D01*
X0308575Y0229370D02*
X0306362Y0229370D01*
X0306842Y0229969D02*
X0307976Y0229969D01*
X0307378Y0230567D02*
X0306842Y0230567D01*
X0303139Y0215006D02*
X0218545Y0215006D01*
X0216946Y0216801D02*
X0199342Y0216801D01*
X0199342Y0216203D02*
X0216348Y0216203D01*
X0215749Y0215604D02*
X0199342Y0215604D01*
X0199342Y0215006D02*
X0215151Y0215006D01*
X0214552Y0214407D02*
X0199342Y0214407D01*
X0199342Y0213809D02*
X0213953Y0213809D01*
X0213355Y0213210D02*
X0199342Y0213210D01*
X0198751Y0212612D02*
X0212756Y0212612D01*
X0212158Y0212013D02*
X0198152Y0212013D01*
X0197554Y0211415D02*
X0211559Y0211415D01*
X0210961Y0210816D02*
X0196955Y0210816D01*
X0196357Y0210218D02*
X0210362Y0210218D01*
X0209764Y0209619D02*
X0195758Y0209619D01*
X0195159Y0209021D02*
X0209165Y0209021D01*
X0208567Y0208422D02*
X0194561Y0208422D01*
X0193962Y0207824D02*
X0207968Y0207824D01*
X0207370Y0207225D02*
X0193364Y0207225D01*
X0192765Y0206627D02*
X0206771Y0206627D01*
X0206173Y0206028D02*
X0192167Y0206028D01*
X0191568Y0205430D02*
X0205574Y0205430D01*
X0204976Y0204831D02*
X0190970Y0204831D01*
X0190371Y0204233D02*
X0204377Y0204233D01*
X0203779Y0203634D02*
X0189773Y0203634D01*
X0189174Y0203036D02*
X0203180Y0203036D01*
X0202582Y0202437D02*
X0188576Y0202437D01*
X0187977Y0201839D02*
X0201983Y0201839D01*
X0201385Y0201240D02*
X0187379Y0201240D01*
X0186780Y0200641D02*
X0200786Y0200641D01*
X0200188Y0200043D02*
X0186182Y0200043D01*
X0185583Y0199444D02*
X0199589Y0199444D01*
X0198991Y0198846D02*
X0184985Y0198846D01*
X0184386Y0198247D02*
X0198742Y0198247D01*
X0198742Y0197649D02*
X0183788Y0197649D01*
X0183189Y0197050D02*
X0198742Y0197050D01*
X0198742Y0196452D02*
X0182591Y0196452D01*
X0181992Y0195853D02*
X0198742Y0195853D01*
X0198742Y0195255D02*
X0181394Y0195255D01*
X0180795Y0194656D02*
X0198742Y0194656D01*
X0198742Y0194058D02*
X0180197Y0194058D01*
X0179598Y0193459D02*
X0198742Y0193459D01*
X0198742Y0192861D02*
X0179000Y0192861D01*
X0178401Y0192262D02*
X0198742Y0192262D01*
X0198742Y0191664D02*
X0177803Y0191664D01*
X0177204Y0191065D02*
X0198742Y0191065D01*
X0198742Y0190467D02*
X0176606Y0190467D01*
X0176007Y0189868D02*
X0198742Y0189868D01*
X0198742Y0189270D02*
X0175409Y0189270D01*
X0174810Y0188671D02*
X0198742Y0188671D01*
X0198742Y0188073D02*
X0174212Y0188073D01*
X0173613Y0187474D02*
X0198742Y0187474D01*
X0198742Y0186876D02*
X0173015Y0186876D01*
X0172416Y0186277D02*
X0198742Y0186277D01*
X0198742Y0185679D02*
X0171818Y0185679D01*
X0171219Y0185080D02*
X0198742Y0185080D01*
X0198742Y0184482D02*
X0170621Y0184482D01*
X0170022Y0183883D02*
X0198742Y0183883D01*
X0198742Y0183285D02*
X0169942Y0183285D01*
X0169942Y0182686D02*
X0198742Y0182686D01*
X0198742Y0182088D02*
X0169942Y0182088D01*
X0169942Y0181489D02*
X0198742Y0181489D01*
X0198742Y0180891D02*
X0169942Y0180891D01*
X0169942Y0180292D02*
X0198742Y0180292D01*
X0198742Y0179694D02*
X0169942Y0179694D01*
X0170496Y0179095D02*
X0198742Y0179095D01*
X0198742Y0178497D02*
X0171095Y0178497D01*
X0171693Y0177898D02*
X0198742Y0177898D01*
X0198742Y0177300D02*
X0171842Y0177300D01*
X0171842Y0176701D02*
X0198742Y0176701D01*
X0198742Y0176103D02*
X0171842Y0176103D01*
X0171842Y0175504D02*
X0198742Y0175504D01*
X0198742Y0174905D02*
X0171842Y0174905D01*
X0172032Y0174307D02*
X0198742Y0174307D01*
X0198742Y0173708D02*
X0172342Y0173708D01*
X0172342Y0173110D02*
X0198742Y0173110D01*
X0198742Y0172511D02*
X0172342Y0172511D01*
X0172342Y0171913D02*
X0198742Y0171913D01*
X0198742Y0171314D02*
X0172342Y0171314D01*
X0172342Y0170716D02*
X0198742Y0170716D01*
X0198742Y0170117D02*
X0172342Y0170117D01*
X0172342Y0169519D02*
X0198742Y0169519D01*
X0198742Y0168920D02*
X0172342Y0168920D01*
X0172342Y0168322D02*
X0198742Y0168322D01*
X0198742Y0167723D02*
X0172342Y0167723D01*
X0172342Y0167125D02*
X0198742Y0167125D01*
X0198742Y0166526D02*
X0172342Y0166526D01*
X0172342Y0165928D02*
X0198742Y0165928D01*
X0198742Y0165329D02*
X0172342Y0165329D01*
X0172342Y0164731D02*
X0198742Y0164731D01*
X0198742Y0164132D02*
X0172342Y0164132D01*
X0172342Y0163534D02*
X0198742Y0163534D01*
X0198742Y0162935D02*
X0172342Y0162935D01*
X0172342Y0162337D02*
X0198742Y0162337D01*
X0198742Y0161738D02*
X0172342Y0161738D01*
X0172342Y0161140D02*
X0198742Y0161140D01*
X0198742Y0160541D02*
X0172342Y0160541D01*
X0172342Y0159943D02*
X0198742Y0159943D01*
X0198742Y0159344D02*
X0197738Y0159344D01*
X0198446Y0158746D02*
X0198742Y0158746D01*
X0201142Y0158746D02*
X0218238Y0158746D01*
X0217775Y0158283D02*
X0217242Y0156996D01*
X0217242Y0155604D01*
X0217775Y0154317D01*
X0218759Y0153333D01*
X0220046Y0152800D01*
X0226638Y0152800D01*
X0227924Y0153333D01*
X0228909Y0154317D01*
X0229442Y0155604D01*
X0229442Y0156996D01*
X0228909Y0158283D01*
X0227924Y0159267D01*
X0226638Y0159800D01*
X0220046Y0159800D01*
X0218759Y0159267D01*
X0217775Y0158283D01*
X0217719Y0158147D02*
X0201142Y0158147D01*
X0201142Y0157549D02*
X0217471Y0157549D01*
X0217242Y0156950D02*
X0201142Y0156950D01*
X0201142Y0156352D02*
X0217242Y0156352D01*
X0217242Y0155753D02*
X0201142Y0155753D01*
X0201142Y0155155D02*
X0217428Y0155155D01*
X0217676Y0154556D02*
X0201142Y0154556D01*
X0201142Y0153958D02*
X0218134Y0153958D01*
X0218733Y0153359D02*
X0201142Y0153359D01*
X0201142Y0152761D02*
X0235184Y0152761D01*
X0235107Y0152162D02*
X0200701Y0152162D01*
X0200102Y0151564D02*
X0234508Y0151564D01*
X0233910Y0150965D02*
X0199504Y0150965D01*
X0198905Y0150367D02*
X0233311Y0150367D01*
X0232713Y0149768D02*
X0226715Y0149768D01*
X0228022Y0149170D02*
X0232114Y0149170D01*
X0231516Y0148571D02*
X0228621Y0148571D01*
X0229037Y0147972D02*
X0230917Y0147972D01*
X0230319Y0147374D02*
X0229285Y0147374D01*
X0229442Y0146775D02*
X0229720Y0146775D01*
X0231319Y0144980D02*
X0250125Y0144980D01*
X0250723Y0145578D02*
X0231917Y0145578D01*
X0232516Y0146177D02*
X0251322Y0146177D01*
X0251920Y0146775D02*
X0233114Y0146775D01*
X0233713Y0147374D02*
X0252519Y0147374D01*
X0253117Y0147972D02*
X0234311Y0147972D01*
X0234910Y0148571D02*
X0253716Y0148571D01*
X0254314Y0149170D02*
X0235508Y0149170D01*
X0236107Y0149768D02*
X0254913Y0149768D01*
X0255511Y0150367D02*
X0236705Y0150367D01*
X0237304Y0150965D02*
X0256110Y0150965D01*
X0256708Y0151564D02*
X0237902Y0151564D01*
X0237639Y0151300D02*
X0238342Y0152003D01*
X0251439Y0165100D01*
X0260050Y0165100D01*
X0260375Y0164317D01*
X0261359Y0163333D01*
X0262646Y0162800D01*
X0264038Y0162800D01*
X0265324Y0163333D01*
X0266309Y0164317D01*
X0266842Y0165604D01*
X0266842Y0166996D01*
X0266309Y0168283D01*
X0265324Y0169267D01*
X0264038Y0169800D01*
X0262646Y0169800D01*
X0261359Y0169267D01*
X0260375Y0168283D01*
X0260050Y0167500D01*
X0250445Y0167500D01*
X0237142Y0154197D01*
X0218539Y0172800D01*
X0219792Y0172800D01*
X0221692Y0174700D01*
X0263045Y0174700D01*
X0270107Y0167637D01*
X0269842Y0166996D01*
X0269842Y0165604D01*
X0270375Y0164317D01*
X0270792Y0163900D01*
X0269045Y0163900D01*
X0268342Y0163197D01*
X0242645Y0137500D01*
X0229233Y0137500D01*
X0228909Y0138283D01*
X0227924Y0139267D01*
X0226638Y0139800D01*
X0226139Y0139800D01*
X0237639Y0151300D01*
X0237639Y0151300D01*
X0238342Y0152003D02*
X0238342Y0152003D01*
X0238501Y0152162D02*
X0257307Y0152162D01*
X0257905Y0152761D02*
X0239099Y0152761D01*
X0239698Y0153359D02*
X0258504Y0153359D01*
X0259102Y0153958D02*
X0240296Y0153958D01*
X0240895Y0154556D02*
X0259701Y0154556D01*
X0260299Y0155155D02*
X0241493Y0155155D01*
X0242092Y0155753D02*
X0260898Y0155753D01*
X0261496Y0156352D02*
X0242690Y0156352D01*
X0243289Y0156950D02*
X0262095Y0156950D01*
X0262693Y0157549D02*
X0243888Y0157549D01*
X0244486Y0158147D02*
X0263292Y0158147D01*
X0263890Y0158746D02*
X0245085Y0158746D01*
X0245683Y0159344D02*
X0264489Y0159344D01*
X0265087Y0159943D02*
X0246282Y0159943D01*
X0246880Y0160541D02*
X0265686Y0160541D01*
X0266284Y0161140D02*
X0247479Y0161140D01*
X0248077Y0161738D02*
X0266883Y0161738D01*
X0267482Y0162337D02*
X0248676Y0162337D01*
X0249274Y0162935D02*
X0262319Y0162935D01*
X0261158Y0163534D02*
X0249873Y0163534D01*
X0250471Y0164132D02*
X0260560Y0164132D01*
X0260203Y0164731D02*
X0251070Y0164731D01*
X0250942Y0166300D02*
X0237142Y0152500D01*
X0214342Y0175300D01*
X0214342Y0177700D01*
X0217942Y0181300D01*
X0217942Y0211300D01*
X0218342Y0211300D01*
X0215671Y0209021D02*
X0212559Y0209021D01*
X0211961Y0208422D02*
X0216270Y0208422D01*
X0216742Y0207824D02*
X0211362Y0207824D01*
X0210764Y0207225D02*
X0216742Y0207225D01*
X0216742Y0206627D02*
X0210165Y0206627D01*
X0209567Y0206028D02*
X0216742Y0206028D01*
X0216742Y0205430D02*
X0208968Y0205430D01*
X0208370Y0204831D02*
X0216742Y0204831D01*
X0216742Y0204233D02*
X0207771Y0204233D01*
X0207173Y0203634D02*
X0216742Y0203634D01*
X0216742Y0203036D02*
X0206574Y0203036D01*
X0205976Y0202437D02*
X0216742Y0202437D01*
X0216742Y0201839D02*
X0205377Y0201839D01*
X0204779Y0201240D02*
X0216742Y0201240D01*
X0216742Y0200641D02*
X0204180Y0200641D01*
X0203582Y0200043D02*
X0216742Y0200043D01*
X0216742Y0199444D02*
X0202983Y0199444D01*
X0202385Y0198846D02*
X0216742Y0198846D01*
X0216742Y0198247D02*
X0201786Y0198247D01*
X0201188Y0197649D02*
X0216742Y0197649D01*
X0216742Y0197050D02*
X0201142Y0197050D01*
X0201142Y0196452D02*
X0216742Y0196452D01*
X0216742Y0195853D02*
X0201142Y0195853D01*
X0201142Y0195255D02*
X0216742Y0195255D01*
X0216742Y0194656D02*
X0201142Y0194656D01*
X0201142Y0194058D02*
X0216742Y0194058D01*
X0216742Y0193459D02*
X0201142Y0193459D01*
X0201142Y0192861D02*
X0216742Y0192861D01*
X0216742Y0192262D02*
X0201142Y0192262D01*
X0201142Y0191664D02*
X0216742Y0191664D01*
X0216742Y0191065D02*
X0201142Y0191065D01*
X0201142Y0190467D02*
X0216742Y0190467D01*
X0216742Y0189868D02*
X0201142Y0189868D01*
X0201142Y0189270D02*
X0216742Y0189270D01*
X0216742Y0188671D02*
X0201142Y0188671D01*
X0201142Y0188073D02*
X0216742Y0188073D01*
X0216742Y0187474D02*
X0201142Y0187474D01*
X0201142Y0186876D02*
X0216742Y0186876D01*
X0216742Y0186277D02*
X0201142Y0186277D01*
X0201142Y0185679D02*
X0216742Y0185679D01*
X0216742Y0185080D02*
X0201142Y0185080D01*
X0201142Y0184482D02*
X0216742Y0184482D01*
X0216742Y0183883D02*
X0201142Y0183883D01*
X0201142Y0183285D02*
X0216742Y0183285D01*
X0216742Y0182686D02*
X0201142Y0182686D01*
X0201142Y0182088D02*
X0216742Y0182088D01*
X0216434Y0181489D02*
X0201142Y0181489D01*
X0201142Y0180891D02*
X0215835Y0180891D01*
X0215237Y0180292D02*
X0201142Y0180292D01*
X0201142Y0179694D02*
X0214638Y0179694D01*
X0214040Y0179095D02*
X0201142Y0179095D01*
X0201142Y0178497D02*
X0213441Y0178497D01*
X0213142Y0177898D02*
X0201142Y0177898D01*
X0201142Y0177300D02*
X0213142Y0177300D01*
X0213142Y0176701D02*
X0201142Y0176701D01*
X0201142Y0176103D02*
X0213142Y0176103D01*
X0213142Y0175504D02*
X0201142Y0175504D01*
X0201142Y0174905D02*
X0213142Y0174905D01*
X0213638Y0174307D02*
X0201142Y0174307D01*
X0201142Y0173708D02*
X0214236Y0173708D01*
X0214835Y0173110D02*
X0201142Y0173110D01*
X0201142Y0172511D02*
X0215433Y0172511D01*
X0216032Y0171913D02*
X0201142Y0171913D01*
X0201142Y0171314D02*
X0216630Y0171314D01*
X0217229Y0170716D02*
X0201142Y0170716D01*
X0201142Y0170117D02*
X0217827Y0170117D01*
X0218426Y0169519D02*
X0201142Y0169519D01*
X0201142Y0168920D02*
X0219024Y0168920D01*
X0219623Y0168322D02*
X0201142Y0168322D01*
X0201142Y0167723D02*
X0220221Y0167723D01*
X0220820Y0167125D02*
X0201142Y0167125D01*
X0201142Y0166526D02*
X0221418Y0166526D01*
X0222017Y0165928D02*
X0201142Y0165928D01*
X0201142Y0165329D02*
X0222615Y0165329D01*
X0223214Y0164731D02*
X0201142Y0164731D01*
X0201142Y0164132D02*
X0223812Y0164132D01*
X0224411Y0163534D02*
X0201142Y0163534D01*
X0201142Y0162935D02*
X0225009Y0162935D01*
X0225608Y0162337D02*
X0201142Y0162337D01*
X0201142Y0161738D02*
X0226206Y0161738D01*
X0226805Y0161140D02*
X0201142Y0161140D01*
X0201142Y0160541D02*
X0227404Y0160541D01*
X0228002Y0159943D02*
X0201142Y0159943D01*
X0201142Y0159344D02*
X0218945Y0159344D01*
X0227738Y0159344D02*
X0228601Y0159344D01*
X0228446Y0158746D02*
X0229199Y0158746D01*
X0228965Y0158147D02*
X0229798Y0158147D01*
X0229213Y0157549D02*
X0230396Y0157549D01*
X0230995Y0156950D02*
X0229442Y0156950D01*
X0229442Y0156352D02*
X0231593Y0156352D01*
X0232192Y0155753D02*
X0229442Y0155753D01*
X0229256Y0155155D02*
X0232790Y0155155D01*
X0233389Y0154556D02*
X0229008Y0154556D01*
X0228549Y0153958D02*
X0233987Y0153958D01*
X0234586Y0153359D02*
X0227951Y0153359D01*
X0234987Y0156352D02*
X0239296Y0156352D01*
X0238698Y0155753D02*
X0235586Y0155753D01*
X0236184Y0155155D02*
X0238099Y0155155D01*
X0237501Y0154556D02*
X0236783Y0154556D01*
X0237142Y0152500D02*
X0224542Y0139900D01*
X0206542Y0139900D01*
X0193342Y0126700D01*
X0193342Y0126300D01*
X0194962Y0130017D02*
X0172342Y0130017D01*
X0172342Y0129419D02*
X0189125Y0129419D01*
X0188312Y0128820D02*
X0172342Y0128820D01*
X0172342Y0128222D02*
X0187749Y0128222D01*
X0187501Y0127623D02*
X0172342Y0127623D01*
X0172342Y0127025D02*
X0187254Y0127025D01*
X0187242Y0126426D02*
X0172342Y0126426D01*
X0172342Y0125828D02*
X0187242Y0125828D01*
X0187397Y0125229D02*
X0172342Y0125229D01*
X0172342Y0124631D02*
X0187645Y0124631D01*
X0188060Y0124032D02*
X0172342Y0124032D01*
X0172342Y0123434D02*
X0188659Y0123434D01*
X0189961Y0122835D02*
X0172342Y0122835D01*
X0172342Y0122237D02*
X0351742Y0122237D01*
X0351742Y0122835D02*
X0304571Y0122835D01*
X0305668Y0123434D02*
X0351016Y0123434D01*
X0350417Y0124032D02*
X0306266Y0124032D01*
X0306624Y0124631D02*
X0350059Y0124631D01*
X0349811Y0125229D02*
X0306872Y0125229D01*
X0307013Y0125828D02*
X0349670Y0125828D01*
X0349670Y0126426D02*
X0307013Y0126426D01*
X0307013Y0127025D02*
X0349670Y0127025D01*
X0349916Y0127623D02*
X0306768Y0127623D01*
X0306520Y0128222D02*
X0350164Y0128222D01*
X0350669Y0128820D02*
X0306014Y0128820D01*
X0305407Y0129419D02*
X0351276Y0129419D01*
X0351742Y0130017D02*
X0276322Y0130017D01*
X0276920Y0129419D02*
X0301276Y0129419D01*
X0300669Y0128820D02*
X0277519Y0128820D01*
X0278117Y0128222D02*
X0300164Y0128222D01*
X0299811Y0125229D02*
X0229287Y0125229D01*
X0229442Y0125828D02*
X0277117Y0125828D01*
X0276519Y0126426D02*
X0229442Y0126426D01*
X0229430Y0127025D02*
X0275920Y0127025D01*
X0275322Y0127623D02*
X0229182Y0127623D01*
X0228934Y0128222D02*
X0274723Y0128222D01*
X0274125Y0128820D02*
X0228371Y0128820D01*
X0227559Y0129419D02*
X0273526Y0129419D01*
X0272928Y0130017D02*
X0198356Y0130017D01*
X0198955Y0130616D02*
X0272329Y0130616D01*
X0271731Y0131214D02*
X0199553Y0131214D01*
X0200152Y0131813D02*
X0271132Y0131813D01*
X0270534Y0132411D02*
X0200750Y0132411D01*
X0199152Y0134207D02*
X0198798Y0134207D01*
X0198909Y0134317D02*
X0199442Y0135604D01*
X0199442Y0136996D01*
X0198909Y0138283D01*
X0197924Y0139267D01*
X0196638Y0139800D01*
X0190046Y0139800D01*
X0188759Y0139267D01*
X0187775Y0138283D01*
X0187242Y0136996D01*
X0187242Y0135604D01*
X0187775Y0134317D01*
X0188759Y0133333D01*
X0190046Y0132800D01*
X0196638Y0132800D01*
X0197924Y0133333D01*
X0198909Y0134317D01*
X0199111Y0134805D02*
X0199750Y0134805D01*
X0199359Y0135404D02*
X0200349Y0135404D01*
X0200947Y0136002D02*
X0199442Y0136002D01*
X0199442Y0136601D02*
X0201546Y0136601D01*
X0202144Y0137199D02*
X0199358Y0137199D01*
X0199110Y0137798D02*
X0202743Y0137798D01*
X0203341Y0138396D02*
X0198795Y0138396D01*
X0198197Y0138995D02*
X0203940Y0138995D01*
X0204538Y0139593D02*
X0197137Y0139593D01*
X0197566Y0143184D02*
X0219118Y0143184D01*
X0218309Y0143783D02*
X0198374Y0143783D01*
X0198935Y0144381D02*
X0217748Y0144381D01*
X0217500Y0144980D02*
X0199183Y0144980D01*
X0199431Y0145578D02*
X0217252Y0145578D01*
X0217242Y0146177D02*
X0199442Y0146177D01*
X0199442Y0146775D02*
X0217242Y0146775D01*
X0217398Y0147374D02*
X0199285Y0147374D01*
X0199037Y0147972D02*
X0217646Y0147972D01*
X0218063Y0148571D02*
X0198621Y0148571D01*
X0198022Y0149170D02*
X0218662Y0149170D01*
X0219968Y0149768D02*
X0198307Y0149768D01*
X0196708Y0151564D02*
X0172342Y0151564D01*
X0172342Y0152162D02*
X0197307Y0152162D01*
X0197905Y0152761D02*
X0172342Y0152761D01*
X0172342Y0153359D02*
X0188733Y0153359D01*
X0188134Y0153958D02*
X0172342Y0153958D01*
X0172342Y0154556D02*
X0187676Y0154556D01*
X0187428Y0155155D02*
X0172342Y0155155D01*
X0172342Y0155753D02*
X0187242Y0155753D01*
X0187242Y0156352D02*
X0172342Y0156352D01*
X0172342Y0156950D02*
X0187242Y0156950D01*
X0187471Y0157549D02*
X0172342Y0157549D01*
X0172342Y0158147D02*
X0187719Y0158147D01*
X0188238Y0158746D02*
X0172342Y0158746D01*
X0172342Y0159344D02*
X0188945Y0159344D01*
X0198549Y0153958D02*
X0198742Y0153958D01*
X0198504Y0153359D02*
X0197951Y0153359D01*
X0199942Y0153100D02*
X0193342Y0146500D01*
X0193342Y0146300D01*
X0195511Y0150367D02*
X0172342Y0150367D01*
X0172342Y0150965D02*
X0196110Y0150965D01*
X0199942Y0153100D02*
X0199942Y0198100D01*
X0232942Y0231100D01*
X0253342Y0231100D01*
X0253342Y0231300D01*
X0250921Y0228772D02*
X0232310Y0228772D01*
X0232909Y0229370D02*
X0250322Y0229370D01*
X0251519Y0228173D02*
X0231712Y0228173D01*
X0230113Y0229969D02*
X0199342Y0229969D01*
X0199342Y0230567D02*
X0230712Y0230567D01*
X0231310Y0231166D02*
X0199342Y0231166D01*
X0199342Y0231764D02*
X0231909Y0231764D01*
X0229515Y0229370D02*
X0199342Y0229370D01*
X0199342Y0228772D02*
X0228916Y0228772D01*
X0228318Y0228173D02*
X0199342Y0228173D01*
X0199342Y0227574D02*
X0227719Y0227574D01*
X0227121Y0226976D02*
X0199342Y0226976D01*
X0199342Y0226377D02*
X0226522Y0226377D01*
X0225924Y0225779D02*
X0199342Y0225779D01*
X0199342Y0225180D02*
X0225325Y0225180D01*
X0224727Y0224582D02*
X0199342Y0224582D01*
X0199342Y0223983D02*
X0224128Y0223983D01*
X0223530Y0223385D02*
X0199342Y0223385D01*
X0199342Y0222786D02*
X0222931Y0222786D01*
X0222333Y0222188D02*
X0199342Y0222188D01*
X0199342Y0221589D02*
X0221734Y0221589D01*
X0221136Y0220991D02*
X0199342Y0220991D01*
X0199342Y0220392D02*
X0220537Y0220392D01*
X0219939Y0219794D02*
X0199342Y0219794D01*
X0199342Y0219195D02*
X0219340Y0219195D01*
X0218742Y0218597D02*
X0199342Y0218597D01*
X0199342Y0217998D02*
X0218143Y0217998D01*
X0217545Y0217400D02*
X0199342Y0217400D01*
X0196942Y0229969D02*
X0179542Y0229969D01*
X0179542Y0230567D02*
X0196942Y0230567D01*
X0196942Y0231166D02*
X0179542Y0231166D01*
X0179542Y0231764D02*
X0196942Y0231764D01*
X0196942Y0232363D02*
X0179542Y0232363D01*
X0179542Y0232961D02*
X0196942Y0232961D01*
X0196942Y0233560D02*
X0179542Y0233560D01*
X0179542Y0234158D02*
X0196942Y0234158D01*
X0196942Y0234757D02*
X0179542Y0234757D01*
X0179542Y0235355D02*
X0196942Y0235355D01*
X0196942Y0235954D02*
X0179542Y0235954D01*
X0179542Y0236552D02*
X0196942Y0236552D01*
X0196942Y0237151D02*
X0179542Y0237151D01*
X0179542Y0237749D02*
X0196942Y0237749D01*
X0196942Y0238348D02*
X0179542Y0238348D01*
X0179542Y0238946D02*
X0196942Y0238946D01*
X0196942Y0239545D02*
X0189309Y0239545D01*
X0189111Y0239463D02*
X0190533Y0240052D01*
X0191621Y0241140D01*
X0192210Y0242562D01*
X0192210Y0250038D01*
X0191621Y0251460D01*
X0190533Y0252548D01*
X0189111Y0253137D01*
X0187572Y0253137D01*
X0186150Y0252548D01*
X0185062Y0251460D01*
X0184473Y0250038D01*
X0184473Y0242562D01*
X0185062Y0241140D01*
X0186150Y0240052D01*
X0187572Y0239463D01*
X0189111Y0239463D01*
X0190624Y0240143D02*
X0196059Y0240143D01*
X0195461Y0240742D02*
X0191223Y0240742D01*
X0191704Y0241340D02*
X0194979Y0241340D01*
X0194731Y0241939D02*
X0191952Y0241939D01*
X0192200Y0242537D02*
X0194484Y0242537D01*
X0194473Y0243136D02*
X0192210Y0243136D01*
X0192210Y0243734D02*
X0194473Y0243734D01*
X0194473Y0244333D02*
X0192210Y0244333D01*
X0192210Y0244931D02*
X0194473Y0244931D01*
X0194473Y0245530D02*
X0192210Y0245530D01*
X0192210Y0246128D02*
X0194473Y0246128D01*
X0194473Y0246727D02*
X0192210Y0246727D01*
X0192210Y0247325D02*
X0194473Y0247325D01*
X0194473Y0247924D02*
X0192210Y0247924D01*
X0192210Y0248522D02*
X0194473Y0248522D01*
X0194473Y0249121D02*
X0192210Y0249121D01*
X0192210Y0249719D02*
X0194473Y0249719D01*
X0194589Y0250318D02*
X0192094Y0250318D01*
X0191846Y0250916D02*
X0194837Y0250916D01*
X0195117Y0251515D02*
X0191566Y0251515D01*
X0190968Y0252113D02*
X0195716Y0252113D01*
X0196546Y0252712D02*
X0190137Y0252712D01*
X0186546Y0252712D02*
X0180137Y0252712D01*
X0180968Y0252113D02*
X0185716Y0252113D01*
X0185117Y0251515D02*
X0181566Y0251515D01*
X0181846Y0250916D02*
X0184837Y0250916D01*
X0184589Y0250318D02*
X0182094Y0250318D01*
X0182210Y0249719D02*
X0184473Y0249719D01*
X0184473Y0249121D02*
X0182210Y0249121D01*
X0182210Y0248522D02*
X0184473Y0248522D01*
X0184473Y0247924D02*
X0182210Y0247924D01*
X0182210Y0247325D02*
X0184473Y0247325D01*
X0184473Y0246727D02*
X0182210Y0246727D01*
X0182210Y0246128D02*
X0184473Y0246128D01*
X0184473Y0245530D02*
X0182210Y0245530D01*
X0182210Y0244931D02*
X0184473Y0244931D01*
X0184473Y0244333D02*
X0182210Y0244333D01*
X0182210Y0243734D02*
X0184473Y0243734D01*
X0184473Y0243136D02*
X0182210Y0243136D01*
X0182200Y0242537D02*
X0184484Y0242537D01*
X0184731Y0241939D02*
X0181952Y0241939D01*
X0181704Y0241340D02*
X0184979Y0241340D01*
X0185461Y0240742D02*
X0181223Y0240742D01*
X0180624Y0240143D02*
X0186059Y0240143D01*
X0187375Y0239545D02*
X0179542Y0239545D01*
X0178342Y0246300D02*
X0178342Y0195700D01*
X0177142Y0200043D02*
X0126496Y0200043D01*
X0127094Y0199444D02*
X0166537Y0199444D01*
X0165938Y0198846D02*
X0127693Y0198846D01*
X0128291Y0198247D02*
X0165340Y0198247D01*
X0164842Y0197649D02*
X0128890Y0197649D01*
X0129488Y0197050D02*
X0164842Y0197050D01*
X0164842Y0196452D02*
X0130087Y0196452D01*
X0130685Y0195853D02*
X0164842Y0195853D01*
X0164842Y0195255D02*
X0131284Y0195255D01*
X0131882Y0194656D02*
X0165036Y0194656D01*
X0165634Y0194058D02*
X0132481Y0194058D01*
X0133079Y0193459D02*
X0166233Y0193459D01*
X0166831Y0192861D02*
X0133678Y0192861D01*
X0134277Y0192262D02*
X0171082Y0192262D01*
X0170484Y0192861D02*
X0169852Y0192861D01*
X0171681Y0191664D02*
X0134875Y0191664D01*
X0135474Y0191065D02*
X0172010Y0191065D01*
X0171412Y0190467D02*
X0136072Y0190467D01*
X0136671Y0189868D02*
X0170813Y0189868D01*
X0170215Y0189270D02*
X0137269Y0189270D01*
X0137868Y0188671D02*
X0169616Y0188671D01*
X0169018Y0188073D02*
X0138466Y0188073D01*
X0139065Y0187474D02*
X0168419Y0187474D01*
X0167820Y0186876D02*
X0139663Y0186876D01*
X0140262Y0186277D02*
X0167222Y0186277D01*
X0166623Y0185679D02*
X0140860Y0185679D01*
X0141459Y0185080D02*
X0166025Y0185080D01*
X0165426Y0184482D02*
X0142057Y0184482D01*
X0142656Y0183883D02*
X0164828Y0183883D01*
X0164229Y0183285D02*
X0143254Y0183285D01*
X0143853Y0182686D02*
X0163631Y0182686D01*
X0163342Y0182088D02*
X0144451Y0182088D01*
X0145050Y0181489D02*
X0163342Y0181489D01*
X0163342Y0180891D02*
X0145648Y0180891D01*
X0146247Y0180292D02*
X0163342Y0180292D01*
X0163342Y0179694D02*
X0146845Y0179694D01*
X0147444Y0179095D02*
X0163342Y0179095D01*
X0163342Y0178497D02*
X0148042Y0178497D01*
X0148641Y0177898D02*
X0163342Y0177898D01*
X0163342Y0177300D02*
X0149239Y0177300D01*
X0149838Y0176701D02*
X0163342Y0176701D01*
X0163342Y0176103D02*
X0150436Y0176103D01*
X0151035Y0175504D02*
X0163342Y0175504D01*
X0163342Y0174905D02*
X0151633Y0174905D01*
X0152232Y0174307D02*
X0163342Y0174307D01*
X0163342Y0173708D02*
X0152830Y0173708D01*
X0153429Y0173110D02*
X0163342Y0173110D01*
X0163342Y0172511D02*
X0154027Y0172511D01*
X0154626Y0171913D02*
X0163342Y0171913D01*
X0163342Y0171314D02*
X0155224Y0171314D01*
X0155823Y0170716D02*
X0163342Y0170716D01*
X0163342Y0170117D02*
X0156421Y0170117D01*
X0157020Y0169519D02*
X0163342Y0169519D01*
X0163342Y0168920D02*
X0157618Y0168920D01*
X0157942Y0168322D02*
X0163342Y0168322D01*
X0163342Y0167723D02*
X0157942Y0167723D01*
X0157942Y0167125D02*
X0163342Y0167125D01*
X0163342Y0166526D02*
X0157942Y0166526D01*
X0157942Y0165928D02*
X0163342Y0165928D01*
X0163342Y0165329D02*
X0157942Y0165329D01*
X0157942Y0164731D02*
X0163342Y0164731D01*
X0163342Y0164132D02*
X0157942Y0164132D01*
X0157942Y0163534D02*
X0163342Y0163534D01*
X0163342Y0162935D02*
X0157942Y0162935D01*
X0157942Y0162337D02*
X0163342Y0162337D01*
X0163806Y0161738D02*
X0157942Y0161738D01*
X0157942Y0161140D02*
X0164405Y0161140D01*
X0165004Y0160541D02*
X0157942Y0160541D01*
X0157942Y0159943D02*
X0165602Y0159943D01*
X0167201Y0161738D02*
X0169942Y0161738D01*
X0169942Y0161140D02*
X0167799Y0161140D01*
X0168398Y0160541D02*
X0169942Y0160541D01*
X0169942Y0159943D02*
X0168996Y0159943D01*
X0169595Y0159344D02*
X0169942Y0159344D01*
X0169942Y0158997D02*
X0165742Y0163197D01*
X0165742Y0173950D01*
X0166892Y0172800D01*
X0169792Y0172800D01*
X0169942Y0172950D01*
X0169942Y0158997D01*
X0168742Y0154150D02*
X0168742Y0148450D01*
X0167924Y0149267D01*
X0166638Y0149800D01*
X0160046Y0149800D01*
X0158759Y0149267D01*
X0157942Y0148450D01*
X0157942Y0154150D01*
X0158759Y0153333D01*
X0160046Y0152800D01*
X0166638Y0152800D01*
X0167924Y0153333D01*
X0168742Y0154150D01*
X0168742Y0153958D02*
X0168549Y0153958D01*
X0168742Y0153359D02*
X0167951Y0153359D01*
X0168742Y0152761D02*
X0157942Y0152761D01*
X0157942Y0153359D02*
X0158733Y0153359D01*
X0158134Y0153958D02*
X0157942Y0153958D01*
X0157942Y0152162D02*
X0168742Y0152162D01*
X0168742Y0151564D02*
X0157942Y0151564D01*
X0157942Y0150965D02*
X0168742Y0150965D01*
X0168742Y0150367D02*
X0157942Y0150367D01*
X0157942Y0149768D02*
X0159968Y0149768D01*
X0158662Y0149170D02*
X0157942Y0149170D01*
X0157942Y0148571D02*
X0158063Y0148571D01*
X0155542Y0148571D02*
X0150368Y0148571D01*
X0150966Y0147972D02*
X0155542Y0147972D01*
X0155542Y0147374D02*
X0151565Y0147374D01*
X0152163Y0146775D02*
X0155542Y0146775D01*
X0155542Y0146177D02*
X0152762Y0146177D01*
X0153360Y0145578D02*
X0155542Y0145578D01*
X0155542Y0144980D02*
X0153959Y0144980D01*
X0154557Y0144381D02*
X0155542Y0144381D01*
X0155542Y0143783D02*
X0155156Y0143783D01*
X0153557Y0141987D02*
X0062642Y0141987D01*
X0062642Y0141389D02*
X0154156Y0141389D01*
X0154342Y0140790D02*
X0062642Y0140790D01*
X0062642Y0140192D02*
X0154342Y0140192D01*
X0154342Y0139593D02*
X0137137Y0139593D01*
X0136638Y0139800D02*
X0130046Y0139800D01*
X0128759Y0139267D01*
X0127775Y0138283D01*
X0127242Y0136996D01*
X0127242Y0135604D01*
X0127775Y0134317D01*
X0128759Y0133333D01*
X0130046Y0132800D01*
X0136638Y0132800D01*
X0137924Y0133333D01*
X0138909Y0134317D01*
X0139442Y0135604D01*
X0139442Y0136996D01*
X0138909Y0138283D01*
X0137924Y0139267D01*
X0136638Y0139800D01*
X0138197Y0138995D02*
X0154342Y0138995D01*
X0154342Y0138396D02*
X0138795Y0138396D01*
X0139110Y0137798D02*
X0154342Y0137798D01*
X0154342Y0137199D02*
X0139358Y0137199D01*
X0139442Y0136601D02*
X0154342Y0136601D01*
X0154342Y0136002D02*
X0139442Y0136002D01*
X0139359Y0135404D02*
X0154342Y0135404D01*
X0154342Y0134805D02*
X0139111Y0134805D01*
X0138798Y0134207D02*
X0154342Y0134207D01*
X0154342Y0133608D02*
X0138200Y0133608D01*
X0137144Y0133010D02*
X0154342Y0133010D01*
X0154342Y0132411D02*
X0062642Y0132411D01*
X0062642Y0131813D02*
X0154342Y0131813D01*
X0154342Y0131214D02*
X0062642Y0131214D01*
X0062642Y0130616D02*
X0154342Y0130616D01*
X0157942Y0130616D02*
X0168742Y0130616D01*
X0168742Y0131214D02*
X0157942Y0131214D01*
X0157942Y0131813D02*
X0168742Y0131813D01*
X0168742Y0132411D02*
X0157942Y0132411D01*
X0157942Y0133010D02*
X0159539Y0133010D01*
X0160046Y0132800D02*
X0158759Y0133333D01*
X0157942Y0134150D01*
X0157942Y0128450D01*
X0158759Y0129267D01*
X0160046Y0129800D01*
X0166638Y0129800D01*
X0167924Y0129267D01*
X0168742Y0128450D01*
X0168742Y0134150D01*
X0167924Y0133333D01*
X0166638Y0132800D01*
X0160046Y0132800D01*
X0158484Y0133608D02*
X0157942Y0133608D01*
X0157942Y0138450D02*
X0157942Y0144150D01*
X0158759Y0143333D01*
X0160046Y0142800D01*
X0166638Y0142800D01*
X0167924Y0143333D01*
X0168742Y0144150D01*
X0168742Y0138450D01*
X0167924Y0139267D01*
X0166638Y0139800D01*
X0160046Y0139800D01*
X0158759Y0139267D01*
X0157942Y0138450D01*
X0157942Y0138995D02*
X0158487Y0138995D01*
X0157942Y0139593D02*
X0159547Y0139593D01*
X0157942Y0140192D02*
X0168742Y0140192D01*
X0168742Y0140790D02*
X0157942Y0140790D01*
X0157942Y0141389D02*
X0168742Y0141389D01*
X0168742Y0141987D02*
X0157942Y0141987D01*
X0157942Y0142586D02*
X0168742Y0142586D01*
X0168742Y0143184D02*
X0167566Y0143184D01*
X0168374Y0143783D02*
X0168742Y0143783D01*
X0172342Y0143783D02*
X0188309Y0143783D01*
X0187748Y0144381D02*
X0172342Y0144381D01*
X0172342Y0144980D02*
X0187500Y0144980D01*
X0187252Y0145578D02*
X0172342Y0145578D01*
X0172342Y0146177D02*
X0187242Y0146177D01*
X0187242Y0146775D02*
X0172342Y0146775D01*
X0172342Y0147374D02*
X0187398Y0147374D01*
X0187646Y0147972D02*
X0172342Y0147972D01*
X0172342Y0148571D02*
X0188063Y0148571D01*
X0188662Y0149170D02*
X0172342Y0149170D01*
X0172342Y0149768D02*
X0189968Y0149768D01*
X0189118Y0143184D02*
X0172342Y0143184D01*
X0172342Y0142586D02*
X0225531Y0142586D01*
X0224932Y0141987D02*
X0172342Y0141987D01*
X0172342Y0141389D02*
X0224334Y0141389D01*
X0226531Y0140192D02*
X0245337Y0140192D01*
X0245935Y0140790D02*
X0227129Y0140790D01*
X0227728Y0141389D02*
X0246534Y0141389D01*
X0247132Y0141987D02*
X0228326Y0141987D01*
X0228925Y0142586D02*
X0247731Y0142586D01*
X0248329Y0143184D02*
X0229523Y0143184D01*
X0230122Y0143783D02*
X0248928Y0143783D01*
X0249526Y0144381D02*
X0230720Y0144381D01*
X0227137Y0139593D02*
X0244738Y0139593D01*
X0244140Y0138995D02*
X0228197Y0138995D01*
X0228795Y0138396D02*
X0243541Y0138396D01*
X0242943Y0137798D02*
X0229110Y0137798D01*
X0229111Y0134805D02*
X0268140Y0134805D01*
X0268738Y0134207D02*
X0228798Y0134207D01*
X0228200Y0133608D02*
X0269337Y0133608D01*
X0269935Y0133010D02*
X0227144Y0133010D01*
X0229039Y0124631D02*
X0300059Y0124631D01*
X0300417Y0124032D02*
X0228624Y0124032D01*
X0228025Y0123434D02*
X0301016Y0123434D01*
X0302113Y0122835D02*
X0226723Y0122835D01*
X0227948Y0119244D02*
X0331093Y0119244D01*
X0330495Y0118645D02*
X0228546Y0118645D01*
X0229007Y0118047D02*
X0330091Y0118047D01*
X0329843Y0117448D02*
X0229254Y0117448D01*
X0229442Y0116850D02*
X0329670Y0116850D01*
X0329670Y0116251D02*
X0229442Y0116251D01*
X0229442Y0115653D02*
X0329670Y0115653D01*
X0329884Y0115054D02*
X0229214Y0115054D01*
X0228966Y0114456D02*
X0330001Y0114456D01*
X0329402Y0113857D02*
X0228449Y0113857D01*
X0227746Y0113259D02*
X0328804Y0113259D01*
X0328205Y0112660D02*
X0180879Y0112660D01*
X0181477Y0112062D02*
X0327607Y0112062D01*
X0327008Y0111463D02*
X0182076Y0111463D01*
X0182674Y0110865D02*
X0326410Y0110865D01*
X0325811Y0110266D02*
X0183273Y0110266D01*
X0183871Y0109668D02*
X0189726Y0109668D01*
X0188561Y0109069D02*
X0184470Y0109069D01*
X0185068Y0108471D02*
X0187963Y0108471D01*
X0187605Y0107872D02*
X0185667Y0107872D01*
X0186265Y0107274D02*
X0187357Y0107274D01*
X0187242Y0106675D02*
X0186864Y0106675D01*
X0179878Y0110266D02*
X0161073Y0110266D01*
X0160474Y0110865D02*
X0179280Y0110865D01*
X0178681Y0111463D02*
X0159876Y0111463D01*
X0159277Y0112062D02*
X0178083Y0112062D01*
X0177484Y0112660D02*
X0158679Y0112660D01*
X0158938Y0113259D02*
X0158080Y0113259D01*
X0157942Y0113857D02*
X0158235Y0113857D01*
X0156742Y0111203D02*
X0156742Y0106797D01*
X0157242Y0106297D01*
X0157242Y0106996D01*
X0157775Y0108283D01*
X0158718Y0109226D01*
X0156742Y0111203D01*
X0156742Y0110865D02*
X0157080Y0110865D01*
X0156742Y0110266D02*
X0157678Y0110266D01*
X0158277Y0109668D02*
X0156742Y0109668D01*
X0156742Y0109069D02*
X0158561Y0109069D01*
X0157963Y0108471D02*
X0156742Y0108471D01*
X0156742Y0107872D02*
X0157605Y0107872D01*
X0157357Y0107274D02*
X0156742Y0107274D01*
X0156864Y0106675D02*
X0157242Y0106675D01*
X0154342Y0110865D02*
X0098742Y0110865D01*
X0098742Y0111463D02*
X0154342Y0111463D01*
X0154342Y0112062D02*
X0098742Y0112062D01*
X0098742Y0112660D02*
X0154342Y0112660D01*
X0167746Y0113259D02*
X0176886Y0113259D01*
X0176287Y0113857D02*
X0168449Y0113857D01*
X0168966Y0114456D02*
X0175689Y0114456D01*
X0175090Y0115054D02*
X0169214Y0115054D01*
X0169442Y0115653D02*
X0174492Y0115653D01*
X0173893Y0116251D02*
X0169442Y0116251D01*
X0169442Y0116850D02*
X0173295Y0116850D01*
X0172696Y0117448D02*
X0169254Y0117448D01*
X0169007Y0118047D02*
X0172098Y0118047D01*
X0171499Y0118645D02*
X0168546Y0118645D01*
X0167948Y0119244D02*
X0170901Y0119244D01*
X0170302Y0119842D02*
X0168381Y0119842D01*
X0168980Y0120441D02*
X0169942Y0120441D01*
X0169942Y0121039D02*
X0169578Y0121039D01*
X0167980Y0122835D02*
X0166723Y0122835D01*
X0168025Y0123434D02*
X0168578Y0123434D01*
X0168624Y0124032D02*
X0168742Y0124032D01*
X0172342Y0121638D02*
X0351742Y0121638D01*
X0351742Y0121039D02*
X0172499Y0121039D01*
X0173098Y0120441D02*
X0351742Y0120441D01*
X0351742Y0119842D02*
X0334384Y0119842D01*
X0335590Y0119244D02*
X0351742Y0119244D01*
X0351742Y0118645D02*
X0336189Y0118645D01*
X0336592Y0118047D02*
X0351742Y0118047D01*
X0351742Y0117448D02*
X0336840Y0117448D01*
X0337013Y0116850D02*
X0351742Y0116850D01*
X0351742Y0130616D02*
X0275723Y0130616D01*
X0275125Y0131214D02*
X0351742Y0131214D01*
X0351742Y0131813D02*
X0274526Y0131813D01*
X0273928Y0132411D02*
X0351742Y0132411D01*
X0351742Y0133010D02*
X0273329Y0133010D01*
X0272731Y0133608D02*
X0351742Y0133608D01*
X0351742Y0134207D02*
X0272132Y0134207D01*
X0271534Y0134805D02*
X0351742Y0134805D01*
X0351742Y0135404D02*
X0270935Y0135404D01*
X0270337Y0136002D02*
X0351742Y0136002D01*
X0351742Y0136601D02*
X0269738Y0136601D01*
X0269140Y0137199D02*
X0351742Y0137199D01*
X0351742Y0137798D02*
X0268541Y0137798D01*
X0267943Y0138396D02*
X0351742Y0138396D01*
X0351742Y0138995D02*
X0267344Y0138995D01*
X0266746Y0139593D02*
X0351742Y0139593D01*
X0351742Y0140192D02*
X0266147Y0140192D01*
X0265548Y0140790D02*
X0351742Y0140790D01*
X0351742Y0141389D02*
X0264950Y0141389D01*
X0264351Y0141987D02*
X0351742Y0141987D01*
X0351742Y0142586D02*
X0263753Y0142586D01*
X0263154Y0143184D02*
X0306508Y0143184D01*
X0305909Y0143783D02*
X0262556Y0143783D01*
X0261957Y0144381D02*
X0305311Y0144381D01*
X0304842Y0144980D02*
X0261842Y0144980D01*
X0261842Y0145578D02*
X0304842Y0145578D01*
X0304842Y0146177D02*
X0261842Y0146177D01*
X0261842Y0146775D02*
X0304842Y0146775D01*
X0304842Y0147374D02*
X0261842Y0147374D01*
X0261619Y0147972D02*
X0305065Y0147972D01*
X0305663Y0148571D02*
X0261021Y0148571D01*
X0260422Y0149170D02*
X0306262Y0149170D01*
X0306742Y0149768D02*
X0259824Y0149768D01*
X0258905Y0150367D02*
X0306742Y0150367D01*
X0306742Y0150965D02*
X0259504Y0150965D01*
X0260102Y0151564D02*
X0306742Y0151564D01*
X0306742Y0152162D02*
X0260701Y0152162D01*
X0261299Y0152761D02*
X0306742Y0152761D01*
X0306742Y0153359D02*
X0261898Y0153359D01*
X0262496Y0153958D02*
X0306742Y0153958D01*
X0306742Y0154556D02*
X0263095Y0154556D01*
X0263693Y0155155D02*
X0306742Y0155155D01*
X0306742Y0155753D02*
X0264292Y0155753D01*
X0264890Y0156352D02*
X0306742Y0156352D01*
X0306742Y0156950D02*
X0265489Y0156950D01*
X0266088Y0157549D02*
X0306742Y0157549D01*
X0306742Y0158147D02*
X0266686Y0158147D01*
X0267285Y0158746D02*
X0306742Y0158746D01*
X0306742Y0159344D02*
X0267883Y0159344D01*
X0268482Y0159943D02*
X0306742Y0159943D01*
X0306742Y0160541D02*
X0269080Y0160541D01*
X0269679Y0161140D02*
X0306742Y0161140D01*
X0306742Y0161738D02*
X0290077Y0161738D01*
X0290676Y0162337D02*
X0306742Y0162337D01*
X0306742Y0162935D02*
X0294365Y0162935D01*
X0295525Y0163534D02*
X0306742Y0163534D01*
X0306742Y0164132D02*
X0296124Y0164132D01*
X0296480Y0164731D02*
X0306742Y0164731D01*
X0306742Y0165329D02*
X0296728Y0165329D01*
X0296842Y0165928D02*
X0306742Y0165928D01*
X0306742Y0166526D02*
X0296842Y0166526D01*
X0296789Y0167125D02*
X0306742Y0167125D01*
X0306742Y0167723D02*
X0296541Y0167723D01*
X0296270Y0168322D02*
X0306742Y0168322D01*
X0306742Y0168920D02*
X0295671Y0168920D01*
X0291967Y0169519D02*
X0284717Y0169519D01*
X0285671Y0168920D02*
X0291012Y0168920D01*
X0290414Y0168322D02*
X0286270Y0168322D01*
X0286541Y0167723D02*
X0290143Y0167723D01*
X0289895Y0167125D02*
X0286789Y0167125D01*
X0286842Y0166526D02*
X0289842Y0166526D01*
X0289842Y0165928D02*
X0286842Y0165928D01*
X0286728Y0165329D02*
X0289955Y0165329D01*
X0289676Y0164731D02*
X0286480Y0164731D01*
X0286124Y0164132D02*
X0289077Y0164132D01*
X0291274Y0162935D02*
X0292319Y0162935D01*
X0280560Y0164132D02*
X0276124Y0164132D01*
X0276480Y0164731D02*
X0280203Y0164731D01*
X0279955Y0165329D02*
X0276728Y0165329D01*
X0276842Y0165928D02*
X0279842Y0165928D01*
X0279842Y0166526D02*
X0276842Y0166526D01*
X0276789Y0167125D02*
X0279895Y0167125D01*
X0280143Y0167723D02*
X0276541Y0167723D01*
X0276270Y0168322D02*
X0280414Y0168322D01*
X0281012Y0168920D02*
X0275671Y0168920D01*
X0274717Y0169519D02*
X0281967Y0169519D01*
X0273342Y0166300D02*
X0273142Y0166300D01*
X0263542Y0175900D01*
X0218542Y0175900D01*
X0218342Y0176300D01*
X0220700Y0173708D02*
X0264036Y0173708D01*
X0264635Y0173110D02*
X0220102Y0173110D01*
X0219426Y0171913D02*
X0265832Y0171913D01*
X0266430Y0171314D02*
X0220024Y0171314D01*
X0220623Y0170716D02*
X0267029Y0170716D01*
X0267627Y0170117D02*
X0221221Y0170117D01*
X0221820Y0169519D02*
X0261967Y0169519D01*
X0261012Y0168920D02*
X0222418Y0168920D01*
X0223017Y0168322D02*
X0260414Y0168322D01*
X0260143Y0167723D02*
X0223615Y0167723D01*
X0224214Y0167125D02*
X0250070Y0167125D01*
X0249471Y0166526D02*
X0224812Y0166526D01*
X0225411Y0165928D02*
X0248873Y0165928D01*
X0248274Y0165329D02*
X0226010Y0165329D01*
X0226608Y0164731D02*
X0247676Y0164731D01*
X0247077Y0164132D02*
X0227207Y0164132D01*
X0227805Y0163534D02*
X0246479Y0163534D01*
X0245880Y0162935D02*
X0228404Y0162935D01*
X0229002Y0162337D02*
X0245282Y0162337D01*
X0244683Y0161738D02*
X0229601Y0161738D01*
X0230199Y0161140D02*
X0244085Y0161140D01*
X0243486Y0160541D02*
X0230798Y0160541D01*
X0231396Y0159943D02*
X0242887Y0159943D01*
X0242289Y0159344D02*
X0231995Y0159344D01*
X0232593Y0158746D02*
X0241690Y0158746D01*
X0241092Y0158147D02*
X0233192Y0158147D01*
X0233790Y0157549D02*
X0240493Y0157549D01*
X0239895Y0156950D02*
X0234389Y0156950D01*
X0250942Y0166300D02*
X0263342Y0166300D01*
X0264717Y0169519D02*
X0268226Y0169519D01*
X0268824Y0168920D02*
X0265671Y0168920D01*
X0266270Y0168322D02*
X0269423Y0168322D01*
X0270021Y0167723D02*
X0266541Y0167723D01*
X0266789Y0167125D02*
X0269895Y0167125D01*
X0269842Y0166526D02*
X0266842Y0166526D01*
X0266842Y0165928D02*
X0269842Y0165928D01*
X0269955Y0165329D02*
X0266728Y0165329D01*
X0266480Y0164731D02*
X0270203Y0164731D01*
X0270560Y0164132D02*
X0266124Y0164132D01*
X0265525Y0163534D02*
X0268679Y0163534D01*
X0268080Y0162935D02*
X0264365Y0162935D01*
X0271620Y0169519D02*
X0271967Y0169519D01*
X0265233Y0172511D02*
X0218827Y0172511D01*
X0221299Y0174307D02*
X0263438Y0174307D01*
X0258342Y0146300D02*
X0277942Y0126700D01*
X0303142Y0126700D01*
X0303342Y0126300D01*
X0322818Y0107274D02*
X0229327Y0107274D01*
X0229442Y0106675D02*
X0322220Y0106675D01*
X0321621Y0106077D02*
X0229442Y0106077D01*
X0229390Y0105478D02*
X0321023Y0105478D01*
X0320424Y0104880D02*
X0229142Y0104880D01*
X0228873Y0104281D02*
X0319826Y0104281D01*
X0323417Y0107872D02*
X0229079Y0107872D01*
X0228721Y0108471D02*
X0324016Y0108471D01*
X0324614Y0109069D02*
X0228122Y0109069D01*
X0226957Y0109668D02*
X0325213Y0109668D01*
X0332300Y0119842D02*
X0173696Y0119842D01*
X0174295Y0119244D02*
X0188736Y0119244D01*
X0188137Y0118645D02*
X0174893Y0118645D01*
X0175492Y0118047D02*
X0187677Y0118047D01*
X0187429Y0117448D02*
X0176090Y0117448D01*
X0176689Y0116850D02*
X0187242Y0116850D01*
X0187242Y0116251D02*
X0177287Y0116251D01*
X0177886Y0115653D02*
X0187242Y0115653D01*
X0187469Y0115054D02*
X0178484Y0115054D01*
X0179083Y0114456D02*
X0187717Y0114456D01*
X0188235Y0113857D02*
X0179681Y0113857D01*
X0180280Y0113259D02*
X0188938Y0113259D01*
X0168742Y0128820D02*
X0168371Y0128820D01*
X0168742Y0129419D02*
X0167559Y0129419D01*
X0168742Y0130017D02*
X0157942Y0130017D01*
X0157942Y0129419D02*
X0159125Y0129419D01*
X0158312Y0128820D02*
X0157942Y0128820D01*
X0167144Y0133010D02*
X0168742Y0133010D01*
X0168742Y0133608D02*
X0168200Y0133608D01*
X0172342Y0133608D02*
X0188484Y0133608D01*
X0187885Y0134207D02*
X0172342Y0134207D01*
X0172342Y0134805D02*
X0187573Y0134805D01*
X0187325Y0135404D02*
X0172342Y0135404D01*
X0172342Y0136002D02*
X0187242Y0136002D01*
X0187242Y0136601D02*
X0172342Y0136601D01*
X0172342Y0137199D02*
X0187326Y0137199D01*
X0187574Y0137798D02*
X0172342Y0137798D01*
X0172342Y0138396D02*
X0187888Y0138396D01*
X0188487Y0138995D02*
X0172342Y0138995D01*
X0172342Y0139593D02*
X0189547Y0139593D01*
X0198200Y0133608D02*
X0198553Y0133608D01*
X0197954Y0133010D02*
X0197144Y0133010D01*
X0197356Y0132411D02*
X0172342Y0132411D01*
X0172342Y0131813D02*
X0196757Y0131813D01*
X0196159Y0131214D02*
X0172342Y0131214D01*
X0172342Y0130616D02*
X0195560Y0130616D01*
X0189539Y0133010D02*
X0172342Y0133010D01*
X0168742Y0138995D02*
X0168197Y0138995D01*
X0168742Y0139593D02*
X0167137Y0139593D01*
X0172342Y0140192D02*
X0205137Y0140192D01*
X0205735Y0140790D02*
X0172342Y0140790D01*
X0168742Y0148571D02*
X0168621Y0148571D01*
X0168742Y0149170D02*
X0168022Y0149170D01*
X0168742Y0149768D02*
X0166715Y0149768D01*
X0159118Y0143184D02*
X0157942Y0143184D01*
X0157942Y0143783D02*
X0158309Y0143783D01*
X0152959Y0142586D02*
X0062642Y0142586D01*
X0062642Y0143184D02*
X0129118Y0143184D01*
X0128759Y0143333D02*
X0130046Y0142800D01*
X0136638Y0142800D01*
X0137924Y0143333D01*
X0138909Y0144317D01*
X0139442Y0145604D01*
X0139442Y0146996D01*
X0138909Y0148283D01*
X0137924Y0149267D01*
X0136638Y0149800D01*
X0130046Y0149800D01*
X0128759Y0149267D01*
X0127775Y0148283D01*
X0127242Y0146996D01*
X0127242Y0145604D01*
X0127775Y0144317D01*
X0128759Y0143333D01*
X0128309Y0143783D02*
X0062642Y0143783D01*
X0062642Y0144381D02*
X0127748Y0144381D01*
X0127500Y0144980D02*
X0062642Y0144980D01*
X0062642Y0145578D02*
X0127252Y0145578D01*
X0127242Y0146177D02*
X0062642Y0146177D01*
X0062642Y0146775D02*
X0127242Y0146775D01*
X0127398Y0147374D02*
X0062642Y0147374D01*
X0062642Y0147972D02*
X0127646Y0147972D01*
X0128063Y0148571D02*
X0062642Y0148571D01*
X0062642Y0149170D02*
X0128662Y0149170D01*
X0129968Y0149768D02*
X0062642Y0149768D01*
X0062642Y0150367D02*
X0145178Y0150367D01*
X0144580Y0150965D02*
X0062642Y0150965D01*
X0062642Y0151564D02*
X0143981Y0151564D01*
X0143383Y0152162D02*
X0062642Y0152162D01*
X0062642Y0152761D02*
X0142784Y0152761D01*
X0142186Y0153359D02*
X0137951Y0153359D01*
X0138549Y0153958D02*
X0141587Y0153958D01*
X0140989Y0154556D02*
X0139008Y0154556D01*
X0139256Y0155155D02*
X0140390Y0155155D01*
X0139792Y0155753D02*
X0139442Y0155753D01*
X0141390Y0157549D02*
X0155542Y0157549D01*
X0155542Y0158147D02*
X0140792Y0158147D01*
X0140193Y0158746D02*
X0155542Y0158746D01*
X0155542Y0159344D02*
X0139595Y0159344D01*
X0138996Y0159943D02*
X0155542Y0159943D01*
X0155542Y0160541D02*
X0138398Y0160541D01*
X0137799Y0161140D02*
X0155542Y0161140D01*
X0155542Y0161738D02*
X0137201Y0161738D01*
X0136602Y0162337D02*
X0155542Y0162337D01*
X0155542Y0162935D02*
X0136004Y0162935D01*
X0135405Y0163534D02*
X0155542Y0163534D01*
X0155542Y0164132D02*
X0134807Y0164132D01*
X0134208Y0164731D02*
X0155542Y0164731D01*
X0155542Y0165329D02*
X0133610Y0165329D01*
X0133011Y0165928D02*
X0155542Y0165928D01*
X0155542Y0166526D02*
X0132413Y0166526D01*
X0131814Y0167125D02*
X0155542Y0167125D01*
X0155421Y0167723D02*
X0131215Y0167723D01*
X0130617Y0168322D02*
X0154823Y0168322D01*
X0154224Y0168920D02*
X0130018Y0168920D01*
X0129420Y0169519D02*
X0153626Y0169519D01*
X0153027Y0170117D02*
X0128821Y0170117D01*
X0128223Y0170716D02*
X0152429Y0170716D01*
X0151830Y0171314D02*
X0127624Y0171314D01*
X0127026Y0171913D02*
X0151232Y0171913D01*
X0150633Y0172511D02*
X0126427Y0172511D01*
X0125829Y0173110D02*
X0150035Y0173110D01*
X0149436Y0173708D02*
X0125230Y0173708D01*
X0124632Y0174307D02*
X0148838Y0174307D01*
X0148239Y0174905D02*
X0124033Y0174905D01*
X0123435Y0175504D02*
X0147641Y0175504D01*
X0147042Y0176103D02*
X0122836Y0176103D01*
X0122238Y0176701D02*
X0146444Y0176701D01*
X0145845Y0177300D02*
X0121639Y0177300D01*
X0121041Y0177898D02*
X0145247Y0177898D01*
X0130215Y0165329D02*
X0062642Y0165329D01*
X0062642Y0164731D02*
X0130814Y0164731D01*
X0131412Y0164132D02*
X0062642Y0164132D01*
X0062642Y0163534D02*
X0132011Y0163534D01*
X0132609Y0162935D02*
X0062642Y0162935D01*
X0062642Y0162337D02*
X0133208Y0162337D01*
X0133806Y0161738D02*
X0062642Y0161738D01*
X0062642Y0161140D02*
X0134405Y0161140D01*
X0135004Y0160541D02*
X0062642Y0160541D01*
X0062642Y0159943D02*
X0135602Y0159943D01*
X0128945Y0159344D02*
X0062642Y0159344D01*
X0062642Y0158746D02*
X0128238Y0158746D01*
X0127719Y0158147D02*
X0062642Y0158147D01*
X0062642Y0157549D02*
X0127471Y0157549D01*
X0127242Y0156950D02*
X0062642Y0156950D01*
X0062642Y0156352D02*
X0127242Y0156352D01*
X0127242Y0155753D02*
X0062642Y0155753D01*
X0062642Y0155155D02*
X0127428Y0155155D01*
X0127676Y0154556D02*
X0062642Y0154556D01*
X0062642Y0153958D02*
X0128134Y0153958D01*
X0128733Y0153359D02*
X0062642Y0153359D01*
X0062642Y0139593D02*
X0129547Y0139593D01*
X0128487Y0138995D02*
X0062642Y0138995D01*
X0062642Y0138396D02*
X0127888Y0138396D01*
X0127574Y0137798D02*
X0062642Y0137798D01*
X0062642Y0137199D02*
X0127326Y0137199D01*
X0127242Y0136601D02*
X0062642Y0136601D01*
X0062642Y0136002D02*
X0127242Y0136002D01*
X0127325Y0135404D02*
X0062642Y0135404D01*
X0062642Y0134805D02*
X0127573Y0134805D01*
X0127885Y0134207D02*
X0062642Y0134207D01*
X0062642Y0133608D02*
X0128484Y0133608D01*
X0129539Y0133010D02*
X0062642Y0133010D01*
X0062642Y0165928D02*
X0129617Y0165928D01*
X0129018Y0166526D02*
X0062642Y0166526D01*
X0062642Y0185679D02*
X0117142Y0185679D01*
X0117142Y0186277D02*
X0062642Y0186277D01*
X0062642Y0197649D02*
X0114842Y0197649D01*
X0115340Y0198247D02*
X0062642Y0198247D01*
X0062642Y0198846D02*
X0115938Y0198846D01*
X0116537Y0199444D02*
X0062642Y0199444D01*
X0062642Y0200043D02*
X0123102Y0200043D01*
X0122503Y0200641D02*
X0062642Y0200641D01*
X0095376Y0223385D02*
X0099760Y0223385D01*
X0099161Y0223983D02*
X0095975Y0223983D01*
X0096573Y0224582D02*
X0098563Y0224582D01*
X0097964Y0225180D02*
X0096842Y0225180D01*
X0096842Y0225779D02*
X0097366Y0225779D01*
X0103752Y0222786D02*
X0177142Y0222786D01*
X0177142Y0222188D02*
X0104351Y0222188D01*
X0104949Y0221589D02*
X0177142Y0221589D01*
X0177142Y0220991D02*
X0105548Y0220991D01*
X0106146Y0220392D02*
X0177142Y0220392D01*
X0177142Y0219794D02*
X0106745Y0219794D01*
X0107344Y0219195D02*
X0177142Y0219195D01*
X0177142Y0218597D02*
X0107942Y0218597D01*
X0108541Y0217998D02*
X0177142Y0217998D01*
X0177142Y0217400D02*
X0109139Y0217400D01*
X0109738Y0216801D02*
X0177142Y0216801D01*
X0177142Y0216203D02*
X0110336Y0216203D01*
X0110935Y0215604D02*
X0177142Y0215604D01*
X0177142Y0215006D02*
X0111533Y0215006D01*
X0112132Y0214407D02*
X0166499Y0214407D01*
X0166892Y0214800D02*
X0164842Y0212750D01*
X0164842Y0209850D01*
X0166892Y0207800D01*
X0169792Y0207800D01*
X0171842Y0209850D01*
X0171842Y0212750D01*
X0169792Y0214800D01*
X0166892Y0214800D01*
X0165901Y0213809D02*
X0112730Y0213809D01*
X0113329Y0213210D02*
X0165302Y0213210D01*
X0164842Y0212612D02*
X0113927Y0212612D01*
X0114526Y0212013D02*
X0164842Y0212013D01*
X0164842Y0211415D02*
X0115124Y0211415D01*
X0115723Y0210816D02*
X0164842Y0210816D01*
X0164842Y0210218D02*
X0116321Y0210218D01*
X0116920Y0209619D02*
X0165073Y0209619D01*
X0165671Y0209021D02*
X0117518Y0209021D01*
X0118117Y0208422D02*
X0166270Y0208422D01*
X0166868Y0207824D02*
X0118715Y0207824D01*
X0119314Y0207225D02*
X0177142Y0207225D01*
X0177142Y0206627D02*
X0119912Y0206627D01*
X0120511Y0206028D02*
X0177142Y0206028D01*
X0177142Y0205430D02*
X0121109Y0205430D01*
X0121708Y0204831D02*
X0177142Y0204831D01*
X0177142Y0204233D02*
X0122306Y0204233D01*
X0122905Y0203634D02*
X0177142Y0203634D01*
X0177142Y0203036D02*
X0123503Y0203036D01*
X0124102Y0202437D02*
X0177142Y0202437D01*
X0177142Y0201839D02*
X0124700Y0201839D01*
X0125299Y0201240D02*
X0177142Y0201240D01*
X0177142Y0200641D02*
X0125897Y0200641D01*
X0165742Y0181403D02*
X0165742Y0178650D01*
X0166892Y0179800D01*
X0167542Y0179800D01*
X0167542Y0183203D01*
X0165742Y0181403D01*
X0165828Y0181489D02*
X0167542Y0181489D01*
X0167542Y0180891D02*
X0165742Y0180891D01*
X0165742Y0180292D02*
X0167542Y0180292D01*
X0166786Y0179694D02*
X0165742Y0179694D01*
X0165742Y0179095D02*
X0166187Y0179095D01*
X0166426Y0182088D02*
X0167542Y0182088D01*
X0167542Y0182686D02*
X0167025Y0182686D01*
X0165984Y0173708D02*
X0165742Y0173708D01*
X0165742Y0173110D02*
X0166582Y0173110D01*
X0165742Y0172511D02*
X0169942Y0172511D01*
X0169942Y0171913D02*
X0165742Y0171913D01*
X0165742Y0171314D02*
X0169942Y0171314D01*
X0169942Y0170716D02*
X0165742Y0170716D01*
X0165742Y0170117D02*
X0169942Y0170117D01*
X0169942Y0169519D02*
X0165742Y0169519D01*
X0165742Y0168920D02*
X0169942Y0168920D01*
X0169942Y0168322D02*
X0165742Y0168322D01*
X0165742Y0167723D02*
X0169942Y0167723D01*
X0169942Y0167125D02*
X0165742Y0167125D01*
X0165742Y0166526D02*
X0169942Y0166526D01*
X0169942Y0165928D02*
X0165742Y0165928D01*
X0165742Y0165329D02*
X0169942Y0165329D01*
X0169942Y0164731D02*
X0165742Y0164731D01*
X0165742Y0164132D02*
X0169942Y0164132D01*
X0169942Y0163534D02*
X0165742Y0163534D01*
X0166004Y0162935D02*
X0169942Y0162935D01*
X0169942Y0162337D02*
X0166602Y0162337D01*
X0158945Y0159344D02*
X0157942Y0159344D01*
X0157942Y0158746D02*
X0158238Y0158746D01*
X0155542Y0156950D02*
X0141989Y0156950D01*
X0142587Y0156352D02*
X0155542Y0156352D01*
X0155542Y0155753D02*
X0143186Y0155753D01*
X0143784Y0155155D02*
X0155542Y0155155D01*
X0155542Y0154556D02*
X0144383Y0154556D01*
X0144981Y0153958D02*
X0155542Y0153958D01*
X0155542Y0153359D02*
X0145580Y0153359D01*
X0146178Y0152761D02*
X0155542Y0152761D01*
X0155542Y0152162D02*
X0146777Y0152162D01*
X0147375Y0151564D02*
X0155542Y0151564D01*
X0155542Y0150965D02*
X0147974Y0150965D01*
X0148572Y0150367D02*
X0155542Y0150367D01*
X0155542Y0149768D02*
X0149171Y0149768D01*
X0149769Y0149170D02*
X0155542Y0149170D01*
X0150565Y0144980D02*
X0139183Y0144980D01*
X0138935Y0144381D02*
X0151163Y0144381D01*
X0151762Y0143783D02*
X0138374Y0143783D01*
X0137566Y0143184D02*
X0152360Y0143184D01*
X0149966Y0145578D02*
X0139431Y0145578D01*
X0139442Y0146177D02*
X0149368Y0146177D01*
X0148769Y0146775D02*
X0139442Y0146775D01*
X0139285Y0147374D02*
X0148171Y0147374D01*
X0147572Y0147972D02*
X0139037Y0147972D01*
X0138621Y0148571D02*
X0146974Y0148571D01*
X0146375Y0149170D02*
X0138022Y0149170D01*
X0136715Y0149768D02*
X0145777Y0149768D01*
X0169815Y0207824D02*
X0177142Y0207824D01*
X0177142Y0208422D02*
X0170414Y0208422D01*
X0171012Y0209021D02*
X0177142Y0209021D01*
X0177142Y0209619D02*
X0171611Y0209619D01*
X0171842Y0210218D02*
X0177142Y0210218D01*
X0177142Y0210816D02*
X0171842Y0210816D01*
X0171842Y0211415D02*
X0177142Y0211415D01*
X0177142Y0212013D02*
X0171842Y0212013D01*
X0171842Y0212612D02*
X0177142Y0212612D01*
X0177142Y0213210D02*
X0171381Y0213210D01*
X0170783Y0213809D02*
X0177142Y0213809D01*
X0177142Y0214407D02*
X0170184Y0214407D01*
X0199342Y0232363D02*
X0249842Y0232363D01*
X0250053Y0232961D02*
X0199342Y0232961D01*
X0199342Y0233560D02*
X0250652Y0233560D01*
X0255184Y0214407D02*
X0301499Y0214407D01*
X0300901Y0213809D02*
X0255783Y0213809D01*
X0256381Y0213210D02*
X0300302Y0213210D01*
X0299842Y0212612D02*
X0256842Y0212612D01*
X0256842Y0212013D02*
X0299842Y0212013D01*
X0299842Y0211415D02*
X0256842Y0211415D01*
X0256842Y0210816D02*
X0299842Y0210816D01*
X0299842Y0210218D02*
X0256842Y0210218D01*
X0256611Y0209619D02*
X0300073Y0209619D01*
X0300671Y0209021D02*
X0256012Y0209021D01*
X0255414Y0208422D02*
X0301270Y0208422D01*
X0301868Y0207824D02*
X0254815Y0207824D01*
X0215073Y0209619D02*
X0213158Y0209619D01*
X0213757Y0210218D02*
X0214842Y0210218D01*
X0214842Y0210816D02*
X0214355Y0210816D01*
X0198142Y0235300D02*
X0198142Y0246100D01*
X0198342Y0246300D01*
X0176546Y0252712D02*
X0141842Y0252712D01*
X0141842Y0252113D02*
X0175716Y0252113D01*
X0175117Y0251515D02*
X0141842Y0251515D01*
X0141842Y0250916D02*
X0174837Y0250916D01*
X0174589Y0250318D02*
X0141842Y0250318D01*
X0141711Y0249719D02*
X0174473Y0249719D01*
X0174473Y0249121D02*
X0141112Y0249121D01*
X0140514Y0248522D02*
X0174473Y0248522D01*
X0174473Y0247924D02*
X0139915Y0247924D01*
X0198699Y0278448D02*
X0398342Y0278448D01*
X0398342Y0279046D02*
X0240595Y0279046D01*
X0282490Y0279645D02*
X0398342Y0279645D01*
X0398342Y0280243D02*
X0324386Y0280243D01*
X0366282Y0280842D02*
X0398342Y0280842D01*
X0372743Y0261690D02*
X0366710Y0261690D01*
X0367416Y0261091D02*
X0372743Y0261091D01*
X0372743Y0260493D02*
X0368014Y0260493D01*
X0368613Y0259894D02*
X0372743Y0259894D01*
X0372743Y0259296D02*
X0368886Y0259296D01*
X0369134Y0258697D02*
X0372743Y0258697D01*
X0372743Y0258099D02*
X0369382Y0258099D01*
X0369610Y0257500D02*
X0372743Y0257500D01*
X0372743Y0256902D02*
X0369610Y0256902D01*
X0369610Y0256303D02*
X0372743Y0256303D01*
X0372743Y0255705D02*
X0369610Y0255705D01*
X0369610Y0255106D02*
X0372743Y0255106D01*
X0372743Y0254508D02*
X0369384Y0254508D01*
X0369136Y0253909D02*
X0372743Y0253909D01*
X0372743Y0253310D02*
X0368888Y0253310D01*
X0368619Y0252712D02*
X0372743Y0252712D01*
X0372743Y0252113D02*
X0368020Y0252113D01*
X0367422Y0251515D02*
X0372743Y0251515D01*
X0372743Y0250916D02*
X0366725Y0250916D01*
X0365280Y0250318D02*
X0372743Y0250318D01*
X0306742Y0209619D02*
X0306611Y0209619D01*
X0306742Y0209021D02*
X0306012Y0209021D01*
X0305414Y0208422D02*
X0306742Y0208422D01*
X0306742Y0207824D02*
X0304815Y0207824D01*
X0309142Y0158147D02*
X0321545Y0158147D01*
X0267541Y0135404D02*
X0243943Y0135404D01*
X0244541Y0136002D02*
X0266942Y0136002D01*
X0266344Y0136601D02*
X0245140Y0136601D01*
X0245738Y0137199D02*
X0265745Y0137199D01*
X0265147Y0137798D02*
X0246337Y0137798D01*
X0246935Y0138396D02*
X0264548Y0138396D01*
X0263950Y0138995D02*
X0247534Y0138995D01*
X0248132Y0139593D02*
X0263351Y0139593D01*
X0262753Y0140192D02*
X0248731Y0140192D01*
X0249329Y0140790D02*
X0262154Y0140790D01*
X0261556Y0141389D02*
X0249928Y0141389D01*
X0250526Y0141987D02*
X0260957Y0141987D01*
X0260359Y0142586D02*
X0251125Y0142586D01*
X0251723Y0143184D02*
X0256508Y0143184D01*
X0255909Y0143783D02*
X0252322Y0143783D01*
X0252920Y0144381D02*
X0255311Y0144381D01*
X0254842Y0144980D02*
X0253519Y0144980D01*
X0254117Y0145578D02*
X0254842Y0145578D01*
X0254842Y0146177D02*
X0254716Y0146177D01*
X0252985Y0072560D02*
X0220504Y0072560D01*
X0221120Y0071962D02*
X0251587Y0071962D01*
X0250855Y0071363D02*
X0221661Y0071363D01*
X0221909Y0070765D02*
X0250326Y0070765D01*
X0250078Y0070166D02*
X0222157Y0070166D01*
X0222210Y0069568D02*
X0249842Y0069568D01*
X0249842Y0068969D02*
X0222210Y0068969D01*
X0222210Y0068370D02*
X0249842Y0068370D01*
X0249842Y0065378D02*
X0222210Y0065378D01*
X0222210Y0064779D02*
X0249842Y0064779D01*
X0249842Y0064181D02*
X0222210Y0064181D01*
X0222210Y0063582D02*
X0249842Y0063582D01*
X0249850Y0062984D02*
X0222210Y0062984D01*
X0222137Y0062385D02*
X0250098Y0062385D01*
X0250346Y0061787D02*
X0221889Y0061787D01*
X0221641Y0061188D02*
X0250904Y0061188D01*
X0251704Y0060590D02*
X0221071Y0060590D01*
X0220387Y0059991D02*
X0257753Y0059991D01*
X0257155Y0060590D02*
X0254979Y0060590D01*
X0255780Y0061188D02*
X0256556Y0061188D01*
X0258155Y0062984D02*
X0259850Y0062984D01*
X0259842Y0063004D02*
X0260375Y0061717D01*
X0260792Y0061300D01*
X0259839Y0061300D01*
X0256842Y0064297D01*
X0256842Y0068703D01*
X0259842Y0065703D01*
X0259842Y0063004D01*
X0259842Y0063582D02*
X0257556Y0063582D01*
X0256958Y0064181D02*
X0259842Y0064181D01*
X0259842Y0064779D02*
X0256842Y0064779D01*
X0256842Y0065378D02*
X0259842Y0065378D01*
X0259568Y0065976D02*
X0256842Y0065976D01*
X0256842Y0066575D02*
X0258970Y0066575D01*
X0258371Y0067173D02*
X0256842Y0067173D01*
X0256842Y0067772D02*
X0257773Y0067772D01*
X0257174Y0068370D02*
X0256842Y0068370D01*
X0258773Y0070166D02*
X0260078Y0070166D01*
X0259842Y0069568D02*
X0259371Y0069568D01*
X0260326Y0070765D02*
X0258174Y0070765D01*
X0257576Y0071363D02*
X0260855Y0071363D01*
X0266842Y0065976D02*
X0269842Y0065976D01*
X0269842Y0065378D02*
X0266842Y0065378D01*
X0266842Y0064779D02*
X0269842Y0064779D01*
X0269842Y0064181D02*
X0266842Y0064181D01*
X0266842Y0063582D02*
X0269842Y0063582D01*
X0269850Y0062984D02*
X0266834Y0062984D01*
X0266586Y0062385D02*
X0270098Y0062385D01*
X0270346Y0061787D02*
X0266338Y0061787D01*
X0260346Y0061787D02*
X0259352Y0061787D01*
X0258753Y0062385D02*
X0260098Y0062385D01*
X0258352Y0059393D02*
X0062642Y0059393D01*
X0062642Y0059991D02*
X0196297Y0059991D01*
X0195613Y0060590D02*
X0062642Y0060590D01*
X0062642Y0061188D02*
X0195042Y0061188D01*
X0194794Y0061787D02*
X0062642Y0061787D01*
X0062642Y0062385D02*
X0194546Y0062385D01*
X0194473Y0062984D02*
X0062642Y0062984D01*
X0062642Y0063582D02*
X0194473Y0063582D01*
X0194473Y0064181D02*
X0062642Y0064181D01*
X0062642Y0064779D02*
X0194473Y0064779D01*
X0194473Y0065378D02*
X0062642Y0065378D01*
X0062642Y0065976D02*
X0194473Y0065976D01*
X0194473Y0066575D02*
X0062642Y0066575D01*
X0062642Y0067173D02*
X0194473Y0067173D01*
X0194473Y0067772D02*
X0062642Y0067772D01*
X0062642Y0068370D02*
X0194473Y0068370D01*
X0194473Y0068969D02*
X0062642Y0068969D01*
X0062642Y0069568D02*
X0194473Y0069568D01*
X0194526Y0070166D02*
X0062642Y0070166D01*
X0062642Y0070765D02*
X0194774Y0070765D01*
X0195022Y0071363D02*
X0062642Y0071363D01*
X0062642Y0071962D02*
X0195564Y0071962D01*
X0196179Y0072560D02*
X0062642Y0072560D01*
X0275096Y0071962D02*
X0281587Y0071962D01*
X0280855Y0071363D02*
X0275828Y0071363D01*
X0276358Y0070765D02*
X0280326Y0070765D01*
X0280078Y0070166D02*
X0276606Y0070166D01*
X0276842Y0069568D02*
X0279842Y0069568D01*
X0279842Y0068969D02*
X0276842Y0068969D01*
X0276842Y0068370D02*
X0279842Y0068370D01*
X0279842Y0067772D02*
X0276842Y0067772D01*
X0276842Y0067173D02*
X0279842Y0067173D01*
X0279842Y0066575D02*
X0276842Y0066575D01*
X0276842Y0065976D02*
X0279842Y0065976D01*
X0279842Y0065378D02*
X0276842Y0065378D01*
X0276842Y0064779D02*
X0279842Y0064779D01*
X0279842Y0064181D02*
X0276842Y0064181D01*
X0276842Y0063582D02*
X0279842Y0063582D01*
X0279850Y0062984D02*
X0276834Y0062984D01*
X0276586Y0062385D02*
X0280098Y0062385D01*
X0280346Y0061787D02*
X0276338Y0061787D01*
X0286338Y0061787D02*
X0290346Y0061787D01*
X0290098Y0062385D02*
X0286586Y0062385D01*
X0286834Y0062984D02*
X0289850Y0062984D01*
X0289842Y0063582D02*
X0286842Y0063582D01*
X0286842Y0064181D02*
X0289842Y0064181D01*
X0289842Y0064779D02*
X0286842Y0064779D01*
X0286842Y0065378D02*
X0289842Y0065378D01*
X0289842Y0065976D02*
X0286842Y0065976D01*
X0286842Y0066575D02*
X0289842Y0066575D01*
X0289842Y0067173D02*
X0286842Y0067173D01*
X0286842Y0067772D02*
X0289842Y0067772D01*
X0289842Y0068370D02*
X0286842Y0068370D01*
X0286842Y0068969D02*
X0289842Y0068969D01*
X0289842Y0069568D02*
X0286842Y0069568D01*
X0286606Y0070166D02*
X0290078Y0070166D01*
X0290326Y0070765D02*
X0286358Y0070765D01*
X0285828Y0071363D02*
X0290855Y0071363D01*
X0291587Y0071962D02*
X0285096Y0071962D01*
X0308911Y0067772D02*
X0309842Y0067772D01*
X0309842Y0068370D02*
X0309509Y0068370D01*
X0315096Y0071962D02*
X0321587Y0071962D01*
X0321359Y0071867D02*
X0320375Y0070883D01*
X0319842Y0069596D01*
X0319842Y0063004D01*
X0320375Y0061717D01*
X0321359Y0060733D01*
X0322646Y0060200D01*
X0324038Y0060200D01*
X0325324Y0060733D01*
X0326309Y0061717D01*
X0326842Y0063004D01*
X0326842Y0069596D01*
X0326309Y0070883D01*
X0325324Y0071867D01*
X0324038Y0072400D01*
X0322646Y0072400D01*
X0321359Y0071867D01*
X0320855Y0071363D02*
X0315828Y0071363D01*
X0316358Y0070765D02*
X0320326Y0070765D01*
X0320078Y0070166D02*
X0316606Y0070166D01*
X0316842Y0069568D02*
X0319842Y0069568D01*
X0319842Y0068969D02*
X0316842Y0068969D01*
X0316842Y0068370D02*
X0319842Y0068370D01*
X0319842Y0067772D02*
X0316842Y0067772D01*
X0316842Y0067173D02*
X0319842Y0067173D01*
X0319842Y0066575D02*
X0316842Y0066575D01*
X0316842Y0065976D02*
X0319842Y0065976D01*
X0319842Y0065378D02*
X0316842Y0065378D01*
X0316842Y0064779D02*
X0319842Y0064779D01*
X0319842Y0064181D02*
X0316842Y0064181D01*
X0316842Y0063582D02*
X0319842Y0063582D01*
X0319850Y0062984D02*
X0316834Y0062984D01*
X0316586Y0062385D02*
X0320098Y0062385D01*
X0320346Y0061787D02*
X0316338Y0061787D01*
X0315780Y0061188D02*
X0320904Y0061188D01*
X0321704Y0060590D02*
X0314979Y0060590D01*
X0324979Y0060590D02*
X0331704Y0060590D01*
X0330904Y0061188D02*
X0325780Y0061188D01*
X0326338Y0061787D02*
X0330346Y0061787D01*
X0330098Y0062385D02*
X0326586Y0062385D01*
X0326834Y0062984D02*
X0329850Y0062984D01*
X0329842Y0063582D02*
X0326842Y0063582D01*
X0326842Y0064181D02*
X0329842Y0064181D01*
X0329842Y0064779D02*
X0326842Y0064779D01*
X0326842Y0065378D02*
X0329842Y0065378D01*
X0329842Y0065976D02*
X0326842Y0065976D01*
X0326842Y0066575D02*
X0329842Y0066575D01*
X0329842Y0067173D02*
X0326842Y0067173D01*
X0326842Y0067772D02*
X0329842Y0067772D01*
X0329842Y0068370D02*
X0326842Y0068370D01*
X0326842Y0068969D02*
X0329842Y0068969D01*
X0329842Y0069568D02*
X0326842Y0069568D01*
X0326606Y0070166D02*
X0330078Y0070166D01*
X0330326Y0070765D02*
X0326358Y0070765D01*
X0325828Y0071363D02*
X0330855Y0071363D01*
X0331587Y0071962D02*
X0325096Y0071962D01*
M02*
