G75*
%MOIN*%
%OFA0B0*%
%FSLAX25Y25*%
%IPPOS*%
%LPD*%
%AMOC8*
5,1,8,0,0,1.08239X$1,22.5*
%
%ADD10R,0.09000X0.09000*%
%ADD11C,0.05200*%
%ADD12C,0.05200*%
%ADD13C,0.05937*%
%ADD14OC8,0.05200*%
%ADD15C,0.05543*%
%ADD16C,0.00600*%
D10*
X0083342Y0051300D03*
X0083342Y0111300D03*
D11*
X0253342Y0166300D03*
X0263342Y0166300D03*
X0273342Y0166300D03*
X0283342Y0166300D03*
X0283342Y0196300D03*
X0273342Y0196300D03*
X0263342Y0196300D03*
X0253342Y0196300D03*
D12*
X0215942Y0156300D02*
X0210742Y0156300D01*
X0210742Y0146300D02*
X0215942Y0146300D01*
X0215942Y0136300D02*
X0210742Y0136300D01*
X0210742Y0126300D02*
X0215942Y0126300D01*
X0215942Y0116300D02*
X0210742Y0116300D01*
X0210742Y0106300D02*
X0215942Y0106300D01*
X0215942Y0096300D02*
X0210742Y0096300D01*
X0185942Y0096300D02*
X0180742Y0096300D01*
X0180742Y0106300D02*
X0185942Y0106300D01*
X0185942Y0116300D02*
X0180742Y0116300D01*
X0180742Y0126300D02*
X0185942Y0126300D01*
X0185942Y0136300D02*
X0180742Y0136300D01*
X0180742Y0146300D02*
X0185942Y0146300D01*
X0185942Y0156300D02*
X0180742Y0156300D01*
X0155942Y0156300D02*
X0150742Y0156300D01*
X0150742Y0146300D02*
X0155942Y0146300D01*
X0155942Y0136300D02*
X0150742Y0136300D01*
X0150742Y0126300D02*
X0155942Y0126300D01*
X0155942Y0116300D02*
X0150742Y0116300D01*
X0150742Y0106300D02*
X0155942Y0106300D01*
X0155942Y0096300D02*
X0150742Y0096300D01*
X0125942Y0096300D02*
X0120742Y0096300D01*
X0120742Y0106300D02*
X0125942Y0106300D01*
X0125942Y0116300D02*
X0120742Y0116300D01*
X0120742Y0126300D02*
X0125942Y0126300D01*
X0125942Y0136300D02*
X0120742Y0136300D01*
X0120742Y0146300D02*
X0125942Y0146300D01*
X0125942Y0156300D02*
X0120742Y0156300D01*
X0243342Y0068900D02*
X0243342Y0063700D01*
X0253342Y0063700D02*
X0253342Y0068900D01*
X0263342Y0068900D02*
X0263342Y0063700D01*
X0273342Y0063700D02*
X0273342Y0068900D01*
X0283342Y0068900D02*
X0283342Y0063700D01*
X0293342Y0063700D02*
X0293342Y0068900D01*
X0303342Y0068900D02*
X0303342Y0063700D01*
X0313342Y0063700D02*
X0313342Y0068900D01*
X0323342Y0068900D02*
X0323342Y0063700D01*
D13*
X0208342Y0063331D02*
X0208342Y0069269D01*
X0198342Y0069269D02*
X0198342Y0063331D01*
X0188342Y0063331D02*
X0188342Y0069269D01*
X0086310Y0171300D02*
X0080373Y0171300D01*
X0080373Y0181300D02*
X0086310Y0181300D01*
X0086310Y0191300D02*
X0080373Y0191300D01*
X0168342Y0243331D02*
X0168342Y0249269D01*
X0178342Y0249269D02*
X0178342Y0243331D01*
X0188342Y0243331D02*
X0188342Y0249269D01*
X0340373Y0191300D02*
X0346310Y0191300D01*
X0346310Y0181300D02*
X0340373Y0181300D01*
X0340373Y0171300D02*
X0346310Y0171300D01*
D14*
X0313342Y0161300D03*
X0298342Y0146300D03*
X0248342Y0146300D03*
X0208342Y0176300D03*
X0208342Y0211300D03*
X0243342Y0211300D03*
X0243342Y0231300D03*
X0293342Y0231300D03*
X0293342Y0211300D03*
X0313342Y0211300D03*
X0158342Y0211300D03*
X0158342Y0196300D03*
X0158342Y0176300D03*
X0108342Y0196300D03*
X0133342Y0226300D03*
X0128342Y0251300D03*
X0083342Y0226300D03*
X0078342Y0251300D03*
D15*
X0293342Y0126300D03*
X0323342Y0116300D03*
X0343342Y0126300D03*
D16*
X0388342Y0001300D02*
X0033342Y0001300D01*
X0038342Y0276300D01*
X0388342Y0281300D01*
X0388342Y0001300D01*
X0388342Y0001337D02*
X0033342Y0001337D01*
X0033353Y0001936D02*
X0388342Y0001936D01*
X0388342Y0002534D02*
X0033364Y0002534D01*
X0033375Y0003133D02*
X0388342Y0003133D01*
X0388342Y0003731D02*
X0033386Y0003731D01*
X0033397Y0004330D02*
X0388342Y0004330D01*
X0388342Y0004928D02*
X0033408Y0004928D01*
X0033419Y0005527D02*
X0388342Y0005527D01*
X0388342Y0006125D02*
X0033430Y0006125D01*
X0033440Y0006724D02*
X0388342Y0006724D01*
X0388342Y0007322D02*
X0033451Y0007322D01*
X0033462Y0007921D02*
X0388342Y0007921D01*
X0388342Y0008519D02*
X0033473Y0008519D01*
X0033484Y0009118D02*
X0388342Y0009118D01*
X0388342Y0009716D02*
X0033495Y0009716D01*
X0033506Y0010315D02*
X0388342Y0010315D01*
X0388342Y0010913D02*
X0033517Y0010913D01*
X0033527Y0011512D02*
X0388342Y0011512D01*
X0388342Y0012110D02*
X0033538Y0012110D01*
X0033549Y0012709D02*
X0388342Y0012709D01*
X0388342Y0013307D02*
X0033560Y0013307D01*
X0033571Y0013906D02*
X0388342Y0013906D01*
X0388342Y0014504D02*
X0033582Y0014504D01*
X0033593Y0015103D02*
X0388342Y0015103D01*
X0388342Y0015701D02*
X0033604Y0015701D01*
X0033615Y0016300D02*
X0388342Y0016300D01*
X0388342Y0016899D02*
X0033625Y0016899D01*
X0033636Y0017497D02*
X0388342Y0017497D01*
X0388342Y0018096D02*
X0033647Y0018096D01*
X0033658Y0018694D02*
X0388342Y0018694D01*
X0388342Y0019293D02*
X0033669Y0019293D01*
X0033680Y0019891D02*
X0388342Y0019891D01*
X0388342Y0020490D02*
X0033691Y0020490D01*
X0033702Y0021088D02*
X0388342Y0021088D01*
X0388342Y0021687D02*
X0033712Y0021687D01*
X0033723Y0022285D02*
X0388342Y0022285D01*
X0388342Y0022884D02*
X0033734Y0022884D01*
X0033745Y0023482D02*
X0388342Y0023482D01*
X0388342Y0024081D02*
X0033756Y0024081D01*
X0033767Y0024679D02*
X0388342Y0024679D01*
X0388342Y0025278D02*
X0033778Y0025278D01*
X0033789Y0025876D02*
X0388342Y0025876D01*
X0388342Y0026475D02*
X0033800Y0026475D01*
X0033810Y0027073D02*
X0388342Y0027073D01*
X0388342Y0027672D02*
X0033821Y0027672D01*
X0033832Y0028270D02*
X0388342Y0028270D01*
X0388342Y0028869D02*
X0033843Y0028869D01*
X0033854Y0029467D02*
X0388342Y0029467D01*
X0388342Y0030066D02*
X0033865Y0030066D01*
X0033876Y0030664D02*
X0388342Y0030664D01*
X0388342Y0031263D02*
X0033887Y0031263D01*
X0033897Y0031861D02*
X0388342Y0031861D01*
X0388342Y0032460D02*
X0033908Y0032460D01*
X0033919Y0033058D02*
X0388342Y0033058D01*
X0388342Y0033657D02*
X0033930Y0033657D01*
X0033941Y0034255D02*
X0388342Y0034255D01*
X0388342Y0034854D02*
X0033952Y0034854D01*
X0033963Y0035452D02*
X0388342Y0035452D01*
X0388342Y0036051D02*
X0033974Y0036051D01*
X0033985Y0036649D02*
X0388342Y0036649D01*
X0388342Y0037248D02*
X0368496Y0037248D01*
X0367898Y0037000D02*
X0369478Y0037655D01*
X0370688Y0038864D01*
X0371343Y0040445D01*
X0371343Y0267116D01*
X0370688Y0268696D01*
X0369478Y0269906D01*
X0367898Y0270561D01*
X0047486Y0270561D01*
X0045906Y0269906D01*
X0044696Y0268696D01*
X0044042Y0267116D01*
X0044042Y0040445D01*
X0044696Y0038864D01*
X0045906Y0037655D01*
X0047486Y0037000D01*
X0049197Y0037000D01*
X0366187Y0037000D01*
X0367898Y0037000D01*
X0369670Y0037846D02*
X0388342Y0037846D01*
X0388342Y0038445D02*
X0370269Y0038445D01*
X0370762Y0039043D02*
X0388342Y0039043D01*
X0388342Y0039642D02*
X0371010Y0039642D01*
X0371258Y0040240D02*
X0388342Y0040240D01*
X0388342Y0040839D02*
X0371343Y0040839D01*
X0371343Y0041437D02*
X0388342Y0041437D01*
X0388342Y0042036D02*
X0371343Y0042036D01*
X0371343Y0042634D02*
X0388342Y0042634D01*
X0388342Y0043233D02*
X0371343Y0043233D01*
X0371343Y0043832D02*
X0388342Y0043832D01*
X0388342Y0044430D02*
X0371343Y0044430D01*
X0371343Y0045029D02*
X0388342Y0045029D01*
X0388342Y0045627D02*
X0371343Y0045627D01*
X0371343Y0046226D02*
X0388342Y0046226D01*
X0388342Y0046824D02*
X0371343Y0046824D01*
X0371343Y0047423D02*
X0388342Y0047423D01*
X0388342Y0048021D02*
X0371343Y0048021D01*
X0371343Y0048620D02*
X0388342Y0048620D01*
X0388342Y0049218D02*
X0371343Y0049218D01*
X0371343Y0049817D02*
X0388342Y0049817D01*
X0388342Y0050415D02*
X0371343Y0050415D01*
X0371343Y0051014D02*
X0388342Y0051014D01*
X0388342Y0051612D02*
X0371343Y0051612D01*
X0371343Y0052211D02*
X0388342Y0052211D01*
X0388342Y0052809D02*
X0371343Y0052809D01*
X0371343Y0053408D02*
X0388342Y0053408D01*
X0388342Y0054006D02*
X0371343Y0054006D01*
X0371343Y0054605D02*
X0388342Y0054605D01*
X0388342Y0055203D02*
X0371343Y0055203D01*
X0371343Y0055802D02*
X0388342Y0055802D01*
X0388342Y0056400D02*
X0371343Y0056400D01*
X0371343Y0056999D02*
X0388342Y0056999D01*
X0388342Y0057597D02*
X0371343Y0057597D01*
X0371343Y0058196D02*
X0388342Y0058196D01*
X0388342Y0058794D02*
X0371343Y0058794D01*
X0371343Y0059393D02*
X0388342Y0059393D01*
X0388342Y0059991D02*
X0371343Y0059991D01*
X0371343Y0060590D02*
X0388342Y0060590D01*
X0388342Y0061188D02*
X0371343Y0061188D01*
X0371343Y0061787D02*
X0388342Y0061787D01*
X0388342Y0062385D02*
X0371343Y0062385D01*
X0371343Y0062984D02*
X0388342Y0062984D01*
X0388342Y0063582D02*
X0371343Y0063582D01*
X0371343Y0064181D02*
X0388342Y0064181D01*
X0388342Y0064779D02*
X0371343Y0064779D01*
X0371343Y0065378D02*
X0388342Y0065378D01*
X0388342Y0065976D02*
X0371343Y0065976D01*
X0371343Y0066575D02*
X0388342Y0066575D01*
X0388342Y0067173D02*
X0371343Y0067173D01*
X0371343Y0067772D02*
X0388342Y0067772D01*
X0388342Y0068370D02*
X0371343Y0068370D01*
X0371343Y0068969D02*
X0388342Y0068969D01*
X0388342Y0069568D02*
X0371343Y0069568D01*
X0371343Y0070166D02*
X0388342Y0070166D01*
X0388342Y0070765D02*
X0371343Y0070765D01*
X0371343Y0071363D02*
X0388342Y0071363D01*
X0388342Y0071962D02*
X0371343Y0071962D01*
X0371343Y0072560D02*
X0388342Y0072560D01*
X0388342Y0073159D02*
X0371343Y0073159D01*
X0371343Y0073757D02*
X0388342Y0073757D01*
X0388342Y0074356D02*
X0371343Y0074356D01*
X0371343Y0074954D02*
X0388342Y0074954D01*
X0388342Y0075553D02*
X0371343Y0075553D01*
X0371343Y0076151D02*
X0388342Y0076151D01*
X0388342Y0076750D02*
X0371343Y0076750D01*
X0371343Y0077348D02*
X0388342Y0077348D01*
X0388342Y0077947D02*
X0371343Y0077947D01*
X0371343Y0078545D02*
X0388342Y0078545D01*
X0388342Y0079144D02*
X0371343Y0079144D01*
X0371343Y0079742D02*
X0388342Y0079742D01*
X0388342Y0080341D02*
X0371343Y0080341D01*
X0371343Y0080939D02*
X0388342Y0080939D01*
X0388342Y0081538D02*
X0371343Y0081538D01*
X0371343Y0082136D02*
X0388342Y0082136D01*
X0388342Y0082735D02*
X0371343Y0082735D01*
X0371343Y0083333D02*
X0388342Y0083333D01*
X0388342Y0083932D02*
X0371343Y0083932D01*
X0371343Y0084530D02*
X0388342Y0084530D01*
X0388342Y0085129D02*
X0371343Y0085129D01*
X0371343Y0085727D02*
X0388342Y0085727D01*
X0388342Y0086326D02*
X0371343Y0086326D01*
X0371343Y0086924D02*
X0388342Y0086924D01*
X0388342Y0087523D02*
X0371343Y0087523D01*
X0371343Y0088121D02*
X0388342Y0088121D01*
X0388342Y0088720D02*
X0371343Y0088720D01*
X0371343Y0089318D02*
X0388342Y0089318D01*
X0388342Y0089917D02*
X0371343Y0089917D01*
X0371343Y0090515D02*
X0388342Y0090515D01*
X0388342Y0091114D02*
X0371343Y0091114D01*
X0371343Y0091712D02*
X0388342Y0091712D01*
X0388342Y0092311D02*
X0371343Y0092311D01*
X0371343Y0092909D02*
X0388342Y0092909D01*
X0388342Y0093508D02*
X0371343Y0093508D01*
X0371343Y0094106D02*
X0388342Y0094106D01*
X0388342Y0094705D02*
X0371343Y0094705D01*
X0371343Y0095303D02*
X0388342Y0095303D01*
X0388342Y0095902D02*
X0371343Y0095902D01*
X0371343Y0096501D02*
X0388342Y0096501D01*
X0388342Y0097099D02*
X0371343Y0097099D01*
X0371343Y0097698D02*
X0388342Y0097698D01*
X0388342Y0098296D02*
X0371343Y0098296D01*
X0371343Y0098895D02*
X0388342Y0098895D01*
X0388342Y0099493D02*
X0371343Y0099493D01*
X0371343Y0100092D02*
X0388342Y0100092D01*
X0388342Y0100690D02*
X0371343Y0100690D01*
X0371343Y0101289D02*
X0388342Y0101289D01*
X0388342Y0101887D02*
X0371343Y0101887D01*
X0371343Y0102486D02*
X0388342Y0102486D01*
X0388342Y0103084D02*
X0371343Y0103084D01*
X0371343Y0103683D02*
X0388342Y0103683D01*
X0388342Y0104281D02*
X0371343Y0104281D01*
X0371343Y0104880D02*
X0388342Y0104880D01*
X0388342Y0105478D02*
X0371343Y0105478D01*
X0371343Y0106077D02*
X0388342Y0106077D01*
X0388342Y0106675D02*
X0371343Y0106675D01*
X0371343Y0107274D02*
X0388342Y0107274D01*
X0388342Y0107872D02*
X0371343Y0107872D01*
X0371343Y0108471D02*
X0388342Y0108471D01*
X0388342Y0109069D02*
X0371343Y0109069D01*
X0371343Y0109668D02*
X0388342Y0109668D01*
X0388342Y0110266D02*
X0371343Y0110266D01*
X0371343Y0110865D02*
X0388342Y0110865D01*
X0388342Y0111463D02*
X0371343Y0111463D01*
X0371343Y0112062D02*
X0388342Y0112062D01*
X0388342Y0112660D02*
X0371343Y0112660D01*
X0371343Y0113259D02*
X0388342Y0113259D01*
X0388342Y0113857D02*
X0371343Y0113857D01*
X0371343Y0114456D02*
X0388342Y0114456D01*
X0388342Y0115054D02*
X0371343Y0115054D01*
X0371343Y0115653D02*
X0388342Y0115653D01*
X0388342Y0116251D02*
X0371343Y0116251D01*
X0371343Y0116850D02*
X0388342Y0116850D01*
X0388342Y0117448D02*
X0371343Y0117448D01*
X0371343Y0118047D02*
X0388342Y0118047D01*
X0388342Y0118645D02*
X0371343Y0118645D01*
X0371343Y0119244D02*
X0388342Y0119244D01*
X0388342Y0119842D02*
X0371343Y0119842D01*
X0371343Y0120441D02*
X0388342Y0120441D01*
X0388342Y0121039D02*
X0371343Y0121039D01*
X0371343Y0121638D02*
X0388342Y0121638D01*
X0388342Y0122237D02*
X0371343Y0122237D01*
X0371343Y0122835D02*
X0388342Y0122835D01*
X0388342Y0123434D02*
X0371343Y0123434D01*
X0371343Y0124032D02*
X0388342Y0124032D01*
X0388342Y0124631D02*
X0371343Y0124631D01*
X0371343Y0125229D02*
X0388342Y0125229D01*
X0388342Y0125828D02*
X0371343Y0125828D01*
X0371343Y0126426D02*
X0388342Y0126426D01*
X0388342Y0127025D02*
X0371343Y0127025D01*
X0371343Y0127623D02*
X0388342Y0127623D01*
X0388342Y0128222D02*
X0371343Y0128222D01*
X0371343Y0128820D02*
X0388342Y0128820D01*
X0388342Y0129419D02*
X0371343Y0129419D01*
X0371343Y0130017D02*
X0388342Y0130017D01*
X0388342Y0130616D02*
X0371343Y0130616D01*
X0371343Y0131214D02*
X0388342Y0131214D01*
X0388342Y0131813D02*
X0371343Y0131813D01*
X0371343Y0132411D02*
X0388342Y0132411D01*
X0388342Y0133010D02*
X0371343Y0133010D01*
X0371343Y0133608D02*
X0388342Y0133608D01*
X0388342Y0134207D02*
X0371343Y0134207D01*
X0371343Y0134805D02*
X0388342Y0134805D01*
X0388342Y0135404D02*
X0371343Y0135404D01*
X0371343Y0136002D02*
X0388342Y0136002D01*
X0388342Y0136601D02*
X0371343Y0136601D01*
X0371343Y0137199D02*
X0388342Y0137199D01*
X0388342Y0137798D02*
X0371343Y0137798D01*
X0371343Y0138396D02*
X0388342Y0138396D01*
X0388342Y0138995D02*
X0371343Y0138995D01*
X0371343Y0139593D02*
X0388342Y0139593D01*
X0388342Y0140192D02*
X0371343Y0140192D01*
X0371343Y0140790D02*
X0388342Y0140790D01*
X0388342Y0141389D02*
X0371343Y0141389D01*
X0371343Y0141987D02*
X0388342Y0141987D01*
X0388342Y0142586D02*
X0371343Y0142586D01*
X0371343Y0143184D02*
X0388342Y0143184D01*
X0388342Y0143783D02*
X0371343Y0143783D01*
X0371343Y0144381D02*
X0388342Y0144381D01*
X0388342Y0144980D02*
X0371343Y0144980D01*
X0371343Y0145578D02*
X0388342Y0145578D01*
X0388342Y0146177D02*
X0371343Y0146177D01*
X0371343Y0146775D02*
X0388342Y0146775D01*
X0388342Y0147374D02*
X0371343Y0147374D01*
X0371343Y0147972D02*
X0388342Y0147972D01*
X0388342Y0148571D02*
X0371343Y0148571D01*
X0371343Y0149170D02*
X0388342Y0149170D01*
X0388342Y0149768D02*
X0371343Y0149768D01*
X0371343Y0150367D02*
X0388342Y0150367D01*
X0388342Y0150965D02*
X0371343Y0150965D01*
X0371343Y0151564D02*
X0388342Y0151564D01*
X0388342Y0152162D02*
X0371343Y0152162D01*
X0371343Y0152761D02*
X0388342Y0152761D01*
X0388342Y0153359D02*
X0371343Y0153359D01*
X0371343Y0153958D02*
X0388342Y0153958D01*
X0388342Y0154556D02*
X0371343Y0154556D01*
X0371343Y0155155D02*
X0388342Y0155155D01*
X0388342Y0155753D02*
X0371343Y0155753D01*
X0371343Y0156352D02*
X0388342Y0156352D01*
X0388342Y0156950D02*
X0371343Y0156950D01*
X0371343Y0157549D02*
X0388342Y0157549D01*
X0388342Y0158147D02*
X0371343Y0158147D01*
X0371343Y0158746D02*
X0388342Y0158746D01*
X0388342Y0159344D02*
X0371343Y0159344D01*
X0371343Y0159943D02*
X0388342Y0159943D01*
X0388342Y0160541D02*
X0371343Y0160541D01*
X0371343Y0161140D02*
X0388342Y0161140D01*
X0388342Y0161738D02*
X0371343Y0161738D01*
X0371343Y0162337D02*
X0388342Y0162337D01*
X0388342Y0162935D02*
X0371343Y0162935D01*
X0371343Y0163534D02*
X0388342Y0163534D01*
X0388342Y0164132D02*
X0371343Y0164132D01*
X0371343Y0164731D02*
X0388342Y0164731D01*
X0388342Y0165329D02*
X0371343Y0165329D01*
X0371343Y0165928D02*
X0388342Y0165928D01*
X0388342Y0166526D02*
X0371343Y0166526D01*
X0371343Y0167125D02*
X0388342Y0167125D01*
X0388342Y0167723D02*
X0371343Y0167723D01*
X0371343Y0168322D02*
X0388342Y0168322D01*
X0388342Y0168920D02*
X0371343Y0168920D01*
X0371343Y0169519D02*
X0388342Y0169519D01*
X0388342Y0170117D02*
X0371343Y0170117D01*
X0371343Y0170716D02*
X0388342Y0170716D01*
X0388342Y0171314D02*
X0371343Y0171314D01*
X0371343Y0171913D02*
X0388342Y0171913D01*
X0388342Y0172511D02*
X0371343Y0172511D01*
X0371343Y0173110D02*
X0388342Y0173110D01*
X0388342Y0173708D02*
X0371343Y0173708D01*
X0371343Y0174307D02*
X0388342Y0174307D01*
X0388342Y0174905D02*
X0371343Y0174905D01*
X0371343Y0175504D02*
X0388342Y0175504D01*
X0388342Y0176103D02*
X0371343Y0176103D01*
X0371343Y0176701D02*
X0388342Y0176701D01*
X0388342Y0177300D02*
X0371343Y0177300D01*
X0371343Y0177898D02*
X0388342Y0177898D01*
X0388342Y0178497D02*
X0371343Y0178497D01*
X0371343Y0179095D02*
X0388342Y0179095D01*
X0388342Y0179694D02*
X0371343Y0179694D01*
X0371343Y0180292D02*
X0388342Y0180292D01*
X0388342Y0180891D02*
X0371343Y0180891D01*
X0371343Y0181489D02*
X0388342Y0181489D01*
X0388342Y0182088D02*
X0371343Y0182088D01*
X0371343Y0182686D02*
X0388342Y0182686D01*
X0388342Y0183285D02*
X0371343Y0183285D01*
X0371343Y0183883D02*
X0388342Y0183883D01*
X0388342Y0184482D02*
X0371343Y0184482D01*
X0371343Y0185080D02*
X0388342Y0185080D01*
X0388342Y0185679D02*
X0371343Y0185679D01*
X0371343Y0186277D02*
X0388342Y0186277D01*
X0388342Y0186876D02*
X0371343Y0186876D01*
X0371343Y0187474D02*
X0388342Y0187474D01*
X0388342Y0188073D02*
X0371343Y0188073D01*
X0371343Y0188671D02*
X0388342Y0188671D01*
X0388342Y0189270D02*
X0371343Y0189270D01*
X0371343Y0189868D02*
X0388342Y0189868D01*
X0388342Y0190467D02*
X0371343Y0190467D01*
X0371343Y0191065D02*
X0388342Y0191065D01*
X0388342Y0191664D02*
X0371343Y0191664D01*
X0371343Y0192262D02*
X0388342Y0192262D01*
X0388342Y0192861D02*
X0371343Y0192861D01*
X0371343Y0193459D02*
X0388342Y0193459D01*
X0388342Y0194058D02*
X0371343Y0194058D01*
X0371343Y0194656D02*
X0388342Y0194656D01*
X0388342Y0195255D02*
X0371343Y0195255D01*
X0371343Y0195853D02*
X0388342Y0195853D01*
X0388342Y0196452D02*
X0371343Y0196452D01*
X0371343Y0197050D02*
X0388342Y0197050D01*
X0388342Y0197649D02*
X0371343Y0197649D01*
X0371343Y0198247D02*
X0388342Y0198247D01*
X0388342Y0198846D02*
X0371343Y0198846D01*
X0371343Y0199444D02*
X0388342Y0199444D01*
X0388342Y0200043D02*
X0371343Y0200043D01*
X0371343Y0200641D02*
X0388342Y0200641D01*
X0388342Y0201240D02*
X0371343Y0201240D01*
X0371343Y0201839D02*
X0388342Y0201839D01*
X0388342Y0202437D02*
X0371343Y0202437D01*
X0371343Y0203036D02*
X0388342Y0203036D01*
X0388342Y0203634D02*
X0371343Y0203634D01*
X0371343Y0204233D02*
X0388342Y0204233D01*
X0388342Y0204831D02*
X0371343Y0204831D01*
X0371343Y0205430D02*
X0388342Y0205430D01*
X0388342Y0206028D02*
X0371343Y0206028D01*
X0371343Y0206627D02*
X0388342Y0206627D01*
X0388342Y0207225D02*
X0371343Y0207225D01*
X0371343Y0207824D02*
X0388342Y0207824D01*
X0388342Y0208422D02*
X0371343Y0208422D01*
X0371343Y0209021D02*
X0388342Y0209021D01*
X0388342Y0209619D02*
X0371343Y0209619D01*
X0371343Y0210218D02*
X0388342Y0210218D01*
X0388342Y0210816D02*
X0371343Y0210816D01*
X0371343Y0211415D02*
X0388342Y0211415D01*
X0388342Y0212013D02*
X0371343Y0212013D01*
X0371343Y0212612D02*
X0388342Y0212612D01*
X0388342Y0213210D02*
X0371343Y0213210D01*
X0371343Y0213809D02*
X0388342Y0213809D01*
X0388342Y0214407D02*
X0371343Y0214407D01*
X0371343Y0215006D02*
X0388342Y0215006D01*
X0388342Y0215604D02*
X0371343Y0215604D01*
X0371343Y0216203D02*
X0388342Y0216203D01*
X0388342Y0216801D02*
X0371343Y0216801D01*
X0371343Y0217400D02*
X0388342Y0217400D01*
X0388342Y0217998D02*
X0371343Y0217998D01*
X0371343Y0218597D02*
X0388342Y0218597D01*
X0388342Y0219195D02*
X0371343Y0219195D01*
X0371343Y0219794D02*
X0388342Y0219794D01*
X0388342Y0220392D02*
X0371343Y0220392D01*
X0371343Y0220991D02*
X0388342Y0220991D01*
X0388342Y0221589D02*
X0371343Y0221589D01*
X0371343Y0222188D02*
X0388342Y0222188D01*
X0388342Y0222786D02*
X0371343Y0222786D01*
X0371343Y0223385D02*
X0388342Y0223385D01*
X0388342Y0223983D02*
X0371343Y0223983D01*
X0371343Y0224582D02*
X0388342Y0224582D01*
X0388342Y0225180D02*
X0371343Y0225180D01*
X0371343Y0225779D02*
X0388342Y0225779D01*
X0388342Y0226377D02*
X0371343Y0226377D01*
X0371343Y0226976D02*
X0388342Y0226976D01*
X0388342Y0227574D02*
X0371343Y0227574D01*
X0371343Y0228173D02*
X0388342Y0228173D01*
X0388342Y0228772D02*
X0371343Y0228772D01*
X0371343Y0229370D02*
X0388342Y0229370D01*
X0388342Y0229969D02*
X0371343Y0229969D01*
X0371343Y0230567D02*
X0388342Y0230567D01*
X0388342Y0231166D02*
X0371343Y0231166D01*
X0371343Y0231764D02*
X0388342Y0231764D01*
X0388342Y0232363D02*
X0371343Y0232363D01*
X0371343Y0232961D02*
X0388342Y0232961D01*
X0388342Y0233560D02*
X0371343Y0233560D01*
X0371343Y0234158D02*
X0388342Y0234158D01*
X0388342Y0234757D02*
X0371343Y0234757D01*
X0371343Y0235355D02*
X0388342Y0235355D01*
X0388342Y0235954D02*
X0371343Y0235954D01*
X0371343Y0236552D02*
X0388342Y0236552D01*
X0388342Y0237151D02*
X0371343Y0237151D01*
X0371343Y0237749D02*
X0388342Y0237749D01*
X0388342Y0238348D02*
X0371343Y0238348D01*
X0371343Y0238946D02*
X0388342Y0238946D01*
X0388342Y0239545D02*
X0371343Y0239545D01*
X0371343Y0240143D02*
X0388342Y0240143D01*
X0388342Y0240742D02*
X0371343Y0240742D01*
X0371343Y0241340D02*
X0388342Y0241340D01*
X0388342Y0241939D02*
X0371343Y0241939D01*
X0371343Y0242537D02*
X0388342Y0242537D01*
X0388342Y0243136D02*
X0371343Y0243136D01*
X0371343Y0243734D02*
X0388342Y0243734D01*
X0388342Y0244333D02*
X0371343Y0244333D01*
X0371343Y0244931D02*
X0388342Y0244931D01*
X0388342Y0245530D02*
X0371343Y0245530D01*
X0371343Y0246128D02*
X0388342Y0246128D01*
X0388342Y0246727D02*
X0371343Y0246727D01*
X0371343Y0247325D02*
X0388342Y0247325D01*
X0388342Y0247924D02*
X0371343Y0247924D01*
X0371343Y0248522D02*
X0388342Y0248522D01*
X0388342Y0249121D02*
X0371343Y0249121D01*
X0371343Y0249719D02*
X0388342Y0249719D01*
X0388342Y0250318D02*
X0371343Y0250318D01*
X0371343Y0250916D02*
X0388342Y0250916D01*
X0388342Y0251515D02*
X0371343Y0251515D01*
X0371343Y0252113D02*
X0388342Y0252113D01*
X0388342Y0252712D02*
X0371343Y0252712D01*
X0371343Y0253310D02*
X0388342Y0253310D01*
X0388342Y0253909D02*
X0371343Y0253909D01*
X0371343Y0254508D02*
X0388342Y0254508D01*
X0388342Y0255106D02*
X0371343Y0255106D01*
X0371343Y0255705D02*
X0388342Y0255705D01*
X0388342Y0256303D02*
X0371343Y0256303D01*
X0371343Y0256902D02*
X0388342Y0256902D01*
X0388342Y0257500D02*
X0371343Y0257500D01*
X0371343Y0258099D02*
X0388342Y0258099D01*
X0388342Y0258697D02*
X0371343Y0258697D01*
X0371343Y0259296D02*
X0388342Y0259296D01*
X0388342Y0259894D02*
X0371343Y0259894D01*
X0371343Y0260493D02*
X0388342Y0260493D01*
X0388342Y0261091D02*
X0371343Y0261091D01*
X0371343Y0261690D02*
X0388342Y0261690D01*
X0388342Y0262288D02*
X0371343Y0262288D01*
X0371343Y0262887D02*
X0388342Y0262887D01*
X0388342Y0263485D02*
X0371343Y0263485D01*
X0371343Y0264084D02*
X0388342Y0264084D01*
X0388342Y0264682D02*
X0371343Y0264682D01*
X0371343Y0265281D02*
X0388342Y0265281D01*
X0388342Y0265879D02*
X0371343Y0265879D01*
X0371343Y0266478D02*
X0388342Y0266478D01*
X0388342Y0267076D02*
X0371343Y0267076D01*
X0371111Y0267675D02*
X0388342Y0267675D01*
X0388342Y0268273D02*
X0370863Y0268273D01*
X0370513Y0268872D02*
X0388342Y0268872D01*
X0388342Y0269470D02*
X0369914Y0269470D01*
X0369085Y0270069D02*
X0388342Y0270069D01*
X0388342Y0270667D02*
X0038239Y0270667D01*
X0038229Y0270069D02*
X0046299Y0270069D01*
X0045470Y0269470D02*
X0038218Y0269470D01*
X0038207Y0268872D02*
X0044872Y0268872D01*
X0044521Y0268273D02*
X0038196Y0268273D01*
X0038185Y0267675D02*
X0044273Y0267675D01*
X0044042Y0267076D02*
X0038174Y0267076D01*
X0038163Y0266478D02*
X0044042Y0266478D01*
X0044042Y0265879D02*
X0038152Y0265879D01*
X0038141Y0265281D02*
X0044042Y0265281D01*
X0044042Y0264682D02*
X0038131Y0264682D01*
X0038120Y0264084D02*
X0044042Y0264084D01*
X0044042Y0263485D02*
X0038109Y0263485D01*
X0038098Y0262887D02*
X0044042Y0262887D01*
X0044042Y0262288D02*
X0038087Y0262288D01*
X0038076Y0261690D02*
X0044042Y0261690D01*
X0044042Y0261091D02*
X0038065Y0261091D01*
X0038054Y0260493D02*
X0044042Y0260493D01*
X0044042Y0259894D02*
X0038044Y0259894D01*
X0038033Y0259296D02*
X0044042Y0259296D01*
X0044042Y0258697D02*
X0038022Y0258697D01*
X0038011Y0258099D02*
X0044042Y0258099D01*
X0044042Y0257500D02*
X0038000Y0257500D01*
X0037989Y0256902D02*
X0044042Y0256902D01*
X0044042Y0256303D02*
X0037978Y0256303D01*
X0037967Y0255705D02*
X0044042Y0255705D01*
X0044042Y0255106D02*
X0037956Y0255106D01*
X0037946Y0254508D02*
X0044042Y0254508D01*
X0044042Y0253909D02*
X0037935Y0253909D01*
X0037924Y0253310D02*
X0044042Y0253310D01*
X0044042Y0252712D02*
X0037913Y0252712D01*
X0037902Y0252113D02*
X0044042Y0252113D01*
X0044042Y0251515D02*
X0037891Y0251515D01*
X0037880Y0250916D02*
X0044042Y0250916D01*
X0044042Y0250318D02*
X0037869Y0250318D01*
X0037859Y0249719D02*
X0044042Y0249719D01*
X0044042Y0249121D02*
X0037848Y0249121D01*
X0037837Y0248522D02*
X0044042Y0248522D01*
X0044042Y0247924D02*
X0037826Y0247924D01*
X0037815Y0247325D02*
X0044042Y0247325D01*
X0044042Y0246727D02*
X0037804Y0246727D01*
X0037793Y0246128D02*
X0044042Y0246128D01*
X0044042Y0245530D02*
X0037782Y0245530D01*
X0037771Y0244931D02*
X0044042Y0244931D01*
X0044042Y0244333D02*
X0037761Y0244333D01*
X0037750Y0243734D02*
X0044042Y0243734D01*
X0044042Y0243136D02*
X0037739Y0243136D01*
X0037728Y0242537D02*
X0044042Y0242537D01*
X0044042Y0241939D02*
X0037717Y0241939D01*
X0037706Y0241340D02*
X0044042Y0241340D01*
X0044042Y0240742D02*
X0037695Y0240742D01*
X0037684Y0240143D02*
X0044042Y0240143D01*
X0044042Y0239545D02*
X0037674Y0239545D01*
X0037663Y0238946D02*
X0044042Y0238946D01*
X0044042Y0238348D02*
X0037652Y0238348D01*
X0037641Y0237749D02*
X0044042Y0237749D01*
X0044042Y0237151D02*
X0037630Y0237151D01*
X0037619Y0236552D02*
X0044042Y0236552D01*
X0044042Y0235954D02*
X0037608Y0235954D01*
X0037597Y0235355D02*
X0044042Y0235355D01*
X0044042Y0234757D02*
X0037586Y0234757D01*
X0037576Y0234158D02*
X0044042Y0234158D01*
X0044042Y0233560D02*
X0037565Y0233560D01*
X0037554Y0232961D02*
X0044042Y0232961D01*
X0044042Y0232363D02*
X0037543Y0232363D01*
X0037532Y0231764D02*
X0044042Y0231764D01*
X0044042Y0231166D02*
X0037521Y0231166D01*
X0037510Y0230567D02*
X0044042Y0230567D01*
X0044042Y0229969D02*
X0037499Y0229969D01*
X0037489Y0229370D02*
X0044042Y0229370D01*
X0044042Y0228772D02*
X0037478Y0228772D01*
X0037467Y0228173D02*
X0044042Y0228173D01*
X0044042Y0227574D02*
X0037456Y0227574D01*
X0037445Y0226976D02*
X0044042Y0226976D01*
X0044042Y0226377D02*
X0037434Y0226377D01*
X0037423Y0225779D02*
X0044042Y0225779D01*
X0044042Y0225180D02*
X0037412Y0225180D01*
X0037401Y0224582D02*
X0044042Y0224582D01*
X0044042Y0223983D02*
X0037391Y0223983D01*
X0037380Y0223385D02*
X0044042Y0223385D01*
X0044042Y0222786D02*
X0037369Y0222786D01*
X0037358Y0222188D02*
X0044042Y0222188D01*
X0044042Y0221589D02*
X0037347Y0221589D01*
X0037336Y0220991D02*
X0044042Y0220991D01*
X0044042Y0220392D02*
X0037325Y0220392D01*
X0037314Y0219794D02*
X0044042Y0219794D01*
X0044042Y0219195D02*
X0037304Y0219195D01*
X0037293Y0218597D02*
X0044042Y0218597D01*
X0044042Y0217998D02*
X0037282Y0217998D01*
X0037271Y0217400D02*
X0044042Y0217400D01*
X0044042Y0216801D02*
X0037260Y0216801D01*
X0037249Y0216203D02*
X0044042Y0216203D01*
X0044042Y0215604D02*
X0037238Y0215604D01*
X0037227Y0215006D02*
X0044042Y0215006D01*
X0044042Y0214407D02*
X0037216Y0214407D01*
X0037206Y0213809D02*
X0044042Y0213809D01*
X0044042Y0213210D02*
X0037195Y0213210D01*
X0037184Y0212612D02*
X0044042Y0212612D01*
X0044042Y0212013D02*
X0037173Y0212013D01*
X0037162Y0211415D02*
X0044042Y0211415D01*
X0044042Y0210816D02*
X0037151Y0210816D01*
X0037140Y0210218D02*
X0044042Y0210218D01*
X0044042Y0209619D02*
X0037129Y0209619D01*
X0037119Y0209021D02*
X0044042Y0209021D01*
X0044042Y0208422D02*
X0037108Y0208422D01*
X0037097Y0207824D02*
X0044042Y0207824D01*
X0044042Y0207225D02*
X0037086Y0207225D01*
X0037075Y0206627D02*
X0044042Y0206627D01*
X0044042Y0206028D02*
X0037064Y0206028D01*
X0037053Y0205430D02*
X0044042Y0205430D01*
X0044042Y0204831D02*
X0037042Y0204831D01*
X0037031Y0204233D02*
X0044042Y0204233D01*
X0044042Y0203634D02*
X0037021Y0203634D01*
X0037010Y0203036D02*
X0044042Y0203036D01*
X0044042Y0202437D02*
X0036999Y0202437D01*
X0036988Y0201839D02*
X0044042Y0201839D01*
X0044042Y0201240D02*
X0036977Y0201240D01*
X0036966Y0200641D02*
X0044042Y0200641D01*
X0044042Y0200043D02*
X0036955Y0200043D01*
X0036944Y0199444D02*
X0044042Y0199444D01*
X0044042Y0198846D02*
X0036934Y0198846D01*
X0036923Y0198247D02*
X0044042Y0198247D01*
X0044042Y0197649D02*
X0036912Y0197649D01*
X0036901Y0197050D02*
X0044042Y0197050D01*
X0044042Y0196452D02*
X0036890Y0196452D01*
X0036879Y0195853D02*
X0044042Y0195853D01*
X0044042Y0195255D02*
X0036868Y0195255D01*
X0036857Y0194656D02*
X0044042Y0194656D01*
X0044042Y0194058D02*
X0036846Y0194058D01*
X0036836Y0193459D02*
X0044042Y0193459D01*
X0044042Y0192861D02*
X0036825Y0192861D01*
X0036814Y0192262D02*
X0044042Y0192262D01*
X0044042Y0191664D02*
X0036803Y0191664D01*
X0036792Y0191065D02*
X0044042Y0191065D01*
X0044042Y0190467D02*
X0036781Y0190467D01*
X0036770Y0189868D02*
X0044042Y0189868D01*
X0044042Y0189270D02*
X0036759Y0189270D01*
X0036749Y0188671D02*
X0044042Y0188671D01*
X0044042Y0188073D02*
X0036738Y0188073D01*
X0036727Y0187474D02*
X0044042Y0187474D01*
X0044042Y0186876D02*
X0036716Y0186876D01*
X0036705Y0186277D02*
X0044042Y0186277D01*
X0044042Y0185679D02*
X0036694Y0185679D01*
X0036683Y0185080D02*
X0044042Y0185080D01*
X0044042Y0184482D02*
X0036672Y0184482D01*
X0036661Y0183883D02*
X0044042Y0183883D01*
X0044042Y0183285D02*
X0036651Y0183285D01*
X0036640Y0182686D02*
X0044042Y0182686D01*
X0044042Y0182088D02*
X0036629Y0182088D01*
X0036618Y0181489D02*
X0044042Y0181489D01*
X0044042Y0180891D02*
X0036607Y0180891D01*
X0036596Y0180292D02*
X0044042Y0180292D01*
X0044042Y0179694D02*
X0036585Y0179694D01*
X0036574Y0179095D02*
X0044042Y0179095D01*
X0044042Y0178497D02*
X0036564Y0178497D01*
X0036553Y0177898D02*
X0044042Y0177898D01*
X0044042Y0177300D02*
X0036542Y0177300D01*
X0036531Y0176701D02*
X0044042Y0176701D01*
X0044042Y0176103D02*
X0036520Y0176103D01*
X0036509Y0175504D02*
X0044042Y0175504D01*
X0044042Y0174905D02*
X0036498Y0174905D01*
X0036487Y0174307D02*
X0044042Y0174307D01*
X0044042Y0173708D02*
X0036477Y0173708D01*
X0036466Y0173110D02*
X0044042Y0173110D01*
X0044042Y0172511D02*
X0036455Y0172511D01*
X0036444Y0171913D02*
X0044042Y0171913D01*
X0044042Y0171314D02*
X0036433Y0171314D01*
X0036422Y0170716D02*
X0044042Y0170716D01*
X0044042Y0170117D02*
X0036411Y0170117D01*
X0036400Y0169519D02*
X0044042Y0169519D01*
X0044042Y0168920D02*
X0036389Y0168920D01*
X0036379Y0168322D02*
X0044042Y0168322D01*
X0044042Y0167723D02*
X0036368Y0167723D01*
X0036357Y0167125D02*
X0044042Y0167125D01*
X0044042Y0166526D02*
X0036346Y0166526D01*
X0036335Y0165928D02*
X0044042Y0165928D01*
X0044042Y0165329D02*
X0036324Y0165329D01*
X0036313Y0164731D02*
X0044042Y0164731D01*
X0044042Y0164132D02*
X0036302Y0164132D01*
X0036292Y0163534D02*
X0044042Y0163534D01*
X0044042Y0162935D02*
X0036281Y0162935D01*
X0036270Y0162337D02*
X0044042Y0162337D01*
X0044042Y0161738D02*
X0036259Y0161738D01*
X0036248Y0161140D02*
X0044042Y0161140D01*
X0044042Y0160541D02*
X0036237Y0160541D01*
X0036226Y0159943D02*
X0044042Y0159943D01*
X0044042Y0159344D02*
X0036215Y0159344D01*
X0036204Y0158746D02*
X0044042Y0158746D01*
X0044042Y0158147D02*
X0036194Y0158147D01*
X0036183Y0157549D02*
X0044042Y0157549D01*
X0044042Y0156950D02*
X0036172Y0156950D01*
X0036161Y0156352D02*
X0044042Y0156352D01*
X0044042Y0155753D02*
X0036150Y0155753D01*
X0036139Y0155155D02*
X0044042Y0155155D01*
X0044042Y0154556D02*
X0036128Y0154556D01*
X0036117Y0153958D02*
X0044042Y0153958D01*
X0044042Y0153359D02*
X0036107Y0153359D01*
X0036096Y0152761D02*
X0044042Y0152761D01*
X0044042Y0152162D02*
X0036085Y0152162D01*
X0036074Y0151564D02*
X0044042Y0151564D01*
X0044042Y0150965D02*
X0036063Y0150965D01*
X0036052Y0150367D02*
X0044042Y0150367D01*
X0044042Y0149768D02*
X0036041Y0149768D01*
X0036030Y0149170D02*
X0044042Y0149170D01*
X0044042Y0148571D02*
X0036019Y0148571D01*
X0036009Y0147972D02*
X0044042Y0147972D01*
X0044042Y0147374D02*
X0035998Y0147374D01*
X0035987Y0146775D02*
X0044042Y0146775D01*
X0044042Y0146177D02*
X0035976Y0146177D01*
X0035965Y0145578D02*
X0044042Y0145578D01*
X0044042Y0144980D02*
X0035954Y0144980D01*
X0035943Y0144381D02*
X0044042Y0144381D01*
X0044042Y0143783D02*
X0035932Y0143783D01*
X0035922Y0143184D02*
X0044042Y0143184D01*
X0044042Y0142586D02*
X0035911Y0142586D01*
X0035900Y0141987D02*
X0044042Y0141987D01*
X0044042Y0141389D02*
X0035889Y0141389D01*
X0035878Y0140790D02*
X0044042Y0140790D01*
X0044042Y0140192D02*
X0035867Y0140192D01*
X0035856Y0139593D02*
X0044042Y0139593D01*
X0044042Y0138995D02*
X0035845Y0138995D01*
X0035834Y0138396D02*
X0044042Y0138396D01*
X0044042Y0137798D02*
X0035824Y0137798D01*
X0035813Y0137199D02*
X0044042Y0137199D01*
X0044042Y0136601D02*
X0035802Y0136601D01*
X0035791Y0136002D02*
X0044042Y0136002D01*
X0044042Y0135404D02*
X0035780Y0135404D01*
X0035769Y0134805D02*
X0044042Y0134805D01*
X0044042Y0134207D02*
X0035758Y0134207D01*
X0035747Y0133608D02*
X0044042Y0133608D01*
X0044042Y0133010D02*
X0035737Y0133010D01*
X0035726Y0132411D02*
X0044042Y0132411D01*
X0044042Y0131813D02*
X0035715Y0131813D01*
X0035704Y0131214D02*
X0044042Y0131214D01*
X0044042Y0130616D02*
X0035693Y0130616D01*
X0035682Y0130017D02*
X0044042Y0130017D01*
X0044042Y0129419D02*
X0035671Y0129419D01*
X0035660Y0128820D02*
X0044042Y0128820D01*
X0044042Y0128222D02*
X0035649Y0128222D01*
X0035639Y0127623D02*
X0044042Y0127623D01*
X0044042Y0127025D02*
X0035628Y0127025D01*
X0035617Y0126426D02*
X0044042Y0126426D01*
X0044042Y0125828D02*
X0035606Y0125828D01*
X0035595Y0125229D02*
X0044042Y0125229D01*
X0044042Y0124631D02*
X0035584Y0124631D01*
X0035573Y0124032D02*
X0044042Y0124032D01*
X0044042Y0123434D02*
X0035562Y0123434D01*
X0035552Y0122835D02*
X0044042Y0122835D01*
X0044042Y0122237D02*
X0035541Y0122237D01*
X0035530Y0121638D02*
X0044042Y0121638D01*
X0044042Y0121039D02*
X0035519Y0121039D01*
X0035508Y0120441D02*
X0044042Y0120441D01*
X0044042Y0119842D02*
X0035497Y0119842D01*
X0035486Y0119244D02*
X0044042Y0119244D01*
X0044042Y0118645D02*
X0035475Y0118645D01*
X0035464Y0118047D02*
X0044042Y0118047D01*
X0044042Y0117448D02*
X0035454Y0117448D01*
X0035443Y0116850D02*
X0044042Y0116850D01*
X0044042Y0116251D02*
X0035432Y0116251D01*
X0035421Y0115653D02*
X0044042Y0115653D01*
X0044042Y0115054D02*
X0035410Y0115054D01*
X0035399Y0114456D02*
X0044042Y0114456D01*
X0044042Y0113857D02*
X0035388Y0113857D01*
X0035377Y0113259D02*
X0044042Y0113259D01*
X0044042Y0112660D02*
X0035367Y0112660D01*
X0035356Y0112062D02*
X0044042Y0112062D01*
X0044042Y0111463D02*
X0035345Y0111463D01*
X0035334Y0110865D02*
X0044042Y0110865D01*
X0044042Y0110266D02*
X0035323Y0110266D01*
X0035312Y0109668D02*
X0044042Y0109668D01*
X0044042Y0109069D02*
X0035301Y0109069D01*
X0035290Y0108471D02*
X0044042Y0108471D01*
X0044042Y0107872D02*
X0035279Y0107872D01*
X0035269Y0107274D02*
X0044042Y0107274D01*
X0044042Y0106675D02*
X0035258Y0106675D01*
X0035247Y0106077D02*
X0044042Y0106077D01*
X0044042Y0105478D02*
X0035236Y0105478D01*
X0035225Y0104880D02*
X0044042Y0104880D01*
X0044042Y0104281D02*
X0035214Y0104281D01*
X0035203Y0103683D02*
X0044042Y0103683D01*
X0044042Y0103084D02*
X0035192Y0103084D01*
X0035182Y0102486D02*
X0044042Y0102486D01*
X0044042Y0101887D02*
X0035171Y0101887D01*
X0035160Y0101289D02*
X0044042Y0101289D01*
X0044042Y0100690D02*
X0035149Y0100690D01*
X0035138Y0100092D02*
X0044042Y0100092D01*
X0044042Y0099493D02*
X0035127Y0099493D01*
X0035116Y0098895D02*
X0044042Y0098895D01*
X0044042Y0098296D02*
X0035105Y0098296D01*
X0035094Y0097698D02*
X0044042Y0097698D01*
X0044042Y0097099D02*
X0035084Y0097099D01*
X0035073Y0096501D02*
X0044042Y0096501D01*
X0044042Y0095902D02*
X0035062Y0095902D01*
X0035051Y0095303D02*
X0044042Y0095303D01*
X0044042Y0094705D02*
X0035040Y0094705D01*
X0035029Y0094106D02*
X0044042Y0094106D01*
X0044042Y0093508D02*
X0035018Y0093508D01*
X0035007Y0092909D02*
X0044042Y0092909D01*
X0044042Y0092311D02*
X0034997Y0092311D01*
X0034986Y0091712D02*
X0044042Y0091712D01*
X0044042Y0091114D02*
X0034975Y0091114D01*
X0034964Y0090515D02*
X0044042Y0090515D01*
X0044042Y0089917D02*
X0034953Y0089917D01*
X0034942Y0089318D02*
X0044042Y0089318D01*
X0044042Y0088720D02*
X0034931Y0088720D01*
X0034920Y0088121D02*
X0044042Y0088121D01*
X0044042Y0087523D02*
X0034909Y0087523D01*
X0034899Y0086924D02*
X0044042Y0086924D01*
X0044042Y0086326D02*
X0034888Y0086326D01*
X0034877Y0085727D02*
X0044042Y0085727D01*
X0044042Y0085129D02*
X0034866Y0085129D01*
X0034855Y0084530D02*
X0044042Y0084530D01*
X0044042Y0083932D02*
X0034844Y0083932D01*
X0034833Y0083333D02*
X0044042Y0083333D01*
X0044042Y0082735D02*
X0034822Y0082735D01*
X0034812Y0082136D02*
X0044042Y0082136D01*
X0044042Y0081538D02*
X0034801Y0081538D01*
X0034790Y0080939D02*
X0044042Y0080939D01*
X0044042Y0080341D02*
X0034779Y0080341D01*
X0034768Y0079742D02*
X0044042Y0079742D01*
X0044042Y0079144D02*
X0034757Y0079144D01*
X0034746Y0078545D02*
X0044042Y0078545D01*
X0044042Y0077947D02*
X0034735Y0077947D01*
X0034724Y0077348D02*
X0044042Y0077348D01*
X0044042Y0076750D02*
X0034714Y0076750D01*
X0034703Y0076151D02*
X0044042Y0076151D01*
X0044042Y0075553D02*
X0034692Y0075553D01*
X0034681Y0074954D02*
X0044042Y0074954D01*
X0044042Y0074356D02*
X0034670Y0074356D01*
X0034659Y0073757D02*
X0044042Y0073757D01*
X0044042Y0073159D02*
X0034648Y0073159D01*
X0034637Y0072560D02*
X0044042Y0072560D01*
X0044042Y0071962D02*
X0034627Y0071962D01*
X0034616Y0071363D02*
X0044042Y0071363D01*
X0044042Y0070765D02*
X0034605Y0070765D01*
X0034594Y0070166D02*
X0044042Y0070166D01*
X0044042Y0069568D02*
X0034583Y0069568D01*
X0034572Y0068969D02*
X0044042Y0068969D01*
X0044042Y0068370D02*
X0034561Y0068370D01*
X0034550Y0067772D02*
X0044042Y0067772D01*
X0044042Y0067173D02*
X0034540Y0067173D01*
X0034529Y0066575D02*
X0044042Y0066575D01*
X0044042Y0065976D02*
X0034518Y0065976D01*
X0034507Y0065378D02*
X0044042Y0065378D01*
X0044042Y0064779D02*
X0034496Y0064779D01*
X0034485Y0064181D02*
X0044042Y0064181D01*
X0044042Y0063582D02*
X0034474Y0063582D01*
X0034463Y0062984D02*
X0044042Y0062984D01*
X0044042Y0062385D02*
X0034452Y0062385D01*
X0034442Y0061787D02*
X0044042Y0061787D01*
X0044042Y0061188D02*
X0034431Y0061188D01*
X0034420Y0060590D02*
X0044042Y0060590D01*
X0044042Y0059991D02*
X0034409Y0059991D01*
X0034398Y0059393D02*
X0044042Y0059393D01*
X0044042Y0058794D02*
X0034387Y0058794D01*
X0034376Y0058196D02*
X0044042Y0058196D01*
X0044042Y0057597D02*
X0034365Y0057597D01*
X0034355Y0056999D02*
X0044042Y0056999D01*
X0044042Y0056400D02*
X0034344Y0056400D01*
X0034333Y0055802D02*
X0044042Y0055802D01*
X0044042Y0055203D02*
X0034322Y0055203D01*
X0034311Y0054605D02*
X0044042Y0054605D01*
X0044042Y0054006D02*
X0034300Y0054006D01*
X0034289Y0053408D02*
X0044042Y0053408D01*
X0044042Y0052809D02*
X0034278Y0052809D01*
X0034267Y0052211D02*
X0044042Y0052211D01*
X0044042Y0051612D02*
X0034257Y0051612D01*
X0034246Y0051014D02*
X0044042Y0051014D01*
X0044042Y0050415D02*
X0034235Y0050415D01*
X0034224Y0049817D02*
X0044042Y0049817D01*
X0044042Y0049218D02*
X0034213Y0049218D01*
X0034202Y0048620D02*
X0044042Y0048620D01*
X0044042Y0048021D02*
X0034191Y0048021D01*
X0034180Y0047423D02*
X0044042Y0047423D01*
X0044042Y0046824D02*
X0034170Y0046824D01*
X0034159Y0046226D02*
X0044042Y0046226D01*
X0044042Y0045627D02*
X0034148Y0045627D01*
X0034137Y0045029D02*
X0044042Y0045029D01*
X0044042Y0044430D02*
X0034126Y0044430D01*
X0034115Y0043832D02*
X0044042Y0043832D01*
X0044042Y0043233D02*
X0034104Y0043233D01*
X0034093Y0042634D02*
X0044042Y0042634D01*
X0044042Y0042036D02*
X0034082Y0042036D01*
X0034072Y0041437D02*
X0044042Y0041437D01*
X0044042Y0040839D02*
X0034061Y0040839D01*
X0034050Y0040240D02*
X0044126Y0040240D01*
X0044374Y0039642D02*
X0034039Y0039642D01*
X0034028Y0039043D02*
X0044622Y0039043D01*
X0045116Y0038445D02*
X0034017Y0038445D01*
X0034006Y0037846D02*
X0045714Y0037846D01*
X0046888Y0037248D02*
X0033995Y0037248D01*
X0052642Y0045600D02*
X0055722Y0045600D01*
X0054791Y0045986D01*
X0053028Y0047749D01*
X0052642Y0048681D01*
X0052642Y0045600D01*
X0052642Y0045627D02*
X0055657Y0045627D01*
X0054551Y0046226D02*
X0052642Y0046226D01*
X0052642Y0046824D02*
X0053953Y0046824D01*
X0053354Y0047423D02*
X0052642Y0047423D01*
X0052642Y0048021D02*
X0052915Y0048021D01*
X0052667Y0048620D02*
X0052642Y0048620D01*
X0052642Y0053919D02*
X0052642Y0253681D01*
X0053028Y0252749D01*
X0054791Y0250986D01*
X0057095Y0250031D01*
X0059589Y0250031D01*
X0061893Y0250986D01*
X0063656Y0252749D01*
X0064610Y0255053D01*
X0064610Y0257547D01*
X0063656Y0259851D01*
X0061893Y0261614D01*
X0061056Y0261961D01*
X0350627Y0261961D01*
X0349791Y0261614D01*
X0348028Y0259851D01*
X0347073Y0257547D01*
X0347073Y0255053D01*
X0348028Y0252749D01*
X0349791Y0250986D01*
X0352095Y0250031D01*
X0354589Y0250031D01*
X0356893Y0250986D01*
X0358656Y0252749D01*
X0359610Y0255053D01*
X0359610Y0257547D01*
X0358656Y0259851D01*
X0356893Y0261614D01*
X0356056Y0261961D01*
X0362743Y0261961D01*
X0362743Y0045600D01*
X0350961Y0045600D01*
X0351893Y0045986D01*
X0353656Y0047749D01*
X0354610Y0050053D01*
X0354610Y0052547D01*
X0353656Y0054851D01*
X0351893Y0056614D01*
X0349589Y0057568D01*
X0347095Y0057568D01*
X0344791Y0056614D01*
X0343028Y0054851D01*
X0342073Y0052547D01*
X0342073Y0050053D01*
X0343028Y0047749D01*
X0344791Y0045986D01*
X0345722Y0045600D01*
X0060961Y0045600D01*
X0061893Y0045986D01*
X0063656Y0047749D01*
X0064610Y0050053D01*
X0064610Y0052547D01*
X0063656Y0054851D01*
X0061893Y0056614D01*
X0059589Y0057568D01*
X0057095Y0057568D01*
X0054791Y0056614D01*
X0053028Y0054851D01*
X0052642Y0053919D01*
X0052642Y0054006D02*
X0052678Y0054006D01*
X0052642Y0054605D02*
X0052926Y0054605D01*
X0052642Y0055203D02*
X0053380Y0055203D01*
X0053979Y0055802D02*
X0052642Y0055802D01*
X0052642Y0056400D02*
X0054577Y0056400D01*
X0055719Y0056999D02*
X0052642Y0056999D01*
X0052642Y0057597D02*
X0362743Y0057597D01*
X0362743Y0056999D02*
X0350964Y0056999D01*
X0352107Y0056400D02*
X0362743Y0056400D01*
X0362743Y0055802D02*
X0352705Y0055802D01*
X0353304Y0055203D02*
X0362743Y0055203D01*
X0362743Y0054605D02*
X0353758Y0054605D01*
X0354006Y0054006D02*
X0362743Y0054006D01*
X0362743Y0053408D02*
X0354254Y0053408D01*
X0354502Y0052809D02*
X0362743Y0052809D01*
X0362743Y0052211D02*
X0354610Y0052211D01*
X0354610Y0051612D02*
X0362743Y0051612D01*
X0362743Y0051014D02*
X0354610Y0051014D01*
X0354610Y0050415D02*
X0362743Y0050415D01*
X0362743Y0049817D02*
X0354512Y0049817D01*
X0354264Y0049218D02*
X0362743Y0049218D01*
X0362743Y0048620D02*
X0354017Y0048620D01*
X0353769Y0048021D02*
X0362743Y0048021D01*
X0362743Y0047423D02*
X0353329Y0047423D01*
X0352731Y0046824D02*
X0362743Y0046824D01*
X0362743Y0046226D02*
X0352132Y0046226D01*
X0351026Y0045627D02*
X0362743Y0045627D01*
X0362743Y0058196D02*
X0052642Y0058196D01*
X0052642Y0058794D02*
X0362743Y0058794D01*
X0362743Y0059393D02*
X0295932Y0059393D01*
X0296142Y0059603D02*
X0295439Y0058900D01*
X0248845Y0058900D01*
X0246168Y0061577D01*
X0245324Y0060733D01*
X0244038Y0060200D01*
X0242646Y0060200D01*
X0241359Y0060733D01*
X0240375Y0061717D01*
X0239842Y0063004D01*
X0239842Y0065500D01*
X0212210Y0065500D01*
X0212210Y0062562D01*
X0211621Y0061140D01*
X0210533Y0060052D01*
X0209111Y0059463D01*
X0207572Y0059463D01*
X0206150Y0060052D01*
X0205062Y0061140D01*
X0204473Y0062562D01*
X0204473Y0068471D01*
X0201718Y0071227D01*
X0202210Y0070038D01*
X0202210Y0062562D01*
X0201621Y0061140D01*
X0200533Y0060052D01*
X0199111Y0059463D01*
X0197572Y0059463D01*
X0196150Y0060052D01*
X0195062Y0061140D01*
X0194473Y0062562D01*
X0194473Y0070038D01*
X0195062Y0071460D01*
X0196150Y0072548D01*
X0197032Y0072913D01*
X0170845Y0099100D01*
X0158092Y0099100D01*
X0158909Y0098283D01*
X0159442Y0096996D01*
X0159442Y0095604D01*
X0158909Y0094317D01*
X0157924Y0093333D01*
X0156638Y0092800D01*
X0150046Y0092800D01*
X0148759Y0093333D01*
X0147775Y0094317D01*
X0147242Y0095604D01*
X0147242Y0096996D01*
X0147775Y0098283D01*
X0148759Y0099267D01*
X0150046Y0099800D01*
X0150345Y0099800D01*
X0150342Y0099803D01*
X0144342Y0105803D01*
X0144342Y0141203D01*
X0129442Y0156103D01*
X0129442Y0155604D01*
X0128909Y0154317D01*
X0127924Y0153333D01*
X0126638Y0152800D01*
X0120046Y0152800D01*
X0118759Y0153333D01*
X0117775Y0154317D01*
X0117242Y0155604D01*
X0117242Y0156996D01*
X0117775Y0158283D01*
X0118759Y0159267D01*
X0120046Y0159800D01*
X0125745Y0159800D01*
X0107142Y0178403D01*
X0107142Y0192800D01*
X0106892Y0192800D01*
X0104842Y0194850D01*
X0104842Y0195100D01*
X0089039Y0195100D01*
X0088510Y0194571D01*
X0089590Y0193491D01*
X0090179Y0192069D01*
X0090179Y0190530D01*
X0089590Y0189109D01*
X0088502Y0188020D01*
X0087080Y0187431D01*
X0079604Y0187431D01*
X0078182Y0188020D01*
X0077094Y0189109D01*
X0076505Y0190530D01*
X0076505Y0192069D01*
X0077094Y0193491D01*
X0078182Y0194580D01*
X0079604Y0195168D01*
X0085713Y0195168D01*
X0088045Y0197500D01*
X0104842Y0197500D01*
X0104842Y0197750D01*
X0106892Y0199800D01*
X0109792Y0199800D01*
X0111842Y0197750D01*
X0111842Y0194850D01*
X0109792Y0192800D01*
X0109542Y0192800D01*
X0109542Y0179397D01*
X0145542Y0143397D01*
X0145542Y0167603D01*
X0086842Y0226303D01*
X0086842Y0224850D01*
X0084792Y0222800D01*
X0081892Y0222800D01*
X0079842Y0224850D01*
X0079842Y0227750D01*
X0081892Y0229800D01*
X0083345Y0229800D01*
X0077142Y0236003D01*
X0077142Y0247800D01*
X0076892Y0247800D01*
X0074842Y0249850D01*
X0074842Y0252750D01*
X0076892Y0254800D01*
X0079792Y0254800D01*
X0081842Y0252750D01*
X0081842Y0249850D01*
X0079792Y0247800D01*
X0079542Y0247800D01*
X0079542Y0236997D01*
X0147239Y0169300D01*
X0147942Y0168597D01*
X0147942Y0158450D01*
X0148759Y0159267D01*
X0150046Y0159800D01*
X0155745Y0159800D01*
X0153342Y0162203D01*
X0153342Y0182397D01*
X0154045Y0183100D01*
X0162145Y0191200D01*
X0160168Y0193177D01*
X0159792Y0192800D01*
X0156892Y0192800D01*
X0154842Y0194850D01*
X0154842Y0197750D01*
X0156892Y0199800D01*
X0159792Y0199800D01*
X0161842Y0197750D01*
X0161842Y0194897D01*
X0163842Y0192897D01*
X0167142Y0196197D01*
X0167142Y0239641D01*
X0166150Y0240052D01*
X0165062Y0241140D01*
X0164473Y0242562D01*
X0164473Y0250038D01*
X0165062Y0251460D01*
X0166150Y0252548D01*
X0167572Y0253137D01*
X0169111Y0253137D01*
X0170533Y0252548D01*
X0171621Y0251460D01*
X0172210Y0250038D01*
X0172210Y0242562D01*
X0171621Y0241140D01*
X0170533Y0240052D01*
X0169542Y0239641D01*
X0169542Y0196797D01*
X0186942Y0214197D01*
X0186942Y0239724D01*
X0186150Y0240052D01*
X0185062Y0241140D01*
X0184473Y0242562D01*
X0184473Y0250038D01*
X0185062Y0251460D01*
X0186150Y0252548D01*
X0187572Y0253137D01*
X0189111Y0253137D01*
X0190533Y0252548D01*
X0191621Y0251460D01*
X0192210Y0250038D01*
X0192210Y0242562D01*
X0191621Y0241140D01*
X0190533Y0240052D01*
X0189342Y0239558D01*
X0189342Y0236500D01*
X0294839Y0236500D01*
X0295542Y0235797D01*
X0318342Y0212997D01*
X0318342Y0209397D01*
X0336505Y0191234D01*
X0336505Y0192069D01*
X0337094Y0193491D01*
X0338182Y0194580D01*
X0339604Y0195168D01*
X0347080Y0195168D01*
X0348502Y0194580D01*
X0349590Y0193491D01*
X0350179Y0192069D01*
X0350179Y0190530D01*
X0349590Y0189109D01*
X0348502Y0188020D01*
X0348231Y0187908D01*
X0351942Y0184197D01*
X0351942Y0179603D01*
X0351239Y0178900D01*
X0348239Y0175900D01*
X0341039Y0175900D01*
X0340307Y0175168D01*
X0347080Y0175168D01*
X0348502Y0174580D01*
X0349590Y0173491D01*
X0350179Y0172069D01*
X0350179Y0170530D01*
X0349590Y0169109D01*
X0348502Y0168020D01*
X0347080Y0167431D01*
X0339604Y0167431D01*
X0338182Y0168020D01*
X0337094Y0169109D01*
X0336505Y0170530D01*
X0336505Y0171366D01*
X0326639Y0161500D01*
X0344142Y0143997D01*
X0344142Y0129943D01*
X0345422Y0129413D01*
X0346454Y0128380D01*
X0347013Y0127030D01*
X0347013Y0125570D01*
X0346454Y0124220D01*
X0345422Y0123187D01*
X0344142Y0122657D01*
X0344142Y0113003D01*
X0303539Y0072400D01*
X0304038Y0072400D01*
X0305324Y0071867D01*
X0306309Y0070883D01*
X0306842Y0069596D01*
X0306842Y0063004D01*
X0306309Y0061717D01*
X0305324Y0060733D01*
X0304038Y0060200D01*
X0302646Y0060200D01*
X0301359Y0060733D01*
X0300375Y0061717D01*
X0299842Y0063004D01*
X0299842Y0068703D01*
X0298542Y0067403D01*
X0298542Y0062003D01*
X0296142Y0059603D01*
X0296530Y0059991D02*
X0362743Y0059991D01*
X0362743Y0060590D02*
X0324979Y0060590D01*
X0325324Y0060733D02*
X0326309Y0061717D01*
X0326842Y0063004D01*
X0326842Y0069596D01*
X0326309Y0070883D01*
X0325324Y0071867D01*
X0324038Y0072400D01*
X0322646Y0072400D01*
X0321359Y0071867D01*
X0320375Y0070883D01*
X0319842Y0069596D01*
X0319842Y0063004D01*
X0320375Y0061717D01*
X0321359Y0060733D01*
X0322646Y0060200D01*
X0324038Y0060200D01*
X0325324Y0060733D01*
X0325780Y0061188D02*
X0362743Y0061188D01*
X0362743Y0061787D02*
X0326338Y0061787D01*
X0326586Y0062385D02*
X0362743Y0062385D01*
X0362743Y0062984D02*
X0326834Y0062984D01*
X0326842Y0063582D02*
X0362743Y0063582D01*
X0362743Y0064181D02*
X0326842Y0064181D01*
X0326842Y0064779D02*
X0362743Y0064779D01*
X0362743Y0065378D02*
X0326842Y0065378D01*
X0326842Y0065976D02*
X0362743Y0065976D01*
X0362743Y0066575D02*
X0326842Y0066575D01*
X0326842Y0067173D02*
X0362743Y0067173D01*
X0362743Y0067772D02*
X0326842Y0067772D01*
X0326842Y0068370D02*
X0362743Y0068370D01*
X0362743Y0068969D02*
X0326842Y0068969D01*
X0326842Y0069568D02*
X0362743Y0069568D01*
X0362743Y0070166D02*
X0326606Y0070166D01*
X0326358Y0070765D02*
X0362743Y0070765D01*
X0362743Y0071363D02*
X0325828Y0071363D01*
X0325096Y0071962D02*
X0362743Y0071962D01*
X0362743Y0072560D02*
X0303699Y0072560D01*
X0304297Y0073159D02*
X0362743Y0073159D01*
X0362743Y0073757D02*
X0304896Y0073757D01*
X0305494Y0074356D02*
X0362743Y0074356D01*
X0362743Y0074954D02*
X0306093Y0074954D01*
X0306691Y0075553D02*
X0362743Y0075553D01*
X0362743Y0076151D02*
X0307290Y0076151D01*
X0307888Y0076750D02*
X0362743Y0076750D01*
X0362743Y0077348D02*
X0308487Y0077348D01*
X0309086Y0077947D02*
X0362743Y0077947D01*
X0362743Y0078545D02*
X0309684Y0078545D01*
X0310283Y0079144D02*
X0362743Y0079144D01*
X0362743Y0079742D02*
X0310881Y0079742D01*
X0311480Y0080341D02*
X0362743Y0080341D01*
X0362743Y0080939D02*
X0312078Y0080939D01*
X0312677Y0081538D02*
X0362743Y0081538D01*
X0362743Y0082136D02*
X0313275Y0082136D01*
X0313874Y0082735D02*
X0362743Y0082735D01*
X0362743Y0083333D02*
X0314472Y0083333D01*
X0315071Y0083932D02*
X0362743Y0083932D01*
X0362743Y0084530D02*
X0315669Y0084530D01*
X0316268Y0085129D02*
X0362743Y0085129D01*
X0362743Y0085727D02*
X0316866Y0085727D01*
X0317465Y0086326D02*
X0362743Y0086326D01*
X0362743Y0086924D02*
X0318063Y0086924D01*
X0318662Y0087523D02*
X0362743Y0087523D01*
X0362743Y0088121D02*
X0319260Y0088121D01*
X0319859Y0088720D02*
X0362743Y0088720D01*
X0362743Y0089318D02*
X0320457Y0089318D01*
X0321056Y0089917D02*
X0362743Y0089917D01*
X0362743Y0090515D02*
X0321654Y0090515D01*
X0322253Y0091114D02*
X0362743Y0091114D01*
X0362743Y0091712D02*
X0322851Y0091712D01*
X0323450Y0092311D02*
X0362743Y0092311D01*
X0362743Y0092909D02*
X0324048Y0092909D01*
X0324647Y0093508D02*
X0362743Y0093508D01*
X0362743Y0094106D02*
X0325245Y0094106D01*
X0325844Y0094705D02*
X0362743Y0094705D01*
X0362743Y0095303D02*
X0326442Y0095303D01*
X0327041Y0095902D02*
X0362743Y0095902D01*
X0362743Y0096501D02*
X0327639Y0096501D01*
X0328238Y0097099D02*
X0362743Y0097099D01*
X0362743Y0097698D02*
X0328836Y0097698D01*
X0329435Y0098296D02*
X0362743Y0098296D01*
X0362743Y0098895D02*
X0330033Y0098895D01*
X0330632Y0099493D02*
X0362743Y0099493D01*
X0362743Y0100092D02*
X0331230Y0100092D01*
X0331829Y0100690D02*
X0362743Y0100690D01*
X0362743Y0101289D02*
X0332427Y0101289D01*
X0333026Y0101887D02*
X0362743Y0101887D01*
X0362743Y0102486D02*
X0333624Y0102486D01*
X0334223Y0103084D02*
X0362743Y0103084D01*
X0362743Y0103683D02*
X0334821Y0103683D01*
X0335420Y0104281D02*
X0362743Y0104281D01*
X0362743Y0104880D02*
X0336019Y0104880D01*
X0336617Y0105478D02*
X0362743Y0105478D01*
X0362743Y0106077D02*
X0337216Y0106077D01*
X0337814Y0106675D02*
X0362743Y0106675D01*
X0362743Y0107274D02*
X0338413Y0107274D01*
X0339011Y0107872D02*
X0362743Y0107872D01*
X0362743Y0108471D02*
X0339610Y0108471D01*
X0340208Y0109069D02*
X0362743Y0109069D01*
X0362743Y0109668D02*
X0340807Y0109668D01*
X0341405Y0110266D02*
X0362743Y0110266D01*
X0362743Y0110865D02*
X0342004Y0110865D01*
X0342602Y0111463D02*
X0362743Y0111463D01*
X0362743Y0112062D02*
X0343201Y0112062D01*
X0343799Y0112660D02*
X0362743Y0112660D01*
X0362743Y0113259D02*
X0344142Y0113259D01*
X0344142Y0113857D02*
X0362743Y0113857D01*
X0362743Y0114456D02*
X0344142Y0114456D01*
X0344142Y0115054D02*
X0362743Y0115054D01*
X0362743Y0115653D02*
X0344142Y0115653D01*
X0344142Y0116251D02*
X0362743Y0116251D01*
X0362743Y0116850D02*
X0344142Y0116850D01*
X0344142Y0117448D02*
X0362743Y0117448D01*
X0362743Y0118047D02*
X0344142Y0118047D01*
X0344142Y0118645D02*
X0362743Y0118645D01*
X0362743Y0119244D02*
X0344142Y0119244D01*
X0344142Y0119842D02*
X0362743Y0119842D01*
X0362743Y0120441D02*
X0344142Y0120441D01*
X0344142Y0121039D02*
X0362743Y0121039D01*
X0362743Y0121638D02*
X0344142Y0121638D01*
X0344142Y0122237D02*
X0362743Y0122237D01*
X0362743Y0122835D02*
X0344571Y0122835D01*
X0345668Y0123434D02*
X0362743Y0123434D01*
X0362743Y0124032D02*
X0346266Y0124032D01*
X0346624Y0124631D02*
X0362743Y0124631D01*
X0362743Y0125229D02*
X0346872Y0125229D01*
X0347013Y0125828D02*
X0362743Y0125828D01*
X0362743Y0126426D02*
X0347013Y0126426D01*
X0347013Y0127025D02*
X0362743Y0127025D01*
X0362743Y0127623D02*
X0346768Y0127623D01*
X0346520Y0128222D02*
X0362743Y0128222D01*
X0362743Y0128820D02*
X0346014Y0128820D01*
X0345407Y0129419D02*
X0362743Y0129419D01*
X0362743Y0130017D02*
X0344142Y0130017D01*
X0344142Y0130616D02*
X0362743Y0130616D01*
X0362743Y0131214D02*
X0344142Y0131214D01*
X0344142Y0131813D02*
X0362743Y0131813D01*
X0362743Y0132411D02*
X0344142Y0132411D01*
X0344142Y0133010D02*
X0362743Y0133010D01*
X0362743Y0133608D02*
X0344142Y0133608D01*
X0344142Y0134207D02*
X0362743Y0134207D01*
X0362743Y0134805D02*
X0344142Y0134805D01*
X0344142Y0135404D02*
X0362743Y0135404D01*
X0362743Y0136002D02*
X0344142Y0136002D01*
X0344142Y0136601D02*
X0362743Y0136601D01*
X0362743Y0137199D02*
X0344142Y0137199D01*
X0344142Y0137798D02*
X0362743Y0137798D01*
X0362743Y0138396D02*
X0344142Y0138396D01*
X0344142Y0138995D02*
X0362743Y0138995D01*
X0362743Y0139593D02*
X0344142Y0139593D01*
X0344142Y0140192D02*
X0362743Y0140192D01*
X0362743Y0140790D02*
X0344142Y0140790D01*
X0344142Y0141389D02*
X0362743Y0141389D01*
X0362743Y0141987D02*
X0344142Y0141987D01*
X0344142Y0142586D02*
X0362743Y0142586D01*
X0362743Y0143184D02*
X0344142Y0143184D01*
X0344142Y0143783D02*
X0362743Y0143783D01*
X0362743Y0144381D02*
X0343757Y0144381D01*
X0343159Y0144980D02*
X0362743Y0144980D01*
X0362743Y0145578D02*
X0342560Y0145578D01*
X0341962Y0146177D02*
X0362743Y0146177D01*
X0362743Y0146775D02*
X0341363Y0146775D01*
X0340765Y0147374D02*
X0362743Y0147374D01*
X0362743Y0147972D02*
X0340166Y0147972D01*
X0339568Y0148571D02*
X0362743Y0148571D01*
X0362743Y0149170D02*
X0338969Y0149170D01*
X0338371Y0149768D02*
X0362743Y0149768D01*
X0362743Y0150367D02*
X0337772Y0150367D01*
X0337174Y0150965D02*
X0362743Y0150965D01*
X0362743Y0151564D02*
X0336575Y0151564D01*
X0335977Y0152162D02*
X0362743Y0152162D01*
X0362743Y0152761D02*
X0335378Y0152761D01*
X0334780Y0153359D02*
X0362743Y0153359D01*
X0362743Y0153958D02*
X0334181Y0153958D01*
X0333583Y0154556D02*
X0362743Y0154556D01*
X0362743Y0155155D02*
X0332984Y0155155D01*
X0332386Y0155753D02*
X0362743Y0155753D01*
X0362743Y0156352D02*
X0331787Y0156352D01*
X0331189Y0156950D02*
X0362743Y0156950D01*
X0362743Y0157549D02*
X0330590Y0157549D01*
X0329992Y0158147D02*
X0362743Y0158147D01*
X0362743Y0158746D02*
X0329393Y0158746D01*
X0328795Y0159344D02*
X0362743Y0159344D01*
X0362743Y0159943D02*
X0328196Y0159943D01*
X0327598Y0160541D02*
X0362743Y0160541D01*
X0362743Y0161140D02*
X0326999Y0161140D01*
X0326877Y0161738D02*
X0362743Y0161738D01*
X0362743Y0162337D02*
X0327476Y0162337D01*
X0328074Y0162935D02*
X0362743Y0162935D01*
X0362743Y0163534D02*
X0328673Y0163534D01*
X0329271Y0164132D02*
X0362743Y0164132D01*
X0362743Y0164731D02*
X0329870Y0164731D01*
X0330468Y0165329D02*
X0362743Y0165329D01*
X0362743Y0165928D02*
X0331067Y0165928D01*
X0331665Y0166526D02*
X0362743Y0166526D01*
X0362743Y0167125D02*
X0332264Y0167125D01*
X0332862Y0167723D02*
X0338899Y0167723D01*
X0337881Y0168322D02*
X0333461Y0168322D01*
X0334059Y0168920D02*
X0337282Y0168920D01*
X0336924Y0169519D02*
X0334658Y0169519D01*
X0335256Y0170117D02*
X0336676Y0170117D01*
X0336505Y0170716D02*
X0335855Y0170716D01*
X0336453Y0171314D02*
X0336505Y0171314D01*
X0334855Y0173110D02*
X0299142Y0173110D01*
X0299142Y0173708D02*
X0335453Y0173708D01*
X0336052Y0174307D02*
X0299142Y0174307D01*
X0299142Y0174905D02*
X0336650Y0174905D01*
X0337249Y0175504D02*
X0299142Y0175504D01*
X0299142Y0176103D02*
X0337847Y0176103D01*
X0338446Y0176701D02*
X0299142Y0176701D01*
X0299142Y0177300D02*
X0339044Y0177300D01*
X0339301Y0177557D02*
X0324445Y0162700D01*
X0316842Y0162700D01*
X0316842Y0162750D01*
X0314792Y0164800D01*
X0311892Y0164800D01*
X0309842Y0162750D01*
X0309842Y0159850D01*
X0311892Y0157800D01*
X0314792Y0157800D01*
X0316842Y0159850D01*
X0316842Y0160300D01*
X0324445Y0160300D01*
X0341742Y0143003D01*
X0341742Y0129611D01*
X0341262Y0129413D01*
X0340229Y0128380D01*
X0339670Y0127030D01*
X0339670Y0125570D01*
X0340229Y0124220D01*
X0341262Y0123187D01*
X0341742Y0122989D01*
X0341742Y0113997D01*
X0296845Y0069100D01*
X0296842Y0069097D01*
X0296842Y0069596D01*
X0296309Y0070883D01*
X0295324Y0071867D01*
X0294942Y0072026D01*
X0294942Y0086003D01*
X0321873Y0112934D01*
X0322611Y0112628D01*
X0324072Y0112628D01*
X0325422Y0113187D01*
X0326454Y0114220D01*
X0327013Y0115570D01*
X0327013Y0117030D01*
X0326454Y0118380D01*
X0325422Y0119413D01*
X0324072Y0119972D01*
X0322611Y0119972D01*
X0321262Y0119413D01*
X0320229Y0118380D01*
X0319670Y0117030D01*
X0319670Y0115570D01*
X0320093Y0114548D01*
X0293742Y0088197D01*
X0278039Y0103900D01*
X0218492Y0103900D01*
X0218909Y0104317D01*
X0219442Y0105604D01*
X0219442Y0106996D01*
X0218909Y0108283D01*
X0217924Y0109267D01*
X0216638Y0109800D01*
X0210046Y0109800D01*
X0208759Y0109267D01*
X0207775Y0108283D01*
X0207242Y0106996D01*
X0207242Y0106297D01*
X0206742Y0106797D01*
X0206039Y0107500D01*
X0189233Y0107500D01*
X0188909Y0108283D01*
X0187924Y0109267D01*
X0186638Y0109800D01*
X0180046Y0109800D01*
X0178759Y0109267D01*
X0177775Y0108283D01*
X0177242Y0106996D01*
X0177242Y0106297D01*
X0162342Y0121197D01*
X0162342Y0173997D01*
X0161665Y0174674D01*
X0161842Y0174850D01*
X0161842Y0177750D01*
X0159942Y0179650D01*
X0159942Y0183803D01*
X0188639Y0212500D01*
X0189342Y0213203D01*
X0189342Y0234100D01*
X0241192Y0234100D01*
X0239842Y0232750D01*
X0239842Y0232300D01*
X0222445Y0232300D01*
X0189445Y0199300D01*
X0188742Y0198597D01*
X0188742Y0158450D01*
X0187924Y0159267D01*
X0186638Y0159800D01*
X0180046Y0159800D01*
X0178759Y0159267D01*
X0177775Y0158283D01*
X0177242Y0156996D01*
X0177242Y0155604D01*
X0177775Y0154317D01*
X0178759Y0153333D01*
X0180046Y0152800D01*
X0186638Y0152800D01*
X0187924Y0153333D01*
X0188742Y0154150D01*
X0188742Y0153597D01*
X0184945Y0149800D01*
X0180046Y0149800D01*
X0178759Y0149267D01*
X0177775Y0148283D01*
X0177242Y0146996D01*
X0177242Y0145604D01*
X0177775Y0144317D01*
X0178759Y0143333D01*
X0180046Y0142800D01*
X0186638Y0142800D01*
X0187924Y0143333D01*
X0188909Y0144317D01*
X0189442Y0145604D01*
X0189442Y0146996D01*
X0188909Y0148283D01*
X0187924Y0149267D01*
X0187841Y0149302D01*
X0191142Y0152603D01*
X0191142Y0197603D01*
X0204842Y0211303D01*
X0204842Y0209850D01*
X0206742Y0207950D01*
X0206742Y0181797D01*
X0203845Y0178900D01*
X0203142Y0178197D01*
X0203142Y0174803D01*
X0225445Y0152500D01*
X0219442Y0146497D01*
X0219442Y0146996D01*
X0218909Y0148283D01*
X0217924Y0149267D01*
X0216638Y0149800D01*
X0210046Y0149800D01*
X0208759Y0149267D01*
X0207775Y0148283D01*
X0207242Y0146996D01*
X0207242Y0145604D01*
X0207775Y0144317D01*
X0208759Y0143333D01*
X0210046Y0142800D01*
X0215745Y0142800D01*
X0214045Y0141100D01*
X0196045Y0141100D01*
X0184745Y0129800D01*
X0180046Y0129800D01*
X0178759Y0129267D01*
X0177775Y0128283D01*
X0177242Y0126996D01*
X0177242Y0125604D01*
X0177775Y0124317D01*
X0178759Y0123333D01*
X0180046Y0122800D01*
X0186638Y0122800D01*
X0187924Y0123333D01*
X0188909Y0124317D01*
X0189442Y0125604D01*
X0189442Y0126996D01*
X0188909Y0128283D01*
X0187924Y0129267D01*
X0187699Y0129360D01*
X0197039Y0138700D01*
X0208192Y0138700D01*
X0207775Y0138283D01*
X0207242Y0136996D01*
X0207242Y0135604D01*
X0207775Y0134317D01*
X0208759Y0133333D01*
X0210046Y0132800D01*
X0216638Y0132800D01*
X0217924Y0133333D01*
X0218909Y0134317D01*
X0219442Y0135604D01*
X0219442Y0136996D01*
X0218909Y0138283D01*
X0217924Y0139267D01*
X0216638Y0139800D01*
X0216139Y0139800D01*
X0227639Y0151300D01*
X0228342Y0152003D01*
X0241439Y0165100D01*
X0250050Y0165100D01*
X0250375Y0164317D01*
X0251359Y0163333D01*
X0252646Y0162800D01*
X0254038Y0162800D01*
X0255324Y0163333D01*
X0256309Y0164317D01*
X0256842Y0165604D01*
X0256842Y0166996D01*
X0256309Y0168283D01*
X0255324Y0169267D01*
X0254038Y0169800D01*
X0252646Y0169800D01*
X0251359Y0169267D01*
X0250375Y0168283D01*
X0250050Y0167500D01*
X0240445Y0167500D01*
X0227142Y0154197D01*
X0208539Y0172800D01*
X0209792Y0172800D01*
X0211692Y0174700D01*
X0253045Y0174700D01*
X0260107Y0167637D01*
X0259842Y0166996D01*
X0259842Y0165604D01*
X0260375Y0164317D01*
X0261359Y0163333D01*
X0262646Y0162800D01*
X0264038Y0162800D01*
X0265324Y0163333D01*
X0266309Y0164317D01*
X0266842Y0165604D01*
X0266842Y0166996D01*
X0266309Y0168283D01*
X0265324Y0169267D01*
X0264038Y0169800D01*
X0262646Y0169800D01*
X0261722Y0169417D01*
X0254039Y0177100D01*
X0211842Y0177100D01*
X0211842Y0177750D01*
X0209792Y0179800D01*
X0208139Y0179800D01*
X0209142Y0180803D01*
X0209142Y0207800D01*
X0209792Y0207800D01*
X0211842Y0209850D01*
X0211842Y0212750D01*
X0209792Y0214800D01*
X0208339Y0214800D01*
X0223439Y0229900D01*
X0239842Y0229900D01*
X0239842Y0229850D01*
X0241892Y0227800D01*
X0244792Y0227800D01*
X0246842Y0229850D01*
X0246842Y0232750D01*
X0245492Y0234100D01*
X0291192Y0234100D01*
X0289842Y0232750D01*
X0289842Y0229850D01*
X0291892Y0227800D01*
X0292542Y0227800D01*
X0292542Y0215603D01*
X0293345Y0214800D01*
X0291892Y0214800D01*
X0289842Y0212750D01*
X0289842Y0209850D01*
X0291892Y0207800D01*
X0294792Y0207800D01*
X0296742Y0209750D01*
X0296742Y0201100D01*
X0261445Y0201100D01*
X0260742Y0200397D01*
X0257845Y0197500D01*
X0256633Y0197500D01*
X0256309Y0198283D01*
X0255324Y0199267D01*
X0254038Y0199800D01*
X0252646Y0199800D01*
X0251359Y0199267D01*
X0250375Y0198283D01*
X0249842Y0196996D01*
X0249842Y0195604D01*
X0250375Y0194317D01*
X0251359Y0193333D01*
X0252646Y0192800D01*
X0254038Y0192800D01*
X0255324Y0193333D01*
X0256309Y0194317D01*
X0256633Y0195100D01*
X0258839Y0195100D01*
X0259842Y0196103D01*
X0259842Y0195604D01*
X0260375Y0194317D01*
X0261359Y0193333D01*
X0262646Y0192800D01*
X0264038Y0192800D01*
X0265324Y0193333D01*
X0266309Y0194317D01*
X0266842Y0195604D01*
X0266842Y0196996D01*
X0266309Y0198283D01*
X0265892Y0198700D01*
X0270792Y0198700D01*
X0270375Y0198283D01*
X0269842Y0196996D01*
X0269842Y0195604D01*
X0270375Y0194317D01*
X0271359Y0193333D01*
X0272646Y0192800D01*
X0274038Y0192800D01*
X0275324Y0193333D01*
X0276309Y0194317D01*
X0276842Y0195604D01*
X0276842Y0196996D01*
X0276309Y0198283D01*
X0275892Y0198700D01*
X0280792Y0198700D01*
X0280375Y0198283D01*
X0279842Y0196996D01*
X0279842Y0195604D01*
X0280375Y0194317D01*
X0281359Y0193333D01*
X0282646Y0192800D01*
X0284038Y0192800D01*
X0285324Y0193333D01*
X0286309Y0194317D01*
X0286842Y0195604D01*
X0286842Y0196996D01*
X0286309Y0198283D01*
X0285892Y0198700D01*
X0296742Y0198700D01*
X0296742Y0149650D01*
X0294842Y0147750D01*
X0294842Y0144850D01*
X0296892Y0142800D01*
X0299792Y0142800D01*
X0301842Y0144850D01*
X0301842Y0147750D01*
X0299792Y0149800D01*
X0299142Y0149800D01*
X0299142Y0212397D01*
X0298439Y0213100D01*
X0294942Y0216597D01*
X0294942Y0227950D01*
X0296842Y0229850D01*
X0296842Y0231103D01*
X0313145Y0214800D01*
X0311892Y0214800D01*
X0309842Y0212750D01*
X0309842Y0209850D01*
X0311892Y0207800D01*
X0314792Y0207800D01*
X0315942Y0208950D01*
X0315942Y0208403D01*
X0316645Y0207700D01*
X0339301Y0185043D01*
X0338182Y0184580D01*
X0337094Y0183491D01*
X0336505Y0182069D01*
X0336505Y0180530D01*
X0337094Y0179109D01*
X0338182Y0178020D01*
X0339301Y0177557D01*
X0338477Y0177898D02*
X0299142Y0177898D01*
X0299142Y0178497D02*
X0337706Y0178497D01*
X0337107Y0179095D02*
X0299142Y0179095D01*
X0299142Y0179694D02*
X0336851Y0179694D01*
X0336604Y0180292D02*
X0299142Y0180292D01*
X0299142Y0180891D02*
X0336505Y0180891D01*
X0336505Y0181489D02*
X0299142Y0181489D01*
X0299142Y0182088D02*
X0336512Y0182088D01*
X0336760Y0182686D02*
X0299142Y0182686D01*
X0299142Y0183285D02*
X0337008Y0183285D01*
X0337486Y0183883D02*
X0299142Y0183883D01*
X0299142Y0184482D02*
X0338084Y0184482D01*
X0339265Y0185080D02*
X0299142Y0185080D01*
X0299142Y0185679D02*
X0338666Y0185679D01*
X0338068Y0186277D02*
X0299142Y0186277D01*
X0299142Y0186876D02*
X0337469Y0186876D01*
X0336871Y0187474D02*
X0299142Y0187474D01*
X0299142Y0188073D02*
X0336272Y0188073D01*
X0335673Y0188671D02*
X0299142Y0188671D01*
X0299142Y0189270D02*
X0335075Y0189270D01*
X0334476Y0189868D02*
X0299142Y0189868D01*
X0299142Y0190467D02*
X0333878Y0190467D01*
X0333279Y0191065D02*
X0299142Y0191065D01*
X0299142Y0191664D02*
X0332681Y0191664D01*
X0332082Y0192262D02*
X0299142Y0192262D01*
X0299142Y0192861D02*
X0331484Y0192861D01*
X0330885Y0193459D02*
X0299142Y0193459D01*
X0299142Y0194058D02*
X0330287Y0194058D01*
X0329688Y0194656D02*
X0299142Y0194656D01*
X0299142Y0195255D02*
X0329090Y0195255D01*
X0328491Y0195853D02*
X0299142Y0195853D01*
X0299142Y0196452D02*
X0327893Y0196452D01*
X0327294Y0197050D02*
X0299142Y0197050D01*
X0299142Y0197649D02*
X0326696Y0197649D01*
X0326097Y0198247D02*
X0299142Y0198247D01*
X0299142Y0198846D02*
X0325499Y0198846D01*
X0324900Y0199444D02*
X0299142Y0199444D01*
X0299142Y0200043D02*
X0324302Y0200043D01*
X0323703Y0200641D02*
X0299142Y0200641D01*
X0299142Y0201240D02*
X0323105Y0201240D01*
X0322506Y0201839D02*
X0299142Y0201839D01*
X0299142Y0202437D02*
X0321908Y0202437D01*
X0321309Y0203036D02*
X0299142Y0203036D01*
X0299142Y0203634D02*
X0320711Y0203634D01*
X0320112Y0204233D02*
X0299142Y0204233D01*
X0299142Y0204831D02*
X0319514Y0204831D01*
X0318915Y0205430D02*
X0299142Y0205430D01*
X0299142Y0206028D02*
X0318317Y0206028D01*
X0317718Y0206627D02*
X0299142Y0206627D01*
X0299142Y0207225D02*
X0317120Y0207225D01*
X0316521Y0207824D02*
X0314815Y0207824D01*
X0315414Y0208422D02*
X0315942Y0208422D01*
X0317142Y0208900D02*
X0317142Y0212500D01*
X0294342Y0235300D01*
X0188142Y0235300D01*
X0188142Y0213700D01*
X0158742Y0184300D01*
X0158742Y0176500D01*
X0158342Y0176300D01*
X0161142Y0173500D01*
X0161142Y0120700D01*
X0180342Y0101500D01*
X0215742Y0101500D01*
X0250542Y0066700D01*
X0252942Y0066700D01*
X0253342Y0066300D01*
X0256842Y0066575D02*
X0259842Y0066575D01*
X0259842Y0067173D02*
X0256842Y0067173D01*
X0256842Y0067772D02*
X0259842Y0067772D01*
X0259842Y0068370D02*
X0256842Y0068370D01*
X0256842Y0068969D02*
X0259842Y0068969D01*
X0259842Y0069568D02*
X0256842Y0069568D01*
X0256842Y0069596D02*
X0256309Y0070883D01*
X0255324Y0071867D01*
X0254038Y0072400D01*
X0252646Y0072400D01*
X0251359Y0071867D01*
X0250375Y0070883D01*
X0249842Y0069596D01*
X0249842Y0069097D01*
X0217439Y0101500D01*
X0277045Y0101500D01*
X0292542Y0086003D01*
X0292542Y0072357D01*
X0291359Y0071867D01*
X0290375Y0070883D01*
X0289842Y0069596D01*
X0289842Y0063004D01*
X0290375Y0061717D01*
X0290792Y0061300D01*
X0285892Y0061300D01*
X0286309Y0061717D01*
X0286842Y0063004D01*
X0286842Y0069596D01*
X0286309Y0070883D01*
X0285324Y0071867D01*
X0284038Y0072400D01*
X0282646Y0072400D01*
X0281359Y0071867D01*
X0280375Y0070883D01*
X0279842Y0069596D01*
X0279842Y0063004D01*
X0280375Y0061717D01*
X0280792Y0061300D01*
X0275892Y0061300D01*
X0276309Y0061717D01*
X0276842Y0063004D01*
X0276842Y0069596D01*
X0276309Y0070883D01*
X0275324Y0071867D01*
X0274038Y0072400D01*
X0272646Y0072400D01*
X0271359Y0071867D01*
X0270375Y0070883D01*
X0269842Y0069596D01*
X0269842Y0063004D01*
X0270375Y0061717D01*
X0270792Y0061300D01*
X0265892Y0061300D01*
X0266309Y0061717D01*
X0266842Y0063004D01*
X0266842Y0069596D01*
X0266309Y0070883D01*
X0265324Y0071867D01*
X0264038Y0072400D01*
X0262646Y0072400D01*
X0261359Y0071867D01*
X0260375Y0070883D01*
X0259842Y0069596D01*
X0259842Y0063004D01*
X0260375Y0061717D01*
X0260792Y0061300D01*
X0255892Y0061300D01*
X0256309Y0061717D01*
X0256842Y0063004D01*
X0256842Y0069596D01*
X0256606Y0070166D02*
X0260078Y0070166D01*
X0260326Y0070765D02*
X0256358Y0070765D01*
X0255828Y0071363D02*
X0260855Y0071363D01*
X0261587Y0071962D02*
X0255096Y0071962D01*
X0251587Y0071962D02*
X0246977Y0071962D01*
X0246379Y0072560D02*
X0292542Y0072560D01*
X0292542Y0073159D02*
X0245780Y0073159D01*
X0245182Y0073757D02*
X0292542Y0073757D01*
X0292542Y0074356D02*
X0244583Y0074356D01*
X0243985Y0074954D02*
X0292542Y0074954D01*
X0292542Y0075553D02*
X0243386Y0075553D01*
X0242788Y0076151D02*
X0292542Y0076151D01*
X0292542Y0076750D02*
X0242189Y0076750D01*
X0241591Y0077348D02*
X0292542Y0077348D01*
X0292542Y0077947D02*
X0240992Y0077947D01*
X0240394Y0078545D02*
X0292542Y0078545D01*
X0292542Y0079144D02*
X0239795Y0079144D01*
X0239197Y0079742D02*
X0292542Y0079742D01*
X0292542Y0080341D02*
X0238598Y0080341D01*
X0238000Y0080939D02*
X0292542Y0080939D01*
X0292542Y0081538D02*
X0237401Y0081538D01*
X0236803Y0082136D02*
X0292542Y0082136D01*
X0292542Y0082735D02*
X0236204Y0082735D01*
X0235606Y0083333D02*
X0292542Y0083333D01*
X0292542Y0083932D02*
X0235007Y0083932D01*
X0234409Y0084530D02*
X0292542Y0084530D01*
X0292542Y0085129D02*
X0233810Y0085129D01*
X0233212Y0085727D02*
X0292542Y0085727D01*
X0292219Y0086326D02*
X0232613Y0086326D01*
X0232014Y0086924D02*
X0291620Y0086924D01*
X0291022Y0087523D02*
X0231416Y0087523D01*
X0230817Y0088121D02*
X0290423Y0088121D01*
X0289825Y0088720D02*
X0230219Y0088720D01*
X0229620Y0089318D02*
X0289226Y0089318D01*
X0288628Y0089917D02*
X0229022Y0089917D01*
X0228423Y0090515D02*
X0288029Y0090515D01*
X0287431Y0091114D02*
X0227825Y0091114D01*
X0227226Y0091712D02*
X0286832Y0091712D01*
X0286234Y0092311D02*
X0226628Y0092311D01*
X0226029Y0092909D02*
X0285635Y0092909D01*
X0285037Y0093508D02*
X0225431Y0093508D01*
X0224832Y0094106D02*
X0284438Y0094106D01*
X0283840Y0094705D02*
X0224234Y0094705D01*
X0223635Y0095303D02*
X0283241Y0095303D01*
X0282643Y0095902D02*
X0223037Y0095902D01*
X0222438Y0096501D02*
X0282044Y0096501D01*
X0281446Y0097099D02*
X0221840Y0097099D01*
X0221241Y0097698D02*
X0280847Y0097698D01*
X0280249Y0098296D02*
X0220643Y0098296D01*
X0220044Y0098895D02*
X0279650Y0098895D01*
X0279052Y0099493D02*
X0219446Y0099493D01*
X0218847Y0100092D02*
X0278453Y0100092D01*
X0277855Y0100690D02*
X0218249Y0100690D01*
X0217650Y0101289D02*
X0277256Y0101289D01*
X0277542Y0102700D02*
X0293742Y0086500D01*
X0323142Y0115900D01*
X0323342Y0116300D01*
X0327013Y0116251D02*
X0341742Y0116251D01*
X0341742Y0115653D02*
X0327013Y0115653D01*
X0326800Y0115054D02*
X0341742Y0115054D01*
X0341742Y0114456D02*
X0326552Y0114456D01*
X0326092Y0113857D02*
X0341602Y0113857D01*
X0341004Y0113259D02*
X0325493Y0113259D01*
X0324149Y0112660D02*
X0340405Y0112660D01*
X0339807Y0112062D02*
X0321001Y0112062D01*
X0321599Y0112660D02*
X0322534Y0112660D01*
X0320402Y0111463D02*
X0339208Y0111463D01*
X0338610Y0110865D02*
X0319804Y0110865D01*
X0319205Y0110266D02*
X0338011Y0110266D01*
X0337413Y0109668D02*
X0318607Y0109668D01*
X0318008Y0109069D02*
X0336814Y0109069D01*
X0336216Y0108471D02*
X0317410Y0108471D01*
X0316811Y0107872D02*
X0335617Y0107872D01*
X0335018Y0107274D02*
X0316213Y0107274D01*
X0315614Y0106675D02*
X0334420Y0106675D01*
X0333821Y0106077D02*
X0315016Y0106077D01*
X0314417Y0105478D02*
X0333223Y0105478D01*
X0332624Y0104880D02*
X0313819Y0104880D01*
X0313220Y0104281D02*
X0332026Y0104281D01*
X0331427Y0103683D02*
X0312622Y0103683D01*
X0312023Y0103084D02*
X0330829Y0103084D01*
X0330230Y0102486D02*
X0311424Y0102486D01*
X0310826Y0101887D02*
X0329632Y0101887D01*
X0329033Y0101289D02*
X0310227Y0101289D01*
X0309629Y0100690D02*
X0328435Y0100690D01*
X0327836Y0100092D02*
X0309030Y0100092D01*
X0308432Y0099493D02*
X0327238Y0099493D01*
X0326639Y0098895D02*
X0307833Y0098895D01*
X0307235Y0098296D02*
X0326041Y0098296D01*
X0325442Y0097698D02*
X0306636Y0097698D01*
X0306038Y0097099D02*
X0324844Y0097099D01*
X0324245Y0096501D02*
X0305439Y0096501D01*
X0304841Y0095902D02*
X0323647Y0095902D01*
X0323048Y0095303D02*
X0304242Y0095303D01*
X0303644Y0094705D02*
X0322450Y0094705D01*
X0321851Y0094106D02*
X0303045Y0094106D01*
X0302447Y0093508D02*
X0321253Y0093508D01*
X0320654Y0092909D02*
X0301848Y0092909D01*
X0301250Y0092311D02*
X0320056Y0092311D01*
X0319457Y0091712D02*
X0300651Y0091712D01*
X0300053Y0091114D02*
X0318859Y0091114D01*
X0318260Y0090515D02*
X0299454Y0090515D01*
X0298856Y0089917D02*
X0317662Y0089917D01*
X0317063Y0089318D02*
X0298257Y0089318D01*
X0297659Y0088720D02*
X0316465Y0088720D01*
X0315866Y0088121D02*
X0297060Y0088121D01*
X0296462Y0087523D02*
X0315268Y0087523D01*
X0314669Y0086924D02*
X0295863Y0086924D01*
X0295265Y0086326D02*
X0314071Y0086326D01*
X0313472Y0085727D02*
X0294942Y0085727D01*
X0294942Y0085129D02*
X0312874Y0085129D01*
X0312275Y0084530D02*
X0294942Y0084530D01*
X0294942Y0083932D02*
X0311677Y0083932D01*
X0311078Y0083333D02*
X0294942Y0083333D01*
X0294942Y0082735D02*
X0310480Y0082735D01*
X0309881Y0082136D02*
X0294942Y0082136D01*
X0294942Y0081538D02*
X0309282Y0081538D01*
X0308684Y0080939D02*
X0294942Y0080939D01*
X0294942Y0080341D02*
X0308085Y0080341D01*
X0307487Y0079742D02*
X0294942Y0079742D01*
X0294942Y0079144D02*
X0306888Y0079144D01*
X0306290Y0078545D02*
X0294942Y0078545D01*
X0294942Y0077947D02*
X0305691Y0077947D01*
X0305093Y0077348D02*
X0294942Y0077348D01*
X0294942Y0076750D02*
X0304494Y0076750D01*
X0303896Y0076151D02*
X0294942Y0076151D01*
X0294942Y0075553D02*
X0303297Y0075553D01*
X0302699Y0074954D02*
X0294942Y0074954D01*
X0294942Y0074356D02*
X0302100Y0074356D01*
X0301502Y0073757D02*
X0294942Y0073757D01*
X0294942Y0073159D02*
X0300903Y0073159D01*
X0300305Y0072560D02*
X0294942Y0072560D01*
X0295096Y0071962D02*
X0299706Y0071962D01*
X0299108Y0071363D02*
X0295828Y0071363D01*
X0296358Y0070765D02*
X0298509Y0070765D01*
X0297911Y0070166D02*
X0296606Y0070166D01*
X0296842Y0069568D02*
X0297312Y0069568D01*
X0297342Y0067900D02*
X0297342Y0062500D01*
X0294942Y0060100D01*
X0249342Y0060100D01*
X0243342Y0066100D01*
X0243342Y0066300D01*
X0243342Y0066700D01*
X0208542Y0066700D01*
X0208342Y0066300D01*
X0201342Y0073300D01*
X0198342Y0073300D01*
X0171342Y0100300D01*
X0151542Y0100300D01*
X0145542Y0106300D01*
X0145542Y0141700D01*
X0108342Y0178900D01*
X0108342Y0196300D01*
X0088542Y0196300D01*
X0083742Y0191500D01*
X0083342Y0191300D01*
X0087183Y0187474D02*
X0107142Y0187474D01*
X0107142Y0186876D02*
X0052642Y0186876D01*
X0052642Y0187474D02*
X0079501Y0187474D01*
X0078130Y0188073D02*
X0052642Y0188073D01*
X0052642Y0188671D02*
X0077531Y0188671D01*
X0077027Y0189270D02*
X0052642Y0189270D01*
X0052642Y0189868D02*
X0076779Y0189868D01*
X0076531Y0190467D02*
X0052642Y0190467D01*
X0052642Y0191065D02*
X0076505Y0191065D01*
X0076505Y0191664D02*
X0052642Y0191664D01*
X0052642Y0192262D02*
X0076585Y0192262D01*
X0076833Y0192861D02*
X0052642Y0192861D01*
X0052642Y0193459D02*
X0077080Y0193459D01*
X0077660Y0194058D02*
X0052642Y0194058D01*
X0052642Y0194656D02*
X0078367Y0194656D01*
X0085800Y0195255D02*
X0052642Y0195255D01*
X0052642Y0195853D02*
X0086398Y0195853D01*
X0086997Y0196452D02*
X0052642Y0196452D01*
X0052642Y0197050D02*
X0087595Y0197050D01*
X0088595Y0194656D02*
X0105036Y0194656D01*
X0105634Y0194058D02*
X0089023Y0194058D01*
X0089603Y0193459D02*
X0106233Y0193459D01*
X0106831Y0192861D02*
X0089851Y0192861D01*
X0090099Y0192262D02*
X0107142Y0192262D01*
X0107142Y0191664D02*
X0090179Y0191664D01*
X0090179Y0191065D02*
X0107142Y0191065D01*
X0107142Y0190467D02*
X0090152Y0190467D01*
X0089905Y0189868D02*
X0107142Y0189868D01*
X0107142Y0189270D02*
X0089657Y0189270D01*
X0089152Y0188671D02*
X0107142Y0188671D01*
X0107142Y0188073D02*
X0088554Y0188073D01*
X0087293Y0185080D02*
X0107142Y0185080D01*
X0107142Y0184482D02*
X0088600Y0184482D01*
X0088502Y0184580D02*
X0087080Y0185168D01*
X0079604Y0185168D01*
X0078182Y0184580D01*
X0077094Y0183491D01*
X0076505Y0182069D01*
X0076505Y0180530D01*
X0077094Y0179109D01*
X0078182Y0178020D01*
X0079604Y0177431D01*
X0087080Y0177431D01*
X0088502Y0178020D01*
X0089590Y0179109D01*
X0090179Y0180530D01*
X0090179Y0182069D01*
X0089590Y0183491D01*
X0088502Y0184580D01*
X0089198Y0183883D02*
X0107142Y0183883D01*
X0107142Y0183285D02*
X0089675Y0183285D01*
X0089923Y0182686D02*
X0107142Y0182686D01*
X0107142Y0182088D02*
X0090171Y0182088D01*
X0090179Y0181489D02*
X0107142Y0181489D01*
X0107142Y0180891D02*
X0090179Y0180891D01*
X0090080Y0180292D02*
X0107142Y0180292D01*
X0107142Y0179694D02*
X0089832Y0179694D01*
X0089576Y0179095D02*
X0107142Y0179095D01*
X0107142Y0178497D02*
X0088978Y0178497D01*
X0088206Y0177898D02*
X0107647Y0177898D01*
X0108245Y0177300D02*
X0052642Y0177300D01*
X0052642Y0177898D02*
X0078477Y0177898D01*
X0077706Y0178497D02*
X0052642Y0178497D01*
X0052642Y0179095D02*
X0077107Y0179095D01*
X0076851Y0179694D02*
X0052642Y0179694D01*
X0052642Y0180292D02*
X0076604Y0180292D01*
X0076505Y0180891D02*
X0052642Y0180891D01*
X0052642Y0181489D02*
X0076505Y0181489D01*
X0076512Y0182088D02*
X0052642Y0182088D01*
X0052642Y0182686D02*
X0076760Y0182686D01*
X0077008Y0183285D02*
X0052642Y0183285D01*
X0052642Y0183883D02*
X0077486Y0183883D01*
X0078084Y0184482D02*
X0052642Y0184482D01*
X0052642Y0185080D02*
X0079391Y0185080D01*
X0079604Y0175168D02*
X0078182Y0174580D01*
X0077094Y0173491D01*
X0076505Y0172069D01*
X0076505Y0170530D01*
X0077094Y0169109D01*
X0078182Y0168020D01*
X0079604Y0167431D01*
X0087080Y0167431D01*
X0088502Y0168020D01*
X0089590Y0169109D01*
X0090179Y0170530D01*
X0090179Y0172069D01*
X0089590Y0173491D01*
X0088502Y0174580D01*
X0087080Y0175168D01*
X0079604Y0175168D01*
X0078969Y0174905D02*
X0052642Y0174905D01*
X0052642Y0174307D02*
X0077909Y0174307D01*
X0077311Y0173708D02*
X0052642Y0173708D01*
X0052642Y0173110D02*
X0076936Y0173110D01*
X0076688Y0172511D02*
X0052642Y0172511D01*
X0052642Y0171913D02*
X0076505Y0171913D01*
X0076505Y0171314D02*
X0052642Y0171314D01*
X0052642Y0170716D02*
X0076505Y0170716D01*
X0076676Y0170117D02*
X0052642Y0170117D01*
X0052642Y0169519D02*
X0076924Y0169519D01*
X0077282Y0168920D02*
X0052642Y0168920D01*
X0052642Y0168322D02*
X0077881Y0168322D01*
X0078899Y0167723D02*
X0052642Y0167723D01*
X0052642Y0167125D02*
X0118420Y0167125D01*
X0117821Y0167723D02*
X0087784Y0167723D01*
X0088803Y0168322D02*
X0117223Y0168322D01*
X0116624Y0168920D02*
X0089402Y0168920D01*
X0089760Y0169519D02*
X0116026Y0169519D01*
X0115427Y0170117D02*
X0090008Y0170117D01*
X0090179Y0170716D02*
X0114829Y0170716D01*
X0114230Y0171314D02*
X0090179Y0171314D01*
X0090179Y0171913D02*
X0113632Y0171913D01*
X0113033Y0172511D02*
X0089996Y0172511D01*
X0089748Y0173110D02*
X0112435Y0173110D01*
X0111836Y0173708D02*
X0089373Y0173708D01*
X0088774Y0174307D02*
X0111238Y0174307D01*
X0110639Y0174905D02*
X0087715Y0174905D01*
X0108844Y0176701D02*
X0052642Y0176701D01*
X0052642Y0176103D02*
X0109442Y0176103D01*
X0110041Y0175504D02*
X0052642Y0175504D01*
X0052642Y0166526D02*
X0119018Y0166526D01*
X0119617Y0165928D02*
X0052642Y0165928D01*
X0052642Y0165329D02*
X0120215Y0165329D01*
X0120814Y0164731D02*
X0052642Y0164731D01*
X0052642Y0164132D02*
X0121412Y0164132D01*
X0122011Y0163534D02*
X0052642Y0163534D01*
X0052642Y0162935D02*
X0122609Y0162935D01*
X0123208Y0162337D02*
X0052642Y0162337D01*
X0052642Y0161738D02*
X0123806Y0161738D01*
X0124405Y0161140D02*
X0052642Y0161140D01*
X0052642Y0160541D02*
X0125004Y0160541D01*
X0125602Y0159943D02*
X0052642Y0159943D01*
X0052642Y0159344D02*
X0118945Y0159344D01*
X0118238Y0158746D02*
X0052642Y0158746D01*
X0052642Y0158147D02*
X0117719Y0158147D01*
X0117471Y0157549D02*
X0052642Y0157549D01*
X0052642Y0156950D02*
X0117242Y0156950D01*
X0117242Y0156352D02*
X0052642Y0156352D01*
X0052642Y0155753D02*
X0117242Y0155753D01*
X0117428Y0155155D02*
X0052642Y0155155D01*
X0052642Y0154556D02*
X0117676Y0154556D01*
X0118134Y0153958D02*
X0052642Y0153958D01*
X0052642Y0153359D02*
X0118733Y0153359D01*
X0120046Y0149800D02*
X0118759Y0149267D01*
X0117775Y0148283D01*
X0117242Y0146996D01*
X0117242Y0145604D01*
X0117775Y0144317D01*
X0118759Y0143333D01*
X0120046Y0142800D01*
X0126638Y0142800D01*
X0127924Y0143333D01*
X0128909Y0144317D01*
X0129442Y0145604D01*
X0129442Y0146996D01*
X0128909Y0148283D01*
X0127924Y0149267D01*
X0126638Y0149800D01*
X0120046Y0149800D01*
X0119968Y0149768D02*
X0052642Y0149768D01*
X0052642Y0149170D02*
X0118662Y0149170D01*
X0118063Y0148571D02*
X0052642Y0148571D01*
X0052642Y0147972D02*
X0117646Y0147972D01*
X0117398Y0147374D02*
X0052642Y0147374D01*
X0052642Y0146775D02*
X0117242Y0146775D01*
X0117242Y0146177D02*
X0052642Y0146177D01*
X0052642Y0145578D02*
X0117252Y0145578D01*
X0117500Y0144980D02*
X0052642Y0144980D01*
X0052642Y0144381D02*
X0117748Y0144381D01*
X0118309Y0143783D02*
X0052642Y0143783D01*
X0052642Y0143184D02*
X0119118Y0143184D01*
X0120046Y0139800D02*
X0118759Y0139267D01*
X0117775Y0138283D01*
X0117242Y0136996D01*
X0117242Y0135604D01*
X0117775Y0134317D01*
X0118759Y0133333D01*
X0120046Y0132800D01*
X0126638Y0132800D01*
X0127924Y0133333D01*
X0128909Y0134317D01*
X0129442Y0135604D01*
X0129442Y0136996D01*
X0128909Y0138283D01*
X0127924Y0139267D01*
X0126638Y0139800D01*
X0120046Y0139800D01*
X0119547Y0139593D02*
X0052642Y0139593D01*
X0052642Y0138995D02*
X0118487Y0138995D01*
X0117888Y0138396D02*
X0052642Y0138396D01*
X0052642Y0137798D02*
X0117574Y0137798D01*
X0117326Y0137199D02*
X0052642Y0137199D01*
X0052642Y0136601D02*
X0117242Y0136601D01*
X0117242Y0136002D02*
X0052642Y0136002D01*
X0052642Y0135404D02*
X0117325Y0135404D01*
X0117573Y0134805D02*
X0052642Y0134805D01*
X0052642Y0134207D02*
X0117885Y0134207D01*
X0118484Y0133608D02*
X0052642Y0133608D01*
X0052642Y0133010D02*
X0119539Y0133010D01*
X0120046Y0129800D02*
X0118759Y0129267D01*
X0117775Y0128283D01*
X0117242Y0126996D01*
X0117242Y0125604D01*
X0117775Y0124317D01*
X0118759Y0123333D01*
X0120046Y0122800D01*
X0126638Y0122800D01*
X0127924Y0123333D01*
X0128909Y0124317D01*
X0129442Y0125604D01*
X0129442Y0126996D01*
X0128909Y0128283D01*
X0127924Y0129267D01*
X0126638Y0129800D01*
X0120046Y0129800D01*
X0119125Y0129419D02*
X0052642Y0129419D01*
X0052642Y0130017D02*
X0144342Y0130017D01*
X0144342Y0129419D02*
X0127559Y0129419D01*
X0128371Y0128820D02*
X0144342Y0128820D01*
X0144342Y0128222D02*
X0128934Y0128222D01*
X0129182Y0127623D02*
X0144342Y0127623D01*
X0144342Y0127025D02*
X0129430Y0127025D01*
X0129442Y0126426D02*
X0144342Y0126426D01*
X0144342Y0125828D02*
X0129442Y0125828D01*
X0129287Y0125229D02*
X0144342Y0125229D01*
X0144342Y0124631D02*
X0129039Y0124631D01*
X0128624Y0124032D02*
X0144342Y0124032D01*
X0144342Y0123434D02*
X0128025Y0123434D01*
X0126723Y0122835D02*
X0144342Y0122835D01*
X0144342Y0122237D02*
X0052642Y0122237D01*
X0052642Y0122835D02*
X0119961Y0122835D01*
X0118659Y0123434D02*
X0052642Y0123434D01*
X0052642Y0124032D02*
X0118060Y0124032D01*
X0117645Y0124631D02*
X0052642Y0124631D01*
X0052642Y0125229D02*
X0117397Y0125229D01*
X0117242Y0125828D02*
X0052642Y0125828D01*
X0052642Y0126426D02*
X0117242Y0126426D01*
X0117254Y0127025D02*
X0052642Y0127025D01*
X0052642Y0127623D02*
X0117501Y0127623D01*
X0117749Y0128222D02*
X0052642Y0128222D01*
X0052642Y0128820D02*
X0118312Y0128820D01*
X0127144Y0133010D02*
X0144342Y0133010D01*
X0144342Y0133608D02*
X0128200Y0133608D01*
X0128798Y0134207D02*
X0144342Y0134207D01*
X0144342Y0134805D02*
X0129111Y0134805D01*
X0129359Y0135404D02*
X0144342Y0135404D01*
X0144342Y0136002D02*
X0129442Y0136002D01*
X0129442Y0136601D02*
X0144342Y0136601D01*
X0144342Y0137199D02*
X0129358Y0137199D01*
X0129110Y0137798D02*
X0144342Y0137798D01*
X0144342Y0138396D02*
X0128795Y0138396D01*
X0128197Y0138995D02*
X0144342Y0138995D01*
X0144342Y0139593D02*
X0127137Y0139593D01*
X0127566Y0143184D02*
X0142360Y0143184D01*
X0142959Y0142586D02*
X0052642Y0142586D01*
X0052642Y0141987D02*
X0143557Y0141987D01*
X0144156Y0141389D02*
X0052642Y0141389D01*
X0052642Y0140790D02*
X0144342Y0140790D01*
X0144342Y0140192D02*
X0052642Y0140192D01*
X0052642Y0132411D02*
X0144342Y0132411D01*
X0144342Y0131813D02*
X0052642Y0131813D01*
X0052642Y0131214D02*
X0144342Y0131214D01*
X0144342Y0130616D02*
X0052642Y0130616D01*
X0052642Y0121638D02*
X0144342Y0121638D01*
X0144342Y0121039D02*
X0052642Y0121039D01*
X0052642Y0120441D02*
X0144342Y0120441D01*
X0144342Y0119842D02*
X0052642Y0119842D01*
X0052642Y0119244D02*
X0118736Y0119244D01*
X0118759Y0119267D02*
X0117775Y0118283D01*
X0117242Y0116996D01*
X0117242Y0115604D01*
X0117775Y0114317D01*
X0118759Y0113333D01*
X0120046Y0112800D01*
X0126638Y0112800D01*
X0127924Y0113333D01*
X0128909Y0114317D01*
X0129442Y0115604D01*
X0129442Y0116996D01*
X0128909Y0118283D01*
X0127924Y0119267D01*
X0126638Y0119800D01*
X0120046Y0119800D01*
X0118759Y0119267D01*
X0118137Y0118645D02*
X0052642Y0118645D01*
X0052642Y0118047D02*
X0117677Y0118047D01*
X0117429Y0117448D02*
X0052642Y0117448D01*
X0052642Y0116850D02*
X0117242Y0116850D01*
X0117242Y0116251D02*
X0088663Y0116251D01*
X0088742Y0116173D02*
X0088215Y0116700D01*
X0078469Y0116700D01*
X0077942Y0116173D01*
X0077942Y0106427D01*
X0078469Y0105900D01*
X0088215Y0105900D01*
X0088742Y0106427D01*
X0088742Y0116173D01*
X0088742Y0115653D02*
X0117242Y0115653D01*
X0117469Y0115054D02*
X0088742Y0115054D01*
X0088742Y0114456D02*
X0117717Y0114456D01*
X0118235Y0113857D02*
X0088742Y0113857D01*
X0088742Y0113259D02*
X0118938Y0113259D01*
X0120046Y0109800D02*
X0118759Y0109267D01*
X0117775Y0108283D01*
X0117242Y0106996D01*
X0117242Y0105604D01*
X0117775Y0104317D01*
X0118759Y0103333D01*
X0120046Y0102800D01*
X0126638Y0102800D01*
X0127924Y0103333D01*
X0128909Y0104317D01*
X0129442Y0105604D01*
X0129442Y0106996D01*
X0128909Y0108283D01*
X0127924Y0109267D01*
X0126638Y0109800D01*
X0120046Y0109800D01*
X0119726Y0109668D02*
X0088742Y0109668D01*
X0088742Y0110266D02*
X0144342Y0110266D01*
X0144342Y0109668D02*
X0126957Y0109668D01*
X0128122Y0109069D02*
X0144342Y0109069D01*
X0144342Y0108471D02*
X0128721Y0108471D01*
X0129079Y0107872D02*
X0144342Y0107872D01*
X0144342Y0107274D02*
X0129327Y0107274D01*
X0129442Y0106675D02*
X0144342Y0106675D01*
X0144342Y0106077D02*
X0129442Y0106077D01*
X0129390Y0105478D02*
X0144667Y0105478D01*
X0145265Y0104880D02*
X0129142Y0104880D01*
X0128873Y0104281D02*
X0145864Y0104281D01*
X0146462Y0103683D02*
X0128274Y0103683D01*
X0127324Y0103084D02*
X0147061Y0103084D01*
X0147659Y0102486D02*
X0052642Y0102486D01*
X0052642Y0103084D02*
X0119360Y0103084D01*
X0118409Y0103683D02*
X0052642Y0103683D01*
X0052642Y0104281D02*
X0117811Y0104281D01*
X0117542Y0104880D02*
X0052642Y0104880D01*
X0052642Y0105478D02*
X0117294Y0105478D01*
X0117242Y0106077D02*
X0088391Y0106077D01*
X0088742Y0106675D02*
X0117242Y0106675D01*
X0117357Y0107274D02*
X0088742Y0107274D01*
X0088742Y0107872D02*
X0117605Y0107872D01*
X0117963Y0108471D02*
X0088742Y0108471D01*
X0088742Y0109069D02*
X0118561Y0109069D01*
X0127746Y0113259D02*
X0144342Y0113259D01*
X0144342Y0113857D02*
X0128449Y0113857D01*
X0128966Y0114456D02*
X0144342Y0114456D01*
X0144342Y0115054D02*
X0129214Y0115054D01*
X0129442Y0115653D02*
X0144342Y0115653D01*
X0144342Y0116251D02*
X0129442Y0116251D01*
X0129442Y0116850D02*
X0144342Y0116850D01*
X0144342Y0117448D02*
X0129254Y0117448D01*
X0129007Y0118047D02*
X0144342Y0118047D01*
X0144342Y0118645D02*
X0128546Y0118645D01*
X0127948Y0119244D02*
X0144342Y0119244D01*
X0147942Y0119244D02*
X0148736Y0119244D01*
X0148759Y0119267D02*
X0147942Y0118450D01*
X0147942Y0124150D01*
X0148759Y0123333D01*
X0150046Y0122800D01*
X0156638Y0122800D01*
X0157924Y0123333D01*
X0158742Y0124150D01*
X0158742Y0123597D01*
X0154945Y0119800D01*
X0150046Y0119800D01*
X0148759Y0119267D01*
X0148138Y0118645D02*
X0147942Y0118645D01*
X0147942Y0119842D02*
X0154987Y0119842D01*
X0155586Y0120441D02*
X0147942Y0120441D01*
X0147942Y0121039D02*
X0156184Y0121039D01*
X0156783Y0121638D02*
X0147942Y0121638D01*
X0147942Y0122237D02*
X0157381Y0122237D01*
X0157980Y0122835D02*
X0156723Y0122835D01*
X0158025Y0123434D02*
X0158578Y0123434D01*
X0158624Y0124032D02*
X0158742Y0124032D01*
X0159942Y0123100D02*
X0153342Y0116500D01*
X0153342Y0116300D01*
X0150046Y0112800D02*
X0156638Y0112800D01*
X0157924Y0113333D01*
X0158909Y0114317D01*
X0159442Y0115604D01*
X0159442Y0116996D01*
X0158909Y0118283D01*
X0157924Y0119267D01*
X0157841Y0119302D01*
X0159942Y0121403D01*
X0159942Y0120203D01*
X0160645Y0119500D01*
X0179845Y0100300D01*
X0215245Y0100300D01*
X0215745Y0099800D01*
X0210046Y0099800D01*
X0208759Y0099267D01*
X0207775Y0098283D01*
X0207242Y0096996D01*
X0207242Y0095604D01*
X0207775Y0094317D01*
X0208759Y0093333D01*
X0210046Y0092800D01*
X0216638Y0092800D01*
X0217924Y0093333D01*
X0218909Y0094317D01*
X0219442Y0095604D01*
X0219442Y0096103D01*
X0243145Y0072400D01*
X0242646Y0072400D01*
X0241359Y0071867D01*
X0240375Y0070883D01*
X0239842Y0069596D01*
X0239842Y0067900D01*
X0212210Y0067900D01*
X0212210Y0070038D01*
X0211621Y0071460D01*
X0210533Y0072548D01*
X0209111Y0073137D01*
X0207572Y0073137D01*
X0206150Y0072548D01*
X0205062Y0071460D01*
X0205009Y0071330D01*
X0201839Y0074500D01*
X0198839Y0074500D01*
X0180539Y0092800D01*
X0186638Y0092800D01*
X0187924Y0093333D01*
X0188909Y0094317D01*
X0189442Y0095604D01*
X0189442Y0096996D01*
X0188909Y0098283D01*
X0187924Y0099267D01*
X0186638Y0099800D01*
X0180046Y0099800D01*
X0178759Y0099267D01*
X0177775Y0098283D01*
X0177242Y0096996D01*
X0177242Y0096097D01*
X0171839Y0101500D01*
X0152039Y0101500D01*
X0150739Y0102800D01*
X0156638Y0102800D01*
X0157924Y0103333D01*
X0158909Y0104317D01*
X0159442Y0105604D01*
X0159442Y0106996D01*
X0158909Y0108283D01*
X0157924Y0109267D01*
X0156638Y0109800D01*
X0151539Y0109800D01*
X0147942Y0113397D01*
X0147942Y0114150D01*
X0148759Y0113333D01*
X0150046Y0112800D01*
X0149277Y0112062D02*
X0168083Y0112062D01*
X0167484Y0112660D02*
X0148679Y0112660D01*
X0148938Y0113259D02*
X0148080Y0113259D01*
X0147942Y0113857D02*
X0148235Y0113857D01*
X0146742Y0112900D02*
X0153342Y0106300D01*
X0151053Y0102486D02*
X0177659Y0102486D01*
X0177061Y0103084D02*
X0157324Y0103084D01*
X0158274Y0103683D02*
X0176462Y0103683D01*
X0175864Y0104281D02*
X0158873Y0104281D01*
X0159142Y0104880D02*
X0175265Y0104880D01*
X0174667Y0105478D02*
X0159390Y0105478D01*
X0159442Y0106077D02*
X0174068Y0106077D01*
X0173470Y0106675D02*
X0159442Y0106675D01*
X0159327Y0107274D02*
X0172871Y0107274D01*
X0172273Y0107872D02*
X0159079Y0107872D01*
X0158721Y0108471D02*
X0171674Y0108471D01*
X0171075Y0109069D02*
X0158122Y0109069D01*
X0156957Y0109668D02*
X0170477Y0109668D01*
X0169878Y0110266D02*
X0151073Y0110266D01*
X0150474Y0110865D02*
X0169280Y0110865D01*
X0168681Y0111463D02*
X0149876Y0111463D01*
X0148277Y0109668D02*
X0146742Y0109668D01*
X0146742Y0110266D02*
X0147678Y0110266D01*
X0147080Y0110865D02*
X0146742Y0110865D01*
X0146742Y0111203D02*
X0146742Y0106797D01*
X0147242Y0106297D01*
X0147242Y0106996D01*
X0147775Y0108283D01*
X0148718Y0109226D01*
X0146742Y0111203D01*
X0146742Y0112900D02*
X0146742Y0168100D01*
X0078342Y0236500D01*
X0078342Y0251300D01*
X0080683Y0253909D02*
X0126001Y0253909D01*
X0125403Y0253310D02*
X0081281Y0253310D01*
X0081842Y0252712D02*
X0124842Y0252712D01*
X0124842Y0252750D02*
X0124842Y0249850D01*
X0126892Y0247800D01*
X0129792Y0247800D01*
X0131842Y0249850D01*
X0131842Y0252750D01*
X0129792Y0254800D01*
X0126892Y0254800D01*
X0124842Y0252750D01*
X0124842Y0252113D02*
X0081842Y0252113D01*
X0081842Y0251515D02*
X0124842Y0251515D01*
X0124842Y0250916D02*
X0081842Y0250916D01*
X0081842Y0250318D02*
X0124842Y0250318D01*
X0124973Y0249719D02*
X0081711Y0249719D01*
X0081112Y0249121D02*
X0125571Y0249121D01*
X0126170Y0248522D02*
X0080514Y0248522D01*
X0079915Y0247924D02*
X0126768Y0247924D01*
X0129915Y0247924D02*
X0164473Y0247924D01*
X0164473Y0248522D02*
X0130514Y0248522D01*
X0131112Y0249121D02*
X0164473Y0249121D01*
X0164473Y0249719D02*
X0131711Y0249719D01*
X0131842Y0250318D02*
X0164589Y0250318D01*
X0164837Y0250916D02*
X0131842Y0250916D01*
X0131842Y0251515D02*
X0165117Y0251515D01*
X0165716Y0252113D02*
X0131842Y0252113D01*
X0131842Y0252712D02*
X0166546Y0252712D01*
X0170137Y0252712D02*
X0176546Y0252712D01*
X0176150Y0252548D02*
X0175062Y0251460D01*
X0174473Y0250038D01*
X0174473Y0242562D01*
X0175062Y0241140D01*
X0176150Y0240052D01*
X0177572Y0239463D01*
X0179111Y0239463D01*
X0180533Y0240052D01*
X0181621Y0241140D01*
X0182210Y0242562D01*
X0182210Y0250038D01*
X0181621Y0251460D01*
X0180533Y0252548D01*
X0179111Y0253137D01*
X0177572Y0253137D01*
X0176150Y0252548D01*
X0175716Y0252113D02*
X0170968Y0252113D01*
X0171566Y0251515D02*
X0175117Y0251515D01*
X0174837Y0250916D02*
X0171846Y0250916D01*
X0172094Y0250318D02*
X0174589Y0250318D01*
X0174473Y0249719D02*
X0172210Y0249719D01*
X0172210Y0249121D02*
X0174473Y0249121D01*
X0174473Y0248522D02*
X0172210Y0248522D01*
X0172210Y0247924D02*
X0174473Y0247924D01*
X0174473Y0247325D02*
X0172210Y0247325D01*
X0172210Y0246727D02*
X0174473Y0246727D01*
X0174473Y0246128D02*
X0172210Y0246128D01*
X0172210Y0245530D02*
X0174473Y0245530D01*
X0174473Y0244931D02*
X0172210Y0244931D01*
X0172210Y0244333D02*
X0174473Y0244333D01*
X0174473Y0243734D02*
X0172210Y0243734D01*
X0172210Y0243136D02*
X0174473Y0243136D01*
X0174484Y0242537D02*
X0172200Y0242537D01*
X0171952Y0241939D02*
X0174731Y0241939D01*
X0174979Y0241340D02*
X0171704Y0241340D01*
X0171223Y0240742D02*
X0175461Y0240742D01*
X0176059Y0240143D02*
X0170624Y0240143D01*
X0169542Y0239545D02*
X0177375Y0239545D01*
X0179309Y0239545D02*
X0186942Y0239545D01*
X0186942Y0238946D02*
X0169542Y0238946D01*
X0169542Y0238348D02*
X0186942Y0238348D01*
X0186942Y0237749D02*
X0169542Y0237749D01*
X0169542Y0237151D02*
X0186942Y0237151D01*
X0186942Y0236552D02*
X0169542Y0236552D01*
X0169542Y0235954D02*
X0186942Y0235954D01*
X0186942Y0235355D02*
X0169542Y0235355D01*
X0169542Y0234757D02*
X0186942Y0234757D01*
X0186942Y0234158D02*
X0169542Y0234158D01*
X0169542Y0233560D02*
X0186942Y0233560D01*
X0186942Y0232961D02*
X0169542Y0232961D01*
X0169542Y0232363D02*
X0186942Y0232363D01*
X0186942Y0231764D02*
X0169542Y0231764D01*
X0169542Y0231166D02*
X0186942Y0231166D01*
X0186942Y0230567D02*
X0169542Y0230567D01*
X0169542Y0229969D02*
X0186942Y0229969D01*
X0186942Y0229370D02*
X0169542Y0229370D01*
X0169542Y0228772D02*
X0186942Y0228772D01*
X0186942Y0228173D02*
X0169542Y0228173D01*
X0169542Y0227574D02*
X0186942Y0227574D01*
X0186942Y0226976D02*
X0169542Y0226976D01*
X0169542Y0226377D02*
X0186942Y0226377D01*
X0186942Y0225779D02*
X0169542Y0225779D01*
X0169542Y0225180D02*
X0186942Y0225180D01*
X0186942Y0224582D02*
X0169542Y0224582D01*
X0169542Y0223983D02*
X0186942Y0223983D01*
X0186942Y0223385D02*
X0169542Y0223385D01*
X0169542Y0222786D02*
X0186942Y0222786D01*
X0186942Y0222188D02*
X0169542Y0222188D01*
X0169542Y0221589D02*
X0186942Y0221589D01*
X0186942Y0220991D02*
X0169542Y0220991D01*
X0169542Y0220392D02*
X0186942Y0220392D01*
X0186942Y0219794D02*
X0169542Y0219794D01*
X0169542Y0219195D02*
X0186942Y0219195D01*
X0186942Y0218597D02*
X0169542Y0218597D01*
X0169542Y0217998D02*
X0186942Y0217998D01*
X0186942Y0217400D02*
X0169542Y0217400D01*
X0169542Y0216801D02*
X0186942Y0216801D01*
X0186942Y0216203D02*
X0169542Y0216203D01*
X0169542Y0215604D02*
X0186942Y0215604D01*
X0186942Y0215006D02*
X0169542Y0215006D01*
X0169542Y0214407D02*
X0186942Y0214407D01*
X0186554Y0213809D02*
X0169542Y0213809D01*
X0169542Y0213210D02*
X0185955Y0213210D01*
X0185356Y0212612D02*
X0169542Y0212612D01*
X0169542Y0212013D02*
X0184758Y0212013D01*
X0184159Y0211415D02*
X0169542Y0211415D01*
X0169542Y0210816D02*
X0183561Y0210816D01*
X0182962Y0210218D02*
X0169542Y0210218D01*
X0169542Y0209619D02*
X0182364Y0209619D01*
X0181765Y0209021D02*
X0169542Y0209021D01*
X0169542Y0208422D02*
X0181167Y0208422D01*
X0180568Y0207824D02*
X0169542Y0207824D01*
X0169542Y0207225D02*
X0179970Y0207225D01*
X0179371Y0206627D02*
X0169542Y0206627D01*
X0169542Y0206028D02*
X0178773Y0206028D01*
X0178174Y0205430D02*
X0169542Y0205430D01*
X0169542Y0204831D02*
X0177576Y0204831D01*
X0176977Y0204233D02*
X0169542Y0204233D01*
X0169542Y0203634D02*
X0176379Y0203634D01*
X0175780Y0203036D02*
X0169542Y0203036D01*
X0169542Y0202437D02*
X0175182Y0202437D01*
X0174583Y0201839D02*
X0169542Y0201839D01*
X0169542Y0201240D02*
X0173985Y0201240D01*
X0173386Y0200641D02*
X0169542Y0200641D01*
X0169542Y0200043D02*
X0172788Y0200043D01*
X0172189Y0199444D02*
X0169542Y0199444D01*
X0169542Y0198846D02*
X0171591Y0198846D01*
X0170992Y0198247D02*
X0169542Y0198247D01*
X0169542Y0197649D02*
X0170394Y0197649D01*
X0169795Y0197050D02*
X0169542Y0197050D01*
X0168342Y0195700D02*
X0164142Y0191500D01*
X0163542Y0191500D01*
X0158742Y0196300D01*
X0158342Y0196300D01*
X0160746Y0198846D02*
X0167142Y0198846D01*
X0167142Y0199444D02*
X0160147Y0199444D01*
X0161344Y0198247D02*
X0167142Y0198247D01*
X0167142Y0197649D02*
X0161842Y0197649D01*
X0161842Y0197050D02*
X0167142Y0197050D01*
X0167142Y0196452D02*
X0161842Y0196452D01*
X0161842Y0195853D02*
X0166798Y0195853D01*
X0166200Y0195255D02*
X0161842Y0195255D01*
X0162082Y0194656D02*
X0165601Y0194656D01*
X0165003Y0194058D02*
X0162681Y0194058D01*
X0163279Y0193459D02*
X0164404Y0193459D01*
X0164142Y0191500D02*
X0154542Y0181900D01*
X0154542Y0162700D01*
X0159942Y0157300D01*
X0159942Y0123100D01*
X0159942Y0121039D02*
X0159578Y0121039D01*
X0159942Y0120441D02*
X0158980Y0120441D01*
X0158381Y0119842D02*
X0160302Y0119842D01*
X0160901Y0119244D02*
X0157948Y0119244D01*
X0158546Y0118645D02*
X0161499Y0118645D01*
X0162098Y0118047D02*
X0159007Y0118047D01*
X0159254Y0117448D02*
X0162696Y0117448D01*
X0163295Y0116850D02*
X0159442Y0116850D01*
X0159442Y0116251D02*
X0163893Y0116251D01*
X0164492Y0115653D02*
X0159442Y0115653D01*
X0159214Y0115054D02*
X0165090Y0115054D01*
X0165689Y0114456D02*
X0158966Y0114456D01*
X0158449Y0113857D02*
X0166287Y0113857D01*
X0166886Y0113259D02*
X0157746Y0113259D01*
X0164295Y0119244D02*
X0178736Y0119244D01*
X0178759Y0119267D02*
X0177775Y0118283D01*
X0177242Y0116996D01*
X0177242Y0115604D01*
X0177775Y0114317D01*
X0178759Y0113333D01*
X0180046Y0112800D01*
X0186638Y0112800D01*
X0187924Y0113333D01*
X0188909Y0114317D01*
X0189442Y0115604D01*
X0189442Y0116996D01*
X0188909Y0118283D01*
X0187924Y0119267D01*
X0186638Y0119800D01*
X0180046Y0119800D01*
X0178759Y0119267D01*
X0178137Y0118645D02*
X0164893Y0118645D01*
X0165492Y0118047D02*
X0177677Y0118047D01*
X0177429Y0117448D02*
X0166090Y0117448D01*
X0166689Y0116850D02*
X0177242Y0116850D01*
X0177242Y0116251D02*
X0167287Y0116251D01*
X0167886Y0115653D02*
X0177242Y0115653D01*
X0177469Y0115054D02*
X0168484Y0115054D01*
X0169083Y0114456D02*
X0177717Y0114456D01*
X0178235Y0113857D02*
X0169681Y0113857D01*
X0170280Y0113259D02*
X0178938Y0113259D01*
X0179726Y0109668D02*
X0173871Y0109668D01*
X0173273Y0110266D02*
X0315811Y0110266D01*
X0315213Y0109668D02*
X0216957Y0109668D01*
X0218122Y0109069D02*
X0314614Y0109069D01*
X0314016Y0108471D02*
X0218721Y0108471D01*
X0219079Y0107872D02*
X0313417Y0107872D01*
X0312818Y0107274D02*
X0219327Y0107274D01*
X0219442Y0106675D02*
X0312220Y0106675D01*
X0311621Y0106077D02*
X0219442Y0106077D01*
X0219390Y0105478D02*
X0311023Y0105478D01*
X0310424Y0104880D02*
X0219142Y0104880D01*
X0218873Y0104281D02*
X0309826Y0104281D01*
X0309227Y0103683D02*
X0278256Y0103683D01*
X0278855Y0103084D02*
X0308629Y0103084D01*
X0308030Y0102486D02*
X0279453Y0102486D01*
X0280052Y0101887D02*
X0307432Y0101887D01*
X0306833Y0101289D02*
X0280650Y0101289D01*
X0281249Y0100690D02*
X0306235Y0100690D01*
X0305636Y0100092D02*
X0281847Y0100092D01*
X0282446Y0099493D02*
X0305038Y0099493D01*
X0304439Y0098895D02*
X0283044Y0098895D01*
X0283643Y0098296D02*
X0303841Y0098296D01*
X0303242Y0097698D02*
X0284241Y0097698D01*
X0284840Y0097099D02*
X0302644Y0097099D01*
X0302045Y0096501D02*
X0285438Y0096501D01*
X0286037Y0095902D02*
X0301447Y0095902D01*
X0300848Y0095303D02*
X0286635Y0095303D01*
X0287234Y0094705D02*
X0300250Y0094705D01*
X0299651Y0094106D02*
X0287832Y0094106D01*
X0288431Y0093508D02*
X0299053Y0093508D01*
X0298454Y0092909D02*
X0289029Y0092909D01*
X0289628Y0092311D02*
X0297856Y0092311D01*
X0297257Y0091712D02*
X0290226Y0091712D01*
X0290825Y0091114D02*
X0296659Y0091114D01*
X0296060Y0090515D02*
X0291423Y0090515D01*
X0292022Y0089917D02*
X0295462Y0089917D01*
X0294863Y0089318D02*
X0292620Y0089318D01*
X0293219Y0088720D02*
X0294265Y0088720D01*
X0293742Y0086500D02*
X0293742Y0066700D01*
X0293342Y0066300D01*
X0289842Y0066575D02*
X0286842Y0066575D01*
X0286842Y0067173D02*
X0289842Y0067173D01*
X0289842Y0067772D02*
X0286842Y0067772D01*
X0286842Y0068370D02*
X0289842Y0068370D01*
X0289842Y0068969D02*
X0286842Y0068969D01*
X0286842Y0069568D02*
X0289842Y0069568D01*
X0290078Y0070166D02*
X0286606Y0070166D01*
X0286358Y0070765D02*
X0290326Y0070765D01*
X0290855Y0071363D02*
X0285828Y0071363D01*
X0285096Y0071962D02*
X0291587Y0071962D01*
X0289842Y0065976D02*
X0286842Y0065976D01*
X0286842Y0065378D02*
X0289842Y0065378D01*
X0289842Y0064779D02*
X0286842Y0064779D01*
X0286842Y0064181D02*
X0289842Y0064181D01*
X0289842Y0063582D02*
X0286842Y0063582D01*
X0286834Y0062984D02*
X0289850Y0062984D01*
X0290098Y0062385D02*
X0286586Y0062385D01*
X0286338Y0061787D02*
X0290346Y0061787D01*
X0297129Y0060590D02*
X0301704Y0060590D01*
X0300904Y0061188D02*
X0297727Y0061188D01*
X0298326Y0061787D02*
X0300346Y0061787D01*
X0300098Y0062385D02*
X0298542Y0062385D01*
X0298542Y0062984D02*
X0299850Y0062984D01*
X0299842Y0063582D02*
X0298542Y0063582D01*
X0298542Y0064181D02*
X0299842Y0064181D01*
X0299842Y0064779D02*
X0298542Y0064779D01*
X0298542Y0065378D02*
X0299842Y0065378D01*
X0299842Y0065976D02*
X0298542Y0065976D01*
X0298542Y0066575D02*
X0299842Y0066575D01*
X0299842Y0067173D02*
X0298542Y0067173D01*
X0298911Y0067772D02*
X0299842Y0067772D01*
X0299842Y0068370D02*
X0299509Y0068370D01*
X0297342Y0067900D02*
X0342942Y0113500D01*
X0342942Y0126100D01*
X0343342Y0126300D01*
X0342942Y0126700D01*
X0342942Y0143500D01*
X0324942Y0161500D01*
X0340542Y0177100D01*
X0347742Y0177100D01*
X0350742Y0180100D01*
X0350742Y0183700D01*
X0343542Y0190900D01*
X0343342Y0191300D01*
X0345313Y0187431D02*
X0340307Y0187431D01*
X0342570Y0185168D01*
X0347080Y0185168D01*
X0347927Y0184817D01*
X0345313Y0187431D01*
X0345869Y0186876D02*
X0340863Y0186876D01*
X0341462Y0186277D02*
X0346468Y0186277D01*
X0347066Y0185679D02*
X0342060Y0185679D01*
X0342942Y0183100D02*
X0342942Y0181300D01*
X0343342Y0181300D01*
X0342942Y0183100D02*
X0317142Y0208900D01*
X0318342Y0209619D02*
X0362743Y0209619D01*
X0362743Y0209021D02*
X0318718Y0209021D01*
X0319317Y0208422D02*
X0362743Y0208422D01*
X0362743Y0207824D02*
X0319915Y0207824D01*
X0320514Y0207225D02*
X0362743Y0207225D01*
X0362743Y0206627D02*
X0321112Y0206627D01*
X0321711Y0206028D02*
X0362743Y0206028D01*
X0362743Y0205430D02*
X0322309Y0205430D01*
X0322908Y0204831D02*
X0362743Y0204831D01*
X0362743Y0204233D02*
X0323506Y0204233D01*
X0324105Y0203634D02*
X0362743Y0203634D01*
X0362743Y0203036D02*
X0324703Y0203036D01*
X0325302Y0202437D02*
X0362743Y0202437D01*
X0362743Y0201839D02*
X0325900Y0201839D01*
X0326499Y0201240D02*
X0362743Y0201240D01*
X0362743Y0200641D02*
X0327097Y0200641D01*
X0327696Y0200043D02*
X0362743Y0200043D01*
X0362743Y0199444D02*
X0328294Y0199444D01*
X0328893Y0198846D02*
X0362743Y0198846D01*
X0362743Y0198247D02*
X0329491Y0198247D01*
X0330090Y0197649D02*
X0362743Y0197649D01*
X0362743Y0197050D02*
X0330688Y0197050D01*
X0331287Y0196452D02*
X0362743Y0196452D01*
X0362743Y0195853D02*
X0331885Y0195853D01*
X0332484Y0195255D02*
X0362743Y0195255D01*
X0362743Y0194656D02*
X0348316Y0194656D01*
X0349023Y0194058D02*
X0362743Y0194058D01*
X0362743Y0193459D02*
X0349603Y0193459D01*
X0349851Y0192861D02*
X0362743Y0192861D01*
X0362743Y0192262D02*
X0350099Y0192262D01*
X0350179Y0191664D02*
X0362743Y0191664D01*
X0362743Y0191065D02*
X0350179Y0191065D01*
X0350152Y0190467D02*
X0362743Y0190467D01*
X0362743Y0189868D02*
X0349905Y0189868D01*
X0349657Y0189270D02*
X0362743Y0189270D01*
X0362743Y0188671D02*
X0349152Y0188671D01*
X0348554Y0188073D02*
X0362743Y0188073D01*
X0362743Y0187474D02*
X0348665Y0187474D01*
X0349263Y0186876D02*
X0362743Y0186876D01*
X0362743Y0186277D02*
X0349862Y0186277D01*
X0350460Y0185679D02*
X0362743Y0185679D01*
X0362743Y0185080D02*
X0351059Y0185080D01*
X0351657Y0184482D02*
X0362743Y0184482D01*
X0362743Y0183883D02*
X0351942Y0183883D01*
X0351942Y0183285D02*
X0362743Y0183285D01*
X0362743Y0182686D02*
X0351942Y0182686D01*
X0351942Y0182088D02*
X0362743Y0182088D01*
X0362743Y0181489D02*
X0351942Y0181489D01*
X0351942Y0180891D02*
X0362743Y0180891D01*
X0362743Y0180292D02*
X0351942Y0180292D01*
X0351942Y0179694D02*
X0362743Y0179694D01*
X0362743Y0179095D02*
X0351434Y0179095D01*
X0350835Y0178497D02*
X0362743Y0178497D01*
X0362743Y0177898D02*
X0350237Y0177898D01*
X0349638Y0177300D02*
X0362743Y0177300D01*
X0362743Y0176701D02*
X0349040Y0176701D01*
X0348441Y0176103D02*
X0362743Y0176103D01*
X0362743Y0175504D02*
X0340643Y0175504D01*
X0334256Y0172511D02*
X0299142Y0172511D01*
X0299142Y0171913D02*
X0333658Y0171913D01*
X0333059Y0171314D02*
X0299142Y0171314D01*
X0299142Y0170716D02*
X0332461Y0170716D01*
X0331862Y0170117D02*
X0299142Y0170117D01*
X0299142Y0169519D02*
X0331264Y0169519D01*
X0330665Y0168920D02*
X0299142Y0168920D01*
X0299142Y0168322D02*
X0330067Y0168322D01*
X0329468Y0167723D02*
X0299142Y0167723D01*
X0299142Y0167125D02*
X0328870Y0167125D01*
X0328271Y0166526D02*
X0299142Y0166526D01*
X0299142Y0165928D02*
X0327673Y0165928D01*
X0327074Y0165329D02*
X0299142Y0165329D01*
X0299142Y0164731D02*
X0311823Y0164731D01*
X0311224Y0164132D02*
X0299142Y0164132D01*
X0299142Y0163534D02*
X0310626Y0163534D01*
X0310027Y0162935D02*
X0299142Y0162935D01*
X0299142Y0162337D02*
X0309842Y0162337D01*
X0309842Y0161738D02*
X0299142Y0161738D01*
X0299142Y0161140D02*
X0309842Y0161140D01*
X0309842Y0160541D02*
X0299142Y0160541D01*
X0299142Y0159943D02*
X0309842Y0159943D01*
X0310348Y0159344D02*
X0299142Y0159344D01*
X0299142Y0158746D02*
X0310946Y0158746D01*
X0311545Y0158147D02*
X0299142Y0158147D01*
X0299142Y0157549D02*
X0327196Y0157549D01*
X0326598Y0158147D02*
X0315139Y0158147D01*
X0315737Y0158746D02*
X0325999Y0158746D01*
X0325401Y0159344D02*
X0316336Y0159344D01*
X0316842Y0159943D02*
X0324802Y0159943D01*
X0324942Y0161500D02*
X0313542Y0161500D01*
X0313342Y0161300D01*
X0316058Y0163534D02*
X0325279Y0163534D01*
X0325877Y0164132D02*
X0315459Y0164132D01*
X0314861Y0164731D02*
X0326476Y0164731D01*
X0324680Y0162935D02*
X0316656Y0162935D01*
X0327795Y0156950D02*
X0299142Y0156950D01*
X0299142Y0156352D02*
X0328393Y0156352D01*
X0328992Y0155753D02*
X0299142Y0155753D01*
X0299142Y0155155D02*
X0329590Y0155155D01*
X0330189Y0154556D02*
X0299142Y0154556D01*
X0299142Y0153958D02*
X0330787Y0153958D01*
X0331386Y0153359D02*
X0299142Y0153359D01*
X0299142Y0152761D02*
X0331984Y0152761D01*
X0332583Y0152162D02*
X0299142Y0152162D01*
X0299142Y0151564D02*
X0333181Y0151564D01*
X0333780Y0150965D02*
X0299142Y0150965D01*
X0299142Y0150367D02*
X0334378Y0150367D01*
X0334977Y0149768D02*
X0299824Y0149768D01*
X0300422Y0149170D02*
X0335575Y0149170D01*
X0336174Y0148571D02*
X0301021Y0148571D01*
X0301619Y0147972D02*
X0336772Y0147972D01*
X0337371Y0147374D02*
X0301842Y0147374D01*
X0301842Y0146775D02*
X0337969Y0146775D01*
X0338568Y0146177D02*
X0301842Y0146177D01*
X0301842Y0145578D02*
X0339166Y0145578D01*
X0339765Y0144980D02*
X0301842Y0144980D01*
X0301373Y0144381D02*
X0340363Y0144381D01*
X0340962Y0143783D02*
X0300774Y0143783D01*
X0300176Y0143184D02*
X0341560Y0143184D01*
X0341742Y0142586D02*
X0253753Y0142586D01*
X0253154Y0143184D02*
X0296508Y0143184D01*
X0295909Y0143783D02*
X0252556Y0143783D01*
X0251957Y0144381D02*
X0295311Y0144381D01*
X0294842Y0144980D02*
X0251842Y0144980D01*
X0251842Y0144850D02*
X0251665Y0144674D01*
X0268439Y0127900D01*
X0290030Y0127900D01*
X0290229Y0128380D01*
X0291262Y0129413D01*
X0292611Y0129972D01*
X0294072Y0129972D01*
X0295422Y0129413D01*
X0296454Y0128380D01*
X0297013Y0127030D01*
X0297013Y0125570D01*
X0296454Y0124220D01*
X0295422Y0123187D01*
X0294072Y0122628D01*
X0292611Y0122628D01*
X0291262Y0123187D01*
X0290229Y0124220D01*
X0289699Y0125500D01*
X0267445Y0125500D01*
X0249968Y0142977D01*
X0249792Y0142800D01*
X0246892Y0142800D01*
X0244842Y0144850D01*
X0244842Y0147750D01*
X0246892Y0149800D01*
X0249792Y0149800D01*
X0251842Y0147750D01*
X0251842Y0144850D01*
X0251842Y0145578D02*
X0294842Y0145578D01*
X0294842Y0146177D02*
X0251842Y0146177D01*
X0251842Y0146775D02*
X0294842Y0146775D01*
X0294842Y0147374D02*
X0251842Y0147374D01*
X0251619Y0147972D02*
X0295065Y0147972D01*
X0295663Y0148571D02*
X0251021Y0148571D01*
X0250422Y0149170D02*
X0296262Y0149170D01*
X0296742Y0149768D02*
X0249824Y0149768D01*
X0246860Y0149768D02*
X0226107Y0149768D01*
X0226705Y0150367D02*
X0296742Y0150367D01*
X0296742Y0150965D02*
X0227304Y0150965D01*
X0227639Y0151300D02*
X0227639Y0151300D01*
X0227902Y0151564D02*
X0296742Y0151564D01*
X0296742Y0152162D02*
X0228501Y0152162D01*
X0228342Y0152003D02*
X0228342Y0152003D01*
X0229099Y0152761D02*
X0296742Y0152761D01*
X0296742Y0153359D02*
X0229698Y0153359D01*
X0230296Y0153958D02*
X0296742Y0153958D01*
X0296742Y0154556D02*
X0230895Y0154556D01*
X0231493Y0155155D02*
X0296742Y0155155D01*
X0296742Y0155753D02*
X0232092Y0155753D01*
X0232690Y0156352D02*
X0296742Y0156352D01*
X0296742Y0156950D02*
X0233289Y0156950D01*
X0233888Y0157549D02*
X0296742Y0157549D01*
X0296742Y0158147D02*
X0234486Y0158147D01*
X0235085Y0158746D02*
X0296742Y0158746D01*
X0296742Y0159344D02*
X0235683Y0159344D01*
X0236282Y0159943D02*
X0296742Y0159943D01*
X0296742Y0160541D02*
X0236880Y0160541D01*
X0237479Y0161140D02*
X0296742Y0161140D01*
X0296742Y0161738D02*
X0238077Y0161738D01*
X0238676Y0162337D02*
X0296742Y0162337D01*
X0296742Y0162935D02*
X0284365Y0162935D01*
X0284038Y0162800D02*
X0285324Y0163333D01*
X0286309Y0164317D01*
X0286842Y0165604D01*
X0286842Y0166996D01*
X0286309Y0168283D01*
X0285324Y0169267D01*
X0284038Y0169800D01*
X0282646Y0169800D01*
X0281359Y0169267D01*
X0280375Y0168283D01*
X0279842Y0166996D01*
X0279842Y0165604D01*
X0280375Y0164317D01*
X0281359Y0163333D01*
X0282646Y0162800D01*
X0284038Y0162800D01*
X0285525Y0163534D02*
X0296742Y0163534D01*
X0296742Y0164132D02*
X0286124Y0164132D01*
X0286480Y0164731D02*
X0296742Y0164731D01*
X0296742Y0165329D02*
X0286728Y0165329D01*
X0286842Y0165928D02*
X0296742Y0165928D01*
X0296742Y0166526D02*
X0286842Y0166526D01*
X0286789Y0167125D02*
X0296742Y0167125D01*
X0296742Y0167723D02*
X0286541Y0167723D01*
X0286270Y0168322D02*
X0296742Y0168322D01*
X0296742Y0168920D02*
X0285671Y0168920D01*
X0284717Y0169519D02*
X0296742Y0169519D01*
X0296742Y0170117D02*
X0261021Y0170117D01*
X0260423Y0170716D02*
X0296742Y0170716D01*
X0296742Y0171314D02*
X0259824Y0171314D01*
X0259226Y0171913D02*
X0296742Y0171913D01*
X0296742Y0172511D02*
X0258627Y0172511D01*
X0258029Y0173110D02*
X0296742Y0173110D01*
X0296742Y0173708D02*
X0257430Y0173708D01*
X0256832Y0174307D02*
X0296742Y0174307D01*
X0296742Y0174905D02*
X0256233Y0174905D01*
X0255635Y0175504D02*
X0296742Y0175504D01*
X0296742Y0176103D02*
X0255036Y0176103D01*
X0254438Y0176701D02*
X0296742Y0176701D01*
X0296742Y0177300D02*
X0211842Y0177300D01*
X0211693Y0177898D02*
X0296742Y0177898D01*
X0296742Y0178497D02*
X0211095Y0178497D01*
X0210496Y0179095D02*
X0296742Y0179095D01*
X0296742Y0179694D02*
X0209898Y0179694D01*
X0208631Y0180292D02*
X0296742Y0180292D01*
X0296742Y0180891D02*
X0209142Y0180891D01*
X0209142Y0181489D02*
X0296742Y0181489D01*
X0296742Y0182088D02*
X0209142Y0182088D01*
X0209142Y0182686D02*
X0296742Y0182686D01*
X0296742Y0183285D02*
X0209142Y0183285D01*
X0209142Y0183883D02*
X0296742Y0183883D01*
X0296742Y0184482D02*
X0209142Y0184482D01*
X0209142Y0185080D02*
X0296742Y0185080D01*
X0296742Y0185679D02*
X0209142Y0185679D01*
X0209142Y0186277D02*
X0296742Y0186277D01*
X0296742Y0186876D02*
X0209142Y0186876D01*
X0209142Y0187474D02*
X0296742Y0187474D01*
X0296742Y0188073D02*
X0209142Y0188073D01*
X0209142Y0188671D02*
X0296742Y0188671D01*
X0296742Y0189270D02*
X0209142Y0189270D01*
X0209142Y0189868D02*
X0296742Y0189868D01*
X0296742Y0190467D02*
X0209142Y0190467D01*
X0209142Y0191065D02*
X0296742Y0191065D01*
X0296742Y0191664D02*
X0209142Y0191664D01*
X0209142Y0192262D02*
X0296742Y0192262D01*
X0296742Y0192861D02*
X0284185Y0192861D01*
X0285451Y0193459D02*
X0296742Y0193459D01*
X0296742Y0194058D02*
X0286049Y0194058D01*
X0286449Y0194656D02*
X0296742Y0194656D01*
X0296742Y0195255D02*
X0286697Y0195255D01*
X0286842Y0195853D02*
X0296742Y0195853D01*
X0296742Y0196452D02*
X0286842Y0196452D01*
X0286819Y0197050D02*
X0296742Y0197050D01*
X0296742Y0197649D02*
X0286571Y0197649D01*
X0286324Y0198247D02*
X0296742Y0198247D01*
X0297942Y0199900D02*
X0261942Y0199900D01*
X0258342Y0196300D01*
X0253342Y0196300D01*
X0256571Y0197649D02*
X0257994Y0197649D01*
X0258592Y0198247D02*
X0256324Y0198247D01*
X0255746Y0198846D02*
X0259191Y0198846D01*
X0259789Y0199444D02*
X0254896Y0199444D01*
X0251787Y0199444D02*
X0209142Y0199444D01*
X0209142Y0198846D02*
X0250938Y0198846D01*
X0250360Y0198247D02*
X0209142Y0198247D01*
X0209142Y0197649D02*
X0250112Y0197649D01*
X0249864Y0197050D02*
X0209142Y0197050D01*
X0209142Y0196452D02*
X0249842Y0196452D01*
X0249842Y0195853D02*
X0209142Y0195853D01*
X0209142Y0195255D02*
X0249986Y0195255D01*
X0250234Y0194656D02*
X0209142Y0194656D01*
X0209142Y0194058D02*
X0250634Y0194058D01*
X0251233Y0193459D02*
X0209142Y0193459D01*
X0209142Y0192861D02*
X0252499Y0192861D01*
X0254185Y0192861D02*
X0262499Y0192861D01*
X0261233Y0193459D02*
X0255451Y0193459D01*
X0256049Y0194058D02*
X0260634Y0194058D01*
X0260234Y0194656D02*
X0256449Y0194656D01*
X0258994Y0195255D02*
X0259986Y0195255D01*
X0259842Y0195853D02*
X0259592Y0195853D01*
X0260388Y0200043D02*
X0209142Y0200043D01*
X0209142Y0200641D02*
X0260986Y0200641D01*
X0266324Y0198247D02*
X0270360Y0198247D01*
X0270112Y0197649D02*
X0266571Y0197649D01*
X0266819Y0197050D02*
X0269864Y0197050D01*
X0269842Y0196452D02*
X0266842Y0196452D01*
X0266842Y0195853D02*
X0269842Y0195853D01*
X0269986Y0195255D02*
X0266697Y0195255D01*
X0266449Y0194656D02*
X0270234Y0194656D01*
X0270634Y0194058D02*
X0266049Y0194058D01*
X0265451Y0193459D02*
X0271233Y0193459D01*
X0272499Y0192861D02*
X0264185Y0192861D01*
X0274185Y0192861D02*
X0282499Y0192861D01*
X0281233Y0193459D02*
X0275451Y0193459D01*
X0276049Y0194058D02*
X0280634Y0194058D01*
X0280234Y0194656D02*
X0276449Y0194656D01*
X0276697Y0195255D02*
X0279986Y0195255D01*
X0279842Y0195853D02*
X0276842Y0195853D01*
X0276842Y0196452D02*
X0279842Y0196452D01*
X0279864Y0197050D02*
X0276819Y0197050D01*
X0276571Y0197649D02*
X0280112Y0197649D01*
X0280360Y0198247D02*
X0276324Y0198247D01*
X0290073Y0209619D02*
X0246611Y0209619D01*
X0246842Y0209850D02*
X0244792Y0207800D01*
X0241892Y0207800D01*
X0239842Y0209850D01*
X0239842Y0212750D01*
X0241892Y0214800D01*
X0244792Y0214800D01*
X0246842Y0212750D01*
X0246842Y0209850D01*
X0246842Y0210218D02*
X0289842Y0210218D01*
X0289842Y0210816D02*
X0246842Y0210816D01*
X0246842Y0211415D02*
X0289842Y0211415D01*
X0289842Y0212013D02*
X0246842Y0212013D01*
X0246842Y0212612D02*
X0289842Y0212612D01*
X0290302Y0213210D02*
X0246381Y0213210D01*
X0245783Y0213809D02*
X0290901Y0213809D01*
X0291499Y0214407D02*
X0245184Y0214407D01*
X0241499Y0214407D02*
X0210184Y0214407D01*
X0210783Y0213809D02*
X0240901Y0213809D01*
X0240302Y0213210D02*
X0211381Y0213210D01*
X0211842Y0212612D02*
X0239842Y0212612D01*
X0239842Y0212013D02*
X0211842Y0212013D01*
X0211842Y0211415D02*
X0239842Y0211415D01*
X0239842Y0210816D02*
X0211842Y0210816D01*
X0211842Y0210218D02*
X0239842Y0210218D01*
X0240073Y0209619D02*
X0211611Y0209619D01*
X0211012Y0209021D02*
X0240671Y0209021D01*
X0241270Y0208422D02*
X0210414Y0208422D01*
X0209815Y0207824D02*
X0241868Y0207824D01*
X0244815Y0207824D02*
X0291868Y0207824D01*
X0291270Y0208422D02*
X0245414Y0208422D01*
X0246012Y0209021D02*
X0290671Y0209021D01*
X0294815Y0207824D02*
X0296742Y0207824D01*
X0296742Y0208422D02*
X0295414Y0208422D01*
X0296012Y0209021D02*
X0296742Y0209021D01*
X0296742Y0209619D02*
X0296611Y0209619D01*
X0296742Y0207225D02*
X0209142Y0207225D01*
X0209142Y0206627D02*
X0296742Y0206627D01*
X0296742Y0206028D02*
X0209142Y0206028D01*
X0209142Y0205430D02*
X0296742Y0205430D01*
X0296742Y0204831D02*
X0209142Y0204831D01*
X0209142Y0204233D02*
X0296742Y0204233D01*
X0296742Y0203634D02*
X0209142Y0203634D01*
X0209142Y0203036D02*
X0296742Y0203036D01*
X0296742Y0202437D02*
X0209142Y0202437D01*
X0209142Y0201839D02*
X0296742Y0201839D01*
X0296742Y0201240D02*
X0209142Y0201240D01*
X0206742Y0201240D02*
X0194779Y0201240D01*
X0195377Y0201839D02*
X0206742Y0201839D01*
X0206742Y0202437D02*
X0195976Y0202437D01*
X0196574Y0203036D02*
X0206742Y0203036D01*
X0206742Y0203634D02*
X0197173Y0203634D01*
X0197771Y0204233D02*
X0206742Y0204233D01*
X0206742Y0204831D02*
X0198370Y0204831D01*
X0198968Y0205430D02*
X0206742Y0205430D01*
X0206742Y0206028D02*
X0199567Y0206028D01*
X0200165Y0206627D02*
X0206742Y0206627D01*
X0206742Y0207225D02*
X0200764Y0207225D01*
X0201362Y0207824D02*
X0206742Y0207824D01*
X0206270Y0208422D02*
X0201961Y0208422D01*
X0202559Y0209021D02*
X0205671Y0209021D01*
X0205073Y0209619D02*
X0203158Y0209619D01*
X0203757Y0210218D02*
X0204842Y0210218D01*
X0204842Y0210816D02*
X0204355Y0210816D01*
X0202756Y0212612D02*
X0188751Y0212612D01*
X0189342Y0213210D02*
X0203355Y0213210D01*
X0203953Y0213809D02*
X0189342Y0213809D01*
X0189342Y0214407D02*
X0204552Y0214407D01*
X0205151Y0215006D02*
X0189342Y0215006D01*
X0189342Y0215604D02*
X0205749Y0215604D01*
X0206348Y0216203D02*
X0189342Y0216203D01*
X0189342Y0216801D02*
X0206946Y0216801D01*
X0207545Y0217400D02*
X0189342Y0217400D01*
X0189342Y0217998D02*
X0208143Y0217998D01*
X0208742Y0218597D02*
X0189342Y0218597D01*
X0189342Y0219195D02*
X0209340Y0219195D01*
X0209939Y0219794D02*
X0189342Y0219794D01*
X0189342Y0220392D02*
X0210537Y0220392D01*
X0211136Y0220991D02*
X0189342Y0220991D01*
X0189342Y0221589D02*
X0211734Y0221589D01*
X0212333Y0222188D02*
X0189342Y0222188D01*
X0189342Y0222786D02*
X0212931Y0222786D01*
X0213530Y0223385D02*
X0189342Y0223385D01*
X0189342Y0223983D02*
X0214128Y0223983D01*
X0214727Y0224582D02*
X0189342Y0224582D01*
X0189342Y0225180D02*
X0215325Y0225180D01*
X0215924Y0225779D02*
X0189342Y0225779D01*
X0189342Y0226377D02*
X0216522Y0226377D01*
X0217121Y0226976D02*
X0189342Y0226976D01*
X0189342Y0227574D02*
X0217719Y0227574D01*
X0218318Y0228173D02*
X0189342Y0228173D01*
X0189342Y0228772D02*
X0218916Y0228772D01*
X0219515Y0229370D02*
X0189342Y0229370D01*
X0189342Y0229969D02*
X0220113Y0229969D01*
X0220712Y0230567D02*
X0189342Y0230567D01*
X0189342Y0231166D02*
X0221310Y0231166D01*
X0221909Y0231764D02*
X0189342Y0231764D01*
X0189342Y0232363D02*
X0239842Y0232363D01*
X0240053Y0232961D02*
X0189342Y0232961D01*
X0189342Y0233560D02*
X0240652Y0233560D01*
X0243342Y0231300D02*
X0243342Y0231100D01*
X0222942Y0231100D01*
X0189942Y0198100D01*
X0189942Y0153100D01*
X0183342Y0146500D01*
X0183342Y0146300D01*
X0185511Y0150367D02*
X0162342Y0150367D01*
X0162342Y0150965D02*
X0186110Y0150965D01*
X0186708Y0151564D02*
X0162342Y0151564D01*
X0162342Y0152162D02*
X0187307Y0152162D01*
X0187905Y0152761D02*
X0162342Y0152761D01*
X0162342Y0153359D02*
X0178733Y0153359D01*
X0178134Y0153958D02*
X0162342Y0153958D01*
X0162342Y0154556D02*
X0177676Y0154556D01*
X0177428Y0155155D02*
X0162342Y0155155D01*
X0162342Y0155753D02*
X0177242Y0155753D01*
X0177242Y0156352D02*
X0162342Y0156352D01*
X0162342Y0156950D02*
X0177242Y0156950D01*
X0177471Y0157549D02*
X0162342Y0157549D01*
X0162342Y0158147D02*
X0177719Y0158147D01*
X0178238Y0158746D02*
X0162342Y0158746D01*
X0162342Y0159344D02*
X0178945Y0159344D01*
X0187738Y0159344D02*
X0188742Y0159344D01*
X0188742Y0158746D02*
X0188446Y0158746D01*
X0188742Y0159943D02*
X0162342Y0159943D01*
X0162342Y0160541D02*
X0188742Y0160541D01*
X0188742Y0161140D02*
X0162342Y0161140D01*
X0162342Y0161738D02*
X0188742Y0161738D01*
X0188742Y0162337D02*
X0162342Y0162337D01*
X0162342Y0162935D02*
X0188742Y0162935D01*
X0188742Y0163534D02*
X0162342Y0163534D01*
X0162342Y0164132D02*
X0188742Y0164132D01*
X0188742Y0164731D02*
X0162342Y0164731D01*
X0162342Y0165329D02*
X0188742Y0165329D01*
X0188742Y0165928D02*
X0162342Y0165928D01*
X0162342Y0166526D02*
X0188742Y0166526D01*
X0188742Y0167125D02*
X0162342Y0167125D01*
X0162342Y0167723D02*
X0188742Y0167723D01*
X0188742Y0168322D02*
X0162342Y0168322D01*
X0162342Y0168920D02*
X0188742Y0168920D01*
X0188742Y0169519D02*
X0162342Y0169519D01*
X0162342Y0170117D02*
X0188742Y0170117D01*
X0188742Y0170716D02*
X0162342Y0170716D01*
X0162342Y0171314D02*
X0188742Y0171314D01*
X0188742Y0171913D02*
X0162342Y0171913D01*
X0162342Y0172511D02*
X0188742Y0172511D01*
X0188742Y0173110D02*
X0162342Y0173110D01*
X0162342Y0173708D02*
X0188742Y0173708D01*
X0188742Y0174307D02*
X0162032Y0174307D01*
X0161842Y0174905D02*
X0188742Y0174905D01*
X0188742Y0175504D02*
X0161842Y0175504D01*
X0161842Y0176103D02*
X0188742Y0176103D01*
X0188742Y0176701D02*
X0161842Y0176701D01*
X0161842Y0177300D02*
X0188742Y0177300D01*
X0188742Y0177898D02*
X0161693Y0177898D01*
X0161095Y0178497D02*
X0188742Y0178497D01*
X0188742Y0179095D02*
X0160496Y0179095D01*
X0159942Y0179694D02*
X0188742Y0179694D01*
X0188742Y0180292D02*
X0159942Y0180292D01*
X0159942Y0180891D02*
X0188742Y0180891D01*
X0188742Y0181489D02*
X0159942Y0181489D01*
X0159942Y0182088D02*
X0188742Y0182088D01*
X0188742Y0182686D02*
X0159942Y0182686D01*
X0159942Y0183285D02*
X0188742Y0183285D01*
X0188742Y0183883D02*
X0160022Y0183883D01*
X0160621Y0184482D02*
X0188742Y0184482D01*
X0188742Y0185080D02*
X0161219Y0185080D01*
X0161818Y0185679D02*
X0188742Y0185679D01*
X0188742Y0186277D02*
X0162416Y0186277D01*
X0163015Y0186876D02*
X0188742Y0186876D01*
X0188742Y0187474D02*
X0163613Y0187474D01*
X0164212Y0188073D02*
X0188742Y0188073D01*
X0188742Y0188671D02*
X0164810Y0188671D01*
X0165409Y0189270D02*
X0188742Y0189270D01*
X0188742Y0189868D02*
X0166007Y0189868D01*
X0166606Y0190467D02*
X0188742Y0190467D01*
X0188742Y0191065D02*
X0167204Y0191065D01*
X0167803Y0191664D02*
X0188742Y0191664D01*
X0188742Y0192262D02*
X0168401Y0192262D01*
X0169000Y0192861D02*
X0188742Y0192861D01*
X0188742Y0193459D02*
X0169598Y0193459D01*
X0170197Y0194058D02*
X0188742Y0194058D01*
X0188742Y0194656D02*
X0170795Y0194656D01*
X0171394Y0195255D02*
X0188742Y0195255D01*
X0188742Y0195853D02*
X0171992Y0195853D01*
X0172591Y0196452D02*
X0188742Y0196452D01*
X0188742Y0197050D02*
X0173189Y0197050D01*
X0173788Y0197649D02*
X0188742Y0197649D01*
X0188742Y0198247D02*
X0174386Y0198247D01*
X0174985Y0198846D02*
X0188991Y0198846D01*
X0189589Y0199444D02*
X0175583Y0199444D01*
X0176182Y0200043D02*
X0190188Y0200043D01*
X0190786Y0200641D02*
X0176780Y0200641D01*
X0177379Y0201240D02*
X0191385Y0201240D01*
X0191983Y0201839D02*
X0177977Y0201839D01*
X0178576Y0202437D02*
X0192582Y0202437D01*
X0193180Y0203036D02*
X0179174Y0203036D01*
X0179773Y0203634D02*
X0193779Y0203634D01*
X0194377Y0204233D02*
X0180371Y0204233D01*
X0180970Y0204831D02*
X0194976Y0204831D01*
X0195574Y0205430D02*
X0181568Y0205430D01*
X0182167Y0206028D02*
X0196173Y0206028D01*
X0196771Y0206627D02*
X0182765Y0206627D01*
X0183364Y0207225D02*
X0197370Y0207225D01*
X0197968Y0207824D02*
X0183962Y0207824D01*
X0184561Y0208422D02*
X0198567Y0208422D01*
X0199165Y0209021D02*
X0185159Y0209021D01*
X0185758Y0209619D02*
X0199764Y0209619D01*
X0200362Y0210218D02*
X0186357Y0210218D01*
X0186955Y0210816D02*
X0200961Y0210816D01*
X0201559Y0211415D02*
X0187554Y0211415D01*
X0188152Y0212013D02*
X0202158Y0212013D01*
X0207942Y0211300D02*
X0208342Y0211300D01*
X0207942Y0211300D02*
X0207942Y0181300D01*
X0204342Y0177700D01*
X0204342Y0175300D01*
X0227142Y0152500D01*
X0240942Y0166300D01*
X0253342Y0166300D01*
X0254717Y0169519D02*
X0258226Y0169519D01*
X0258824Y0168920D02*
X0255671Y0168920D01*
X0256270Y0168322D02*
X0259423Y0168322D01*
X0260021Y0167723D02*
X0256541Y0167723D01*
X0256789Y0167125D02*
X0259895Y0167125D01*
X0259842Y0166526D02*
X0256842Y0166526D01*
X0256842Y0165928D02*
X0259842Y0165928D01*
X0259955Y0165329D02*
X0256728Y0165329D01*
X0256480Y0164731D02*
X0260203Y0164731D01*
X0260560Y0164132D02*
X0256124Y0164132D01*
X0255525Y0163534D02*
X0261158Y0163534D01*
X0262319Y0162935D02*
X0254365Y0162935D01*
X0252319Y0162935D02*
X0239274Y0162935D01*
X0239873Y0163534D02*
X0251158Y0163534D01*
X0250560Y0164132D02*
X0240471Y0164132D01*
X0241070Y0164731D02*
X0250203Y0164731D01*
X0250143Y0167723D02*
X0213615Y0167723D01*
X0213017Y0168322D02*
X0250414Y0168322D01*
X0251012Y0168920D02*
X0212418Y0168920D01*
X0211820Y0169519D02*
X0251967Y0169519D01*
X0255233Y0172511D02*
X0208827Y0172511D01*
X0209426Y0171913D02*
X0255832Y0171913D01*
X0256430Y0171314D02*
X0210024Y0171314D01*
X0210623Y0170716D02*
X0257029Y0170716D01*
X0257627Y0170117D02*
X0211221Y0170117D01*
X0209623Y0168322D02*
X0191142Y0168322D01*
X0191142Y0168920D02*
X0209024Y0168920D01*
X0208426Y0169519D02*
X0191142Y0169519D01*
X0191142Y0170117D02*
X0207827Y0170117D01*
X0207229Y0170716D02*
X0191142Y0170716D01*
X0191142Y0171314D02*
X0206630Y0171314D01*
X0206032Y0171913D02*
X0191142Y0171913D01*
X0191142Y0172511D02*
X0205433Y0172511D01*
X0204835Y0173110D02*
X0191142Y0173110D01*
X0191142Y0173708D02*
X0204236Y0173708D01*
X0203638Y0174307D02*
X0191142Y0174307D01*
X0191142Y0174905D02*
X0203142Y0174905D01*
X0203142Y0175504D02*
X0191142Y0175504D01*
X0191142Y0176103D02*
X0203142Y0176103D01*
X0203142Y0176701D02*
X0191142Y0176701D01*
X0191142Y0177300D02*
X0203142Y0177300D01*
X0203142Y0177898D02*
X0191142Y0177898D01*
X0191142Y0178497D02*
X0203441Y0178497D01*
X0204040Y0179095D02*
X0191142Y0179095D01*
X0191142Y0179694D02*
X0204638Y0179694D01*
X0205237Y0180292D02*
X0191142Y0180292D01*
X0191142Y0180891D02*
X0205835Y0180891D01*
X0206434Y0181489D02*
X0191142Y0181489D01*
X0191142Y0182088D02*
X0206742Y0182088D01*
X0206742Y0182686D02*
X0191142Y0182686D01*
X0191142Y0183285D02*
X0206742Y0183285D01*
X0206742Y0183883D02*
X0191142Y0183883D01*
X0191142Y0184482D02*
X0206742Y0184482D01*
X0206742Y0185080D02*
X0191142Y0185080D01*
X0191142Y0185679D02*
X0206742Y0185679D01*
X0206742Y0186277D02*
X0191142Y0186277D01*
X0191142Y0186876D02*
X0206742Y0186876D01*
X0206742Y0187474D02*
X0191142Y0187474D01*
X0191142Y0188073D02*
X0206742Y0188073D01*
X0206742Y0188671D02*
X0191142Y0188671D01*
X0191142Y0189270D02*
X0206742Y0189270D01*
X0206742Y0189868D02*
X0191142Y0189868D01*
X0191142Y0190467D02*
X0206742Y0190467D01*
X0206742Y0191065D02*
X0191142Y0191065D01*
X0191142Y0191664D02*
X0206742Y0191664D01*
X0206742Y0192262D02*
X0191142Y0192262D01*
X0191142Y0192861D02*
X0206742Y0192861D01*
X0206742Y0193459D02*
X0191142Y0193459D01*
X0191142Y0194058D02*
X0206742Y0194058D01*
X0206742Y0194656D02*
X0191142Y0194656D01*
X0191142Y0195255D02*
X0206742Y0195255D01*
X0206742Y0195853D02*
X0191142Y0195853D01*
X0191142Y0196452D02*
X0206742Y0196452D01*
X0206742Y0197050D02*
X0191142Y0197050D01*
X0191188Y0197649D02*
X0206742Y0197649D01*
X0206742Y0198247D02*
X0191786Y0198247D01*
X0192385Y0198846D02*
X0206742Y0198846D01*
X0206742Y0199444D02*
X0192983Y0199444D01*
X0193582Y0200043D02*
X0206742Y0200043D01*
X0206742Y0200641D02*
X0194180Y0200641D01*
X0208545Y0215006D02*
X0293139Y0215006D01*
X0292542Y0215604D02*
X0209143Y0215604D01*
X0209742Y0216203D02*
X0292542Y0216203D01*
X0292542Y0216801D02*
X0210340Y0216801D01*
X0210939Y0217400D02*
X0292542Y0217400D01*
X0292542Y0217998D02*
X0211537Y0217998D01*
X0212136Y0218597D02*
X0292542Y0218597D01*
X0292542Y0219195D02*
X0212734Y0219195D01*
X0213333Y0219794D02*
X0292542Y0219794D01*
X0292542Y0220392D02*
X0213931Y0220392D01*
X0214530Y0220991D02*
X0292542Y0220991D01*
X0292542Y0221589D02*
X0215128Y0221589D01*
X0215727Y0222188D02*
X0292542Y0222188D01*
X0292542Y0222786D02*
X0216325Y0222786D01*
X0216924Y0223385D02*
X0292542Y0223385D01*
X0292542Y0223983D02*
X0217522Y0223983D01*
X0218121Y0224582D02*
X0292542Y0224582D01*
X0292542Y0225180D02*
X0218719Y0225180D01*
X0219318Y0225779D02*
X0292542Y0225779D01*
X0292542Y0226377D02*
X0219916Y0226377D01*
X0220515Y0226976D02*
X0292542Y0226976D01*
X0292542Y0227574D02*
X0221113Y0227574D01*
X0221712Y0228173D02*
X0241519Y0228173D01*
X0240921Y0228772D02*
X0222310Y0228772D01*
X0222909Y0229370D02*
X0240322Y0229370D01*
X0245165Y0228173D02*
X0291519Y0228173D01*
X0290921Y0228772D02*
X0245763Y0228772D01*
X0246362Y0229370D02*
X0290322Y0229370D01*
X0289842Y0229969D02*
X0246842Y0229969D01*
X0246842Y0230567D02*
X0289842Y0230567D01*
X0289842Y0231166D02*
X0246842Y0231166D01*
X0246842Y0231764D02*
X0289842Y0231764D01*
X0289842Y0232363D02*
X0246842Y0232363D01*
X0246630Y0232961D02*
X0290053Y0232961D01*
X0290652Y0233560D02*
X0246032Y0233560D01*
X0293342Y0231300D02*
X0293742Y0231100D01*
X0293742Y0216100D01*
X0297942Y0211900D01*
X0297942Y0199900D01*
X0297942Y0146500D01*
X0298342Y0146300D01*
X0282319Y0162935D02*
X0274365Y0162935D01*
X0274038Y0162800D02*
X0275324Y0163333D01*
X0276309Y0164317D01*
X0276842Y0165604D01*
X0276842Y0166996D01*
X0276309Y0168283D01*
X0275324Y0169267D01*
X0274038Y0169800D01*
X0272646Y0169800D01*
X0271359Y0169267D01*
X0270375Y0168283D01*
X0269842Y0166996D01*
X0269842Y0165604D01*
X0270375Y0164317D01*
X0271359Y0163333D01*
X0272646Y0162800D01*
X0274038Y0162800D01*
X0275525Y0163534D02*
X0281158Y0163534D01*
X0280560Y0164132D02*
X0276124Y0164132D01*
X0276480Y0164731D02*
X0280203Y0164731D01*
X0279955Y0165329D02*
X0276728Y0165329D01*
X0276842Y0165928D02*
X0279842Y0165928D01*
X0279842Y0166526D02*
X0276842Y0166526D01*
X0276789Y0167125D02*
X0279895Y0167125D01*
X0280143Y0167723D02*
X0276541Y0167723D01*
X0276270Y0168322D02*
X0280414Y0168322D01*
X0281012Y0168920D02*
X0275671Y0168920D01*
X0274717Y0169519D02*
X0281967Y0169519D01*
X0271967Y0169519D02*
X0264717Y0169519D01*
X0265671Y0168920D02*
X0271012Y0168920D01*
X0270414Y0168322D02*
X0266270Y0168322D01*
X0266541Y0167723D02*
X0270143Y0167723D01*
X0269895Y0167125D02*
X0266789Y0167125D01*
X0266842Y0166526D02*
X0269842Y0166526D01*
X0269842Y0165928D02*
X0266842Y0165928D01*
X0266728Y0165329D02*
X0269955Y0165329D01*
X0270203Y0164731D02*
X0266480Y0164731D01*
X0266124Y0164132D02*
X0270560Y0164132D01*
X0271158Y0163534D02*
X0265525Y0163534D01*
X0264365Y0162935D02*
X0272319Y0162935D01*
X0263342Y0166300D02*
X0263142Y0166300D01*
X0253542Y0175900D01*
X0208542Y0175900D01*
X0208342Y0176300D01*
X0210700Y0173708D02*
X0254036Y0173708D01*
X0254635Y0173110D02*
X0210102Y0173110D01*
X0211299Y0174307D02*
X0253438Y0174307D01*
X0261620Y0169519D02*
X0261967Y0169519D01*
X0240070Y0167125D02*
X0214214Y0167125D01*
X0214812Y0166526D02*
X0239471Y0166526D01*
X0238873Y0165928D02*
X0215411Y0165928D01*
X0216010Y0165329D02*
X0238274Y0165329D01*
X0237676Y0164731D02*
X0216608Y0164731D01*
X0217207Y0164132D02*
X0237077Y0164132D01*
X0236479Y0163534D02*
X0217805Y0163534D01*
X0218404Y0162935D02*
X0235880Y0162935D01*
X0235282Y0162337D02*
X0219002Y0162337D01*
X0219601Y0161738D02*
X0234683Y0161738D01*
X0234085Y0161140D02*
X0220199Y0161140D01*
X0220798Y0160541D02*
X0233486Y0160541D01*
X0232887Y0159943D02*
X0221396Y0159943D01*
X0221995Y0159344D02*
X0232289Y0159344D01*
X0231690Y0158746D02*
X0222593Y0158746D01*
X0223192Y0158147D02*
X0231092Y0158147D01*
X0230493Y0157549D02*
X0223790Y0157549D01*
X0224389Y0156950D02*
X0229895Y0156950D01*
X0229296Y0156352D02*
X0224987Y0156352D01*
X0225586Y0155753D02*
X0228698Y0155753D01*
X0228099Y0155155D02*
X0226184Y0155155D01*
X0226783Y0154556D02*
X0227501Y0154556D01*
X0227142Y0152500D02*
X0214542Y0139900D01*
X0196542Y0139900D01*
X0183342Y0126700D01*
X0183342Y0126300D01*
X0184962Y0130017D02*
X0162342Y0130017D01*
X0162342Y0129419D02*
X0179125Y0129419D01*
X0178312Y0128820D02*
X0162342Y0128820D01*
X0162342Y0128222D02*
X0177749Y0128222D01*
X0177501Y0127623D02*
X0162342Y0127623D01*
X0162342Y0127025D02*
X0177254Y0127025D01*
X0177242Y0126426D02*
X0162342Y0126426D01*
X0162342Y0125828D02*
X0177242Y0125828D01*
X0177397Y0125229D02*
X0162342Y0125229D01*
X0162342Y0124631D02*
X0177645Y0124631D01*
X0178060Y0124032D02*
X0162342Y0124032D01*
X0162342Y0123434D02*
X0178659Y0123434D01*
X0179961Y0122835D02*
X0162342Y0122835D01*
X0162342Y0122237D02*
X0341742Y0122237D01*
X0341742Y0122835D02*
X0294571Y0122835D01*
X0295668Y0123434D02*
X0341016Y0123434D01*
X0340417Y0124032D02*
X0296266Y0124032D01*
X0296624Y0124631D02*
X0340059Y0124631D01*
X0339811Y0125229D02*
X0296872Y0125229D01*
X0297013Y0125828D02*
X0339670Y0125828D01*
X0339670Y0126426D02*
X0297013Y0126426D01*
X0297013Y0127025D02*
X0339670Y0127025D01*
X0339916Y0127623D02*
X0296768Y0127623D01*
X0296520Y0128222D02*
X0340164Y0128222D01*
X0340669Y0128820D02*
X0296014Y0128820D01*
X0295407Y0129419D02*
X0341276Y0129419D01*
X0341742Y0130017D02*
X0266322Y0130017D01*
X0266920Y0129419D02*
X0291276Y0129419D01*
X0290669Y0128820D02*
X0267519Y0128820D01*
X0268117Y0128222D02*
X0290164Y0128222D01*
X0289811Y0125229D02*
X0219287Y0125229D01*
X0219442Y0125604D02*
X0219442Y0126996D01*
X0218909Y0128283D01*
X0217924Y0129267D01*
X0216638Y0129800D01*
X0210046Y0129800D01*
X0208759Y0129267D01*
X0207775Y0128283D01*
X0207242Y0126996D01*
X0207242Y0125604D01*
X0207775Y0124317D01*
X0208759Y0123333D01*
X0210046Y0122800D01*
X0216638Y0122800D01*
X0217924Y0123333D01*
X0218909Y0124317D01*
X0219442Y0125604D01*
X0219442Y0125828D02*
X0267117Y0125828D01*
X0266519Y0126426D02*
X0219442Y0126426D01*
X0219430Y0127025D02*
X0265920Y0127025D01*
X0265322Y0127623D02*
X0219182Y0127623D01*
X0218934Y0128222D02*
X0264723Y0128222D01*
X0264125Y0128820D02*
X0218371Y0128820D01*
X0217559Y0129419D02*
X0263526Y0129419D01*
X0262928Y0130017D02*
X0188356Y0130017D01*
X0187757Y0129419D02*
X0209125Y0129419D01*
X0208312Y0128820D02*
X0188371Y0128820D01*
X0188934Y0128222D02*
X0207749Y0128222D01*
X0207501Y0127623D02*
X0189182Y0127623D01*
X0189430Y0127025D02*
X0207254Y0127025D01*
X0207242Y0126426D02*
X0189442Y0126426D01*
X0189442Y0125828D02*
X0207242Y0125828D01*
X0207397Y0125229D02*
X0189287Y0125229D01*
X0189039Y0124631D02*
X0207645Y0124631D01*
X0208060Y0124032D02*
X0188624Y0124032D01*
X0188025Y0123434D02*
X0208659Y0123434D01*
X0209961Y0122835D02*
X0186723Y0122835D01*
X0187948Y0119244D02*
X0208736Y0119244D01*
X0208759Y0119267D02*
X0207775Y0118283D01*
X0207242Y0116996D01*
X0207242Y0115604D01*
X0207775Y0114317D01*
X0208759Y0113333D01*
X0210046Y0112800D01*
X0216638Y0112800D01*
X0217924Y0113333D01*
X0218909Y0114317D01*
X0219442Y0115604D01*
X0219442Y0116996D01*
X0218909Y0118283D01*
X0217924Y0119267D01*
X0216638Y0119800D01*
X0210046Y0119800D01*
X0208759Y0119267D01*
X0208137Y0118645D02*
X0188546Y0118645D01*
X0189007Y0118047D02*
X0207677Y0118047D01*
X0207429Y0117448D02*
X0189254Y0117448D01*
X0189442Y0116850D02*
X0207242Y0116850D01*
X0207242Y0116251D02*
X0189442Y0116251D01*
X0189442Y0115653D02*
X0207242Y0115653D01*
X0207469Y0115054D02*
X0189214Y0115054D01*
X0188966Y0114456D02*
X0207717Y0114456D01*
X0208235Y0113857D02*
X0188449Y0113857D01*
X0187746Y0113259D02*
X0208938Y0113259D01*
X0209726Y0109668D02*
X0186957Y0109668D01*
X0188122Y0109069D02*
X0208561Y0109069D01*
X0207963Y0108471D02*
X0188721Y0108471D01*
X0189079Y0107872D02*
X0207605Y0107872D01*
X0207357Y0107274D02*
X0206265Y0107274D01*
X0206742Y0106797D02*
X0206742Y0106797D01*
X0206864Y0106675D02*
X0207242Y0106675D01*
X0205542Y0106300D02*
X0209142Y0102700D01*
X0277542Y0102700D01*
X0291016Y0123434D02*
X0218025Y0123434D01*
X0218624Y0124032D02*
X0290417Y0124032D01*
X0290059Y0124631D02*
X0219039Y0124631D01*
X0216723Y0122835D02*
X0292113Y0122835D01*
X0293342Y0126300D02*
X0293142Y0126700D01*
X0267942Y0126700D01*
X0248342Y0146300D01*
X0245909Y0143783D02*
X0220122Y0143783D01*
X0220720Y0144381D02*
X0245311Y0144381D01*
X0244842Y0144980D02*
X0221319Y0144980D01*
X0221917Y0145578D02*
X0244842Y0145578D01*
X0244842Y0146177D02*
X0222516Y0146177D01*
X0223114Y0146775D02*
X0244842Y0146775D01*
X0244842Y0147374D02*
X0223713Y0147374D01*
X0224311Y0147972D02*
X0245065Y0147972D01*
X0245663Y0148571D02*
X0224910Y0148571D01*
X0225508Y0149170D02*
X0246262Y0149170D01*
X0246508Y0143184D02*
X0219523Y0143184D01*
X0218925Y0142586D02*
X0250359Y0142586D01*
X0250957Y0141987D02*
X0218326Y0141987D01*
X0217728Y0141389D02*
X0251556Y0141389D01*
X0252154Y0140790D02*
X0217129Y0140790D01*
X0216531Y0140192D02*
X0252753Y0140192D01*
X0253351Y0139593D02*
X0217137Y0139593D01*
X0218197Y0138995D02*
X0253950Y0138995D01*
X0254548Y0138396D02*
X0218795Y0138396D01*
X0219110Y0137798D02*
X0255147Y0137798D01*
X0255745Y0137199D02*
X0219358Y0137199D01*
X0219442Y0136601D02*
X0256344Y0136601D01*
X0256942Y0136002D02*
X0219442Y0136002D01*
X0219359Y0135404D02*
X0257541Y0135404D01*
X0258140Y0134805D02*
X0219111Y0134805D01*
X0218798Y0134207D02*
X0258738Y0134207D01*
X0259337Y0133608D02*
X0218200Y0133608D01*
X0217144Y0133010D02*
X0259935Y0133010D01*
X0260534Y0132411D02*
X0190750Y0132411D01*
X0190152Y0131813D02*
X0261132Y0131813D01*
X0261731Y0131214D02*
X0189553Y0131214D01*
X0188955Y0130616D02*
X0262329Y0130616D01*
X0263928Y0132411D02*
X0341742Y0132411D01*
X0341742Y0131813D02*
X0264526Y0131813D01*
X0265125Y0131214D02*
X0341742Y0131214D01*
X0341742Y0130616D02*
X0265723Y0130616D01*
X0263329Y0133010D02*
X0341742Y0133010D01*
X0341742Y0133608D02*
X0262731Y0133608D01*
X0262132Y0134207D02*
X0341742Y0134207D01*
X0341742Y0134805D02*
X0261534Y0134805D01*
X0260935Y0135404D02*
X0341742Y0135404D01*
X0341742Y0136002D02*
X0260337Y0136002D01*
X0259738Y0136601D02*
X0341742Y0136601D01*
X0341742Y0137199D02*
X0259140Y0137199D01*
X0258541Y0137798D02*
X0341742Y0137798D01*
X0341742Y0138396D02*
X0257943Y0138396D01*
X0257344Y0138995D02*
X0341742Y0138995D01*
X0341742Y0139593D02*
X0256746Y0139593D01*
X0256147Y0140192D02*
X0341742Y0140192D01*
X0341742Y0140790D02*
X0255548Y0140790D01*
X0254950Y0141389D02*
X0341742Y0141389D01*
X0341742Y0141987D02*
X0254351Y0141987D01*
X0225107Y0152162D02*
X0190701Y0152162D01*
X0191142Y0152761D02*
X0225184Y0152761D01*
X0224586Y0153359D02*
X0217951Y0153359D01*
X0217924Y0153333D02*
X0218909Y0154317D01*
X0219442Y0155604D01*
X0219442Y0156996D01*
X0218909Y0158283D01*
X0217924Y0159267D01*
X0216638Y0159800D01*
X0210046Y0159800D01*
X0208759Y0159267D01*
X0207775Y0158283D01*
X0207242Y0156996D01*
X0207242Y0155604D01*
X0207775Y0154317D01*
X0208759Y0153333D01*
X0210046Y0152800D01*
X0216638Y0152800D01*
X0217924Y0153333D01*
X0218549Y0153958D02*
X0223987Y0153958D01*
X0223389Y0154556D02*
X0219008Y0154556D01*
X0219256Y0155155D02*
X0222790Y0155155D01*
X0222192Y0155753D02*
X0219442Y0155753D01*
X0219442Y0156352D02*
X0221593Y0156352D01*
X0220995Y0156950D02*
X0219442Y0156950D01*
X0219213Y0157549D02*
X0220396Y0157549D01*
X0219798Y0158147D02*
X0218965Y0158147D01*
X0219199Y0158746D02*
X0218446Y0158746D01*
X0218601Y0159344D02*
X0217738Y0159344D01*
X0218002Y0159943D02*
X0191142Y0159943D01*
X0191142Y0160541D02*
X0217404Y0160541D01*
X0216805Y0161140D02*
X0191142Y0161140D01*
X0191142Y0161738D02*
X0216206Y0161738D01*
X0215608Y0162337D02*
X0191142Y0162337D01*
X0191142Y0162935D02*
X0215009Y0162935D01*
X0214411Y0163534D02*
X0191142Y0163534D01*
X0191142Y0164132D02*
X0213812Y0164132D01*
X0213214Y0164731D02*
X0191142Y0164731D01*
X0191142Y0165329D02*
X0212615Y0165329D01*
X0212017Y0165928D02*
X0191142Y0165928D01*
X0191142Y0166526D02*
X0211418Y0166526D01*
X0210820Y0167125D02*
X0191142Y0167125D01*
X0191142Y0167723D02*
X0210221Y0167723D01*
X0208945Y0159344D02*
X0191142Y0159344D01*
X0191142Y0158746D02*
X0208238Y0158746D01*
X0207719Y0158147D02*
X0191142Y0158147D01*
X0191142Y0157549D02*
X0207471Y0157549D01*
X0207242Y0156950D02*
X0191142Y0156950D01*
X0191142Y0156352D02*
X0207242Y0156352D01*
X0207242Y0155753D02*
X0191142Y0155753D01*
X0191142Y0155155D02*
X0207428Y0155155D01*
X0207676Y0154556D02*
X0191142Y0154556D01*
X0191142Y0153958D02*
X0208134Y0153958D01*
X0208733Y0153359D02*
X0191142Y0153359D01*
X0190102Y0151564D02*
X0224508Y0151564D01*
X0223910Y0150965D02*
X0189504Y0150965D01*
X0188905Y0150367D02*
X0223311Y0150367D01*
X0222713Y0149768D02*
X0216715Y0149768D01*
X0218022Y0149170D02*
X0222114Y0149170D01*
X0221516Y0148571D02*
X0218621Y0148571D01*
X0219037Y0147972D02*
X0220917Y0147972D01*
X0220319Y0147374D02*
X0219285Y0147374D01*
X0219442Y0146775D02*
X0219720Y0146775D01*
X0215531Y0142586D02*
X0162342Y0142586D01*
X0162342Y0143184D02*
X0179118Y0143184D01*
X0178309Y0143783D02*
X0162342Y0143783D01*
X0162342Y0144381D02*
X0177748Y0144381D01*
X0177500Y0144980D02*
X0162342Y0144980D01*
X0162342Y0145578D02*
X0177252Y0145578D01*
X0177242Y0146177D02*
X0162342Y0146177D01*
X0162342Y0146775D02*
X0177242Y0146775D01*
X0177398Y0147374D02*
X0162342Y0147374D01*
X0162342Y0147972D02*
X0177646Y0147972D01*
X0178063Y0148571D02*
X0162342Y0148571D01*
X0162342Y0149170D02*
X0178662Y0149170D01*
X0179968Y0149768D02*
X0162342Y0149768D01*
X0158742Y0149768D02*
X0156715Y0149768D01*
X0156638Y0149800D02*
X0150046Y0149800D01*
X0148759Y0149267D01*
X0147942Y0148450D01*
X0147942Y0154150D01*
X0148759Y0153333D01*
X0150046Y0152800D01*
X0156638Y0152800D01*
X0157924Y0153333D01*
X0158742Y0154150D01*
X0158742Y0148450D01*
X0157924Y0149267D01*
X0156638Y0149800D01*
X0158022Y0149170D02*
X0158742Y0149170D01*
X0158742Y0148571D02*
X0158621Y0148571D01*
X0158742Y0150367D02*
X0147942Y0150367D01*
X0147942Y0150965D02*
X0158742Y0150965D01*
X0158742Y0151564D02*
X0147942Y0151564D01*
X0147942Y0152162D02*
X0158742Y0152162D01*
X0158742Y0152761D02*
X0147942Y0152761D01*
X0147942Y0153359D02*
X0148733Y0153359D01*
X0148134Y0153958D02*
X0147942Y0153958D01*
X0145542Y0153958D02*
X0134981Y0153958D01*
X0134383Y0154556D02*
X0145542Y0154556D01*
X0145542Y0155155D02*
X0133784Y0155155D01*
X0133186Y0155753D02*
X0145542Y0155753D01*
X0145542Y0156352D02*
X0132587Y0156352D01*
X0131989Y0156950D02*
X0145542Y0156950D01*
X0145542Y0157549D02*
X0131390Y0157549D01*
X0130792Y0158147D02*
X0145542Y0158147D01*
X0145542Y0158746D02*
X0130193Y0158746D01*
X0129595Y0159344D02*
X0145542Y0159344D01*
X0145542Y0159943D02*
X0128996Y0159943D01*
X0128398Y0160541D02*
X0145542Y0160541D01*
X0145542Y0161140D02*
X0127799Y0161140D01*
X0127201Y0161738D02*
X0145542Y0161738D01*
X0145542Y0162337D02*
X0126602Y0162337D01*
X0126004Y0162935D02*
X0145542Y0162935D01*
X0145542Y0163534D02*
X0125405Y0163534D01*
X0124807Y0164132D02*
X0145542Y0164132D01*
X0145542Y0164731D02*
X0124208Y0164731D01*
X0123610Y0165329D02*
X0145542Y0165329D01*
X0145542Y0165928D02*
X0123011Y0165928D01*
X0122412Y0166526D02*
X0145542Y0166526D01*
X0145542Y0167125D02*
X0121814Y0167125D01*
X0121215Y0167723D02*
X0145421Y0167723D01*
X0144823Y0168322D02*
X0120617Y0168322D01*
X0120018Y0168920D02*
X0144224Y0168920D01*
X0143626Y0169519D02*
X0119420Y0169519D01*
X0118821Y0170117D02*
X0143027Y0170117D01*
X0142429Y0170716D02*
X0118223Y0170716D01*
X0117624Y0171314D02*
X0141830Y0171314D01*
X0141232Y0171913D02*
X0117026Y0171913D01*
X0116427Y0172511D02*
X0140633Y0172511D01*
X0140035Y0173110D02*
X0115829Y0173110D01*
X0115230Y0173708D02*
X0139436Y0173708D01*
X0138838Y0174307D02*
X0114632Y0174307D01*
X0114033Y0174905D02*
X0138239Y0174905D01*
X0137641Y0175504D02*
X0113435Y0175504D01*
X0112836Y0176103D02*
X0137042Y0176103D01*
X0136444Y0176701D02*
X0112238Y0176701D01*
X0111639Y0177300D02*
X0135845Y0177300D01*
X0135247Y0177898D02*
X0111041Y0177898D01*
X0110442Y0178497D02*
X0134648Y0178497D01*
X0134050Y0179095D02*
X0109844Y0179095D01*
X0109542Y0179694D02*
X0133451Y0179694D01*
X0132853Y0180292D02*
X0109542Y0180292D01*
X0109542Y0180891D02*
X0132254Y0180891D01*
X0131656Y0181489D02*
X0109542Y0181489D01*
X0109542Y0182088D02*
X0131057Y0182088D01*
X0130459Y0182686D02*
X0109542Y0182686D01*
X0109542Y0183285D02*
X0129860Y0183285D01*
X0129262Y0183883D02*
X0109542Y0183883D01*
X0109542Y0184482D02*
X0128663Y0184482D01*
X0128065Y0185080D02*
X0109542Y0185080D01*
X0109542Y0185679D02*
X0127466Y0185679D01*
X0126868Y0186277D02*
X0109542Y0186277D01*
X0109542Y0186876D02*
X0126269Y0186876D01*
X0125671Y0187474D02*
X0109542Y0187474D01*
X0109542Y0188073D02*
X0125072Y0188073D01*
X0124473Y0188671D02*
X0109542Y0188671D01*
X0109542Y0189270D02*
X0123875Y0189270D01*
X0123276Y0189868D02*
X0109542Y0189868D01*
X0109542Y0190467D02*
X0122678Y0190467D01*
X0122079Y0191065D02*
X0109542Y0191065D01*
X0109542Y0191664D02*
X0121481Y0191664D01*
X0120882Y0192262D02*
X0109542Y0192262D01*
X0109852Y0192861D02*
X0120284Y0192861D01*
X0119685Y0193459D02*
X0110451Y0193459D01*
X0111049Y0194058D02*
X0119087Y0194058D01*
X0118488Y0194656D02*
X0111648Y0194656D01*
X0111842Y0195255D02*
X0117890Y0195255D01*
X0117291Y0195853D02*
X0111842Y0195853D01*
X0111842Y0196452D02*
X0116693Y0196452D01*
X0116094Y0197050D02*
X0111842Y0197050D01*
X0111842Y0197649D02*
X0115496Y0197649D01*
X0114897Y0198247D02*
X0111344Y0198247D01*
X0110746Y0198846D02*
X0114299Y0198846D01*
X0113700Y0199444D02*
X0110147Y0199444D01*
X0111905Y0201240D02*
X0052642Y0201240D01*
X0052642Y0201839D02*
X0111306Y0201839D01*
X0110708Y0202437D02*
X0052642Y0202437D01*
X0052642Y0203036D02*
X0110109Y0203036D01*
X0109511Y0203634D02*
X0052642Y0203634D01*
X0052642Y0204233D02*
X0108912Y0204233D01*
X0108314Y0204831D02*
X0052642Y0204831D01*
X0052642Y0205430D02*
X0107715Y0205430D01*
X0107117Y0206028D02*
X0052642Y0206028D01*
X0052642Y0206627D02*
X0106518Y0206627D01*
X0105920Y0207225D02*
X0052642Y0207225D01*
X0052642Y0207824D02*
X0105321Y0207824D01*
X0104723Y0208422D02*
X0052642Y0208422D01*
X0052642Y0209021D02*
X0104124Y0209021D01*
X0103526Y0209619D02*
X0052642Y0209619D01*
X0052642Y0210218D02*
X0102927Y0210218D01*
X0102329Y0210816D02*
X0052642Y0210816D01*
X0052642Y0211415D02*
X0101730Y0211415D01*
X0101132Y0212013D02*
X0052642Y0212013D01*
X0052642Y0212612D02*
X0100533Y0212612D01*
X0099935Y0213210D02*
X0052642Y0213210D01*
X0052642Y0213809D02*
X0099336Y0213809D01*
X0098737Y0214407D02*
X0052642Y0214407D01*
X0052642Y0215006D02*
X0098139Y0215006D01*
X0097540Y0215604D02*
X0052642Y0215604D01*
X0052642Y0216203D02*
X0096942Y0216203D01*
X0096343Y0216801D02*
X0052642Y0216801D01*
X0052642Y0217400D02*
X0095745Y0217400D01*
X0095146Y0217998D02*
X0052642Y0217998D01*
X0052642Y0218597D02*
X0094548Y0218597D01*
X0093949Y0219195D02*
X0052642Y0219195D01*
X0052642Y0219794D02*
X0093351Y0219794D01*
X0092752Y0220392D02*
X0052642Y0220392D01*
X0052642Y0220991D02*
X0092154Y0220991D01*
X0091555Y0221589D02*
X0052642Y0221589D01*
X0052642Y0222188D02*
X0090957Y0222188D01*
X0090358Y0222786D02*
X0052642Y0222786D01*
X0052642Y0223385D02*
X0081307Y0223385D01*
X0080709Y0223983D02*
X0052642Y0223983D01*
X0052642Y0224582D02*
X0080110Y0224582D01*
X0079842Y0225180D02*
X0052642Y0225180D01*
X0052642Y0225779D02*
X0079842Y0225779D01*
X0079842Y0226377D02*
X0052642Y0226377D01*
X0052642Y0226976D02*
X0079842Y0226976D01*
X0079842Y0227574D02*
X0052642Y0227574D01*
X0052642Y0228173D02*
X0080265Y0228173D01*
X0080864Y0228772D02*
X0052642Y0228772D01*
X0052642Y0229370D02*
X0081462Y0229370D01*
X0082578Y0230567D02*
X0052642Y0230567D01*
X0052642Y0229969D02*
X0083176Y0229969D01*
X0081979Y0231166D02*
X0052642Y0231166D01*
X0052642Y0231764D02*
X0081381Y0231764D01*
X0080782Y0232363D02*
X0052642Y0232363D01*
X0052642Y0232961D02*
X0080184Y0232961D01*
X0079585Y0233560D02*
X0052642Y0233560D01*
X0052642Y0234158D02*
X0078987Y0234158D01*
X0078388Y0234757D02*
X0052642Y0234757D01*
X0052642Y0235355D02*
X0077790Y0235355D01*
X0077191Y0235954D02*
X0052642Y0235954D01*
X0052642Y0236552D02*
X0077142Y0236552D01*
X0077142Y0237151D02*
X0052642Y0237151D01*
X0052642Y0237749D02*
X0077142Y0237749D01*
X0077142Y0238348D02*
X0052642Y0238348D01*
X0052642Y0238946D02*
X0077142Y0238946D01*
X0077142Y0239545D02*
X0052642Y0239545D01*
X0052642Y0240143D02*
X0077142Y0240143D01*
X0077142Y0240742D02*
X0052642Y0240742D01*
X0052642Y0241340D02*
X0077142Y0241340D01*
X0077142Y0241939D02*
X0052642Y0241939D01*
X0052642Y0242537D02*
X0077142Y0242537D01*
X0077142Y0243136D02*
X0052642Y0243136D01*
X0052642Y0243734D02*
X0077142Y0243734D01*
X0077142Y0244333D02*
X0052642Y0244333D01*
X0052642Y0244931D02*
X0077142Y0244931D01*
X0077142Y0245530D02*
X0052642Y0245530D01*
X0052642Y0246128D02*
X0077142Y0246128D01*
X0077142Y0246727D02*
X0052642Y0246727D01*
X0052642Y0247325D02*
X0077142Y0247325D01*
X0076768Y0247924D02*
X0052642Y0247924D01*
X0052642Y0248522D02*
X0076170Y0248522D01*
X0075571Y0249121D02*
X0052642Y0249121D01*
X0052642Y0249719D02*
X0074973Y0249719D01*
X0074842Y0250318D02*
X0060280Y0250318D01*
X0061725Y0250916D02*
X0074842Y0250916D01*
X0074842Y0251515D02*
X0062422Y0251515D01*
X0063020Y0252113D02*
X0074842Y0252113D01*
X0074842Y0252712D02*
X0063619Y0252712D01*
X0063888Y0253310D02*
X0075403Y0253310D01*
X0076001Y0253909D02*
X0064136Y0253909D01*
X0064384Y0254508D02*
X0076600Y0254508D01*
X0080084Y0254508D02*
X0126600Y0254508D01*
X0130084Y0254508D02*
X0347299Y0254508D01*
X0347073Y0255106D02*
X0064610Y0255106D01*
X0064610Y0255705D02*
X0347073Y0255705D01*
X0347073Y0256303D02*
X0064610Y0256303D01*
X0064610Y0256902D02*
X0347073Y0256902D01*
X0347073Y0257500D02*
X0064610Y0257500D01*
X0064382Y0258099D02*
X0347302Y0258099D01*
X0347550Y0258697D02*
X0064134Y0258697D01*
X0063886Y0259296D02*
X0347798Y0259296D01*
X0348071Y0259894D02*
X0063613Y0259894D01*
X0063014Y0260493D02*
X0348669Y0260493D01*
X0349268Y0261091D02*
X0062416Y0261091D01*
X0061710Y0261690D02*
X0349973Y0261690D01*
X0356710Y0261690D02*
X0362743Y0261690D01*
X0362743Y0261091D02*
X0357416Y0261091D01*
X0358014Y0260493D02*
X0362743Y0260493D01*
X0362743Y0259894D02*
X0358613Y0259894D01*
X0358886Y0259296D02*
X0362743Y0259296D01*
X0362743Y0258697D02*
X0359134Y0258697D01*
X0359382Y0258099D02*
X0362743Y0258099D01*
X0362743Y0257500D02*
X0359610Y0257500D01*
X0359610Y0256902D02*
X0362743Y0256902D01*
X0362743Y0256303D02*
X0359610Y0256303D01*
X0359610Y0255705D02*
X0362743Y0255705D01*
X0362743Y0255106D02*
X0359610Y0255106D01*
X0359384Y0254508D02*
X0362743Y0254508D01*
X0362743Y0253909D02*
X0359136Y0253909D01*
X0358888Y0253310D02*
X0362743Y0253310D01*
X0362743Y0252712D02*
X0358619Y0252712D01*
X0358020Y0252113D02*
X0362743Y0252113D01*
X0362743Y0251515D02*
X0357422Y0251515D01*
X0356725Y0250916D02*
X0362743Y0250916D01*
X0362743Y0250318D02*
X0355280Y0250318D01*
X0351403Y0250318D02*
X0192094Y0250318D01*
X0192210Y0249719D02*
X0362743Y0249719D01*
X0362743Y0249121D02*
X0192210Y0249121D01*
X0192210Y0248522D02*
X0362743Y0248522D01*
X0362743Y0247924D02*
X0192210Y0247924D01*
X0192210Y0247325D02*
X0362743Y0247325D01*
X0362743Y0246727D02*
X0192210Y0246727D01*
X0192210Y0246128D02*
X0362743Y0246128D01*
X0362743Y0245530D02*
X0192210Y0245530D01*
X0192210Y0244931D02*
X0362743Y0244931D01*
X0362743Y0244333D02*
X0192210Y0244333D01*
X0192210Y0243734D02*
X0362743Y0243734D01*
X0362743Y0243136D02*
X0192210Y0243136D01*
X0192200Y0242537D02*
X0362743Y0242537D01*
X0362743Y0241939D02*
X0191952Y0241939D01*
X0191704Y0241340D02*
X0362743Y0241340D01*
X0362743Y0240742D02*
X0191223Y0240742D01*
X0190624Y0240143D02*
X0362743Y0240143D01*
X0362743Y0239545D02*
X0189342Y0239545D01*
X0189342Y0238946D02*
X0362743Y0238946D01*
X0362743Y0238348D02*
X0189342Y0238348D01*
X0189342Y0237749D02*
X0362743Y0237749D01*
X0362743Y0237151D02*
X0189342Y0237151D01*
X0189342Y0236552D02*
X0362743Y0236552D01*
X0362743Y0235954D02*
X0295385Y0235954D01*
X0295984Y0235355D02*
X0362743Y0235355D01*
X0362743Y0234757D02*
X0296582Y0234757D01*
X0297181Y0234158D02*
X0362743Y0234158D01*
X0362743Y0233560D02*
X0297779Y0233560D01*
X0298378Y0232961D02*
X0362743Y0232961D01*
X0362743Y0232363D02*
X0298976Y0232363D01*
X0299575Y0231764D02*
X0362743Y0231764D01*
X0362743Y0231166D02*
X0300173Y0231166D01*
X0300772Y0230567D02*
X0362743Y0230567D01*
X0362743Y0229969D02*
X0301370Y0229969D01*
X0301969Y0229370D02*
X0362743Y0229370D01*
X0362743Y0228772D02*
X0302567Y0228772D01*
X0303166Y0228173D02*
X0362743Y0228173D01*
X0362743Y0227574D02*
X0303764Y0227574D01*
X0304363Y0226976D02*
X0362743Y0226976D01*
X0362743Y0226377D02*
X0304961Y0226377D01*
X0305560Y0225779D02*
X0362743Y0225779D01*
X0362743Y0225180D02*
X0306158Y0225180D01*
X0306757Y0224582D02*
X0362743Y0224582D01*
X0362743Y0223983D02*
X0307355Y0223983D01*
X0307954Y0223385D02*
X0362743Y0223385D01*
X0362743Y0222786D02*
X0308552Y0222786D01*
X0309151Y0222188D02*
X0362743Y0222188D01*
X0362743Y0221589D02*
X0309749Y0221589D01*
X0310348Y0220991D02*
X0362743Y0220991D01*
X0362743Y0220392D02*
X0310946Y0220392D01*
X0311545Y0219794D02*
X0362743Y0219794D01*
X0362743Y0219195D02*
X0312144Y0219195D01*
X0312742Y0218597D02*
X0362743Y0218597D01*
X0362743Y0217998D02*
X0313341Y0217998D01*
X0313939Y0217400D02*
X0362743Y0217400D01*
X0362743Y0216801D02*
X0314538Y0216801D01*
X0315136Y0216203D02*
X0362743Y0216203D01*
X0362743Y0215604D02*
X0315735Y0215604D01*
X0316333Y0215006D02*
X0362743Y0215006D01*
X0362743Y0214407D02*
X0316932Y0214407D01*
X0317530Y0213809D02*
X0362743Y0213809D01*
X0362743Y0213210D02*
X0318129Y0213210D01*
X0318342Y0212612D02*
X0362743Y0212612D01*
X0362743Y0212013D02*
X0318342Y0212013D01*
X0318342Y0211415D02*
X0362743Y0211415D01*
X0362743Y0210816D02*
X0318342Y0210816D01*
X0318342Y0210218D02*
X0362743Y0210218D01*
X0338367Y0194656D02*
X0333082Y0194656D01*
X0333681Y0194058D02*
X0337660Y0194058D01*
X0337080Y0193459D02*
X0334279Y0193459D01*
X0334878Y0192861D02*
X0336833Y0192861D01*
X0336585Y0192262D02*
X0335477Y0192262D01*
X0336075Y0191664D02*
X0336505Y0191664D01*
X0347293Y0185080D02*
X0347665Y0185080D01*
X0347715Y0174905D02*
X0362743Y0174905D01*
X0362743Y0174307D02*
X0348774Y0174307D01*
X0349373Y0173708D02*
X0362743Y0173708D01*
X0362743Y0173110D02*
X0349748Y0173110D01*
X0349996Y0172511D02*
X0362743Y0172511D01*
X0362743Y0171913D02*
X0350179Y0171913D01*
X0350179Y0171314D02*
X0362743Y0171314D01*
X0362743Y0170716D02*
X0350179Y0170716D01*
X0350008Y0170117D02*
X0362743Y0170117D01*
X0362743Y0169519D02*
X0349760Y0169519D01*
X0349402Y0168920D02*
X0362743Y0168920D01*
X0362743Y0168322D02*
X0348803Y0168322D01*
X0347784Y0167723D02*
X0362743Y0167723D01*
X0311868Y0207824D02*
X0299142Y0207824D01*
X0299142Y0208422D02*
X0311270Y0208422D01*
X0310671Y0209021D02*
X0299142Y0209021D01*
X0299142Y0209619D02*
X0310073Y0209619D01*
X0309842Y0210218D02*
X0299142Y0210218D01*
X0299142Y0210816D02*
X0309842Y0210816D01*
X0309842Y0211415D02*
X0299142Y0211415D01*
X0299142Y0212013D02*
X0309842Y0212013D01*
X0309842Y0212612D02*
X0298927Y0212612D01*
X0298329Y0213210D02*
X0310302Y0213210D01*
X0310901Y0213809D02*
X0297730Y0213809D01*
X0297132Y0214407D02*
X0311499Y0214407D01*
X0312340Y0215604D02*
X0295935Y0215604D01*
X0296533Y0215006D02*
X0312939Y0215006D01*
X0311742Y0216203D02*
X0295336Y0216203D01*
X0294942Y0216801D02*
X0311143Y0216801D01*
X0310545Y0217400D02*
X0294942Y0217400D01*
X0294942Y0217998D02*
X0309946Y0217998D01*
X0309348Y0218597D02*
X0294942Y0218597D01*
X0294942Y0219195D02*
X0308749Y0219195D01*
X0308151Y0219794D02*
X0294942Y0219794D01*
X0294942Y0220392D02*
X0307552Y0220392D01*
X0306954Y0220991D02*
X0294942Y0220991D01*
X0294942Y0221589D02*
X0306355Y0221589D01*
X0305757Y0222188D02*
X0294942Y0222188D01*
X0294942Y0222786D02*
X0305158Y0222786D01*
X0304560Y0223385D02*
X0294942Y0223385D01*
X0294942Y0223983D02*
X0303961Y0223983D01*
X0303363Y0224582D02*
X0294942Y0224582D01*
X0294942Y0225180D02*
X0302764Y0225180D01*
X0302166Y0225779D02*
X0294942Y0225779D01*
X0294942Y0226377D02*
X0301567Y0226377D01*
X0300969Y0226976D02*
X0294942Y0226976D01*
X0294942Y0227574D02*
X0300370Y0227574D01*
X0299772Y0228173D02*
X0295165Y0228173D01*
X0295763Y0228772D02*
X0299173Y0228772D01*
X0298575Y0229370D02*
X0296362Y0229370D01*
X0296842Y0229969D02*
X0297976Y0229969D01*
X0297378Y0230567D02*
X0296842Y0230567D01*
X0347795Y0253310D02*
X0131281Y0253310D01*
X0130683Y0253909D02*
X0347547Y0253909D01*
X0348065Y0252712D02*
X0190137Y0252712D01*
X0190968Y0252113D02*
X0348663Y0252113D01*
X0349262Y0251515D02*
X0191566Y0251515D01*
X0191846Y0250916D02*
X0349958Y0250916D01*
X0314386Y0280243D02*
X0388342Y0280243D01*
X0388342Y0279645D02*
X0272490Y0279645D01*
X0230595Y0279046D02*
X0388342Y0279046D01*
X0388342Y0278448D02*
X0188699Y0278448D01*
X0186546Y0252712D02*
X0180137Y0252712D01*
X0180968Y0252113D02*
X0185716Y0252113D01*
X0185117Y0251515D02*
X0181566Y0251515D01*
X0181846Y0250916D02*
X0184837Y0250916D01*
X0184589Y0250318D02*
X0182094Y0250318D01*
X0182210Y0249719D02*
X0184473Y0249719D01*
X0184473Y0249121D02*
X0182210Y0249121D01*
X0182210Y0248522D02*
X0184473Y0248522D01*
X0184473Y0247924D02*
X0182210Y0247924D01*
X0182210Y0247325D02*
X0184473Y0247325D01*
X0184473Y0246727D02*
X0182210Y0246727D01*
X0182210Y0246128D02*
X0184473Y0246128D01*
X0184473Y0245530D02*
X0182210Y0245530D01*
X0182210Y0244931D02*
X0184473Y0244931D01*
X0184473Y0244333D02*
X0182210Y0244333D01*
X0182210Y0243734D02*
X0184473Y0243734D01*
X0184473Y0243136D02*
X0182210Y0243136D01*
X0182200Y0242537D02*
X0184484Y0242537D01*
X0184731Y0241939D02*
X0181952Y0241939D01*
X0181704Y0241340D02*
X0184979Y0241340D01*
X0185461Y0240742D02*
X0181223Y0240742D01*
X0180624Y0240143D02*
X0186059Y0240143D01*
X0188142Y0235300D02*
X0188142Y0246100D01*
X0188342Y0246300D01*
X0168342Y0246300D02*
X0168342Y0195700D01*
X0167142Y0200043D02*
X0116496Y0200043D01*
X0117094Y0199444D02*
X0156537Y0199444D01*
X0155938Y0198846D02*
X0117693Y0198846D01*
X0118291Y0198247D02*
X0155340Y0198247D01*
X0154842Y0197649D02*
X0118890Y0197649D01*
X0119488Y0197050D02*
X0154842Y0197050D01*
X0154842Y0196452D02*
X0120087Y0196452D01*
X0120685Y0195853D02*
X0154842Y0195853D01*
X0154842Y0195255D02*
X0121284Y0195255D01*
X0121882Y0194656D02*
X0155036Y0194656D01*
X0155634Y0194058D02*
X0122481Y0194058D01*
X0123079Y0193459D02*
X0156233Y0193459D01*
X0156831Y0192861D02*
X0123678Y0192861D01*
X0124277Y0192262D02*
X0161082Y0192262D01*
X0160484Y0192861D02*
X0159852Y0192861D01*
X0161681Y0191664D02*
X0124875Y0191664D01*
X0125474Y0191065D02*
X0162010Y0191065D01*
X0161412Y0190467D02*
X0126072Y0190467D01*
X0126671Y0189868D02*
X0160813Y0189868D01*
X0160215Y0189270D02*
X0127269Y0189270D01*
X0127868Y0188671D02*
X0159616Y0188671D01*
X0159018Y0188073D02*
X0128466Y0188073D01*
X0129065Y0187474D02*
X0158419Y0187474D01*
X0157820Y0186876D02*
X0129663Y0186876D01*
X0130262Y0186277D02*
X0157222Y0186277D01*
X0156623Y0185679D02*
X0130860Y0185679D01*
X0131459Y0185080D02*
X0156025Y0185080D01*
X0155426Y0184482D02*
X0132057Y0184482D01*
X0132656Y0183883D02*
X0154828Y0183883D01*
X0154229Y0183285D02*
X0133254Y0183285D01*
X0133853Y0182686D02*
X0153631Y0182686D01*
X0153342Y0182088D02*
X0134451Y0182088D01*
X0135050Y0181489D02*
X0153342Y0181489D01*
X0153342Y0180891D02*
X0135648Y0180891D01*
X0136247Y0180292D02*
X0153342Y0180292D01*
X0153342Y0179694D02*
X0136845Y0179694D01*
X0137444Y0179095D02*
X0153342Y0179095D01*
X0153342Y0178497D02*
X0138042Y0178497D01*
X0138641Y0177898D02*
X0153342Y0177898D01*
X0153342Y0177300D02*
X0139239Y0177300D01*
X0139838Y0176701D02*
X0153342Y0176701D01*
X0153342Y0176103D02*
X0140436Y0176103D01*
X0141035Y0175504D02*
X0153342Y0175504D01*
X0153342Y0174905D02*
X0141633Y0174905D01*
X0142232Y0174307D02*
X0153342Y0174307D01*
X0153342Y0173708D02*
X0142830Y0173708D01*
X0143429Y0173110D02*
X0153342Y0173110D01*
X0153342Y0172511D02*
X0144027Y0172511D01*
X0144626Y0171913D02*
X0153342Y0171913D01*
X0153342Y0171314D02*
X0145224Y0171314D01*
X0145823Y0170716D02*
X0153342Y0170716D01*
X0153342Y0170117D02*
X0146421Y0170117D01*
X0147020Y0169519D02*
X0153342Y0169519D01*
X0153342Y0168920D02*
X0147618Y0168920D01*
X0147942Y0168322D02*
X0153342Y0168322D01*
X0153342Y0167723D02*
X0147942Y0167723D01*
X0147942Y0167125D02*
X0153342Y0167125D01*
X0153342Y0166526D02*
X0147942Y0166526D01*
X0147942Y0165928D02*
X0153342Y0165928D01*
X0153342Y0165329D02*
X0147942Y0165329D01*
X0147942Y0164731D02*
X0153342Y0164731D01*
X0153342Y0164132D02*
X0147942Y0164132D01*
X0147942Y0163534D02*
X0153342Y0163534D01*
X0153342Y0162935D02*
X0147942Y0162935D01*
X0147942Y0162337D02*
X0153342Y0162337D01*
X0153806Y0161738D02*
X0147942Y0161738D01*
X0147942Y0161140D02*
X0154405Y0161140D01*
X0155004Y0160541D02*
X0147942Y0160541D01*
X0147942Y0159943D02*
X0155602Y0159943D01*
X0157201Y0161738D02*
X0159942Y0161738D01*
X0159942Y0161140D02*
X0157799Y0161140D01*
X0158398Y0160541D02*
X0159942Y0160541D01*
X0159942Y0159943D02*
X0158996Y0159943D01*
X0159595Y0159344D02*
X0159942Y0159344D01*
X0159942Y0158997D02*
X0155742Y0163197D01*
X0155742Y0173950D01*
X0156892Y0172800D01*
X0159792Y0172800D01*
X0159942Y0172950D01*
X0159942Y0158997D01*
X0159942Y0162337D02*
X0156602Y0162337D01*
X0156004Y0162935D02*
X0159942Y0162935D01*
X0159942Y0163534D02*
X0155742Y0163534D01*
X0155742Y0164132D02*
X0159942Y0164132D01*
X0159942Y0164731D02*
X0155742Y0164731D01*
X0155742Y0165329D02*
X0159942Y0165329D01*
X0159942Y0165928D02*
X0155742Y0165928D01*
X0155742Y0166526D02*
X0159942Y0166526D01*
X0159942Y0167125D02*
X0155742Y0167125D01*
X0155742Y0167723D02*
X0159942Y0167723D01*
X0159942Y0168322D02*
X0155742Y0168322D01*
X0155742Y0168920D02*
X0159942Y0168920D01*
X0159942Y0169519D02*
X0155742Y0169519D01*
X0155742Y0170117D02*
X0159942Y0170117D01*
X0159942Y0170716D02*
X0155742Y0170716D01*
X0155742Y0171314D02*
X0159942Y0171314D01*
X0159942Y0171913D02*
X0155742Y0171913D01*
X0155742Y0172511D02*
X0159942Y0172511D01*
X0156582Y0173110D02*
X0155742Y0173110D01*
X0155742Y0173708D02*
X0155984Y0173708D01*
X0155742Y0178650D02*
X0155742Y0181403D01*
X0157542Y0183203D01*
X0157542Y0179800D01*
X0156892Y0179800D01*
X0155742Y0178650D01*
X0155742Y0179095D02*
X0156187Y0179095D01*
X0155742Y0179694D02*
X0156786Y0179694D01*
X0157542Y0180292D02*
X0155742Y0180292D01*
X0155742Y0180891D02*
X0157542Y0180891D01*
X0157542Y0181489D02*
X0155828Y0181489D01*
X0156426Y0182088D02*
X0157542Y0182088D01*
X0157542Y0182686D02*
X0157025Y0182686D01*
X0167142Y0200641D02*
X0115897Y0200641D01*
X0115299Y0201240D02*
X0167142Y0201240D01*
X0167142Y0201839D02*
X0114700Y0201839D01*
X0114102Y0202437D02*
X0167142Y0202437D01*
X0167142Y0203036D02*
X0113503Y0203036D01*
X0112905Y0203634D02*
X0167142Y0203634D01*
X0167142Y0204233D02*
X0112306Y0204233D01*
X0111708Y0204831D02*
X0167142Y0204831D01*
X0167142Y0205430D02*
X0111109Y0205430D01*
X0110511Y0206028D02*
X0167142Y0206028D01*
X0167142Y0206627D02*
X0109912Y0206627D01*
X0109314Y0207225D02*
X0167142Y0207225D01*
X0167142Y0207824D02*
X0159815Y0207824D01*
X0159792Y0207800D02*
X0161842Y0209850D01*
X0161842Y0212750D01*
X0159792Y0214800D01*
X0156892Y0214800D01*
X0154842Y0212750D01*
X0154842Y0209850D01*
X0156892Y0207800D01*
X0159792Y0207800D01*
X0160414Y0208422D02*
X0167142Y0208422D01*
X0167142Y0209021D02*
X0161012Y0209021D01*
X0161611Y0209619D02*
X0167142Y0209619D01*
X0167142Y0210218D02*
X0161842Y0210218D01*
X0161842Y0210816D02*
X0167142Y0210816D01*
X0167142Y0211415D02*
X0161842Y0211415D01*
X0161842Y0212013D02*
X0167142Y0212013D01*
X0167142Y0212612D02*
X0161842Y0212612D01*
X0161381Y0213210D02*
X0167142Y0213210D01*
X0167142Y0213809D02*
X0160783Y0213809D01*
X0160184Y0214407D02*
X0167142Y0214407D01*
X0167142Y0215006D02*
X0101533Y0215006D01*
X0100935Y0215604D02*
X0167142Y0215604D01*
X0167142Y0216203D02*
X0100336Y0216203D01*
X0099738Y0216801D02*
X0167142Y0216801D01*
X0167142Y0217400D02*
X0099139Y0217400D01*
X0098541Y0217998D02*
X0167142Y0217998D01*
X0167142Y0218597D02*
X0097942Y0218597D01*
X0097344Y0219195D02*
X0167142Y0219195D01*
X0167142Y0219794D02*
X0096745Y0219794D01*
X0096146Y0220392D02*
X0167142Y0220392D01*
X0167142Y0220991D02*
X0095548Y0220991D01*
X0094949Y0221589D02*
X0167142Y0221589D01*
X0167142Y0222188D02*
X0094351Y0222188D01*
X0093752Y0222786D02*
X0167142Y0222786D01*
X0167142Y0223385D02*
X0135376Y0223385D01*
X0134792Y0222800D02*
X0136842Y0224850D01*
X0136842Y0227750D01*
X0134792Y0229800D01*
X0131892Y0229800D01*
X0129842Y0227750D01*
X0129842Y0224850D01*
X0131892Y0222800D01*
X0134792Y0222800D01*
X0135975Y0223983D02*
X0167142Y0223983D01*
X0167142Y0224582D02*
X0136573Y0224582D01*
X0136842Y0225180D02*
X0167142Y0225180D01*
X0167142Y0225779D02*
X0136842Y0225779D01*
X0136842Y0226377D02*
X0167142Y0226377D01*
X0167142Y0226976D02*
X0136842Y0226976D01*
X0136842Y0227574D02*
X0167142Y0227574D01*
X0167142Y0228173D02*
X0136419Y0228173D01*
X0135820Y0228772D02*
X0167142Y0228772D01*
X0167142Y0229370D02*
X0135222Y0229370D01*
X0131462Y0229370D02*
X0087169Y0229370D01*
X0087767Y0228772D02*
X0130864Y0228772D01*
X0130265Y0228173D02*
X0088366Y0228173D01*
X0088964Y0227574D02*
X0129842Y0227574D01*
X0129842Y0226976D02*
X0089563Y0226976D01*
X0090161Y0226377D02*
X0129842Y0226377D01*
X0129842Y0225779D02*
X0090760Y0225779D01*
X0091358Y0225180D02*
X0129842Y0225180D01*
X0130110Y0224582D02*
X0091957Y0224582D01*
X0092555Y0223983D02*
X0130709Y0223983D01*
X0131307Y0223385D02*
X0093154Y0223385D01*
X0089760Y0223385D02*
X0085376Y0223385D01*
X0085975Y0223983D02*
X0089161Y0223983D01*
X0088563Y0224582D02*
X0086573Y0224582D01*
X0086842Y0225180D02*
X0087964Y0225180D01*
X0087366Y0225779D02*
X0086842Y0225779D01*
X0086570Y0229969D02*
X0167142Y0229969D01*
X0167142Y0230567D02*
X0085972Y0230567D01*
X0085373Y0231166D02*
X0167142Y0231166D01*
X0167142Y0231764D02*
X0084775Y0231764D01*
X0084176Y0232363D02*
X0167142Y0232363D01*
X0167142Y0232961D02*
X0083578Y0232961D01*
X0082979Y0233560D02*
X0167142Y0233560D01*
X0167142Y0234158D02*
X0082381Y0234158D01*
X0081782Y0234757D02*
X0167142Y0234757D01*
X0167142Y0235355D02*
X0081184Y0235355D01*
X0080585Y0235954D02*
X0167142Y0235954D01*
X0167142Y0236552D02*
X0079987Y0236552D01*
X0079542Y0237151D02*
X0167142Y0237151D01*
X0167142Y0237749D02*
X0079542Y0237749D01*
X0079542Y0238348D02*
X0167142Y0238348D01*
X0167142Y0238946D02*
X0079542Y0238946D01*
X0079542Y0239545D02*
X0167142Y0239545D01*
X0166059Y0240143D02*
X0079542Y0240143D01*
X0079542Y0240742D02*
X0165461Y0240742D01*
X0164979Y0241340D02*
X0079542Y0241340D01*
X0079542Y0241939D02*
X0164731Y0241939D01*
X0164484Y0242537D02*
X0079542Y0242537D01*
X0079542Y0243136D02*
X0164473Y0243136D01*
X0164473Y0243734D02*
X0079542Y0243734D01*
X0079542Y0244333D02*
X0164473Y0244333D01*
X0164473Y0244931D02*
X0079542Y0244931D01*
X0079542Y0245530D02*
X0164473Y0245530D01*
X0164473Y0246128D02*
X0079542Y0246128D01*
X0079542Y0246727D02*
X0164473Y0246727D01*
X0164473Y0247325D02*
X0079542Y0247325D01*
X0056403Y0250318D02*
X0052642Y0250318D01*
X0052642Y0250916D02*
X0054958Y0250916D01*
X0054262Y0251515D02*
X0052642Y0251515D01*
X0052642Y0252113D02*
X0053663Y0252113D01*
X0053065Y0252712D02*
X0052642Y0252712D01*
X0052642Y0253310D02*
X0052795Y0253310D01*
X0052642Y0258919D02*
X0052642Y0261961D01*
X0055627Y0261961D01*
X0054791Y0261614D01*
X0053028Y0259851D01*
X0052642Y0258919D01*
X0052642Y0259296D02*
X0052798Y0259296D01*
X0052642Y0259894D02*
X0053071Y0259894D01*
X0052642Y0260493D02*
X0053669Y0260493D01*
X0054268Y0261091D02*
X0052642Y0261091D01*
X0052642Y0261690D02*
X0054973Y0261690D01*
X0063011Y0276652D02*
X0388342Y0276652D01*
X0388342Y0276054D02*
X0038337Y0276054D01*
X0038326Y0275455D02*
X0388342Y0275455D01*
X0388342Y0274857D02*
X0038316Y0274857D01*
X0038305Y0274258D02*
X0388342Y0274258D01*
X0388342Y0273660D02*
X0038294Y0273660D01*
X0038283Y0273061D02*
X0388342Y0273061D01*
X0388342Y0272463D02*
X0038272Y0272463D01*
X0038261Y0271864D02*
X0388342Y0271864D01*
X0388342Y0271266D02*
X0038250Y0271266D01*
X0104907Y0277251D02*
X0388342Y0277251D01*
X0388342Y0277849D02*
X0146803Y0277849D01*
X0156499Y0214407D02*
X0102132Y0214407D01*
X0102730Y0213809D02*
X0155901Y0213809D01*
X0155302Y0213210D02*
X0103329Y0213210D01*
X0103927Y0212612D02*
X0154842Y0212612D01*
X0154842Y0212013D02*
X0104526Y0212013D01*
X0105124Y0211415D02*
X0154842Y0211415D01*
X0154842Y0210816D02*
X0105723Y0210816D01*
X0106321Y0210218D02*
X0154842Y0210218D01*
X0155073Y0209619D02*
X0106920Y0209619D01*
X0107518Y0209021D02*
X0155671Y0209021D01*
X0156270Y0208422D02*
X0108117Y0208422D01*
X0108715Y0207824D02*
X0156868Y0207824D01*
X0113102Y0200043D02*
X0052642Y0200043D01*
X0052642Y0200641D02*
X0112503Y0200641D01*
X0106537Y0199444D02*
X0052642Y0199444D01*
X0052642Y0198846D02*
X0105938Y0198846D01*
X0105340Y0198247D02*
X0052642Y0198247D01*
X0052642Y0197649D02*
X0104842Y0197649D01*
X0107142Y0186277D02*
X0052642Y0186277D01*
X0052642Y0185679D02*
X0107142Y0185679D01*
X0129442Y0155753D02*
X0129792Y0155753D01*
X0129256Y0155155D02*
X0130390Y0155155D01*
X0130989Y0154556D02*
X0129008Y0154556D01*
X0128549Y0153958D02*
X0131587Y0153958D01*
X0132186Y0153359D02*
X0127951Y0153359D01*
X0126715Y0149768D02*
X0135777Y0149768D01*
X0136375Y0149170D02*
X0128022Y0149170D01*
X0128621Y0148571D02*
X0136974Y0148571D01*
X0137572Y0147972D02*
X0129037Y0147972D01*
X0129285Y0147374D02*
X0138171Y0147374D01*
X0138769Y0146775D02*
X0129442Y0146775D01*
X0129442Y0146177D02*
X0139368Y0146177D01*
X0139966Y0145578D02*
X0129431Y0145578D01*
X0129183Y0144980D02*
X0140565Y0144980D01*
X0141163Y0144381D02*
X0128935Y0144381D01*
X0128374Y0143783D02*
X0141762Y0143783D01*
X0143360Y0145578D02*
X0145542Y0145578D01*
X0145542Y0144980D02*
X0143959Y0144980D01*
X0144557Y0144381D02*
X0145542Y0144381D01*
X0145542Y0143783D02*
X0145156Y0143783D01*
X0145542Y0146177D02*
X0142762Y0146177D01*
X0142163Y0146775D02*
X0145542Y0146775D01*
X0145542Y0147374D02*
X0141565Y0147374D01*
X0140966Y0147972D02*
X0145542Y0147972D01*
X0145542Y0148571D02*
X0140368Y0148571D01*
X0139769Y0149170D02*
X0145542Y0149170D01*
X0145542Y0149768D02*
X0139171Y0149768D01*
X0138572Y0150367D02*
X0145542Y0150367D01*
X0145542Y0150965D02*
X0137974Y0150965D01*
X0137375Y0151564D02*
X0145542Y0151564D01*
X0145542Y0152162D02*
X0136777Y0152162D01*
X0136178Y0152761D02*
X0145542Y0152761D01*
X0145542Y0153359D02*
X0135580Y0153359D01*
X0133981Y0151564D02*
X0052642Y0151564D01*
X0052642Y0152162D02*
X0133383Y0152162D01*
X0132784Y0152761D02*
X0052642Y0152761D01*
X0052642Y0150965D02*
X0134580Y0150965D01*
X0135178Y0150367D02*
X0052642Y0150367D01*
X0052642Y0116251D02*
X0078020Y0116251D01*
X0077942Y0115653D02*
X0052642Y0115653D01*
X0052642Y0115054D02*
X0077942Y0115054D01*
X0077942Y0114456D02*
X0052642Y0114456D01*
X0052642Y0113857D02*
X0077942Y0113857D01*
X0077942Y0113259D02*
X0052642Y0113259D01*
X0052642Y0112660D02*
X0077942Y0112660D01*
X0077942Y0112062D02*
X0052642Y0112062D01*
X0052642Y0111463D02*
X0077942Y0111463D01*
X0077942Y0110865D02*
X0052642Y0110865D01*
X0052642Y0110266D02*
X0077942Y0110266D01*
X0077942Y0109668D02*
X0052642Y0109668D01*
X0052642Y0109069D02*
X0077942Y0109069D01*
X0077942Y0108471D02*
X0052642Y0108471D01*
X0052642Y0107872D02*
X0077942Y0107872D01*
X0077942Y0107274D02*
X0052642Y0107274D01*
X0052642Y0106675D02*
X0077942Y0106675D01*
X0078292Y0106077D02*
X0052642Y0106077D01*
X0052642Y0101887D02*
X0148258Y0101887D01*
X0148856Y0101289D02*
X0052642Y0101289D01*
X0052642Y0100690D02*
X0149455Y0100690D01*
X0150053Y0100092D02*
X0052642Y0100092D01*
X0052642Y0099493D02*
X0119305Y0099493D01*
X0118759Y0099267D02*
X0117775Y0098283D01*
X0117242Y0096996D01*
X0117242Y0095604D01*
X0117775Y0094317D01*
X0118759Y0093333D01*
X0120046Y0092800D01*
X0126638Y0092800D01*
X0127924Y0093333D01*
X0128909Y0094317D01*
X0129442Y0095604D01*
X0129442Y0096996D01*
X0128909Y0098283D01*
X0127924Y0099267D01*
X0126638Y0099800D01*
X0120046Y0099800D01*
X0118759Y0099267D01*
X0118387Y0098895D02*
X0052642Y0098895D01*
X0052642Y0098296D02*
X0117788Y0098296D01*
X0117532Y0097698D02*
X0052642Y0097698D01*
X0052642Y0097099D02*
X0117284Y0097099D01*
X0117242Y0096501D02*
X0052642Y0096501D01*
X0052642Y0095902D02*
X0117242Y0095902D01*
X0117366Y0095303D02*
X0052642Y0095303D01*
X0052642Y0094705D02*
X0117614Y0094705D01*
X0117986Y0094106D02*
X0052642Y0094106D01*
X0052642Y0093508D02*
X0118584Y0093508D01*
X0119781Y0092909D02*
X0052642Y0092909D01*
X0052642Y0092311D02*
X0177634Y0092311D01*
X0178232Y0091712D02*
X0052642Y0091712D01*
X0052642Y0091114D02*
X0178831Y0091114D01*
X0179429Y0090515D02*
X0052642Y0090515D01*
X0052642Y0089917D02*
X0180028Y0089917D01*
X0180626Y0089318D02*
X0052642Y0089318D01*
X0052642Y0088720D02*
X0181225Y0088720D01*
X0181823Y0088121D02*
X0052642Y0088121D01*
X0052642Y0087523D02*
X0182422Y0087523D01*
X0183020Y0086924D02*
X0052642Y0086924D01*
X0052642Y0086326D02*
X0183619Y0086326D01*
X0184217Y0085727D02*
X0052642Y0085727D01*
X0052642Y0085129D02*
X0184816Y0085129D01*
X0185414Y0084530D02*
X0052642Y0084530D01*
X0052642Y0083932D02*
X0186013Y0083932D01*
X0186611Y0083333D02*
X0052642Y0083333D01*
X0052642Y0082735D02*
X0187210Y0082735D01*
X0187809Y0082136D02*
X0052642Y0082136D01*
X0052642Y0081538D02*
X0188407Y0081538D01*
X0189006Y0080939D02*
X0052642Y0080939D01*
X0052642Y0080341D02*
X0189604Y0080341D01*
X0190203Y0079742D02*
X0052642Y0079742D01*
X0052642Y0079144D02*
X0190801Y0079144D01*
X0191400Y0078545D02*
X0052642Y0078545D01*
X0052642Y0077947D02*
X0191998Y0077947D01*
X0192597Y0077348D02*
X0052642Y0077348D01*
X0052642Y0076750D02*
X0193195Y0076750D01*
X0193794Y0076151D02*
X0052642Y0076151D01*
X0052642Y0075553D02*
X0194392Y0075553D01*
X0194991Y0074954D02*
X0052642Y0074954D01*
X0052642Y0074356D02*
X0195589Y0074356D01*
X0196188Y0073757D02*
X0052642Y0073757D01*
X0052642Y0073159D02*
X0196786Y0073159D01*
X0196179Y0072560D02*
X0190504Y0072560D01*
X0190533Y0072548D02*
X0189111Y0073137D01*
X0187572Y0073137D01*
X0186150Y0072548D01*
X0185062Y0071460D01*
X0184473Y0070038D01*
X0184473Y0062562D01*
X0185062Y0061140D01*
X0186150Y0060052D01*
X0187572Y0059463D01*
X0189111Y0059463D01*
X0190533Y0060052D01*
X0191621Y0061140D01*
X0192210Y0062562D01*
X0192210Y0070038D01*
X0191621Y0071460D01*
X0190533Y0072548D01*
X0191120Y0071962D02*
X0195564Y0071962D01*
X0195022Y0071363D02*
X0191661Y0071363D01*
X0191909Y0070765D02*
X0194774Y0070765D01*
X0194526Y0070166D02*
X0192157Y0070166D01*
X0192210Y0069568D02*
X0194473Y0069568D01*
X0194473Y0068969D02*
X0192210Y0068969D01*
X0192210Y0068370D02*
X0194473Y0068370D01*
X0194473Y0067772D02*
X0192210Y0067772D01*
X0192210Y0067173D02*
X0194473Y0067173D01*
X0194473Y0066575D02*
X0192210Y0066575D01*
X0192210Y0065976D02*
X0194473Y0065976D01*
X0194473Y0065378D02*
X0192210Y0065378D01*
X0192210Y0064779D02*
X0194473Y0064779D01*
X0194473Y0064181D02*
X0192210Y0064181D01*
X0192210Y0063582D02*
X0194473Y0063582D01*
X0194473Y0062984D02*
X0192210Y0062984D01*
X0192137Y0062385D02*
X0194546Y0062385D01*
X0194794Y0061787D02*
X0191889Y0061787D01*
X0191641Y0061188D02*
X0195042Y0061188D01*
X0195613Y0060590D02*
X0191071Y0060590D01*
X0190387Y0059991D02*
X0196297Y0059991D01*
X0200387Y0059991D02*
X0206297Y0059991D01*
X0205613Y0060590D02*
X0201071Y0060590D01*
X0201641Y0061188D02*
X0205042Y0061188D01*
X0204794Y0061787D02*
X0201889Y0061787D01*
X0202137Y0062385D02*
X0204546Y0062385D01*
X0204473Y0062984D02*
X0202210Y0062984D01*
X0202210Y0063582D02*
X0204473Y0063582D01*
X0204473Y0064181D02*
X0202210Y0064181D01*
X0202210Y0064779D02*
X0204473Y0064779D01*
X0204473Y0065378D02*
X0202210Y0065378D01*
X0202210Y0065976D02*
X0204473Y0065976D01*
X0204473Y0066575D02*
X0202210Y0066575D01*
X0202210Y0067173D02*
X0204473Y0067173D01*
X0204473Y0067772D02*
X0202210Y0067772D01*
X0202210Y0068370D02*
X0204473Y0068370D01*
X0203976Y0068969D02*
X0202210Y0068969D01*
X0202210Y0069568D02*
X0203377Y0069568D01*
X0202779Y0070166D02*
X0202157Y0070166D01*
X0202180Y0070765D02*
X0201909Y0070765D01*
X0203779Y0072560D02*
X0206179Y0072560D01*
X0205564Y0071962D02*
X0204377Y0071962D01*
X0204976Y0071363D02*
X0205022Y0071363D01*
X0203180Y0073159D02*
X0242386Y0073159D01*
X0241788Y0073757D02*
X0202582Y0073757D01*
X0201983Y0074356D02*
X0241189Y0074356D01*
X0240591Y0074954D02*
X0198385Y0074954D01*
X0197786Y0075553D02*
X0239992Y0075553D01*
X0239394Y0076151D02*
X0197188Y0076151D01*
X0196589Y0076750D02*
X0238795Y0076750D01*
X0238197Y0077348D02*
X0195991Y0077348D01*
X0195392Y0077947D02*
X0237598Y0077947D01*
X0237000Y0078545D02*
X0194794Y0078545D01*
X0194195Y0079144D02*
X0236401Y0079144D01*
X0235803Y0079742D02*
X0193597Y0079742D01*
X0192998Y0080341D02*
X0235204Y0080341D01*
X0234606Y0080939D02*
X0192400Y0080939D01*
X0191801Y0081538D02*
X0234007Y0081538D01*
X0233409Y0082136D02*
X0191203Y0082136D01*
X0190604Y0082735D02*
X0232810Y0082735D01*
X0232211Y0083333D02*
X0190006Y0083333D01*
X0189407Y0083932D02*
X0231613Y0083932D01*
X0231014Y0084530D02*
X0188809Y0084530D01*
X0188210Y0085129D02*
X0230416Y0085129D01*
X0229817Y0085727D02*
X0187612Y0085727D01*
X0187013Y0086326D02*
X0229219Y0086326D01*
X0228620Y0086924D02*
X0186415Y0086924D01*
X0185816Y0087523D02*
X0228022Y0087523D01*
X0227423Y0088121D02*
X0185217Y0088121D01*
X0184619Y0088720D02*
X0226825Y0088720D01*
X0226226Y0089318D02*
X0184020Y0089318D01*
X0183422Y0089917D02*
X0225628Y0089917D01*
X0225029Y0090515D02*
X0182823Y0090515D01*
X0182225Y0091114D02*
X0224431Y0091114D01*
X0223832Y0091712D02*
X0181626Y0091712D01*
X0181028Y0092311D02*
X0223234Y0092311D01*
X0222635Y0092909D02*
X0216902Y0092909D01*
X0218100Y0093508D02*
X0222037Y0093508D01*
X0221438Y0094106D02*
X0218698Y0094106D01*
X0219069Y0094705D02*
X0220840Y0094705D01*
X0220241Y0095303D02*
X0219317Y0095303D01*
X0219442Y0095902D02*
X0219643Y0095902D01*
X0215453Y0100092D02*
X0173247Y0100092D01*
X0172649Y0100690D02*
X0179455Y0100690D01*
X0178856Y0101289D02*
X0172050Y0101289D01*
X0173846Y0099493D02*
X0179305Y0099493D01*
X0178387Y0098895D02*
X0174444Y0098895D01*
X0175043Y0098296D02*
X0177788Y0098296D01*
X0177532Y0097698D02*
X0175641Y0097698D01*
X0176240Y0097099D02*
X0177284Y0097099D01*
X0177242Y0096501D02*
X0176838Y0096501D01*
X0175240Y0094705D02*
X0159069Y0094705D01*
X0159317Y0095303D02*
X0174641Y0095303D01*
X0174043Y0095902D02*
X0159442Y0095902D01*
X0159442Y0096501D02*
X0173444Y0096501D01*
X0172846Y0097099D02*
X0159399Y0097099D01*
X0159151Y0097698D02*
X0172247Y0097698D01*
X0171649Y0098296D02*
X0158895Y0098296D01*
X0158297Y0098895D02*
X0171050Y0098895D01*
X0175838Y0094106D02*
X0158698Y0094106D01*
X0158100Y0093508D02*
X0176437Y0093508D01*
X0177035Y0092909D02*
X0156902Y0092909D01*
X0149781Y0092909D02*
X0126902Y0092909D01*
X0128100Y0093508D02*
X0148584Y0093508D01*
X0147986Y0094106D02*
X0128698Y0094106D01*
X0129069Y0094705D02*
X0147614Y0094705D01*
X0147366Y0095303D02*
X0129317Y0095303D01*
X0129442Y0095902D02*
X0147242Y0095902D01*
X0147242Y0096501D02*
X0129442Y0096501D01*
X0129399Y0097099D02*
X0147284Y0097099D01*
X0147532Y0097698D02*
X0129151Y0097698D01*
X0128895Y0098296D02*
X0147788Y0098296D01*
X0148387Y0098895D02*
X0128297Y0098895D01*
X0127379Y0099493D02*
X0149305Y0099493D01*
X0151652Y0101887D02*
X0178258Y0101887D01*
X0180739Y0102800D02*
X0186638Y0102800D01*
X0187924Y0103333D01*
X0188909Y0104317D01*
X0189233Y0105100D01*
X0205045Y0105100D01*
X0207445Y0102700D01*
X0180839Y0102700D01*
X0180739Y0102800D01*
X0183342Y0106300D02*
X0205542Y0106300D01*
X0205265Y0104880D02*
X0189142Y0104880D01*
X0188873Y0104281D02*
X0205864Y0104281D01*
X0206462Y0103683D02*
X0188274Y0103683D01*
X0187324Y0103084D02*
X0207061Y0103084D01*
X0209305Y0099493D02*
X0187379Y0099493D01*
X0188297Y0098895D02*
X0208387Y0098895D01*
X0207788Y0098296D02*
X0188895Y0098296D01*
X0189151Y0097698D02*
X0207532Y0097698D01*
X0207284Y0097099D02*
X0189399Y0097099D01*
X0189442Y0096501D02*
X0207242Y0096501D01*
X0207242Y0095902D02*
X0189442Y0095902D01*
X0189317Y0095303D02*
X0207366Y0095303D01*
X0207614Y0094705D02*
X0189069Y0094705D01*
X0188698Y0094106D02*
X0207986Y0094106D01*
X0208584Y0093508D02*
X0188100Y0093508D01*
X0186902Y0092909D02*
X0209781Y0092909D01*
X0210504Y0072560D02*
X0242985Y0072560D01*
X0241587Y0071962D02*
X0211120Y0071962D01*
X0211661Y0071363D02*
X0240855Y0071363D01*
X0240326Y0070765D02*
X0211909Y0070765D01*
X0212157Y0070166D02*
X0240078Y0070166D01*
X0239842Y0069568D02*
X0212210Y0069568D01*
X0212210Y0068969D02*
X0239842Y0068969D01*
X0239842Y0068370D02*
X0212210Y0068370D01*
X0212210Y0065378D02*
X0239842Y0065378D01*
X0239842Y0064779D02*
X0212210Y0064779D01*
X0212210Y0064181D02*
X0239842Y0064181D01*
X0239842Y0063582D02*
X0212210Y0063582D01*
X0212210Y0062984D02*
X0239850Y0062984D01*
X0240098Y0062385D02*
X0212137Y0062385D01*
X0211889Y0061787D02*
X0240346Y0061787D01*
X0240904Y0061188D02*
X0211641Y0061188D01*
X0211071Y0060590D02*
X0241704Y0060590D01*
X0244979Y0060590D02*
X0247155Y0060590D01*
X0246556Y0061188D02*
X0245780Y0061188D01*
X0247753Y0059991D02*
X0210387Y0059991D01*
X0186297Y0059991D02*
X0052642Y0059991D01*
X0052642Y0059393D02*
X0248352Y0059393D01*
X0249839Y0061300D02*
X0246842Y0064297D01*
X0246842Y0068703D01*
X0249842Y0065703D01*
X0249842Y0063004D01*
X0250375Y0061717D01*
X0250792Y0061300D01*
X0249839Y0061300D01*
X0249352Y0061787D02*
X0250346Y0061787D01*
X0250098Y0062385D02*
X0248753Y0062385D01*
X0248155Y0062984D02*
X0249850Y0062984D01*
X0249842Y0063582D02*
X0247556Y0063582D01*
X0246958Y0064181D02*
X0249842Y0064181D01*
X0249842Y0064779D02*
X0246842Y0064779D01*
X0246842Y0065378D02*
X0249842Y0065378D01*
X0249568Y0065976D02*
X0246842Y0065976D01*
X0246842Y0066575D02*
X0248970Y0066575D01*
X0248371Y0067173D02*
X0246842Y0067173D01*
X0246842Y0067772D02*
X0247773Y0067772D01*
X0247174Y0068370D02*
X0246842Y0068370D01*
X0248773Y0070166D02*
X0250078Y0070166D01*
X0249842Y0069568D02*
X0249371Y0069568D01*
X0250326Y0070765D02*
X0248174Y0070765D01*
X0247576Y0071363D02*
X0250855Y0071363D01*
X0256842Y0065976D02*
X0259842Y0065976D01*
X0259842Y0065378D02*
X0256842Y0065378D01*
X0256842Y0064779D02*
X0259842Y0064779D01*
X0259842Y0064181D02*
X0256842Y0064181D01*
X0256842Y0063582D02*
X0259842Y0063582D01*
X0259850Y0062984D02*
X0256834Y0062984D01*
X0256586Y0062385D02*
X0260098Y0062385D01*
X0260346Y0061787D02*
X0256338Y0061787D01*
X0266338Y0061787D02*
X0270346Y0061787D01*
X0270098Y0062385D02*
X0266586Y0062385D01*
X0266834Y0062984D02*
X0269850Y0062984D01*
X0269842Y0063582D02*
X0266842Y0063582D01*
X0266842Y0064181D02*
X0269842Y0064181D01*
X0269842Y0064779D02*
X0266842Y0064779D01*
X0266842Y0065378D02*
X0269842Y0065378D01*
X0269842Y0065976D02*
X0266842Y0065976D01*
X0266842Y0066575D02*
X0269842Y0066575D01*
X0269842Y0067173D02*
X0266842Y0067173D01*
X0266842Y0067772D02*
X0269842Y0067772D01*
X0269842Y0068370D02*
X0266842Y0068370D01*
X0266842Y0068969D02*
X0269842Y0068969D01*
X0269842Y0069568D02*
X0266842Y0069568D01*
X0266606Y0070166D02*
X0270078Y0070166D01*
X0270326Y0070765D02*
X0266358Y0070765D01*
X0265828Y0071363D02*
X0270855Y0071363D01*
X0271587Y0071962D02*
X0265096Y0071962D01*
X0275096Y0071962D02*
X0281587Y0071962D01*
X0280855Y0071363D02*
X0275828Y0071363D01*
X0276358Y0070765D02*
X0280326Y0070765D01*
X0280078Y0070166D02*
X0276606Y0070166D01*
X0276842Y0069568D02*
X0279842Y0069568D01*
X0279842Y0068969D02*
X0276842Y0068969D01*
X0276842Y0068370D02*
X0279842Y0068370D01*
X0279842Y0067772D02*
X0276842Y0067772D01*
X0276842Y0067173D02*
X0279842Y0067173D01*
X0279842Y0066575D02*
X0276842Y0066575D01*
X0276842Y0065976D02*
X0279842Y0065976D01*
X0279842Y0065378D02*
X0276842Y0065378D01*
X0276842Y0064779D02*
X0279842Y0064779D01*
X0279842Y0064181D02*
X0276842Y0064181D01*
X0276842Y0063582D02*
X0279842Y0063582D01*
X0279850Y0062984D02*
X0276834Y0062984D01*
X0276586Y0062385D02*
X0280098Y0062385D01*
X0280346Y0061787D02*
X0276338Y0061787D01*
X0304979Y0060590D02*
X0311704Y0060590D01*
X0311359Y0060733D02*
X0312646Y0060200D01*
X0314038Y0060200D01*
X0315324Y0060733D01*
X0316309Y0061717D01*
X0316842Y0063004D01*
X0316842Y0069596D01*
X0316309Y0070883D01*
X0315324Y0071867D01*
X0314038Y0072400D01*
X0312646Y0072400D01*
X0311359Y0071867D01*
X0310375Y0070883D01*
X0309842Y0069596D01*
X0309842Y0063004D01*
X0310375Y0061717D01*
X0311359Y0060733D01*
X0310904Y0061188D02*
X0305780Y0061188D01*
X0306338Y0061787D02*
X0310346Y0061787D01*
X0310098Y0062385D02*
X0306586Y0062385D01*
X0306834Y0062984D02*
X0309850Y0062984D01*
X0309842Y0063582D02*
X0306842Y0063582D01*
X0306842Y0064181D02*
X0309842Y0064181D01*
X0309842Y0064779D02*
X0306842Y0064779D01*
X0306842Y0065378D02*
X0309842Y0065378D01*
X0309842Y0065976D02*
X0306842Y0065976D01*
X0306842Y0066575D02*
X0309842Y0066575D01*
X0309842Y0067173D02*
X0306842Y0067173D01*
X0306842Y0067772D02*
X0309842Y0067772D01*
X0309842Y0068370D02*
X0306842Y0068370D01*
X0306842Y0068969D02*
X0309842Y0068969D01*
X0309842Y0069568D02*
X0306842Y0069568D01*
X0306606Y0070166D02*
X0310078Y0070166D01*
X0310326Y0070765D02*
X0306358Y0070765D01*
X0305828Y0071363D02*
X0310855Y0071363D01*
X0311587Y0071962D02*
X0305096Y0071962D01*
X0315096Y0071962D02*
X0321587Y0071962D01*
X0320855Y0071363D02*
X0315828Y0071363D01*
X0316358Y0070765D02*
X0320326Y0070765D01*
X0320078Y0070166D02*
X0316606Y0070166D01*
X0316842Y0069568D02*
X0319842Y0069568D01*
X0319842Y0068969D02*
X0316842Y0068969D01*
X0316842Y0068370D02*
X0319842Y0068370D01*
X0319842Y0067772D02*
X0316842Y0067772D01*
X0316842Y0067173D02*
X0319842Y0067173D01*
X0319842Y0066575D02*
X0316842Y0066575D01*
X0316842Y0065976D02*
X0319842Y0065976D01*
X0319842Y0065378D02*
X0316842Y0065378D01*
X0316842Y0064779D02*
X0319842Y0064779D01*
X0319842Y0064181D02*
X0316842Y0064181D01*
X0316842Y0063582D02*
X0319842Y0063582D01*
X0319850Y0062984D02*
X0316834Y0062984D01*
X0316586Y0062385D02*
X0320098Y0062385D01*
X0320346Y0061787D02*
X0316338Y0061787D01*
X0315780Y0061188D02*
X0320904Y0061188D01*
X0321704Y0060590D02*
X0314979Y0060590D01*
X0342182Y0052809D02*
X0088742Y0052809D01*
X0088742Y0052211D02*
X0342073Y0052211D01*
X0342073Y0051612D02*
X0088742Y0051612D01*
X0088742Y0051014D02*
X0342073Y0051014D01*
X0342073Y0050415D02*
X0088742Y0050415D01*
X0088742Y0049817D02*
X0342171Y0049817D01*
X0342419Y0049218D02*
X0088742Y0049218D01*
X0088742Y0048620D02*
X0342667Y0048620D01*
X0342915Y0048021D02*
X0088742Y0048021D01*
X0088742Y0047423D02*
X0343354Y0047423D01*
X0343953Y0046824D02*
X0088742Y0046824D01*
X0088742Y0046427D02*
X0088742Y0056173D01*
X0088215Y0056700D01*
X0078469Y0056700D01*
X0077942Y0056173D01*
X0077942Y0046427D01*
X0078469Y0045900D01*
X0088215Y0045900D01*
X0088742Y0046427D01*
X0088540Y0046226D02*
X0344551Y0046226D01*
X0345657Y0045627D02*
X0061026Y0045627D01*
X0062132Y0046226D02*
X0078143Y0046226D01*
X0077942Y0046824D02*
X0062731Y0046824D01*
X0063329Y0047423D02*
X0077942Y0047423D01*
X0077942Y0048021D02*
X0063769Y0048021D01*
X0064017Y0048620D02*
X0077942Y0048620D01*
X0077942Y0049218D02*
X0064264Y0049218D01*
X0064512Y0049817D02*
X0077942Y0049817D01*
X0077942Y0050415D02*
X0064610Y0050415D01*
X0064610Y0051014D02*
X0077942Y0051014D01*
X0077942Y0051612D02*
X0064610Y0051612D01*
X0064610Y0052211D02*
X0077942Y0052211D01*
X0077942Y0052809D02*
X0064502Y0052809D01*
X0064254Y0053408D02*
X0077942Y0053408D01*
X0077942Y0054006D02*
X0064006Y0054006D01*
X0063758Y0054605D02*
X0077942Y0054605D01*
X0077942Y0055203D02*
X0063304Y0055203D01*
X0062705Y0055802D02*
X0077942Y0055802D01*
X0078169Y0056400D02*
X0062107Y0056400D01*
X0060964Y0056999D02*
X0345719Y0056999D01*
X0344577Y0056400D02*
X0088514Y0056400D01*
X0088742Y0055802D02*
X0343979Y0055802D01*
X0343380Y0055203D02*
X0088742Y0055203D01*
X0088742Y0054605D02*
X0342926Y0054605D01*
X0342678Y0054006D02*
X0088742Y0054006D01*
X0088742Y0053408D02*
X0342430Y0053408D01*
X0316410Y0110865D02*
X0172674Y0110865D01*
X0172076Y0111463D02*
X0317008Y0111463D01*
X0317607Y0112062D02*
X0171477Y0112062D01*
X0170879Y0112660D02*
X0318205Y0112660D01*
X0318804Y0113259D02*
X0217746Y0113259D01*
X0218449Y0113857D02*
X0319402Y0113857D01*
X0320001Y0114456D02*
X0218966Y0114456D01*
X0219214Y0115054D02*
X0319884Y0115054D01*
X0319670Y0115653D02*
X0219442Y0115653D01*
X0219442Y0116251D02*
X0319670Y0116251D01*
X0319670Y0116850D02*
X0219442Y0116850D01*
X0219254Y0117448D02*
X0319843Y0117448D01*
X0320091Y0118047D02*
X0219007Y0118047D01*
X0218546Y0118645D02*
X0320495Y0118645D01*
X0321093Y0119244D02*
X0217948Y0119244D01*
X0209539Y0133010D02*
X0191349Y0133010D01*
X0191947Y0133608D02*
X0208484Y0133608D01*
X0207885Y0134207D02*
X0192546Y0134207D01*
X0193144Y0134805D02*
X0207573Y0134805D01*
X0207325Y0135404D02*
X0193743Y0135404D01*
X0194341Y0136002D02*
X0207242Y0136002D01*
X0207242Y0136601D02*
X0194940Y0136601D01*
X0195538Y0137199D02*
X0207326Y0137199D01*
X0207574Y0137798D02*
X0196137Y0137798D01*
X0196735Y0138396D02*
X0207888Y0138396D01*
X0209118Y0143184D02*
X0187566Y0143184D01*
X0188374Y0143783D02*
X0208309Y0143783D01*
X0207748Y0144381D02*
X0188935Y0144381D01*
X0189183Y0144980D02*
X0207500Y0144980D01*
X0207252Y0145578D02*
X0189431Y0145578D01*
X0189442Y0146177D02*
X0207242Y0146177D01*
X0207242Y0146775D02*
X0189442Y0146775D01*
X0189285Y0147374D02*
X0207398Y0147374D01*
X0207646Y0147972D02*
X0189037Y0147972D01*
X0188621Y0148571D02*
X0208063Y0148571D01*
X0208662Y0149170D02*
X0188022Y0149170D01*
X0188307Y0149768D02*
X0209968Y0149768D01*
X0214932Y0141987D02*
X0162342Y0141987D01*
X0162342Y0141389D02*
X0214334Y0141389D01*
X0195735Y0140790D02*
X0162342Y0140790D01*
X0162342Y0140192D02*
X0195137Y0140192D01*
X0194538Y0139593D02*
X0187137Y0139593D01*
X0186638Y0139800D02*
X0187924Y0139267D01*
X0188909Y0138283D01*
X0189442Y0136996D01*
X0189442Y0135604D01*
X0188909Y0134317D01*
X0187924Y0133333D01*
X0186638Y0132800D01*
X0180046Y0132800D01*
X0178759Y0133333D01*
X0177775Y0134317D01*
X0177242Y0135604D01*
X0177242Y0136996D01*
X0177775Y0138283D01*
X0178759Y0139267D01*
X0180046Y0139800D01*
X0186638Y0139800D01*
X0188197Y0138995D02*
X0193940Y0138995D01*
X0193341Y0138396D02*
X0188795Y0138396D01*
X0189110Y0137798D02*
X0192743Y0137798D01*
X0192144Y0137199D02*
X0189358Y0137199D01*
X0189442Y0136601D02*
X0191546Y0136601D01*
X0190947Y0136002D02*
X0189442Y0136002D01*
X0189359Y0135404D02*
X0190349Y0135404D01*
X0189750Y0134805D02*
X0189111Y0134805D01*
X0189152Y0134207D02*
X0188798Y0134207D01*
X0188553Y0133608D02*
X0188200Y0133608D01*
X0187954Y0133010D02*
X0187144Y0133010D01*
X0187356Y0132411D02*
X0162342Y0132411D01*
X0162342Y0131813D02*
X0186757Y0131813D01*
X0186159Y0131214D02*
X0162342Y0131214D01*
X0162342Y0130616D02*
X0185560Y0130616D01*
X0179539Y0133010D02*
X0162342Y0133010D01*
X0162342Y0133608D02*
X0178484Y0133608D01*
X0177885Y0134207D02*
X0162342Y0134207D01*
X0162342Y0134805D02*
X0177573Y0134805D01*
X0177325Y0135404D02*
X0162342Y0135404D01*
X0162342Y0136002D02*
X0177242Y0136002D01*
X0177242Y0136601D02*
X0162342Y0136601D01*
X0162342Y0137199D02*
X0177326Y0137199D01*
X0177574Y0137798D02*
X0162342Y0137798D01*
X0162342Y0138396D02*
X0177888Y0138396D01*
X0178487Y0138995D02*
X0162342Y0138995D01*
X0162342Y0139593D02*
X0179547Y0139593D01*
X0187951Y0153359D02*
X0188504Y0153359D01*
X0188549Y0153958D02*
X0188742Y0153958D01*
X0158742Y0153958D02*
X0158549Y0153958D01*
X0158742Y0153359D02*
X0157951Y0153359D01*
X0149968Y0149768D02*
X0147942Y0149768D01*
X0147942Y0149170D02*
X0148662Y0149170D01*
X0148063Y0148571D02*
X0147942Y0148571D01*
X0147942Y0144150D02*
X0148759Y0143333D01*
X0150046Y0142800D01*
X0156638Y0142800D01*
X0157924Y0143333D01*
X0158742Y0144150D01*
X0158742Y0138450D01*
X0157924Y0139267D01*
X0156638Y0139800D01*
X0150046Y0139800D01*
X0148759Y0139267D01*
X0147942Y0138450D01*
X0147942Y0144150D01*
X0147942Y0143783D02*
X0148309Y0143783D01*
X0147942Y0143184D02*
X0149118Y0143184D01*
X0147942Y0142586D02*
X0158742Y0142586D01*
X0158742Y0143184D02*
X0157566Y0143184D01*
X0158374Y0143783D02*
X0158742Y0143783D01*
X0158742Y0141987D02*
X0147942Y0141987D01*
X0147942Y0141389D02*
X0158742Y0141389D01*
X0158742Y0140790D02*
X0147942Y0140790D01*
X0147942Y0140192D02*
X0158742Y0140192D01*
X0158742Y0139593D02*
X0157137Y0139593D01*
X0158197Y0138995D02*
X0158742Y0138995D01*
X0158742Y0134150D02*
X0158742Y0128450D01*
X0157924Y0129267D01*
X0156638Y0129800D01*
X0150046Y0129800D01*
X0148759Y0129267D01*
X0147942Y0128450D01*
X0147942Y0134150D01*
X0148759Y0133333D01*
X0150046Y0132800D01*
X0156638Y0132800D01*
X0157924Y0133333D01*
X0158742Y0134150D01*
X0158742Y0133608D02*
X0158200Y0133608D01*
X0158742Y0133010D02*
X0157144Y0133010D01*
X0158742Y0132411D02*
X0147942Y0132411D01*
X0147942Y0131813D02*
X0158742Y0131813D01*
X0158742Y0131214D02*
X0147942Y0131214D01*
X0147942Y0130616D02*
X0158742Y0130616D01*
X0158742Y0130017D02*
X0147942Y0130017D01*
X0147942Y0129419D02*
X0149125Y0129419D01*
X0148312Y0128820D02*
X0147942Y0128820D01*
X0147942Y0133010D02*
X0149539Y0133010D01*
X0148484Y0133608D02*
X0147942Y0133608D01*
X0147942Y0138995D02*
X0148487Y0138995D01*
X0147942Y0139593D02*
X0149547Y0139593D01*
X0157559Y0129419D02*
X0158742Y0129419D01*
X0158742Y0128820D02*
X0158371Y0128820D01*
X0149961Y0122835D02*
X0147942Y0122835D01*
X0147942Y0123434D02*
X0148659Y0123434D01*
X0148060Y0124032D02*
X0147942Y0124032D01*
X0144342Y0112660D02*
X0088742Y0112660D01*
X0088742Y0112062D02*
X0144342Y0112062D01*
X0144342Y0111463D02*
X0088742Y0111463D01*
X0088742Y0110865D02*
X0144342Y0110865D01*
X0146742Y0109069D02*
X0148561Y0109069D01*
X0147963Y0108471D02*
X0146742Y0108471D01*
X0146742Y0107872D02*
X0147605Y0107872D01*
X0147357Y0107274D02*
X0146742Y0107274D01*
X0146864Y0106675D02*
X0147242Y0106675D01*
X0162499Y0121039D02*
X0341742Y0121039D01*
X0341742Y0120441D02*
X0163098Y0120441D01*
X0163696Y0119842D02*
X0322300Y0119842D01*
X0324384Y0119842D02*
X0341742Y0119842D01*
X0341742Y0119244D02*
X0325590Y0119244D01*
X0326189Y0118645D02*
X0341742Y0118645D01*
X0341742Y0118047D02*
X0326592Y0118047D01*
X0326840Y0117448D02*
X0341742Y0117448D01*
X0341742Y0116850D02*
X0327013Y0116850D01*
X0341742Y0121638D02*
X0162342Y0121638D01*
X0174470Y0109069D02*
X0178561Y0109069D01*
X0177963Y0108471D02*
X0175068Y0108471D01*
X0175667Y0107872D02*
X0177605Y0107872D01*
X0177357Y0107274D02*
X0176265Y0107274D01*
X0176864Y0106675D02*
X0177242Y0106675D01*
X0186179Y0072560D02*
X0052642Y0072560D01*
X0052642Y0071962D02*
X0185564Y0071962D01*
X0185022Y0071363D02*
X0052642Y0071363D01*
X0052642Y0070765D02*
X0184774Y0070765D01*
X0184526Y0070166D02*
X0052642Y0070166D01*
X0052642Y0069568D02*
X0184473Y0069568D01*
X0184473Y0068969D02*
X0052642Y0068969D01*
X0052642Y0068370D02*
X0184473Y0068370D01*
X0184473Y0067772D02*
X0052642Y0067772D01*
X0052642Y0067173D02*
X0184473Y0067173D01*
X0184473Y0066575D02*
X0052642Y0066575D01*
X0052642Y0065976D02*
X0184473Y0065976D01*
X0184473Y0065378D02*
X0052642Y0065378D01*
X0052642Y0064779D02*
X0184473Y0064779D01*
X0184473Y0064181D02*
X0052642Y0064181D01*
X0052642Y0063582D02*
X0184473Y0063582D01*
X0184473Y0062984D02*
X0052642Y0062984D01*
X0052642Y0062385D02*
X0184546Y0062385D01*
X0184794Y0061787D02*
X0052642Y0061787D01*
X0052642Y0061188D02*
X0185042Y0061188D01*
X0185613Y0060590D02*
X0052642Y0060590D01*
X0147942Y0158746D02*
X0148238Y0158746D01*
X0147942Y0159344D02*
X0148945Y0159344D01*
X0356282Y0280842D02*
X0388342Y0280842D01*
M02*
