%
M48
M72
T01C0.00600
T02C0.02400
T03C0.03200
T04C0.03937
T05C0.04000
T06C0.05600
%
T01
X57300Y56300
X74300Y82300
X117300Y82300
X140300Y62300
X168300Y63300
X176300Y63300
X168300Y81300
X187300Y83300
X219300Y83300
X224300Y57300
X261300Y89300
X292300Y63300
X302300Y66300
X304300Y57300
X308300Y57300
X315300Y48300
X321300Y50300
X289300Y54300
X271300Y51300
X189300Y134300
X143300Y128300
X96300Y128300
X49300Y128300
X69300Y190300
X69300Y203300
X181300Y239300
X202300Y224300
X196300Y216300
X281300Y138300
X291300Y147300
X195300Y299300
T02
X326300Y156300
X356300Y146300
X376300Y156300
X376300Y126300
X356300Y116300
X376300Y96300
X356300Y86300
X326300Y96300
X326300Y126300
T03
X291300Y126300
X281300Y126300
X271300Y126300
X261300Y126300
X251300Y126300
X241300Y126300
X231300Y126300
X226300Y101300
X236300Y101300
X246300Y101300
X256300Y101300
X266300Y101300
X276300Y101300
X286300Y101300
X286300Y71300
X276300Y71300
X266300Y71300
X256300Y71300
X246300Y71300
X236300Y71300
X226300Y71300
X186300Y71300
X176300Y71300
X166300Y71300
X156300Y71300
X146300Y71300
X136300Y71300
X126300Y71300
X101300Y71300
X91300Y71300
X81300Y71300
X71300Y71300
X61300Y71300
X51300Y71300
X41300Y71300
X41300Y101300
X51300Y101300
X61300Y101300
X71300Y101300
X81300Y101300
X91300Y101300
X101300Y101300
X101300Y116300
X91300Y116300
X81300Y116300
X71300Y116300
X61300Y116300
X51300Y116300
X41300Y116300
X41300Y146300
X51300Y146300
X61300Y146300
X71300Y146300
X81300Y146300
X91300Y146300
X101300Y146300
X126300Y151300
X136300Y151300
X146300Y151300
X156300Y151300
X166300Y151300
X176300Y151300
X186300Y151300
X196300Y171300
X196300Y191300
X216300Y211300
X236300Y226300
X216300Y236300
X241300Y246300
X216300Y261300
X216300Y281300
X216300Y301300
X241300Y296300
X256300Y321300
X266300Y321300
X296300Y321300
X311300Y306300
X346300Y321300
X311300Y256300
X311300Y236300
X311300Y186300
X291300Y156300
X281300Y156300
X271300Y156300
X261300Y156300
X251300Y156300
X241300Y156300
X231300Y156300
X236300Y176300
X186300Y121300
X176300Y121300
X166300Y121300
X156300Y121300
X146300Y121300
X136300Y121300
X126300Y121300
X126300Y101300
X136300Y101300
X146300Y101300
X156300Y101300
X166300Y101300
X176300Y101300
X186300Y101300
X126300Y166300
X146300Y171300
X146300Y191300
X126300Y191300
X151300Y211300
X166300Y211300
X151300Y231300
X166300Y236300
X151300Y256300
X166300Y261300
X166300Y281300
X151300Y286300
X166300Y301300
X151300Y306300
X151300Y326300
X161300Y326300
X126294Y325733
X101300Y306300
X81300Y306300
X61300Y306300
X46300Y306300
X26300Y306300
X46300Y326300
X56300Y326300
X76306Y326867
X81300Y286300
X86300Y271300
X101300Y256300
X101300Y231300
X86300Y221300
X101300Y211300
X76300Y191300
X61300Y211300
X61300Y221300
X61300Y271300
X61300Y286300
X101300Y286300
X206300Y326300
X216300Y326300
X76300Y166300
X61300Y161300
X301300Y36300
X311300Y36300
X321300Y36300
X331300Y36300
X341300Y36300
X351300Y36300
X361300Y36300
X371300Y36300
X381300Y36300
T04
X21300Y36300
X71300Y46300
X81300Y46300
X91300Y46300
X136300Y46300
X146300Y46300
X156300Y46300
X166300Y46300
X176300Y46300
X186300Y46300
X226300Y46300
X236300Y46300
X246300Y46300
X256300Y46300
X396300Y36300
X396300Y331300
X31300Y266300
X31300Y256300
X31300Y246300
X31300Y196300
X31300Y186300
X31300Y176300
X21300Y331300
X21300Y331300
T05
X276300Y290800
X276300Y201800
T06
X382557Y246313
X381300Y306300
M30
