G75*
%MOIN*%
%OFA0B0*%
%FSLAX25Y25*%
%IPPOS*%
%LPD*%
%AMOC8*
5,1,8,0,0,1.08239X$1,22.5*
%
%ADD10C,0.04737*%
%ADD11OC8,0.06800*%
%ADD12OC8,0.06000*%
%ADD13C,0.06737*%
%ADD14R,0.09800X0.09800*%
%ADD15C,0.06000*%
%ADD16C,0.05200*%
%ADD17C,0.03778*%
D10*
X0088342Y0031300D03*
X0463342Y0031300D03*
X0463342Y0326300D03*
X0088342Y0326300D03*
D11*
X0188842Y0266300D03*
X0277842Y0266300D03*
D12*
X0313342Y0256300D03*
X0318342Y0231300D03*
X0308342Y0231300D03*
X0308342Y0211300D03*
X0318342Y0211300D03*
X0318342Y0191300D03*
X0308342Y0191300D03*
X0308342Y0171300D03*
X0318342Y0171300D03*
X0318342Y0151300D03*
X0308342Y0151300D03*
X0308342Y0131300D03*
X0318342Y0131300D03*
X0318342Y0106300D03*
X0308342Y0106300D03*
X0258342Y0106300D03*
X0248342Y0106300D03*
X0248342Y0131300D03*
X0258342Y0131300D03*
X0258342Y0151300D03*
X0248342Y0151300D03*
X0248342Y0171300D03*
X0258342Y0171300D03*
X0258342Y0191300D03*
X0248342Y0191300D03*
X0248342Y0211300D03*
X0258342Y0211300D03*
X0258342Y0231300D03*
X0248342Y0231300D03*
X0198342Y0231300D03*
X0178342Y0216300D03*
X0198342Y0211300D03*
X0178342Y0196300D03*
X0198342Y0191300D03*
X0178342Y0176300D03*
X0198342Y0171300D03*
X0178342Y0156300D03*
X0198342Y0151300D03*
X0198342Y0131300D03*
X0178342Y0131300D03*
X0178342Y0111300D03*
X0198342Y0106300D03*
X0108342Y0166300D03*
X0098342Y0166300D03*
X0098342Y0251300D03*
X0108342Y0251300D03*
X0348342Y0316300D03*
X0358342Y0316300D03*
X0363342Y0256300D03*
X0368342Y0231300D03*
X0368342Y0211300D03*
X0368342Y0191300D03*
X0368342Y0171300D03*
X0368342Y0151300D03*
X0368342Y0131300D03*
X0368342Y0106300D03*
D13*
X0368342Y0049269D02*
X0368342Y0043331D01*
X0378342Y0043331D02*
X0378342Y0049269D01*
X0398342Y0049269D02*
X0398342Y0043331D01*
X0408342Y0043331D02*
X0408342Y0049269D01*
X0418342Y0049269D02*
X0418342Y0043331D01*
X0428342Y0043331D02*
X0428342Y0049269D01*
X0438342Y0049269D02*
X0438342Y0043331D01*
X0448342Y0043331D02*
X0448342Y0049269D01*
X0358342Y0049269D02*
X0358342Y0043331D01*
X0333342Y0308331D02*
X0333342Y0314269D01*
X0323342Y0314269D02*
X0323342Y0308331D01*
X0313342Y0308331D02*
X0313342Y0314269D01*
X0293342Y0314269D02*
X0293342Y0308331D01*
X0283342Y0308331D02*
X0283342Y0314269D01*
X0273342Y0314269D02*
X0273342Y0308331D01*
X0263342Y0308331D02*
X0263342Y0314269D01*
X0228342Y0314269D02*
X0228342Y0308331D01*
X0218342Y0308331D02*
X0218342Y0314269D01*
X0208342Y0314269D02*
X0208342Y0308331D01*
D14*
X0163342Y0051300D03*
X0103342Y0051300D03*
D15*
X0108342Y0103700D02*
X0108342Y0108900D01*
X0118342Y0108900D02*
X0118342Y0103700D01*
X0128342Y0103700D02*
X0128342Y0108900D01*
X0138342Y0108900D02*
X0138342Y0103700D01*
X0148342Y0103700D02*
X0148342Y0108900D01*
X0158342Y0108900D02*
X0158342Y0103700D01*
X0158342Y0133700D02*
X0158342Y0138900D01*
X0148342Y0138900D02*
X0148342Y0133700D01*
X0138342Y0133700D02*
X0138342Y0138900D01*
X0128342Y0138900D02*
X0128342Y0133700D01*
X0118342Y0133700D02*
X0118342Y0138900D01*
X0108342Y0138900D02*
X0108342Y0133700D01*
X0098342Y0133700D02*
X0098342Y0138900D01*
X0098342Y0108900D02*
X0098342Y0103700D01*
X0098342Y0193700D02*
X0098342Y0198900D01*
X0108342Y0198900D02*
X0108342Y0193700D01*
X0118342Y0193700D02*
X0118342Y0198900D01*
X0128342Y0198900D02*
X0128342Y0193700D01*
X0138342Y0193700D02*
X0138342Y0198900D01*
X0148342Y0198900D02*
X0148342Y0193700D01*
X0158342Y0193700D02*
X0158342Y0198900D01*
X0158342Y0223700D02*
X0158342Y0228900D01*
X0148342Y0228900D02*
X0148342Y0223700D01*
X0138342Y0223700D02*
X0138342Y0228900D01*
X0128342Y0228900D02*
X0128342Y0223700D01*
X0118342Y0223700D02*
X0118342Y0228900D01*
X0108342Y0228900D02*
X0108342Y0223700D01*
X0098342Y0223700D02*
X0098342Y0228900D01*
X0098342Y0278700D02*
X0098342Y0283900D01*
X0108342Y0283900D02*
X0108342Y0278700D01*
X0118342Y0278700D02*
X0118342Y0283900D01*
X0128342Y0283900D02*
X0128342Y0278700D01*
X0138342Y0278700D02*
X0138342Y0283900D01*
X0148342Y0283900D02*
X0148342Y0278700D01*
X0158342Y0278700D02*
X0158342Y0283900D01*
X0158342Y0308700D02*
X0158342Y0313900D01*
X0148342Y0313900D02*
X0148342Y0308700D01*
X0138342Y0308700D02*
X0138342Y0313900D01*
X0128342Y0313900D02*
X0128342Y0308700D01*
X0118342Y0308700D02*
X0118342Y0313900D01*
X0108342Y0313900D02*
X0108342Y0308700D01*
X0098342Y0308700D02*
X0098342Y0313900D01*
X0388342Y0313700D02*
X0388342Y0318900D01*
X0398342Y0318900D02*
X0398342Y0313700D01*
X0408342Y0313700D02*
X0408342Y0318900D01*
X0418342Y0318900D02*
X0418342Y0313700D01*
X0428342Y0313700D02*
X0428342Y0318900D01*
X0438342Y0318900D02*
X0438342Y0313700D01*
X0448342Y0313700D02*
X0448342Y0318900D01*
X0448342Y0288900D02*
X0448342Y0283700D01*
X0438342Y0283700D02*
X0438342Y0288900D01*
X0428342Y0288900D02*
X0428342Y0283700D01*
X0418342Y0283700D02*
X0418342Y0288900D01*
X0408342Y0288900D02*
X0408342Y0283700D01*
X0398342Y0283700D02*
X0398342Y0288900D01*
X0388342Y0288900D02*
X0388342Y0283700D01*
X0398342Y0228900D02*
X0398342Y0223700D01*
X0408342Y0223700D02*
X0408342Y0228900D01*
X0418342Y0228900D02*
X0418342Y0223700D01*
X0428342Y0223700D02*
X0428342Y0228900D01*
X0438342Y0228900D02*
X0438342Y0223700D01*
X0448342Y0223700D02*
X0448342Y0228900D01*
X0458342Y0228900D02*
X0458342Y0223700D01*
X0458342Y0198900D02*
X0458342Y0193700D01*
X0448342Y0193700D02*
X0448342Y0198900D01*
X0438342Y0198900D02*
X0438342Y0193700D01*
X0428342Y0193700D02*
X0428342Y0198900D01*
X0418342Y0198900D02*
X0418342Y0193700D01*
X0408342Y0193700D02*
X0408342Y0198900D01*
X0398342Y0198900D02*
X0398342Y0193700D01*
X0398342Y0138900D02*
X0398342Y0133700D01*
X0408342Y0133700D02*
X0408342Y0138900D01*
X0418342Y0138900D02*
X0418342Y0133700D01*
X0428342Y0133700D02*
X0428342Y0138900D01*
X0438342Y0138900D02*
X0438342Y0133700D01*
X0448342Y0133700D02*
X0448342Y0138900D01*
X0458342Y0138900D02*
X0458342Y0133700D01*
X0458342Y0108900D02*
X0458342Y0103700D01*
X0448342Y0103700D02*
X0448342Y0108900D01*
X0438342Y0108900D02*
X0438342Y0103700D01*
X0428342Y0103700D02*
X0428342Y0108900D01*
X0418342Y0108900D02*
X0418342Y0103700D01*
X0408342Y0103700D02*
X0408342Y0108900D01*
X0398342Y0108900D02*
X0398342Y0103700D01*
X0333342Y0048900D02*
X0333342Y0043700D01*
X0323342Y0043700D02*
X0323342Y0048900D01*
X0313342Y0048900D02*
X0313342Y0043700D01*
X0303342Y0043700D02*
X0303342Y0048900D01*
X0293342Y0048900D02*
X0293342Y0043700D01*
X0283342Y0043700D02*
X0283342Y0048900D01*
X0273342Y0048900D02*
X0273342Y0043700D01*
X0263342Y0043700D02*
X0263342Y0048900D01*
X0253342Y0048900D02*
X0253342Y0043700D01*
D16*
X0398342Y0081300D03*
X0428342Y0071300D03*
X0448342Y0081300D03*
X0428342Y0161300D03*
X0448342Y0171300D03*
X0398342Y0171300D03*
X0423342Y0251300D03*
X0443342Y0261300D03*
X0393342Y0261300D03*
D17*
X0350742Y0206100D03*
X0379542Y0195300D03*
X0415542Y0165300D03*
X0387342Y0132300D03*
X0399342Y0120300D03*
X0371142Y0114300D03*
X0362142Y0080700D03*
X0364542Y0070500D03*
X0362142Y0057300D03*
X0303942Y0056100D03*
X0254142Y0096300D03*
X0215142Y0096300D03*
X0204942Y0084900D03*
X0184542Y0060300D03*
X0195942Y0135900D03*
X0192342Y0139500D03*
X0205542Y0149100D03*
X0203142Y0152100D03*
X0209742Y0145500D03*
X0215142Y0157500D03*
X0219942Y0167100D03*
X0218142Y0170700D03*
X0239142Y0170700D03*
X0258942Y0158700D03*
X0253542Y0143700D03*
X0285342Y0158100D03*
X0291342Y0161700D03*
X0288342Y0151500D03*
X0264342Y0188700D03*
X0272142Y0210900D03*
X0263142Y0221700D03*
X0278742Y0225300D03*
X0245142Y0234900D03*
X0234342Y0226500D03*
X0244542Y0216300D03*
X0192342Y0188700D03*
X0188142Y0197700D03*
X0179142Y0204900D03*
X0152742Y0188700D03*
X0171942Y0170100D03*
X0183342Y0172500D03*
X0189342Y0173700D03*
X0176142Y0226500D03*
X0150942Y0258900D03*
X0146142Y0288900D03*
X0165342Y0298500D03*
X0194142Y0278100D03*
X0275742Y0260100D03*
X0305742Y0288900D03*
X0315942Y0218700D03*
X0299742Y0101100D03*
X0116742Y0184500D03*
M02*
