G04 EAGLE Gerber X2 export*
%TF.Part,Single*%
%TF.FileFunction,Copper,L1,Top,Mixed*%
%TF.FilePolarity,Positive*%
%TF.GenerationSoftware,Autodesk,EAGLE,8.6.2*%
%TF.CreationDate,2018-03-24T09:11:56Z*%
G75*
%MOMM*%
%FSLAX34Y34*%
%LPD*%
%AMOC8*
5,1,8,0,0,1.08239X$1,22.5*%
G01*
%ADD10P,1.429621X8X22.500000*%
%ADD11P,1.649562X8X112.500000*%
%ADD12P,3.409096X8X112.500000*%
%ADD13C,3.149600*%
%ADD14R,2.286000X2.286000*%
%ADD15C,1.320800*%
%ADD16C,1.508000*%
%ADD17C,1.320800*%
%ADD18C,2.500000*%
%ADD19C,0.635000*%
%ADD20C,0.254000*%
%ADD21C,0.756400*%

G36*
X1041421Y-38857D02*
X1041421Y-38857D01*
X1041451Y-38860D01*
X1041542Y-38838D01*
X1041634Y-38824D01*
X1041661Y-38811D01*
X1041690Y-38804D01*
X1041770Y-38755D01*
X1041853Y-38712D01*
X1041874Y-38690D01*
X1041899Y-38675D01*
X1041959Y-38602D01*
X1042024Y-38536D01*
X1042037Y-38508D01*
X1042057Y-38485D01*
X1042090Y-38398D01*
X1042131Y-38314D01*
X1042134Y-38284D01*
X1042145Y-38256D01*
X1042161Y-38089D01*
X1029461Y825511D01*
X1029459Y825525D01*
X1029460Y825539D01*
X1029437Y825646D01*
X1029418Y825753D01*
X1029411Y825766D01*
X1029408Y825780D01*
X1029352Y825873D01*
X1029300Y825969D01*
X1029289Y825979D01*
X1029282Y825991D01*
X1029199Y826062D01*
X1029119Y826136D01*
X1029106Y826142D01*
X1029095Y826151D01*
X1028994Y826192D01*
X1028894Y826236D01*
X1028880Y826237D01*
X1028867Y826243D01*
X1028700Y826261D01*
X-25400Y826261D01*
X-25420Y826258D01*
X-25439Y826260D01*
X-25541Y826238D01*
X-25643Y826222D01*
X-25660Y826212D01*
X-25680Y826208D01*
X-25769Y826155D01*
X-25860Y826106D01*
X-25874Y826092D01*
X-25891Y826082D01*
X-25958Y826003D01*
X-26030Y825928D01*
X-26038Y825910D01*
X-26051Y825895D01*
X-26090Y825799D01*
X-26133Y825705D01*
X-26135Y825685D01*
X-26143Y825667D01*
X-26161Y825500D01*
X-26161Y-25400D01*
X-26159Y-25415D01*
X-26161Y-25430D01*
X-26139Y-25537D01*
X-26122Y-25643D01*
X-26114Y-25656D01*
X-26111Y-25671D01*
X-26057Y-25765D01*
X-26006Y-25860D01*
X-25995Y-25871D01*
X-25988Y-25884D01*
X-25906Y-25955D01*
X-25828Y-26030D01*
X-25814Y-26036D01*
X-25803Y-26046D01*
X-25703Y-26088D01*
X-25605Y-26133D01*
X-25590Y-26135D01*
X-25576Y-26141D01*
X-25409Y-26161D01*
X1041391Y-38861D01*
X1041421Y-38857D01*
G37*
%LPC*%
G36*
X-2021Y-10161D02*
X-2021Y-10161D01*
X-5756Y-8614D01*
X-8614Y-5756D01*
X-10161Y-2021D01*
X-10161Y802021D01*
X-8614Y805756D01*
X-5756Y808614D01*
X-2021Y810161D01*
X1002021Y810161D01*
X1005756Y808614D01*
X1008614Y805756D01*
X1010161Y802021D01*
X1010161Y-2021D01*
X1008614Y-5756D01*
X1005756Y-8614D01*
X1002021Y-10161D01*
X-2021Y-10161D01*
G37*
%LPD*%
G36*
X612780Y10172D02*
X612780Y10172D01*
X612852Y10174D01*
X612901Y10192D01*
X612952Y10200D01*
X613015Y10234D01*
X613083Y10259D01*
X613123Y10291D01*
X613169Y10316D01*
X613219Y10368D01*
X613275Y10412D01*
X613303Y10456D01*
X613339Y10494D01*
X613369Y10559D01*
X613408Y10619D01*
X613420Y10670D01*
X613442Y10717D01*
X613450Y10788D01*
X613468Y10858D01*
X613464Y10910D01*
X613469Y10961D01*
X613454Y11032D01*
X613449Y11103D01*
X613428Y11151D01*
X613417Y11202D01*
X613380Y11263D01*
X613352Y11329D01*
X613308Y11385D01*
X613291Y11413D01*
X613273Y11428D01*
X613248Y11460D01*
X610881Y13826D01*
X610807Y13879D01*
X610738Y13939D01*
X610708Y13951D01*
X610682Y13970D01*
X610595Y13997D01*
X610510Y14031D01*
X610469Y14035D01*
X610447Y14042D01*
X610414Y14041D01*
X610343Y14049D01*
X604372Y14049D01*
X600150Y18271D01*
X600076Y18324D01*
X600007Y18384D01*
X599977Y18396D01*
X599951Y18415D01*
X599864Y18442D01*
X599779Y18476D01*
X599738Y18480D01*
X599716Y18487D01*
X599683Y18486D01*
X599612Y18494D01*
X340004Y18494D01*
X336999Y19739D01*
X309891Y46846D01*
X309818Y46899D01*
X309748Y46959D01*
X309718Y46971D01*
X309692Y46990D01*
X309605Y47017D01*
X309520Y47051D01*
X309479Y47055D01*
X309457Y47062D01*
X309424Y47061D01*
X309353Y47069D01*
X291299Y47069D01*
X288369Y49999D01*
X288369Y77001D01*
X291299Y79931D01*
X318301Y79931D01*
X321231Y77001D01*
X321231Y58947D01*
X321245Y58857D01*
X321253Y58766D01*
X321265Y58736D01*
X321270Y58704D01*
X321313Y58623D01*
X321349Y58540D01*
X321375Y58507D01*
X321386Y58487D01*
X321409Y58465D01*
X321454Y58409D01*
X344794Y35069D01*
X344867Y35016D01*
X344937Y34956D01*
X344967Y34944D01*
X344993Y34925D01*
X345080Y34898D01*
X345165Y34864D01*
X345206Y34860D01*
X345228Y34853D01*
X345261Y34854D01*
X345332Y34846D01*
X599612Y34846D01*
X599702Y34860D01*
X599793Y34868D01*
X599823Y34880D01*
X599855Y34885D01*
X599935Y34928D01*
X600019Y34964D01*
X600051Y34990D01*
X600072Y35001D01*
X600094Y35024D01*
X600150Y35069D01*
X604372Y39291D01*
X614828Y39291D01*
X622221Y31898D01*
X622221Y25927D01*
X622235Y25837D01*
X622243Y25746D01*
X622255Y25716D01*
X622260Y25684D01*
X622303Y25603D01*
X622339Y25520D01*
X622365Y25487D01*
X622376Y25467D01*
X622399Y25445D01*
X622444Y25389D01*
X626099Y21734D01*
X626172Y21681D01*
X626242Y21621D01*
X626272Y21609D01*
X626298Y21590D01*
X626385Y21563D01*
X626470Y21529D01*
X626511Y21525D01*
X626533Y21518D01*
X626566Y21519D01*
X626637Y21511D01*
X778463Y21511D01*
X778483Y21514D01*
X778502Y21512D01*
X778604Y21534D01*
X778706Y21550D01*
X778723Y21560D01*
X778743Y21564D01*
X778832Y21617D01*
X778923Y21666D01*
X778937Y21680D01*
X778954Y21690D01*
X779021Y21769D01*
X779093Y21844D01*
X779101Y21862D01*
X779114Y21877D01*
X779153Y21973D01*
X779196Y22067D01*
X779198Y22087D01*
X779206Y22105D01*
X779224Y22272D01*
X779224Y43920D01*
X779205Y44034D01*
X779188Y44151D01*
X779186Y44156D01*
X779185Y44162D01*
X779130Y44265D01*
X779077Y44370D01*
X779072Y44374D01*
X779069Y44380D01*
X778985Y44460D01*
X778901Y44542D01*
X778895Y44546D01*
X778891Y44549D01*
X778874Y44557D01*
X778754Y44623D01*
X775647Y45910D01*
X769810Y51747D01*
X766651Y59373D01*
X766651Y67627D01*
X769810Y75253D01*
X775647Y81090D01*
X783273Y84249D01*
X791527Y84249D01*
X799153Y81090D01*
X804990Y75253D01*
X806277Y72146D01*
X806339Y72046D01*
X806399Y71946D01*
X806403Y71942D01*
X806407Y71937D01*
X806496Y71862D01*
X806586Y71786D01*
X806591Y71784D01*
X806596Y71780D01*
X806704Y71738D01*
X806814Y71694D01*
X806821Y71693D01*
X806826Y71692D01*
X806844Y71691D01*
X806980Y71676D01*
X930863Y71676D01*
X930883Y71679D01*
X930902Y71677D01*
X931004Y71699D01*
X931106Y71715D01*
X931123Y71725D01*
X931143Y71729D01*
X931232Y71782D01*
X931323Y71831D01*
X931337Y71845D01*
X931354Y71855D01*
X931421Y71934D01*
X931493Y72009D01*
X931501Y72027D01*
X931514Y72042D01*
X931553Y72138D01*
X931596Y72232D01*
X931598Y72252D01*
X931606Y72270D01*
X931624Y72437D01*
X931624Y150098D01*
X931610Y150188D01*
X931602Y150279D01*
X931590Y150309D01*
X931585Y150341D01*
X931542Y150422D01*
X931506Y150505D01*
X931480Y150538D01*
X931469Y150558D01*
X931446Y150580D01*
X931401Y150636D01*
X817978Y264059D01*
X817884Y264128D01*
X817790Y264197D01*
X817784Y264199D01*
X817779Y264203D01*
X817668Y264237D01*
X817556Y264273D01*
X817550Y264273D01*
X817544Y264275D01*
X817427Y264272D01*
X817310Y264271D01*
X817303Y264269D01*
X817298Y264269D01*
X817280Y264262D01*
X817149Y264224D01*
X815881Y263699D01*
X808919Y263699D01*
X802487Y266364D01*
X797564Y271287D01*
X794899Y277719D01*
X794899Y284681D01*
X797564Y291113D01*
X802487Y296036D01*
X808919Y298701D01*
X815881Y298701D01*
X822313Y296036D01*
X827236Y291113D01*
X829901Y284681D01*
X829901Y277719D01*
X829376Y276451D01*
X829349Y276337D01*
X829320Y276224D01*
X829321Y276218D01*
X829319Y276212D01*
X829330Y276095D01*
X829340Y275979D01*
X829342Y275973D01*
X829343Y275967D01*
X829390Y275859D01*
X829436Y275753D01*
X829440Y275747D01*
X829443Y275742D01*
X829455Y275728D01*
X829541Y275622D01*
X944324Y160838D01*
X946731Y158431D01*
X947976Y155426D01*
X947976Y61874D01*
X946731Y58869D01*
X944431Y56569D01*
X941426Y55324D01*
X806980Y55324D01*
X806866Y55305D01*
X806749Y55288D01*
X806744Y55286D01*
X806738Y55285D01*
X806635Y55230D01*
X806530Y55177D01*
X806526Y55172D01*
X806520Y55169D01*
X806440Y55085D01*
X806358Y55001D01*
X806354Y54995D01*
X806351Y54991D01*
X806343Y54974D01*
X806277Y54854D01*
X804990Y51747D01*
X799153Y45910D01*
X796046Y44623D01*
X795946Y44561D01*
X795846Y44501D01*
X795842Y44497D01*
X795837Y44493D01*
X795762Y44404D01*
X795686Y44314D01*
X795684Y44309D01*
X795680Y44304D01*
X795638Y44196D01*
X795594Y44086D01*
X795593Y44079D01*
X795592Y44074D01*
X795591Y44056D01*
X795576Y43920D01*
X795576Y11709D01*
X795371Y11213D01*
X795360Y11169D01*
X795341Y11127D01*
X795332Y11050D01*
X795314Y10974D01*
X795319Y10928D01*
X795314Y10883D01*
X795330Y10806D01*
X795337Y10729D01*
X795356Y10687D01*
X795366Y10642D01*
X795406Y10575D01*
X795437Y10504D01*
X795468Y10470D01*
X795492Y10431D01*
X795551Y10380D01*
X795604Y10323D01*
X795644Y10301D01*
X795679Y10271D01*
X795751Y10242D01*
X795819Y10205D01*
X795864Y10196D01*
X795907Y10179D01*
X796043Y10164D01*
X796061Y10161D01*
X796066Y10162D01*
X796074Y10161D01*
X989078Y10161D01*
X989098Y10164D01*
X989117Y10162D01*
X989219Y10184D01*
X989321Y10200D01*
X989338Y10210D01*
X989358Y10214D01*
X989447Y10267D01*
X989538Y10316D01*
X989552Y10330D01*
X989569Y10340D01*
X989636Y10419D01*
X989708Y10494D01*
X989716Y10512D01*
X989729Y10527D01*
X989768Y10623D01*
X989811Y10717D01*
X989813Y10737D01*
X989821Y10755D01*
X989839Y10922D01*
X989839Y789078D01*
X989836Y789098D01*
X989838Y789117D01*
X989816Y789219D01*
X989800Y789321D01*
X989790Y789338D01*
X989786Y789358D01*
X989733Y789447D01*
X989684Y789538D01*
X989670Y789552D01*
X989660Y789569D01*
X989581Y789636D01*
X989506Y789708D01*
X989488Y789716D01*
X989473Y789729D01*
X989377Y789768D01*
X989283Y789811D01*
X989263Y789813D01*
X989245Y789821D01*
X989078Y789839D01*
X972094Y789839D01*
X971998Y789824D01*
X971901Y789814D01*
X971878Y789804D01*
X971852Y789800D01*
X971766Y789754D01*
X971677Y789714D01*
X971657Y789697D01*
X971634Y789684D01*
X971567Y789614D01*
X971496Y789548D01*
X971483Y789525D01*
X971465Y789506D01*
X971424Y789418D01*
X971377Y789332D01*
X971372Y789307D01*
X971361Y789283D01*
X971351Y789186D01*
X971333Y789090D01*
X971337Y789064D01*
X971334Y789039D01*
X971355Y788943D01*
X971369Y788847D01*
X971381Y788824D01*
X971387Y788798D01*
X971436Y788715D01*
X971481Y788628D01*
X971499Y788609D01*
X971513Y788587D01*
X971587Y788524D01*
X971656Y788456D01*
X971685Y788440D01*
X971700Y788427D01*
X971730Y788415D01*
X971803Y788375D01*
X973788Y787553D01*
X978053Y783288D01*
X980361Y777716D01*
X980361Y771684D01*
X978053Y766112D01*
X973788Y761847D01*
X968216Y759539D01*
X962184Y759539D01*
X956612Y761847D01*
X952347Y766112D01*
X950039Y771684D01*
X950039Y777716D01*
X952347Y783288D01*
X956612Y787553D01*
X958597Y788375D01*
X958680Y788426D01*
X958766Y788472D01*
X958784Y788490D01*
X958806Y788504D01*
X958868Y788580D01*
X958935Y788650D01*
X958946Y788674D01*
X958963Y788694D01*
X958998Y788785D01*
X959039Y788873D01*
X959042Y788899D01*
X959051Y788923D01*
X959055Y789021D01*
X959066Y789117D01*
X959060Y789143D01*
X959061Y789169D01*
X959034Y789263D01*
X959013Y789358D01*
X959000Y789380D01*
X958993Y789405D01*
X958937Y789485D01*
X958887Y789569D01*
X958867Y789586D01*
X958853Y789607D01*
X958774Y789666D01*
X958700Y789729D01*
X958676Y789739D01*
X958655Y789754D01*
X958563Y789784D01*
X958472Y789821D01*
X958440Y789824D01*
X958421Y789830D01*
X958388Y789830D01*
X958306Y789839D01*
X32294Y789839D01*
X32198Y789824D01*
X32101Y789814D01*
X32078Y789804D01*
X32052Y789800D01*
X31966Y789754D01*
X31877Y789714D01*
X31857Y789697D01*
X31834Y789684D01*
X31767Y789614D01*
X31696Y789548D01*
X31683Y789525D01*
X31665Y789506D01*
X31624Y789418D01*
X31577Y789332D01*
X31572Y789307D01*
X31561Y789283D01*
X31551Y789186D01*
X31533Y789090D01*
X31537Y789064D01*
X31534Y789039D01*
X31555Y788943D01*
X31569Y788847D01*
X31581Y788824D01*
X31587Y788798D01*
X31636Y788715D01*
X31681Y788628D01*
X31699Y788609D01*
X31713Y788587D01*
X31787Y788524D01*
X31856Y788456D01*
X31885Y788440D01*
X31900Y788427D01*
X31930Y788415D01*
X32003Y788375D01*
X33988Y787553D01*
X38253Y783288D01*
X40561Y777716D01*
X40561Y771684D01*
X38253Y766112D01*
X33988Y761847D01*
X28416Y759539D01*
X22384Y759539D01*
X16812Y761847D01*
X12547Y766112D01*
X11625Y768338D01*
X11574Y768421D01*
X11528Y768507D01*
X11510Y768525D01*
X11496Y768547D01*
X11420Y768610D01*
X11350Y768676D01*
X11326Y768687D01*
X11306Y768704D01*
X11215Y768739D01*
X11127Y768780D01*
X11101Y768783D01*
X11077Y768792D01*
X10979Y768796D01*
X10883Y768807D01*
X10857Y768802D01*
X10831Y768803D01*
X10737Y768776D01*
X10642Y768755D01*
X10620Y768741D01*
X10595Y768734D01*
X10515Y768679D01*
X10431Y768629D01*
X10414Y768609D01*
X10393Y768594D01*
X10334Y768516D01*
X10271Y768442D01*
X10261Y768418D01*
X10246Y768397D01*
X10216Y768304D01*
X10179Y768214D01*
X10176Y768181D01*
X10170Y768163D01*
X10170Y768130D01*
X10161Y768047D01*
X10161Y527353D01*
X10176Y527257D01*
X10186Y527160D01*
X10196Y527136D01*
X10200Y527110D01*
X10246Y527024D01*
X10286Y526935D01*
X10303Y526916D01*
X10316Y526893D01*
X10386Y526826D01*
X10452Y526754D01*
X10475Y526742D01*
X10494Y526724D01*
X10582Y526683D01*
X10668Y526636D01*
X10693Y526631D01*
X10717Y526620D01*
X10814Y526609D01*
X10910Y526592D01*
X10936Y526596D01*
X10961Y526593D01*
X11057Y526613D01*
X11153Y526628D01*
X11176Y526640D01*
X11202Y526645D01*
X11285Y526695D01*
X11372Y526739D01*
X11391Y526758D01*
X11413Y526771D01*
X11476Y526845D01*
X11544Y526915D01*
X11560Y526943D01*
X11573Y526958D01*
X11585Y526989D01*
X11625Y527062D01*
X12547Y529288D01*
X16812Y533553D01*
X22384Y535861D01*
X28416Y535861D01*
X33988Y533553D01*
X38253Y529288D01*
X40561Y523716D01*
X40561Y517684D01*
X38253Y512112D01*
X33988Y507847D01*
X28416Y505539D01*
X22384Y505539D01*
X16812Y507847D01*
X12547Y512112D01*
X11625Y514338D01*
X11574Y514421D01*
X11528Y514507D01*
X11510Y514525D01*
X11496Y514547D01*
X11420Y514610D01*
X11350Y514676D01*
X11326Y514687D01*
X11306Y514704D01*
X11215Y514739D01*
X11127Y514780D01*
X11101Y514783D01*
X11077Y514792D01*
X10979Y514796D01*
X10883Y514807D01*
X10857Y514802D01*
X10831Y514803D01*
X10737Y514776D01*
X10642Y514755D01*
X10620Y514741D01*
X10595Y514734D01*
X10515Y514679D01*
X10431Y514629D01*
X10414Y514609D01*
X10393Y514594D01*
X10334Y514516D01*
X10271Y514442D01*
X10261Y514418D01*
X10246Y514397D01*
X10216Y514304D01*
X10179Y514214D01*
X10176Y514181D01*
X10170Y514163D01*
X10170Y514130D01*
X10161Y514047D01*
X10161Y10922D01*
X10164Y10902D01*
X10162Y10883D01*
X10184Y10781D01*
X10200Y10679D01*
X10210Y10662D01*
X10214Y10642D01*
X10267Y10553D01*
X10316Y10462D01*
X10330Y10448D01*
X10340Y10431D01*
X10419Y10364D01*
X10494Y10292D01*
X10512Y10284D01*
X10527Y10271D01*
X10623Y10232D01*
X10717Y10189D01*
X10737Y10187D01*
X10755Y10179D01*
X10922Y10161D01*
X612709Y10161D01*
X612780Y10172D01*
G37*
%LPC*%
G36*
X286647Y583052D02*
X286647Y583052D01*
X284479Y585220D01*
X276542Y593156D01*
X276468Y593209D01*
X276399Y593269D01*
X276369Y593281D01*
X276343Y593300D01*
X276256Y593327D01*
X276171Y593361D01*
X276130Y593365D01*
X276108Y593372D01*
X276075Y593371D01*
X276004Y593379D01*
X275118Y593379D01*
X275003Y593360D01*
X274887Y593343D01*
X274881Y593341D01*
X274875Y593340D01*
X274773Y593285D01*
X274668Y593232D01*
X274663Y593227D01*
X274658Y593224D01*
X274578Y593140D01*
X274496Y593056D01*
X274492Y593050D01*
X274489Y593046D01*
X274481Y593029D01*
X274415Y592909D01*
X274037Y591997D01*
X271603Y589563D01*
X268422Y588245D01*
X264978Y588245D01*
X261797Y589563D01*
X259363Y591997D01*
X258045Y595178D01*
X258045Y598622D01*
X259363Y601803D01*
X261797Y604237D01*
X264978Y605555D01*
X268422Y605555D01*
X271603Y604237D01*
X273075Y602765D01*
X273133Y602723D01*
X273185Y602674D01*
X273232Y602652D01*
X273274Y602621D01*
X273343Y602600D01*
X273408Y602570D01*
X273460Y602564D01*
X273510Y602549D01*
X273581Y602551D01*
X273652Y602543D01*
X273703Y602554D01*
X273755Y602555D01*
X273823Y602580D01*
X273893Y602595D01*
X273938Y602622D01*
X273986Y602640D01*
X274042Y602685D01*
X274104Y602721D01*
X274138Y602761D01*
X274178Y602794D01*
X274217Y602854D01*
X274264Y602908D01*
X274283Y602957D01*
X274311Y603000D01*
X274329Y603070D01*
X274356Y603136D01*
X274364Y603208D01*
X274372Y603239D01*
X274370Y603262D01*
X274374Y603303D01*
X274374Y648832D01*
X274360Y648922D01*
X274352Y649013D01*
X274340Y649042D01*
X274335Y649074D01*
X274292Y649155D01*
X274256Y649239D01*
X274230Y649271D01*
X274219Y649292D01*
X274196Y649314D01*
X274151Y649370D01*
X272750Y650771D01*
X271862Y652915D01*
X271862Y655235D01*
X272750Y657379D01*
X274391Y659020D01*
X274537Y659080D01*
X274576Y659105D01*
X274619Y659120D01*
X274680Y659169D01*
X274746Y659210D01*
X274776Y659245D01*
X274812Y659274D01*
X274854Y659339D01*
X274903Y659399D01*
X274920Y659442D01*
X274945Y659481D01*
X274964Y659556D01*
X274991Y659629D01*
X274993Y659675D01*
X275005Y659719D01*
X274999Y659797D01*
X275002Y659875D01*
X274989Y659919D01*
X274985Y659965D01*
X274955Y660036D01*
X274933Y660111D01*
X274907Y660149D01*
X274889Y660191D01*
X274804Y660298D01*
X274793Y660313D01*
X274789Y660316D01*
X274784Y660322D01*
X270365Y664742D01*
X270270Y664809D01*
X270176Y664879D01*
X270170Y664881D01*
X270165Y664885D01*
X270053Y664919D01*
X269942Y664956D01*
X269936Y664956D01*
X269930Y664957D01*
X269813Y664954D01*
X269696Y664953D01*
X269689Y664951D01*
X269684Y664951D01*
X269667Y664945D01*
X269535Y664907D01*
X268422Y664445D01*
X264978Y664445D01*
X263997Y664852D01*
X263884Y664878D01*
X263770Y664907D01*
X263764Y664906D01*
X263758Y664908D01*
X263641Y664897D01*
X263525Y664888D01*
X263519Y664885D01*
X263513Y664885D01*
X263406Y664837D01*
X263299Y664791D01*
X263293Y664787D01*
X263288Y664785D01*
X263275Y664772D01*
X263168Y664687D01*
X243498Y645017D01*
X187216Y645017D01*
X187196Y645014D01*
X187177Y645016D01*
X187075Y644994D01*
X186973Y644977D01*
X186956Y644968D01*
X186936Y644963D01*
X186847Y644910D01*
X186756Y644862D01*
X186742Y644848D01*
X186725Y644837D01*
X186658Y644759D01*
X186586Y644684D01*
X186578Y644666D01*
X186565Y644650D01*
X186526Y644554D01*
X186483Y644461D01*
X186481Y644441D01*
X186473Y644422D01*
X186455Y644256D01*
X186455Y644115D01*
X181385Y639045D01*
X174215Y639045D01*
X169145Y644115D01*
X169145Y651285D01*
X174215Y656355D01*
X181385Y656355D01*
X185858Y651881D01*
X185932Y651828D01*
X186002Y651769D01*
X186032Y651756D01*
X186058Y651738D01*
X186145Y651711D01*
X186230Y651677D01*
X186271Y651672D01*
X186293Y651665D01*
X186325Y651666D01*
X186397Y651658D01*
X240432Y651658D01*
X240522Y651673D01*
X240613Y651680D01*
X240642Y651693D01*
X240674Y651698D01*
X240755Y651741D01*
X240839Y651776D01*
X240871Y651802D01*
X240892Y651813D01*
X240914Y651836D01*
X240970Y651881D01*
X258395Y669306D01*
X258463Y669401D01*
X258533Y669495D01*
X258535Y669501D01*
X258539Y669506D01*
X258572Y669616D01*
X258609Y669729D01*
X258609Y669735D01*
X258611Y669741D01*
X258608Y669858D01*
X258608Y669886D01*
X258609Y669902D01*
X258607Y669912D01*
X258607Y669975D01*
X258605Y669982D01*
X258605Y669987D01*
X258598Y670004D01*
X258560Y670136D01*
X258045Y671378D01*
X258045Y674822D01*
X259363Y678003D01*
X260650Y679290D01*
X260692Y679348D01*
X260741Y679400D01*
X260763Y679447D01*
X260794Y679489D01*
X260815Y679558D01*
X260845Y679623D01*
X260851Y679675D01*
X260866Y679725D01*
X260864Y679796D01*
X260872Y679867D01*
X260861Y679918D01*
X260860Y679970D01*
X260835Y680038D01*
X260820Y680108D01*
X260793Y680153D01*
X260775Y680201D01*
X260730Y680257D01*
X260694Y680319D01*
X260654Y680353D01*
X260621Y680393D01*
X260561Y680432D01*
X260507Y680479D01*
X260458Y680498D01*
X260415Y680526D01*
X260345Y680544D01*
X260279Y680571D01*
X260207Y680579D01*
X260176Y680587D01*
X260153Y680585D01*
X260112Y680589D01*
X254141Y680589D01*
X254051Y680575D01*
X253960Y680567D01*
X253930Y680555D01*
X253898Y680550D01*
X253817Y680507D01*
X253734Y680471D01*
X253701Y680445D01*
X253681Y680434D01*
X253659Y680411D01*
X253603Y680366D01*
X249759Y676523D01*
X249691Y676428D01*
X249621Y676334D01*
X249619Y676328D01*
X249615Y676323D01*
X249581Y676212D01*
X249545Y676100D01*
X249545Y676094D01*
X249543Y676088D01*
X249546Y675971D01*
X249547Y675854D01*
X249549Y675847D01*
X249549Y675842D01*
X249556Y675824D01*
X249594Y675693D01*
X249955Y674822D01*
X249955Y671378D01*
X248637Y668197D01*
X246203Y665763D01*
X243022Y664445D01*
X239578Y664445D01*
X236397Y665763D01*
X233963Y668197D01*
X233302Y669792D01*
X233241Y669891D01*
X233181Y669991D01*
X233176Y669996D01*
X233173Y670001D01*
X233083Y670075D01*
X232994Y670151D01*
X232988Y670154D01*
X232983Y670158D01*
X232875Y670199D01*
X232766Y670243D01*
X232758Y670244D01*
X232754Y670246D01*
X232735Y670247D01*
X232599Y670262D01*
X137227Y670262D01*
X137157Y670250D01*
X137085Y670248D01*
X137036Y670230D01*
X136985Y670222D01*
X136921Y670188D01*
X136854Y670164D01*
X136813Y670131D01*
X136767Y670107D01*
X136718Y670055D01*
X136662Y670010D01*
X136634Y669966D01*
X136598Y669929D01*
X136568Y669864D01*
X136529Y669803D01*
X136516Y669753D01*
X136494Y669706D01*
X136486Y669634D01*
X136469Y669565D01*
X136473Y669513D01*
X136467Y669461D01*
X136482Y669391D01*
X136488Y669320D01*
X136508Y669272D01*
X136519Y669221D01*
X136556Y669159D01*
X136584Y669093D01*
X136629Y669037D01*
X136645Y669010D01*
X136663Y668994D01*
X136689Y668962D01*
X204260Y601391D01*
X204334Y601338D01*
X204403Y601279D01*
X204434Y601266D01*
X204460Y601248D01*
X204547Y601221D01*
X204632Y601187D01*
X204673Y601182D01*
X204695Y601175D01*
X204727Y601176D01*
X204798Y601168D01*
X233192Y601168D01*
X233307Y601187D01*
X233423Y601204D01*
X233428Y601207D01*
X233434Y601208D01*
X233537Y601263D01*
X233642Y601316D01*
X233646Y601320D01*
X233652Y601323D01*
X233731Y601407D01*
X233814Y601491D01*
X233818Y601498D01*
X233821Y601501D01*
X233829Y601518D01*
X233895Y601638D01*
X233963Y601803D01*
X236397Y604237D01*
X239578Y605555D01*
X243022Y605555D01*
X246203Y604237D01*
X248637Y601803D01*
X249955Y598622D01*
X249955Y595178D01*
X248637Y591997D01*
X246203Y589563D01*
X243022Y588245D01*
X239578Y588245D01*
X236397Y589563D01*
X233963Y591997D01*
X233110Y594057D01*
X233048Y594157D01*
X232988Y594256D01*
X232984Y594260D01*
X232980Y594266D01*
X232890Y594341D01*
X232801Y594416D01*
X232796Y594419D01*
X232791Y594423D01*
X232682Y594464D01*
X232573Y594508D01*
X232566Y594509D01*
X232561Y594511D01*
X232543Y594512D01*
X232407Y594527D01*
X201732Y594527D01*
X90864Y705394D01*
X90791Y705447D01*
X90721Y705507D01*
X90691Y705519D01*
X90665Y705538D01*
X90578Y705565D01*
X90493Y705599D01*
X90452Y705603D01*
X90430Y705610D01*
X90397Y705609D01*
X90326Y705617D01*
X88345Y705617D01*
X86201Y706505D01*
X84560Y708146D01*
X83672Y710290D01*
X83672Y712610D01*
X84560Y714754D01*
X86201Y716395D01*
X87970Y717128D01*
X88009Y717152D01*
X88052Y717168D01*
X88103Y717208D01*
X88116Y717215D01*
X88123Y717222D01*
X88179Y717257D01*
X88208Y717293D01*
X88244Y717321D01*
X88286Y717387D01*
X88336Y717447D01*
X88353Y717490D01*
X88377Y717528D01*
X88396Y717604D01*
X88424Y717676D01*
X88426Y717722D01*
X88437Y717767D01*
X88431Y717844D01*
X88435Y717922D01*
X88422Y717966D01*
X88418Y718012D01*
X88388Y718083D01*
X88366Y718158D01*
X88340Y718196D01*
X88322Y718238D01*
X88237Y718345D01*
X88226Y718360D01*
X88222Y718363D01*
X88217Y718369D01*
X87332Y719254D01*
X87332Y722382D01*
X87317Y722472D01*
X87310Y722563D01*
X87297Y722593D01*
X87292Y722624D01*
X87273Y722660D01*
X87271Y722669D01*
X87249Y722706D01*
X87214Y722789D01*
X87188Y722821D01*
X87177Y722842D01*
X87156Y722862D01*
X87145Y722880D01*
X87132Y722891D01*
X87109Y722920D01*
X86154Y723875D01*
X86096Y723916D01*
X86044Y723966D01*
X85997Y723988D01*
X85955Y724018D01*
X85886Y724039D01*
X85821Y724069D01*
X85769Y724075D01*
X85719Y724090D01*
X85648Y724089D01*
X85577Y724096D01*
X85526Y724085D01*
X85474Y724084D01*
X85406Y724059D01*
X85336Y724044D01*
X85291Y724017D01*
X85243Y724000D01*
X85187Y723955D01*
X85125Y723918D01*
X85091Y723878D01*
X85051Y723846D01*
X85012Y723786D01*
X84965Y723731D01*
X84946Y723683D01*
X84918Y723639D01*
X84900Y723569D01*
X84873Y723503D01*
X84865Y723432D01*
X84857Y723400D01*
X84859Y723377D01*
X84855Y723336D01*
X84855Y720315D01*
X79785Y715245D01*
X72615Y715245D01*
X67545Y720315D01*
X67545Y723119D01*
X67534Y723189D01*
X67532Y723261D01*
X67514Y723310D01*
X67506Y723361D01*
X67472Y723425D01*
X67447Y723492D01*
X67415Y723533D01*
X67390Y723579D01*
X67338Y723628D01*
X67294Y723684D01*
X67250Y723712D01*
X67212Y723748D01*
X67147Y723778D01*
X67087Y723817D01*
X67036Y723830D01*
X66989Y723852D01*
X66918Y723860D01*
X66848Y723877D01*
X66796Y723873D01*
X66745Y723879D01*
X66674Y723864D01*
X66603Y723858D01*
X66555Y723838D01*
X66504Y723827D01*
X66443Y723790D01*
X66377Y723762D01*
X66321Y723717D01*
X66293Y723701D01*
X66278Y723683D01*
X66246Y723657D01*
X55181Y712592D01*
X55128Y712519D01*
X55069Y712449D01*
X55056Y712419D01*
X55038Y712393D01*
X55011Y712306D01*
X54977Y712221D01*
X54972Y712180D01*
X54965Y712158D01*
X54966Y712125D01*
X54958Y712054D01*
X54958Y656097D01*
X54973Y656007D01*
X54980Y655916D01*
X54993Y655886D01*
X54998Y655854D01*
X55041Y655773D01*
X55076Y655689D01*
X55102Y655657D01*
X55113Y655637D01*
X55136Y655614D01*
X55181Y655558D01*
X59455Y651285D01*
X59455Y644115D01*
X54385Y639045D01*
X47215Y639045D01*
X42145Y644115D01*
X42145Y651285D01*
X47215Y656355D01*
X47556Y656355D01*
X47575Y656358D01*
X47595Y656356D01*
X47696Y656378D01*
X47798Y656394D01*
X47816Y656404D01*
X47835Y656408D01*
X47924Y656461D01*
X48016Y656510D01*
X48029Y656524D01*
X48046Y656534D01*
X48114Y656613D01*
X48185Y656688D01*
X48193Y656706D01*
X48206Y656721D01*
X48245Y656817D01*
X48289Y656911D01*
X48291Y656931D01*
X48298Y656949D01*
X48317Y657116D01*
X48317Y715121D01*
X70917Y737721D01*
X81701Y737721D01*
X91805Y727616D01*
X91902Y727519D01*
X91919Y727507D01*
X91931Y727492D01*
X92018Y727436D01*
X92102Y727375D01*
X92121Y727369D01*
X92138Y727359D01*
X92238Y727333D01*
X92337Y727303D01*
X92357Y727303D01*
X92377Y727298D01*
X92480Y727306D01*
X92583Y727309D01*
X92602Y727316D01*
X92622Y727318D01*
X92717Y727358D01*
X92814Y727394D01*
X92830Y727406D01*
X92848Y727414D01*
X92979Y727519D01*
X98015Y732555D01*
X105301Y732555D01*
X105347Y732543D01*
X105445Y732513D01*
X105466Y732513D01*
X105485Y732508D01*
X105588Y732516D01*
X105691Y732519D01*
X105710Y732526D01*
X105730Y732528D01*
X105825Y732568D01*
X105922Y732604D01*
X105938Y732616D01*
X105957Y732624D01*
X106087Y732729D01*
X124849Y751491D01*
X256348Y751491D01*
X256368Y751494D01*
X256387Y751492D01*
X256489Y751514D01*
X256591Y751530D01*
X256608Y751540D01*
X256628Y751544D01*
X256717Y751597D01*
X256808Y751646D01*
X256822Y751660D01*
X256839Y751670D01*
X256906Y751749D01*
X256978Y751824D01*
X256986Y751842D01*
X256999Y751857D01*
X257038Y751953D01*
X257081Y752047D01*
X257083Y752067D01*
X257091Y752085D01*
X257109Y752252D01*
X257109Y758748D01*
X258569Y762273D01*
X261267Y764971D01*
X264792Y766431D01*
X268608Y766431D01*
X272133Y764971D01*
X274831Y762273D01*
X276291Y758748D01*
X276291Y744258D01*
X276305Y744168D01*
X276313Y744077D01*
X276325Y744048D01*
X276330Y744016D01*
X276373Y743935D01*
X276409Y743851D01*
X276435Y743819D01*
X276446Y743798D01*
X276469Y743776D01*
X276514Y743720D01*
X281308Y738926D01*
X281387Y738869D01*
X281462Y738807D01*
X281486Y738798D01*
X281508Y738782D01*
X281601Y738754D01*
X281692Y738719D01*
X281718Y738718D01*
X281743Y738710D01*
X281840Y738713D01*
X281937Y738709D01*
X281962Y738716D01*
X281988Y738716D01*
X282080Y738750D01*
X282174Y738777D01*
X282195Y738792D01*
X282219Y738801D01*
X282296Y738862D01*
X282376Y738917D01*
X282391Y738938D01*
X282412Y738955D01*
X282464Y739037D01*
X282522Y739115D01*
X282530Y739139D01*
X282545Y739162D01*
X282568Y739256D01*
X282598Y739349D01*
X282598Y739375D01*
X282605Y739400D01*
X282597Y739497D01*
X282596Y739595D01*
X282587Y739626D01*
X282585Y739645D01*
X282573Y739675D01*
X282549Y739756D01*
X282509Y739852D01*
X282509Y758748D01*
X283969Y762273D01*
X286667Y764971D01*
X290192Y766431D01*
X294008Y766431D01*
X297533Y764971D01*
X300013Y762491D01*
X300029Y762479D01*
X300041Y762463D01*
X300129Y762407D01*
X300212Y762347D01*
X300231Y762341D01*
X300248Y762330D01*
X300349Y762305D01*
X300448Y762275D01*
X300468Y762275D01*
X300487Y762270D01*
X300590Y762278D01*
X300693Y762281D01*
X300712Y762288D01*
X300732Y762289D01*
X300827Y762330D01*
X300924Y762365D01*
X300940Y762378D01*
X300958Y762386D01*
X301089Y762491D01*
X308576Y769978D01*
X310744Y772146D01*
X493653Y772146D01*
X510746Y755053D01*
X510804Y755011D01*
X510856Y754962D01*
X510903Y754940D01*
X510945Y754909D01*
X511014Y754888D01*
X511079Y754858D01*
X511131Y754852D01*
X511181Y754837D01*
X511252Y754839D01*
X511323Y754831D01*
X511374Y754842D01*
X511426Y754843D01*
X511494Y754868D01*
X511564Y754883D01*
X511609Y754910D01*
X511657Y754928D01*
X511713Y754973D01*
X511775Y755009D01*
X511809Y755049D01*
X511849Y755082D01*
X511888Y755142D01*
X511935Y755196D01*
X511954Y755245D01*
X511982Y755289D01*
X512000Y755358D01*
X512027Y755425D01*
X512035Y755496D01*
X512043Y755527D01*
X512041Y755550D01*
X512045Y755591D01*
X512045Y770326D01*
X513363Y773507D01*
X515797Y775941D01*
X518978Y777259D01*
X522422Y777259D01*
X525603Y775941D01*
X528037Y773507D01*
X529355Y770326D01*
X529355Y753674D01*
X528037Y750493D01*
X525603Y748059D01*
X522422Y746741D01*
X520895Y746741D01*
X520825Y746730D01*
X520753Y746728D01*
X520704Y746710D01*
X520653Y746702D01*
X520589Y746668D01*
X520522Y746643D01*
X520481Y746611D01*
X520435Y746586D01*
X520386Y746534D01*
X520330Y746490D01*
X520302Y746446D01*
X520266Y746408D01*
X520236Y746343D01*
X520197Y746283D01*
X520184Y746232D01*
X520162Y746185D01*
X520154Y746114D01*
X520137Y746044D01*
X520141Y745992D01*
X520135Y745941D01*
X520150Y745870D01*
X520156Y745799D01*
X520176Y745751D01*
X520187Y745700D01*
X520224Y745639D01*
X520252Y745573D01*
X520297Y745517D01*
X520313Y745489D01*
X520331Y745474D01*
X520357Y745442D01*
X547393Y718406D01*
X547409Y718394D01*
X547422Y718379D01*
X547509Y718322D01*
X547593Y718262D01*
X547612Y718256D01*
X547629Y718246D01*
X547729Y718220D01*
X547828Y718190D01*
X547848Y718190D01*
X547867Y718186D01*
X547970Y718194D01*
X548074Y718196D01*
X548092Y718203D01*
X548112Y718205D01*
X548207Y718245D01*
X548305Y718281D01*
X548320Y718293D01*
X548339Y718301D01*
X548470Y718406D01*
X576633Y746569D01*
X576690Y746648D01*
X576752Y746723D01*
X576761Y746748D01*
X576776Y746769D01*
X576805Y746862D01*
X576840Y746953D01*
X576841Y746979D01*
X576849Y747004D01*
X576846Y747101D01*
X576850Y747199D01*
X576843Y747224D01*
X576842Y747250D01*
X576809Y747341D01*
X576782Y747435D01*
X576767Y747456D01*
X576758Y747481D01*
X576697Y747557D01*
X576642Y747637D01*
X576621Y747652D01*
X576604Y747673D01*
X576522Y747725D01*
X576444Y747784D01*
X576419Y747792D01*
X576397Y747806D01*
X576303Y747830D01*
X576210Y747860D01*
X576184Y747860D01*
X576159Y747866D01*
X576062Y747858D01*
X575964Y747857D01*
X575933Y747848D01*
X575914Y747847D01*
X575883Y747834D01*
X575803Y747811D01*
X573222Y746741D01*
X569778Y746741D01*
X566597Y748059D01*
X564163Y750493D01*
X562845Y753674D01*
X562845Y770326D01*
X564163Y773507D01*
X566597Y775941D01*
X569778Y777259D01*
X573222Y777259D01*
X576403Y775941D01*
X578837Y773507D01*
X580155Y770326D01*
X580155Y753674D01*
X579085Y751093D01*
X579063Y750998D01*
X579034Y750905D01*
X579035Y750879D01*
X579029Y750853D01*
X579038Y750756D01*
X579041Y750659D01*
X579050Y750634D01*
X579052Y750608D01*
X579092Y750519D01*
X579125Y750428D01*
X579142Y750408D01*
X579152Y750384D01*
X579218Y750312D01*
X579279Y750236D01*
X579301Y750222D01*
X579319Y750203D01*
X579404Y750156D01*
X579486Y750103D01*
X579511Y750097D01*
X579534Y750084D01*
X579630Y750067D01*
X579724Y750043D01*
X579750Y750045D01*
X579776Y750040D01*
X579873Y750054D01*
X579970Y750062D01*
X579994Y750072D01*
X580020Y750076D01*
X580107Y750120D01*
X580196Y750158D01*
X580221Y750179D01*
X580239Y750188D01*
X580262Y750211D01*
X580327Y750263D01*
X588022Y757959D01*
X588075Y758032D01*
X588135Y758102D01*
X588147Y758132D01*
X588166Y758158D01*
X588193Y758245D01*
X588227Y758330D01*
X588231Y758371D01*
X588238Y758393D01*
X588237Y758426D01*
X588245Y758497D01*
X588245Y770326D01*
X589563Y773507D01*
X591997Y775941D01*
X595178Y777259D01*
X598622Y777259D01*
X601803Y775941D01*
X603365Y774378D01*
X603382Y774367D01*
X603394Y774351D01*
X603481Y774295D01*
X603565Y774235D01*
X603584Y774229D01*
X603601Y774218D01*
X603701Y774193D01*
X603800Y774162D01*
X603820Y774163D01*
X603839Y774158D01*
X603942Y774166D01*
X604046Y774169D01*
X604065Y774176D01*
X604085Y774177D01*
X604180Y774217D01*
X604277Y774253D01*
X604293Y774266D01*
X604311Y774273D01*
X604442Y774378D01*
X612537Y782473D01*
X691023Y782473D01*
X751491Y722006D01*
X751491Y631716D01*
X751494Y631696D01*
X751492Y631677D01*
X751514Y631575D01*
X751530Y631473D01*
X751540Y631456D01*
X751544Y631436D01*
X751597Y631347D01*
X751646Y631256D01*
X751660Y631242D01*
X751670Y631225D01*
X751749Y631158D01*
X751824Y631086D01*
X751842Y631078D01*
X751857Y631065D01*
X751953Y631026D01*
X752047Y630983D01*
X752067Y630981D01*
X752085Y630973D01*
X752252Y630955D01*
X752885Y630955D01*
X757955Y625885D01*
X757955Y618715D01*
X752885Y613645D01*
X745715Y613645D01*
X740645Y618715D01*
X740645Y625885D01*
X744626Y629866D01*
X744679Y629940D01*
X744739Y630009D01*
X744751Y630040D01*
X744770Y630066D01*
X744797Y630153D01*
X744831Y630238D01*
X744835Y630278D01*
X744842Y630301D01*
X744841Y630333D01*
X744849Y630404D01*
X744849Y718939D01*
X744835Y719029D01*
X744827Y719120D01*
X744815Y719150D01*
X744810Y719182D01*
X744767Y719263D01*
X744731Y719346D01*
X744705Y719379D01*
X744694Y719399D01*
X744671Y719421D01*
X744626Y719477D01*
X688495Y775609D01*
X688421Y775662D01*
X688352Y775721D01*
X688321Y775734D01*
X688295Y775752D01*
X688208Y775779D01*
X688123Y775813D01*
X688082Y775818D01*
X688060Y775825D01*
X688028Y775824D01*
X687957Y775832D01*
X629150Y775832D01*
X629079Y775820D01*
X629007Y775818D01*
X628958Y775800D01*
X628907Y775792D01*
X628844Y775758D01*
X628776Y775734D01*
X628736Y775701D01*
X628690Y775677D01*
X628640Y775625D01*
X628584Y775580D01*
X628556Y775536D01*
X628520Y775499D01*
X628490Y775434D01*
X628451Y775373D01*
X628438Y775323D01*
X628417Y775276D01*
X628409Y775204D01*
X628391Y775135D01*
X628395Y775083D01*
X628389Y775031D01*
X628405Y774961D01*
X628410Y774890D01*
X628431Y774842D01*
X628442Y774791D01*
X628479Y774729D01*
X628507Y774663D01*
X628551Y774607D01*
X628568Y774580D01*
X628586Y774564D01*
X628611Y774532D01*
X629637Y773507D01*
X630955Y770326D01*
X630955Y753674D01*
X629637Y750493D01*
X627203Y748059D01*
X624022Y746741D01*
X620578Y746741D01*
X617397Y748059D01*
X615617Y749839D01*
X615601Y749851D01*
X615588Y749866D01*
X615501Y749923D01*
X615417Y749983D01*
X615398Y749989D01*
X615382Y749999D01*
X615281Y750025D01*
X615182Y750055D01*
X615162Y750055D01*
X615143Y750060D01*
X615040Y750052D01*
X614936Y750049D01*
X614918Y750042D01*
X614898Y750040D01*
X614803Y750000D01*
X614705Y749964D01*
X614690Y749952D01*
X614671Y749944D01*
X614541Y749839D01*
X577333Y712632D01*
X577306Y712594D01*
X577272Y712563D01*
X577235Y712495D01*
X577189Y712432D01*
X577176Y712388D01*
X577154Y712348D01*
X577140Y712271D01*
X577117Y712197D01*
X577118Y712151D01*
X577110Y712106D01*
X577121Y712029D01*
X577123Y711951D01*
X577139Y711908D01*
X577146Y711862D01*
X577181Y711793D01*
X577208Y711720D01*
X577236Y711684D01*
X577257Y711643D01*
X577313Y711589D01*
X577361Y711528D01*
X577400Y711503D01*
X577433Y711471D01*
X577553Y711405D01*
X577568Y711395D01*
X577573Y711394D01*
X577580Y711390D01*
X579349Y710657D01*
X580990Y709017D01*
X581878Y706873D01*
X581878Y704552D01*
X580990Y702408D01*
X579589Y701007D01*
X579536Y700934D01*
X579476Y700864D01*
X579464Y700834D01*
X579445Y700808D01*
X579418Y700721D01*
X579384Y700636D01*
X579380Y700595D01*
X579373Y700573D01*
X579374Y700540D01*
X579366Y700469D01*
X579366Y636354D01*
X579368Y636340D01*
X579367Y636328D01*
X579368Y636324D01*
X579367Y636315D01*
X579389Y636214D01*
X579405Y636112D01*
X579415Y636094D01*
X579419Y636075D01*
X579472Y635986D01*
X579521Y635894D01*
X579535Y635881D01*
X579545Y635864D01*
X579624Y635796D01*
X579699Y635725D01*
X579717Y635717D01*
X579732Y635704D01*
X579828Y635665D01*
X579922Y635621D01*
X579942Y635619D01*
X579960Y635612D01*
X580127Y635593D01*
X622549Y635593D01*
X622639Y635608D01*
X622730Y635615D01*
X622760Y635628D01*
X622792Y635633D01*
X622873Y635676D01*
X622956Y635711D01*
X622989Y635737D01*
X623009Y635748D01*
X623021Y635760D01*
X623022Y635761D01*
X623034Y635774D01*
X623087Y635816D01*
X713517Y726246D01*
X714484Y726246D01*
X714504Y726249D01*
X714523Y726247D01*
X714625Y726269D01*
X714727Y726285D01*
X714744Y726295D01*
X714764Y726299D01*
X714853Y726352D01*
X714944Y726401D01*
X714958Y726415D01*
X714975Y726425D01*
X715042Y726504D01*
X715114Y726579D01*
X715122Y726597D01*
X715135Y726612D01*
X715174Y726708D01*
X715217Y726802D01*
X715219Y726822D01*
X715227Y726840D01*
X715245Y727007D01*
X715245Y727485D01*
X720315Y732555D01*
X727485Y732555D01*
X732555Y727485D01*
X732555Y720315D01*
X727485Y715245D01*
X720315Y715245D01*
X716650Y718910D01*
X716634Y718922D01*
X716622Y718937D01*
X716534Y718993D01*
X716451Y719054D01*
X716432Y719059D01*
X716415Y719070D01*
X716314Y719096D01*
X716216Y719126D01*
X716196Y719125D01*
X716176Y719130D01*
X716073Y719122D01*
X715970Y719120D01*
X715951Y719113D01*
X715931Y719111D01*
X715836Y719071D01*
X715739Y719035D01*
X715723Y719023D01*
X715705Y719015D01*
X715574Y718910D01*
X627784Y631120D01*
X627290Y630626D01*
X627278Y630610D01*
X627263Y630598D01*
X627207Y630511D01*
X627146Y630427D01*
X627141Y630408D01*
X627130Y630391D01*
X627104Y630290D01*
X627074Y630191D01*
X627075Y630171D01*
X627070Y630152D01*
X627078Y630049D01*
X627080Y629946D01*
X627087Y629927D01*
X627089Y629907D01*
X627129Y629812D01*
X627165Y629715D01*
X627177Y629699D01*
X627185Y629681D01*
X627290Y629550D01*
X630955Y625885D01*
X630955Y618715D01*
X625885Y613645D01*
X618715Y613645D01*
X613645Y618715D01*
X613645Y625885D01*
X615413Y627652D01*
X615454Y627710D01*
X615504Y627762D01*
X615526Y627810D01*
X615556Y627852D01*
X615577Y627920D01*
X615607Y627986D01*
X615613Y628037D01*
X615629Y628087D01*
X615627Y628159D01*
X615635Y628230D01*
X615623Y628281D01*
X615622Y628333D01*
X615598Y628400D01*
X615582Y628470D01*
X615556Y628515D01*
X615538Y628564D01*
X615493Y628620D01*
X615456Y628681D01*
X615417Y628715D01*
X615384Y628756D01*
X615324Y628795D01*
X615269Y628841D01*
X615221Y628861D01*
X615177Y628889D01*
X615108Y628906D01*
X615041Y628933D01*
X614970Y628941D01*
X614939Y628949D01*
X614915Y628947D01*
X614874Y628952D01*
X553638Y628952D01*
X553548Y628937D01*
X553457Y628930D01*
X553428Y628917D01*
X553396Y628912D01*
X553315Y628869D01*
X553231Y628834D01*
X553199Y628808D01*
X553178Y628797D01*
X553156Y628774D01*
X553100Y628729D01*
X528078Y603707D01*
X408282Y603707D01*
X398352Y613636D01*
X398336Y613648D01*
X398324Y613664D01*
X398237Y613719D01*
X398153Y613780D01*
X398134Y613786D01*
X398117Y613796D01*
X398017Y613822D01*
X397918Y613852D01*
X397898Y613852D01*
X397878Y613857D01*
X397775Y613849D01*
X397672Y613846D01*
X397653Y613839D01*
X397633Y613837D01*
X397538Y613797D01*
X397441Y613761D01*
X397425Y613749D01*
X397407Y613741D01*
X397287Y613645D01*
X390304Y613645D01*
X390214Y613631D01*
X390123Y613623D01*
X390094Y613611D01*
X390062Y613606D01*
X389981Y613563D01*
X389897Y613527D01*
X389865Y613501D01*
X389844Y613490D01*
X389822Y613467D01*
X389766Y613422D01*
X359396Y583052D01*
X286647Y583052D01*
G37*
%LPD*%
G36*
X233114Y676922D02*
X233114Y676922D01*
X233230Y676939D01*
X233235Y676942D01*
X233242Y676943D01*
X233344Y676997D01*
X233449Y677051D01*
X233454Y677055D01*
X233459Y677058D01*
X233539Y677142D01*
X233621Y677226D01*
X233625Y677233D01*
X233628Y677236D01*
X233636Y677253D01*
X233702Y677373D01*
X233963Y678003D01*
X236397Y680437D01*
X239578Y681755D01*
X243022Y681755D01*
X244374Y681195D01*
X244488Y681168D01*
X244601Y681139D01*
X244607Y681140D01*
X244613Y681138D01*
X244730Y681149D01*
X244846Y681158D01*
X244852Y681161D01*
X244858Y681162D01*
X244966Y681209D01*
X245072Y681255D01*
X245078Y681259D01*
X245083Y681262D01*
X245097Y681274D01*
X245203Y681360D01*
X251074Y687231D01*
X280594Y687231D01*
X280684Y687245D01*
X280775Y687253D01*
X280805Y687265D01*
X280837Y687270D01*
X280918Y687313D01*
X281001Y687349D01*
X281034Y687375D01*
X281054Y687386D01*
X281076Y687409D01*
X281132Y687454D01*
X318869Y725190D01*
X318910Y725248D01*
X318960Y725300D01*
X318982Y725347D01*
X319012Y725389D01*
X319033Y725458D01*
X319063Y725523D01*
X319069Y725575D01*
X319084Y725625D01*
X319083Y725696D01*
X319090Y725767D01*
X319079Y725818D01*
X319078Y725870D01*
X319053Y725938D01*
X319038Y726008D01*
X319011Y726053D01*
X318994Y726101D01*
X318949Y726157D01*
X318912Y726219D01*
X318872Y726253D01*
X318840Y726293D01*
X318780Y726332D01*
X318725Y726379D01*
X318677Y726398D01*
X318633Y726426D01*
X318564Y726444D01*
X318497Y726471D01*
X318426Y726479D01*
X318394Y726487D01*
X318371Y726485D01*
X318330Y726489D01*
X284352Y726489D01*
X275211Y735631D01*
X275194Y735642D01*
X275182Y735658D01*
X275095Y735714D01*
X275011Y735774D01*
X274992Y735780D01*
X274975Y735791D01*
X274875Y735816D01*
X274776Y735847D01*
X274756Y735846D01*
X274737Y735851D01*
X274634Y735843D01*
X274530Y735840D01*
X274511Y735833D01*
X274491Y735832D01*
X274396Y735791D01*
X274299Y735756D01*
X274283Y735743D01*
X274265Y735736D01*
X274134Y735631D01*
X272133Y733629D01*
X268608Y732169D01*
X264792Y732169D01*
X261267Y733629D01*
X258569Y736327D01*
X257109Y739852D01*
X257109Y744088D01*
X257106Y744108D01*
X257108Y744127D01*
X257086Y744229D01*
X257070Y744331D01*
X257060Y744348D01*
X257056Y744368D01*
X257003Y744457D01*
X256954Y744548D01*
X256940Y744562D01*
X256930Y744579D01*
X256851Y744646D01*
X256776Y744718D01*
X256758Y744726D01*
X256743Y744739D01*
X256647Y744778D01*
X256553Y744821D01*
X256533Y744823D01*
X256515Y744831D01*
X256348Y744849D01*
X127916Y744849D01*
X127826Y744835D01*
X127735Y744827D01*
X127705Y744815D01*
X127673Y744810D01*
X127592Y744767D01*
X127509Y744731D01*
X127476Y744705D01*
X127456Y744694D01*
X127434Y744671D01*
X127378Y744626D01*
X110478Y727726D01*
X110425Y727653D01*
X110365Y727583D01*
X110353Y727553D01*
X110334Y727527D01*
X110307Y727440D01*
X110273Y727355D01*
X110269Y727314D01*
X110262Y727292D01*
X110263Y727259D01*
X110255Y727188D01*
X110255Y720315D01*
X105185Y715245D01*
X102571Y715245D01*
X102501Y715234D01*
X102429Y715232D01*
X102380Y715214D01*
X102329Y715206D01*
X102265Y715172D01*
X102198Y715147D01*
X102157Y715115D01*
X102111Y715090D01*
X102062Y715038D01*
X102006Y714994D01*
X101978Y714950D01*
X101942Y714912D01*
X101912Y714847D01*
X101873Y714787D01*
X101860Y714736D01*
X101838Y714689D01*
X101830Y714618D01*
X101813Y714548D01*
X101817Y714496D01*
X101811Y714445D01*
X101826Y714374D01*
X101832Y714303D01*
X101852Y714255D01*
X101863Y714204D01*
X101900Y714143D01*
X101928Y714077D01*
X101973Y714021D01*
X101989Y713993D01*
X102007Y713978D01*
X102033Y713946D01*
X138853Y677126D01*
X138926Y677073D01*
X138996Y677014D01*
X139026Y677001D01*
X139052Y676983D01*
X139139Y676956D01*
X139224Y676922D01*
X139265Y676917D01*
X139287Y676910D01*
X139320Y676911D01*
X139391Y676903D01*
X232999Y676903D01*
X233114Y676922D01*
G37*
G36*
X530226Y622354D02*
X530226Y622354D01*
X530297Y622359D01*
X530345Y622380D01*
X530396Y622391D01*
X530457Y622428D01*
X530523Y622456D01*
X530579Y622500D01*
X530607Y622517D01*
X530622Y622535D01*
X530654Y622560D01*
X544961Y636868D01*
X545014Y636941D01*
X545074Y637011D01*
X545086Y637041D01*
X545105Y637067D01*
X545132Y637154D01*
X545166Y637239D01*
X545170Y637280D01*
X545177Y637302D01*
X545176Y637335D01*
X545184Y637406D01*
X545184Y699190D01*
X545173Y699261D01*
X545171Y699333D01*
X545153Y699382D01*
X545145Y699433D01*
X545111Y699496D01*
X545086Y699564D01*
X545054Y699604D01*
X545029Y699650D01*
X544978Y699700D01*
X544933Y699756D01*
X544889Y699784D01*
X544851Y699820D01*
X544786Y699850D01*
X544726Y699889D01*
X544675Y699901D01*
X544628Y699923D01*
X544557Y699931D01*
X544487Y699949D01*
X544435Y699945D01*
X544384Y699950D01*
X544313Y699935D01*
X544242Y699930D01*
X544194Y699909D01*
X544143Y699898D01*
X544082Y699861D01*
X544016Y699833D01*
X543960Y699789D01*
X543932Y699772D01*
X543917Y699754D01*
X543885Y699728D01*
X543776Y699620D01*
X541633Y698732D01*
X539312Y698732D01*
X537168Y699620D01*
X535767Y701021D01*
X535694Y701074D01*
X535624Y701134D01*
X535594Y701146D01*
X535568Y701165D01*
X535481Y701192D01*
X535396Y701226D01*
X535355Y701230D01*
X535333Y701237D01*
X535300Y701236D01*
X535229Y701244D01*
X489754Y701244D01*
X467154Y723845D01*
X467096Y723886D01*
X467044Y723936D01*
X466997Y723958D01*
X466955Y723988D01*
X466886Y724009D01*
X466821Y724039D01*
X466769Y724045D01*
X466719Y724060D01*
X466648Y724059D01*
X466577Y724066D01*
X466526Y724055D01*
X466474Y724054D01*
X466406Y724029D01*
X466336Y724014D01*
X466291Y723987D01*
X466243Y723970D01*
X466187Y723925D01*
X466125Y723888D01*
X466091Y723848D01*
X466051Y723816D01*
X466012Y723756D01*
X465965Y723701D01*
X465946Y723653D01*
X465918Y723609D01*
X465900Y723540D01*
X465873Y723473D01*
X465865Y723402D01*
X465857Y723370D01*
X465859Y723347D01*
X465855Y723306D01*
X465855Y720315D01*
X460785Y715245D01*
X453615Y715245D01*
X448332Y720529D01*
X448258Y720582D01*
X448188Y720641D01*
X448158Y720653D01*
X448132Y720672D01*
X448045Y720699D01*
X447960Y720733D01*
X447919Y720738D01*
X447897Y720745D01*
X447865Y720744D01*
X447793Y720752D01*
X419757Y720752D01*
X416354Y724155D01*
X416296Y724196D01*
X416244Y724246D01*
X416197Y724268D01*
X416155Y724298D01*
X416086Y724319D01*
X416021Y724349D01*
X415969Y724355D01*
X415919Y724370D01*
X415848Y724369D01*
X415777Y724376D01*
X415726Y724365D01*
X415674Y724364D01*
X415606Y724339D01*
X415536Y724324D01*
X415491Y724297D01*
X415443Y724280D01*
X415387Y724235D01*
X415325Y724198D01*
X415291Y724158D01*
X415251Y724126D01*
X415212Y724066D01*
X415165Y724011D01*
X415146Y723963D01*
X415118Y723919D01*
X415100Y723850D01*
X415073Y723783D01*
X415065Y723712D01*
X415057Y723680D01*
X415059Y723657D01*
X415055Y723616D01*
X415055Y720315D01*
X409985Y715245D01*
X403547Y715245D01*
X403457Y715231D01*
X403366Y715223D01*
X403336Y715211D01*
X403304Y715206D01*
X403223Y715163D01*
X403140Y715127D01*
X403107Y715101D01*
X403087Y715090D01*
X403065Y715067D01*
X403009Y715022D01*
X358248Y670262D01*
X326201Y670262D01*
X326086Y670243D01*
X325970Y670226D01*
X325964Y670223D01*
X325958Y670222D01*
X325855Y670168D01*
X325751Y670114D01*
X325746Y670110D01*
X325741Y670107D01*
X325661Y670023D01*
X325578Y669939D01*
X325575Y669932D01*
X325571Y669929D01*
X325564Y669912D01*
X325498Y669792D01*
X324837Y668197D01*
X323367Y666728D01*
X323326Y666670D01*
X323276Y666618D01*
X323254Y666570D01*
X323224Y666528D01*
X323203Y666460D01*
X323173Y666394D01*
X323167Y666343D01*
X323151Y666293D01*
X323153Y666221D01*
X323145Y666150D01*
X323157Y666099D01*
X323158Y666047D01*
X323182Y665980D01*
X323198Y665910D01*
X323224Y665865D01*
X323242Y665816D01*
X323287Y665760D01*
X323324Y665699D01*
X323363Y665665D01*
X323396Y665624D01*
X323456Y665585D01*
X323511Y665539D01*
X323559Y665519D01*
X323603Y665491D01*
X323672Y665474D01*
X323739Y665447D01*
X323810Y665439D01*
X323841Y665431D01*
X323865Y665433D01*
X323906Y665428D01*
X464966Y665428D01*
X503758Y626636D01*
X503831Y626583D01*
X503901Y626524D01*
X503931Y626511D01*
X503957Y626493D01*
X504044Y626466D01*
X504129Y626432D01*
X504170Y626427D01*
X504192Y626420D01*
X504225Y626421D01*
X504296Y626413D01*
X512258Y626413D01*
X512348Y626428D01*
X512439Y626435D01*
X512469Y626448D01*
X512501Y626453D01*
X512582Y626496D01*
X512666Y626531D01*
X512698Y626557D01*
X512718Y626568D01*
X512741Y626591D01*
X512797Y626636D01*
X517115Y630955D01*
X524285Y630955D01*
X529355Y625885D01*
X529355Y623099D01*
X529366Y623028D01*
X529368Y622956D01*
X529386Y622907D01*
X529394Y622856D01*
X529428Y622793D01*
X529453Y622725D01*
X529485Y622685D01*
X529510Y622639D01*
X529562Y622589D01*
X529606Y622533D01*
X529650Y622505D01*
X529688Y622469D01*
X529753Y622439D01*
X529813Y622400D01*
X529864Y622388D01*
X529911Y622366D01*
X529982Y622358D01*
X530052Y622340D01*
X530104Y622344D01*
X530155Y622339D01*
X530226Y622354D01*
G37*
%LPC*%
G36*
X778806Y118951D02*
X778806Y118951D01*
X766651Y131106D01*
X766651Y148571D01*
X766637Y148661D01*
X766629Y148752D01*
X766617Y148782D01*
X766612Y148814D01*
X766569Y148895D01*
X766533Y148978D01*
X766507Y149011D01*
X766496Y149031D01*
X766473Y149053D01*
X766428Y149109D01*
X725469Y190069D01*
X724224Y193074D01*
X724224Y265135D01*
X724205Y265250D01*
X724188Y265366D01*
X724186Y265372D01*
X724185Y265378D01*
X724130Y265481D01*
X724077Y265585D01*
X724072Y265590D01*
X724069Y265595D01*
X723985Y265675D01*
X723901Y265758D01*
X723895Y265761D01*
X723891Y265765D01*
X723874Y265773D01*
X723754Y265839D01*
X722487Y266364D01*
X717564Y271287D01*
X716507Y273838D01*
X716469Y273899D01*
X716440Y273965D01*
X716405Y274003D01*
X716377Y274047D01*
X716322Y274093D01*
X716273Y274146D01*
X716228Y274171D01*
X716188Y274204D01*
X716121Y274230D01*
X716058Y274264D01*
X716007Y274273D01*
X715958Y274292D01*
X715887Y274295D01*
X715816Y274308D01*
X715764Y274300D01*
X715712Y274303D01*
X715643Y274283D01*
X715573Y274272D01*
X715526Y274248D01*
X715476Y274234D01*
X715417Y274193D01*
X715353Y274161D01*
X715317Y274123D01*
X715274Y274094D01*
X715231Y274036D01*
X715181Y273985D01*
X715146Y273922D01*
X715127Y273896D01*
X715120Y273874D01*
X715100Y273838D01*
X714736Y272958D01*
X710642Y268864D01*
X705294Y266649D01*
X699506Y266649D01*
X694158Y268864D01*
X690064Y272958D01*
X688103Y277692D01*
X688065Y277753D01*
X688036Y277819D01*
X688001Y277857D01*
X687974Y277901D01*
X687918Y277947D01*
X687870Y278000D01*
X687824Y278025D01*
X687784Y278058D01*
X687717Y278084D01*
X687654Y278119D01*
X687603Y278128D01*
X687555Y278146D01*
X687483Y278149D01*
X687412Y278162D01*
X687361Y278155D01*
X687309Y278157D01*
X687240Y278137D01*
X687169Y278126D01*
X687123Y278103D01*
X687073Y278088D01*
X687014Y278047D01*
X686950Y278015D01*
X686913Y277978D01*
X686871Y277948D01*
X686828Y277891D01*
X686778Y277839D01*
X686743Y277777D01*
X686724Y277751D01*
X686717Y277728D01*
X686697Y277692D01*
X684736Y272958D01*
X680642Y268864D01*
X675294Y266649D01*
X669506Y266649D01*
X664158Y268864D01*
X660064Y272958D01*
X657849Y278306D01*
X657849Y284094D01*
X660064Y289442D01*
X664158Y293536D01*
X669506Y295751D01*
X675294Y295751D01*
X680642Y293536D01*
X684736Y289442D01*
X686697Y284708D01*
X686735Y284647D01*
X686764Y284581D01*
X686799Y284543D01*
X686826Y284499D01*
X686882Y284453D01*
X686930Y284400D01*
X686976Y284375D01*
X687016Y284342D01*
X687083Y284316D01*
X687146Y284281D01*
X687197Y284272D01*
X687245Y284254D01*
X687317Y284251D01*
X687388Y284238D01*
X687439Y284245D01*
X687491Y284243D01*
X687560Y284263D01*
X687631Y284274D01*
X687677Y284297D01*
X687727Y284312D01*
X687786Y284353D01*
X687850Y284385D01*
X687887Y284422D01*
X687929Y284452D01*
X687972Y284509D01*
X688022Y284561D01*
X688057Y284623D01*
X688076Y284649D01*
X688083Y284672D01*
X688103Y284708D01*
X690064Y289442D01*
X694158Y293536D01*
X699506Y295751D01*
X705294Y295751D01*
X710642Y293536D01*
X714736Y289442D01*
X715100Y288562D01*
X715138Y288501D01*
X715167Y288436D01*
X715202Y288397D01*
X715230Y288353D01*
X715285Y288307D01*
X715334Y288254D01*
X715379Y288229D01*
X715419Y288196D01*
X715486Y288170D01*
X715549Y288136D01*
X715600Y288127D01*
X715649Y288108D01*
X715720Y288105D01*
X715791Y288092D01*
X715843Y288100D01*
X715895Y288097D01*
X715964Y288117D01*
X716034Y288128D01*
X716081Y288152D01*
X716131Y288166D01*
X716190Y288207D01*
X716254Y288239D01*
X716290Y288277D01*
X716333Y288306D01*
X716376Y288364D01*
X716426Y288415D01*
X716460Y288478D01*
X716480Y288504D01*
X716487Y288526D01*
X716507Y288562D01*
X717564Y291113D01*
X722487Y296036D01*
X728919Y298701D01*
X735881Y298701D01*
X742313Y296036D01*
X747236Y291113D01*
X748293Y288562D01*
X748331Y288501D01*
X748360Y288435D01*
X748395Y288397D01*
X748423Y288353D01*
X748478Y288307D01*
X748527Y288254D01*
X748572Y288229D01*
X748612Y288196D01*
X748679Y288170D01*
X748742Y288136D01*
X748793Y288127D01*
X748842Y288108D01*
X748913Y288105D01*
X748984Y288092D01*
X749036Y288100D01*
X749088Y288097D01*
X749157Y288117D01*
X749227Y288128D01*
X749274Y288152D01*
X749324Y288166D01*
X749383Y288207D01*
X749447Y288239D01*
X749483Y288277D01*
X749526Y288306D01*
X749569Y288364D01*
X749619Y288415D01*
X749654Y288478D01*
X749673Y288504D01*
X749680Y288526D01*
X749700Y288562D01*
X750064Y289442D01*
X754158Y293536D01*
X759506Y295751D01*
X765294Y295751D01*
X770642Y293536D01*
X774736Y289442D01*
X776951Y284094D01*
X776951Y278306D01*
X774736Y272958D01*
X770642Y268864D01*
X765294Y266649D01*
X759506Y266649D01*
X754158Y268864D01*
X750064Y272958D01*
X749700Y273838D01*
X749662Y273899D01*
X749633Y273964D01*
X749598Y274003D01*
X749570Y274047D01*
X749515Y274093D01*
X749466Y274146D01*
X749421Y274171D01*
X749381Y274204D01*
X749314Y274230D01*
X749251Y274264D01*
X749200Y274273D01*
X749151Y274292D01*
X749080Y274295D01*
X749009Y274308D01*
X748957Y274300D01*
X748905Y274303D01*
X748836Y274283D01*
X748766Y274272D01*
X748719Y274248D01*
X748669Y274234D01*
X748610Y274193D01*
X748546Y274161D01*
X748510Y274123D01*
X748467Y274094D01*
X748424Y274036D01*
X748374Y273985D01*
X748340Y273922D01*
X748320Y273896D01*
X748313Y273874D01*
X748293Y273838D01*
X747236Y271287D01*
X742313Y266364D01*
X741046Y265839D01*
X740946Y265777D01*
X740846Y265717D01*
X740842Y265712D01*
X740837Y265709D01*
X740762Y265618D01*
X740686Y265530D01*
X740684Y265524D01*
X740680Y265519D01*
X740638Y265411D01*
X740594Y265302D01*
X740593Y265294D01*
X740592Y265290D01*
X740591Y265272D01*
X740576Y265135D01*
X740576Y198402D01*
X740590Y198312D01*
X740598Y198221D01*
X740610Y198191D01*
X740615Y198159D01*
X740658Y198078D01*
X740694Y197995D01*
X740720Y197962D01*
X740731Y197942D01*
X740754Y197920D01*
X740799Y197864D01*
X777991Y160672D01*
X778064Y160619D01*
X778134Y160559D01*
X778164Y160547D01*
X778190Y160528D01*
X778277Y160501D01*
X778362Y160467D01*
X778403Y160463D01*
X778425Y160456D01*
X778458Y160457D01*
X778529Y160449D01*
X795994Y160449D01*
X808149Y148294D01*
X808149Y131106D01*
X795994Y118951D01*
X778806Y118951D01*
G37*
%LPD*%
G36*
X282774Y596735D02*
X282774Y596735D01*
X282826Y596736D01*
X282894Y596761D01*
X282964Y596776D01*
X283008Y596802D01*
X283057Y596820D01*
X283113Y596865D01*
X283175Y596902D01*
X283209Y596942D01*
X283249Y596974D01*
X283288Y597034D01*
X283335Y597089D01*
X283354Y597137D01*
X283382Y597181D01*
X283400Y597250D01*
X283427Y597317D01*
X283435Y597388D01*
X283443Y597420D01*
X283441Y597443D01*
X283445Y597484D01*
X283445Y598622D01*
X284763Y601803D01*
X287197Y604237D01*
X290378Y605555D01*
X293822Y605555D01*
X297003Y604237D01*
X299437Y601803D01*
X299505Y601638D01*
X299567Y601538D01*
X299627Y601439D01*
X299632Y601434D01*
X299635Y601429D01*
X299724Y601355D01*
X299814Y601279D01*
X299820Y601276D01*
X299824Y601272D01*
X299932Y601231D01*
X300042Y601187D01*
X300049Y601186D01*
X300054Y601184D01*
X300072Y601183D01*
X300209Y601168D01*
X302397Y601168D01*
X302487Y601183D01*
X302578Y601190D01*
X302607Y601203D01*
X302639Y601208D01*
X302720Y601251D01*
X302804Y601286D01*
X302836Y601312D01*
X302857Y601323D01*
X302879Y601346D01*
X302935Y601391D01*
X334969Y633425D01*
X337137Y635593D01*
X483570Y635593D01*
X483641Y635605D01*
X483713Y635607D01*
X483762Y635625D01*
X483813Y635633D01*
X483876Y635667D01*
X483944Y635691D01*
X483984Y635724D01*
X484030Y635748D01*
X484080Y635800D01*
X484136Y635845D01*
X484164Y635889D01*
X484200Y635926D01*
X484230Y635991D01*
X484269Y636052D01*
X484281Y636102D01*
X484303Y636149D01*
X484311Y636221D01*
X484329Y636290D01*
X484325Y636342D01*
X484330Y636394D01*
X484315Y636464D01*
X484310Y636535D01*
X484289Y636583D01*
X484278Y636634D01*
X484241Y636696D01*
X484213Y636762D01*
X484169Y636818D01*
X484152Y636845D01*
X484141Y636855D01*
X484139Y636858D01*
X484130Y636867D01*
X484109Y636893D01*
X462437Y658564D01*
X462364Y658617D01*
X462294Y658676D01*
X462264Y658689D01*
X462238Y658707D01*
X462151Y658734D01*
X462066Y658768D01*
X462025Y658773D01*
X462003Y658780D01*
X461970Y658779D01*
X461899Y658787D01*
X283070Y658787D01*
X282999Y658775D01*
X282927Y658773D01*
X282878Y658755D01*
X282827Y658747D01*
X282764Y658714D01*
X282696Y658689D01*
X282656Y658656D01*
X282610Y658632D01*
X282560Y658580D01*
X282504Y658535D01*
X282476Y658491D01*
X282440Y658454D01*
X282410Y658388D01*
X282371Y658328D01*
X282359Y658278D01*
X282337Y658231D01*
X282329Y658159D01*
X282311Y658090D01*
X282315Y658038D01*
X282310Y657986D01*
X282325Y657916D01*
X282330Y657844D01*
X282351Y657797D01*
X282362Y657746D01*
X282399Y657684D01*
X282427Y657618D01*
X282471Y657562D01*
X282488Y657535D01*
X282506Y657519D01*
X282532Y657487D01*
X282640Y657379D01*
X283528Y655235D01*
X283528Y652915D01*
X282640Y650771D01*
X281239Y649370D01*
X281186Y649296D01*
X281126Y649227D01*
X281114Y649196D01*
X281095Y649170D01*
X281068Y649083D01*
X281034Y648998D01*
X281030Y648957D01*
X281023Y648935D01*
X281024Y648903D01*
X281016Y648832D01*
X281016Y598391D01*
X281030Y598301D01*
X281038Y598210D01*
X281050Y598180D01*
X281055Y598148D01*
X281098Y598067D01*
X281134Y597983D01*
X281160Y597951D01*
X281171Y597931D01*
X281194Y597908D01*
X281239Y597853D01*
X282146Y596945D01*
X282204Y596904D01*
X282256Y596854D01*
X282303Y596832D01*
X282345Y596802D01*
X282414Y596781D01*
X282479Y596751D01*
X282531Y596745D01*
X282581Y596730D01*
X282652Y596731D01*
X282723Y596724D01*
X282774Y596735D01*
G37*
G36*
X535319Y707900D02*
X535319Y707900D01*
X535410Y707908D01*
X535440Y707920D01*
X535472Y707925D01*
X535553Y707968D01*
X535636Y708004D01*
X535669Y708030D01*
X535689Y708041D01*
X535711Y708064D01*
X535767Y708109D01*
X537168Y709510D01*
X539312Y710398D01*
X541633Y710398D01*
X543776Y709510D01*
X543885Y709402D01*
X543943Y709360D01*
X543995Y709310D01*
X544042Y709288D01*
X544084Y709258D01*
X544153Y709237D01*
X544218Y709207D01*
X544270Y709201D01*
X544319Y709186D01*
X544391Y709187D01*
X544462Y709180D01*
X544513Y709191D01*
X544565Y709192D01*
X544633Y709217D01*
X544703Y709232D01*
X544748Y709259D01*
X544796Y709276D01*
X544852Y709321D01*
X544914Y709358D01*
X544948Y709398D01*
X544988Y709430D01*
X545027Y709490D01*
X545074Y709545D01*
X545093Y709593D01*
X545121Y709637D01*
X545139Y709706D01*
X545166Y709773D01*
X545174Y709844D01*
X545182Y709875D01*
X545180Y709899D01*
X545184Y709940D01*
X545184Y710907D01*
X545170Y710997D01*
X545162Y711088D01*
X545150Y711117D01*
X545145Y711149D01*
X545102Y711230D01*
X545066Y711314D01*
X545040Y711346D01*
X545029Y711367D01*
X545006Y711389D01*
X544961Y711445D01*
X491125Y765281D01*
X491051Y765334D01*
X490982Y765394D01*
X490951Y765406D01*
X490925Y765425D01*
X490838Y765452D01*
X490753Y765486D01*
X490712Y765490D01*
X490690Y765497D01*
X490658Y765496D01*
X490587Y765504D01*
X324237Y765504D01*
X324166Y765493D01*
X324094Y765491D01*
X324045Y765473D01*
X323994Y765465D01*
X323931Y765431D01*
X323863Y765406D01*
X323823Y765374D01*
X323777Y765349D01*
X323727Y765297D01*
X323671Y765253D01*
X323643Y765209D01*
X323607Y765171D01*
X323577Y765106D01*
X323538Y765046D01*
X323526Y764995D01*
X323504Y764948D01*
X323496Y764877D01*
X323478Y764807D01*
X323482Y764755D01*
X323477Y764704D01*
X323492Y764633D01*
X323497Y764562D01*
X323518Y764514D01*
X323529Y764463D01*
X323566Y764402D01*
X323594Y764336D01*
X323639Y764280D01*
X323655Y764252D01*
X323673Y764237D01*
X323699Y764205D01*
X325631Y762273D01*
X327091Y758748D01*
X327091Y752252D01*
X327094Y752232D01*
X327092Y752213D01*
X327114Y752111D01*
X327130Y752009D01*
X327140Y751992D01*
X327144Y751972D01*
X327197Y751883D01*
X327246Y751792D01*
X327260Y751778D01*
X327270Y751761D01*
X327349Y751694D01*
X327424Y751622D01*
X327442Y751614D01*
X327457Y751601D01*
X327553Y751562D01*
X327647Y751519D01*
X327667Y751517D01*
X327685Y751509D01*
X327852Y751491D01*
X448901Y751491D01*
X492283Y708109D01*
X492356Y708056D01*
X492426Y707996D01*
X492456Y707984D01*
X492482Y707965D01*
X492569Y707938D01*
X492654Y707904D01*
X492695Y707900D01*
X492717Y707893D01*
X492750Y707894D01*
X492821Y707886D01*
X535229Y707886D01*
X535319Y707900D01*
G37*
G36*
X285765Y665440D02*
X285765Y665440D01*
X285837Y665442D01*
X285886Y665460D01*
X285937Y665468D01*
X286000Y665502D01*
X286068Y665526D01*
X286108Y665559D01*
X286154Y665583D01*
X286204Y665635D01*
X286260Y665680D01*
X286288Y665724D01*
X286324Y665761D01*
X286354Y665826D01*
X286393Y665887D01*
X286406Y665937D01*
X286427Y665984D01*
X286435Y666056D01*
X286453Y666125D01*
X286449Y666177D01*
X286455Y666229D01*
X286439Y666299D01*
X286434Y666370D01*
X286413Y666418D01*
X286402Y666469D01*
X286365Y666531D01*
X286337Y666597D01*
X286293Y666653D01*
X286276Y666680D01*
X286258Y666696D01*
X286233Y666728D01*
X284763Y668197D01*
X283445Y671378D01*
X283445Y674822D01*
X284763Y678003D01*
X287197Y680437D01*
X290378Y681755D01*
X293822Y681755D01*
X297003Y680437D01*
X299437Y678003D01*
X300755Y674822D01*
X300755Y671378D01*
X299437Y668197D01*
X297967Y666728D01*
X297926Y666670D01*
X297876Y666618D01*
X297854Y666570D01*
X297824Y666528D01*
X297803Y666460D01*
X297773Y666394D01*
X297767Y666343D01*
X297751Y666293D01*
X297753Y666221D01*
X297745Y666150D01*
X297757Y666099D01*
X297758Y666047D01*
X297782Y665980D01*
X297798Y665910D01*
X297824Y665865D01*
X297842Y665816D01*
X297887Y665760D01*
X297924Y665699D01*
X297963Y665665D01*
X297996Y665624D01*
X298056Y665585D01*
X298111Y665539D01*
X298159Y665519D01*
X298203Y665491D01*
X298272Y665474D01*
X298339Y665447D01*
X298410Y665439D01*
X298441Y665431D01*
X298465Y665433D01*
X298506Y665428D01*
X311094Y665428D01*
X311165Y665440D01*
X311237Y665442D01*
X311286Y665460D01*
X311337Y665468D01*
X311400Y665502D01*
X311468Y665526D01*
X311508Y665559D01*
X311554Y665583D01*
X311604Y665635D01*
X311660Y665680D01*
X311688Y665724D01*
X311724Y665761D01*
X311754Y665826D01*
X311793Y665887D01*
X311806Y665937D01*
X311827Y665984D01*
X311835Y666056D01*
X311853Y666125D01*
X311849Y666177D01*
X311855Y666229D01*
X311839Y666299D01*
X311834Y666370D01*
X311813Y666418D01*
X311802Y666469D01*
X311765Y666531D01*
X311737Y666597D01*
X311693Y666653D01*
X311676Y666680D01*
X311658Y666696D01*
X311633Y666728D01*
X310163Y668197D01*
X308845Y671378D01*
X308845Y674822D01*
X310163Y678003D01*
X312597Y680437D01*
X315778Y681755D01*
X319222Y681755D01*
X322403Y680437D01*
X324837Y678003D01*
X325098Y677373D01*
X325160Y677273D01*
X325219Y677174D01*
X325224Y677170D01*
X325227Y677164D01*
X325318Y677089D01*
X325406Y677014D01*
X325412Y677011D01*
X325417Y677007D01*
X325525Y676966D01*
X325634Y676922D01*
X325642Y676921D01*
X325647Y676919D01*
X325665Y676918D01*
X325801Y676903D01*
X355182Y676903D01*
X355272Y676918D01*
X355363Y676925D01*
X355392Y676938D01*
X355424Y676943D01*
X355505Y676986D01*
X355589Y677021D01*
X355621Y677047D01*
X355642Y677058D01*
X355664Y677081D01*
X355720Y677126D01*
X397789Y719195D01*
X397800Y719211D01*
X397816Y719224D01*
X397872Y719311D01*
X397932Y719395D01*
X397938Y719414D01*
X397949Y719431D01*
X397974Y719531D01*
X398005Y719630D01*
X398004Y719650D01*
X398009Y719669D01*
X398001Y719772D01*
X397998Y719876D01*
X397991Y719894D01*
X397990Y719914D01*
X397949Y720009D01*
X397914Y720107D01*
X397901Y720122D01*
X397894Y720141D01*
X397789Y720272D01*
X397745Y720315D01*
X397745Y727485D01*
X401188Y730927D01*
X401229Y730985D01*
X401279Y731037D01*
X401301Y731085D01*
X401331Y731127D01*
X401352Y731195D01*
X401382Y731261D01*
X401388Y731312D01*
X401404Y731362D01*
X401402Y731434D01*
X401410Y731505D01*
X401398Y731556D01*
X401397Y731608D01*
X401373Y731675D01*
X401357Y731745D01*
X401331Y731790D01*
X401313Y731839D01*
X401268Y731895D01*
X401231Y731956D01*
X401192Y731990D01*
X401159Y732031D01*
X401099Y732070D01*
X401044Y732116D01*
X400996Y732136D01*
X400952Y732164D01*
X400883Y732181D01*
X400816Y732208D01*
X400745Y732216D01*
X400714Y732224D01*
X400690Y732222D01*
X400649Y732227D01*
X334707Y732227D01*
X334637Y732215D01*
X334565Y732213D01*
X334516Y732195D01*
X334465Y732187D01*
X334401Y732154D01*
X334334Y732129D01*
X334293Y732096D01*
X334247Y732072D01*
X334198Y732020D01*
X334142Y731975D01*
X334114Y731931D01*
X334078Y731894D01*
X334048Y731828D01*
X334009Y731768D01*
X333996Y731718D01*
X333974Y731671D01*
X333966Y731599D01*
X333949Y731530D01*
X333953Y731478D01*
X333947Y731426D01*
X333962Y731356D01*
X333968Y731284D01*
X333988Y731237D01*
X333999Y731186D01*
X334036Y731124D01*
X334064Y731058D01*
X334109Y731002D01*
X334125Y730975D01*
X334143Y730959D01*
X334169Y730927D01*
X334277Y730819D01*
X335165Y728675D01*
X335165Y726355D01*
X334277Y724211D01*
X332637Y722570D01*
X330493Y721682D01*
X328172Y721682D01*
X326225Y722489D01*
X326111Y722516D01*
X325998Y722544D01*
X325991Y722544D01*
X325985Y722545D01*
X325869Y722534D01*
X325752Y722525D01*
X325747Y722523D01*
X325740Y722522D01*
X325633Y722474D01*
X325526Y722429D01*
X325520Y722424D01*
X325516Y722422D01*
X325502Y722409D01*
X325395Y722324D01*
X285829Y682757D01*
X283661Y680589D01*
X273288Y680589D01*
X273217Y680578D01*
X273146Y680576D01*
X273097Y680558D01*
X273045Y680550D01*
X272982Y680516D01*
X272915Y680491D01*
X272874Y680459D01*
X272828Y680434D01*
X272779Y680382D01*
X272723Y680338D01*
X272695Y680294D01*
X272659Y680256D01*
X272628Y680191D01*
X272590Y680131D01*
X272577Y680080D01*
X272555Y680033D01*
X272547Y679962D01*
X272530Y679892D01*
X272534Y679840D01*
X272528Y679789D01*
X272543Y679718D01*
X272549Y679647D01*
X272569Y679599D01*
X272580Y679548D01*
X272617Y679487D01*
X272645Y679421D01*
X272690Y679365D01*
X272706Y679337D01*
X272724Y679322D01*
X272750Y679290D01*
X274037Y678003D01*
X275355Y674822D01*
X275355Y671379D01*
X274895Y670268D01*
X274868Y670154D01*
X274840Y670041D01*
X274840Y670035D01*
X274839Y670029D01*
X274850Y669912D01*
X274859Y669796D01*
X274861Y669790D01*
X274862Y669784D01*
X274909Y669677D01*
X274955Y669570D01*
X274960Y669564D01*
X274962Y669559D01*
X274974Y669546D01*
X275060Y669439D01*
X278848Y665651D01*
X278922Y665598D01*
X278991Y665539D01*
X279021Y665527D01*
X279047Y665508D01*
X279134Y665481D01*
X279219Y665447D01*
X279260Y665442D01*
X279282Y665435D01*
X279315Y665436D01*
X279386Y665428D01*
X285694Y665428D01*
X285765Y665440D01*
G37*
%LPC*%
G36*
X138899Y47069D02*
X138899Y47069D01*
X135969Y49999D01*
X135969Y54563D01*
X135966Y54583D01*
X135968Y54602D01*
X135946Y54704D01*
X135930Y54806D01*
X135920Y54823D01*
X135916Y54843D01*
X135863Y54932D01*
X135814Y55023D01*
X135800Y55037D01*
X135790Y55054D01*
X135711Y55121D01*
X135636Y55193D01*
X135618Y55201D01*
X135603Y55214D01*
X135507Y55253D01*
X135413Y55296D01*
X135393Y55298D01*
X135375Y55306D01*
X135208Y55324D01*
X74574Y55324D01*
X71569Y56569D01*
X69269Y58869D01*
X68024Y61874D01*
X68024Y126398D01*
X68021Y126418D01*
X68023Y126437D01*
X68001Y126539D01*
X67985Y126641D01*
X67975Y126658D01*
X67971Y126678D01*
X67918Y126767D01*
X67869Y126858D01*
X67855Y126872D01*
X67845Y126889D01*
X67766Y126956D01*
X67691Y127028D01*
X67673Y127036D01*
X67658Y127049D01*
X67562Y127088D01*
X67468Y127131D01*
X67448Y127133D01*
X67430Y127141D01*
X67263Y127159D01*
X66165Y127159D01*
X61556Y129068D01*
X58028Y132596D01*
X56119Y137205D01*
X56119Y142195D01*
X58028Y146804D01*
X61556Y150332D01*
X66165Y152241D01*
X86235Y152241D01*
X90844Y150332D01*
X94372Y146804D01*
X96281Y142195D01*
X96281Y137205D01*
X94372Y132596D01*
X90844Y129068D01*
X86235Y127159D01*
X85137Y127159D01*
X85117Y127156D01*
X85098Y127158D01*
X84996Y127136D01*
X84894Y127120D01*
X84877Y127110D01*
X84857Y127106D01*
X84768Y127053D01*
X84677Y127004D01*
X84663Y126990D01*
X84646Y126980D01*
X84579Y126901D01*
X84507Y126826D01*
X84499Y126808D01*
X84486Y126793D01*
X84447Y126697D01*
X84404Y126603D01*
X84402Y126583D01*
X84394Y126565D01*
X84376Y126398D01*
X84376Y72437D01*
X84379Y72417D01*
X84377Y72398D01*
X84399Y72296D01*
X84415Y72194D01*
X84425Y72177D01*
X84429Y72157D01*
X84482Y72068D01*
X84531Y71977D01*
X84545Y71963D01*
X84555Y71946D01*
X84634Y71879D01*
X84709Y71807D01*
X84727Y71799D01*
X84742Y71786D01*
X84838Y71747D01*
X84932Y71704D01*
X84952Y71702D01*
X84970Y71694D01*
X85137Y71676D01*
X135208Y71676D01*
X135228Y71679D01*
X135247Y71677D01*
X135349Y71699D01*
X135451Y71715D01*
X135468Y71725D01*
X135488Y71729D01*
X135577Y71782D01*
X135668Y71831D01*
X135682Y71845D01*
X135699Y71855D01*
X135766Y71934D01*
X135838Y72009D01*
X135846Y72027D01*
X135859Y72042D01*
X135898Y72138D01*
X135941Y72232D01*
X135943Y72252D01*
X135951Y72270D01*
X135969Y72437D01*
X135969Y77001D01*
X138899Y79931D01*
X165901Y79931D01*
X168831Y77001D01*
X168831Y49999D01*
X165901Y47069D01*
X138899Y47069D01*
G37*
%LPD*%
%LPC*%
G36*
X739506Y506649D02*
X739506Y506649D01*
X734158Y508864D01*
X730064Y512958D01*
X727849Y518306D01*
X727849Y524094D01*
X730064Y529442D01*
X734158Y533536D01*
X739506Y535751D01*
X745294Y535751D01*
X750642Y533536D01*
X754736Y529442D01*
X756697Y524708D01*
X756735Y524647D01*
X756764Y524581D01*
X756799Y524543D01*
X756826Y524499D01*
X756882Y524453D01*
X756930Y524400D01*
X756976Y524375D01*
X757016Y524342D01*
X757083Y524316D01*
X757146Y524281D01*
X757197Y524272D01*
X757245Y524254D01*
X757317Y524251D01*
X757388Y524238D01*
X757439Y524245D01*
X757491Y524243D01*
X757560Y524263D01*
X757631Y524274D01*
X757677Y524297D01*
X757727Y524312D01*
X757786Y524353D01*
X757850Y524385D01*
X757887Y524422D01*
X757929Y524452D01*
X757972Y524509D01*
X758022Y524561D01*
X758057Y524623D01*
X758076Y524649D01*
X758083Y524672D01*
X758103Y524708D01*
X760064Y529442D01*
X764158Y533536D01*
X769506Y535751D01*
X775294Y535751D01*
X779818Y533877D01*
X779932Y533850D01*
X780046Y533822D01*
X780052Y533822D01*
X780058Y533821D01*
X780175Y533832D01*
X780291Y533841D01*
X780297Y533843D01*
X780303Y533844D01*
X780410Y533892D01*
X780517Y533937D01*
X780523Y533942D01*
X780528Y533944D01*
X780541Y533956D01*
X780648Y534042D01*
X821509Y574903D01*
X821562Y574976D01*
X821621Y575046D01*
X821634Y575076D01*
X821652Y575102D01*
X821679Y575189D01*
X821713Y575274D01*
X821718Y575315D01*
X821725Y575337D01*
X821724Y575370D01*
X821732Y575441D01*
X821732Y613513D01*
X821717Y613603D01*
X821710Y613694D01*
X821697Y613724D01*
X821692Y613756D01*
X821649Y613837D01*
X821614Y613921D01*
X821588Y613953D01*
X821577Y613973D01*
X821554Y613996D01*
X821542Y614010D01*
X821536Y614021D01*
X821528Y614027D01*
X821509Y614052D01*
X816845Y618715D01*
X816845Y625885D01*
X821915Y630955D01*
X829085Y630955D01*
X834155Y625885D01*
X834155Y618715D01*
X829081Y613641D01*
X828994Y613622D01*
X828892Y613606D01*
X828874Y613596D01*
X828855Y613592D01*
X828766Y613539D01*
X828674Y613490D01*
X828661Y613476D01*
X828644Y613466D01*
X828576Y613387D01*
X828505Y613312D01*
X828497Y613294D01*
X828484Y613279D01*
X828445Y613183D01*
X828401Y613089D01*
X828399Y613069D01*
X828392Y613051D01*
X828373Y612884D01*
X828373Y572374D01*
X785302Y529303D01*
X785234Y529209D01*
X785164Y529114D01*
X785162Y529108D01*
X785158Y529103D01*
X785124Y528993D01*
X785088Y528881D01*
X785088Y528874D01*
X785086Y528868D01*
X785089Y528751D01*
X785090Y528635D01*
X785092Y528627D01*
X785092Y528622D01*
X785099Y528605D01*
X785137Y528474D01*
X786697Y524708D01*
X786734Y524647D01*
X786764Y524581D01*
X786799Y524543D01*
X786826Y524499D01*
X786881Y524453D01*
X786930Y524400D01*
X786976Y524375D01*
X787016Y524342D01*
X787083Y524316D01*
X787146Y524281D01*
X787197Y524272D01*
X787245Y524254D01*
X787317Y524251D01*
X787388Y524238D01*
X787439Y524245D01*
X787491Y524243D01*
X787560Y524263D01*
X787631Y524274D01*
X787677Y524297D01*
X787727Y524312D01*
X787786Y524353D01*
X787850Y524385D01*
X787887Y524422D01*
X787929Y524452D01*
X787972Y524509D01*
X788022Y524561D01*
X788057Y524623D01*
X788076Y524649D01*
X788083Y524672D01*
X788103Y524708D01*
X790064Y529442D01*
X794158Y533536D01*
X799506Y535751D01*
X805294Y535751D01*
X810642Y533536D01*
X814736Y529442D01*
X816951Y524094D01*
X816951Y518306D01*
X814736Y512958D01*
X810642Y508864D01*
X805294Y506649D01*
X799506Y506649D01*
X794158Y508864D01*
X790064Y512958D01*
X788103Y517692D01*
X788065Y517753D01*
X788036Y517819D01*
X788001Y517857D01*
X787974Y517901D01*
X787918Y517947D01*
X787870Y518000D01*
X787824Y518025D01*
X787784Y518058D01*
X787717Y518084D01*
X787654Y518119D01*
X787603Y518128D01*
X787555Y518146D01*
X787483Y518149D01*
X787412Y518162D01*
X787361Y518155D01*
X787309Y518157D01*
X787240Y518137D01*
X787169Y518126D01*
X787123Y518103D01*
X787073Y518088D01*
X787014Y518047D01*
X786950Y518015D01*
X786913Y517978D01*
X786871Y517948D01*
X786828Y517891D01*
X786778Y517839D01*
X786743Y517777D01*
X786724Y517751D01*
X786717Y517728D01*
X786697Y517692D01*
X784736Y512958D01*
X780642Y508864D01*
X775294Y506649D01*
X769506Y506649D01*
X764158Y508864D01*
X760064Y512958D01*
X758103Y517692D01*
X758065Y517753D01*
X758036Y517819D01*
X758001Y517857D01*
X757974Y517901D01*
X757918Y517947D01*
X757870Y518000D01*
X757824Y518025D01*
X757784Y518058D01*
X757717Y518084D01*
X757654Y518119D01*
X757603Y518128D01*
X757555Y518146D01*
X757483Y518149D01*
X757412Y518162D01*
X757361Y518155D01*
X757309Y518157D01*
X757240Y518137D01*
X757169Y518126D01*
X757123Y518103D01*
X757073Y518088D01*
X757014Y518047D01*
X756950Y518015D01*
X756913Y517978D01*
X756871Y517948D01*
X756828Y517891D01*
X756778Y517839D01*
X756743Y517777D01*
X756724Y517751D01*
X756717Y517728D01*
X756697Y517692D01*
X754736Y512958D01*
X750642Y508864D01*
X745294Y506649D01*
X739506Y506649D01*
G37*
%LPD*%
%LPC*%
G36*
X948915Y613645D02*
X948915Y613645D01*
X943845Y618715D01*
X943845Y625513D01*
X943831Y625603D01*
X943823Y625694D01*
X943811Y625724D01*
X943806Y625756D01*
X943763Y625837D01*
X943727Y625920D01*
X943701Y625953D01*
X943690Y625973D01*
X943667Y625995D01*
X943622Y626051D01*
X867351Y702322D01*
X867278Y702375D01*
X867208Y702435D01*
X867178Y702447D01*
X867152Y702466D01*
X867065Y702493D01*
X866980Y702527D01*
X866939Y702531D01*
X866917Y702538D01*
X866884Y702537D01*
X866813Y702545D01*
X860015Y702545D01*
X854945Y707615D01*
X854945Y714785D01*
X858465Y718305D01*
X858507Y718363D01*
X858556Y718415D01*
X858578Y718462D01*
X858609Y718504D01*
X858630Y718573D01*
X858660Y718638D01*
X858666Y718690D01*
X858681Y718740D01*
X858679Y718811D01*
X858687Y718882D01*
X858676Y718933D01*
X858675Y718985D01*
X858650Y719053D01*
X858635Y719123D01*
X858608Y719168D01*
X858590Y719216D01*
X858545Y719272D01*
X858509Y719334D01*
X858469Y719368D01*
X858436Y719408D01*
X858376Y719447D01*
X858322Y719494D01*
X858273Y719513D01*
X858230Y719541D01*
X858160Y719559D01*
X858094Y719586D01*
X858022Y719594D01*
X857991Y719602D01*
X857968Y719600D01*
X857927Y719604D01*
X782959Y719604D01*
X782869Y719590D01*
X782778Y719582D01*
X782748Y719570D01*
X782716Y719565D01*
X782636Y719522D01*
X782552Y719486D01*
X782520Y719460D01*
X782499Y719449D01*
X782477Y719426D01*
X782421Y719381D01*
X778285Y715245D01*
X771115Y715245D01*
X766045Y720315D01*
X766045Y727485D01*
X771115Y732555D01*
X778285Y732555D01*
X783355Y727485D01*
X783355Y727007D01*
X783358Y726987D01*
X783356Y726968D01*
X783378Y726866D01*
X783394Y726764D01*
X783404Y726747D01*
X783408Y726727D01*
X783461Y726638D01*
X783510Y726547D01*
X783524Y726533D01*
X783534Y726516D01*
X783613Y726449D01*
X783688Y726377D01*
X783706Y726369D01*
X783721Y726356D01*
X783817Y726317D01*
X783911Y726274D01*
X783931Y726272D01*
X783949Y726264D01*
X784116Y726246D01*
X867738Y726246D01*
X869906Y724078D01*
X878990Y714994D01*
X879064Y714941D01*
X879133Y714881D01*
X879164Y714869D01*
X879190Y714850D01*
X879277Y714823D01*
X879362Y714789D01*
X879403Y714785D01*
X879425Y714778D01*
X879457Y714779D01*
X879528Y714771D01*
X880016Y714771D01*
X880106Y714785D01*
X880197Y714793D01*
X880227Y714805D01*
X880259Y714810D01*
X880339Y714853D01*
X880423Y714889D01*
X880455Y714915D01*
X880476Y714926D01*
X880481Y714931D01*
X880499Y714950D01*
X880554Y714994D01*
X885415Y719855D01*
X892585Y719855D01*
X897655Y714785D01*
X897655Y707615D01*
X892585Y702545D01*
X885415Y702545D01*
X880261Y707699D01*
X880239Y707737D01*
X880190Y707828D01*
X880176Y707842D01*
X880166Y707859D01*
X880087Y707926D01*
X880012Y707998D01*
X879994Y708006D01*
X879979Y708019D01*
X879883Y708058D01*
X879789Y708101D01*
X879769Y708103D01*
X879751Y708111D01*
X879584Y708129D01*
X876462Y708129D01*
X874294Y710297D01*
X873554Y711037D01*
X873496Y711079D01*
X873444Y711128D01*
X873397Y711150D01*
X873355Y711181D01*
X873286Y711202D01*
X873221Y711232D01*
X873169Y711238D01*
X873119Y711253D01*
X873048Y711251D01*
X872977Y711259D01*
X872926Y711248D01*
X872874Y711247D01*
X872806Y711222D01*
X872736Y711207D01*
X872692Y711180D01*
X872643Y711162D01*
X872587Y711117D01*
X872525Y711081D01*
X872491Y711041D01*
X872451Y711008D01*
X872412Y710948D01*
X872365Y710894D01*
X872346Y710845D01*
X872318Y710801D01*
X872300Y710732D01*
X872273Y710665D01*
X872265Y710594D01*
X872257Y710563D01*
X872259Y710540D01*
X872255Y710499D01*
X872255Y707562D01*
X872248Y707552D01*
X872242Y707533D01*
X872231Y707516D01*
X872206Y707416D01*
X872175Y707317D01*
X872176Y707297D01*
X872171Y707278D01*
X872179Y707175D01*
X872182Y707071D01*
X872189Y707052D01*
X872190Y707032D01*
X872230Y706938D01*
X872266Y706840D01*
X872279Y706824D01*
X872286Y706806D01*
X872391Y706675D01*
X947975Y631091D01*
X947991Y631080D01*
X948004Y631064D01*
X948091Y631008D01*
X948175Y630948D01*
X948194Y630942D01*
X948211Y630931D01*
X948311Y630906D01*
X948410Y630875D01*
X948430Y630876D01*
X948449Y630871D01*
X948552Y630879D01*
X948656Y630882D01*
X948675Y630889D01*
X948694Y630890D01*
X948789Y630930D01*
X948856Y630955D01*
X956085Y630955D01*
X961155Y625885D01*
X961155Y618715D01*
X956085Y613645D01*
X948915Y613645D01*
G37*
%LPD*%
G36*
X356419Y589708D02*
X356419Y589708D01*
X356510Y589715D01*
X356540Y589728D01*
X356572Y589733D01*
X356653Y589776D01*
X356736Y589811D01*
X356769Y589837D01*
X356789Y589848D01*
X356811Y589871D01*
X356867Y589916D01*
X384822Y617871D01*
X384875Y617945D01*
X384935Y618014D01*
X384947Y618045D01*
X384966Y618071D01*
X384993Y618158D01*
X385027Y618243D01*
X385031Y618284D01*
X385038Y618306D01*
X385037Y618338D01*
X385045Y618409D01*
X385045Y625885D01*
X386813Y627652D01*
X386854Y627710D01*
X386904Y627762D01*
X386926Y627810D01*
X386956Y627852D01*
X386977Y627920D01*
X387007Y627986D01*
X387013Y628037D01*
X387029Y628087D01*
X387027Y628159D01*
X387035Y628230D01*
X387023Y628281D01*
X387022Y628333D01*
X386998Y628400D01*
X386982Y628470D01*
X386956Y628515D01*
X386938Y628564D01*
X386893Y628620D01*
X386856Y628681D01*
X386817Y628715D01*
X386784Y628756D01*
X386724Y628795D01*
X386669Y628841D01*
X386621Y628861D01*
X386577Y628889D01*
X386508Y628906D01*
X386441Y628933D01*
X386370Y628941D01*
X386339Y628949D01*
X386315Y628947D01*
X386274Y628952D01*
X340203Y628952D01*
X340113Y628937D01*
X340022Y628930D01*
X339993Y628917D01*
X339961Y628912D01*
X339880Y628869D01*
X339796Y628834D01*
X339764Y628808D01*
X339743Y628797D01*
X339721Y628774D01*
X339665Y628729D01*
X317790Y606854D01*
X317749Y606796D01*
X317699Y606744D01*
X317677Y606697D01*
X317647Y606655D01*
X317626Y606586D01*
X317596Y606521D01*
X317590Y606469D01*
X317575Y606419D01*
X317576Y606348D01*
X317569Y606277D01*
X317580Y606226D01*
X317581Y606174D01*
X317606Y606106D01*
X317621Y606036D01*
X317647Y605992D01*
X317665Y605943D01*
X317710Y605887D01*
X317747Y605825D01*
X317787Y605791D01*
X317819Y605751D01*
X317879Y605712D01*
X317934Y605665D01*
X317982Y605646D01*
X318026Y605618D01*
X318095Y605600D01*
X318162Y605573D01*
X318233Y605565D01*
X318265Y605557D01*
X318288Y605559D01*
X318329Y605555D01*
X319222Y605555D01*
X322403Y604237D01*
X324837Y601803D01*
X326155Y598622D01*
X326155Y595178D01*
X324837Y591997D01*
X323832Y590993D01*
X323791Y590935D01*
X323741Y590883D01*
X323719Y590835D01*
X323689Y590793D01*
X323668Y590725D01*
X323638Y590659D01*
X323632Y590608D01*
X323616Y590558D01*
X323618Y590486D01*
X323610Y590415D01*
X323622Y590364D01*
X323623Y590312D01*
X323647Y590245D01*
X323663Y590175D01*
X323689Y590130D01*
X323707Y590081D01*
X323752Y590025D01*
X323789Y589964D01*
X323828Y589930D01*
X323861Y589889D01*
X323921Y589850D01*
X323976Y589804D01*
X324024Y589784D01*
X324068Y589756D01*
X324137Y589739D01*
X324204Y589712D01*
X324275Y589704D01*
X324306Y589696D01*
X324330Y589698D01*
X324371Y589693D01*
X356329Y589693D01*
X356419Y589708D01*
G37*
G36*
X502001Y610360D02*
X502001Y610360D01*
X502073Y610362D01*
X502122Y610380D01*
X502173Y610388D01*
X502236Y610422D01*
X502304Y610446D01*
X502344Y610479D01*
X502390Y610503D01*
X502440Y610555D01*
X502496Y610600D01*
X502524Y610644D01*
X502560Y610681D01*
X502590Y610746D01*
X502629Y610807D01*
X502641Y610857D01*
X502663Y610904D01*
X502671Y610976D01*
X502689Y611045D01*
X502685Y611097D01*
X502690Y611149D01*
X502675Y611219D01*
X502670Y611290D01*
X502649Y611338D01*
X502638Y611389D01*
X502601Y611451D01*
X502573Y611517D01*
X502529Y611573D01*
X502512Y611600D01*
X502494Y611616D01*
X502469Y611648D01*
X485387Y628729D01*
X485314Y628782D01*
X485244Y628841D01*
X485214Y628854D01*
X485188Y628872D01*
X485101Y628899D01*
X485016Y628933D01*
X484975Y628938D01*
X484953Y628945D01*
X484920Y628944D01*
X484849Y628952D01*
X401126Y628952D01*
X401055Y628940D01*
X400983Y628938D01*
X400934Y628920D01*
X400883Y628912D01*
X400820Y628878D01*
X400752Y628854D01*
X400712Y628821D01*
X400666Y628797D01*
X400616Y628745D01*
X400560Y628700D01*
X400532Y628656D01*
X400496Y628619D01*
X400466Y628554D01*
X400427Y628493D01*
X400414Y628443D01*
X400393Y628396D01*
X400385Y628324D01*
X400367Y628255D01*
X400371Y628203D01*
X400365Y628151D01*
X400381Y628081D01*
X400386Y628010D01*
X400407Y627962D01*
X400418Y627911D01*
X400455Y627849D01*
X400483Y627783D01*
X400527Y627727D01*
X400544Y627700D01*
X400562Y627684D01*
X400587Y627652D01*
X402355Y625885D01*
X402355Y619342D01*
X402369Y619252D01*
X402377Y619161D01*
X402389Y619131D01*
X402394Y619099D01*
X402437Y619018D01*
X402473Y618934D01*
X402499Y618902D01*
X402510Y618882D01*
X402533Y618859D01*
X402578Y618804D01*
X410810Y610571D01*
X410884Y610518D01*
X410953Y610459D01*
X410984Y610446D01*
X411010Y610428D01*
X411097Y610401D01*
X411182Y610367D01*
X411223Y610362D01*
X411245Y610355D01*
X411277Y610356D01*
X411348Y610348D01*
X501930Y610348D01*
X502001Y610360D01*
G37*
G36*
X448228Y727408D02*
X448228Y727408D01*
X448319Y727415D01*
X448349Y727428D01*
X448381Y727433D01*
X448462Y727476D01*
X448546Y727511D01*
X448578Y727537D01*
X448598Y727548D01*
X448621Y727571D01*
X448677Y727616D01*
X453615Y732555D01*
X456606Y732555D01*
X456677Y732566D01*
X456749Y732568D01*
X456798Y732586D01*
X456849Y732594D01*
X456912Y732628D01*
X456980Y732653D01*
X457020Y732685D01*
X457066Y732710D01*
X457116Y732762D01*
X457172Y732806D01*
X457200Y732850D01*
X457236Y732888D01*
X457266Y732953D01*
X457305Y733013D01*
X457317Y733064D01*
X457339Y733111D01*
X457347Y733182D01*
X457365Y733252D01*
X457361Y733304D01*
X457366Y733355D01*
X457351Y733426D01*
X457346Y733497D01*
X457325Y733545D01*
X457314Y733596D01*
X457277Y733657D01*
X457249Y733723D01*
X457205Y733779D01*
X457188Y733807D01*
X457170Y733822D01*
X457145Y733854D01*
X446372Y744626D01*
X446299Y744679D01*
X446229Y744739D01*
X446199Y744751D01*
X446173Y744770D01*
X446086Y744797D01*
X446001Y744831D01*
X445960Y744835D01*
X445938Y744842D01*
X445905Y744841D01*
X445834Y744849D01*
X327852Y744849D01*
X327832Y744846D01*
X327813Y744848D01*
X327711Y744826D01*
X327609Y744810D01*
X327592Y744800D01*
X327572Y744796D01*
X327483Y744743D01*
X327392Y744694D01*
X327378Y744680D01*
X327361Y744670D01*
X327294Y744591D01*
X327222Y744516D01*
X327214Y744498D01*
X327201Y744483D01*
X327162Y744387D01*
X327119Y744293D01*
X327117Y744273D01*
X327109Y744255D01*
X327091Y744088D01*
X327091Y739838D01*
X327089Y739834D01*
X327081Y739757D01*
X327063Y739682D01*
X327067Y739636D01*
X327062Y739590D01*
X327079Y739514D01*
X327086Y739437D01*
X327105Y739395D01*
X327114Y739350D01*
X327154Y739283D01*
X327186Y739212D01*
X327217Y739178D01*
X327241Y739139D01*
X327300Y739088D01*
X327352Y739031D01*
X327393Y739009D01*
X327428Y738979D01*
X327500Y738950D01*
X327568Y738912D01*
X327613Y738904D01*
X327656Y738887D01*
X327791Y738872D01*
X327810Y738868D01*
X327815Y738869D01*
X327822Y738868D01*
X411033Y738868D01*
X422285Y727616D01*
X422359Y727563D01*
X422428Y727504D01*
X422459Y727491D01*
X422485Y727473D01*
X422572Y727446D01*
X422657Y727412D01*
X422698Y727407D01*
X422720Y727400D01*
X422752Y727401D01*
X422823Y727393D01*
X448138Y727393D01*
X448228Y727408D01*
G37*
G36*
X571983Y635596D02*
X571983Y635596D01*
X572002Y635594D01*
X572104Y635616D01*
X572206Y635633D01*
X572223Y635642D01*
X572243Y635647D01*
X572332Y635700D01*
X572423Y635748D01*
X572437Y635762D01*
X572454Y635773D01*
X572521Y635851D01*
X572593Y635926D01*
X572601Y635944D01*
X572614Y635960D01*
X572653Y636056D01*
X572696Y636149D01*
X572698Y636169D01*
X572706Y636188D01*
X572724Y636354D01*
X572724Y700469D01*
X572710Y700559D01*
X572702Y700650D01*
X572690Y700680D01*
X572685Y700712D01*
X572642Y700793D01*
X572606Y700876D01*
X572580Y700909D01*
X572569Y700929D01*
X572546Y700951D01*
X572501Y701007D01*
X571100Y702408D01*
X570367Y704178D01*
X570343Y704217D01*
X570327Y704260D01*
X570279Y704321D01*
X570238Y704387D01*
X570202Y704416D01*
X570174Y704452D01*
X570108Y704494D01*
X570048Y704544D01*
X570006Y704560D01*
X569967Y704585D01*
X569891Y704604D01*
X569819Y704632D01*
X569773Y704634D01*
X569728Y704645D01*
X569651Y704639D01*
X569573Y704642D01*
X569529Y704629D01*
X569483Y704626D01*
X569412Y704595D01*
X569337Y704574D01*
X569299Y704547D01*
X569257Y704529D01*
X569150Y704444D01*
X569135Y704433D01*
X569132Y704429D01*
X569126Y704425D01*
X562376Y697675D01*
X562323Y697601D01*
X562264Y697532D01*
X562251Y697501D01*
X562233Y697475D01*
X562206Y697388D01*
X562172Y697303D01*
X562167Y697262D01*
X562160Y697240D01*
X562161Y697208D01*
X562153Y697137D01*
X562153Y695002D01*
X562168Y694912D01*
X562175Y694821D01*
X562188Y694791D01*
X562193Y694759D01*
X562236Y694678D01*
X562271Y694594D01*
X562297Y694562D01*
X562308Y694542D01*
X562331Y694519D01*
X562345Y694503D01*
X562351Y694493D01*
X562357Y694487D01*
X562376Y694463D01*
X567455Y689385D01*
X567455Y682215D01*
X562385Y677145D01*
X555215Y677145D01*
X553125Y679235D01*
X553067Y679277D01*
X553015Y679326D01*
X552968Y679348D01*
X552926Y679379D01*
X552857Y679400D01*
X552792Y679430D01*
X552740Y679436D01*
X552690Y679451D01*
X552619Y679449D01*
X552548Y679457D01*
X552497Y679446D01*
X552445Y679445D01*
X552377Y679420D01*
X552307Y679405D01*
X552262Y679378D01*
X552214Y679360D01*
X552158Y679315D01*
X552096Y679279D01*
X552062Y679239D01*
X552022Y679206D01*
X551983Y679146D01*
X551936Y679092D01*
X551917Y679043D01*
X551889Y679000D01*
X551871Y678930D01*
X551844Y678864D01*
X551836Y678792D01*
X551828Y678761D01*
X551830Y678738D01*
X551826Y678697D01*
X551826Y636354D01*
X551828Y636340D01*
X551827Y636328D01*
X551828Y636324D01*
X551827Y636315D01*
X551849Y636214D01*
X551865Y636112D01*
X551875Y636094D01*
X551879Y636075D01*
X551932Y635986D01*
X551981Y635894D01*
X551995Y635881D01*
X552005Y635864D01*
X552084Y635796D01*
X552159Y635725D01*
X552177Y635717D01*
X552192Y635704D01*
X552288Y635665D01*
X552382Y635621D01*
X552402Y635619D01*
X552420Y635612D01*
X552587Y635593D01*
X571963Y635593D01*
X571983Y635596D01*
G37*
%LPC*%
G36*
X66165Y177959D02*
X66165Y177959D01*
X61556Y179868D01*
X58028Y183396D01*
X56119Y188005D01*
X56119Y192995D01*
X58028Y197604D01*
X61556Y201132D01*
X66165Y203041D01*
X86235Y203041D01*
X90844Y201132D01*
X94372Y197604D01*
X96281Y192995D01*
X96281Y188005D01*
X94372Y183396D01*
X90844Y179868D01*
X86235Y177959D01*
X66165Y177959D01*
G37*
%LPD*%
%LPC*%
G36*
X962184Y505539D02*
X962184Y505539D01*
X956612Y507847D01*
X952347Y512112D01*
X950039Y517684D01*
X950039Y523716D01*
X952347Y529288D01*
X956612Y533553D01*
X962184Y535861D01*
X968216Y535861D01*
X973788Y533553D01*
X978053Y529288D01*
X980361Y523716D01*
X980361Y517684D01*
X978053Y512112D01*
X973788Y507847D01*
X968216Y505539D01*
X962184Y505539D01*
G37*
%LPD*%
G36*
X552697Y692158D02*
X552697Y692158D01*
X552768Y692164D01*
X552816Y692184D01*
X552867Y692195D01*
X552928Y692232D01*
X552994Y692260D01*
X553050Y692305D01*
X553078Y692321D01*
X553093Y692339D01*
X553125Y692365D01*
X555289Y694528D01*
X555342Y694602D01*
X555401Y694672D01*
X555414Y694702D01*
X555432Y694728D01*
X555459Y694815D01*
X555493Y694900D01*
X555498Y694941D01*
X555505Y694963D01*
X555504Y694995D01*
X555512Y695067D01*
X555512Y700203D01*
X601768Y746459D01*
X601825Y746538D01*
X601887Y746614D01*
X601897Y746638D01*
X601912Y746659D01*
X601940Y746752D01*
X601975Y746843D01*
X601976Y746869D01*
X601984Y746894D01*
X601982Y746992D01*
X601986Y747089D01*
X601978Y747114D01*
X601978Y747140D01*
X601944Y747232D01*
X601917Y747325D01*
X601902Y747347D01*
X601893Y747371D01*
X601832Y747447D01*
X601777Y747527D01*
X601756Y747543D01*
X601740Y747563D01*
X601658Y747616D01*
X601580Y747674D01*
X601555Y747682D01*
X601533Y747696D01*
X601438Y747720D01*
X601346Y747750D01*
X601320Y747750D01*
X601294Y747756D01*
X601197Y747749D01*
X601100Y747748D01*
X601068Y747739D01*
X601049Y747737D01*
X601019Y747724D01*
X600939Y747701D01*
X598622Y746741D01*
X595178Y746741D01*
X591997Y748059D01*
X590295Y749762D01*
X590278Y749773D01*
X590266Y749789D01*
X590179Y749845D01*
X590095Y749905D01*
X590076Y749911D01*
X590059Y749922D01*
X589959Y749947D01*
X589860Y749978D01*
X589840Y749977D01*
X589821Y749982D01*
X589718Y749974D01*
X589614Y749971D01*
X589595Y749964D01*
X589575Y749963D01*
X589480Y749923D01*
X589383Y749887D01*
X589367Y749874D01*
X589349Y749867D01*
X589218Y749762D01*
X552049Y712592D01*
X551996Y712519D01*
X551936Y712449D01*
X551924Y712419D01*
X551905Y712393D01*
X551878Y712306D01*
X551844Y712221D01*
X551840Y712180D01*
X551833Y712158D01*
X551834Y712125D01*
X551826Y712054D01*
X551826Y692903D01*
X551837Y692832D01*
X551839Y692761D01*
X551857Y692712D01*
X551865Y692660D01*
X551899Y692597D01*
X551924Y692530D01*
X551956Y692489D01*
X551981Y692443D01*
X552032Y692394D01*
X552077Y692338D01*
X552121Y692310D01*
X552159Y692274D01*
X552224Y692243D01*
X552284Y692205D01*
X552335Y692192D01*
X552382Y692170D01*
X552453Y692162D01*
X552523Y692145D01*
X552575Y692149D01*
X552626Y692143D01*
X552697Y692158D01*
G37*
%LPC*%
G36*
X669506Y506649D02*
X669506Y506649D01*
X664158Y508864D01*
X660064Y512958D01*
X657849Y518306D01*
X657849Y524094D01*
X660064Y529442D01*
X664158Y533536D01*
X669506Y535751D01*
X675294Y535751D01*
X680642Y533536D01*
X684736Y529442D01*
X686951Y524094D01*
X686951Y518306D01*
X684736Y512958D01*
X680642Y508864D01*
X675294Y506649D01*
X669506Y506649D01*
G37*
%LPD*%
%LPC*%
G36*
X889506Y266649D02*
X889506Y266649D01*
X884158Y268864D01*
X880064Y272958D01*
X877849Y278306D01*
X877849Y284094D01*
X880064Y289442D01*
X884158Y293536D01*
X889506Y295751D01*
X895294Y295751D01*
X900642Y293536D01*
X904736Y289442D01*
X906951Y284094D01*
X906951Y278306D01*
X904736Y272958D01*
X900642Y268864D01*
X895294Y266649D01*
X889506Y266649D01*
G37*
%LPD*%
%LPC*%
G36*
X66752Y155509D02*
X66752Y155509D01*
X63227Y156969D01*
X60529Y159667D01*
X59069Y163192D01*
X59069Y167008D01*
X60529Y170533D01*
X63227Y173231D01*
X66752Y174691D01*
X85648Y174691D01*
X89173Y173231D01*
X91871Y170533D01*
X93331Y167008D01*
X93331Y163192D01*
X91871Y159667D01*
X89173Y156969D01*
X85648Y155509D01*
X66752Y155509D01*
G37*
%LPD*%
%LPC*%
G36*
X604372Y163909D02*
X604372Y163909D01*
X596979Y171302D01*
X596979Y181758D01*
X604372Y189151D01*
X614828Y189151D01*
X622221Y181758D01*
X622221Y171302D01*
X614828Y163909D01*
X604372Y163909D01*
G37*
%LPD*%
%LPC*%
G36*
X544378Y746741D02*
X544378Y746741D01*
X541197Y748059D01*
X538763Y750493D01*
X537445Y753674D01*
X537445Y770326D01*
X538763Y773507D01*
X541197Y775941D01*
X544378Y777259D01*
X547822Y777259D01*
X551003Y775941D01*
X553437Y773507D01*
X554755Y770326D01*
X554755Y753674D01*
X553437Y750493D01*
X551003Y748059D01*
X547822Y746741D01*
X544378Y746741D01*
G37*
%LPD*%
%LPC*%
G36*
X606015Y677145D02*
X606015Y677145D01*
X600945Y682215D01*
X600945Y689385D01*
X606015Y694455D01*
X613185Y694455D01*
X618255Y689385D01*
X618255Y682215D01*
X613185Y677145D01*
X606015Y677145D01*
G37*
%LPD*%
G36*
X310799Y733142D02*
X310799Y733142D01*
X310871Y733144D01*
X310920Y733162D01*
X310971Y733170D01*
X311034Y733204D01*
X311102Y733229D01*
X311142Y733261D01*
X311188Y733286D01*
X311238Y733338D01*
X311294Y733382D01*
X311322Y733426D01*
X311358Y733464D01*
X311388Y733529D01*
X311427Y733589D01*
X311439Y733640D01*
X311461Y733687D01*
X311469Y733758D01*
X311487Y733828D01*
X311483Y733880D01*
X311488Y733931D01*
X311473Y734002D01*
X311468Y734073D01*
X311447Y734121D01*
X311436Y734172D01*
X311399Y734233D01*
X311371Y734299D01*
X311326Y734355D01*
X311310Y734383D01*
X311292Y734398D01*
X311266Y734430D01*
X309369Y736327D01*
X307909Y739852D01*
X307909Y758080D01*
X307898Y758151D01*
X307896Y758223D01*
X307878Y758272D01*
X307870Y758323D01*
X307836Y758386D01*
X307811Y758454D01*
X307779Y758494D01*
X307754Y758540D01*
X307702Y758590D01*
X307658Y758646D01*
X307614Y758674D01*
X307576Y758710D01*
X307511Y758740D01*
X307451Y758779D01*
X307400Y758791D01*
X307353Y758813D01*
X307282Y758821D01*
X307212Y758839D01*
X307160Y758835D01*
X307109Y758840D01*
X307038Y758825D01*
X306967Y758820D01*
X306919Y758799D01*
X306868Y758788D01*
X306807Y758751D01*
X306741Y758723D01*
X306685Y758679D01*
X306657Y758662D01*
X306642Y758644D01*
X306610Y758619D01*
X301914Y753922D01*
X301861Y753848D01*
X301801Y753779D01*
X301789Y753749D01*
X301770Y753723D01*
X301743Y753636D01*
X301709Y753551D01*
X301705Y753510D01*
X301698Y753488D01*
X301699Y753455D01*
X301691Y753384D01*
X301691Y739852D01*
X300231Y736327D01*
X298334Y734430D01*
X298292Y734372D01*
X298242Y734320D01*
X298220Y734273D01*
X298190Y734231D01*
X298169Y734162D01*
X298139Y734097D01*
X298133Y734045D01*
X298118Y733995D01*
X298120Y733924D01*
X298112Y733853D01*
X298123Y733802D01*
X298124Y733750D01*
X298149Y733682D01*
X298164Y733612D01*
X298191Y733567D01*
X298208Y733519D01*
X298253Y733463D01*
X298290Y733401D01*
X298330Y733367D01*
X298362Y733327D01*
X298422Y733288D01*
X298477Y733241D01*
X298525Y733222D01*
X298569Y733194D01*
X298639Y733176D01*
X298705Y733149D01*
X298776Y733141D01*
X298808Y733133D01*
X298831Y733135D01*
X298872Y733131D01*
X310728Y733131D01*
X310799Y733142D01*
G37*
G36*
X605382Y750319D02*
X605382Y750319D01*
X605479Y750327D01*
X605503Y750337D01*
X605529Y750341D01*
X605616Y750385D01*
X605706Y750423D01*
X605731Y750443D01*
X605748Y750452D01*
X605772Y750476D01*
X605837Y750528D01*
X613422Y758114D01*
X613475Y758187D01*
X613535Y758257D01*
X613547Y758287D01*
X613566Y758313D01*
X613593Y758400D01*
X613627Y758485D01*
X613631Y758526D01*
X613638Y758548D01*
X613637Y758581D01*
X613645Y758652D01*
X613645Y770326D01*
X614913Y773385D01*
X614935Y773480D01*
X614964Y773573D01*
X614963Y773599D01*
X614969Y773625D01*
X614960Y773722D01*
X614957Y773819D01*
X614948Y773844D01*
X614946Y773870D01*
X614906Y773959D01*
X614873Y774050D01*
X614856Y774070D01*
X614846Y774094D01*
X614780Y774166D01*
X614719Y774242D01*
X614697Y774256D01*
X614679Y774275D01*
X614594Y774322D01*
X614512Y774375D01*
X614487Y774381D01*
X614464Y774394D01*
X614368Y774411D01*
X614274Y774435D01*
X614248Y774433D01*
X614222Y774438D01*
X614125Y774424D01*
X614028Y774416D01*
X614004Y774406D01*
X613978Y774402D01*
X613891Y774358D01*
X613802Y774320D01*
X613777Y774299D01*
X613759Y774290D01*
X613736Y774267D01*
X613671Y774215D01*
X605778Y766321D01*
X605727Y766250D01*
X605686Y766208D01*
X605681Y766197D01*
X605665Y766178D01*
X605653Y766148D01*
X605634Y766122D01*
X605610Y766044D01*
X605583Y765985D01*
X605581Y765970D01*
X605573Y765950D01*
X605569Y765909D01*
X605562Y765887D01*
X605563Y765854D01*
X605555Y765783D01*
X605555Y753674D01*
X604595Y751357D01*
X604573Y751262D01*
X604544Y751169D01*
X604545Y751143D01*
X604539Y751118D01*
X604548Y751021D01*
X604550Y750924D01*
X604559Y750899D01*
X604562Y750873D01*
X604601Y750784D01*
X604635Y750693D01*
X604651Y750672D01*
X604662Y750648D01*
X604728Y750577D01*
X604789Y750501D01*
X604811Y750486D01*
X604828Y750467D01*
X604914Y750420D01*
X604995Y750368D01*
X605021Y750361D01*
X605044Y750349D01*
X605140Y750331D01*
X605234Y750307D01*
X605260Y750310D01*
X605286Y750305D01*
X605382Y750319D01*
G37*
G36*
X310700Y589705D02*
X310700Y589705D01*
X310772Y589707D01*
X310821Y589725D01*
X310872Y589733D01*
X310935Y589767D01*
X311003Y589791D01*
X311043Y589824D01*
X311089Y589848D01*
X311139Y589900D01*
X311195Y589945D01*
X311223Y589989D01*
X311259Y590026D01*
X311289Y590091D01*
X311328Y590152D01*
X311341Y590202D01*
X311362Y590249D01*
X311370Y590321D01*
X311388Y590390D01*
X311384Y590442D01*
X311390Y590494D01*
X311374Y590564D01*
X311369Y590635D01*
X311348Y590683D01*
X311337Y590734D01*
X311300Y590796D01*
X311272Y590862D01*
X311228Y590918D01*
X311211Y590945D01*
X311193Y590961D01*
X311168Y590993D01*
X310163Y591997D01*
X308845Y595178D01*
X308845Y596071D01*
X308834Y596142D01*
X308832Y596214D01*
X308814Y596263D01*
X308806Y596314D01*
X308772Y596377D01*
X308747Y596445D01*
X308715Y596485D01*
X308690Y596531D01*
X308638Y596581D01*
X308594Y596637D01*
X308550Y596665D01*
X308512Y596701D01*
X308447Y596731D01*
X308387Y596770D01*
X308336Y596782D01*
X308289Y596804D01*
X308218Y596812D01*
X308148Y596830D01*
X308096Y596826D01*
X308045Y596831D01*
X307974Y596816D01*
X307903Y596811D01*
X307855Y596790D01*
X307804Y596779D01*
X307743Y596742D01*
X307677Y596714D01*
X307621Y596670D01*
X307593Y596653D01*
X307578Y596635D01*
X307546Y596610D01*
X305463Y594527D01*
X300993Y594527D01*
X300879Y594508D01*
X300762Y594491D01*
X300757Y594488D01*
X300751Y594487D01*
X300648Y594433D01*
X300543Y594379D01*
X300539Y594375D01*
X300533Y594372D01*
X300453Y594288D01*
X300371Y594204D01*
X300367Y594197D01*
X300364Y594194D01*
X300356Y594177D01*
X300290Y594057D01*
X299437Y591997D01*
X298432Y590993D01*
X298391Y590935D01*
X298341Y590883D01*
X298319Y590835D01*
X298289Y590793D01*
X298268Y590725D01*
X298238Y590659D01*
X298232Y590608D01*
X298216Y590558D01*
X298218Y590486D01*
X298210Y590415D01*
X298222Y590364D01*
X298223Y590312D01*
X298247Y590245D01*
X298263Y590175D01*
X298289Y590130D01*
X298307Y590081D01*
X298352Y590025D01*
X298389Y589964D01*
X298428Y589930D01*
X298461Y589889D01*
X298521Y589850D01*
X298576Y589804D01*
X298624Y589784D01*
X298668Y589756D01*
X298737Y589739D01*
X298804Y589712D01*
X298875Y589704D01*
X298906Y589696D01*
X298930Y589698D01*
X298971Y589693D01*
X310629Y589693D01*
X310700Y589705D01*
G37*
G36*
X10936Y780596D02*
X10936Y780596D01*
X10961Y780593D01*
X11057Y780613D01*
X11153Y780628D01*
X11176Y780640D01*
X11202Y780645D01*
X11285Y780695D01*
X11372Y780739D01*
X11391Y780758D01*
X11413Y780771D01*
X11476Y780845D01*
X11544Y780915D01*
X11560Y780943D01*
X11573Y780958D01*
X11585Y780989D01*
X11625Y781062D01*
X12547Y783288D01*
X16812Y787553D01*
X18797Y788375D01*
X18880Y788426D01*
X18966Y788472D01*
X18984Y788490D01*
X19006Y788504D01*
X19068Y788580D01*
X19135Y788650D01*
X19146Y788674D01*
X19163Y788694D01*
X19198Y788785D01*
X19239Y788873D01*
X19242Y788899D01*
X19251Y788923D01*
X19255Y789021D01*
X19266Y789117D01*
X19260Y789143D01*
X19261Y789169D01*
X19234Y789263D01*
X19213Y789358D01*
X19200Y789380D01*
X19193Y789405D01*
X19137Y789485D01*
X19087Y789569D01*
X19067Y789586D01*
X19053Y789607D01*
X18974Y789666D01*
X18900Y789729D01*
X18876Y789739D01*
X18855Y789754D01*
X18763Y789784D01*
X18672Y789821D01*
X18640Y789824D01*
X18621Y789830D01*
X18588Y789830D01*
X18506Y789839D01*
X10922Y789839D01*
X10902Y789836D01*
X10883Y789838D01*
X10781Y789816D01*
X10679Y789800D01*
X10662Y789790D01*
X10642Y789786D01*
X10553Y789733D01*
X10462Y789684D01*
X10448Y789670D01*
X10431Y789660D01*
X10364Y789581D01*
X10292Y789506D01*
X10284Y789488D01*
X10271Y789473D01*
X10232Y789377D01*
X10189Y789283D01*
X10187Y789263D01*
X10179Y789245D01*
X10161Y789078D01*
X10161Y781353D01*
X10176Y781257D01*
X10186Y781160D01*
X10196Y781136D01*
X10200Y781110D01*
X10246Y781024D01*
X10286Y780935D01*
X10303Y780916D01*
X10316Y780893D01*
X10386Y780826D01*
X10452Y780754D01*
X10475Y780742D01*
X10494Y780724D01*
X10582Y780683D01*
X10668Y780636D01*
X10693Y780631D01*
X10717Y780620D01*
X10814Y780609D01*
X10910Y780592D01*
X10936Y780596D01*
G37*
G36*
X514055Y614950D02*
X514055Y614950D01*
X514127Y614952D01*
X514176Y614970D01*
X514227Y614978D01*
X514290Y615012D01*
X514358Y615036D01*
X514398Y615069D01*
X514444Y615093D01*
X514494Y615145D01*
X514550Y615190D01*
X514578Y615234D01*
X514614Y615271D01*
X514644Y615336D01*
X514683Y615397D01*
X514696Y615447D01*
X514717Y615494D01*
X514725Y615566D01*
X514743Y615635D01*
X514739Y615687D01*
X514745Y615739D01*
X514729Y615809D01*
X514724Y615880D01*
X514703Y615928D01*
X514692Y615979D01*
X514655Y616041D01*
X514627Y616107D01*
X514583Y616163D01*
X514566Y616190D01*
X514548Y616206D01*
X514523Y616238D01*
X512045Y618715D01*
X512045Y619011D01*
X512042Y619030D01*
X512044Y619050D01*
X512022Y619151D01*
X512006Y619253D01*
X511996Y619271D01*
X511992Y619290D01*
X511939Y619379D01*
X511890Y619471D01*
X511876Y619484D01*
X511866Y619501D01*
X511787Y619569D01*
X511712Y619640D01*
X511694Y619648D01*
X511679Y619661D01*
X511583Y619700D01*
X511489Y619744D01*
X511469Y619746D01*
X511451Y619753D01*
X511284Y619772D01*
X505575Y619772D01*
X505504Y619760D01*
X505432Y619758D01*
X505383Y619740D01*
X505332Y619732D01*
X505269Y619698D01*
X505201Y619674D01*
X505161Y619641D01*
X505115Y619617D01*
X505065Y619565D01*
X505009Y619520D01*
X504981Y619476D01*
X504945Y619439D01*
X504915Y619374D01*
X504876Y619313D01*
X504864Y619263D01*
X504842Y619216D01*
X504834Y619144D01*
X504816Y619075D01*
X504820Y619023D01*
X504815Y618971D01*
X504830Y618901D01*
X504835Y618830D01*
X504856Y618782D01*
X504867Y618731D01*
X504904Y618669D01*
X504932Y618603D01*
X504976Y618547D01*
X504993Y618520D01*
X505011Y618504D01*
X505036Y618472D01*
X508348Y615161D01*
X508422Y615108D01*
X508491Y615049D01*
X508521Y615037D01*
X508547Y615018D01*
X508634Y614991D01*
X508719Y614957D01*
X508760Y614952D01*
X508782Y614945D01*
X508815Y614946D01*
X508886Y614938D01*
X513984Y614938D01*
X514055Y614950D01*
G37*
D10*
X723900Y723900D03*
X774700Y723900D03*
X406400Y723900D03*
X457200Y723900D03*
D11*
X609600Y26670D03*
X609600Y176530D03*
D12*
X787400Y139700D03*
D13*
X787400Y63500D03*
D10*
X558800Y685800D03*
X609600Y685800D03*
D14*
X152400Y63500D03*
X304800Y63500D03*
D15*
X241300Y596900D03*
X266700Y596900D03*
X266700Y673100D03*
X241300Y673100D03*
X292100Y596900D03*
X317500Y596900D03*
X292100Y673100D03*
X317500Y673100D03*
D16*
X83740Y190500D02*
X68660Y190500D01*
X68660Y165100D02*
X83740Y165100D01*
X83740Y139700D02*
X68660Y139700D01*
D10*
X50800Y647700D03*
X177800Y647700D03*
X393700Y622300D03*
X520700Y622300D03*
X622300Y622300D03*
X749300Y622300D03*
X825500Y622300D03*
X952500Y622300D03*
D17*
X520700Y755396D02*
X520700Y768604D01*
X546100Y768604D02*
X546100Y755396D01*
X571500Y755396D02*
X571500Y768604D01*
X596900Y768604D02*
X596900Y755396D01*
X622300Y755396D02*
X622300Y768604D01*
D18*
X672400Y281200D03*
X702400Y281200D03*
X732400Y281200D03*
X762400Y281200D03*
X812400Y281200D03*
X892400Y281200D03*
X672400Y521200D03*
X742400Y521200D03*
X772400Y521200D03*
X802400Y521200D03*
D16*
X317500Y741760D02*
X317500Y756840D01*
X292100Y756840D02*
X292100Y741760D01*
X266700Y741760D02*
X266700Y756840D01*
D10*
X863600Y711200D03*
X889000Y711200D03*
X76200Y723900D03*
X101600Y723900D03*
D19*
X304800Y63500D02*
X341630Y26670D01*
X609600Y26670D01*
X622935Y13335D01*
X787400Y13335D01*
X787400Y63500D01*
X939800Y153800D02*
X812400Y281200D01*
X939800Y153800D02*
X939800Y63500D01*
X787400Y63500D01*
D20*
X356873Y673583D02*
X317858Y673583D01*
X356873Y673583D02*
X406215Y722925D01*
X317858Y673583D02*
X317500Y673100D01*
X406215Y722925D02*
X406400Y723900D01*
X304088Y597848D02*
X292613Y597848D01*
X304088Y597848D02*
X338513Y632273D01*
X486540Y632273D01*
X507195Y611618D01*
X524408Y611618D01*
X548505Y635715D01*
X548505Y713745D01*
X596700Y761940D01*
X292613Y597848D02*
X292100Y596900D01*
X596700Y761940D02*
X596900Y762000D01*
X748170Y720630D02*
X748170Y623093D01*
X748170Y720630D02*
X689648Y779153D01*
X613913Y779153D01*
X597848Y763088D01*
X748170Y623093D02*
X749300Y622300D01*
X596900Y762000D02*
X597848Y763088D01*
X312120Y768825D02*
X292613Y749318D01*
X312120Y768825D02*
X492278Y768825D01*
X547358Y713745D01*
X292613Y749318D02*
X292100Y749300D01*
X547358Y713745D02*
X548505Y713745D01*
X864068Y710303D02*
X952425Y621945D01*
X864068Y710303D02*
X863600Y711200D01*
X952500Y622300D02*
X952425Y621945D01*
D19*
X76200Y139700D02*
X76200Y63500D01*
X152400Y63500D01*
D20*
X558833Y686205D02*
X558833Y698828D01*
X621945Y761940D01*
X558833Y686205D02*
X558800Y685800D01*
X621945Y761940D02*
X622300Y762000D01*
X51638Y713745D02*
X51638Y648338D01*
X51638Y713745D02*
X72293Y734400D01*
X80325Y734400D01*
X90653Y724073D01*
X90653Y720630D01*
X137700Y673583D01*
X240975Y673583D01*
X51638Y648338D02*
X50800Y647700D01*
X325890Y727515D02*
X329333Y727515D01*
X325890Y727515D02*
X282285Y683910D01*
X252450Y683910D01*
X242123Y673583D01*
X491130Y704565D02*
X540473Y704565D01*
X491130Y704565D02*
X447525Y748170D01*
X317858Y748170D01*
X317500Y749300D01*
D21*
X329333Y727515D03*
X540473Y704565D03*
D20*
X242123Y673583D02*
X241300Y673100D01*
X240975Y673583D01*
X242123Y673583D01*
X825053Y621945D02*
X825053Y573750D01*
X773415Y522113D01*
X825053Y621945D02*
X825500Y622300D01*
X773415Y522113D02*
X772400Y521200D01*
X456705Y724073D02*
X421133Y724073D01*
X409658Y735548D01*
X327038Y735548D01*
X321300Y729810D01*
X285728Y729810D01*
X267368Y748170D01*
X456705Y724073D02*
X457200Y723900D01*
X267368Y748170D02*
X266700Y749300D01*
X242123Y597848D02*
X203108Y597848D01*
X89505Y711450D01*
X126225Y748170D02*
X266220Y748170D01*
X126225Y748170D02*
X102128Y724073D01*
X266220Y748170D02*
X266700Y749300D01*
X102128Y724073D02*
X101600Y723900D01*
D21*
X89505Y711450D03*
D20*
X241300Y596900D02*
X242123Y597848D01*
X877838Y711450D02*
X888165Y711450D01*
X877838Y711450D02*
X866363Y722925D01*
X775710Y722925D01*
X888165Y711450D02*
X889000Y711200D01*
X775710Y722925D02*
X774700Y723900D01*
X277695Y596700D02*
X267368Y596700D01*
X277695Y596700D02*
X288023Y586373D01*
X358020Y586373D01*
X393593Y621945D01*
X393700Y622300D01*
X714893Y722925D02*
X722925Y722925D01*
X714893Y722925D02*
X624240Y632273D01*
X576045Y632273D02*
X551948Y632273D01*
X576045Y632273D02*
X624240Y632273D01*
X551948Y632273D02*
X526703Y607028D01*
X409658Y607028D01*
X394740Y621945D01*
X722925Y722925D02*
X723900Y723900D01*
X394740Y621945D02*
X393700Y622300D01*
X267368Y597848D02*
X266700Y596900D01*
X267368Y596700D02*
X267368Y597848D01*
X277695Y596700D02*
X277695Y654075D01*
X576045Y632273D02*
X576045Y705713D01*
D21*
X277695Y654075D03*
X576045Y705713D03*
D20*
X242123Y648338D02*
X177863Y648338D01*
X242123Y648338D02*
X266220Y672435D01*
X266700Y673100D01*
X177863Y648338D02*
X177800Y647700D01*
X502605Y623093D02*
X519818Y623093D01*
X502605Y623093D02*
X463590Y662108D01*
X277695Y662108D01*
X267368Y672435D01*
X519818Y623093D02*
X520700Y622300D01*
X267368Y672435D02*
X266700Y673100D01*
D19*
X732400Y194700D02*
X787400Y139700D01*
X732400Y194700D02*
X732400Y281200D01*
M02*
