M48
;GenerationSoftware,Autodesk,EAGLE,8.6.2*%
;CreationDate,2018-03-24T09:11:55Z*%
FMAT,2
ICI,OFF
METRIC,TZ,000.000
T6C0.350
T5C0.813
T4C1.000
T3C1.016
T2C1.200
T1C1.422
%
G90
M71
T1
X15240Y6350
X30480Y6350
T2
X77240Y52120
X74240Y52120
X67240Y52120
X80240Y52120
X89240Y28120
X81240Y28120
X67240Y28120
X76240Y28120
X73240Y28120
X70240Y28120
T3
X60960Y17653
X78740Y6350
X60960Y2667
X78740Y13970
T4
X29210Y74930
X26670Y74930
X7620Y13970
X7620Y19050
X2540Y77470
X96520Y77470
X2540Y52070
X7620Y16510
X96520Y52070
X31750Y74930
T5
X62230Y76200
X39370Y62230
X86360Y71120
X88900Y71120
X72390Y72390
X77470Y72390
X40640Y72390
X45720Y72390
X7620Y72390
X52070Y62230
X62230Y62230
X74930Y62230
X82550Y62230
X95250Y62230
X52070Y76200
X54610Y76200
X57150Y76200
X59690Y76200
X10160Y72390
X31750Y67310
X29210Y67310
X31750Y59690
X29210Y59690
X26670Y67310
X26670Y59690
X24130Y59690
X60960Y68580
X55880Y68580
X24130Y67310
X5080Y64770
X17780Y64770
T6
X8951Y71145
X27769Y65407
X57604Y70571
X32933Y72752
X54047Y70457
M30