G04 EAGLE Gerber X2 export*
%TF.Part,Single*%
%TF.FileFunction,Profile,NP*%
%TF.FilePolarity,Positive*%
%TF.GenerationSoftware,Autodesk,EAGLE,8.6.2*%
%TF.CreationDate,2018-03-24T09:11:56Z*%
G75*
%MOMM*%
%FSLAX34Y34*%
%LPD*%
%AMOC8*
5,1,8,0,0,1.08239X$1,22.5*%
G01*
%ADD10C,0.254000*%


D10*
X0Y0D02*
X1000000Y0D01*
X1000000Y800000D01*
X0Y800000D01*
X0Y0D01*
X30400Y774419D02*
X30337Y773861D01*
X30212Y773314D01*
X30027Y772784D01*
X29783Y772278D01*
X29484Y771802D01*
X29134Y771363D01*
X28737Y770966D01*
X28298Y770616D01*
X27822Y770317D01*
X27316Y770073D01*
X26786Y769888D01*
X26239Y769763D01*
X25681Y769700D01*
X25119Y769700D01*
X24561Y769763D01*
X24014Y769888D01*
X23484Y770073D01*
X22978Y770317D01*
X22502Y770616D01*
X22063Y770966D01*
X21666Y771363D01*
X21316Y771802D01*
X21017Y772278D01*
X20773Y772784D01*
X20588Y773314D01*
X20463Y773861D01*
X20400Y774419D01*
X20400Y774981D01*
X20463Y775539D01*
X20588Y776086D01*
X20773Y776616D01*
X21017Y777122D01*
X21316Y777598D01*
X21666Y778037D01*
X22063Y778434D01*
X22502Y778784D01*
X22978Y779083D01*
X23484Y779327D01*
X24014Y779512D01*
X24561Y779637D01*
X25119Y779700D01*
X25681Y779700D01*
X26239Y779637D01*
X26786Y779512D01*
X27316Y779327D01*
X27822Y779083D01*
X28298Y778784D01*
X28737Y778434D01*
X29134Y778037D01*
X29484Y777598D01*
X29783Y777122D01*
X30027Y776616D01*
X30212Y776086D01*
X30337Y775539D01*
X30400Y774981D01*
X30400Y774419D01*
X970200Y774419D02*
X970137Y773861D01*
X970012Y773314D01*
X969827Y772784D01*
X969583Y772278D01*
X969284Y771802D01*
X968934Y771363D01*
X968537Y770966D01*
X968098Y770616D01*
X967622Y770317D01*
X967116Y770073D01*
X966586Y769888D01*
X966039Y769763D01*
X965481Y769700D01*
X964919Y769700D01*
X964361Y769763D01*
X963814Y769888D01*
X963284Y770073D01*
X962778Y770317D01*
X962302Y770616D01*
X961863Y770966D01*
X961466Y771363D01*
X961116Y771802D01*
X960817Y772278D01*
X960573Y772784D01*
X960388Y773314D01*
X960263Y773861D01*
X960200Y774419D01*
X960200Y774981D01*
X960263Y775539D01*
X960388Y776086D01*
X960573Y776616D01*
X960817Y777122D01*
X961116Y777598D01*
X961466Y778037D01*
X961863Y778434D01*
X962302Y778784D01*
X962778Y779083D01*
X963284Y779327D01*
X963814Y779512D01*
X964361Y779637D01*
X964919Y779700D01*
X965481Y779700D01*
X966039Y779637D01*
X966586Y779512D01*
X967116Y779327D01*
X967622Y779083D01*
X968098Y778784D01*
X968537Y778434D01*
X968934Y778037D01*
X969284Y777598D01*
X969583Y777122D01*
X969827Y776616D01*
X970012Y776086D01*
X970137Y775539D01*
X970200Y774981D01*
X970200Y774419D01*
X970200Y520419D02*
X970137Y519861D01*
X970012Y519314D01*
X969827Y518784D01*
X969583Y518278D01*
X969284Y517802D01*
X968934Y517363D01*
X968537Y516966D01*
X968098Y516616D01*
X967622Y516317D01*
X967116Y516073D01*
X966586Y515888D01*
X966039Y515763D01*
X965481Y515700D01*
X964919Y515700D01*
X964361Y515763D01*
X963814Y515888D01*
X963284Y516073D01*
X962778Y516317D01*
X962302Y516616D01*
X961863Y516966D01*
X961466Y517363D01*
X961116Y517802D01*
X960817Y518278D01*
X960573Y518784D01*
X960388Y519314D01*
X960263Y519861D01*
X960200Y520419D01*
X960200Y520981D01*
X960263Y521539D01*
X960388Y522086D01*
X960573Y522616D01*
X960817Y523122D01*
X961116Y523598D01*
X961466Y524037D01*
X961863Y524434D01*
X962302Y524784D01*
X962778Y525083D01*
X963284Y525327D01*
X963814Y525512D01*
X964361Y525637D01*
X964919Y525700D01*
X965481Y525700D01*
X966039Y525637D01*
X966586Y525512D01*
X967116Y525327D01*
X967622Y525083D01*
X968098Y524784D01*
X968537Y524434D01*
X968934Y524037D01*
X969284Y523598D01*
X969583Y523122D01*
X969827Y522616D01*
X970012Y522086D01*
X970137Y521539D01*
X970200Y520981D01*
X970200Y520419D01*
X30400Y520419D02*
X30337Y519861D01*
X30212Y519314D01*
X30027Y518784D01*
X29783Y518278D01*
X29484Y517802D01*
X29134Y517363D01*
X28737Y516966D01*
X28298Y516616D01*
X27822Y516317D01*
X27316Y516073D01*
X26786Y515888D01*
X26239Y515763D01*
X25681Y515700D01*
X25119Y515700D01*
X24561Y515763D01*
X24014Y515888D01*
X23484Y516073D01*
X22978Y516317D01*
X22502Y516616D01*
X22063Y516966D01*
X21666Y517363D01*
X21316Y517802D01*
X21017Y518278D01*
X20773Y518784D01*
X20588Y519314D01*
X20463Y519861D01*
X20400Y520419D01*
X20400Y520981D01*
X20463Y521539D01*
X20588Y522086D01*
X20773Y522616D01*
X21017Y523122D01*
X21316Y523598D01*
X21666Y524037D01*
X22063Y524434D01*
X22502Y524784D01*
X22978Y525083D01*
X23484Y525327D01*
X24014Y525512D01*
X24561Y525637D01*
X25119Y525700D01*
X25681Y525700D01*
X26239Y525637D01*
X26786Y525512D01*
X27316Y525327D01*
X27822Y525083D01*
X28298Y524784D01*
X28737Y524434D01*
X29134Y524037D01*
X29484Y523598D01*
X29783Y523122D01*
X30027Y522616D01*
X30212Y522086D01*
X30337Y521539D01*
X30400Y520981D01*
X30400Y520419D01*
X30400Y774419D02*
X30337Y773861D01*
X30212Y773314D01*
X30027Y772784D01*
X29783Y772278D01*
X29484Y771802D01*
X29134Y771363D01*
X28737Y770966D01*
X28298Y770616D01*
X27822Y770317D01*
X27316Y770073D01*
X26786Y769888D01*
X26239Y769763D01*
X25681Y769700D01*
X25119Y769700D01*
X24561Y769763D01*
X24014Y769888D01*
X23484Y770073D01*
X22978Y770317D01*
X22502Y770616D01*
X22063Y770966D01*
X21666Y771363D01*
X21316Y771802D01*
X21017Y772278D01*
X20773Y772784D01*
X20588Y773314D01*
X20463Y773861D01*
X20400Y774419D01*
X20400Y774981D01*
X20463Y775539D01*
X20588Y776086D01*
X20773Y776616D01*
X21017Y777122D01*
X21316Y777598D01*
X21666Y778037D01*
X22063Y778434D01*
X22502Y778784D01*
X22978Y779083D01*
X23484Y779327D01*
X24014Y779512D01*
X24561Y779637D01*
X25119Y779700D01*
X25681Y779700D01*
X26239Y779637D01*
X26786Y779512D01*
X27316Y779327D01*
X27822Y779083D01*
X28298Y778784D01*
X28737Y778434D01*
X29134Y778037D01*
X29484Y777598D01*
X29783Y777122D01*
X30027Y776616D01*
X30212Y776086D01*
X30337Y775539D01*
X30400Y774981D01*
X30400Y774419D01*
X970200Y774419D02*
X970137Y773861D01*
X970012Y773314D01*
X969827Y772784D01*
X969583Y772278D01*
X969284Y771802D01*
X968934Y771363D01*
X968537Y770966D01*
X968098Y770616D01*
X967622Y770317D01*
X967116Y770073D01*
X966586Y769888D01*
X966039Y769763D01*
X965481Y769700D01*
X964919Y769700D01*
X964361Y769763D01*
X963814Y769888D01*
X963284Y770073D01*
X962778Y770317D01*
X962302Y770616D01*
X961863Y770966D01*
X961466Y771363D01*
X961116Y771802D01*
X960817Y772278D01*
X960573Y772784D01*
X960388Y773314D01*
X960263Y773861D01*
X960200Y774419D01*
X960200Y774981D01*
X960263Y775539D01*
X960388Y776086D01*
X960573Y776616D01*
X960817Y777122D01*
X961116Y777598D01*
X961466Y778037D01*
X961863Y778434D01*
X962302Y778784D01*
X962778Y779083D01*
X963284Y779327D01*
X963814Y779512D01*
X964361Y779637D01*
X964919Y779700D01*
X965481Y779700D01*
X966039Y779637D01*
X966586Y779512D01*
X967116Y779327D01*
X967622Y779083D01*
X968098Y778784D01*
X968537Y778434D01*
X968934Y778037D01*
X969284Y777598D01*
X969583Y777122D01*
X969827Y776616D01*
X970012Y776086D01*
X970137Y775539D01*
X970200Y774981D01*
X970200Y774419D01*
X970200Y520419D02*
X970137Y519861D01*
X970012Y519314D01*
X969827Y518784D01*
X969583Y518278D01*
X969284Y517802D01*
X968934Y517363D01*
X968537Y516966D01*
X968098Y516616D01*
X967622Y516317D01*
X967116Y516073D01*
X966586Y515888D01*
X966039Y515763D01*
X965481Y515700D01*
X964919Y515700D01*
X964361Y515763D01*
X963814Y515888D01*
X963284Y516073D01*
X962778Y516317D01*
X962302Y516616D01*
X961863Y516966D01*
X961466Y517363D01*
X961116Y517802D01*
X960817Y518278D01*
X960573Y518784D01*
X960388Y519314D01*
X960263Y519861D01*
X960200Y520419D01*
X960200Y520981D01*
X960263Y521539D01*
X960388Y522086D01*
X960573Y522616D01*
X960817Y523122D01*
X961116Y523598D01*
X961466Y524037D01*
X961863Y524434D01*
X962302Y524784D01*
X962778Y525083D01*
X963284Y525327D01*
X963814Y525512D01*
X964361Y525637D01*
X964919Y525700D01*
X965481Y525700D01*
X966039Y525637D01*
X966586Y525512D01*
X967116Y525327D01*
X967622Y525083D01*
X968098Y524784D01*
X968537Y524434D01*
X968934Y524037D01*
X969284Y523598D01*
X969583Y523122D01*
X969827Y522616D01*
X970012Y522086D01*
X970137Y521539D01*
X970200Y520981D01*
X970200Y520419D01*
X30400Y520419D02*
X30337Y519861D01*
X30212Y519314D01*
X30027Y518784D01*
X29783Y518278D01*
X29484Y517802D01*
X29134Y517363D01*
X28737Y516966D01*
X28298Y516616D01*
X27822Y516317D01*
X27316Y516073D01*
X26786Y515888D01*
X26239Y515763D01*
X25681Y515700D01*
X25119Y515700D01*
X24561Y515763D01*
X24014Y515888D01*
X23484Y516073D01*
X22978Y516317D01*
X22502Y516616D01*
X22063Y516966D01*
X21666Y517363D01*
X21316Y517802D01*
X21017Y518278D01*
X20773Y518784D01*
X20588Y519314D01*
X20463Y519861D01*
X20400Y520419D01*
X20400Y520981D01*
X20463Y521539D01*
X20588Y522086D01*
X20773Y522616D01*
X21017Y523122D01*
X21316Y523598D01*
X21666Y524037D01*
X22063Y524434D01*
X22502Y524784D01*
X22978Y525083D01*
X23484Y525327D01*
X24014Y525512D01*
X24561Y525637D01*
X25119Y525700D01*
X25681Y525700D01*
X26239Y525637D01*
X26786Y525512D01*
X27316Y525327D01*
X27822Y525083D01*
X28298Y524784D01*
X28737Y524434D01*
X29134Y524037D01*
X29484Y523598D01*
X29783Y523122D01*
X30027Y522616D01*
X30212Y522086D01*
X30337Y521539D01*
X30400Y520981D01*
X30400Y520419D01*
M02*
