G75*
%MOIN*%
%OFA0B0*%
%FSLAX25Y25*%
%IPPOS*%
%LPD*%
%AMOC8*
5,1,8,0,0,1.08239X$1,22.5*
%
%ADD10C,0.00000*%
D10*
X0048342Y0016300D02*
X0048342Y0331261D01*
X0442043Y0331261D01*
X0442043Y0016300D01*
X0048342Y0016300D01*
X0056373Y0221300D02*
X0056375Y0221388D01*
X0056381Y0221476D01*
X0056391Y0221564D01*
X0056405Y0221652D01*
X0056422Y0221738D01*
X0056444Y0221824D01*
X0056469Y0221908D01*
X0056499Y0221992D01*
X0056531Y0222074D01*
X0056568Y0222154D01*
X0056608Y0222233D01*
X0056652Y0222310D01*
X0056699Y0222385D01*
X0056749Y0222457D01*
X0056803Y0222528D01*
X0056859Y0222595D01*
X0056919Y0222661D01*
X0056981Y0222723D01*
X0057047Y0222783D01*
X0057114Y0222839D01*
X0057185Y0222893D01*
X0057257Y0222943D01*
X0057332Y0222990D01*
X0057409Y0223034D01*
X0057488Y0223074D01*
X0057568Y0223111D01*
X0057650Y0223143D01*
X0057734Y0223173D01*
X0057818Y0223198D01*
X0057904Y0223220D01*
X0057990Y0223237D01*
X0058078Y0223251D01*
X0058166Y0223261D01*
X0058254Y0223267D01*
X0058342Y0223269D01*
X0058430Y0223267D01*
X0058518Y0223261D01*
X0058606Y0223251D01*
X0058694Y0223237D01*
X0058780Y0223220D01*
X0058866Y0223198D01*
X0058950Y0223173D01*
X0059034Y0223143D01*
X0059116Y0223111D01*
X0059196Y0223074D01*
X0059275Y0223034D01*
X0059352Y0222990D01*
X0059427Y0222943D01*
X0059499Y0222893D01*
X0059570Y0222839D01*
X0059637Y0222783D01*
X0059703Y0222723D01*
X0059765Y0222661D01*
X0059825Y0222595D01*
X0059881Y0222528D01*
X0059935Y0222457D01*
X0059985Y0222385D01*
X0060032Y0222310D01*
X0060076Y0222233D01*
X0060116Y0222154D01*
X0060153Y0222074D01*
X0060185Y0221992D01*
X0060215Y0221908D01*
X0060240Y0221824D01*
X0060262Y0221738D01*
X0060279Y0221652D01*
X0060293Y0221564D01*
X0060303Y0221476D01*
X0060309Y0221388D01*
X0060311Y0221300D01*
X0060309Y0221212D01*
X0060303Y0221124D01*
X0060293Y0221036D01*
X0060279Y0220948D01*
X0060262Y0220862D01*
X0060240Y0220776D01*
X0060215Y0220692D01*
X0060185Y0220608D01*
X0060153Y0220526D01*
X0060116Y0220446D01*
X0060076Y0220367D01*
X0060032Y0220290D01*
X0059985Y0220215D01*
X0059935Y0220143D01*
X0059881Y0220072D01*
X0059825Y0220005D01*
X0059765Y0219939D01*
X0059703Y0219877D01*
X0059637Y0219817D01*
X0059570Y0219761D01*
X0059499Y0219707D01*
X0059427Y0219657D01*
X0059352Y0219610D01*
X0059275Y0219566D01*
X0059196Y0219526D01*
X0059116Y0219489D01*
X0059034Y0219457D01*
X0058950Y0219427D01*
X0058866Y0219402D01*
X0058780Y0219380D01*
X0058694Y0219363D01*
X0058606Y0219349D01*
X0058518Y0219339D01*
X0058430Y0219333D01*
X0058342Y0219331D01*
X0058254Y0219333D01*
X0058166Y0219339D01*
X0058078Y0219349D01*
X0057990Y0219363D01*
X0057904Y0219380D01*
X0057818Y0219402D01*
X0057734Y0219427D01*
X0057650Y0219457D01*
X0057568Y0219489D01*
X0057488Y0219526D01*
X0057409Y0219566D01*
X0057332Y0219610D01*
X0057257Y0219657D01*
X0057185Y0219707D01*
X0057114Y0219761D01*
X0057047Y0219817D01*
X0056981Y0219877D01*
X0056919Y0219939D01*
X0056859Y0220005D01*
X0056803Y0220072D01*
X0056749Y0220143D01*
X0056699Y0220215D01*
X0056652Y0220290D01*
X0056608Y0220367D01*
X0056568Y0220446D01*
X0056531Y0220526D01*
X0056499Y0220608D01*
X0056469Y0220692D01*
X0056444Y0220776D01*
X0056422Y0220862D01*
X0056405Y0220948D01*
X0056391Y0221036D01*
X0056381Y0221124D01*
X0056375Y0221212D01*
X0056373Y0221300D01*
X0056373Y0321300D02*
X0056375Y0321388D01*
X0056381Y0321476D01*
X0056391Y0321564D01*
X0056405Y0321652D01*
X0056422Y0321738D01*
X0056444Y0321824D01*
X0056469Y0321908D01*
X0056499Y0321992D01*
X0056531Y0322074D01*
X0056568Y0322154D01*
X0056608Y0322233D01*
X0056652Y0322310D01*
X0056699Y0322385D01*
X0056749Y0322457D01*
X0056803Y0322528D01*
X0056859Y0322595D01*
X0056919Y0322661D01*
X0056981Y0322723D01*
X0057047Y0322783D01*
X0057114Y0322839D01*
X0057185Y0322893D01*
X0057257Y0322943D01*
X0057332Y0322990D01*
X0057409Y0323034D01*
X0057488Y0323074D01*
X0057568Y0323111D01*
X0057650Y0323143D01*
X0057734Y0323173D01*
X0057818Y0323198D01*
X0057904Y0323220D01*
X0057990Y0323237D01*
X0058078Y0323251D01*
X0058166Y0323261D01*
X0058254Y0323267D01*
X0058342Y0323269D01*
X0058430Y0323267D01*
X0058518Y0323261D01*
X0058606Y0323251D01*
X0058694Y0323237D01*
X0058780Y0323220D01*
X0058866Y0323198D01*
X0058950Y0323173D01*
X0059034Y0323143D01*
X0059116Y0323111D01*
X0059196Y0323074D01*
X0059275Y0323034D01*
X0059352Y0322990D01*
X0059427Y0322943D01*
X0059499Y0322893D01*
X0059570Y0322839D01*
X0059637Y0322783D01*
X0059703Y0322723D01*
X0059765Y0322661D01*
X0059825Y0322595D01*
X0059881Y0322528D01*
X0059935Y0322457D01*
X0059985Y0322385D01*
X0060032Y0322310D01*
X0060076Y0322233D01*
X0060116Y0322154D01*
X0060153Y0322074D01*
X0060185Y0321992D01*
X0060215Y0321908D01*
X0060240Y0321824D01*
X0060262Y0321738D01*
X0060279Y0321652D01*
X0060293Y0321564D01*
X0060303Y0321476D01*
X0060309Y0321388D01*
X0060311Y0321300D01*
X0060309Y0321212D01*
X0060303Y0321124D01*
X0060293Y0321036D01*
X0060279Y0320948D01*
X0060262Y0320862D01*
X0060240Y0320776D01*
X0060215Y0320692D01*
X0060185Y0320608D01*
X0060153Y0320526D01*
X0060116Y0320446D01*
X0060076Y0320367D01*
X0060032Y0320290D01*
X0059985Y0320215D01*
X0059935Y0320143D01*
X0059881Y0320072D01*
X0059825Y0320005D01*
X0059765Y0319939D01*
X0059703Y0319877D01*
X0059637Y0319817D01*
X0059570Y0319761D01*
X0059499Y0319707D01*
X0059427Y0319657D01*
X0059352Y0319610D01*
X0059275Y0319566D01*
X0059196Y0319526D01*
X0059116Y0319489D01*
X0059034Y0319457D01*
X0058950Y0319427D01*
X0058866Y0319402D01*
X0058780Y0319380D01*
X0058694Y0319363D01*
X0058606Y0319349D01*
X0058518Y0319339D01*
X0058430Y0319333D01*
X0058342Y0319331D01*
X0058254Y0319333D01*
X0058166Y0319339D01*
X0058078Y0319349D01*
X0057990Y0319363D01*
X0057904Y0319380D01*
X0057818Y0319402D01*
X0057734Y0319427D01*
X0057650Y0319457D01*
X0057568Y0319489D01*
X0057488Y0319526D01*
X0057409Y0319566D01*
X0057332Y0319610D01*
X0057257Y0319657D01*
X0057185Y0319707D01*
X0057114Y0319761D01*
X0057047Y0319817D01*
X0056981Y0319877D01*
X0056919Y0319939D01*
X0056859Y0320005D01*
X0056803Y0320072D01*
X0056749Y0320143D01*
X0056699Y0320215D01*
X0056652Y0320290D01*
X0056608Y0320367D01*
X0056568Y0320446D01*
X0056531Y0320526D01*
X0056499Y0320608D01*
X0056469Y0320692D01*
X0056444Y0320776D01*
X0056422Y0320862D01*
X0056405Y0320948D01*
X0056391Y0321036D01*
X0056381Y0321124D01*
X0056375Y0321212D01*
X0056373Y0321300D01*
X0426373Y0321300D02*
X0426375Y0321388D01*
X0426381Y0321476D01*
X0426391Y0321564D01*
X0426405Y0321652D01*
X0426422Y0321738D01*
X0426444Y0321824D01*
X0426469Y0321908D01*
X0426499Y0321992D01*
X0426531Y0322074D01*
X0426568Y0322154D01*
X0426608Y0322233D01*
X0426652Y0322310D01*
X0426699Y0322385D01*
X0426749Y0322457D01*
X0426803Y0322528D01*
X0426859Y0322595D01*
X0426919Y0322661D01*
X0426981Y0322723D01*
X0427047Y0322783D01*
X0427114Y0322839D01*
X0427185Y0322893D01*
X0427257Y0322943D01*
X0427332Y0322990D01*
X0427409Y0323034D01*
X0427488Y0323074D01*
X0427568Y0323111D01*
X0427650Y0323143D01*
X0427734Y0323173D01*
X0427818Y0323198D01*
X0427904Y0323220D01*
X0427990Y0323237D01*
X0428078Y0323251D01*
X0428166Y0323261D01*
X0428254Y0323267D01*
X0428342Y0323269D01*
X0428430Y0323267D01*
X0428518Y0323261D01*
X0428606Y0323251D01*
X0428694Y0323237D01*
X0428780Y0323220D01*
X0428866Y0323198D01*
X0428950Y0323173D01*
X0429034Y0323143D01*
X0429116Y0323111D01*
X0429196Y0323074D01*
X0429275Y0323034D01*
X0429352Y0322990D01*
X0429427Y0322943D01*
X0429499Y0322893D01*
X0429570Y0322839D01*
X0429637Y0322783D01*
X0429703Y0322723D01*
X0429765Y0322661D01*
X0429825Y0322595D01*
X0429881Y0322528D01*
X0429935Y0322457D01*
X0429985Y0322385D01*
X0430032Y0322310D01*
X0430076Y0322233D01*
X0430116Y0322154D01*
X0430153Y0322074D01*
X0430185Y0321992D01*
X0430215Y0321908D01*
X0430240Y0321824D01*
X0430262Y0321738D01*
X0430279Y0321652D01*
X0430293Y0321564D01*
X0430303Y0321476D01*
X0430309Y0321388D01*
X0430311Y0321300D01*
X0430309Y0321212D01*
X0430303Y0321124D01*
X0430293Y0321036D01*
X0430279Y0320948D01*
X0430262Y0320862D01*
X0430240Y0320776D01*
X0430215Y0320692D01*
X0430185Y0320608D01*
X0430153Y0320526D01*
X0430116Y0320446D01*
X0430076Y0320367D01*
X0430032Y0320290D01*
X0429985Y0320215D01*
X0429935Y0320143D01*
X0429881Y0320072D01*
X0429825Y0320005D01*
X0429765Y0319939D01*
X0429703Y0319877D01*
X0429637Y0319817D01*
X0429570Y0319761D01*
X0429499Y0319707D01*
X0429427Y0319657D01*
X0429352Y0319610D01*
X0429275Y0319566D01*
X0429196Y0319526D01*
X0429116Y0319489D01*
X0429034Y0319457D01*
X0428950Y0319427D01*
X0428866Y0319402D01*
X0428780Y0319380D01*
X0428694Y0319363D01*
X0428606Y0319349D01*
X0428518Y0319339D01*
X0428430Y0319333D01*
X0428342Y0319331D01*
X0428254Y0319333D01*
X0428166Y0319339D01*
X0428078Y0319349D01*
X0427990Y0319363D01*
X0427904Y0319380D01*
X0427818Y0319402D01*
X0427734Y0319427D01*
X0427650Y0319457D01*
X0427568Y0319489D01*
X0427488Y0319526D01*
X0427409Y0319566D01*
X0427332Y0319610D01*
X0427257Y0319657D01*
X0427185Y0319707D01*
X0427114Y0319761D01*
X0427047Y0319817D01*
X0426981Y0319877D01*
X0426919Y0319939D01*
X0426859Y0320005D01*
X0426803Y0320072D01*
X0426749Y0320143D01*
X0426699Y0320215D01*
X0426652Y0320290D01*
X0426608Y0320367D01*
X0426568Y0320446D01*
X0426531Y0320526D01*
X0426499Y0320608D01*
X0426469Y0320692D01*
X0426444Y0320776D01*
X0426422Y0320862D01*
X0426405Y0320948D01*
X0426391Y0321036D01*
X0426381Y0321124D01*
X0426375Y0321212D01*
X0426373Y0321300D01*
X0426373Y0221300D02*
X0426375Y0221388D01*
X0426381Y0221476D01*
X0426391Y0221564D01*
X0426405Y0221652D01*
X0426422Y0221738D01*
X0426444Y0221824D01*
X0426469Y0221908D01*
X0426499Y0221992D01*
X0426531Y0222074D01*
X0426568Y0222154D01*
X0426608Y0222233D01*
X0426652Y0222310D01*
X0426699Y0222385D01*
X0426749Y0222457D01*
X0426803Y0222528D01*
X0426859Y0222595D01*
X0426919Y0222661D01*
X0426981Y0222723D01*
X0427047Y0222783D01*
X0427114Y0222839D01*
X0427185Y0222893D01*
X0427257Y0222943D01*
X0427332Y0222990D01*
X0427409Y0223034D01*
X0427488Y0223074D01*
X0427568Y0223111D01*
X0427650Y0223143D01*
X0427734Y0223173D01*
X0427818Y0223198D01*
X0427904Y0223220D01*
X0427990Y0223237D01*
X0428078Y0223251D01*
X0428166Y0223261D01*
X0428254Y0223267D01*
X0428342Y0223269D01*
X0428430Y0223267D01*
X0428518Y0223261D01*
X0428606Y0223251D01*
X0428694Y0223237D01*
X0428780Y0223220D01*
X0428866Y0223198D01*
X0428950Y0223173D01*
X0429034Y0223143D01*
X0429116Y0223111D01*
X0429196Y0223074D01*
X0429275Y0223034D01*
X0429352Y0222990D01*
X0429427Y0222943D01*
X0429499Y0222893D01*
X0429570Y0222839D01*
X0429637Y0222783D01*
X0429703Y0222723D01*
X0429765Y0222661D01*
X0429825Y0222595D01*
X0429881Y0222528D01*
X0429935Y0222457D01*
X0429985Y0222385D01*
X0430032Y0222310D01*
X0430076Y0222233D01*
X0430116Y0222154D01*
X0430153Y0222074D01*
X0430185Y0221992D01*
X0430215Y0221908D01*
X0430240Y0221824D01*
X0430262Y0221738D01*
X0430279Y0221652D01*
X0430293Y0221564D01*
X0430303Y0221476D01*
X0430309Y0221388D01*
X0430311Y0221300D01*
X0430309Y0221212D01*
X0430303Y0221124D01*
X0430293Y0221036D01*
X0430279Y0220948D01*
X0430262Y0220862D01*
X0430240Y0220776D01*
X0430215Y0220692D01*
X0430185Y0220608D01*
X0430153Y0220526D01*
X0430116Y0220446D01*
X0430076Y0220367D01*
X0430032Y0220290D01*
X0429985Y0220215D01*
X0429935Y0220143D01*
X0429881Y0220072D01*
X0429825Y0220005D01*
X0429765Y0219939D01*
X0429703Y0219877D01*
X0429637Y0219817D01*
X0429570Y0219761D01*
X0429499Y0219707D01*
X0429427Y0219657D01*
X0429352Y0219610D01*
X0429275Y0219566D01*
X0429196Y0219526D01*
X0429116Y0219489D01*
X0429034Y0219457D01*
X0428950Y0219427D01*
X0428866Y0219402D01*
X0428780Y0219380D01*
X0428694Y0219363D01*
X0428606Y0219349D01*
X0428518Y0219339D01*
X0428430Y0219333D01*
X0428342Y0219331D01*
X0428254Y0219333D01*
X0428166Y0219339D01*
X0428078Y0219349D01*
X0427990Y0219363D01*
X0427904Y0219380D01*
X0427818Y0219402D01*
X0427734Y0219427D01*
X0427650Y0219457D01*
X0427568Y0219489D01*
X0427488Y0219526D01*
X0427409Y0219566D01*
X0427332Y0219610D01*
X0427257Y0219657D01*
X0427185Y0219707D01*
X0427114Y0219761D01*
X0427047Y0219817D01*
X0426981Y0219877D01*
X0426919Y0219939D01*
X0426859Y0220005D01*
X0426803Y0220072D01*
X0426749Y0220143D01*
X0426699Y0220215D01*
X0426652Y0220290D01*
X0426608Y0220367D01*
X0426568Y0220446D01*
X0426531Y0220526D01*
X0426499Y0220608D01*
X0426469Y0220692D01*
X0426444Y0220776D01*
X0426422Y0220862D01*
X0426405Y0220948D01*
X0426391Y0221036D01*
X0426381Y0221124D01*
X0426375Y0221212D01*
X0426373Y0221300D01*
M02*
