%
M48
M72
T01C0.03200
T02C0.03600
T03C0.03937
T04C0.04000
T05C0.04724
T06C0.05600
%
T01
X99467Y242200
X109467Y242200
X119467Y242200
X129467Y242200
X159467Y252200
X129467Y272200
X119467Y272200
X109467Y272200
X99467Y272200
X74467Y262200
X44467Y292200
X34467Y292200
X24467Y262200
X164467Y292200
X184467Y292200
X209467Y307200
X219467Y307200
X229467Y307200
X239467Y307200
X249467Y307200
X244467Y277200
X224467Y277200
X209467Y252200
X249467Y252200
X289467Y292200
X309467Y292200
X339467Y287200
X349467Y287200
X329467Y252200
X299467Y252200
X379467Y252200
T02
X204467Y67200
X174467Y67200
T03
X29467Y32200
X39467Y32200
X49467Y32200
X109467Y302200
X119467Y302200
X129467Y302200
T04
X144967Y27200
X203967Y27200
T05
X194624Y97909
X182813Y97909
X171002Y97909
X159191Y97909
X214309Y97909
X245805Y97909
X210372Y192397
X198561Y192397
X186750Y192397
X159191Y192397
T06
X259467Y37200
X319467Y37200
M30
