G75*
%MOIN*%
%OFA0B0*%
%FSLAX25Y25*%
%IPPOS*%
%LPD*%
%AMOC8*
5,1,8,0,0,1.08239X$1,22.5*
%
%ADD10C,0.00600*%
%ADD11C,0.02000*%
%ADD12OC8,0.05200*%
%ADD13C,0.00500*%
%ADD14OC8,0.06000*%
%ADD15OC8,0.05600*%
%ADD16C,0.05200*%
%ADD17C,0.00400*%
%ADD18R,0.09000X0.09000*%
%ADD19C,0.00800*%
%ADD20C,0.05200*%
%ADD21C,0.05937*%
%ADD22C,0.09843*%
%ADD23C,0.02500*%
%ADD24C,0.01000*%
D10*
X0052194Y0305367D02*
X0052905Y0305367D01*
X0055038Y0311767D01*
X0052194Y0311767D02*
X0053616Y0307500D01*
X0050181Y0307500D02*
X0048581Y0310522D01*
X0047337Y0309633D02*
X0050181Y0311767D01*
X0047337Y0313900D02*
X0047337Y0307500D01*
X0044371Y0307500D02*
X0044371Y0310700D01*
X0044369Y0310764D01*
X0044363Y0310829D01*
X0044354Y0310892D01*
X0044340Y0310955D01*
X0044323Y0311017D01*
X0044302Y0311078D01*
X0044277Y0311138D01*
X0044249Y0311196D01*
X0044217Y0311252D01*
X0044182Y0311306D01*
X0044144Y0311358D01*
X0044103Y0311408D01*
X0044058Y0311454D01*
X0044012Y0311499D01*
X0043962Y0311540D01*
X0043910Y0311578D01*
X0043856Y0311613D01*
X0043800Y0311645D01*
X0043742Y0311673D01*
X0043682Y0311698D01*
X0043621Y0311719D01*
X0043559Y0311736D01*
X0043496Y0311750D01*
X0043433Y0311759D01*
X0043368Y0311765D01*
X0043304Y0311767D01*
X0041527Y0311767D01*
X0041527Y0307500D01*
X0038846Y0307500D02*
X0038846Y0311767D01*
X0039024Y0313544D02*
X0038668Y0313544D01*
X0038668Y0313900D01*
X0039024Y0313900D01*
X0039024Y0313544D01*
X0035671Y0313900D02*
X0035671Y0308567D01*
X0035673Y0308503D01*
X0035679Y0308438D01*
X0035688Y0308375D01*
X0035702Y0308312D01*
X0035719Y0308250D01*
X0035740Y0308189D01*
X0035765Y0308129D01*
X0035793Y0308071D01*
X0035825Y0308015D01*
X0035860Y0307961D01*
X0035898Y0307909D01*
X0035939Y0307859D01*
X0035984Y0307813D01*
X0036030Y0307768D01*
X0036080Y0307727D01*
X0036132Y0307689D01*
X0036186Y0307654D01*
X0036242Y0307622D01*
X0036300Y0307594D01*
X0036360Y0307569D01*
X0036421Y0307548D01*
X0036483Y0307531D01*
X0036546Y0307517D01*
X0036609Y0307508D01*
X0036674Y0307502D01*
X0036738Y0307500D01*
X0031544Y0307500D02*
X0029767Y0307500D01*
X0029767Y0313900D01*
X0031544Y0313900D01*
X0031618Y0313898D01*
X0031693Y0313892D01*
X0031766Y0313882D01*
X0031840Y0313869D01*
X0031912Y0313852D01*
X0031983Y0313830D01*
X0032054Y0313806D01*
X0032122Y0313777D01*
X0032190Y0313745D01*
X0032255Y0313709D01*
X0032318Y0313671D01*
X0032380Y0313628D01*
X0032439Y0313583D01*
X0032496Y0313535D01*
X0032550Y0313484D01*
X0032601Y0313430D01*
X0032649Y0313373D01*
X0032694Y0313314D01*
X0032737Y0313252D01*
X0032775Y0313189D01*
X0032811Y0313124D01*
X0032843Y0313056D01*
X0032872Y0312988D01*
X0032896Y0312917D01*
X0032918Y0312846D01*
X0032935Y0312774D01*
X0032948Y0312700D01*
X0032958Y0312627D01*
X0032964Y0312552D01*
X0032966Y0312478D01*
X0032964Y0312404D01*
X0032958Y0312329D01*
X0032948Y0312256D01*
X0032935Y0312182D01*
X0032918Y0312110D01*
X0032896Y0312039D01*
X0032872Y0311968D01*
X0032843Y0311900D01*
X0032811Y0311832D01*
X0032775Y0311767D01*
X0032737Y0311704D01*
X0032694Y0311642D01*
X0032649Y0311583D01*
X0032601Y0311526D01*
X0032550Y0311472D01*
X0032496Y0311421D01*
X0032439Y0311373D01*
X0032380Y0311328D01*
X0032318Y0311285D01*
X0032255Y0311247D01*
X0032190Y0311211D01*
X0032122Y0311179D01*
X0032054Y0311150D01*
X0031983Y0311126D01*
X0031912Y0311104D01*
X0031840Y0311087D01*
X0031766Y0311074D01*
X0031693Y0311064D01*
X0031618Y0311058D01*
X0031544Y0311056D01*
X0029767Y0311056D01*
X0031544Y0311056D02*
X0031627Y0311054D01*
X0031710Y0311048D01*
X0031793Y0311038D01*
X0031876Y0311025D01*
X0031957Y0311007D01*
X0032038Y0310986D01*
X0032117Y0310961D01*
X0032195Y0310932D01*
X0032272Y0310900D01*
X0032347Y0310864D01*
X0032421Y0310825D01*
X0032492Y0310782D01*
X0032562Y0310736D01*
X0032629Y0310686D01*
X0032694Y0310634D01*
X0032756Y0310579D01*
X0032816Y0310520D01*
X0032873Y0310459D01*
X0032927Y0310396D01*
X0032978Y0310330D01*
X0033025Y0310261D01*
X0033070Y0310191D01*
X0033111Y0310118D01*
X0033148Y0310044D01*
X0033183Y0309968D01*
X0033213Y0309890D01*
X0033240Y0309812D01*
X0033263Y0309731D01*
X0033283Y0309650D01*
X0033298Y0309568D01*
X0033310Y0309486D01*
X0033318Y0309403D01*
X0033322Y0309320D01*
X0033322Y0309236D01*
X0033318Y0309153D01*
X0033310Y0309070D01*
X0033298Y0308988D01*
X0033283Y0308906D01*
X0033263Y0308825D01*
X0033240Y0308744D01*
X0033213Y0308666D01*
X0033183Y0308588D01*
X0033148Y0308512D01*
X0033111Y0308438D01*
X0033070Y0308365D01*
X0033025Y0308295D01*
X0032978Y0308226D01*
X0032927Y0308160D01*
X0032873Y0308097D01*
X0032816Y0308036D01*
X0032756Y0307977D01*
X0032694Y0307922D01*
X0032629Y0307870D01*
X0032562Y0307820D01*
X0032492Y0307774D01*
X0032421Y0307731D01*
X0032347Y0307692D01*
X0032272Y0307656D01*
X0032195Y0307624D01*
X0032117Y0307595D01*
X0032038Y0307570D01*
X0031957Y0307549D01*
X0031876Y0307531D01*
X0031793Y0307518D01*
X0031710Y0307508D01*
X0031627Y0307502D01*
X0031544Y0307500D01*
X0335656Y0306233D02*
X0337611Y0305167D01*
X0336900Y0302500D02*
X0336792Y0302502D01*
X0336685Y0302508D01*
X0336577Y0302517D01*
X0336470Y0302531D01*
X0336364Y0302548D01*
X0336258Y0302569D01*
X0336153Y0302594D01*
X0336049Y0302623D01*
X0335946Y0302655D01*
X0335845Y0302691D01*
X0335745Y0302731D01*
X0335646Y0302774D01*
X0335549Y0302821D01*
X0335453Y0302871D01*
X0335360Y0302925D01*
X0335268Y0302982D01*
X0335179Y0303042D01*
X0335092Y0303105D01*
X0335007Y0303172D01*
X0334924Y0303241D01*
X0334844Y0303314D01*
X0334767Y0303389D01*
X0337611Y0305166D02*
X0337675Y0305126D01*
X0337736Y0305083D01*
X0337795Y0305037D01*
X0337852Y0304988D01*
X0337906Y0304936D01*
X0337957Y0304882D01*
X0338005Y0304824D01*
X0338051Y0304765D01*
X0338093Y0304703D01*
X0338132Y0304638D01*
X0338167Y0304572D01*
X0338199Y0304505D01*
X0338228Y0304435D01*
X0338253Y0304365D01*
X0338274Y0304293D01*
X0338291Y0304220D01*
X0338305Y0304146D01*
X0338314Y0304072D01*
X0338320Y0303997D01*
X0338322Y0303922D01*
X0338320Y0303848D01*
X0338314Y0303773D01*
X0338304Y0303700D01*
X0338291Y0303626D01*
X0338274Y0303554D01*
X0338252Y0303483D01*
X0338228Y0303412D01*
X0338199Y0303344D01*
X0338167Y0303276D01*
X0338131Y0303211D01*
X0338093Y0303148D01*
X0338050Y0303086D01*
X0338005Y0303027D01*
X0337957Y0302970D01*
X0337906Y0302916D01*
X0337852Y0302865D01*
X0337795Y0302817D01*
X0337736Y0302772D01*
X0337674Y0302729D01*
X0337611Y0302691D01*
X0337546Y0302655D01*
X0337478Y0302623D01*
X0337410Y0302594D01*
X0337339Y0302570D01*
X0337268Y0302548D01*
X0337196Y0302531D01*
X0337122Y0302518D01*
X0337049Y0302508D01*
X0336974Y0302502D01*
X0336900Y0302500D01*
X0337967Y0308367D02*
X0337885Y0308426D01*
X0337801Y0308482D01*
X0337715Y0308534D01*
X0337627Y0308584D01*
X0337537Y0308630D01*
X0337446Y0308672D01*
X0337353Y0308711D01*
X0337258Y0308747D01*
X0337162Y0308779D01*
X0337065Y0308807D01*
X0336968Y0308832D01*
X0336869Y0308852D01*
X0336769Y0308869D01*
X0336669Y0308883D01*
X0336569Y0308892D01*
X0336468Y0308898D01*
X0336367Y0308900D01*
X0336293Y0308898D01*
X0336218Y0308892D01*
X0336145Y0308882D01*
X0336071Y0308869D01*
X0335999Y0308852D01*
X0335928Y0308830D01*
X0335857Y0308806D01*
X0335789Y0308777D01*
X0335721Y0308745D01*
X0335656Y0308709D01*
X0335593Y0308671D01*
X0335531Y0308628D01*
X0335472Y0308583D01*
X0335416Y0308535D01*
X0335361Y0308484D01*
X0335310Y0308430D01*
X0335262Y0308373D01*
X0335217Y0308314D01*
X0335174Y0308252D01*
X0335136Y0308189D01*
X0335100Y0308124D01*
X0335068Y0308056D01*
X0335039Y0307988D01*
X0335015Y0307917D01*
X0334993Y0307846D01*
X0334976Y0307774D01*
X0334963Y0307700D01*
X0334953Y0307627D01*
X0334947Y0307552D01*
X0334945Y0307478D01*
X0334947Y0307403D01*
X0334953Y0307328D01*
X0334962Y0307254D01*
X0334976Y0307180D01*
X0334993Y0307107D01*
X0335014Y0307035D01*
X0335039Y0306965D01*
X0335068Y0306895D01*
X0335100Y0306828D01*
X0335135Y0306762D01*
X0335174Y0306697D01*
X0335216Y0306635D01*
X0335262Y0306576D01*
X0335310Y0306518D01*
X0335361Y0306464D01*
X0335415Y0306412D01*
X0335472Y0306363D01*
X0335531Y0306317D01*
X0335592Y0306274D01*
X0335656Y0306234D01*
X0340150Y0306767D02*
X0342283Y0306767D01*
X0340861Y0308900D02*
X0340861Y0303567D01*
X0340863Y0303503D01*
X0340869Y0303438D01*
X0340878Y0303375D01*
X0340892Y0303312D01*
X0340909Y0303250D01*
X0340930Y0303189D01*
X0340955Y0303129D01*
X0340983Y0303071D01*
X0341015Y0303015D01*
X0341050Y0302961D01*
X0341088Y0302909D01*
X0341129Y0302859D01*
X0341174Y0302813D01*
X0341220Y0302768D01*
X0341270Y0302727D01*
X0341322Y0302689D01*
X0341376Y0302654D01*
X0341432Y0302622D01*
X0341490Y0302594D01*
X0341550Y0302569D01*
X0341611Y0302548D01*
X0341673Y0302531D01*
X0341736Y0302517D01*
X0341799Y0302508D01*
X0341864Y0302502D01*
X0341928Y0302500D01*
X0342283Y0302500D01*
X0344558Y0303567D02*
X0344558Y0305344D01*
X0344558Y0304633D02*
X0347403Y0304633D01*
X0347403Y0305344D01*
X0347401Y0305418D01*
X0347395Y0305493D01*
X0347385Y0305566D01*
X0347372Y0305640D01*
X0347355Y0305712D01*
X0347333Y0305783D01*
X0347309Y0305854D01*
X0347280Y0305922D01*
X0347248Y0305990D01*
X0347212Y0306055D01*
X0347174Y0306118D01*
X0347131Y0306180D01*
X0347086Y0306239D01*
X0347038Y0306296D01*
X0346987Y0306350D01*
X0346933Y0306401D01*
X0346876Y0306449D01*
X0346817Y0306494D01*
X0346755Y0306537D01*
X0346692Y0306575D01*
X0346627Y0306611D01*
X0346559Y0306643D01*
X0346491Y0306672D01*
X0346420Y0306696D01*
X0346349Y0306718D01*
X0346277Y0306735D01*
X0346203Y0306748D01*
X0346130Y0306758D01*
X0346055Y0306764D01*
X0345981Y0306766D01*
X0345907Y0306764D01*
X0345832Y0306758D01*
X0345759Y0306748D01*
X0345685Y0306735D01*
X0345613Y0306718D01*
X0345542Y0306696D01*
X0345471Y0306672D01*
X0345403Y0306643D01*
X0345335Y0306611D01*
X0345270Y0306575D01*
X0345207Y0306537D01*
X0345145Y0306494D01*
X0345086Y0306449D01*
X0345029Y0306401D01*
X0344975Y0306350D01*
X0344924Y0306296D01*
X0344876Y0306239D01*
X0344831Y0306180D01*
X0344788Y0306118D01*
X0344750Y0306055D01*
X0344714Y0305990D01*
X0344682Y0305922D01*
X0344653Y0305854D01*
X0344629Y0305783D01*
X0344607Y0305712D01*
X0344590Y0305640D01*
X0344577Y0305566D01*
X0344567Y0305493D01*
X0344561Y0305418D01*
X0344559Y0305344D01*
X0344558Y0303567D02*
X0344560Y0303503D01*
X0344566Y0303438D01*
X0344575Y0303375D01*
X0344589Y0303312D01*
X0344606Y0303250D01*
X0344627Y0303189D01*
X0344652Y0303129D01*
X0344680Y0303071D01*
X0344712Y0303015D01*
X0344747Y0302961D01*
X0344785Y0302909D01*
X0344826Y0302859D01*
X0344871Y0302813D01*
X0344917Y0302768D01*
X0344967Y0302727D01*
X0345019Y0302689D01*
X0345073Y0302654D01*
X0345129Y0302622D01*
X0345187Y0302594D01*
X0345247Y0302569D01*
X0345308Y0302548D01*
X0345370Y0302531D01*
X0345433Y0302517D01*
X0345496Y0302508D01*
X0345561Y0302502D01*
X0345625Y0302500D01*
X0347403Y0302500D01*
X0351107Y0302500D02*
X0352707Y0302500D01*
X0352707Y0305700D01*
X0352707Y0304989D02*
X0351107Y0304989D01*
X0352708Y0305700D02*
X0352706Y0305764D01*
X0352700Y0305829D01*
X0352691Y0305892D01*
X0352677Y0305955D01*
X0352660Y0306017D01*
X0352639Y0306078D01*
X0352614Y0306138D01*
X0352586Y0306196D01*
X0352554Y0306252D01*
X0352519Y0306306D01*
X0352481Y0306358D01*
X0352440Y0306408D01*
X0352395Y0306454D01*
X0352349Y0306499D01*
X0352299Y0306540D01*
X0352247Y0306578D01*
X0352193Y0306613D01*
X0352137Y0306645D01*
X0352079Y0306673D01*
X0352019Y0306698D01*
X0351958Y0306719D01*
X0351896Y0306736D01*
X0351833Y0306750D01*
X0351770Y0306759D01*
X0351705Y0306765D01*
X0351641Y0306767D01*
X0350219Y0306767D01*
X0351107Y0304988D02*
X0351037Y0304986D01*
X0350968Y0304980D01*
X0350899Y0304970D01*
X0350830Y0304957D01*
X0350763Y0304939D01*
X0350696Y0304918D01*
X0350631Y0304893D01*
X0350567Y0304865D01*
X0350505Y0304833D01*
X0350445Y0304797D01*
X0350387Y0304759D01*
X0350331Y0304717D01*
X0350278Y0304672D01*
X0350227Y0304624D01*
X0350179Y0304573D01*
X0350134Y0304520D01*
X0350092Y0304464D01*
X0350054Y0304406D01*
X0350018Y0304346D01*
X0349986Y0304284D01*
X0349958Y0304220D01*
X0349933Y0304155D01*
X0349912Y0304088D01*
X0349894Y0304021D01*
X0349881Y0303952D01*
X0349871Y0303883D01*
X0349865Y0303814D01*
X0349863Y0303744D01*
X0349865Y0303674D01*
X0349871Y0303605D01*
X0349881Y0303536D01*
X0349894Y0303467D01*
X0349912Y0303400D01*
X0349933Y0303333D01*
X0349958Y0303268D01*
X0349986Y0303204D01*
X0350018Y0303142D01*
X0350054Y0303082D01*
X0350092Y0303024D01*
X0350134Y0302968D01*
X0350179Y0302915D01*
X0350227Y0302864D01*
X0350278Y0302816D01*
X0350331Y0302771D01*
X0350387Y0302729D01*
X0350445Y0302691D01*
X0350505Y0302655D01*
X0350567Y0302623D01*
X0350631Y0302595D01*
X0350696Y0302570D01*
X0350763Y0302549D01*
X0350830Y0302531D01*
X0350899Y0302518D01*
X0350968Y0302508D01*
X0351037Y0302502D01*
X0351107Y0302500D01*
X0355402Y0303567D02*
X0355402Y0305700D01*
X0355401Y0305700D02*
X0355403Y0305764D01*
X0355409Y0305829D01*
X0355418Y0305892D01*
X0355432Y0305955D01*
X0355449Y0306017D01*
X0355470Y0306078D01*
X0355495Y0306138D01*
X0355523Y0306196D01*
X0355555Y0306252D01*
X0355590Y0306306D01*
X0355628Y0306358D01*
X0355669Y0306408D01*
X0355714Y0306454D01*
X0355760Y0306499D01*
X0355810Y0306540D01*
X0355862Y0306578D01*
X0355916Y0306613D01*
X0355972Y0306645D01*
X0356030Y0306673D01*
X0356090Y0306698D01*
X0356151Y0306719D01*
X0356213Y0306736D01*
X0356276Y0306750D01*
X0356339Y0306759D01*
X0356404Y0306765D01*
X0356468Y0306767D01*
X0358246Y0306767D01*
X0358246Y0308900D02*
X0358246Y0302500D01*
X0356468Y0302500D01*
X0356404Y0302502D01*
X0356339Y0302508D01*
X0356276Y0302517D01*
X0356213Y0302531D01*
X0356151Y0302548D01*
X0356090Y0302569D01*
X0356030Y0302594D01*
X0355972Y0302622D01*
X0355916Y0302654D01*
X0355862Y0302689D01*
X0355810Y0302727D01*
X0355760Y0302768D01*
X0355714Y0302813D01*
X0355669Y0302859D01*
X0355628Y0302909D01*
X0355590Y0302961D01*
X0355555Y0303015D01*
X0355523Y0303071D01*
X0355495Y0303129D01*
X0355470Y0303189D01*
X0355449Y0303250D01*
X0355432Y0303312D01*
X0355418Y0303375D01*
X0355409Y0303438D01*
X0355403Y0303503D01*
X0355401Y0303567D01*
X0360764Y0306767D02*
X0362186Y0302500D01*
X0361475Y0300367D02*
X0363608Y0306767D01*
X0361475Y0300367D02*
X0360764Y0300367D01*
D11*
X0343282Y0236600D02*
X0332882Y0236600D01*
X0332882Y0213200D01*
X0343282Y0213200D01*
X0340682Y0226200D02*
X0332882Y0226200D01*
X0325572Y0226200D02*
X0325572Y0213200D01*
X0317772Y0213200D01*
X0317629Y0213202D01*
X0317486Y0213208D01*
X0317343Y0213218D01*
X0317200Y0213232D01*
X0317058Y0213249D01*
X0316916Y0213271D01*
X0316775Y0213296D01*
X0316635Y0213326D01*
X0316495Y0213359D01*
X0316357Y0213396D01*
X0316220Y0213437D01*
X0316084Y0213482D01*
X0315949Y0213530D01*
X0315815Y0213582D01*
X0315683Y0213638D01*
X0315553Y0213697D01*
X0315424Y0213760D01*
X0315297Y0213827D01*
X0315172Y0213897D01*
X0315049Y0213970D01*
X0314928Y0214047D01*
X0314809Y0214127D01*
X0314692Y0214210D01*
X0314578Y0214296D01*
X0314466Y0214386D01*
X0314357Y0214479D01*
X0314250Y0214574D01*
X0314146Y0214673D01*
X0314045Y0214774D01*
X0313946Y0214878D01*
X0313851Y0214985D01*
X0313758Y0215094D01*
X0313668Y0215206D01*
X0313582Y0215320D01*
X0313499Y0215437D01*
X0313419Y0215556D01*
X0313342Y0215677D01*
X0313269Y0215800D01*
X0313199Y0215925D01*
X0313132Y0216052D01*
X0313069Y0216181D01*
X0313010Y0216311D01*
X0312954Y0216443D01*
X0312902Y0216577D01*
X0312854Y0216712D01*
X0312809Y0216848D01*
X0312768Y0216985D01*
X0312731Y0217123D01*
X0312698Y0217263D01*
X0312668Y0217403D01*
X0312643Y0217544D01*
X0312621Y0217686D01*
X0312604Y0217828D01*
X0312590Y0217971D01*
X0312580Y0218114D01*
X0312574Y0218257D01*
X0312572Y0218400D01*
X0312572Y0231400D01*
X0312574Y0231543D01*
X0312580Y0231686D01*
X0312590Y0231829D01*
X0312604Y0231972D01*
X0312621Y0232114D01*
X0312643Y0232256D01*
X0312668Y0232397D01*
X0312698Y0232537D01*
X0312731Y0232677D01*
X0312768Y0232815D01*
X0312809Y0232952D01*
X0312854Y0233088D01*
X0312902Y0233223D01*
X0312954Y0233357D01*
X0313010Y0233489D01*
X0313069Y0233619D01*
X0313132Y0233748D01*
X0313199Y0233875D01*
X0313269Y0234000D01*
X0313342Y0234123D01*
X0313419Y0234244D01*
X0313499Y0234363D01*
X0313582Y0234480D01*
X0313668Y0234594D01*
X0313758Y0234706D01*
X0313851Y0234815D01*
X0313946Y0234922D01*
X0314045Y0235026D01*
X0314146Y0235127D01*
X0314250Y0235226D01*
X0314357Y0235321D01*
X0314466Y0235414D01*
X0314578Y0235504D01*
X0314692Y0235590D01*
X0314809Y0235673D01*
X0314928Y0235753D01*
X0315049Y0235830D01*
X0315172Y0235903D01*
X0315297Y0235973D01*
X0315424Y0236040D01*
X0315553Y0236103D01*
X0315683Y0236162D01*
X0315815Y0236218D01*
X0315949Y0236270D01*
X0316084Y0236318D01*
X0316220Y0236363D01*
X0316357Y0236404D01*
X0316495Y0236441D01*
X0316635Y0236474D01*
X0316775Y0236504D01*
X0316916Y0236529D01*
X0317058Y0236551D01*
X0317200Y0236568D01*
X0317343Y0236582D01*
X0317486Y0236592D01*
X0317629Y0236598D01*
X0317772Y0236600D01*
X0325572Y0236600D01*
X0325572Y0226200D02*
X0321672Y0226200D01*
X0305237Y0219050D02*
X0293537Y0219050D01*
X0291587Y0213200D02*
X0299387Y0236600D01*
X0307187Y0213200D01*
X0281607Y0213200D02*
X0281607Y0236600D01*
X0275107Y0236600D02*
X0288107Y0236600D01*
X0270892Y0213200D02*
X0260492Y0213200D01*
X0260492Y0236600D01*
X0253817Y0230100D02*
X0253817Y0219700D01*
X0253815Y0219540D01*
X0253809Y0219381D01*
X0253799Y0219222D01*
X0253786Y0219063D01*
X0253768Y0218904D01*
X0253747Y0218746D01*
X0253721Y0218589D01*
X0253692Y0218432D01*
X0253659Y0218276D01*
X0253622Y0218121D01*
X0253582Y0217966D01*
X0253537Y0217813D01*
X0253489Y0217661D01*
X0253437Y0217510D01*
X0253381Y0217361D01*
X0253322Y0217213D01*
X0253259Y0217066D01*
X0253193Y0216921D01*
X0253123Y0216778D01*
X0253049Y0216636D01*
X0252973Y0216496D01*
X0252892Y0216358D01*
X0252809Y0216223D01*
X0252722Y0216089D01*
X0252631Y0215957D01*
X0252538Y0215828D01*
X0252441Y0215701D01*
X0252342Y0215576D01*
X0252239Y0215454D01*
X0252133Y0215335D01*
X0252025Y0215218D01*
X0251913Y0215104D01*
X0251799Y0214992D01*
X0251682Y0214884D01*
X0251563Y0214778D01*
X0251441Y0214675D01*
X0251316Y0214576D01*
X0251189Y0214479D01*
X0251060Y0214386D01*
X0250928Y0214295D01*
X0250794Y0214208D01*
X0250659Y0214125D01*
X0250521Y0214044D01*
X0250381Y0213968D01*
X0250239Y0213894D01*
X0250096Y0213824D01*
X0249951Y0213758D01*
X0249804Y0213695D01*
X0249656Y0213636D01*
X0249507Y0213580D01*
X0249356Y0213528D01*
X0249204Y0213480D01*
X0249051Y0213435D01*
X0248896Y0213395D01*
X0248741Y0213358D01*
X0248585Y0213325D01*
X0248428Y0213296D01*
X0248271Y0213270D01*
X0248113Y0213249D01*
X0247954Y0213231D01*
X0247795Y0213218D01*
X0247636Y0213208D01*
X0247477Y0213202D01*
X0247317Y0213200D01*
X0247157Y0213202D01*
X0246998Y0213208D01*
X0246839Y0213218D01*
X0246680Y0213231D01*
X0246521Y0213249D01*
X0246363Y0213270D01*
X0246206Y0213296D01*
X0246049Y0213325D01*
X0245893Y0213358D01*
X0245738Y0213395D01*
X0245583Y0213435D01*
X0245430Y0213480D01*
X0245278Y0213528D01*
X0245127Y0213580D01*
X0244978Y0213636D01*
X0244830Y0213695D01*
X0244683Y0213758D01*
X0244538Y0213824D01*
X0244395Y0213894D01*
X0244253Y0213968D01*
X0244113Y0214044D01*
X0243975Y0214125D01*
X0243840Y0214208D01*
X0243706Y0214295D01*
X0243574Y0214386D01*
X0243445Y0214479D01*
X0243318Y0214576D01*
X0243193Y0214675D01*
X0243071Y0214778D01*
X0242952Y0214884D01*
X0242835Y0214992D01*
X0242721Y0215104D01*
X0242609Y0215218D01*
X0242501Y0215335D01*
X0242395Y0215454D01*
X0242292Y0215576D01*
X0242193Y0215701D01*
X0242096Y0215828D01*
X0242003Y0215957D01*
X0241912Y0216089D01*
X0241825Y0216223D01*
X0241742Y0216358D01*
X0241661Y0216496D01*
X0241585Y0216636D01*
X0241511Y0216778D01*
X0241441Y0216921D01*
X0241375Y0217066D01*
X0241312Y0217213D01*
X0241253Y0217361D01*
X0241197Y0217510D01*
X0241145Y0217661D01*
X0241097Y0217813D01*
X0241052Y0217966D01*
X0241012Y0218121D01*
X0240975Y0218276D01*
X0240942Y0218432D01*
X0240913Y0218589D01*
X0240887Y0218746D01*
X0240866Y0218904D01*
X0240848Y0219063D01*
X0240835Y0219222D01*
X0240825Y0219381D01*
X0240819Y0219540D01*
X0240817Y0219700D01*
X0240817Y0230100D01*
X0240819Y0230260D01*
X0240825Y0230419D01*
X0240835Y0230578D01*
X0240848Y0230737D01*
X0240866Y0230896D01*
X0240887Y0231054D01*
X0240913Y0231211D01*
X0240942Y0231368D01*
X0240975Y0231524D01*
X0241012Y0231679D01*
X0241052Y0231834D01*
X0241097Y0231987D01*
X0241145Y0232139D01*
X0241197Y0232290D01*
X0241253Y0232439D01*
X0241312Y0232587D01*
X0241375Y0232734D01*
X0241441Y0232879D01*
X0241511Y0233022D01*
X0241585Y0233164D01*
X0241661Y0233304D01*
X0241742Y0233442D01*
X0241825Y0233577D01*
X0241912Y0233711D01*
X0242003Y0233843D01*
X0242096Y0233972D01*
X0242193Y0234099D01*
X0242292Y0234224D01*
X0242395Y0234346D01*
X0242501Y0234465D01*
X0242609Y0234582D01*
X0242721Y0234696D01*
X0242835Y0234808D01*
X0242952Y0234916D01*
X0243071Y0235022D01*
X0243193Y0235125D01*
X0243318Y0235224D01*
X0243445Y0235321D01*
X0243574Y0235414D01*
X0243706Y0235505D01*
X0243840Y0235592D01*
X0243975Y0235675D01*
X0244113Y0235756D01*
X0244253Y0235832D01*
X0244395Y0235906D01*
X0244538Y0235976D01*
X0244683Y0236042D01*
X0244830Y0236105D01*
X0244978Y0236164D01*
X0245127Y0236220D01*
X0245278Y0236272D01*
X0245430Y0236320D01*
X0245583Y0236365D01*
X0245738Y0236405D01*
X0245893Y0236442D01*
X0246049Y0236475D01*
X0246206Y0236504D01*
X0246363Y0236530D01*
X0246521Y0236551D01*
X0246680Y0236569D01*
X0246839Y0236582D01*
X0246998Y0236592D01*
X0247157Y0236598D01*
X0247317Y0236600D01*
X0247477Y0236598D01*
X0247636Y0236592D01*
X0247795Y0236582D01*
X0247954Y0236569D01*
X0248113Y0236551D01*
X0248271Y0236530D01*
X0248428Y0236504D01*
X0248585Y0236475D01*
X0248741Y0236442D01*
X0248896Y0236405D01*
X0249051Y0236365D01*
X0249204Y0236320D01*
X0249356Y0236272D01*
X0249507Y0236220D01*
X0249656Y0236164D01*
X0249804Y0236105D01*
X0249951Y0236042D01*
X0250096Y0235976D01*
X0250239Y0235906D01*
X0250381Y0235832D01*
X0250521Y0235756D01*
X0250659Y0235675D01*
X0250794Y0235592D01*
X0250928Y0235505D01*
X0251060Y0235414D01*
X0251189Y0235321D01*
X0251316Y0235224D01*
X0251441Y0235125D01*
X0251563Y0235022D01*
X0251682Y0234916D01*
X0251799Y0234808D01*
X0251913Y0234696D01*
X0252025Y0234582D01*
X0252133Y0234465D01*
X0252239Y0234346D01*
X0252342Y0234224D01*
X0252441Y0234099D01*
X0252538Y0233972D01*
X0252631Y0233843D01*
X0252722Y0233711D01*
X0252809Y0233577D01*
X0252892Y0233442D01*
X0252973Y0233304D01*
X0253049Y0233164D01*
X0253123Y0233022D01*
X0253193Y0232879D01*
X0253259Y0232734D01*
X0253322Y0232587D01*
X0253381Y0232439D01*
X0253437Y0232290D01*
X0253489Y0232139D01*
X0253537Y0231987D01*
X0253582Y0231834D01*
X0253622Y0231679D01*
X0253659Y0231524D01*
X0253692Y0231368D01*
X0253721Y0231211D01*
X0253747Y0231054D01*
X0253768Y0230896D01*
X0253786Y0230737D01*
X0253799Y0230578D01*
X0253809Y0230419D01*
X0253815Y0230260D01*
X0253817Y0230100D01*
X0236067Y0236600D02*
X0228267Y0213200D01*
X0220467Y0236600D01*
X0064842Y0226600D02*
X0059642Y0203200D01*
X0054442Y0218800D01*
X0049242Y0203200D01*
X0044042Y0226600D01*
X0039352Y0220100D02*
X0039352Y0209700D01*
X0039350Y0209540D01*
X0039344Y0209381D01*
X0039334Y0209222D01*
X0039321Y0209063D01*
X0039303Y0208904D01*
X0039282Y0208746D01*
X0039256Y0208589D01*
X0039227Y0208432D01*
X0039194Y0208276D01*
X0039157Y0208121D01*
X0039117Y0207966D01*
X0039072Y0207813D01*
X0039024Y0207661D01*
X0038972Y0207510D01*
X0038916Y0207361D01*
X0038857Y0207213D01*
X0038794Y0207066D01*
X0038728Y0206921D01*
X0038658Y0206778D01*
X0038584Y0206636D01*
X0038508Y0206496D01*
X0038427Y0206358D01*
X0038344Y0206223D01*
X0038257Y0206089D01*
X0038166Y0205957D01*
X0038073Y0205828D01*
X0037976Y0205701D01*
X0037877Y0205576D01*
X0037774Y0205454D01*
X0037668Y0205335D01*
X0037560Y0205218D01*
X0037448Y0205104D01*
X0037334Y0204992D01*
X0037217Y0204884D01*
X0037098Y0204778D01*
X0036976Y0204675D01*
X0036851Y0204576D01*
X0036724Y0204479D01*
X0036595Y0204386D01*
X0036463Y0204295D01*
X0036329Y0204208D01*
X0036194Y0204125D01*
X0036056Y0204044D01*
X0035916Y0203968D01*
X0035774Y0203894D01*
X0035631Y0203824D01*
X0035486Y0203758D01*
X0035339Y0203695D01*
X0035191Y0203636D01*
X0035042Y0203580D01*
X0034891Y0203528D01*
X0034739Y0203480D01*
X0034586Y0203435D01*
X0034431Y0203395D01*
X0034276Y0203358D01*
X0034120Y0203325D01*
X0033963Y0203296D01*
X0033806Y0203270D01*
X0033648Y0203249D01*
X0033489Y0203231D01*
X0033330Y0203218D01*
X0033171Y0203208D01*
X0033012Y0203202D01*
X0032852Y0203200D01*
X0032692Y0203202D01*
X0032533Y0203208D01*
X0032374Y0203218D01*
X0032215Y0203231D01*
X0032056Y0203249D01*
X0031898Y0203270D01*
X0031741Y0203296D01*
X0031584Y0203325D01*
X0031428Y0203358D01*
X0031273Y0203395D01*
X0031118Y0203435D01*
X0030965Y0203480D01*
X0030813Y0203528D01*
X0030662Y0203580D01*
X0030513Y0203636D01*
X0030365Y0203695D01*
X0030218Y0203758D01*
X0030073Y0203824D01*
X0029930Y0203894D01*
X0029788Y0203968D01*
X0029648Y0204044D01*
X0029510Y0204125D01*
X0029375Y0204208D01*
X0029241Y0204295D01*
X0029109Y0204386D01*
X0028980Y0204479D01*
X0028853Y0204576D01*
X0028728Y0204675D01*
X0028606Y0204778D01*
X0028487Y0204884D01*
X0028370Y0204992D01*
X0028256Y0205104D01*
X0028144Y0205218D01*
X0028036Y0205335D01*
X0027930Y0205454D01*
X0027827Y0205576D01*
X0027728Y0205701D01*
X0027631Y0205828D01*
X0027538Y0205957D01*
X0027447Y0206089D01*
X0027360Y0206223D01*
X0027277Y0206358D01*
X0027196Y0206496D01*
X0027120Y0206636D01*
X0027046Y0206778D01*
X0026976Y0206921D01*
X0026910Y0207066D01*
X0026847Y0207213D01*
X0026788Y0207361D01*
X0026732Y0207510D01*
X0026680Y0207661D01*
X0026632Y0207813D01*
X0026587Y0207966D01*
X0026547Y0208121D01*
X0026510Y0208276D01*
X0026477Y0208432D01*
X0026448Y0208589D01*
X0026422Y0208746D01*
X0026401Y0208904D01*
X0026383Y0209063D01*
X0026370Y0209222D01*
X0026360Y0209381D01*
X0026354Y0209540D01*
X0026352Y0209700D01*
X0026352Y0220100D01*
X0026354Y0220260D01*
X0026360Y0220419D01*
X0026370Y0220578D01*
X0026383Y0220737D01*
X0026401Y0220896D01*
X0026422Y0221054D01*
X0026448Y0221211D01*
X0026477Y0221368D01*
X0026510Y0221524D01*
X0026547Y0221679D01*
X0026587Y0221834D01*
X0026632Y0221987D01*
X0026680Y0222139D01*
X0026732Y0222290D01*
X0026788Y0222439D01*
X0026847Y0222587D01*
X0026910Y0222734D01*
X0026976Y0222879D01*
X0027046Y0223022D01*
X0027120Y0223164D01*
X0027196Y0223304D01*
X0027277Y0223442D01*
X0027360Y0223577D01*
X0027447Y0223711D01*
X0027538Y0223843D01*
X0027631Y0223972D01*
X0027728Y0224099D01*
X0027827Y0224224D01*
X0027930Y0224346D01*
X0028036Y0224465D01*
X0028144Y0224582D01*
X0028256Y0224696D01*
X0028370Y0224808D01*
X0028487Y0224916D01*
X0028606Y0225022D01*
X0028728Y0225125D01*
X0028853Y0225224D01*
X0028980Y0225321D01*
X0029109Y0225414D01*
X0029241Y0225505D01*
X0029375Y0225592D01*
X0029510Y0225675D01*
X0029648Y0225756D01*
X0029788Y0225832D01*
X0029930Y0225906D01*
X0030073Y0225976D01*
X0030218Y0226042D01*
X0030365Y0226105D01*
X0030513Y0226164D01*
X0030662Y0226220D01*
X0030813Y0226272D01*
X0030965Y0226320D01*
X0031118Y0226365D01*
X0031273Y0226405D01*
X0031428Y0226442D01*
X0031584Y0226475D01*
X0031741Y0226504D01*
X0031898Y0226530D01*
X0032056Y0226551D01*
X0032215Y0226569D01*
X0032374Y0226582D01*
X0032533Y0226592D01*
X0032692Y0226598D01*
X0032852Y0226600D01*
X0033012Y0226598D01*
X0033171Y0226592D01*
X0033330Y0226582D01*
X0033489Y0226569D01*
X0033648Y0226551D01*
X0033806Y0226530D01*
X0033963Y0226504D01*
X0034120Y0226475D01*
X0034276Y0226442D01*
X0034431Y0226405D01*
X0034586Y0226365D01*
X0034739Y0226320D01*
X0034891Y0226272D01*
X0035042Y0226220D01*
X0035191Y0226164D01*
X0035339Y0226105D01*
X0035486Y0226042D01*
X0035631Y0225976D01*
X0035774Y0225906D01*
X0035916Y0225832D01*
X0036056Y0225756D01*
X0036194Y0225675D01*
X0036329Y0225592D01*
X0036463Y0225505D01*
X0036595Y0225414D01*
X0036724Y0225321D01*
X0036851Y0225224D01*
X0036976Y0225125D01*
X0037098Y0225022D01*
X0037217Y0224916D01*
X0037334Y0224808D01*
X0037448Y0224696D01*
X0037560Y0224582D01*
X0037668Y0224465D01*
X0037774Y0224346D01*
X0037877Y0224224D01*
X0037976Y0224099D01*
X0038073Y0223972D01*
X0038166Y0223843D01*
X0038257Y0223711D01*
X0038344Y0223577D01*
X0038427Y0223442D01*
X0038508Y0223304D01*
X0038584Y0223164D01*
X0038658Y0223022D01*
X0038728Y0222879D01*
X0038794Y0222734D01*
X0038857Y0222587D01*
X0038916Y0222439D01*
X0038972Y0222290D01*
X0039024Y0222139D01*
X0039072Y0221987D01*
X0039117Y0221834D01*
X0039157Y0221679D01*
X0039194Y0221524D01*
X0039227Y0221368D01*
X0039256Y0221211D01*
X0039282Y0221054D01*
X0039303Y0220896D01*
X0039321Y0220737D01*
X0039334Y0220578D01*
X0039344Y0220419D01*
X0039350Y0220260D01*
X0039352Y0220100D01*
X0020867Y0203200D02*
X0010467Y0203200D01*
X0010467Y0226600D01*
X0035467Y0081600D02*
X0035467Y0058200D01*
X0048467Y0058200D02*
X0048467Y0081600D01*
X0055242Y0081600D02*
X0060442Y0081600D01*
X0057842Y0081600D02*
X0057842Y0058200D01*
X0055242Y0058200D02*
X0060442Y0058200D01*
X0067217Y0063400D02*
X0067217Y0076400D01*
X0067219Y0076543D01*
X0067225Y0076686D01*
X0067235Y0076829D01*
X0067249Y0076972D01*
X0067266Y0077114D01*
X0067288Y0077256D01*
X0067313Y0077397D01*
X0067343Y0077537D01*
X0067376Y0077677D01*
X0067413Y0077815D01*
X0067454Y0077952D01*
X0067499Y0078088D01*
X0067547Y0078223D01*
X0067599Y0078357D01*
X0067655Y0078489D01*
X0067714Y0078619D01*
X0067777Y0078748D01*
X0067844Y0078875D01*
X0067914Y0079000D01*
X0067987Y0079123D01*
X0068064Y0079244D01*
X0068144Y0079363D01*
X0068227Y0079480D01*
X0068313Y0079594D01*
X0068403Y0079706D01*
X0068496Y0079815D01*
X0068591Y0079922D01*
X0068690Y0080026D01*
X0068791Y0080127D01*
X0068895Y0080226D01*
X0069002Y0080321D01*
X0069111Y0080414D01*
X0069223Y0080504D01*
X0069337Y0080590D01*
X0069454Y0080673D01*
X0069573Y0080753D01*
X0069694Y0080830D01*
X0069817Y0080903D01*
X0069942Y0080973D01*
X0070069Y0081040D01*
X0070198Y0081103D01*
X0070328Y0081162D01*
X0070460Y0081218D01*
X0070594Y0081270D01*
X0070729Y0081318D01*
X0070865Y0081363D01*
X0071002Y0081404D01*
X0071140Y0081441D01*
X0071280Y0081474D01*
X0071420Y0081504D01*
X0071561Y0081529D01*
X0071703Y0081551D01*
X0071845Y0081568D01*
X0071988Y0081582D01*
X0072131Y0081592D01*
X0072274Y0081598D01*
X0072417Y0081600D01*
X0080217Y0081600D01*
X0087537Y0081600D02*
X0087537Y0058200D01*
X0080217Y0058200D02*
X0072417Y0058200D01*
X0072274Y0058202D01*
X0072131Y0058208D01*
X0071988Y0058218D01*
X0071845Y0058232D01*
X0071703Y0058249D01*
X0071561Y0058271D01*
X0071420Y0058296D01*
X0071280Y0058326D01*
X0071140Y0058359D01*
X0071002Y0058396D01*
X0070865Y0058437D01*
X0070729Y0058482D01*
X0070594Y0058530D01*
X0070460Y0058582D01*
X0070328Y0058638D01*
X0070198Y0058697D01*
X0070069Y0058760D01*
X0069942Y0058827D01*
X0069817Y0058897D01*
X0069694Y0058970D01*
X0069573Y0059047D01*
X0069454Y0059127D01*
X0069337Y0059210D01*
X0069223Y0059296D01*
X0069111Y0059386D01*
X0069002Y0059479D01*
X0068895Y0059574D01*
X0068791Y0059673D01*
X0068690Y0059774D01*
X0068591Y0059878D01*
X0068496Y0059985D01*
X0068403Y0060094D01*
X0068313Y0060206D01*
X0068227Y0060320D01*
X0068144Y0060437D01*
X0068064Y0060556D01*
X0067987Y0060677D01*
X0067914Y0060800D01*
X0067844Y0060925D01*
X0067777Y0061052D01*
X0067714Y0061181D01*
X0067655Y0061311D01*
X0067599Y0061443D01*
X0067547Y0061577D01*
X0067499Y0061712D01*
X0067454Y0061848D01*
X0067413Y0061985D01*
X0067376Y0062123D01*
X0067343Y0062263D01*
X0067313Y0062403D01*
X0067288Y0062544D01*
X0067266Y0062686D01*
X0067249Y0062828D01*
X0067235Y0062971D01*
X0067225Y0063114D01*
X0067219Y0063257D01*
X0067217Y0063400D01*
X0076317Y0071200D02*
X0080217Y0071200D01*
X0080217Y0058200D01*
X0087537Y0071200D02*
X0100537Y0071200D01*
X0100537Y0081600D02*
X0100537Y0058200D01*
X0048467Y0071200D02*
X0035467Y0071200D01*
X0245467Y0081600D02*
X0253267Y0058200D01*
X0261067Y0081600D01*
X0265817Y0075100D02*
X0265817Y0064700D01*
X0265819Y0064540D01*
X0265825Y0064381D01*
X0265835Y0064222D01*
X0265848Y0064063D01*
X0265866Y0063904D01*
X0265887Y0063746D01*
X0265913Y0063589D01*
X0265942Y0063432D01*
X0265975Y0063276D01*
X0266012Y0063121D01*
X0266052Y0062966D01*
X0266097Y0062813D01*
X0266145Y0062661D01*
X0266197Y0062510D01*
X0266253Y0062361D01*
X0266312Y0062213D01*
X0266375Y0062066D01*
X0266441Y0061921D01*
X0266511Y0061778D01*
X0266585Y0061636D01*
X0266661Y0061496D01*
X0266742Y0061358D01*
X0266825Y0061223D01*
X0266912Y0061089D01*
X0267003Y0060957D01*
X0267096Y0060828D01*
X0267193Y0060701D01*
X0267292Y0060576D01*
X0267395Y0060454D01*
X0267501Y0060335D01*
X0267609Y0060218D01*
X0267721Y0060104D01*
X0267835Y0059992D01*
X0267952Y0059884D01*
X0268071Y0059778D01*
X0268193Y0059675D01*
X0268318Y0059576D01*
X0268445Y0059479D01*
X0268574Y0059386D01*
X0268706Y0059295D01*
X0268840Y0059208D01*
X0268975Y0059125D01*
X0269113Y0059044D01*
X0269253Y0058968D01*
X0269395Y0058894D01*
X0269538Y0058824D01*
X0269683Y0058758D01*
X0269830Y0058695D01*
X0269978Y0058636D01*
X0270127Y0058580D01*
X0270278Y0058528D01*
X0270430Y0058480D01*
X0270583Y0058435D01*
X0270738Y0058395D01*
X0270893Y0058358D01*
X0271049Y0058325D01*
X0271206Y0058296D01*
X0271363Y0058270D01*
X0271521Y0058249D01*
X0271680Y0058231D01*
X0271839Y0058218D01*
X0271998Y0058208D01*
X0272157Y0058202D01*
X0272317Y0058200D01*
X0272477Y0058202D01*
X0272636Y0058208D01*
X0272795Y0058218D01*
X0272954Y0058231D01*
X0273113Y0058249D01*
X0273271Y0058270D01*
X0273428Y0058296D01*
X0273585Y0058325D01*
X0273741Y0058358D01*
X0273896Y0058395D01*
X0274051Y0058435D01*
X0274204Y0058480D01*
X0274356Y0058528D01*
X0274507Y0058580D01*
X0274656Y0058636D01*
X0274804Y0058695D01*
X0274951Y0058758D01*
X0275096Y0058824D01*
X0275239Y0058894D01*
X0275381Y0058968D01*
X0275521Y0059044D01*
X0275659Y0059125D01*
X0275794Y0059208D01*
X0275928Y0059295D01*
X0276060Y0059386D01*
X0276189Y0059479D01*
X0276316Y0059576D01*
X0276441Y0059675D01*
X0276563Y0059778D01*
X0276682Y0059884D01*
X0276799Y0059992D01*
X0276913Y0060104D01*
X0277025Y0060218D01*
X0277133Y0060335D01*
X0277239Y0060454D01*
X0277342Y0060576D01*
X0277441Y0060701D01*
X0277538Y0060828D01*
X0277631Y0060957D01*
X0277722Y0061089D01*
X0277809Y0061223D01*
X0277892Y0061358D01*
X0277973Y0061496D01*
X0278049Y0061636D01*
X0278123Y0061778D01*
X0278193Y0061921D01*
X0278259Y0062066D01*
X0278322Y0062213D01*
X0278381Y0062361D01*
X0278437Y0062510D01*
X0278489Y0062661D01*
X0278537Y0062813D01*
X0278582Y0062966D01*
X0278622Y0063121D01*
X0278659Y0063276D01*
X0278692Y0063432D01*
X0278721Y0063589D01*
X0278747Y0063746D01*
X0278768Y0063904D01*
X0278786Y0064063D01*
X0278799Y0064222D01*
X0278809Y0064381D01*
X0278815Y0064540D01*
X0278817Y0064700D01*
X0278817Y0075100D01*
X0278815Y0075260D01*
X0278809Y0075419D01*
X0278799Y0075578D01*
X0278786Y0075737D01*
X0278768Y0075896D01*
X0278747Y0076054D01*
X0278721Y0076211D01*
X0278692Y0076368D01*
X0278659Y0076524D01*
X0278622Y0076679D01*
X0278582Y0076834D01*
X0278537Y0076987D01*
X0278489Y0077139D01*
X0278437Y0077290D01*
X0278381Y0077439D01*
X0278322Y0077587D01*
X0278259Y0077734D01*
X0278193Y0077879D01*
X0278123Y0078022D01*
X0278049Y0078164D01*
X0277973Y0078304D01*
X0277892Y0078442D01*
X0277809Y0078577D01*
X0277722Y0078711D01*
X0277631Y0078843D01*
X0277538Y0078972D01*
X0277441Y0079099D01*
X0277342Y0079224D01*
X0277239Y0079346D01*
X0277133Y0079465D01*
X0277025Y0079582D01*
X0276913Y0079696D01*
X0276799Y0079808D01*
X0276682Y0079916D01*
X0276563Y0080022D01*
X0276441Y0080125D01*
X0276316Y0080224D01*
X0276189Y0080321D01*
X0276060Y0080414D01*
X0275928Y0080505D01*
X0275794Y0080592D01*
X0275659Y0080675D01*
X0275521Y0080756D01*
X0275381Y0080832D01*
X0275239Y0080906D01*
X0275096Y0080976D01*
X0274951Y0081042D01*
X0274804Y0081105D01*
X0274656Y0081164D01*
X0274507Y0081220D01*
X0274356Y0081272D01*
X0274204Y0081320D01*
X0274051Y0081365D01*
X0273896Y0081405D01*
X0273741Y0081442D01*
X0273585Y0081475D01*
X0273428Y0081504D01*
X0273271Y0081530D01*
X0273113Y0081551D01*
X0272954Y0081569D01*
X0272795Y0081582D01*
X0272636Y0081592D01*
X0272477Y0081598D01*
X0272317Y0081600D01*
X0272157Y0081598D01*
X0271998Y0081592D01*
X0271839Y0081582D01*
X0271680Y0081569D01*
X0271521Y0081551D01*
X0271363Y0081530D01*
X0271206Y0081504D01*
X0271049Y0081475D01*
X0270893Y0081442D01*
X0270738Y0081405D01*
X0270583Y0081365D01*
X0270430Y0081320D01*
X0270278Y0081272D01*
X0270127Y0081220D01*
X0269978Y0081164D01*
X0269830Y0081105D01*
X0269683Y0081042D01*
X0269538Y0080976D01*
X0269395Y0080906D01*
X0269253Y0080832D01*
X0269113Y0080756D01*
X0268975Y0080675D01*
X0268840Y0080592D01*
X0268706Y0080505D01*
X0268574Y0080414D01*
X0268445Y0080321D01*
X0268318Y0080224D01*
X0268193Y0080125D01*
X0268071Y0080022D01*
X0267952Y0079916D01*
X0267835Y0079808D01*
X0267721Y0079696D01*
X0267609Y0079582D01*
X0267501Y0079465D01*
X0267395Y0079346D01*
X0267292Y0079224D01*
X0267193Y0079099D01*
X0267096Y0078972D01*
X0267003Y0078843D01*
X0266912Y0078711D01*
X0266825Y0078577D01*
X0266742Y0078442D01*
X0266661Y0078304D01*
X0266585Y0078164D01*
X0266511Y0078022D01*
X0266441Y0077879D01*
X0266375Y0077734D01*
X0266312Y0077587D01*
X0266253Y0077439D01*
X0266197Y0077290D01*
X0266145Y0077139D01*
X0266097Y0076987D01*
X0266052Y0076834D01*
X0266012Y0076679D01*
X0265975Y0076524D01*
X0265942Y0076368D01*
X0265913Y0076211D01*
X0265887Y0076054D01*
X0265866Y0075896D01*
X0265848Y0075737D01*
X0265835Y0075578D01*
X0265825Y0075419D01*
X0265819Y0075260D01*
X0265817Y0075100D01*
X0285492Y0081600D02*
X0285492Y0058200D01*
X0295892Y0058200D01*
X0306607Y0058200D02*
X0306607Y0081600D01*
X0300107Y0081600D02*
X0313107Y0081600D01*
X0324387Y0081600D02*
X0332187Y0058200D01*
X0330237Y0064050D02*
X0318537Y0064050D01*
X0316587Y0058200D02*
X0324387Y0081600D01*
X0337572Y0076400D02*
X0337572Y0063400D01*
X0337574Y0063257D01*
X0337580Y0063114D01*
X0337590Y0062971D01*
X0337604Y0062828D01*
X0337621Y0062686D01*
X0337643Y0062544D01*
X0337668Y0062403D01*
X0337698Y0062263D01*
X0337731Y0062123D01*
X0337768Y0061985D01*
X0337809Y0061848D01*
X0337854Y0061712D01*
X0337902Y0061577D01*
X0337954Y0061443D01*
X0338010Y0061311D01*
X0338069Y0061181D01*
X0338132Y0061052D01*
X0338199Y0060925D01*
X0338269Y0060800D01*
X0338342Y0060677D01*
X0338419Y0060556D01*
X0338499Y0060437D01*
X0338582Y0060320D01*
X0338668Y0060206D01*
X0338758Y0060094D01*
X0338851Y0059985D01*
X0338946Y0059878D01*
X0339045Y0059774D01*
X0339146Y0059673D01*
X0339250Y0059574D01*
X0339357Y0059479D01*
X0339466Y0059386D01*
X0339578Y0059296D01*
X0339692Y0059210D01*
X0339809Y0059127D01*
X0339928Y0059047D01*
X0340049Y0058970D01*
X0340172Y0058897D01*
X0340297Y0058827D01*
X0340424Y0058760D01*
X0340553Y0058697D01*
X0340683Y0058638D01*
X0340815Y0058582D01*
X0340949Y0058530D01*
X0341084Y0058482D01*
X0341220Y0058437D01*
X0341357Y0058396D01*
X0341495Y0058359D01*
X0341635Y0058326D01*
X0341775Y0058296D01*
X0341916Y0058271D01*
X0342058Y0058249D01*
X0342200Y0058232D01*
X0342343Y0058218D01*
X0342486Y0058208D01*
X0342629Y0058202D01*
X0342772Y0058200D01*
X0350572Y0058200D01*
X0350572Y0071200D01*
X0346672Y0071200D01*
X0337572Y0076400D02*
X0337574Y0076543D01*
X0337580Y0076686D01*
X0337590Y0076829D01*
X0337604Y0076972D01*
X0337621Y0077114D01*
X0337643Y0077256D01*
X0337668Y0077397D01*
X0337698Y0077537D01*
X0337731Y0077677D01*
X0337768Y0077815D01*
X0337809Y0077952D01*
X0337854Y0078088D01*
X0337902Y0078223D01*
X0337954Y0078357D01*
X0338010Y0078489D01*
X0338069Y0078619D01*
X0338132Y0078748D01*
X0338199Y0078875D01*
X0338269Y0079000D01*
X0338342Y0079123D01*
X0338419Y0079244D01*
X0338499Y0079363D01*
X0338582Y0079480D01*
X0338668Y0079594D01*
X0338758Y0079706D01*
X0338851Y0079815D01*
X0338946Y0079922D01*
X0339045Y0080026D01*
X0339146Y0080127D01*
X0339250Y0080226D01*
X0339357Y0080321D01*
X0339466Y0080414D01*
X0339578Y0080504D01*
X0339692Y0080590D01*
X0339809Y0080673D01*
X0339928Y0080753D01*
X0340049Y0080830D01*
X0340172Y0080903D01*
X0340297Y0080973D01*
X0340424Y0081040D01*
X0340553Y0081103D01*
X0340683Y0081162D01*
X0340815Y0081218D01*
X0340949Y0081270D01*
X0341084Y0081318D01*
X0341220Y0081363D01*
X0341357Y0081404D01*
X0341495Y0081441D01*
X0341635Y0081474D01*
X0341775Y0081504D01*
X0341916Y0081529D01*
X0342058Y0081551D01*
X0342200Y0081568D01*
X0342343Y0081582D01*
X0342486Y0081592D01*
X0342629Y0081598D01*
X0342772Y0081600D01*
X0350572Y0081600D01*
X0357882Y0081600D02*
X0368282Y0081600D01*
X0357882Y0081600D02*
X0357882Y0058200D01*
X0368282Y0058200D01*
X0365682Y0071200D02*
X0357882Y0071200D01*
D12*
X0379467Y0252200D03*
X0329467Y0252200D03*
X0299467Y0252200D03*
X0309467Y0292200D03*
X0289467Y0292200D03*
X0244467Y0277200D03*
X0224467Y0277200D03*
X0209467Y0252200D03*
X0249467Y0252200D03*
X0184467Y0292200D03*
X0164467Y0292200D03*
X0159467Y0252200D03*
X0074467Y0262200D03*
X0024467Y0262200D03*
D13*
X0033217Y0269950D02*
X0033217Y0274450D01*
X0034467Y0274450D01*
X0034536Y0274448D01*
X0034605Y0274442D01*
X0034673Y0274433D01*
X0034740Y0274420D01*
X0034807Y0274403D01*
X0034873Y0274382D01*
X0034937Y0274358D01*
X0035000Y0274330D01*
X0035062Y0274299D01*
X0035122Y0274265D01*
X0035179Y0274227D01*
X0035235Y0274186D01*
X0035288Y0274143D01*
X0035339Y0274096D01*
X0035387Y0274047D01*
X0035432Y0273995D01*
X0035474Y0273940D01*
X0035513Y0273884D01*
X0035550Y0273825D01*
X0035582Y0273764D01*
X0035612Y0273702D01*
X0035638Y0273638D01*
X0035660Y0273573D01*
X0035679Y0273507D01*
X0035694Y0273440D01*
X0035705Y0273372D01*
X0035713Y0273303D01*
X0035717Y0273234D01*
X0035717Y0273166D01*
X0035713Y0273097D01*
X0035705Y0273028D01*
X0035694Y0272960D01*
X0035679Y0272893D01*
X0035660Y0272827D01*
X0035638Y0272762D01*
X0035612Y0272698D01*
X0035582Y0272636D01*
X0035550Y0272575D01*
X0035513Y0272516D01*
X0035474Y0272460D01*
X0035432Y0272405D01*
X0035387Y0272353D01*
X0035339Y0272304D01*
X0035288Y0272257D01*
X0035235Y0272214D01*
X0035179Y0272173D01*
X0035122Y0272135D01*
X0035062Y0272101D01*
X0035000Y0272070D01*
X0034937Y0272042D01*
X0034873Y0272018D01*
X0034807Y0271997D01*
X0034740Y0271980D01*
X0034673Y0271967D01*
X0034605Y0271958D01*
X0034536Y0271952D01*
X0034467Y0271950D01*
X0033217Y0271950D01*
X0034717Y0271950D02*
X0035717Y0269950D01*
X0037684Y0269950D02*
X0040184Y0269950D01*
X0038934Y0269950D02*
X0038934Y0274450D01*
X0037684Y0273450D01*
X0037217Y0262250D02*
X0037217Y0261000D01*
X0037219Y0260931D01*
X0037225Y0260862D01*
X0037234Y0260794D01*
X0037247Y0260727D01*
X0037264Y0260660D01*
X0037285Y0260594D01*
X0037309Y0260530D01*
X0037337Y0260467D01*
X0037368Y0260405D01*
X0037402Y0260345D01*
X0037440Y0260288D01*
X0037481Y0260232D01*
X0037524Y0260179D01*
X0037571Y0260128D01*
X0037620Y0260080D01*
X0037672Y0260035D01*
X0037727Y0259993D01*
X0037783Y0259954D01*
X0037842Y0259917D01*
X0037903Y0259885D01*
X0037965Y0259855D01*
X0038029Y0259829D01*
X0038094Y0259807D01*
X0038160Y0259788D01*
X0038227Y0259773D01*
X0038295Y0259762D01*
X0038364Y0259754D01*
X0038433Y0259750D01*
X0038501Y0259750D01*
X0038570Y0259754D01*
X0038639Y0259762D01*
X0038707Y0259773D01*
X0038774Y0259788D01*
X0038840Y0259807D01*
X0038905Y0259829D01*
X0038969Y0259855D01*
X0039031Y0259885D01*
X0039092Y0259917D01*
X0039151Y0259954D01*
X0039207Y0259993D01*
X0039262Y0260035D01*
X0039314Y0260080D01*
X0039363Y0260128D01*
X0039410Y0260179D01*
X0039453Y0260232D01*
X0039494Y0260288D01*
X0039532Y0260345D01*
X0039566Y0260405D01*
X0039597Y0260467D01*
X0039625Y0260530D01*
X0039649Y0260594D01*
X0039670Y0260660D01*
X0039687Y0260727D01*
X0039700Y0260794D01*
X0039709Y0260862D01*
X0039715Y0260931D01*
X0039717Y0261000D01*
X0039717Y0261250D01*
X0039715Y0261310D01*
X0039710Y0261371D01*
X0039701Y0261430D01*
X0039688Y0261489D01*
X0039672Y0261548D01*
X0039652Y0261605D01*
X0039629Y0261660D01*
X0039602Y0261715D01*
X0039573Y0261767D01*
X0039540Y0261818D01*
X0039504Y0261867D01*
X0039466Y0261913D01*
X0039424Y0261957D01*
X0039380Y0261999D01*
X0039334Y0262037D01*
X0039285Y0262073D01*
X0039234Y0262106D01*
X0039182Y0262135D01*
X0039127Y0262162D01*
X0039072Y0262185D01*
X0039015Y0262205D01*
X0038956Y0262221D01*
X0038897Y0262234D01*
X0038838Y0262243D01*
X0038777Y0262248D01*
X0038717Y0262250D01*
X0037217Y0262250D01*
X0037219Y0262337D01*
X0037225Y0262424D01*
X0037234Y0262511D01*
X0037247Y0262597D01*
X0037264Y0262683D01*
X0037285Y0262768D01*
X0037310Y0262851D01*
X0037338Y0262934D01*
X0037369Y0263015D01*
X0037404Y0263095D01*
X0037443Y0263173D01*
X0037485Y0263250D01*
X0037530Y0263325D01*
X0037579Y0263397D01*
X0037630Y0263468D01*
X0037685Y0263536D01*
X0037742Y0263601D01*
X0037803Y0263664D01*
X0037866Y0263725D01*
X0037931Y0263782D01*
X0037999Y0263837D01*
X0038070Y0263888D01*
X0038142Y0263937D01*
X0038217Y0263982D01*
X0038294Y0264024D01*
X0038372Y0264063D01*
X0038452Y0264098D01*
X0038533Y0264129D01*
X0038616Y0264157D01*
X0038699Y0264182D01*
X0038784Y0264203D01*
X0038870Y0264220D01*
X0038956Y0264233D01*
X0039043Y0264242D01*
X0039130Y0264248D01*
X0039217Y0264250D01*
X0041717Y0262250D02*
X0041717Y0261000D01*
X0041719Y0260931D01*
X0041725Y0260862D01*
X0041734Y0260794D01*
X0041747Y0260727D01*
X0041764Y0260660D01*
X0041785Y0260594D01*
X0041809Y0260530D01*
X0041837Y0260467D01*
X0041868Y0260405D01*
X0041902Y0260345D01*
X0041940Y0260288D01*
X0041981Y0260232D01*
X0042024Y0260179D01*
X0042071Y0260128D01*
X0042120Y0260080D01*
X0042172Y0260035D01*
X0042227Y0259993D01*
X0042283Y0259954D01*
X0042342Y0259917D01*
X0042403Y0259885D01*
X0042465Y0259855D01*
X0042529Y0259829D01*
X0042594Y0259807D01*
X0042660Y0259788D01*
X0042727Y0259773D01*
X0042795Y0259762D01*
X0042864Y0259754D01*
X0042933Y0259750D01*
X0043001Y0259750D01*
X0043070Y0259754D01*
X0043139Y0259762D01*
X0043207Y0259773D01*
X0043274Y0259788D01*
X0043340Y0259807D01*
X0043405Y0259829D01*
X0043469Y0259855D01*
X0043531Y0259885D01*
X0043592Y0259917D01*
X0043651Y0259954D01*
X0043707Y0259993D01*
X0043762Y0260035D01*
X0043814Y0260080D01*
X0043863Y0260128D01*
X0043910Y0260179D01*
X0043953Y0260232D01*
X0043994Y0260288D01*
X0044032Y0260345D01*
X0044066Y0260405D01*
X0044097Y0260467D01*
X0044125Y0260530D01*
X0044149Y0260594D01*
X0044170Y0260660D01*
X0044187Y0260727D01*
X0044200Y0260794D01*
X0044209Y0260862D01*
X0044215Y0260931D01*
X0044217Y0261000D01*
X0044217Y0261250D01*
X0044215Y0261310D01*
X0044210Y0261371D01*
X0044201Y0261430D01*
X0044188Y0261489D01*
X0044172Y0261548D01*
X0044152Y0261605D01*
X0044129Y0261660D01*
X0044102Y0261715D01*
X0044073Y0261767D01*
X0044040Y0261818D01*
X0044004Y0261867D01*
X0043966Y0261913D01*
X0043924Y0261957D01*
X0043880Y0261999D01*
X0043834Y0262037D01*
X0043785Y0262073D01*
X0043734Y0262106D01*
X0043682Y0262135D01*
X0043627Y0262162D01*
X0043572Y0262185D01*
X0043515Y0262205D01*
X0043456Y0262221D01*
X0043397Y0262234D01*
X0043338Y0262243D01*
X0043277Y0262248D01*
X0043217Y0262250D01*
X0041717Y0262250D01*
X0041719Y0262337D01*
X0041725Y0262424D01*
X0041734Y0262511D01*
X0041747Y0262597D01*
X0041764Y0262683D01*
X0041785Y0262768D01*
X0041810Y0262851D01*
X0041838Y0262934D01*
X0041869Y0263015D01*
X0041904Y0263095D01*
X0041943Y0263173D01*
X0041985Y0263250D01*
X0042030Y0263325D01*
X0042079Y0263397D01*
X0042130Y0263468D01*
X0042185Y0263536D01*
X0042242Y0263601D01*
X0042303Y0263664D01*
X0042366Y0263725D01*
X0042431Y0263782D01*
X0042499Y0263837D01*
X0042570Y0263888D01*
X0042642Y0263937D01*
X0042717Y0263982D01*
X0042794Y0264024D01*
X0042872Y0264063D01*
X0042952Y0264098D01*
X0043033Y0264129D01*
X0043116Y0264157D01*
X0043199Y0264182D01*
X0043284Y0264203D01*
X0043370Y0264220D01*
X0043456Y0264233D01*
X0043543Y0264242D01*
X0043630Y0264248D01*
X0043717Y0264250D01*
X0046377Y0264250D02*
X0046377Y0259750D01*
X0046377Y0261250D02*
X0048377Y0262750D01*
X0047252Y0261875D02*
X0048377Y0259750D01*
X0053217Y0292950D02*
X0054467Y0292950D01*
X0054535Y0292952D01*
X0054602Y0292957D01*
X0054669Y0292966D01*
X0054736Y0292979D01*
X0054801Y0292996D01*
X0054866Y0293015D01*
X0054930Y0293039D01*
X0054992Y0293066D01*
X0055053Y0293096D01*
X0055111Y0293129D01*
X0055168Y0293165D01*
X0055223Y0293205D01*
X0055276Y0293247D01*
X0055327Y0293293D01*
X0055374Y0293340D01*
X0055420Y0293391D01*
X0055462Y0293444D01*
X0055502Y0293499D01*
X0055538Y0293556D01*
X0055571Y0293614D01*
X0055601Y0293675D01*
X0055628Y0293737D01*
X0055652Y0293801D01*
X0055671Y0293866D01*
X0055688Y0293931D01*
X0055701Y0293998D01*
X0055710Y0294065D01*
X0055715Y0294132D01*
X0055717Y0294200D01*
X0055717Y0296200D01*
X0055715Y0296268D01*
X0055710Y0296335D01*
X0055701Y0296402D01*
X0055688Y0296469D01*
X0055671Y0296534D01*
X0055652Y0296599D01*
X0055628Y0296663D01*
X0055601Y0296725D01*
X0055571Y0296786D01*
X0055538Y0296844D01*
X0055502Y0296901D01*
X0055462Y0296956D01*
X0055420Y0297009D01*
X0055374Y0297060D01*
X0055327Y0297107D01*
X0055276Y0297153D01*
X0055223Y0297195D01*
X0055168Y0297235D01*
X0055111Y0297271D01*
X0055053Y0297304D01*
X0054992Y0297334D01*
X0054930Y0297361D01*
X0054866Y0297385D01*
X0054801Y0297404D01*
X0054736Y0297421D01*
X0054669Y0297434D01*
X0054602Y0297443D01*
X0054535Y0297448D01*
X0054467Y0297450D01*
X0053217Y0297450D01*
X0053217Y0292950D01*
X0057867Y0292950D02*
X0059367Y0292950D01*
X0059427Y0292952D01*
X0059488Y0292957D01*
X0059547Y0292966D01*
X0059606Y0292979D01*
X0059665Y0292995D01*
X0059722Y0293015D01*
X0059777Y0293038D01*
X0059832Y0293065D01*
X0059884Y0293094D01*
X0059935Y0293127D01*
X0059984Y0293163D01*
X0060030Y0293201D01*
X0060074Y0293243D01*
X0060116Y0293287D01*
X0060154Y0293333D01*
X0060190Y0293382D01*
X0060223Y0293433D01*
X0060252Y0293485D01*
X0060279Y0293540D01*
X0060302Y0293595D01*
X0060322Y0293652D01*
X0060338Y0293711D01*
X0060351Y0293770D01*
X0060360Y0293829D01*
X0060365Y0293890D01*
X0060367Y0293950D01*
X0060367Y0294450D01*
X0060365Y0294510D01*
X0060360Y0294571D01*
X0060351Y0294630D01*
X0060338Y0294689D01*
X0060322Y0294748D01*
X0060302Y0294805D01*
X0060279Y0294860D01*
X0060252Y0294915D01*
X0060223Y0294967D01*
X0060190Y0295018D01*
X0060154Y0295067D01*
X0060116Y0295113D01*
X0060074Y0295157D01*
X0060030Y0295199D01*
X0059984Y0295237D01*
X0059935Y0295273D01*
X0059884Y0295306D01*
X0059832Y0295335D01*
X0059777Y0295362D01*
X0059722Y0295385D01*
X0059665Y0295405D01*
X0059606Y0295421D01*
X0059547Y0295434D01*
X0059488Y0295443D01*
X0059427Y0295448D01*
X0059367Y0295450D01*
X0057867Y0295450D01*
X0057867Y0297450D01*
X0060367Y0297450D01*
X0100717Y0259450D02*
X0100717Y0254950D01*
X0102717Y0254950D01*
X0104657Y0254950D02*
X0104657Y0259450D01*
X0106157Y0256950D01*
X0107657Y0259450D01*
X0107657Y0254950D01*
X0109857Y0254950D02*
X0111357Y0254950D01*
X0111417Y0254952D01*
X0111478Y0254957D01*
X0111537Y0254966D01*
X0111596Y0254979D01*
X0111655Y0254995D01*
X0111712Y0255015D01*
X0111767Y0255038D01*
X0111822Y0255065D01*
X0111874Y0255094D01*
X0111925Y0255127D01*
X0111974Y0255163D01*
X0112020Y0255201D01*
X0112064Y0255243D01*
X0112106Y0255287D01*
X0112144Y0255333D01*
X0112180Y0255382D01*
X0112213Y0255433D01*
X0112242Y0255485D01*
X0112269Y0255540D01*
X0112292Y0255595D01*
X0112312Y0255652D01*
X0112328Y0255711D01*
X0112341Y0255770D01*
X0112350Y0255829D01*
X0112355Y0255890D01*
X0112357Y0255950D01*
X0112357Y0256450D01*
X0112355Y0256510D01*
X0112350Y0256571D01*
X0112341Y0256630D01*
X0112328Y0256689D01*
X0112312Y0256748D01*
X0112292Y0256805D01*
X0112269Y0256860D01*
X0112242Y0256915D01*
X0112213Y0256967D01*
X0112180Y0257018D01*
X0112144Y0257067D01*
X0112106Y0257113D01*
X0112064Y0257157D01*
X0112020Y0257199D01*
X0111974Y0257237D01*
X0111925Y0257273D01*
X0111874Y0257306D01*
X0111822Y0257335D01*
X0111767Y0257362D01*
X0111712Y0257385D01*
X0111655Y0257405D01*
X0111596Y0257421D01*
X0111537Y0257434D01*
X0111478Y0257443D01*
X0111417Y0257448D01*
X0111357Y0257450D01*
X0109857Y0257450D01*
X0109857Y0259450D01*
X0112357Y0259450D01*
X0114357Y0259450D02*
X0116857Y0259450D01*
X0118857Y0259450D02*
X0121357Y0259450D01*
X0123507Y0259450D02*
X0126007Y0254950D01*
X0126007Y0259450D01*
X0123507Y0259450D02*
X0123507Y0254950D01*
X0121357Y0255950D02*
X0121357Y0256450D01*
X0121355Y0256510D01*
X0121350Y0256571D01*
X0121341Y0256630D01*
X0121328Y0256689D01*
X0121312Y0256748D01*
X0121292Y0256805D01*
X0121269Y0256860D01*
X0121242Y0256915D01*
X0121213Y0256967D01*
X0121180Y0257018D01*
X0121144Y0257067D01*
X0121106Y0257113D01*
X0121064Y0257157D01*
X0121020Y0257199D01*
X0120974Y0257237D01*
X0120925Y0257273D01*
X0120874Y0257306D01*
X0120822Y0257335D01*
X0120767Y0257362D01*
X0120712Y0257385D01*
X0120655Y0257405D01*
X0120596Y0257421D01*
X0120537Y0257434D01*
X0120478Y0257443D01*
X0120417Y0257448D01*
X0120357Y0257450D01*
X0118857Y0257450D01*
X0118857Y0259450D01*
X0116857Y0256450D02*
X0116857Y0255950D01*
X0116855Y0255890D01*
X0116850Y0255829D01*
X0116841Y0255770D01*
X0116828Y0255711D01*
X0116812Y0255652D01*
X0116792Y0255595D01*
X0116769Y0255540D01*
X0116742Y0255485D01*
X0116713Y0255433D01*
X0116680Y0255382D01*
X0116644Y0255333D01*
X0116606Y0255287D01*
X0116564Y0255243D01*
X0116520Y0255201D01*
X0116474Y0255163D01*
X0116425Y0255127D01*
X0116374Y0255094D01*
X0116322Y0255065D01*
X0116267Y0255038D01*
X0116212Y0255015D01*
X0116155Y0254995D01*
X0116096Y0254979D01*
X0116037Y0254966D01*
X0115978Y0254957D01*
X0115917Y0254952D01*
X0115857Y0254950D01*
X0114357Y0254950D01*
X0116857Y0256450D02*
X0116855Y0256510D01*
X0116850Y0256571D01*
X0116841Y0256630D01*
X0116828Y0256689D01*
X0116812Y0256748D01*
X0116792Y0256805D01*
X0116769Y0256860D01*
X0116742Y0256915D01*
X0116713Y0256967D01*
X0116680Y0257018D01*
X0116644Y0257067D01*
X0116606Y0257113D01*
X0116564Y0257157D01*
X0116520Y0257199D01*
X0116474Y0257237D01*
X0116425Y0257273D01*
X0116374Y0257306D01*
X0116322Y0257335D01*
X0116267Y0257362D01*
X0116212Y0257385D01*
X0116155Y0257405D01*
X0116096Y0257421D01*
X0116037Y0257434D01*
X0115978Y0257443D01*
X0115917Y0257448D01*
X0115857Y0257450D01*
X0114357Y0257450D01*
X0114357Y0259450D01*
X0118857Y0254950D02*
X0120357Y0254950D01*
X0120417Y0254952D01*
X0120478Y0254957D01*
X0120537Y0254966D01*
X0120596Y0254979D01*
X0120655Y0254995D01*
X0120712Y0255015D01*
X0120767Y0255038D01*
X0120822Y0255065D01*
X0120874Y0255094D01*
X0120925Y0255127D01*
X0120974Y0255163D01*
X0121020Y0255201D01*
X0121064Y0255243D01*
X0121106Y0255287D01*
X0121144Y0255333D01*
X0121180Y0255382D01*
X0121213Y0255433D01*
X0121242Y0255485D01*
X0121269Y0255540D01*
X0121292Y0255595D01*
X0121312Y0255652D01*
X0121328Y0255711D01*
X0121341Y0255770D01*
X0121350Y0255829D01*
X0121355Y0255890D01*
X0121357Y0255950D01*
X0093217Y0255050D02*
X0093217Y0252550D01*
X0093217Y0253800D02*
X0088717Y0253800D01*
X0089717Y0252550D01*
X0088717Y0250785D02*
X0088717Y0249785D01*
X0088719Y0249725D01*
X0088724Y0249664D01*
X0088733Y0249605D01*
X0088746Y0249546D01*
X0088762Y0249487D01*
X0088782Y0249430D01*
X0088805Y0249375D01*
X0088832Y0249320D01*
X0088861Y0249268D01*
X0088894Y0249217D01*
X0088930Y0249168D01*
X0088968Y0249122D01*
X0089010Y0249078D01*
X0089054Y0249036D01*
X0089100Y0248998D01*
X0089149Y0248962D01*
X0089200Y0248929D01*
X0089252Y0248900D01*
X0089307Y0248873D01*
X0089362Y0248850D01*
X0089419Y0248830D01*
X0089478Y0248814D01*
X0089537Y0248801D01*
X0089596Y0248792D01*
X0089657Y0248787D01*
X0089717Y0248785D01*
X0092217Y0248785D01*
X0092277Y0248787D01*
X0092338Y0248792D01*
X0092397Y0248801D01*
X0092456Y0248814D01*
X0092515Y0248830D01*
X0092572Y0248850D01*
X0092627Y0248873D01*
X0092682Y0248900D01*
X0092734Y0248929D01*
X0092785Y0248962D01*
X0092834Y0248998D01*
X0092880Y0249036D01*
X0092924Y0249078D01*
X0092966Y0249122D01*
X0093004Y0249168D01*
X0093040Y0249217D01*
X0093073Y0249268D01*
X0093102Y0249320D01*
X0093129Y0249375D01*
X0093152Y0249430D01*
X0093172Y0249487D01*
X0093188Y0249546D01*
X0093201Y0249605D01*
X0093210Y0249664D01*
X0093215Y0249725D01*
X0093217Y0249785D01*
X0093217Y0250785D01*
X0093217Y0246950D02*
X0093217Y0245950D01*
X0093217Y0246450D02*
X0088717Y0246450D01*
X0088717Y0245950D02*
X0088717Y0246950D01*
X0164341Y0281575D02*
X0164392Y0281684D01*
X0164439Y0281794D01*
X0164483Y0281906D01*
X0164523Y0282020D01*
X0164559Y0282134D01*
X0164592Y0282250D01*
X0164621Y0282366D01*
X0164646Y0282484D01*
X0164667Y0282602D01*
X0164685Y0282721D01*
X0164698Y0282840D01*
X0164708Y0282960D01*
X0164714Y0283080D01*
X0164716Y0283200D01*
X0162217Y0283200D02*
X0162219Y0283080D01*
X0162225Y0282960D01*
X0162235Y0282840D01*
X0162248Y0282721D01*
X0162266Y0282602D01*
X0162287Y0282484D01*
X0162312Y0282366D01*
X0162341Y0282250D01*
X0162374Y0282134D01*
X0162410Y0282020D01*
X0162450Y0281906D01*
X0162494Y0281794D01*
X0162541Y0281684D01*
X0162592Y0281575D01*
X0162467Y0281950D02*
X0164467Y0284450D01*
X0164342Y0284825D02*
X0164321Y0284881D01*
X0164295Y0284936D01*
X0164267Y0284990D01*
X0164235Y0285041D01*
X0164200Y0285090D01*
X0164161Y0285136D01*
X0164120Y0285180D01*
X0164076Y0285222D01*
X0164029Y0285260D01*
X0163980Y0285295D01*
X0163928Y0285327D01*
X0163875Y0285355D01*
X0163820Y0285380D01*
X0163764Y0285401D01*
X0163706Y0285419D01*
X0163647Y0285432D01*
X0163587Y0285442D01*
X0163527Y0285448D01*
X0163467Y0285450D01*
X0163407Y0285448D01*
X0163347Y0285442D01*
X0163287Y0285432D01*
X0163228Y0285419D01*
X0163170Y0285401D01*
X0163114Y0285380D01*
X0163059Y0285355D01*
X0163006Y0285327D01*
X0162954Y0285295D01*
X0162905Y0285260D01*
X0162858Y0285222D01*
X0162814Y0285180D01*
X0162773Y0285136D01*
X0162734Y0285090D01*
X0162699Y0285041D01*
X0162667Y0284990D01*
X0162639Y0284936D01*
X0162613Y0284881D01*
X0162592Y0284825D01*
X0164341Y0284825D02*
X0164392Y0284716D01*
X0164439Y0284606D01*
X0164483Y0284494D01*
X0164523Y0284380D01*
X0164559Y0284266D01*
X0164592Y0284150D01*
X0164621Y0284034D01*
X0164646Y0283916D01*
X0164667Y0283798D01*
X0164685Y0283679D01*
X0164698Y0283560D01*
X0164708Y0283440D01*
X0164714Y0283320D01*
X0164716Y0283200D01*
X0162217Y0283200D02*
X0162219Y0283320D01*
X0162225Y0283440D01*
X0162235Y0283560D01*
X0162248Y0283679D01*
X0162266Y0283798D01*
X0162287Y0283916D01*
X0162312Y0284034D01*
X0162341Y0284150D01*
X0162374Y0284266D01*
X0162410Y0284380D01*
X0162450Y0284494D01*
X0162494Y0284606D01*
X0162541Y0284716D01*
X0162592Y0284825D01*
X0164342Y0281575D02*
X0164321Y0281519D01*
X0164295Y0281464D01*
X0164267Y0281410D01*
X0164235Y0281359D01*
X0164200Y0281310D01*
X0164161Y0281264D01*
X0164120Y0281220D01*
X0164076Y0281178D01*
X0164029Y0281140D01*
X0163980Y0281105D01*
X0163928Y0281073D01*
X0163875Y0281045D01*
X0163820Y0281020D01*
X0163764Y0280999D01*
X0163706Y0280981D01*
X0163647Y0280968D01*
X0163587Y0280958D01*
X0163527Y0280952D01*
X0163467Y0280950D01*
X0163407Y0280952D01*
X0163347Y0280958D01*
X0163287Y0280968D01*
X0163228Y0280981D01*
X0163170Y0280999D01*
X0163114Y0281020D01*
X0163059Y0281045D01*
X0163006Y0281073D01*
X0162954Y0281105D01*
X0162905Y0281140D01*
X0162858Y0281178D01*
X0162814Y0281220D01*
X0162773Y0281264D01*
X0162734Y0281310D01*
X0162699Y0281359D01*
X0162667Y0281410D01*
X0162639Y0281464D01*
X0162613Y0281519D01*
X0162592Y0281575D01*
X0166492Y0281200D02*
X0166742Y0281200D01*
X0166742Y0280950D01*
X0166492Y0280950D01*
X0166492Y0281200D01*
X0168517Y0280950D02*
X0171017Y0280950D01*
X0169767Y0280950D02*
X0169767Y0285450D01*
X0168517Y0284450D01*
X0173017Y0285450D02*
X0175517Y0285450D01*
X0174517Y0283450D02*
X0173017Y0283450D01*
X0173017Y0285450D01*
X0174517Y0283450D02*
X0174577Y0283448D01*
X0174638Y0283443D01*
X0174697Y0283434D01*
X0174756Y0283421D01*
X0174815Y0283405D01*
X0174872Y0283385D01*
X0174927Y0283362D01*
X0174982Y0283335D01*
X0175034Y0283306D01*
X0175085Y0283273D01*
X0175134Y0283237D01*
X0175180Y0283199D01*
X0175224Y0283157D01*
X0175266Y0283113D01*
X0175304Y0283067D01*
X0175340Y0283018D01*
X0175373Y0282967D01*
X0175402Y0282915D01*
X0175429Y0282860D01*
X0175452Y0282805D01*
X0175472Y0282748D01*
X0175488Y0282689D01*
X0175501Y0282630D01*
X0175510Y0282571D01*
X0175515Y0282510D01*
X0175517Y0282450D01*
X0175517Y0281950D01*
X0175515Y0281890D01*
X0175510Y0281829D01*
X0175501Y0281770D01*
X0175488Y0281711D01*
X0175472Y0281652D01*
X0175452Y0281595D01*
X0175429Y0281540D01*
X0175402Y0281485D01*
X0175373Y0281433D01*
X0175340Y0281382D01*
X0175304Y0281333D01*
X0175266Y0281287D01*
X0175224Y0281243D01*
X0175180Y0281201D01*
X0175134Y0281163D01*
X0175085Y0281127D01*
X0175034Y0281094D01*
X0174982Y0281065D01*
X0174927Y0281038D01*
X0174872Y0281015D01*
X0174815Y0280995D01*
X0174756Y0280979D01*
X0174697Y0280966D01*
X0174638Y0280957D01*
X0174577Y0280952D01*
X0174517Y0280950D01*
X0173017Y0280950D01*
X0177617Y0281700D02*
X0177617Y0283950D01*
X0179617Y0283950D02*
X0179617Y0280950D01*
X0178367Y0280950D01*
X0178313Y0280952D01*
X0178260Y0280958D01*
X0178208Y0280967D01*
X0178156Y0280980D01*
X0178105Y0280997D01*
X0178055Y0281018D01*
X0178008Y0281042D01*
X0177962Y0281069D01*
X0177918Y0281100D01*
X0177876Y0281133D01*
X0177837Y0281170D01*
X0177800Y0281209D01*
X0177767Y0281251D01*
X0177736Y0281295D01*
X0177709Y0281341D01*
X0177685Y0281388D01*
X0177664Y0281438D01*
X0177647Y0281489D01*
X0177634Y0281541D01*
X0177625Y0281593D01*
X0177619Y0281646D01*
X0177617Y0281700D01*
X0174059Y0264450D02*
X0174124Y0264448D01*
X0174190Y0264442D01*
X0174254Y0264433D01*
X0174318Y0264420D01*
X0174382Y0264403D01*
X0174444Y0264382D01*
X0174505Y0264358D01*
X0174564Y0264330D01*
X0174622Y0264299D01*
X0174677Y0264265D01*
X0174731Y0264227D01*
X0174782Y0264187D01*
X0174831Y0264143D01*
X0174877Y0264097D01*
X0174921Y0264048D01*
X0174961Y0263997D01*
X0174999Y0263943D01*
X0175033Y0263888D01*
X0175064Y0263830D01*
X0175092Y0263771D01*
X0175116Y0263710D01*
X0175137Y0263648D01*
X0175154Y0263584D01*
X0175167Y0263520D01*
X0175176Y0263456D01*
X0175182Y0263390D01*
X0175184Y0263325D01*
X0174809Y0262450D02*
X0172684Y0259950D01*
X0175184Y0259950D01*
X0172684Y0263450D02*
X0172708Y0263519D01*
X0172736Y0263586D01*
X0172767Y0263652D01*
X0172801Y0263716D01*
X0172838Y0263778D01*
X0172879Y0263839D01*
X0172922Y0263897D01*
X0172968Y0263953D01*
X0173018Y0264007D01*
X0173069Y0264058D01*
X0173123Y0264106D01*
X0173180Y0264152D01*
X0173239Y0264195D01*
X0173300Y0264234D01*
X0173362Y0264271D01*
X0173427Y0264304D01*
X0173493Y0264335D01*
X0173561Y0264361D01*
X0173629Y0264385D01*
X0173699Y0264405D01*
X0173770Y0264421D01*
X0173842Y0264434D01*
X0173914Y0264443D01*
X0173986Y0264448D01*
X0174059Y0264450D01*
X0175184Y0263325D02*
X0175182Y0263260D01*
X0175177Y0263195D01*
X0175168Y0263130D01*
X0175156Y0263066D01*
X0175140Y0263003D01*
X0175121Y0262941D01*
X0175099Y0262879D01*
X0175073Y0262819D01*
X0175044Y0262761D01*
X0175012Y0262704D01*
X0174977Y0262649D01*
X0174939Y0262596D01*
X0174899Y0262545D01*
X0174855Y0262496D01*
X0174809Y0262450D01*
X0170717Y0259950D02*
X0169717Y0261950D01*
X0169467Y0261950D02*
X0168217Y0261950D01*
X0169467Y0261950D02*
X0169536Y0261952D01*
X0169605Y0261958D01*
X0169673Y0261967D01*
X0169740Y0261980D01*
X0169807Y0261997D01*
X0169873Y0262018D01*
X0169937Y0262042D01*
X0170000Y0262070D01*
X0170062Y0262101D01*
X0170122Y0262135D01*
X0170179Y0262173D01*
X0170235Y0262214D01*
X0170288Y0262257D01*
X0170339Y0262304D01*
X0170387Y0262353D01*
X0170432Y0262405D01*
X0170474Y0262460D01*
X0170513Y0262516D01*
X0170550Y0262575D01*
X0170582Y0262636D01*
X0170612Y0262698D01*
X0170638Y0262762D01*
X0170660Y0262827D01*
X0170679Y0262893D01*
X0170694Y0262960D01*
X0170705Y0263028D01*
X0170713Y0263097D01*
X0170717Y0263166D01*
X0170717Y0263234D01*
X0170713Y0263303D01*
X0170705Y0263372D01*
X0170694Y0263440D01*
X0170679Y0263507D01*
X0170660Y0263573D01*
X0170638Y0263638D01*
X0170612Y0263702D01*
X0170582Y0263764D01*
X0170550Y0263825D01*
X0170513Y0263884D01*
X0170474Y0263940D01*
X0170432Y0263995D01*
X0170387Y0264047D01*
X0170339Y0264096D01*
X0170288Y0264143D01*
X0170235Y0264186D01*
X0170179Y0264227D01*
X0170122Y0264265D01*
X0170062Y0264299D01*
X0170000Y0264330D01*
X0169937Y0264358D01*
X0169873Y0264382D01*
X0169807Y0264403D01*
X0169740Y0264420D01*
X0169673Y0264433D01*
X0169605Y0264442D01*
X0169536Y0264448D01*
X0169467Y0264450D01*
X0168217Y0264450D01*
X0168217Y0259950D01*
X0172217Y0254250D02*
X0173717Y0254250D01*
X0173779Y0254248D01*
X0173840Y0254242D01*
X0173901Y0254233D01*
X0173961Y0254220D01*
X0174020Y0254203D01*
X0174078Y0254182D01*
X0174135Y0254158D01*
X0174190Y0254131D01*
X0174243Y0254100D01*
X0174295Y0254066D01*
X0174344Y0254029D01*
X0174391Y0253989D01*
X0174435Y0253946D01*
X0174476Y0253901D01*
X0174515Y0253853D01*
X0174551Y0253802D01*
X0174583Y0253750D01*
X0174612Y0253696D01*
X0174638Y0253640D01*
X0174660Y0253582D01*
X0174679Y0253524D01*
X0174694Y0253464D01*
X0174705Y0253403D01*
X0174713Y0253342D01*
X0174717Y0253281D01*
X0174717Y0253219D01*
X0174713Y0253158D01*
X0174705Y0253097D01*
X0174694Y0253036D01*
X0174679Y0252976D01*
X0174660Y0252918D01*
X0174638Y0252860D01*
X0174612Y0252804D01*
X0174583Y0252750D01*
X0174551Y0252698D01*
X0174515Y0252647D01*
X0174476Y0252599D01*
X0174435Y0252554D01*
X0174391Y0252511D01*
X0174344Y0252471D01*
X0174295Y0252434D01*
X0174243Y0252400D01*
X0174190Y0252369D01*
X0174135Y0252342D01*
X0174078Y0252318D01*
X0174020Y0252297D01*
X0173961Y0252280D01*
X0173901Y0252267D01*
X0173840Y0252258D01*
X0173779Y0252252D01*
X0173717Y0252250D01*
X0172717Y0252250D01*
X0173467Y0252250D02*
X0173536Y0252248D01*
X0173605Y0252242D01*
X0173673Y0252233D01*
X0173740Y0252220D01*
X0173807Y0252203D01*
X0173873Y0252182D01*
X0173937Y0252158D01*
X0174000Y0252130D01*
X0174062Y0252099D01*
X0174122Y0252065D01*
X0174179Y0252027D01*
X0174235Y0251986D01*
X0174288Y0251943D01*
X0174339Y0251896D01*
X0174387Y0251847D01*
X0174432Y0251795D01*
X0174474Y0251740D01*
X0174513Y0251684D01*
X0174550Y0251625D01*
X0174582Y0251564D01*
X0174612Y0251502D01*
X0174638Y0251438D01*
X0174660Y0251373D01*
X0174679Y0251307D01*
X0174694Y0251240D01*
X0174705Y0251172D01*
X0174713Y0251103D01*
X0174717Y0251034D01*
X0174717Y0250966D01*
X0174713Y0250897D01*
X0174705Y0250828D01*
X0174694Y0250760D01*
X0174679Y0250693D01*
X0174660Y0250627D01*
X0174638Y0250562D01*
X0174612Y0250498D01*
X0174582Y0250436D01*
X0174550Y0250375D01*
X0174513Y0250316D01*
X0174474Y0250260D01*
X0174432Y0250205D01*
X0174387Y0250153D01*
X0174339Y0250104D01*
X0174288Y0250057D01*
X0174235Y0250014D01*
X0174179Y0249973D01*
X0174122Y0249935D01*
X0174062Y0249901D01*
X0174000Y0249870D01*
X0173937Y0249842D01*
X0173873Y0249818D01*
X0173807Y0249797D01*
X0173740Y0249780D01*
X0173673Y0249767D01*
X0173605Y0249758D01*
X0173536Y0249752D01*
X0173467Y0249750D01*
X0172217Y0249750D01*
X0176717Y0249750D02*
X0178217Y0249750D01*
X0178277Y0249752D01*
X0178338Y0249757D01*
X0178397Y0249766D01*
X0178456Y0249779D01*
X0178515Y0249795D01*
X0178572Y0249815D01*
X0178627Y0249838D01*
X0178682Y0249865D01*
X0178734Y0249894D01*
X0178785Y0249927D01*
X0178834Y0249963D01*
X0178880Y0250001D01*
X0178924Y0250043D01*
X0178966Y0250087D01*
X0179004Y0250133D01*
X0179040Y0250182D01*
X0179073Y0250233D01*
X0179102Y0250285D01*
X0179129Y0250340D01*
X0179152Y0250395D01*
X0179172Y0250452D01*
X0179188Y0250511D01*
X0179201Y0250570D01*
X0179210Y0250629D01*
X0179215Y0250690D01*
X0179217Y0250750D01*
X0179217Y0251250D01*
X0179215Y0251310D01*
X0179210Y0251371D01*
X0179201Y0251430D01*
X0179188Y0251489D01*
X0179172Y0251548D01*
X0179152Y0251605D01*
X0179129Y0251660D01*
X0179102Y0251715D01*
X0179073Y0251767D01*
X0179040Y0251818D01*
X0179004Y0251867D01*
X0178966Y0251913D01*
X0178924Y0251957D01*
X0178880Y0251999D01*
X0178834Y0252037D01*
X0178785Y0252073D01*
X0178734Y0252106D01*
X0178682Y0252135D01*
X0178627Y0252162D01*
X0178572Y0252185D01*
X0178515Y0252205D01*
X0178456Y0252221D01*
X0178397Y0252234D01*
X0178338Y0252243D01*
X0178277Y0252248D01*
X0178217Y0252250D01*
X0176717Y0252250D01*
X0176717Y0254250D01*
X0179217Y0254250D01*
X0183716Y0252000D02*
X0183714Y0251880D01*
X0183708Y0251760D01*
X0183698Y0251640D01*
X0183685Y0251521D01*
X0183667Y0251402D01*
X0183646Y0251284D01*
X0183621Y0251166D01*
X0183592Y0251050D01*
X0183559Y0250934D01*
X0183523Y0250820D01*
X0183483Y0250706D01*
X0183439Y0250594D01*
X0183392Y0250484D01*
X0183341Y0250375D01*
X0183342Y0250375D02*
X0183321Y0250319D01*
X0183295Y0250264D01*
X0183267Y0250210D01*
X0183235Y0250159D01*
X0183200Y0250110D01*
X0183161Y0250064D01*
X0183120Y0250020D01*
X0183076Y0249978D01*
X0183029Y0249940D01*
X0182980Y0249905D01*
X0182928Y0249873D01*
X0182875Y0249845D01*
X0182820Y0249820D01*
X0182764Y0249799D01*
X0182706Y0249781D01*
X0182647Y0249768D01*
X0182587Y0249758D01*
X0182527Y0249752D01*
X0182467Y0249750D01*
X0182407Y0249752D01*
X0182347Y0249758D01*
X0182287Y0249768D01*
X0182228Y0249781D01*
X0182170Y0249799D01*
X0182114Y0249820D01*
X0182059Y0249845D01*
X0182006Y0249873D01*
X0181954Y0249905D01*
X0181905Y0249940D01*
X0181858Y0249978D01*
X0181814Y0250020D01*
X0181773Y0250064D01*
X0181734Y0250110D01*
X0181699Y0250159D01*
X0181667Y0250210D01*
X0181639Y0250264D01*
X0181613Y0250319D01*
X0181592Y0250375D01*
X0181467Y0250750D02*
X0183467Y0253250D01*
X0183342Y0253625D02*
X0183321Y0253681D01*
X0183295Y0253736D01*
X0183267Y0253790D01*
X0183235Y0253841D01*
X0183200Y0253890D01*
X0183161Y0253936D01*
X0183120Y0253980D01*
X0183076Y0254022D01*
X0183029Y0254060D01*
X0182980Y0254095D01*
X0182928Y0254127D01*
X0182875Y0254155D01*
X0182820Y0254180D01*
X0182764Y0254201D01*
X0182706Y0254219D01*
X0182647Y0254232D01*
X0182587Y0254242D01*
X0182527Y0254248D01*
X0182467Y0254250D01*
X0182407Y0254248D01*
X0182347Y0254242D01*
X0182287Y0254232D01*
X0182228Y0254219D01*
X0182170Y0254201D01*
X0182114Y0254180D01*
X0182059Y0254155D01*
X0182006Y0254127D01*
X0181954Y0254095D01*
X0181905Y0254060D01*
X0181858Y0254022D01*
X0181814Y0253980D01*
X0181773Y0253936D01*
X0181734Y0253890D01*
X0181699Y0253841D01*
X0181667Y0253790D01*
X0181639Y0253736D01*
X0181613Y0253681D01*
X0181592Y0253625D01*
X0183341Y0253625D02*
X0183392Y0253516D01*
X0183439Y0253406D01*
X0183483Y0253294D01*
X0183523Y0253180D01*
X0183559Y0253066D01*
X0183592Y0252950D01*
X0183621Y0252834D01*
X0183646Y0252716D01*
X0183667Y0252598D01*
X0183685Y0252479D01*
X0183698Y0252360D01*
X0183708Y0252240D01*
X0183714Y0252120D01*
X0183716Y0252000D01*
X0181217Y0252000D02*
X0181219Y0251880D01*
X0181225Y0251760D01*
X0181235Y0251640D01*
X0181248Y0251521D01*
X0181266Y0251402D01*
X0181287Y0251284D01*
X0181312Y0251166D01*
X0181341Y0251050D01*
X0181374Y0250934D01*
X0181410Y0250820D01*
X0181450Y0250706D01*
X0181494Y0250594D01*
X0181541Y0250484D01*
X0181592Y0250375D01*
X0181217Y0252000D02*
X0181219Y0252120D01*
X0181225Y0252240D01*
X0181235Y0252360D01*
X0181248Y0252479D01*
X0181266Y0252598D01*
X0181287Y0252716D01*
X0181312Y0252834D01*
X0181341Y0252950D01*
X0181374Y0253066D01*
X0181410Y0253180D01*
X0181450Y0253294D01*
X0181494Y0253406D01*
X0181541Y0253516D01*
X0181592Y0253625D01*
X0185877Y0254250D02*
X0185877Y0249750D01*
X0185877Y0251250D02*
X0187877Y0252750D01*
X0186752Y0251875D02*
X0187877Y0249750D01*
X0222217Y0289950D02*
X0223217Y0289950D01*
X0222217Y0289950D02*
X0222157Y0289952D01*
X0222096Y0289957D01*
X0222037Y0289966D01*
X0221978Y0289979D01*
X0221919Y0289995D01*
X0221862Y0290015D01*
X0221807Y0290038D01*
X0221752Y0290065D01*
X0221700Y0290094D01*
X0221649Y0290127D01*
X0221600Y0290163D01*
X0221554Y0290201D01*
X0221510Y0290243D01*
X0221468Y0290287D01*
X0221430Y0290333D01*
X0221394Y0290382D01*
X0221361Y0290433D01*
X0221332Y0290485D01*
X0221305Y0290540D01*
X0221282Y0290595D01*
X0221262Y0290652D01*
X0221246Y0290711D01*
X0221233Y0290770D01*
X0221224Y0290829D01*
X0221219Y0290890D01*
X0221217Y0290950D01*
X0221217Y0293450D01*
X0221219Y0293510D01*
X0221224Y0293571D01*
X0221233Y0293630D01*
X0221246Y0293689D01*
X0221262Y0293748D01*
X0221282Y0293805D01*
X0221305Y0293860D01*
X0221332Y0293915D01*
X0221361Y0293967D01*
X0221394Y0294018D01*
X0221430Y0294067D01*
X0221468Y0294113D01*
X0221510Y0294157D01*
X0221554Y0294199D01*
X0221600Y0294237D01*
X0221649Y0294273D01*
X0221700Y0294306D01*
X0221752Y0294335D01*
X0221807Y0294362D01*
X0221862Y0294385D01*
X0221919Y0294405D01*
X0221978Y0294421D01*
X0222037Y0294434D01*
X0222096Y0294443D01*
X0222157Y0294448D01*
X0222217Y0294450D01*
X0223217Y0294450D01*
X0224981Y0292450D02*
X0224981Y0291200D01*
X0224981Y0292450D02*
X0226481Y0292450D01*
X0224981Y0292450D02*
X0224983Y0292537D01*
X0224989Y0292624D01*
X0224998Y0292711D01*
X0225011Y0292797D01*
X0225028Y0292883D01*
X0225049Y0292968D01*
X0225074Y0293051D01*
X0225102Y0293134D01*
X0225133Y0293215D01*
X0225168Y0293295D01*
X0225207Y0293373D01*
X0225249Y0293450D01*
X0225294Y0293525D01*
X0225343Y0293597D01*
X0225394Y0293668D01*
X0225449Y0293736D01*
X0225506Y0293801D01*
X0225567Y0293864D01*
X0225630Y0293925D01*
X0225695Y0293982D01*
X0225763Y0294037D01*
X0225834Y0294088D01*
X0225906Y0294137D01*
X0225981Y0294182D01*
X0226058Y0294224D01*
X0226136Y0294263D01*
X0226216Y0294298D01*
X0226297Y0294329D01*
X0226380Y0294357D01*
X0226463Y0294382D01*
X0226548Y0294403D01*
X0226634Y0294420D01*
X0226720Y0294433D01*
X0226807Y0294442D01*
X0226894Y0294448D01*
X0226981Y0294450D01*
X0226481Y0292450D02*
X0226541Y0292448D01*
X0226602Y0292443D01*
X0226661Y0292434D01*
X0226720Y0292421D01*
X0226779Y0292405D01*
X0226836Y0292385D01*
X0226891Y0292362D01*
X0226946Y0292335D01*
X0226998Y0292306D01*
X0227049Y0292273D01*
X0227098Y0292237D01*
X0227144Y0292199D01*
X0227188Y0292157D01*
X0227230Y0292113D01*
X0227268Y0292067D01*
X0227304Y0292018D01*
X0227337Y0291967D01*
X0227366Y0291915D01*
X0227393Y0291860D01*
X0227416Y0291805D01*
X0227436Y0291748D01*
X0227452Y0291689D01*
X0227465Y0291630D01*
X0227474Y0291571D01*
X0227479Y0291510D01*
X0227481Y0291450D01*
X0227481Y0291200D01*
X0227479Y0291131D01*
X0227473Y0291062D01*
X0227464Y0290994D01*
X0227451Y0290927D01*
X0227434Y0290860D01*
X0227413Y0290794D01*
X0227389Y0290730D01*
X0227361Y0290667D01*
X0227330Y0290605D01*
X0227296Y0290545D01*
X0227258Y0290488D01*
X0227217Y0290432D01*
X0227174Y0290379D01*
X0227127Y0290328D01*
X0227078Y0290280D01*
X0227026Y0290235D01*
X0226971Y0290193D01*
X0226915Y0290154D01*
X0226856Y0290117D01*
X0226795Y0290085D01*
X0226733Y0290055D01*
X0226669Y0290029D01*
X0226604Y0290007D01*
X0226538Y0289988D01*
X0226471Y0289973D01*
X0226403Y0289962D01*
X0226334Y0289954D01*
X0226265Y0289950D01*
X0226197Y0289950D01*
X0226128Y0289954D01*
X0226059Y0289962D01*
X0225991Y0289973D01*
X0225924Y0289988D01*
X0225858Y0290007D01*
X0225793Y0290029D01*
X0225729Y0290055D01*
X0225667Y0290085D01*
X0225606Y0290117D01*
X0225547Y0290154D01*
X0225491Y0290193D01*
X0225436Y0290235D01*
X0225384Y0290280D01*
X0225335Y0290328D01*
X0225288Y0290379D01*
X0225245Y0290432D01*
X0225204Y0290488D01*
X0225166Y0290545D01*
X0225132Y0290605D01*
X0225101Y0290667D01*
X0225073Y0290730D01*
X0225049Y0290794D01*
X0225028Y0290860D01*
X0225011Y0290927D01*
X0224998Y0290994D01*
X0224989Y0291062D01*
X0224983Y0291131D01*
X0224981Y0291200D01*
X0216067Y0297450D02*
X0213567Y0297450D01*
X0214817Y0297450D02*
X0214817Y0301950D01*
X0213567Y0300950D01*
X0211817Y0301950D02*
X0210317Y0297450D01*
X0208817Y0301950D01*
X0205341Y0300075D02*
X0205289Y0300108D01*
X0205238Y0300144D01*
X0205190Y0300183D01*
X0205145Y0300225D01*
X0205102Y0300270D01*
X0205062Y0300318D01*
X0205025Y0300367D01*
X0204991Y0300419D01*
X0204960Y0300473D01*
X0204932Y0300529D01*
X0204908Y0300586D01*
X0204888Y0300645D01*
X0204871Y0300704D01*
X0204858Y0300765D01*
X0204849Y0300826D01*
X0204843Y0300888D01*
X0204841Y0300950D01*
X0204842Y0300950D02*
X0204844Y0301010D01*
X0204849Y0301071D01*
X0204858Y0301130D01*
X0204871Y0301189D01*
X0204887Y0301248D01*
X0204907Y0301305D01*
X0204930Y0301360D01*
X0204957Y0301415D01*
X0204986Y0301467D01*
X0205019Y0301518D01*
X0205055Y0301567D01*
X0205093Y0301613D01*
X0205135Y0301657D01*
X0205179Y0301699D01*
X0205225Y0301737D01*
X0205274Y0301773D01*
X0205325Y0301806D01*
X0205377Y0301835D01*
X0205432Y0301862D01*
X0205487Y0301885D01*
X0205544Y0301905D01*
X0205603Y0301921D01*
X0205662Y0301934D01*
X0205721Y0301943D01*
X0205782Y0301948D01*
X0205842Y0301950D01*
X0205922Y0301948D01*
X0206003Y0301943D01*
X0206083Y0301934D01*
X0206162Y0301922D01*
X0206241Y0301907D01*
X0206319Y0301888D01*
X0206397Y0301866D01*
X0206473Y0301841D01*
X0206548Y0301812D01*
X0206622Y0301780D01*
X0206694Y0301745D01*
X0206765Y0301707D01*
X0206834Y0301666D01*
X0206902Y0301622D01*
X0206967Y0301575D01*
X0204717Y0298075D02*
X0204780Y0298014D01*
X0204845Y0297956D01*
X0204913Y0297900D01*
X0204984Y0297847D01*
X0205056Y0297798D01*
X0205130Y0297751D01*
X0205206Y0297707D01*
X0205284Y0297667D01*
X0205364Y0297630D01*
X0205445Y0297596D01*
X0205527Y0297566D01*
X0205611Y0297539D01*
X0205696Y0297515D01*
X0205781Y0297495D01*
X0205867Y0297479D01*
X0205954Y0297466D01*
X0206042Y0297457D01*
X0206129Y0297452D01*
X0206217Y0297450D01*
X0206277Y0297452D01*
X0206338Y0297457D01*
X0206397Y0297466D01*
X0206456Y0297479D01*
X0206515Y0297495D01*
X0206572Y0297515D01*
X0206627Y0297538D01*
X0206682Y0297565D01*
X0206734Y0297594D01*
X0206785Y0297627D01*
X0206834Y0297663D01*
X0206880Y0297701D01*
X0206924Y0297743D01*
X0206966Y0297787D01*
X0207004Y0297833D01*
X0207040Y0297882D01*
X0207073Y0297933D01*
X0207102Y0297985D01*
X0207129Y0298040D01*
X0207152Y0298095D01*
X0207172Y0298152D01*
X0207188Y0298211D01*
X0207201Y0298270D01*
X0207210Y0298329D01*
X0207215Y0298390D01*
X0207217Y0298450D01*
X0206717Y0299325D02*
X0205342Y0300075D01*
X0206717Y0299325D02*
X0206769Y0299292D01*
X0206820Y0299256D01*
X0206868Y0299217D01*
X0206913Y0299175D01*
X0206956Y0299130D01*
X0206996Y0299082D01*
X0207033Y0299033D01*
X0207067Y0298981D01*
X0207098Y0298927D01*
X0207126Y0298871D01*
X0207150Y0298814D01*
X0207170Y0298755D01*
X0207187Y0298696D01*
X0207200Y0298635D01*
X0207209Y0298574D01*
X0207215Y0298512D01*
X0207217Y0298450D01*
X0167481Y0308450D02*
X0164981Y0308450D01*
X0167106Y0310950D01*
X0166356Y0312950D02*
X0166283Y0312948D01*
X0166211Y0312943D01*
X0166139Y0312934D01*
X0166067Y0312921D01*
X0165996Y0312905D01*
X0165926Y0312885D01*
X0165858Y0312861D01*
X0165790Y0312835D01*
X0165724Y0312804D01*
X0165659Y0312771D01*
X0165597Y0312734D01*
X0165536Y0312695D01*
X0165477Y0312652D01*
X0165420Y0312606D01*
X0165366Y0312558D01*
X0165315Y0312507D01*
X0165265Y0312453D01*
X0165219Y0312397D01*
X0165176Y0312339D01*
X0165135Y0312278D01*
X0165098Y0312216D01*
X0165064Y0312152D01*
X0165033Y0312086D01*
X0165005Y0312019D01*
X0164981Y0311950D01*
X0167106Y0310950D02*
X0167152Y0310996D01*
X0167196Y0311045D01*
X0167236Y0311096D01*
X0167274Y0311149D01*
X0167309Y0311204D01*
X0167341Y0311261D01*
X0167370Y0311319D01*
X0167396Y0311379D01*
X0167418Y0311441D01*
X0167437Y0311503D01*
X0167453Y0311566D01*
X0167465Y0311630D01*
X0167474Y0311695D01*
X0167479Y0311760D01*
X0167481Y0311825D01*
X0167479Y0311890D01*
X0167473Y0311956D01*
X0167464Y0312020D01*
X0167451Y0312084D01*
X0167434Y0312148D01*
X0167413Y0312210D01*
X0167389Y0312271D01*
X0167361Y0312330D01*
X0167330Y0312388D01*
X0167296Y0312443D01*
X0167258Y0312497D01*
X0167218Y0312548D01*
X0167174Y0312597D01*
X0167128Y0312643D01*
X0167079Y0312687D01*
X0167028Y0312727D01*
X0166974Y0312765D01*
X0166919Y0312799D01*
X0166861Y0312830D01*
X0166802Y0312858D01*
X0166741Y0312882D01*
X0166679Y0312903D01*
X0166615Y0312920D01*
X0166551Y0312933D01*
X0166487Y0312942D01*
X0166421Y0312948D01*
X0166356Y0312950D01*
X0163217Y0312950D02*
X0162217Y0312950D01*
X0162157Y0312948D01*
X0162096Y0312943D01*
X0162037Y0312934D01*
X0161978Y0312921D01*
X0161919Y0312905D01*
X0161862Y0312885D01*
X0161807Y0312862D01*
X0161752Y0312835D01*
X0161700Y0312806D01*
X0161649Y0312773D01*
X0161600Y0312737D01*
X0161554Y0312699D01*
X0161510Y0312657D01*
X0161468Y0312613D01*
X0161430Y0312567D01*
X0161394Y0312518D01*
X0161361Y0312467D01*
X0161332Y0312415D01*
X0161305Y0312360D01*
X0161282Y0312305D01*
X0161262Y0312248D01*
X0161246Y0312189D01*
X0161233Y0312130D01*
X0161224Y0312071D01*
X0161219Y0312010D01*
X0161217Y0311950D01*
X0161217Y0309450D01*
X0161219Y0309390D01*
X0161224Y0309329D01*
X0161233Y0309270D01*
X0161246Y0309211D01*
X0161262Y0309152D01*
X0161282Y0309095D01*
X0161305Y0309040D01*
X0161332Y0308985D01*
X0161361Y0308933D01*
X0161394Y0308882D01*
X0161430Y0308833D01*
X0161468Y0308787D01*
X0161510Y0308743D01*
X0161554Y0308701D01*
X0161600Y0308663D01*
X0161649Y0308627D01*
X0161700Y0308594D01*
X0161752Y0308565D01*
X0161807Y0308538D01*
X0161862Y0308515D01*
X0161919Y0308495D01*
X0161978Y0308479D01*
X0162037Y0308466D01*
X0162096Y0308457D01*
X0162157Y0308452D01*
X0162217Y0308450D01*
X0163217Y0308450D01*
X0258217Y0264450D02*
X0258217Y0259950D01*
X0258217Y0261950D02*
X0259467Y0261950D01*
X0259717Y0261950D02*
X0260717Y0259950D01*
X0262684Y0259950D02*
X0263934Y0259950D01*
X0264003Y0259952D01*
X0264072Y0259958D01*
X0264140Y0259967D01*
X0264207Y0259980D01*
X0264274Y0259997D01*
X0264340Y0260018D01*
X0264404Y0260042D01*
X0264467Y0260070D01*
X0264529Y0260101D01*
X0264589Y0260135D01*
X0264646Y0260173D01*
X0264702Y0260214D01*
X0264755Y0260257D01*
X0264806Y0260304D01*
X0264854Y0260353D01*
X0264899Y0260405D01*
X0264941Y0260460D01*
X0264980Y0260516D01*
X0265017Y0260575D01*
X0265049Y0260636D01*
X0265079Y0260698D01*
X0265105Y0260762D01*
X0265127Y0260827D01*
X0265146Y0260893D01*
X0265161Y0260960D01*
X0265172Y0261028D01*
X0265180Y0261097D01*
X0265184Y0261166D01*
X0265184Y0261234D01*
X0265180Y0261303D01*
X0265172Y0261372D01*
X0265161Y0261440D01*
X0265146Y0261507D01*
X0265127Y0261573D01*
X0265105Y0261638D01*
X0265079Y0261702D01*
X0265049Y0261764D01*
X0265017Y0261825D01*
X0264980Y0261884D01*
X0264941Y0261940D01*
X0264899Y0261995D01*
X0264854Y0262047D01*
X0264806Y0262096D01*
X0264755Y0262143D01*
X0264702Y0262186D01*
X0264646Y0262227D01*
X0264589Y0262265D01*
X0264529Y0262299D01*
X0264467Y0262330D01*
X0264404Y0262358D01*
X0264340Y0262382D01*
X0264274Y0262403D01*
X0264207Y0262420D01*
X0264140Y0262433D01*
X0264072Y0262442D01*
X0264003Y0262448D01*
X0263934Y0262450D01*
X0264184Y0262450D02*
X0263184Y0262450D01*
X0264184Y0262450D02*
X0264246Y0262452D01*
X0264307Y0262458D01*
X0264368Y0262467D01*
X0264428Y0262480D01*
X0264487Y0262497D01*
X0264545Y0262518D01*
X0264602Y0262542D01*
X0264657Y0262569D01*
X0264710Y0262600D01*
X0264762Y0262634D01*
X0264811Y0262671D01*
X0264858Y0262711D01*
X0264902Y0262754D01*
X0264943Y0262799D01*
X0264982Y0262847D01*
X0265018Y0262898D01*
X0265050Y0262950D01*
X0265079Y0263004D01*
X0265105Y0263060D01*
X0265127Y0263118D01*
X0265146Y0263176D01*
X0265161Y0263236D01*
X0265172Y0263297D01*
X0265180Y0263358D01*
X0265184Y0263419D01*
X0265184Y0263481D01*
X0265180Y0263542D01*
X0265172Y0263603D01*
X0265161Y0263664D01*
X0265146Y0263724D01*
X0265127Y0263782D01*
X0265105Y0263840D01*
X0265079Y0263896D01*
X0265050Y0263950D01*
X0265018Y0264002D01*
X0264982Y0264053D01*
X0264943Y0264101D01*
X0264902Y0264146D01*
X0264858Y0264189D01*
X0264811Y0264229D01*
X0264762Y0264266D01*
X0264710Y0264300D01*
X0264657Y0264331D01*
X0264602Y0264358D01*
X0264545Y0264382D01*
X0264487Y0264403D01*
X0264428Y0264420D01*
X0264368Y0264433D01*
X0264307Y0264442D01*
X0264246Y0264448D01*
X0264184Y0264450D01*
X0262684Y0264450D01*
X0259467Y0264450D02*
X0258217Y0264450D01*
X0259467Y0264450D02*
X0259536Y0264448D01*
X0259605Y0264442D01*
X0259673Y0264433D01*
X0259740Y0264420D01*
X0259807Y0264403D01*
X0259873Y0264382D01*
X0259937Y0264358D01*
X0260000Y0264330D01*
X0260062Y0264299D01*
X0260122Y0264265D01*
X0260179Y0264227D01*
X0260235Y0264186D01*
X0260288Y0264143D01*
X0260339Y0264096D01*
X0260387Y0264047D01*
X0260432Y0263995D01*
X0260474Y0263940D01*
X0260513Y0263884D01*
X0260550Y0263825D01*
X0260582Y0263764D01*
X0260612Y0263702D01*
X0260638Y0263638D01*
X0260660Y0263573D01*
X0260679Y0263507D01*
X0260694Y0263440D01*
X0260705Y0263372D01*
X0260713Y0263303D01*
X0260717Y0263234D01*
X0260717Y0263166D01*
X0260713Y0263097D01*
X0260705Y0263028D01*
X0260694Y0262960D01*
X0260679Y0262893D01*
X0260660Y0262827D01*
X0260638Y0262762D01*
X0260612Y0262698D01*
X0260582Y0262636D01*
X0260550Y0262575D01*
X0260513Y0262516D01*
X0260474Y0262460D01*
X0260432Y0262405D01*
X0260387Y0262353D01*
X0260339Y0262304D01*
X0260288Y0262257D01*
X0260235Y0262214D01*
X0260179Y0262173D01*
X0260122Y0262135D01*
X0260062Y0262101D01*
X0260000Y0262070D01*
X0259937Y0262042D01*
X0259873Y0262018D01*
X0259807Y0261997D01*
X0259740Y0261980D01*
X0259673Y0261967D01*
X0259605Y0261958D01*
X0259536Y0261952D01*
X0259467Y0261950D01*
X0263467Y0254250D02*
X0263467Y0249750D01*
X0262217Y0249750D02*
X0264717Y0249750D01*
X0268841Y0250375D02*
X0268892Y0250484D01*
X0268939Y0250594D01*
X0268983Y0250706D01*
X0269023Y0250820D01*
X0269059Y0250934D01*
X0269092Y0251050D01*
X0269121Y0251166D01*
X0269146Y0251284D01*
X0269167Y0251402D01*
X0269185Y0251521D01*
X0269198Y0251640D01*
X0269208Y0251760D01*
X0269214Y0251880D01*
X0269216Y0252000D01*
X0273341Y0250375D02*
X0273392Y0250484D01*
X0273439Y0250594D01*
X0273483Y0250706D01*
X0273523Y0250820D01*
X0273559Y0250934D01*
X0273592Y0251050D01*
X0273621Y0251166D01*
X0273646Y0251284D01*
X0273667Y0251402D01*
X0273685Y0251521D01*
X0273698Y0251640D01*
X0273708Y0251760D01*
X0273714Y0251880D01*
X0273716Y0252000D01*
X0271217Y0252000D02*
X0271219Y0251880D01*
X0271225Y0251760D01*
X0271235Y0251640D01*
X0271248Y0251521D01*
X0271266Y0251402D01*
X0271287Y0251284D01*
X0271312Y0251166D01*
X0271341Y0251050D01*
X0271374Y0250934D01*
X0271410Y0250820D01*
X0271450Y0250706D01*
X0271494Y0250594D01*
X0271541Y0250484D01*
X0271592Y0250375D01*
X0271467Y0250750D02*
X0273467Y0253250D01*
X0273342Y0253625D02*
X0273321Y0253681D01*
X0273295Y0253736D01*
X0273267Y0253790D01*
X0273235Y0253841D01*
X0273200Y0253890D01*
X0273161Y0253936D01*
X0273120Y0253980D01*
X0273076Y0254022D01*
X0273029Y0254060D01*
X0272980Y0254095D01*
X0272928Y0254127D01*
X0272875Y0254155D01*
X0272820Y0254180D01*
X0272764Y0254201D01*
X0272706Y0254219D01*
X0272647Y0254232D01*
X0272587Y0254242D01*
X0272527Y0254248D01*
X0272467Y0254250D01*
X0272407Y0254248D01*
X0272347Y0254242D01*
X0272287Y0254232D01*
X0272228Y0254219D01*
X0272170Y0254201D01*
X0272114Y0254180D01*
X0272059Y0254155D01*
X0272006Y0254127D01*
X0271954Y0254095D01*
X0271905Y0254060D01*
X0271858Y0254022D01*
X0271814Y0253980D01*
X0271773Y0253936D01*
X0271734Y0253890D01*
X0271699Y0253841D01*
X0271667Y0253790D01*
X0271639Y0253736D01*
X0271613Y0253681D01*
X0271592Y0253625D01*
X0266717Y0252000D02*
X0266719Y0251880D01*
X0266725Y0251760D01*
X0266735Y0251640D01*
X0266748Y0251521D01*
X0266766Y0251402D01*
X0266787Y0251284D01*
X0266812Y0251166D01*
X0266841Y0251050D01*
X0266874Y0250934D01*
X0266910Y0250820D01*
X0266950Y0250706D01*
X0266994Y0250594D01*
X0267041Y0250484D01*
X0267092Y0250375D01*
X0266967Y0250750D02*
X0268967Y0253250D01*
X0268842Y0253625D02*
X0268821Y0253681D01*
X0268795Y0253736D01*
X0268767Y0253790D01*
X0268735Y0253841D01*
X0268700Y0253890D01*
X0268661Y0253936D01*
X0268620Y0253980D01*
X0268576Y0254022D01*
X0268529Y0254060D01*
X0268480Y0254095D01*
X0268428Y0254127D01*
X0268375Y0254155D01*
X0268320Y0254180D01*
X0268264Y0254201D01*
X0268206Y0254219D01*
X0268147Y0254232D01*
X0268087Y0254242D01*
X0268027Y0254248D01*
X0267967Y0254250D01*
X0267907Y0254248D01*
X0267847Y0254242D01*
X0267787Y0254232D01*
X0267728Y0254219D01*
X0267670Y0254201D01*
X0267614Y0254180D01*
X0267559Y0254155D01*
X0267506Y0254127D01*
X0267454Y0254095D01*
X0267405Y0254060D01*
X0267358Y0254022D01*
X0267314Y0253980D01*
X0267273Y0253936D01*
X0267234Y0253890D01*
X0267199Y0253841D01*
X0267167Y0253790D01*
X0267139Y0253736D01*
X0267113Y0253681D01*
X0267092Y0253625D01*
X0268841Y0253625D02*
X0268892Y0253516D01*
X0268939Y0253406D01*
X0268983Y0253294D01*
X0269023Y0253180D01*
X0269059Y0253066D01*
X0269092Y0252950D01*
X0269121Y0252834D01*
X0269146Y0252716D01*
X0269167Y0252598D01*
X0269185Y0252479D01*
X0269198Y0252360D01*
X0269208Y0252240D01*
X0269214Y0252120D01*
X0269216Y0252000D01*
X0273341Y0253625D02*
X0273392Y0253516D01*
X0273439Y0253406D01*
X0273483Y0253294D01*
X0273523Y0253180D01*
X0273559Y0253066D01*
X0273592Y0252950D01*
X0273621Y0252834D01*
X0273646Y0252716D01*
X0273667Y0252598D01*
X0273685Y0252479D01*
X0273698Y0252360D01*
X0273708Y0252240D01*
X0273714Y0252120D01*
X0273716Y0252000D01*
X0271217Y0252000D02*
X0271219Y0252120D01*
X0271225Y0252240D01*
X0271235Y0252360D01*
X0271248Y0252479D01*
X0271266Y0252598D01*
X0271287Y0252716D01*
X0271312Y0252834D01*
X0271341Y0252950D01*
X0271374Y0253066D01*
X0271410Y0253180D01*
X0271450Y0253294D01*
X0271494Y0253406D01*
X0271541Y0253516D01*
X0271592Y0253625D01*
X0267092Y0253625D02*
X0267041Y0253516D01*
X0266994Y0253406D01*
X0266950Y0253294D01*
X0266910Y0253180D01*
X0266874Y0253066D01*
X0266841Y0252950D01*
X0266812Y0252834D01*
X0266787Y0252716D01*
X0266766Y0252598D01*
X0266748Y0252479D01*
X0266735Y0252360D01*
X0266725Y0252240D01*
X0266719Y0252120D01*
X0266717Y0252000D01*
X0267967Y0249750D02*
X0268027Y0249752D01*
X0268087Y0249758D01*
X0268147Y0249768D01*
X0268206Y0249781D01*
X0268264Y0249799D01*
X0268320Y0249820D01*
X0268375Y0249845D01*
X0268428Y0249873D01*
X0268480Y0249905D01*
X0268529Y0249940D01*
X0268576Y0249978D01*
X0268620Y0250020D01*
X0268661Y0250064D01*
X0268700Y0250110D01*
X0268735Y0250159D01*
X0268767Y0250210D01*
X0268795Y0250264D01*
X0268821Y0250319D01*
X0268842Y0250375D01*
X0267967Y0249750D02*
X0267907Y0249752D01*
X0267847Y0249758D01*
X0267787Y0249768D01*
X0267728Y0249781D01*
X0267670Y0249799D01*
X0267614Y0249820D01*
X0267559Y0249845D01*
X0267506Y0249873D01*
X0267454Y0249905D01*
X0267405Y0249940D01*
X0267358Y0249978D01*
X0267314Y0250020D01*
X0267273Y0250064D01*
X0267234Y0250110D01*
X0267199Y0250159D01*
X0267167Y0250210D01*
X0267139Y0250264D01*
X0267113Y0250319D01*
X0267092Y0250375D01*
X0263467Y0254250D02*
X0262217Y0253250D01*
X0272467Y0249750D02*
X0272527Y0249752D01*
X0272587Y0249758D01*
X0272647Y0249768D01*
X0272706Y0249781D01*
X0272764Y0249799D01*
X0272820Y0249820D01*
X0272875Y0249845D01*
X0272928Y0249873D01*
X0272980Y0249905D01*
X0273029Y0249940D01*
X0273076Y0249978D01*
X0273120Y0250020D01*
X0273161Y0250064D01*
X0273200Y0250110D01*
X0273235Y0250159D01*
X0273267Y0250210D01*
X0273295Y0250264D01*
X0273321Y0250319D01*
X0273342Y0250375D01*
X0272467Y0249750D02*
X0272407Y0249752D01*
X0272347Y0249758D01*
X0272287Y0249768D01*
X0272228Y0249781D01*
X0272170Y0249799D01*
X0272114Y0249820D01*
X0272059Y0249845D01*
X0272006Y0249873D01*
X0271954Y0249905D01*
X0271905Y0249940D01*
X0271858Y0249978D01*
X0271814Y0250020D01*
X0271773Y0250064D01*
X0271734Y0250110D01*
X0271699Y0250159D01*
X0271667Y0250210D01*
X0271639Y0250264D01*
X0271613Y0250319D01*
X0271592Y0250375D01*
X0291492Y0280950D02*
X0291742Y0280950D01*
X0291742Y0281200D01*
X0291492Y0281200D01*
X0291492Y0280950D01*
X0293517Y0281950D02*
X0296017Y0281950D01*
X0295267Y0282950D02*
X0295267Y0280950D01*
X0293517Y0281950D02*
X0294517Y0285450D01*
X0298017Y0285450D02*
X0298017Y0284950D01*
X0298017Y0285450D02*
X0300517Y0285450D01*
X0299267Y0280950D01*
X0302617Y0281700D02*
X0302617Y0283950D01*
X0304617Y0283950D02*
X0304617Y0280950D01*
X0303367Y0280950D01*
X0303313Y0280952D01*
X0303260Y0280958D01*
X0303208Y0280967D01*
X0303156Y0280980D01*
X0303105Y0280997D01*
X0303055Y0281018D01*
X0303008Y0281042D01*
X0302962Y0281069D01*
X0302918Y0281100D01*
X0302876Y0281133D01*
X0302837Y0281170D01*
X0302800Y0281209D01*
X0302767Y0281251D01*
X0302736Y0281295D01*
X0302709Y0281341D01*
X0302685Y0281388D01*
X0302664Y0281438D01*
X0302647Y0281489D01*
X0302634Y0281541D01*
X0302625Y0281593D01*
X0302619Y0281646D01*
X0302617Y0281700D01*
X0287592Y0281575D02*
X0287541Y0281684D01*
X0287494Y0281794D01*
X0287450Y0281906D01*
X0287410Y0282020D01*
X0287374Y0282134D01*
X0287341Y0282250D01*
X0287312Y0282366D01*
X0287287Y0282484D01*
X0287266Y0282602D01*
X0287248Y0282721D01*
X0287235Y0282840D01*
X0287225Y0282960D01*
X0287219Y0283080D01*
X0287217Y0283200D01*
X0289716Y0283200D02*
X0289714Y0283080D01*
X0289708Y0282960D01*
X0289698Y0282840D01*
X0289685Y0282721D01*
X0289667Y0282602D01*
X0289646Y0282484D01*
X0289621Y0282366D01*
X0289592Y0282250D01*
X0289559Y0282134D01*
X0289523Y0282020D01*
X0289483Y0281906D01*
X0289439Y0281794D01*
X0289392Y0281684D01*
X0289341Y0281575D01*
X0289342Y0281575D02*
X0289321Y0281519D01*
X0289295Y0281464D01*
X0289267Y0281410D01*
X0289235Y0281359D01*
X0289200Y0281310D01*
X0289161Y0281264D01*
X0289120Y0281220D01*
X0289076Y0281178D01*
X0289029Y0281140D01*
X0288980Y0281105D01*
X0288928Y0281073D01*
X0288875Y0281045D01*
X0288820Y0281020D01*
X0288764Y0280999D01*
X0288706Y0280981D01*
X0288647Y0280968D01*
X0288587Y0280958D01*
X0288527Y0280952D01*
X0288467Y0280950D01*
X0288407Y0280952D01*
X0288347Y0280958D01*
X0288287Y0280968D01*
X0288228Y0280981D01*
X0288170Y0280999D01*
X0288114Y0281020D01*
X0288059Y0281045D01*
X0288006Y0281073D01*
X0287954Y0281105D01*
X0287905Y0281140D01*
X0287858Y0281178D01*
X0287814Y0281220D01*
X0287773Y0281264D01*
X0287734Y0281310D01*
X0287699Y0281359D01*
X0287667Y0281410D01*
X0287639Y0281464D01*
X0287613Y0281519D01*
X0287592Y0281575D01*
X0287467Y0281950D02*
X0289467Y0284450D01*
X0289342Y0284825D02*
X0289321Y0284881D01*
X0289295Y0284936D01*
X0289267Y0284990D01*
X0289235Y0285041D01*
X0289200Y0285090D01*
X0289161Y0285136D01*
X0289120Y0285180D01*
X0289076Y0285222D01*
X0289029Y0285260D01*
X0288980Y0285295D01*
X0288928Y0285327D01*
X0288875Y0285355D01*
X0288820Y0285380D01*
X0288764Y0285401D01*
X0288706Y0285419D01*
X0288647Y0285432D01*
X0288587Y0285442D01*
X0288527Y0285448D01*
X0288467Y0285450D01*
X0288407Y0285448D01*
X0288347Y0285442D01*
X0288287Y0285432D01*
X0288228Y0285419D01*
X0288170Y0285401D01*
X0288114Y0285380D01*
X0288059Y0285355D01*
X0288006Y0285327D01*
X0287954Y0285295D01*
X0287905Y0285260D01*
X0287858Y0285222D01*
X0287814Y0285180D01*
X0287773Y0285136D01*
X0287734Y0285090D01*
X0287699Y0285041D01*
X0287667Y0284990D01*
X0287639Y0284936D01*
X0287613Y0284881D01*
X0287592Y0284825D01*
X0289341Y0284825D02*
X0289392Y0284716D01*
X0289439Y0284606D01*
X0289483Y0284494D01*
X0289523Y0284380D01*
X0289559Y0284266D01*
X0289592Y0284150D01*
X0289621Y0284034D01*
X0289646Y0283916D01*
X0289667Y0283798D01*
X0289685Y0283679D01*
X0289698Y0283560D01*
X0289708Y0283440D01*
X0289714Y0283320D01*
X0289716Y0283200D01*
X0287217Y0283200D02*
X0287219Y0283320D01*
X0287225Y0283440D01*
X0287235Y0283560D01*
X0287248Y0283679D01*
X0287266Y0283798D01*
X0287287Y0283916D01*
X0287312Y0284034D01*
X0287341Y0284150D01*
X0287374Y0284266D01*
X0287410Y0284380D01*
X0287450Y0284494D01*
X0287494Y0284606D01*
X0287541Y0284716D01*
X0287592Y0284825D01*
X0287217Y0308450D02*
X0288217Y0308450D01*
X0287217Y0308450D02*
X0287157Y0308452D01*
X0287096Y0308457D01*
X0287037Y0308466D01*
X0286978Y0308479D01*
X0286919Y0308495D01*
X0286862Y0308515D01*
X0286807Y0308538D01*
X0286752Y0308565D01*
X0286700Y0308594D01*
X0286649Y0308627D01*
X0286600Y0308663D01*
X0286554Y0308701D01*
X0286510Y0308743D01*
X0286468Y0308787D01*
X0286430Y0308833D01*
X0286394Y0308882D01*
X0286361Y0308933D01*
X0286332Y0308985D01*
X0286305Y0309040D01*
X0286282Y0309095D01*
X0286262Y0309152D01*
X0286246Y0309211D01*
X0286233Y0309270D01*
X0286224Y0309329D01*
X0286219Y0309390D01*
X0286217Y0309450D01*
X0286217Y0311950D01*
X0286219Y0312010D01*
X0286224Y0312071D01*
X0286233Y0312130D01*
X0286246Y0312189D01*
X0286262Y0312248D01*
X0286282Y0312305D01*
X0286305Y0312360D01*
X0286332Y0312415D01*
X0286361Y0312467D01*
X0286394Y0312518D01*
X0286430Y0312567D01*
X0286468Y0312613D01*
X0286510Y0312657D01*
X0286554Y0312699D01*
X0286600Y0312737D01*
X0286649Y0312773D01*
X0286700Y0312806D01*
X0286752Y0312835D01*
X0286807Y0312862D01*
X0286862Y0312885D01*
X0286919Y0312905D01*
X0286978Y0312921D01*
X0287037Y0312934D01*
X0287096Y0312943D01*
X0287157Y0312948D01*
X0287217Y0312950D01*
X0288217Y0312950D01*
X0289981Y0311950D02*
X0291231Y0312950D01*
X0291231Y0308450D01*
X0289981Y0308450D02*
X0292481Y0308450D01*
X0338217Y0264450D02*
X0339467Y0264450D01*
X0339536Y0264448D01*
X0339605Y0264442D01*
X0339673Y0264433D01*
X0339740Y0264420D01*
X0339807Y0264403D01*
X0339873Y0264382D01*
X0339937Y0264358D01*
X0340000Y0264330D01*
X0340062Y0264299D01*
X0340122Y0264265D01*
X0340179Y0264227D01*
X0340235Y0264186D01*
X0340288Y0264143D01*
X0340339Y0264096D01*
X0340387Y0264047D01*
X0340432Y0263995D01*
X0340474Y0263940D01*
X0340513Y0263884D01*
X0340550Y0263825D01*
X0340582Y0263764D01*
X0340612Y0263702D01*
X0340638Y0263638D01*
X0340660Y0263573D01*
X0340679Y0263507D01*
X0340694Y0263440D01*
X0340705Y0263372D01*
X0340713Y0263303D01*
X0340717Y0263234D01*
X0340717Y0263166D01*
X0340713Y0263097D01*
X0340705Y0263028D01*
X0340694Y0262960D01*
X0340679Y0262893D01*
X0340660Y0262827D01*
X0340638Y0262762D01*
X0340612Y0262698D01*
X0340582Y0262636D01*
X0340550Y0262575D01*
X0340513Y0262516D01*
X0340474Y0262460D01*
X0340432Y0262405D01*
X0340387Y0262353D01*
X0340339Y0262304D01*
X0340288Y0262257D01*
X0340235Y0262214D01*
X0340179Y0262173D01*
X0340122Y0262135D01*
X0340062Y0262101D01*
X0340000Y0262070D01*
X0339937Y0262042D01*
X0339873Y0262018D01*
X0339807Y0261997D01*
X0339740Y0261980D01*
X0339673Y0261967D01*
X0339605Y0261958D01*
X0339536Y0261952D01*
X0339467Y0261950D01*
X0338217Y0261950D01*
X0339717Y0261950D02*
X0340717Y0259950D01*
X0342684Y0259950D02*
X0344184Y0259950D01*
X0344244Y0259952D01*
X0344305Y0259957D01*
X0344364Y0259966D01*
X0344423Y0259979D01*
X0344482Y0259995D01*
X0344539Y0260015D01*
X0344594Y0260038D01*
X0344649Y0260065D01*
X0344701Y0260094D01*
X0344752Y0260127D01*
X0344801Y0260163D01*
X0344847Y0260201D01*
X0344891Y0260243D01*
X0344933Y0260287D01*
X0344971Y0260333D01*
X0345007Y0260382D01*
X0345040Y0260433D01*
X0345069Y0260485D01*
X0345096Y0260540D01*
X0345119Y0260595D01*
X0345139Y0260652D01*
X0345155Y0260711D01*
X0345168Y0260770D01*
X0345177Y0260829D01*
X0345182Y0260890D01*
X0345184Y0260950D01*
X0345184Y0261450D01*
X0345182Y0261510D01*
X0345177Y0261571D01*
X0345168Y0261630D01*
X0345155Y0261689D01*
X0345139Y0261748D01*
X0345119Y0261805D01*
X0345096Y0261860D01*
X0345069Y0261915D01*
X0345040Y0261967D01*
X0345007Y0262018D01*
X0344971Y0262067D01*
X0344933Y0262113D01*
X0344891Y0262157D01*
X0344847Y0262199D01*
X0344801Y0262237D01*
X0344752Y0262273D01*
X0344701Y0262306D01*
X0344649Y0262335D01*
X0344594Y0262362D01*
X0344539Y0262385D01*
X0344482Y0262405D01*
X0344423Y0262421D01*
X0344364Y0262434D01*
X0344305Y0262443D01*
X0344244Y0262448D01*
X0344184Y0262450D01*
X0342684Y0262450D01*
X0342684Y0264450D01*
X0345184Y0264450D01*
X0338217Y0264450D02*
X0338217Y0259950D01*
X0343467Y0254250D02*
X0342217Y0253250D01*
X0343467Y0254250D02*
X0343467Y0249750D01*
X0342217Y0249750D02*
X0344717Y0249750D01*
X0348841Y0250375D02*
X0348892Y0250484D01*
X0348939Y0250594D01*
X0348983Y0250706D01*
X0349023Y0250820D01*
X0349059Y0250934D01*
X0349092Y0251050D01*
X0349121Y0251166D01*
X0349146Y0251284D01*
X0349167Y0251402D01*
X0349185Y0251521D01*
X0349198Y0251640D01*
X0349208Y0251760D01*
X0349214Y0251880D01*
X0349216Y0252000D01*
X0353341Y0250375D02*
X0353392Y0250484D01*
X0353439Y0250594D01*
X0353483Y0250706D01*
X0353523Y0250820D01*
X0353559Y0250934D01*
X0353592Y0251050D01*
X0353621Y0251166D01*
X0353646Y0251284D01*
X0353667Y0251402D01*
X0353685Y0251521D01*
X0353698Y0251640D01*
X0353708Y0251760D01*
X0353714Y0251880D01*
X0353716Y0252000D01*
X0351217Y0252000D02*
X0351219Y0251880D01*
X0351225Y0251760D01*
X0351235Y0251640D01*
X0351248Y0251521D01*
X0351266Y0251402D01*
X0351287Y0251284D01*
X0351312Y0251166D01*
X0351341Y0251050D01*
X0351374Y0250934D01*
X0351410Y0250820D01*
X0351450Y0250706D01*
X0351494Y0250594D01*
X0351541Y0250484D01*
X0351592Y0250375D01*
X0351467Y0250750D02*
X0353467Y0253250D01*
X0353342Y0253625D02*
X0353321Y0253681D01*
X0353295Y0253736D01*
X0353267Y0253790D01*
X0353235Y0253841D01*
X0353200Y0253890D01*
X0353161Y0253936D01*
X0353120Y0253980D01*
X0353076Y0254022D01*
X0353029Y0254060D01*
X0352980Y0254095D01*
X0352928Y0254127D01*
X0352875Y0254155D01*
X0352820Y0254180D01*
X0352764Y0254201D01*
X0352706Y0254219D01*
X0352647Y0254232D01*
X0352587Y0254242D01*
X0352527Y0254248D01*
X0352467Y0254250D01*
X0352407Y0254248D01*
X0352347Y0254242D01*
X0352287Y0254232D01*
X0352228Y0254219D01*
X0352170Y0254201D01*
X0352114Y0254180D01*
X0352059Y0254155D01*
X0352006Y0254127D01*
X0351954Y0254095D01*
X0351905Y0254060D01*
X0351858Y0254022D01*
X0351814Y0253980D01*
X0351773Y0253936D01*
X0351734Y0253890D01*
X0351699Y0253841D01*
X0351667Y0253790D01*
X0351639Y0253736D01*
X0351613Y0253681D01*
X0351592Y0253625D01*
X0346717Y0252000D02*
X0346719Y0251880D01*
X0346725Y0251760D01*
X0346735Y0251640D01*
X0346748Y0251521D01*
X0346766Y0251402D01*
X0346787Y0251284D01*
X0346812Y0251166D01*
X0346841Y0251050D01*
X0346874Y0250934D01*
X0346910Y0250820D01*
X0346950Y0250706D01*
X0346994Y0250594D01*
X0347041Y0250484D01*
X0347092Y0250375D01*
X0346967Y0250750D02*
X0348967Y0253250D01*
X0348842Y0253625D02*
X0348821Y0253681D01*
X0348795Y0253736D01*
X0348767Y0253790D01*
X0348735Y0253841D01*
X0348700Y0253890D01*
X0348661Y0253936D01*
X0348620Y0253980D01*
X0348576Y0254022D01*
X0348529Y0254060D01*
X0348480Y0254095D01*
X0348428Y0254127D01*
X0348375Y0254155D01*
X0348320Y0254180D01*
X0348264Y0254201D01*
X0348206Y0254219D01*
X0348147Y0254232D01*
X0348087Y0254242D01*
X0348027Y0254248D01*
X0347967Y0254250D01*
X0347907Y0254248D01*
X0347847Y0254242D01*
X0347787Y0254232D01*
X0347728Y0254219D01*
X0347670Y0254201D01*
X0347614Y0254180D01*
X0347559Y0254155D01*
X0347506Y0254127D01*
X0347454Y0254095D01*
X0347405Y0254060D01*
X0347358Y0254022D01*
X0347314Y0253980D01*
X0347273Y0253936D01*
X0347234Y0253890D01*
X0347199Y0253841D01*
X0347167Y0253790D01*
X0347139Y0253736D01*
X0347113Y0253681D01*
X0347092Y0253625D01*
X0348841Y0253625D02*
X0348892Y0253516D01*
X0348939Y0253406D01*
X0348983Y0253294D01*
X0349023Y0253180D01*
X0349059Y0253066D01*
X0349092Y0252950D01*
X0349121Y0252834D01*
X0349146Y0252716D01*
X0349167Y0252598D01*
X0349185Y0252479D01*
X0349198Y0252360D01*
X0349208Y0252240D01*
X0349214Y0252120D01*
X0349216Y0252000D01*
X0353341Y0253625D02*
X0353392Y0253516D01*
X0353439Y0253406D01*
X0353483Y0253294D01*
X0353523Y0253180D01*
X0353559Y0253066D01*
X0353592Y0252950D01*
X0353621Y0252834D01*
X0353646Y0252716D01*
X0353667Y0252598D01*
X0353685Y0252479D01*
X0353698Y0252360D01*
X0353708Y0252240D01*
X0353714Y0252120D01*
X0353716Y0252000D01*
X0351217Y0252000D02*
X0351219Y0252120D01*
X0351225Y0252240D01*
X0351235Y0252360D01*
X0351248Y0252479D01*
X0351266Y0252598D01*
X0351287Y0252716D01*
X0351312Y0252834D01*
X0351341Y0252950D01*
X0351374Y0253066D01*
X0351410Y0253180D01*
X0351450Y0253294D01*
X0351494Y0253406D01*
X0351541Y0253516D01*
X0351592Y0253625D01*
X0347092Y0253625D02*
X0347041Y0253516D01*
X0346994Y0253406D01*
X0346950Y0253294D01*
X0346910Y0253180D01*
X0346874Y0253066D01*
X0346841Y0252950D01*
X0346812Y0252834D01*
X0346787Y0252716D01*
X0346766Y0252598D01*
X0346748Y0252479D01*
X0346735Y0252360D01*
X0346725Y0252240D01*
X0346719Y0252120D01*
X0346717Y0252000D01*
X0347967Y0249750D02*
X0348027Y0249752D01*
X0348087Y0249758D01*
X0348147Y0249768D01*
X0348206Y0249781D01*
X0348264Y0249799D01*
X0348320Y0249820D01*
X0348375Y0249845D01*
X0348428Y0249873D01*
X0348480Y0249905D01*
X0348529Y0249940D01*
X0348576Y0249978D01*
X0348620Y0250020D01*
X0348661Y0250064D01*
X0348700Y0250110D01*
X0348735Y0250159D01*
X0348767Y0250210D01*
X0348795Y0250264D01*
X0348821Y0250319D01*
X0348842Y0250375D01*
X0347967Y0249750D02*
X0347907Y0249752D01*
X0347847Y0249758D01*
X0347787Y0249768D01*
X0347728Y0249781D01*
X0347670Y0249799D01*
X0347614Y0249820D01*
X0347559Y0249845D01*
X0347506Y0249873D01*
X0347454Y0249905D01*
X0347405Y0249940D01*
X0347358Y0249978D01*
X0347314Y0250020D01*
X0347273Y0250064D01*
X0347234Y0250110D01*
X0347199Y0250159D01*
X0347167Y0250210D01*
X0347139Y0250264D01*
X0347113Y0250319D01*
X0347092Y0250375D01*
X0352467Y0249750D02*
X0352527Y0249752D01*
X0352587Y0249758D01*
X0352647Y0249768D01*
X0352706Y0249781D01*
X0352764Y0249799D01*
X0352820Y0249820D01*
X0352875Y0249845D01*
X0352928Y0249873D01*
X0352980Y0249905D01*
X0353029Y0249940D01*
X0353076Y0249978D01*
X0353120Y0250020D01*
X0353161Y0250064D01*
X0353200Y0250110D01*
X0353235Y0250159D01*
X0353267Y0250210D01*
X0353295Y0250264D01*
X0353321Y0250319D01*
X0353342Y0250375D01*
X0352467Y0249750D02*
X0352407Y0249752D01*
X0352347Y0249758D01*
X0352287Y0249768D01*
X0352228Y0249781D01*
X0352170Y0249799D01*
X0352114Y0249820D01*
X0352059Y0249845D01*
X0352006Y0249873D01*
X0351954Y0249905D01*
X0351905Y0249940D01*
X0351858Y0249978D01*
X0351814Y0250020D01*
X0351773Y0250064D01*
X0351734Y0250110D01*
X0351699Y0250159D01*
X0351667Y0250210D01*
X0351639Y0250264D01*
X0351613Y0250319D01*
X0351592Y0250375D01*
X0358217Y0287950D02*
X0359467Y0287950D01*
X0359535Y0287952D01*
X0359602Y0287957D01*
X0359669Y0287966D01*
X0359736Y0287979D01*
X0359801Y0287996D01*
X0359866Y0288015D01*
X0359930Y0288039D01*
X0359992Y0288066D01*
X0360053Y0288096D01*
X0360111Y0288129D01*
X0360168Y0288165D01*
X0360223Y0288205D01*
X0360276Y0288247D01*
X0360327Y0288293D01*
X0360374Y0288340D01*
X0360420Y0288391D01*
X0360462Y0288444D01*
X0360502Y0288499D01*
X0360538Y0288556D01*
X0360571Y0288614D01*
X0360601Y0288675D01*
X0360628Y0288737D01*
X0360652Y0288801D01*
X0360671Y0288866D01*
X0360688Y0288931D01*
X0360701Y0288998D01*
X0360710Y0289065D01*
X0360715Y0289132D01*
X0360717Y0289200D01*
X0360717Y0291200D01*
X0360715Y0291268D01*
X0360710Y0291335D01*
X0360701Y0291402D01*
X0360688Y0291469D01*
X0360671Y0291534D01*
X0360652Y0291599D01*
X0360628Y0291663D01*
X0360601Y0291725D01*
X0360571Y0291786D01*
X0360538Y0291844D01*
X0360502Y0291901D01*
X0360462Y0291956D01*
X0360420Y0292009D01*
X0360374Y0292060D01*
X0360327Y0292107D01*
X0360276Y0292153D01*
X0360223Y0292195D01*
X0360168Y0292235D01*
X0360111Y0292271D01*
X0360053Y0292304D01*
X0359992Y0292334D01*
X0359930Y0292361D01*
X0359866Y0292385D01*
X0359801Y0292404D01*
X0359736Y0292421D01*
X0359669Y0292434D01*
X0359602Y0292443D01*
X0359535Y0292448D01*
X0359467Y0292450D01*
X0358217Y0292450D01*
X0358217Y0287950D01*
X0362867Y0289200D02*
X0362867Y0290450D01*
X0364367Y0290450D01*
X0362867Y0290450D02*
X0362869Y0290537D01*
X0362875Y0290624D01*
X0362884Y0290711D01*
X0362897Y0290797D01*
X0362914Y0290883D01*
X0362935Y0290968D01*
X0362960Y0291051D01*
X0362988Y0291134D01*
X0363019Y0291215D01*
X0363054Y0291295D01*
X0363093Y0291373D01*
X0363135Y0291450D01*
X0363180Y0291525D01*
X0363229Y0291597D01*
X0363280Y0291668D01*
X0363335Y0291736D01*
X0363392Y0291801D01*
X0363453Y0291864D01*
X0363516Y0291925D01*
X0363581Y0291982D01*
X0363649Y0292037D01*
X0363720Y0292088D01*
X0363792Y0292137D01*
X0363867Y0292182D01*
X0363944Y0292224D01*
X0364022Y0292263D01*
X0364102Y0292298D01*
X0364183Y0292329D01*
X0364266Y0292357D01*
X0364349Y0292382D01*
X0364434Y0292403D01*
X0364520Y0292420D01*
X0364606Y0292433D01*
X0364693Y0292442D01*
X0364780Y0292448D01*
X0364867Y0292450D01*
X0365367Y0289450D02*
X0365367Y0289200D01*
X0365367Y0289450D02*
X0365365Y0289510D01*
X0365360Y0289571D01*
X0365351Y0289630D01*
X0365338Y0289689D01*
X0365322Y0289748D01*
X0365302Y0289805D01*
X0365279Y0289860D01*
X0365252Y0289915D01*
X0365223Y0289967D01*
X0365190Y0290018D01*
X0365154Y0290067D01*
X0365116Y0290113D01*
X0365074Y0290157D01*
X0365030Y0290199D01*
X0364984Y0290237D01*
X0364935Y0290273D01*
X0364884Y0290306D01*
X0364832Y0290335D01*
X0364777Y0290362D01*
X0364722Y0290385D01*
X0364665Y0290405D01*
X0364606Y0290421D01*
X0364547Y0290434D01*
X0364488Y0290443D01*
X0364427Y0290448D01*
X0364367Y0290450D01*
X0365367Y0289200D02*
X0365365Y0289131D01*
X0365359Y0289062D01*
X0365350Y0288994D01*
X0365337Y0288927D01*
X0365320Y0288860D01*
X0365299Y0288794D01*
X0365275Y0288730D01*
X0365247Y0288667D01*
X0365216Y0288605D01*
X0365182Y0288545D01*
X0365144Y0288488D01*
X0365103Y0288432D01*
X0365060Y0288379D01*
X0365013Y0288328D01*
X0364964Y0288280D01*
X0364912Y0288235D01*
X0364857Y0288193D01*
X0364801Y0288154D01*
X0364742Y0288117D01*
X0364681Y0288085D01*
X0364619Y0288055D01*
X0364555Y0288029D01*
X0364490Y0288007D01*
X0364424Y0287988D01*
X0364357Y0287973D01*
X0364289Y0287962D01*
X0364220Y0287954D01*
X0364151Y0287950D01*
X0364083Y0287950D01*
X0364014Y0287954D01*
X0363945Y0287962D01*
X0363877Y0287973D01*
X0363810Y0287988D01*
X0363744Y0288007D01*
X0363679Y0288029D01*
X0363615Y0288055D01*
X0363553Y0288085D01*
X0363492Y0288117D01*
X0363433Y0288154D01*
X0363377Y0288193D01*
X0363322Y0288235D01*
X0363270Y0288280D01*
X0363221Y0288328D01*
X0363174Y0288379D01*
X0363131Y0288432D01*
X0363090Y0288488D01*
X0363052Y0288545D01*
X0363018Y0288605D01*
X0362987Y0288667D01*
X0362959Y0288730D01*
X0362935Y0288794D01*
X0362914Y0288860D01*
X0362897Y0288927D01*
X0362884Y0288994D01*
X0362875Y0289062D01*
X0362869Y0289131D01*
X0362867Y0289200D01*
X0208217Y0059450D02*
X0205717Y0059450D01*
X0205717Y0057450D01*
X0207217Y0057450D01*
X0207277Y0057448D01*
X0207338Y0057443D01*
X0207397Y0057434D01*
X0207456Y0057421D01*
X0207515Y0057405D01*
X0207572Y0057385D01*
X0207627Y0057362D01*
X0207682Y0057335D01*
X0207734Y0057306D01*
X0207785Y0057273D01*
X0207834Y0057237D01*
X0207880Y0057199D01*
X0207924Y0057157D01*
X0207966Y0057113D01*
X0208004Y0057067D01*
X0208040Y0057018D01*
X0208073Y0056967D01*
X0208102Y0056915D01*
X0208129Y0056860D01*
X0208152Y0056805D01*
X0208172Y0056748D01*
X0208188Y0056689D01*
X0208201Y0056630D01*
X0208210Y0056571D01*
X0208215Y0056510D01*
X0208217Y0056450D01*
X0208217Y0055950D01*
X0208215Y0055890D01*
X0208210Y0055829D01*
X0208201Y0055770D01*
X0208188Y0055711D01*
X0208172Y0055652D01*
X0208152Y0055595D01*
X0208129Y0055540D01*
X0208102Y0055485D01*
X0208073Y0055433D01*
X0208040Y0055382D01*
X0208004Y0055333D01*
X0207966Y0055287D01*
X0207924Y0055243D01*
X0207880Y0055201D01*
X0207834Y0055163D01*
X0207785Y0055127D01*
X0207734Y0055094D01*
X0207682Y0055065D01*
X0207627Y0055038D01*
X0207572Y0055015D01*
X0207515Y0054995D01*
X0207456Y0054979D01*
X0207397Y0054966D01*
X0207338Y0054957D01*
X0207277Y0054952D01*
X0207217Y0054950D01*
X0205717Y0054950D01*
X0203952Y0054950D02*
X0202952Y0054950D01*
X0202892Y0054952D01*
X0202831Y0054957D01*
X0202772Y0054966D01*
X0202713Y0054979D01*
X0202654Y0054995D01*
X0202597Y0055015D01*
X0202542Y0055038D01*
X0202487Y0055065D01*
X0202435Y0055094D01*
X0202384Y0055127D01*
X0202335Y0055163D01*
X0202289Y0055201D01*
X0202245Y0055243D01*
X0202203Y0055287D01*
X0202165Y0055333D01*
X0202129Y0055382D01*
X0202096Y0055433D01*
X0202067Y0055485D01*
X0202040Y0055540D01*
X0202017Y0055595D01*
X0201997Y0055652D01*
X0201981Y0055711D01*
X0201968Y0055770D01*
X0201959Y0055829D01*
X0201954Y0055890D01*
X0201952Y0055950D01*
X0201952Y0058450D01*
X0201954Y0058510D01*
X0201959Y0058571D01*
X0201968Y0058630D01*
X0201981Y0058689D01*
X0201997Y0058748D01*
X0202017Y0058805D01*
X0202040Y0058860D01*
X0202067Y0058915D01*
X0202096Y0058967D01*
X0202129Y0059018D01*
X0202165Y0059067D01*
X0202203Y0059113D01*
X0202245Y0059157D01*
X0202289Y0059199D01*
X0202335Y0059237D01*
X0202384Y0059273D01*
X0202435Y0059306D01*
X0202487Y0059335D01*
X0202542Y0059362D01*
X0202597Y0059385D01*
X0202654Y0059405D01*
X0202713Y0059421D01*
X0202772Y0059434D01*
X0202831Y0059443D01*
X0202892Y0059448D01*
X0202952Y0059450D01*
X0203952Y0059450D01*
X0203452Y0007950D02*
X0202452Y0007950D01*
X0202392Y0007948D01*
X0202331Y0007943D01*
X0202272Y0007934D01*
X0202213Y0007921D01*
X0202154Y0007905D01*
X0202097Y0007885D01*
X0202042Y0007862D01*
X0201987Y0007835D01*
X0201935Y0007806D01*
X0201884Y0007773D01*
X0201835Y0007737D01*
X0201789Y0007699D01*
X0201745Y0007657D01*
X0201703Y0007613D01*
X0201665Y0007567D01*
X0201629Y0007518D01*
X0201596Y0007467D01*
X0201567Y0007415D01*
X0201540Y0007360D01*
X0201517Y0007305D01*
X0201497Y0007248D01*
X0201481Y0007189D01*
X0201468Y0007130D01*
X0201459Y0007071D01*
X0201454Y0007010D01*
X0201452Y0006950D01*
X0201452Y0004450D01*
X0201454Y0004390D01*
X0201459Y0004329D01*
X0201468Y0004270D01*
X0201481Y0004211D01*
X0201497Y0004152D01*
X0201517Y0004095D01*
X0201540Y0004040D01*
X0201567Y0003985D01*
X0201596Y0003933D01*
X0201629Y0003882D01*
X0201665Y0003833D01*
X0201703Y0003787D01*
X0201745Y0003743D01*
X0201789Y0003701D01*
X0201835Y0003663D01*
X0201884Y0003627D01*
X0201935Y0003594D01*
X0201987Y0003565D01*
X0202042Y0003538D01*
X0202097Y0003515D01*
X0202154Y0003495D01*
X0202213Y0003479D01*
X0202272Y0003466D01*
X0202331Y0003457D01*
X0202392Y0003452D01*
X0202452Y0003450D01*
X0203452Y0003450D01*
X0205217Y0003450D02*
X0206467Y0003450D01*
X0206536Y0003452D01*
X0206605Y0003458D01*
X0206673Y0003467D01*
X0206740Y0003480D01*
X0206807Y0003497D01*
X0206873Y0003518D01*
X0206937Y0003542D01*
X0207000Y0003570D01*
X0207062Y0003601D01*
X0207122Y0003635D01*
X0207179Y0003673D01*
X0207235Y0003714D01*
X0207288Y0003757D01*
X0207339Y0003804D01*
X0207387Y0003853D01*
X0207432Y0003905D01*
X0207474Y0003960D01*
X0207513Y0004016D01*
X0207550Y0004075D01*
X0207582Y0004136D01*
X0207612Y0004198D01*
X0207638Y0004262D01*
X0207660Y0004327D01*
X0207679Y0004393D01*
X0207694Y0004460D01*
X0207705Y0004528D01*
X0207713Y0004597D01*
X0207717Y0004666D01*
X0207717Y0004734D01*
X0207713Y0004803D01*
X0207705Y0004872D01*
X0207694Y0004940D01*
X0207679Y0005007D01*
X0207660Y0005073D01*
X0207638Y0005138D01*
X0207612Y0005202D01*
X0207582Y0005264D01*
X0207550Y0005325D01*
X0207513Y0005384D01*
X0207474Y0005440D01*
X0207432Y0005495D01*
X0207387Y0005547D01*
X0207339Y0005596D01*
X0207288Y0005643D01*
X0207235Y0005686D01*
X0207179Y0005727D01*
X0207122Y0005765D01*
X0207062Y0005799D01*
X0207000Y0005830D01*
X0206937Y0005858D01*
X0206873Y0005882D01*
X0206807Y0005903D01*
X0206740Y0005920D01*
X0206673Y0005933D01*
X0206605Y0005942D01*
X0206536Y0005948D01*
X0206467Y0005950D01*
X0206717Y0005950D02*
X0205717Y0005950D01*
X0206717Y0005950D02*
X0206779Y0005952D01*
X0206840Y0005958D01*
X0206901Y0005967D01*
X0206961Y0005980D01*
X0207020Y0005997D01*
X0207078Y0006018D01*
X0207135Y0006042D01*
X0207190Y0006069D01*
X0207243Y0006100D01*
X0207295Y0006134D01*
X0207344Y0006171D01*
X0207391Y0006211D01*
X0207435Y0006254D01*
X0207476Y0006299D01*
X0207515Y0006347D01*
X0207551Y0006398D01*
X0207583Y0006450D01*
X0207612Y0006504D01*
X0207638Y0006560D01*
X0207660Y0006618D01*
X0207679Y0006676D01*
X0207694Y0006736D01*
X0207705Y0006797D01*
X0207713Y0006858D01*
X0207717Y0006919D01*
X0207717Y0006981D01*
X0207713Y0007042D01*
X0207705Y0007103D01*
X0207694Y0007164D01*
X0207679Y0007224D01*
X0207660Y0007282D01*
X0207638Y0007340D01*
X0207612Y0007396D01*
X0207583Y0007450D01*
X0207551Y0007502D01*
X0207515Y0007553D01*
X0207476Y0007601D01*
X0207435Y0007646D01*
X0207391Y0007689D01*
X0207344Y0007729D01*
X0207295Y0007766D01*
X0207243Y0007800D01*
X0207190Y0007831D01*
X0207135Y0007858D01*
X0207078Y0007882D01*
X0207020Y0007903D01*
X0206961Y0007920D01*
X0206901Y0007933D01*
X0206840Y0007942D01*
X0206779Y0007948D01*
X0206717Y0007950D01*
X0205217Y0007950D01*
D14*
X0203967Y0027200D03*
X0144967Y0027200D03*
D15*
X0174467Y0067200D03*
X0204467Y0067200D03*
D16*
X0339467Y0284600D02*
X0339467Y0289800D01*
X0349467Y0289800D02*
X0349467Y0284600D01*
X0249467Y0304600D02*
X0249467Y0309800D01*
X0239467Y0309800D02*
X0239467Y0304600D01*
X0229467Y0304600D02*
X0229467Y0309800D01*
X0219467Y0309800D02*
X0219467Y0304600D01*
X0209467Y0304600D02*
X0209467Y0309800D01*
X0044467Y0294800D02*
X0044467Y0289600D01*
X0034467Y0289600D02*
X0034467Y0294800D01*
D17*
X0026667Y0012400D02*
X0024667Y0012400D01*
X0026367Y0014400D01*
X0025767Y0016000D02*
X0025701Y0015998D01*
X0025635Y0015992D01*
X0025570Y0015983D01*
X0025505Y0015970D01*
X0025441Y0015953D01*
X0025378Y0015933D01*
X0025317Y0015909D01*
X0025257Y0015881D01*
X0025198Y0015850D01*
X0025142Y0015816D01*
X0025087Y0015779D01*
X0025035Y0015739D01*
X0024985Y0015695D01*
X0024938Y0015649D01*
X0024893Y0015600D01*
X0024851Y0015549D01*
X0024812Y0015496D01*
X0024777Y0015440D01*
X0024744Y0015383D01*
X0024715Y0015323D01*
X0024689Y0015262D01*
X0024667Y0015200D01*
X0026367Y0014400D02*
X0026409Y0014443D01*
X0026449Y0014488D01*
X0026485Y0014536D01*
X0026519Y0014586D01*
X0026549Y0014638D01*
X0026577Y0014692D01*
X0026600Y0014747D01*
X0026620Y0014804D01*
X0026637Y0014862D01*
X0026650Y0014920D01*
X0026660Y0014980D01*
X0026665Y0015040D01*
X0026667Y0015100D01*
X0026665Y0015159D01*
X0026659Y0015217D01*
X0026650Y0015276D01*
X0026636Y0015333D01*
X0026619Y0015389D01*
X0026598Y0015444D01*
X0026574Y0015498D01*
X0026546Y0015550D01*
X0026515Y0015600D01*
X0026481Y0015648D01*
X0026444Y0015693D01*
X0026403Y0015736D01*
X0026360Y0015777D01*
X0026315Y0015814D01*
X0026267Y0015848D01*
X0026217Y0015879D01*
X0026165Y0015907D01*
X0026111Y0015931D01*
X0026056Y0015952D01*
X0026000Y0015969D01*
X0025943Y0015983D01*
X0025884Y0015992D01*
X0025826Y0015998D01*
X0025767Y0016000D01*
X0029967Y0014400D02*
X0030009Y0014443D01*
X0030049Y0014488D01*
X0030085Y0014536D01*
X0030119Y0014586D01*
X0030149Y0014638D01*
X0030177Y0014692D01*
X0030200Y0014747D01*
X0030220Y0014804D01*
X0030237Y0014862D01*
X0030250Y0014920D01*
X0030260Y0014980D01*
X0030265Y0015040D01*
X0030267Y0015100D01*
X0029967Y0014400D02*
X0028267Y0012400D01*
X0030267Y0012400D01*
X0031907Y0013800D02*
X0034307Y0013800D01*
X0035947Y0012400D02*
X0037947Y0012400D01*
X0039547Y0012400D02*
X0040547Y0012400D01*
X0040609Y0012402D01*
X0040670Y0012408D01*
X0040731Y0012417D01*
X0040791Y0012430D01*
X0040850Y0012447D01*
X0040908Y0012468D01*
X0040965Y0012492D01*
X0041020Y0012519D01*
X0041073Y0012550D01*
X0041125Y0012584D01*
X0041174Y0012621D01*
X0041221Y0012661D01*
X0041265Y0012704D01*
X0041306Y0012749D01*
X0041345Y0012797D01*
X0041381Y0012848D01*
X0041413Y0012900D01*
X0041442Y0012954D01*
X0041468Y0013010D01*
X0041490Y0013068D01*
X0041509Y0013126D01*
X0041524Y0013186D01*
X0041535Y0013247D01*
X0041543Y0013308D01*
X0041547Y0013369D01*
X0041547Y0013431D01*
X0041543Y0013492D01*
X0041535Y0013553D01*
X0041524Y0013614D01*
X0041509Y0013674D01*
X0041490Y0013732D01*
X0041468Y0013790D01*
X0041442Y0013846D01*
X0041413Y0013900D01*
X0041381Y0013952D01*
X0041345Y0014003D01*
X0041306Y0014051D01*
X0041265Y0014096D01*
X0041221Y0014139D01*
X0041174Y0014179D01*
X0041125Y0014216D01*
X0041073Y0014250D01*
X0041020Y0014281D01*
X0040965Y0014308D01*
X0040908Y0014332D01*
X0040850Y0014353D01*
X0040791Y0014370D01*
X0040731Y0014383D01*
X0040670Y0014392D01*
X0040609Y0014398D01*
X0040547Y0014400D01*
X0040747Y0014400D02*
X0039947Y0014400D01*
X0040747Y0014400D02*
X0040803Y0014402D01*
X0040858Y0014408D01*
X0040913Y0014417D01*
X0040968Y0014431D01*
X0041021Y0014448D01*
X0041072Y0014469D01*
X0041123Y0014494D01*
X0041171Y0014522D01*
X0041217Y0014553D01*
X0041261Y0014587D01*
X0041303Y0014625D01*
X0041342Y0014665D01*
X0041377Y0014707D01*
X0041410Y0014753D01*
X0041440Y0014800D01*
X0041466Y0014849D01*
X0041489Y0014900D01*
X0041508Y0014953D01*
X0041523Y0015006D01*
X0041535Y0015061D01*
X0041543Y0015116D01*
X0041547Y0015172D01*
X0041547Y0015228D01*
X0041543Y0015284D01*
X0041535Y0015339D01*
X0041523Y0015394D01*
X0041508Y0015447D01*
X0041489Y0015500D01*
X0041466Y0015551D01*
X0041440Y0015600D01*
X0041410Y0015647D01*
X0041377Y0015693D01*
X0041342Y0015735D01*
X0041303Y0015775D01*
X0041261Y0015813D01*
X0041217Y0015847D01*
X0041171Y0015878D01*
X0041123Y0015906D01*
X0041072Y0015931D01*
X0041021Y0015952D01*
X0040968Y0015969D01*
X0040913Y0015983D01*
X0040858Y0015992D01*
X0040803Y0015998D01*
X0040747Y0016000D01*
X0039547Y0016000D01*
X0037647Y0014400D02*
X0035947Y0012400D01*
X0035947Y0015200D02*
X0035969Y0015262D01*
X0035995Y0015323D01*
X0036024Y0015383D01*
X0036057Y0015440D01*
X0036092Y0015496D01*
X0036131Y0015549D01*
X0036173Y0015600D01*
X0036218Y0015649D01*
X0036265Y0015695D01*
X0036315Y0015739D01*
X0036367Y0015779D01*
X0036422Y0015816D01*
X0036478Y0015850D01*
X0036537Y0015881D01*
X0036597Y0015909D01*
X0036658Y0015933D01*
X0036721Y0015953D01*
X0036785Y0015970D01*
X0036850Y0015983D01*
X0036915Y0015992D01*
X0036981Y0015998D01*
X0037047Y0016000D01*
X0037106Y0015998D01*
X0037164Y0015992D01*
X0037223Y0015983D01*
X0037280Y0015969D01*
X0037336Y0015952D01*
X0037391Y0015931D01*
X0037445Y0015907D01*
X0037497Y0015879D01*
X0037547Y0015848D01*
X0037595Y0015814D01*
X0037640Y0015777D01*
X0037683Y0015736D01*
X0037724Y0015693D01*
X0037761Y0015648D01*
X0037795Y0015600D01*
X0037826Y0015550D01*
X0037854Y0015498D01*
X0037878Y0015444D01*
X0037899Y0015389D01*
X0037916Y0015333D01*
X0037930Y0015276D01*
X0037939Y0015217D01*
X0037945Y0015159D01*
X0037947Y0015100D01*
X0037945Y0015040D01*
X0037940Y0014980D01*
X0037930Y0014920D01*
X0037917Y0014862D01*
X0037900Y0014804D01*
X0037880Y0014747D01*
X0037857Y0014692D01*
X0037829Y0014638D01*
X0037799Y0014586D01*
X0037765Y0014536D01*
X0037729Y0014488D01*
X0037689Y0014443D01*
X0037647Y0014400D01*
X0043187Y0013800D02*
X0045587Y0013800D01*
X0047227Y0012400D02*
X0049227Y0012400D01*
X0052527Y0012900D02*
X0052571Y0012994D01*
X0052611Y0013089D01*
X0052648Y0013186D01*
X0052682Y0013284D01*
X0052712Y0013383D01*
X0052739Y0013483D01*
X0052762Y0013583D01*
X0052782Y0013685D01*
X0052798Y0013787D01*
X0052811Y0013890D01*
X0052820Y0013993D01*
X0052825Y0014096D01*
X0052827Y0014200D01*
X0050826Y0014200D02*
X0050828Y0014096D01*
X0050833Y0013993D01*
X0050842Y0013890D01*
X0050855Y0013787D01*
X0050871Y0013685D01*
X0050891Y0013583D01*
X0050914Y0013483D01*
X0050941Y0013383D01*
X0050971Y0013284D01*
X0051005Y0013186D01*
X0051042Y0013089D01*
X0051082Y0012994D01*
X0051126Y0012900D01*
X0051027Y0013200D02*
X0052627Y0015200D01*
X0052527Y0015500D02*
X0052508Y0015550D01*
X0052485Y0015599D01*
X0052458Y0015646D01*
X0052428Y0015691D01*
X0052395Y0015734D01*
X0052359Y0015774D01*
X0052320Y0015812D01*
X0052279Y0015846D01*
X0052235Y0015877D01*
X0052189Y0015906D01*
X0052141Y0015930D01*
X0052091Y0015951D01*
X0052040Y0015969D01*
X0051988Y0015982D01*
X0051935Y0015992D01*
X0051881Y0015998D01*
X0051827Y0016000D01*
X0051773Y0015998D01*
X0051719Y0015992D01*
X0051666Y0015982D01*
X0051614Y0015969D01*
X0051563Y0015951D01*
X0051513Y0015930D01*
X0051465Y0015906D01*
X0051419Y0015877D01*
X0051375Y0015846D01*
X0051334Y0015812D01*
X0051295Y0015774D01*
X0051259Y0015734D01*
X0051226Y0015691D01*
X0051196Y0015646D01*
X0051169Y0015599D01*
X0051146Y0015550D01*
X0051127Y0015500D01*
X0052527Y0015500D02*
X0052571Y0015406D01*
X0052611Y0015311D01*
X0052648Y0015214D01*
X0052682Y0015116D01*
X0052712Y0015017D01*
X0052739Y0014917D01*
X0052762Y0014817D01*
X0052782Y0014715D01*
X0052798Y0014613D01*
X0052811Y0014510D01*
X0052820Y0014407D01*
X0052825Y0014304D01*
X0052827Y0014200D01*
X0050826Y0014200D02*
X0050828Y0014304D01*
X0050833Y0014407D01*
X0050842Y0014510D01*
X0050855Y0014613D01*
X0050871Y0014715D01*
X0050891Y0014817D01*
X0050914Y0014917D01*
X0050941Y0015017D01*
X0050971Y0015116D01*
X0051005Y0015214D01*
X0051042Y0015311D01*
X0051082Y0015406D01*
X0051126Y0015500D01*
X0048927Y0014400D02*
X0047227Y0012400D01*
X0047227Y0015200D02*
X0047249Y0015262D01*
X0047275Y0015323D01*
X0047304Y0015383D01*
X0047337Y0015440D01*
X0047372Y0015496D01*
X0047411Y0015549D01*
X0047453Y0015600D01*
X0047498Y0015649D01*
X0047545Y0015695D01*
X0047595Y0015739D01*
X0047647Y0015779D01*
X0047702Y0015816D01*
X0047758Y0015850D01*
X0047817Y0015881D01*
X0047877Y0015909D01*
X0047938Y0015933D01*
X0048001Y0015953D01*
X0048065Y0015970D01*
X0048130Y0015983D01*
X0048195Y0015992D01*
X0048261Y0015998D01*
X0048327Y0016000D01*
X0048386Y0015998D01*
X0048444Y0015992D01*
X0048503Y0015983D01*
X0048560Y0015969D01*
X0048616Y0015952D01*
X0048671Y0015931D01*
X0048725Y0015907D01*
X0048777Y0015879D01*
X0048827Y0015848D01*
X0048875Y0015814D01*
X0048920Y0015777D01*
X0048963Y0015736D01*
X0049004Y0015693D01*
X0049041Y0015648D01*
X0049075Y0015600D01*
X0049106Y0015550D01*
X0049134Y0015498D01*
X0049158Y0015444D01*
X0049179Y0015389D01*
X0049196Y0015333D01*
X0049210Y0015276D01*
X0049219Y0015217D01*
X0049225Y0015159D01*
X0049227Y0015100D01*
X0049225Y0015040D01*
X0049220Y0014980D01*
X0049210Y0014920D01*
X0049197Y0014862D01*
X0049180Y0014804D01*
X0049160Y0014747D01*
X0049137Y0014692D01*
X0049109Y0014638D01*
X0049079Y0014586D01*
X0049045Y0014536D01*
X0049009Y0014488D01*
X0048969Y0014443D01*
X0048927Y0014400D01*
X0051827Y0012400D02*
X0051881Y0012402D01*
X0051935Y0012408D01*
X0051988Y0012418D01*
X0052040Y0012431D01*
X0052091Y0012449D01*
X0052141Y0012470D01*
X0052189Y0012494D01*
X0052235Y0012523D01*
X0052279Y0012554D01*
X0052320Y0012588D01*
X0052359Y0012626D01*
X0052395Y0012666D01*
X0052428Y0012709D01*
X0052458Y0012754D01*
X0052485Y0012801D01*
X0052508Y0012850D01*
X0052527Y0012900D01*
X0051827Y0012400D02*
X0051773Y0012402D01*
X0051719Y0012408D01*
X0051666Y0012418D01*
X0051614Y0012431D01*
X0051563Y0012449D01*
X0051513Y0012470D01*
X0051465Y0012494D01*
X0051419Y0012523D01*
X0051375Y0012554D01*
X0051334Y0012588D01*
X0051295Y0012626D01*
X0051259Y0012666D01*
X0051226Y0012709D01*
X0051196Y0012754D01*
X0051169Y0012801D01*
X0051146Y0012850D01*
X0051127Y0012900D01*
X0054427Y0012400D02*
X0055427Y0012400D01*
X0055489Y0012402D01*
X0055550Y0012408D01*
X0055611Y0012417D01*
X0055671Y0012430D01*
X0055730Y0012447D01*
X0055788Y0012468D01*
X0055845Y0012492D01*
X0055900Y0012519D01*
X0055953Y0012550D01*
X0056005Y0012584D01*
X0056054Y0012621D01*
X0056101Y0012661D01*
X0056145Y0012704D01*
X0056186Y0012749D01*
X0056225Y0012797D01*
X0056261Y0012848D01*
X0056293Y0012900D01*
X0056322Y0012954D01*
X0056348Y0013010D01*
X0056370Y0013068D01*
X0056389Y0013126D01*
X0056404Y0013186D01*
X0056415Y0013247D01*
X0056423Y0013308D01*
X0056427Y0013369D01*
X0056427Y0013431D01*
X0056423Y0013492D01*
X0056415Y0013553D01*
X0056404Y0013614D01*
X0056389Y0013674D01*
X0056370Y0013732D01*
X0056348Y0013790D01*
X0056322Y0013846D01*
X0056293Y0013900D01*
X0056261Y0013952D01*
X0056225Y0014003D01*
X0056186Y0014051D01*
X0056145Y0014096D01*
X0056101Y0014139D01*
X0056054Y0014179D01*
X0056005Y0014216D01*
X0055953Y0014250D01*
X0055900Y0014281D01*
X0055845Y0014308D01*
X0055788Y0014332D01*
X0055730Y0014353D01*
X0055671Y0014370D01*
X0055611Y0014383D01*
X0055550Y0014392D01*
X0055489Y0014398D01*
X0055427Y0014400D01*
X0055627Y0014400D02*
X0054827Y0014400D01*
X0055627Y0014400D02*
X0055683Y0014402D01*
X0055738Y0014408D01*
X0055793Y0014417D01*
X0055848Y0014431D01*
X0055901Y0014448D01*
X0055952Y0014469D01*
X0056003Y0014494D01*
X0056051Y0014522D01*
X0056097Y0014553D01*
X0056141Y0014587D01*
X0056183Y0014625D01*
X0056222Y0014665D01*
X0056257Y0014707D01*
X0056290Y0014753D01*
X0056320Y0014800D01*
X0056346Y0014849D01*
X0056369Y0014900D01*
X0056388Y0014953D01*
X0056403Y0015006D01*
X0056415Y0015061D01*
X0056423Y0015116D01*
X0056427Y0015172D01*
X0056427Y0015228D01*
X0056423Y0015284D01*
X0056415Y0015339D01*
X0056403Y0015394D01*
X0056388Y0015447D01*
X0056369Y0015500D01*
X0056346Y0015551D01*
X0056320Y0015600D01*
X0056290Y0015647D01*
X0056257Y0015693D01*
X0056222Y0015735D01*
X0056183Y0015775D01*
X0056141Y0015813D01*
X0056097Y0015847D01*
X0056051Y0015878D01*
X0056003Y0015906D01*
X0055952Y0015931D01*
X0055901Y0015952D01*
X0055848Y0015969D01*
X0055793Y0015983D01*
X0055738Y0015992D01*
X0055683Y0015998D01*
X0055627Y0016000D01*
X0054427Y0016000D01*
X0058027Y0015200D02*
X0059027Y0016000D01*
X0059027Y0012400D01*
X0058027Y0012400D02*
X0060027Y0012400D01*
X0029367Y0016000D02*
X0029301Y0015998D01*
X0029235Y0015992D01*
X0029170Y0015983D01*
X0029105Y0015970D01*
X0029041Y0015953D01*
X0028978Y0015933D01*
X0028917Y0015909D01*
X0028857Y0015881D01*
X0028798Y0015850D01*
X0028742Y0015816D01*
X0028687Y0015779D01*
X0028635Y0015739D01*
X0028585Y0015695D01*
X0028538Y0015649D01*
X0028493Y0015600D01*
X0028451Y0015549D01*
X0028412Y0015496D01*
X0028377Y0015440D01*
X0028344Y0015383D01*
X0028315Y0015323D01*
X0028289Y0015262D01*
X0028267Y0015200D01*
X0029367Y0016000D02*
X0029426Y0015998D01*
X0029484Y0015992D01*
X0029543Y0015983D01*
X0029600Y0015969D01*
X0029656Y0015952D01*
X0029711Y0015931D01*
X0029765Y0015907D01*
X0029817Y0015879D01*
X0029867Y0015848D01*
X0029915Y0015814D01*
X0029960Y0015777D01*
X0030003Y0015736D01*
X0030044Y0015693D01*
X0030081Y0015648D01*
X0030115Y0015600D01*
X0030146Y0015550D01*
X0030174Y0015498D01*
X0030198Y0015444D01*
X0030219Y0015389D01*
X0030236Y0015333D01*
X0030250Y0015276D01*
X0030259Y0015217D01*
X0030265Y0015159D01*
X0030267Y0015100D01*
X0029067Y0047400D02*
X0029067Y0051000D01*
X0027067Y0051000D02*
X0027067Y0047400D01*
X0025467Y0047400D02*
X0024667Y0047400D01*
X0025067Y0047400D02*
X0025067Y0051000D01*
X0024667Y0051000D02*
X0025467Y0051000D01*
X0027067Y0051000D02*
X0029067Y0047400D01*
X0128467Y0283400D02*
X0130867Y0287000D01*
X0128467Y0287000D02*
X0130867Y0283400D01*
X0132267Y0283400D02*
X0133967Y0285400D01*
X0133367Y0287000D02*
X0133301Y0286998D01*
X0133235Y0286992D01*
X0133170Y0286983D01*
X0133105Y0286970D01*
X0133041Y0286953D01*
X0132978Y0286933D01*
X0132917Y0286909D01*
X0132857Y0286881D01*
X0132798Y0286850D01*
X0132742Y0286816D01*
X0132687Y0286779D01*
X0132635Y0286739D01*
X0132585Y0286695D01*
X0132538Y0286649D01*
X0132493Y0286600D01*
X0132451Y0286549D01*
X0132412Y0286496D01*
X0132377Y0286440D01*
X0132344Y0286383D01*
X0132315Y0286323D01*
X0132289Y0286262D01*
X0132267Y0286200D01*
X0133967Y0285400D02*
X0134009Y0285443D01*
X0134049Y0285488D01*
X0134085Y0285536D01*
X0134119Y0285586D01*
X0134149Y0285638D01*
X0134177Y0285692D01*
X0134200Y0285747D01*
X0134220Y0285804D01*
X0134237Y0285862D01*
X0134250Y0285920D01*
X0134260Y0285980D01*
X0134265Y0286040D01*
X0134267Y0286100D01*
X0134265Y0286159D01*
X0134259Y0286217D01*
X0134250Y0286276D01*
X0134236Y0286333D01*
X0134219Y0286389D01*
X0134198Y0286444D01*
X0134174Y0286498D01*
X0134146Y0286550D01*
X0134115Y0286600D01*
X0134081Y0286648D01*
X0134044Y0286693D01*
X0134003Y0286736D01*
X0133960Y0286777D01*
X0133915Y0286814D01*
X0133867Y0286848D01*
X0133817Y0286879D01*
X0133765Y0286907D01*
X0133711Y0286931D01*
X0133656Y0286952D01*
X0133600Y0286969D01*
X0133543Y0286983D01*
X0133484Y0286992D01*
X0133426Y0286998D01*
X0133367Y0287000D01*
X0134267Y0283400D02*
X0132267Y0283400D01*
X0132267Y0318400D02*
X0134267Y0318400D01*
X0133267Y0318400D02*
X0133267Y0322000D01*
X0132267Y0321200D01*
X0129867Y0320400D02*
X0129923Y0320402D01*
X0129978Y0320408D01*
X0130033Y0320417D01*
X0130088Y0320431D01*
X0130141Y0320448D01*
X0130192Y0320469D01*
X0130243Y0320494D01*
X0130291Y0320522D01*
X0130337Y0320553D01*
X0130381Y0320587D01*
X0130423Y0320625D01*
X0130462Y0320665D01*
X0130497Y0320707D01*
X0130530Y0320753D01*
X0130560Y0320800D01*
X0130586Y0320849D01*
X0130609Y0320900D01*
X0130628Y0320953D01*
X0130643Y0321006D01*
X0130655Y0321061D01*
X0130663Y0321116D01*
X0130667Y0321172D01*
X0130667Y0321228D01*
X0130663Y0321284D01*
X0130655Y0321339D01*
X0130643Y0321394D01*
X0130628Y0321447D01*
X0130609Y0321500D01*
X0130586Y0321551D01*
X0130560Y0321600D01*
X0130530Y0321647D01*
X0130497Y0321693D01*
X0130462Y0321735D01*
X0130423Y0321775D01*
X0130381Y0321813D01*
X0130337Y0321847D01*
X0130291Y0321878D01*
X0130243Y0321906D01*
X0130192Y0321931D01*
X0130141Y0321952D01*
X0130088Y0321969D01*
X0130033Y0321983D01*
X0129978Y0321992D01*
X0129923Y0321998D01*
X0129867Y0322000D01*
X0128667Y0322000D01*
X0129067Y0320400D02*
X0129867Y0320400D01*
X0129667Y0320400D02*
X0129729Y0320398D01*
X0129790Y0320392D01*
X0129851Y0320383D01*
X0129911Y0320370D01*
X0129970Y0320353D01*
X0130028Y0320332D01*
X0130085Y0320308D01*
X0130140Y0320281D01*
X0130193Y0320250D01*
X0130245Y0320216D01*
X0130294Y0320179D01*
X0130341Y0320139D01*
X0130385Y0320096D01*
X0130426Y0320051D01*
X0130465Y0320003D01*
X0130501Y0319952D01*
X0130533Y0319900D01*
X0130562Y0319846D01*
X0130588Y0319790D01*
X0130610Y0319732D01*
X0130629Y0319674D01*
X0130644Y0319614D01*
X0130655Y0319553D01*
X0130663Y0319492D01*
X0130667Y0319431D01*
X0130667Y0319369D01*
X0130663Y0319308D01*
X0130655Y0319247D01*
X0130644Y0319186D01*
X0130629Y0319126D01*
X0130610Y0319068D01*
X0130588Y0319010D01*
X0130562Y0318954D01*
X0130533Y0318900D01*
X0130501Y0318848D01*
X0130465Y0318797D01*
X0130426Y0318749D01*
X0130385Y0318704D01*
X0130341Y0318661D01*
X0130294Y0318621D01*
X0130245Y0318584D01*
X0130193Y0318550D01*
X0130140Y0318519D01*
X0130085Y0318492D01*
X0130028Y0318468D01*
X0129970Y0318447D01*
X0129911Y0318430D01*
X0129851Y0318417D01*
X0129790Y0318408D01*
X0129729Y0318402D01*
X0129667Y0318400D01*
X0128667Y0318400D01*
X0125366Y0318900D02*
X0125322Y0318994D01*
X0125282Y0319089D01*
X0125245Y0319186D01*
X0125211Y0319284D01*
X0125181Y0319383D01*
X0125154Y0319483D01*
X0125131Y0319583D01*
X0125111Y0319685D01*
X0125095Y0319787D01*
X0125082Y0319890D01*
X0125073Y0319993D01*
X0125068Y0320096D01*
X0125066Y0320200D01*
X0127067Y0320200D02*
X0127065Y0320096D01*
X0127060Y0319993D01*
X0127051Y0319890D01*
X0127038Y0319787D01*
X0127022Y0319685D01*
X0127002Y0319583D01*
X0126979Y0319483D01*
X0126952Y0319383D01*
X0126922Y0319284D01*
X0126888Y0319186D01*
X0126851Y0319089D01*
X0126811Y0318994D01*
X0126767Y0318900D01*
X0126748Y0318850D01*
X0126725Y0318801D01*
X0126698Y0318754D01*
X0126668Y0318709D01*
X0126635Y0318666D01*
X0126599Y0318626D01*
X0126560Y0318588D01*
X0126519Y0318554D01*
X0126475Y0318523D01*
X0126429Y0318494D01*
X0126381Y0318470D01*
X0126331Y0318449D01*
X0126280Y0318431D01*
X0126228Y0318418D01*
X0126175Y0318408D01*
X0126121Y0318402D01*
X0126067Y0318400D01*
X0126013Y0318402D01*
X0125959Y0318408D01*
X0125906Y0318418D01*
X0125854Y0318431D01*
X0125803Y0318449D01*
X0125753Y0318470D01*
X0125705Y0318494D01*
X0125659Y0318523D01*
X0125615Y0318554D01*
X0125574Y0318588D01*
X0125535Y0318626D01*
X0125499Y0318666D01*
X0125466Y0318709D01*
X0125436Y0318754D01*
X0125409Y0318801D01*
X0125386Y0318850D01*
X0125367Y0318900D01*
X0125267Y0319200D02*
X0126867Y0321200D01*
X0126767Y0321500D02*
X0126748Y0321550D01*
X0126725Y0321599D01*
X0126698Y0321646D01*
X0126668Y0321691D01*
X0126635Y0321734D01*
X0126599Y0321774D01*
X0126560Y0321812D01*
X0126519Y0321846D01*
X0126475Y0321877D01*
X0126429Y0321906D01*
X0126381Y0321930D01*
X0126331Y0321951D01*
X0126280Y0321969D01*
X0126228Y0321982D01*
X0126175Y0321992D01*
X0126121Y0321998D01*
X0126067Y0322000D01*
X0126013Y0321998D01*
X0125959Y0321992D01*
X0125906Y0321982D01*
X0125854Y0321969D01*
X0125803Y0321951D01*
X0125753Y0321930D01*
X0125705Y0321906D01*
X0125659Y0321877D01*
X0125615Y0321846D01*
X0125574Y0321812D01*
X0125535Y0321774D01*
X0125499Y0321734D01*
X0125466Y0321691D01*
X0125436Y0321646D01*
X0125409Y0321599D01*
X0125386Y0321550D01*
X0125367Y0321500D01*
X0126767Y0321500D02*
X0126811Y0321406D01*
X0126851Y0321311D01*
X0126888Y0321214D01*
X0126922Y0321116D01*
X0126952Y0321017D01*
X0126979Y0320917D01*
X0127002Y0320817D01*
X0127022Y0320715D01*
X0127038Y0320613D01*
X0127051Y0320510D01*
X0127060Y0320407D01*
X0127065Y0320304D01*
X0127067Y0320200D01*
X0125066Y0320200D02*
X0125068Y0320304D01*
X0125073Y0320407D01*
X0125082Y0320510D01*
X0125095Y0320613D01*
X0125111Y0320715D01*
X0125131Y0320817D01*
X0125154Y0320917D01*
X0125181Y0321017D01*
X0125211Y0321116D01*
X0125245Y0321214D01*
X0125282Y0321311D01*
X0125322Y0321406D01*
X0125366Y0321500D01*
X0123167Y0320400D02*
X0121467Y0318400D01*
X0123467Y0318400D01*
X0121467Y0321200D02*
X0121489Y0321262D01*
X0121515Y0321323D01*
X0121544Y0321383D01*
X0121577Y0321440D01*
X0121612Y0321496D01*
X0121651Y0321549D01*
X0121693Y0321600D01*
X0121738Y0321649D01*
X0121785Y0321695D01*
X0121835Y0321739D01*
X0121887Y0321779D01*
X0121942Y0321816D01*
X0121998Y0321850D01*
X0122057Y0321881D01*
X0122117Y0321909D01*
X0122178Y0321933D01*
X0122241Y0321953D01*
X0122305Y0321970D01*
X0122370Y0321983D01*
X0122435Y0321992D01*
X0122501Y0321998D01*
X0122567Y0322000D01*
X0122626Y0321998D01*
X0122684Y0321992D01*
X0122743Y0321983D01*
X0122800Y0321969D01*
X0122856Y0321952D01*
X0122911Y0321931D01*
X0122965Y0321907D01*
X0123017Y0321879D01*
X0123067Y0321848D01*
X0123115Y0321814D01*
X0123160Y0321777D01*
X0123203Y0321736D01*
X0123244Y0321693D01*
X0123281Y0321648D01*
X0123315Y0321600D01*
X0123346Y0321550D01*
X0123374Y0321498D01*
X0123398Y0321444D01*
X0123419Y0321389D01*
X0123436Y0321333D01*
X0123450Y0321276D01*
X0123459Y0321217D01*
X0123465Y0321159D01*
X0123467Y0321100D01*
X0123465Y0321040D01*
X0123460Y0320980D01*
X0123450Y0320920D01*
X0123437Y0320862D01*
X0123420Y0320804D01*
X0123400Y0320747D01*
X0123377Y0320692D01*
X0123349Y0320638D01*
X0123319Y0320586D01*
X0123285Y0320536D01*
X0123249Y0320488D01*
X0123209Y0320443D01*
X0123167Y0320400D01*
X0119827Y0319800D02*
X0117427Y0319800D01*
X0114987Y0320400D02*
X0114187Y0320400D01*
X0114987Y0320400D02*
X0115043Y0320402D01*
X0115098Y0320408D01*
X0115153Y0320417D01*
X0115208Y0320431D01*
X0115261Y0320448D01*
X0115312Y0320469D01*
X0115363Y0320494D01*
X0115411Y0320522D01*
X0115457Y0320553D01*
X0115501Y0320587D01*
X0115543Y0320625D01*
X0115582Y0320665D01*
X0115617Y0320707D01*
X0115650Y0320753D01*
X0115680Y0320800D01*
X0115706Y0320849D01*
X0115729Y0320900D01*
X0115748Y0320953D01*
X0115763Y0321006D01*
X0115775Y0321061D01*
X0115783Y0321116D01*
X0115787Y0321172D01*
X0115787Y0321228D01*
X0115783Y0321284D01*
X0115775Y0321339D01*
X0115763Y0321394D01*
X0115748Y0321447D01*
X0115729Y0321500D01*
X0115706Y0321551D01*
X0115680Y0321600D01*
X0115650Y0321647D01*
X0115617Y0321693D01*
X0115582Y0321735D01*
X0115543Y0321775D01*
X0115501Y0321813D01*
X0115457Y0321847D01*
X0115411Y0321878D01*
X0115363Y0321906D01*
X0115312Y0321931D01*
X0115261Y0321952D01*
X0115208Y0321969D01*
X0115153Y0321983D01*
X0115098Y0321992D01*
X0115043Y0321998D01*
X0114987Y0322000D01*
X0113787Y0322000D01*
X0111887Y0320400D02*
X0110187Y0318400D01*
X0112187Y0318400D01*
X0113787Y0318400D02*
X0114787Y0318400D01*
X0114849Y0318402D01*
X0114910Y0318408D01*
X0114971Y0318417D01*
X0115031Y0318430D01*
X0115090Y0318447D01*
X0115148Y0318468D01*
X0115205Y0318492D01*
X0115260Y0318519D01*
X0115313Y0318550D01*
X0115365Y0318584D01*
X0115414Y0318621D01*
X0115461Y0318661D01*
X0115505Y0318704D01*
X0115546Y0318749D01*
X0115585Y0318797D01*
X0115621Y0318848D01*
X0115653Y0318900D01*
X0115682Y0318954D01*
X0115708Y0319010D01*
X0115730Y0319068D01*
X0115749Y0319126D01*
X0115764Y0319186D01*
X0115775Y0319247D01*
X0115783Y0319308D01*
X0115787Y0319369D01*
X0115787Y0319431D01*
X0115783Y0319492D01*
X0115775Y0319553D01*
X0115764Y0319614D01*
X0115749Y0319674D01*
X0115730Y0319732D01*
X0115708Y0319790D01*
X0115682Y0319846D01*
X0115653Y0319900D01*
X0115621Y0319952D01*
X0115585Y0320003D01*
X0115546Y0320051D01*
X0115505Y0320096D01*
X0115461Y0320139D01*
X0115414Y0320179D01*
X0115365Y0320216D01*
X0115313Y0320250D01*
X0115260Y0320281D01*
X0115205Y0320308D01*
X0115148Y0320332D01*
X0115090Y0320353D01*
X0115031Y0320370D01*
X0114971Y0320383D01*
X0114910Y0320392D01*
X0114849Y0320398D01*
X0114787Y0320400D01*
X0111287Y0322000D02*
X0111221Y0321998D01*
X0111155Y0321992D01*
X0111090Y0321983D01*
X0111025Y0321970D01*
X0110961Y0321953D01*
X0110898Y0321933D01*
X0110837Y0321909D01*
X0110777Y0321881D01*
X0110718Y0321850D01*
X0110662Y0321816D01*
X0110607Y0321779D01*
X0110555Y0321739D01*
X0110505Y0321695D01*
X0110458Y0321649D01*
X0110413Y0321600D01*
X0110371Y0321549D01*
X0110332Y0321496D01*
X0110297Y0321440D01*
X0110264Y0321383D01*
X0110235Y0321323D01*
X0110209Y0321262D01*
X0110187Y0321200D01*
X0111887Y0320400D02*
X0111929Y0320443D01*
X0111969Y0320488D01*
X0112005Y0320536D01*
X0112039Y0320586D01*
X0112069Y0320638D01*
X0112097Y0320692D01*
X0112120Y0320747D01*
X0112140Y0320804D01*
X0112157Y0320862D01*
X0112170Y0320920D01*
X0112180Y0320980D01*
X0112185Y0321040D01*
X0112187Y0321100D01*
X0112185Y0321159D01*
X0112179Y0321217D01*
X0112170Y0321276D01*
X0112156Y0321333D01*
X0112139Y0321389D01*
X0112118Y0321444D01*
X0112094Y0321498D01*
X0112066Y0321550D01*
X0112035Y0321600D01*
X0112001Y0321648D01*
X0111964Y0321693D01*
X0111923Y0321736D01*
X0111880Y0321777D01*
X0111835Y0321814D01*
X0111787Y0321848D01*
X0111737Y0321879D01*
X0111685Y0321907D01*
X0111631Y0321931D01*
X0111576Y0321952D01*
X0111520Y0321969D01*
X0111463Y0321983D01*
X0111404Y0321992D01*
X0111346Y0321998D01*
X0111287Y0322000D01*
X0108547Y0319800D02*
X0106147Y0319800D01*
X0104207Y0320400D02*
X0102507Y0318400D01*
X0104507Y0318400D01*
X0102507Y0321200D02*
X0102529Y0321262D01*
X0102555Y0321323D01*
X0102584Y0321383D01*
X0102617Y0321440D01*
X0102652Y0321496D01*
X0102691Y0321549D01*
X0102733Y0321600D01*
X0102778Y0321649D01*
X0102825Y0321695D01*
X0102875Y0321739D01*
X0102927Y0321779D01*
X0102982Y0321816D01*
X0103038Y0321850D01*
X0103097Y0321881D01*
X0103157Y0321909D01*
X0103218Y0321933D01*
X0103281Y0321953D01*
X0103345Y0321970D01*
X0103410Y0321983D01*
X0103475Y0321992D01*
X0103541Y0321998D01*
X0103607Y0322000D01*
X0103666Y0321998D01*
X0103724Y0321992D01*
X0103783Y0321983D01*
X0103840Y0321969D01*
X0103896Y0321952D01*
X0103951Y0321931D01*
X0104005Y0321907D01*
X0104057Y0321879D01*
X0104107Y0321848D01*
X0104155Y0321814D01*
X0104200Y0321777D01*
X0104243Y0321736D01*
X0104284Y0321693D01*
X0104321Y0321648D01*
X0104355Y0321600D01*
X0104386Y0321550D01*
X0104414Y0321498D01*
X0104438Y0321444D01*
X0104459Y0321389D01*
X0104476Y0321333D01*
X0104490Y0321276D01*
X0104499Y0321217D01*
X0104505Y0321159D01*
X0104507Y0321100D01*
X0104505Y0321040D01*
X0104500Y0320980D01*
X0104490Y0320920D01*
X0104477Y0320862D01*
X0104460Y0320804D01*
X0104440Y0320747D01*
X0104417Y0320692D01*
X0104389Y0320638D01*
X0104359Y0320586D01*
X0104325Y0320536D01*
X0104289Y0320488D01*
X0104249Y0320443D01*
X0104207Y0320400D01*
X0100607Y0320400D02*
X0098907Y0318400D01*
X0100907Y0318400D01*
X0098907Y0321200D02*
X0098929Y0321262D01*
X0098955Y0321323D01*
X0098984Y0321383D01*
X0099017Y0321440D01*
X0099052Y0321496D01*
X0099091Y0321549D01*
X0099133Y0321600D01*
X0099178Y0321649D01*
X0099225Y0321695D01*
X0099275Y0321739D01*
X0099327Y0321779D01*
X0099382Y0321816D01*
X0099438Y0321850D01*
X0099497Y0321881D01*
X0099557Y0321909D01*
X0099618Y0321933D01*
X0099681Y0321953D01*
X0099745Y0321970D01*
X0099810Y0321983D01*
X0099875Y0321992D01*
X0099941Y0321998D01*
X0100007Y0322000D01*
X0100066Y0321998D01*
X0100124Y0321992D01*
X0100183Y0321983D01*
X0100240Y0321969D01*
X0100296Y0321952D01*
X0100351Y0321931D01*
X0100405Y0321907D01*
X0100457Y0321879D01*
X0100507Y0321848D01*
X0100555Y0321814D01*
X0100600Y0321777D01*
X0100643Y0321736D01*
X0100684Y0321693D01*
X0100721Y0321648D01*
X0100755Y0321600D01*
X0100786Y0321550D01*
X0100814Y0321498D01*
X0100838Y0321444D01*
X0100859Y0321389D01*
X0100876Y0321333D01*
X0100890Y0321276D01*
X0100899Y0321217D01*
X0100905Y0321159D01*
X0100907Y0321100D01*
X0100905Y0321040D01*
X0100900Y0320980D01*
X0100890Y0320920D01*
X0100877Y0320862D01*
X0100860Y0320804D01*
X0100840Y0320747D01*
X0100817Y0320692D01*
X0100789Y0320638D01*
X0100759Y0320586D01*
X0100725Y0320536D01*
X0100689Y0320488D01*
X0100649Y0320443D01*
X0100607Y0320400D01*
X0073661Y0291500D02*
X0073572Y0291498D01*
X0073483Y0291492D01*
X0073394Y0291483D01*
X0073306Y0291469D01*
X0073219Y0291452D01*
X0073132Y0291430D01*
X0073046Y0291405D01*
X0072962Y0291377D01*
X0072879Y0291344D01*
X0072797Y0291308D01*
X0072717Y0291269D01*
X0072639Y0291226D01*
X0072563Y0291180D01*
X0072489Y0291130D01*
X0072417Y0291078D01*
X0072347Y0291022D01*
X0072280Y0290963D01*
X0072216Y0290901D01*
X0072154Y0290837D01*
X0072095Y0290770D01*
X0072039Y0290700D01*
X0071987Y0290628D01*
X0071937Y0290554D01*
X0071891Y0290478D01*
X0071848Y0290400D01*
X0071809Y0290320D01*
X0071773Y0290238D01*
X0071740Y0290155D01*
X0071712Y0290071D01*
X0071687Y0289985D01*
X0071665Y0289898D01*
X0071648Y0289811D01*
X0071634Y0289723D01*
X0071625Y0289634D01*
X0071619Y0289545D01*
X0071617Y0289456D01*
X0071617Y0288178D01*
X0071616Y0288178D02*
X0071618Y0288108D01*
X0071624Y0288037D01*
X0071633Y0287968D01*
X0071647Y0287899D01*
X0071664Y0287830D01*
X0071685Y0287763D01*
X0071710Y0287697D01*
X0071738Y0287633D01*
X0071770Y0287570D01*
X0071805Y0287509D01*
X0071844Y0287450D01*
X0071885Y0287393D01*
X0071930Y0287339D01*
X0071978Y0287287D01*
X0072028Y0287238D01*
X0072082Y0287191D01*
X0072137Y0287148D01*
X0072195Y0287108D01*
X0072255Y0287071D01*
X0072317Y0287038D01*
X0072381Y0287008D01*
X0072446Y0286981D01*
X0072512Y0286958D01*
X0072580Y0286939D01*
X0072649Y0286924D01*
X0072718Y0286912D01*
X0072788Y0286904D01*
X0072859Y0286900D01*
X0072929Y0286900D01*
X0073000Y0286904D01*
X0073070Y0286912D01*
X0073139Y0286924D01*
X0073208Y0286939D01*
X0073276Y0286958D01*
X0073342Y0286981D01*
X0073407Y0287008D01*
X0073471Y0287038D01*
X0073533Y0287071D01*
X0073593Y0287108D01*
X0073651Y0287148D01*
X0073706Y0287191D01*
X0073760Y0287238D01*
X0073810Y0287287D01*
X0073858Y0287339D01*
X0073903Y0287393D01*
X0073944Y0287450D01*
X0073983Y0287509D01*
X0074018Y0287570D01*
X0074050Y0287633D01*
X0074078Y0287697D01*
X0074103Y0287763D01*
X0074124Y0287830D01*
X0074141Y0287899D01*
X0074155Y0287968D01*
X0074164Y0288037D01*
X0074170Y0288108D01*
X0074172Y0288178D01*
X0074172Y0288433D01*
X0074170Y0288495D01*
X0074165Y0288556D01*
X0074155Y0288617D01*
X0074142Y0288678D01*
X0074126Y0288737D01*
X0074106Y0288795D01*
X0074082Y0288852D01*
X0074055Y0288908D01*
X0074025Y0288962D01*
X0073991Y0289014D01*
X0073955Y0289063D01*
X0073915Y0289111D01*
X0073873Y0289156D01*
X0073828Y0289198D01*
X0073780Y0289238D01*
X0073731Y0289274D01*
X0073679Y0289308D01*
X0073625Y0289338D01*
X0073569Y0289365D01*
X0073512Y0289389D01*
X0073454Y0289409D01*
X0073395Y0289425D01*
X0073334Y0289438D01*
X0073273Y0289448D01*
X0073212Y0289453D01*
X0073150Y0289455D01*
X0073150Y0289456D02*
X0071617Y0289456D01*
X0068611Y0288944D02*
X0067333Y0288944D01*
X0068611Y0288944D02*
X0068681Y0288946D01*
X0068752Y0288952D01*
X0068821Y0288961D01*
X0068890Y0288975D01*
X0068959Y0288992D01*
X0069026Y0289013D01*
X0069092Y0289038D01*
X0069156Y0289066D01*
X0069219Y0289098D01*
X0069280Y0289133D01*
X0069339Y0289172D01*
X0069396Y0289213D01*
X0069450Y0289258D01*
X0069502Y0289306D01*
X0069551Y0289356D01*
X0069598Y0289410D01*
X0069641Y0289465D01*
X0069681Y0289523D01*
X0069718Y0289583D01*
X0069751Y0289645D01*
X0069781Y0289709D01*
X0069808Y0289774D01*
X0069831Y0289840D01*
X0069850Y0289908D01*
X0069865Y0289977D01*
X0069877Y0290046D01*
X0069885Y0290116D01*
X0069889Y0290187D01*
X0069889Y0290257D01*
X0069885Y0290328D01*
X0069877Y0290398D01*
X0069865Y0290467D01*
X0069850Y0290536D01*
X0069831Y0290604D01*
X0069808Y0290670D01*
X0069781Y0290735D01*
X0069751Y0290799D01*
X0069718Y0290861D01*
X0069681Y0290921D01*
X0069641Y0290979D01*
X0069598Y0291034D01*
X0069551Y0291088D01*
X0069502Y0291138D01*
X0069450Y0291186D01*
X0069396Y0291231D01*
X0069339Y0291272D01*
X0069280Y0291311D01*
X0069219Y0291346D01*
X0069156Y0291378D01*
X0069092Y0291406D01*
X0069026Y0291431D01*
X0068959Y0291452D01*
X0068890Y0291469D01*
X0068821Y0291483D01*
X0068752Y0291492D01*
X0068681Y0291498D01*
X0068611Y0291500D01*
X0067333Y0291500D01*
X0067333Y0286900D01*
X0064978Y0286900D02*
X0064978Y0291500D01*
X0063444Y0288944D01*
X0061911Y0291500D01*
X0061911Y0286900D01*
X0060020Y0286900D02*
X0057976Y0286900D01*
X0057976Y0291500D01*
X0055722Y0291500D02*
X0055722Y0286900D01*
X0053167Y0286900D02*
X0053167Y0291500D01*
X0053167Y0289456D02*
X0055722Y0289456D01*
X0358167Y0286500D02*
X0358167Y0281900D01*
X0360722Y0281900D02*
X0360722Y0286500D01*
X0360722Y0284456D02*
X0358167Y0284456D01*
X0362976Y0286500D02*
X0362976Y0281900D01*
X0365020Y0281900D01*
X0366911Y0281900D02*
X0366911Y0286500D01*
X0368444Y0283944D01*
X0369978Y0286500D01*
X0369978Y0281900D01*
X0372333Y0281900D02*
X0372333Y0286500D01*
X0373611Y0286500D01*
X0373681Y0286498D01*
X0373752Y0286492D01*
X0373821Y0286483D01*
X0373890Y0286469D01*
X0373959Y0286452D01*
X0374026Y0286431D01*
X0374092Y0286406D01*
X0374156Y0286378D01*
X0374219Y0286346D01*
X0374280Y0286311D01*
X0374339Y0286272D01*
X0374396Y0286231D01*
X0374450Y0286186D01*
X0374502Y0286138D01*
X0374551Y0286088D01*
X0374598Y0286034D01*
X0374641Y0285979D01*
X0374681Y0285921D01*
X0374718Y0285861D01*
X0374751Y0285799D01*
X0374781Y0285735D01*
X0374808Y0285670D01*
X0374831Y0285604D01*
X0374850Y0285536D01*
X0374865Y0285467D01*
X0374877Y0285398D01*
X0374885Y0285328D01*
X0374889Y0285257D01*
X0374889Y0285187D01*
X0374885Y0285116D01*
X0374877Y0285046D01*
X0374865Y0284977D01*
X0374850Y0284908D01*
X0374831Y0284840D01*
X0374808Y0284774D01*
X0374781Y0284709D01*
X0374751Y0284645D01*
X0374718Y0284583D01*
X0374681Y0284523D01*
X0374641Y0284465D01*
X0374598Y0284410D01*
X0374551Y0284356D01*
X0374502Y0284306D01*
X0374450Y0284258D01*
X0374396Y0284213D01*
X0374339Y0284172D01*
X0374280Y0284133D01*
X0374219Y0284098D01*
X0374156Y0284066D01*
X0374092Y0284038D01*
X0374026Y0284013D01*
X0373959Y0283992D01*
X0373890Y0283975D01*
X0373821Y0283961D01*
X0373752Y0283952D01*
X0373681Y0283946D01*
X0373611Y0283944D01*
X0372333Y0283944D01*
X0376617Y0284456D02*
X0376617Y0283178D01*
X0376616Y0283178D02*
X0376618Y0283108D01*
X0376624Y0283037D01*
X0376633Y0282968D01*
X0376647Y0282899D01*
X0376664Y0282830D01*
X0376685Y0282763D01*
X0376710Y0282697D01*
X0376738Y0282633D01*
X0376770Y0282570D01*
X0376805Y0282509D01*
X0376844Y0282450D01*
X0376885Y0282393D01*
X0376930Y0282339D01*
X0376978Y0282287D01*
X0377028Y0282238D01*
X0377082Y0282191D01*
X0377137Y0282148D01*
X0377195Y0282108D01*
X0377255Y0282071D01*
X0377317Y0282038D01*
X0377381Y0282008D01*
X0377446Y0281981D01*
X0377512Y0281958D01*
X0377580Y0281939D01*
X0377649Y0281924D01*
X0377718Y0281912D01*
X0377788Y0281904D01*
X0377859Y0281900D01*
X0377929Y0281900D01*
X0378000Y0281904D01*
X0378070Y0281912D01*
X0378139Y0281924D01*
X0378208Y0281939D01*
X0378276Y0281958D01*
X0378342Y0281981D01*
X0378407Y0282008D01*
X0378471Y0282038D01*
X0378533Y0282071D01*
X0378593Y0282108D01*
X0378651Y0282148D01*
X0378706Y0282191D01*
X0378760Y0282238D01*
X0378810Y0282287D01*
X0378858Y0282339D01*
X0378903Y0282393D01*
X0378944Y0282450D01*
X0378983Y0282509D01*
X0379018Y0282570D01*
X0379050Y0282633D01*
X0379078Y0282697D01*
X0379103Y0282763D01*
X0379124Y0282830D01*
X0379141Y0282899D01*
X0379155Y0282968D01*
X0379164Y0283037D01*
X0379170Y0283108D01*
X0379172Y0283178D01*
X0379172Y0283433D01*
X0379170Y0283495D01*
X0379165Y0283556D01*
X0379155Y0283617D01*
X0379142Y0283678D01*
X0379126Y0283737D01*
X0379106Y0283795D01*
X0379082Y0283852D01*
X0379055Y0283908D01*
X0379025Y0283962D01*
X0378991Y0284014D01*
X0378955Y0284063D01*
X0378915Y0284111D01*
X0378873Y0284156D01*
X0378828Y0284198D01*
X0378780Y0284238D01*
X0378731Y0284274D01*
X0378679Y0284308D01*
X0378625Y0284338D01*
X0378569Y0284365D01*
X0378512Y0284389D01*
X0378454Y0284409D01*
X0378395Y0284425D01*
X0378334Y0284438D01*
X0378273Y0284448D01*
X0378212Y0284453D01*
X0378150Y0284455D01*
X0378150Y0284456D02*
X0376617Y0284456D01*
X0376619Y0284545D01*
X0376625Y0284634D01*
X0376634Y0284723D01*
X0376648Y0284811D01*
X0376665Y0284898D01*
X0376687Y0284985D01*
X0376712Y0285071D01*
X0376740Y0285155D01*
X0376773Y0285238D01*
X0376809Y0285320D01*
X0376848Y0285400D01*
X0376891Y0285478D01*
X0376937Y0285554D01*
X0376987Y0285628D01*
X0377039Y0285700D01*
X0377095Y0285770D01*
X0377154Y0285837D01*
X0377216Y0285901D01*
X0377280Y0285963D01*
X0377347Y0286022D01*
X0377417Y0286078D01*
X0377489Y0286130D01*
X0377563Y0286180D01*
X0377639Y0286226D01*
X0377717Y0286269D01*
X0377797Y0286308D01*
X0377879Y0286344D01*
X0377962Y0286377D01*
X0378046Y0286405D01*
X0378132Y0286430D01*
X0378219Y0286452D01*
X0378306Y0286469D01*
X0378394Y0286483D01*
X0378483Y0286492D01*
X0378572Y0286498D01*
X0378661Y0286500D01*
D18*
X0319467Y0037200D03*
X0259467Y0037200D03*
D19*
X0266867Y0023800D02*
X0270956Y0023800D01*
X0273981Y0023800D02*
X0273981Y0017156D01*
X0273983Y0017056D01*
X0273989Y0016955D01*
X0273999Y0016856D01*
X0274012Y0016756D01*
X0274030Y0016657D01*
X0274052Y0016559D01*
X0274077Y0016462D01*
X0274106Y0016366D01*
X0274139Y0016271D01*
X0274176Y0016178D01*
X0274216Y0016086D01*
X0274260Y0015996D01*
X0274307Y0015907D01*
X0274358Y0015820D01*
X0274412Y0015736D01*
X0274469Y0015654D01*
X0274530Y0015574D01*
X0274593Y0015496D01*
X0274660Y0015421D01*
X0274730Y0015349D01*
X0274802Y0015279D01*
X0274877Y0015212D01*
X0274955Y0015149D01*
X0275035Y0015088D01*
X0275117Y0015031D01*
X0275201Y0014977D01*
X0275288Y0014926D01*
X0275377Y0014879D01*
X0275467Y0014835D01*
X0275559Y0014795D01*
X0275652Y0014758D01*
X0275747Y0014725D01*
X0275843Y0014696D01*
X0275940Y0014671D01*
X0276038Y0014649D01*
X0276137Y0014631D01*
X0276237Y0014618D01*
X0276336Y0014608D01*
X0276437Y0014602D01*
X0276537Y0014600D01*
X0276637Y0014602D01*
X0276738Y0014608D01*
X0276837Y0014618D01*
X0276937Y0014631D01*
X0277036Y0014649D01*
X0277134Y0014671D01*
X0277231Y0014696D01*
X0277327Y0014725D01*
X0277422Y0014758D01*
X0277515Y0014795D01*
X0277607Y0014835D01*
X0277697Y0014879D01*
X0277786Y0014926D01*
X0277873Y0014977D01*
X0277957Y0015031D01*
X0278039Y0015088D01*
X0278119Y0015149D01*
X0278197Y0015212D01*
X0278272Y0015279D01*
X0278344Y0015349D01*
X0278414Y0015421D01*
X0278481Y0015496D01*
X0278544Y0015574D01*
X0278605Y0015654D01*
X0278662Y0015736D01*
X0278716Y0015820D01*
X0278767Y0015907D01*
X0278814Y0015996D01*
X0278858Y0016086D01*
X0278898Y0016178D01*
X0278935Y0016271D01*
X0278968Y0016366D01*
X0278997Y0016462D01*
X0279022Y0016559D01*
X0279044Y0016657D01*
X0279062Y0016756D01*
X0279075Y0016856D01*
X0279085Y0016955D01*
X0279091Y0017056D01*
X0279093Y0017156D01*
X0279092Y0017156D02*
X0279092Y0023800D01*
X0282457Y0021756D02*
X0282459Y0021845D01*
X0282465Y0021934D01*
X0282474Y0022023D01*
X0282488Y0022111D01*
X0282505Y0022198D01*
X0282527Y0022285D01*
X0282552Y0022371D01*
X0282580Y0022455D01*
X0282613Y0022538D01*
X0282649Y0022620D01*
X0282688Y0022700D01*
X0282731Y0022778D01*
X0282777Y0022854D01*
X0282827Y0022928D01*
X0282879Y0023000D01*
X0282935Y0023070D01*
X0282994Y0023137D01*
X0283056Y0023201D01*
X0283120Y0023263D01*
X0283187Y0023322D01*
X0283257Y0023378D01*
X0283329Y0023430D01*
X0283403Y0023480D01*
X0283479Y0023526D01*
X0283557Y0023569D01*
X0283637Y0023608D01*
X0283719Y0023644D01*
X0283802Y0023677D01*
X0283886Y0023705D01*
X0283972Y0023730D01*
X0284059Y0023752D01*
X0284146Y0023769D01*
X0284234Y0023783D01*
X0284323Y0023792D01*
X0284412Y0023798D01*
X0284501Y0023800D01*
X0282457Y0021756D02*
X0282459Y0021666D01*
X0282465Y0021577D01*
X0282474Y0021487D01*
X0282488Y0021399D01*
X0282505Y0021310D01*
X0282527Y0021223D01*
X0282551Y0021137D01*
X0282580Y0021052D01*
X0282612Y0020968D01*
X0282648Y0020886D01*
X0282688Y0020805D01*
X0282731Y0020726D01*
X0282777Y0020649D01*
X0282826Y0020574D01*
X0282879Y0020501D01*
X0282935Y0020431D01*
X0282994Y0020363D01*
X0283055Y0020298D01*
X0283120Y0020235D01*
X0283187Y0020176D01*
X0283256Y0020119D01*
X0283328Y0020065D01*
X0283403Y0020015D01*
X0283479Y0019967D01*
X0286290Y0018433D01*
X0285268Y0014600D02*
X0285142Y0014602D01*
X0285016Y0014607D01*
X0284890Y0014617D01*
X0284764Y0014630D01*
X0284639Y0014646D01*
X0284514Y0014666D01*
X0284390Y0014690D01*
X0284267Y0014718D01*
X0284144Y0014749D01*
X0284023Y0014783D01*
X0283902Y0014822D01*
X0283783Y0014863D01*
X0283665Y0014908D01*
X0283549Y0014957D01*
X0283434Y0015009D01*
X0283320Y0015064D01*
X0283208Y0015123D01*
X0283098Y0015185D01*
X0282990Y0015250D01*
X0282884Y0015318D01*
X0282779Y0015389D01*
X0282677Y0015463D01*
X0282577Y0015541D01*
X0282480Y0015621D01*
X0282384Y0015704D01*
X0282291Y0015789D01*
X0282201Y0015878D01*
X0286290Y0018433D02*
X0286366Y0018385D01*
X0286441Y0018335D01*
X0286513Y0018281D01*
X0286582Y0018224D01*
X0286649Y0018165D01*
X0286714Y0018102D01*
X0286775Y0018037D01*
X0286834Y0017969D01*
X0286890Y0017899D01*
X0286943Y0017826D01*
X0286992Y0017751D01*
X0287038Y0017674D01*
X0287081Y0017595D01*
X0287121Y0017514D01*
X0287157Y0017432D01*
X0287189Y0017348D01*
X0287218Y0017263D01*
X0287242Y0017177D01*
X0287264Y0017090D01*
X0287281Y0017001D01*
X0287295Y0016913D01*
X0287304Y0016823D01*
X0287310Y0016734D01*
X0287312Y0016644D01*
X0287310Y0016555D01*
X0287304Y0016466D01*
X0287295Y0016377D01*
X0287281Y0016289D01*
X0287264Y0016202D01*
X0287242Y0016115D01*
X0287217Y0016029D01*
X0287189Y0015945D01*
X0287156Y0015862D01*
X0287120Y0015780D01*
X0287081Y0015700D01*
X0287038Y0015622D01*
X0286992Y0015546D01*
X0286942Y0015472D01*
X0286890Y0015400D01*
X0286834Y0015330D01*
X0286775Y0015263D01*
X0286713Y0015199D01*
X0286649Y0015137D01*
X0286582Y0015078D01*
X0286512Y0015022D01*
X0286440Y0014970D01*
X0286366Y0014920D01*
X0286290Y0014874D01*
X0286212Y0014831D01*
X0286132Y0014792D01*
X0286050Y0014756D01*
X0285967Y0014723D01*
X0285883Y0014695D01*
X0285797Y0014670D01*
X0285710Y0014648D01*
X0285623Y0014631D01*
X0285535Y0014617D01*
X0285446Y0014608D01*
X0285357Y0014602D01*
X0285268Y0014600D01*
X0290431Y0014600D02*
X0290431Y0023800D01*
X0294519Y0023800D01*
X0297603Y0023800D02*
X0300159Y0023800D01*
X0300248Y0023798D01*
X0300337Y0023792D01*
X0300426Y0023783D01*
X0300514Y0023769D01*
X0300601Y0023752D01*
X0300688Y0023730D01*
X0300774Y0023705D01*
X0300858Y0023677D01*
X0300941Y0023644D01*
X0301023Y0023608D01*
X0301103Y0023569D01*
X0301181Y0023526D01*
X0301257Y0023480D01*
X0301331Y0023430D01*
X0301403Y0023378D01*
X0301473Y0023322D01*
X0301540Y0023263D01*
X0301604Y0023201D01*
X0301666Y0023137D01*
X0301725Y0023070D01*
X0301781Y0023000D01*
X0301833Y0022928D01*
X0301883Y0022854D01*
X0301929Y0022778D01*
X0301972Y0022700D01*
X0302011Y0022620D01*
X0302047Y0022538D01*
X0302080Y0022455D01*
X0302108Y0022371D01*
X0302133Y0022285D01*
X0302155Y0022198D01*
X0302172Y0022111D01*
X0302186Y0022023D01*
X0302195Y0021934D01*
X0302201Y0021845D01*
X0302203Y0021756D01*
X0302201Y0021667D01*
X0302195Y0021578D01*
X0302186Y0021489D01*
X0302172Y0021401D01*
X0302155Y0021314D01*
X0302133Y0021227D01*
X0302108Y0021141D01*
X0302080Y0021057D01*
X0302047Y0020974D01*
X0302011Y0020892D01*
X0301972Y0020812D01*
X0301929Y0020734D01*
X0301883Y0020658D01*
X0301833Y0020584D01*
X0301781Y0020512D01*
X0301725Y0020442D01*
X0301666Y0020375D01*
X0301604Y0020311D01*
X0301540Y0020249D01*
X0301473Y0020190D01*
X0301403Y0020134D01*
X0301331Y0020082D01*
X0301257Y0020032D01*
X0301181Y0019986D01*
X0301103Y0019943D01*
X0301023Y0019904D01*
X0300941Y0019868D01*
X0300858Y0019835D01*
X0300774Y0019807D01*
X0300688Y0019782D01*
X0300601Y0019760D01*
X0300514Y0019743D01*
X0300426Y0019729D01*
X0300337Y0019720D01*
X0300248Y0019714D01*
X0300159Y0019712D01*
X0300159Y0019711D02*
X0297603Y0019711D01*
X0300159Y0019712D02*
X0300259Y0019710D01*
X0300360Y0019704D01*
X0300459Y0019694D01*
X0300559Y0019681D01*
X0300658Y0019663D01*
X0300756Y0019641D01*
X0300853Y0019616D01*
X0300949Y0019587D01*
X0301044Y0019554D01*
X0301137Y0019517D01*
X0301229Y0019477D01*
X0301319Y0019433D01*
X0301408Y0019386D01*
X0301495Y0019335D01*
X0301579Y0019281D01*
X0301661Y0019224D01*
X0301741Y0019163D01*
X0301819Y0019100D01*
X0301894Y0019033D01*
X0301966Y0018963D01*
X0302036Y0018891D01*
X0302103Y0018816D01*
X0302166Y0018738D01*
X0302227Y0018658D01*
X0302284Y0018576D01*
X0302338Y0018492D01*
X0302389Y0018405D01*
X0302436Y0018316D01*
X0302480Y0018226D01*
X0302520Y0018134D01*
X0302557Y0018041D01*
X0302590Y0017946D01*
X0302619Y0017850D01*
X0302644Y0017753D01*
X0302666Y0017655D01*
X0302684Y0017556D01*
X0302697Y0017456D01*
X0302707Y0017357D01*
X0302713Y0017256D01*
X0302715Y0017156D01*
X0302713Y0017056D01*
X0302707Y0016955D01*
X0302697Y0016856D01*
X0302684Y0016756D01*
X0302666Y0016657D01*
X0302644Y0016559D01*
X0302619Y0016462D01*
X0302590Y0016366D01*
X0302557Y0016271D01*
X0302520Y0016178D01*
X0302480Y0016086D01*
X0302436Y0015996D01*
X0302389Y0015907D01*
X0302338Y0015820D01*
X0302284Y0015736D01*
X0302227Y0015654D01*
X0302166Y0015574D01*
X0302103Y0015496D01*
X0302036Y0015421D01*
X0301966Y0015349D01*
X0301894Y0015279D01*
X0301819Y0015212D01*
X0301741Y0015149D01*
X0301661Y0015088D01*
X0301579Y0015031D01*
X0301495Y0014977D01*
X0301408Y0014926D01*
X0301319Y0014879D01*
X0301229Y0014835D01*
X0301137Y0014795D01*
X0301044Y0014758D01*
X0300949Y0014725D01*
X0300853Y0014696D01*
X0300756Y0014671D01*
X0300658Y0014649D01*
X0300559Y0014631D01*
X0300459Y0014618D01*
X0300360Y0014608D01*
X0300259Y0014602D01*
X0300159Y0014600D01*
X0297603Y0014600D01*
X0297603Y0023800D01*
X0293497Y0019711D02*
X0290431Y0019711D01*
X0290431Y0014600D02*
X0294519Y0014600D01*
X0286801Y0023033D02*
X0286701Y0023106D01*
X0286599Y0023175D01*
X0286495Y0023241D01*
X0286388Y0023303D01*
X0286280Y0023362D01*
X0286170Y0023418D01*
X0286058Y0023470D01*
X0285944Y0023518D01*
X0285829Y0023562D01*
X0285713Y0023603D01*
X0285596Y0023640D01*
X0285477Y0023674D01*
X0285357Y0023703D01*
X0285236Y0023729D01*
X0285115Y0023751D01*
X0284993Y0023768D01*
X0284870Y0023782D01*
X0284748Y0023792D01*
X0284624Y0023798D01*
X0284501Y0023800D01*
X0270956Y0019711D02*
X0266867Y0019711D01*
X0266867Y0023800D02*
X0266867Y0014600D01*
X0305775Y0014600D02*
X0309863Y0014600D01*
X0312104Y0014600D02*
X0315171Y0023800D01*
X0318237Y0014600D01*
X0317471Y0016900D02*
X0312871Y0016900D01*
X0305775Y0014600D02*
X0305775Y0023800D01*
X0321109Y0023800D02*
X0321109Y0014600D01*
X0326220Y0014600D02*
X0326220Y0023800D01*
X0329935Y0023800D02*
X0329935Y0014600D01*
X0329935Y0018178D02*
X0335046Y0023800D01*
X0331979Y0020222D02*
X0335046Y0014600D01*
X0337512Y0013578D02*
X0341601Y0013578D01*
X0344399Y0014600D02*
X0347466Y0014600D01*
X0347555Y0014602D01*
X0347644Y0014608D01*
X0347733Y0014617D01*
X0347821Y0014631D01*
X0347908Y0014648D01*
X0347995Y0014670D01*
X0348081Y0014695D01*
X0348165Y0014723D01*
X0348248Y0014756D01*
X0348330Y0014792D01*
X0348410Y0014831D01*
X0348488Y0014874D01*
X0348564Y0014920D01*
X0348638Y0014970D01*
X0348710Y0015022D01*
X0348780Y0015078D01*
X0348847Y0015137D01*
X0348911Y0015199D01*
X0348973Y0015263D01*
X0349032Y0015330D01*
X0349088Y0015400D01*
X0349140Y0015472D01*
X0349190Y0015546D01*
X0349236Y0015622D01*
X0349279Y0015700D01*
X0349318Y0015780D01*
X0349354Y0015862D01*
X0349387Y0015945D01*
X0349415Y0016029D01*
X0349440Y0016115D01*
X0349462Y0016202D01*
X0349479Y0016289D01*
X0349493Y0016377D01*
X0349502Y0016466D01*
X0349508Y0016555D01*
X0349510Y0016644D01*
X0349510Y0017667D01*
X0349508Y0017756D01*
X0349502Y0017845D01*
X0349493Y0017934D01*
X0349479Y0018022D01*
X0349462Y0018109D01*
X0349440Y0018196D01*
X0349415Y0018282D01*
X0349387Y0018366D01*
X0349354Y0018449D01*
X0349318Y0018531D01*
X0349279Y0018611D01*
X0349236Y0018689D01*
X0349190Y0018765D01*
X0349140Y0018839D01*
X0349088Y0018911D01*
X0349032Y0018981D01*
X0348973Y0019048D01*
X0348911Y0019112D01*
X0348847Y0019174D01*
X0348780Y0019233D01*
X0348710Y0019289D01*
X0348638Y0019341D01*
X0348564Y0019391D01*
X0348488Y0019437D01*
X0348410Y0019480D01*
X0348330Y0019519D01*
X0348248Y0019555D01*
X0348165Y0019588D01*
X0348081Y0019616D01*
X0347995Y0019641D01*
X0347908Y0019663D01*
X0347821Y0019680D01*
X0347733Y0019694D01*
X0347644Y0019703D01*
X0347555Y0019709D01*
X0347466Y0019711D01*
X0344399Y0019711D01*
X0344399Y0023800D01*
X0349510Y0023800D01*
X0352108Y0023800D02*
X0358241Y0014600D01*
X0360839Y0014600D02*
X0365950Y0014600D01*
X0369570Y0016644D02*
X0373659Y0021756D01*
X0373403Y0022522D02*
X0373374Y0022601D01*
X0373341Y0022678D01*
X0373306Y0022754D01*
X0373267Y0022828D01*
X0373224Y0022900D01*
X0373179Y0022971D01*
X0373130Y0023039D01*
X0373079Y0023105D01*
X0373024Y0023169D01*
X0372967Y0023230D01*
X0372907Y0023289D01*
X0372845Y0023344D01*
X0372780Y0023398D01*
X0372713Y0023448D01*
X0372644Y0023495D01*
X0372573Y0023539D01*
X0372500Y0023580D01*
X0372425Y0023617D01*
X0372348Y0023652D01*
X0372270Y0023682D01*
X0372191Y0023710D01*
X0372111Y0023734D01*
X0372029Y0023754D01*
X0371947Y0023770D01*
X0371865Y0023783D01*
X0371781Y0023793D01*
X0371698Y0023798D01*
X0371614Y0023800D01*
X0371530Y0023798D01*
X0371447Y0023793D01*
X0371363Y0023783D01*
X0371281Y0023770D01*
X0371199Y0023754D01*
X0371117Y0023734D01*
X0371037Y0023710D01*
X0370958Y0023682D01*
X0370880Y0023652D01*
X0370803Y0023617D01*
X0370728Y0023580D01*
X0370655Y0023539D01*
X0370584Y0023495D01*
X0370515Y0023448D01*
X0370448Y0023398D01*
X0370383Y0023344D01*
X0370321Y0023289D01*
X0370261Y0023230D01*
X0370204Y0023169D01*
X0370149Y0023105D01*
X0370098Y0023039D01*
X0370049Y0022971D01*
X0370004Y0022900D01*
X0369961Y0022828D01*
X0369922Y0022754D01*
X0369887Y0022678D01*
X0369854Y0022601D01*
X0369825Y0022522D01*
X0373403Y0022522D02*
X0373481Y0022358D01*
X0373554Y0022193D01*
X0373624Y0022026D01*
X0373689Y0021857D01*
X0373750Y0021687D01*
X0373808Y0021515D01*
X0373861Y0021342D01*
X0373910Y0021168D01*
X0373955Y0020993D01*
X0373996Y0020816D01*
X0374032Y0020639D01*
X0374064Y0020461D01*
X0374092Y0020282D01*
X0374116Y0020103D01*
X0374135Y0019923D01*
X0374151Y0019742D01*
X0374161Y0019562D01*
X0374168Y0019381D01*
X0374170Y0019200D01*
X0369058Y0019200D02*
X0369060Y0019381D01*
X0369067Y0019562D01*
X0369077Y0019743D01*
X0369093Y0019923D01*
X0369112Y0020103D01*
X0369136Y0020282D01*
X0369164Y0020461D01*
X0369196Y0020639D01*
X0369232Y0020817D01*
X0369273Y0020993D01*
X0369318Y0021168D01*
X0369367Y0021343D01*
X0369420Y0021516D01*
X0369478Y0021687D01*
X0369539Y0021857D01*
X0369604Y0022026D01*
X0369674Y0022193D01*
X0369747Y0022359D01*
X0369825Y0022522D01*
X0374170Y0019200D02*
X0374168Y0019019D01*
X0374161Y0018838D01*
X0374151Y0018657D01*
X0374135Y0018477D01*
X0374116Y0018297D01*
X0374092Y0018118D01*
X0374064Y0017939D01*
X0374032Y0017761D01*
X0373996Y0017583D01*
X0373955Y0017407D01*
X0373910Y0017232D01*
X0373861Y0017057D01*
X0373808Y0016884D01*
X0373750Y0016713D01*
X0373689Y0016543D01*
X0373624Y0016374D01*
X0373554Y0016207D01*
X0373481Y0016041D01*
X0373403Y0015878D01*
X0373374Y0015799D01*
X0373341Y0015722D01*
X0373306Y0015646D01*
X0373267Y0015572D01*
X0373224Y0015500D01*
X0373179Y0015429D01*
X0373130Y0015361D01*
X0373079Y0015295D01*
X0373024Y0015231D01*
X0372967Y0015170D01*
X0372907Y0015111D01*
X0372845Y0015056D01*
X0372780Y0015002D01*
X0372713Y0014952D01*
X0372644Y0014905D01*
X0372573Y0014861D01*
X0372500Y0014820D01*
X0372425Y0014783D01*
X0372348Y0014748D01*
X0372270Y0014718D01*
X0372191Y0014690D01*
X0372111Y0014666D01*
X0372029Y0014646D01*
X0371947Y0014630D01*
X0371865Y0014617D01*
X0371781Y0014607D01*
X0371698Y0014602D01*
X0371614Y0014600D01*
X0371530Y0014602D01*
X0371447Y0014607D01*
X0371363Y0014617D01*
X0371281Y0014630D01*
X0371199Y0014646D01*
X0371117Y0014666D01*
X0371037Y0014690D01*
X0370958Y0014718D01*
X0370880Y0014748D01*
X0370803Y0014783D01*
X0370728Y0014820D01*
X0370655Y0014861D01*
X0370584Y0014905D01*
X0370515Y0014952D01*
X0370448Y0015002D01*
X0370383Y0015056D01*
X0370321Y0015111D01*
X0370261Y0015170D01*
X0370204Y0015231D01*
X0370149Y0015295D01*
X0370098Y0015361D01*
X0370049Y0015429D01*
X0370004Y0015500D01*
X0369961Y0015572D01*
X0369922Y0015646D01*
X0369887Y0015722D01*
X0369854Y0015799D01*
X0369825Y0015878D01*
X0365183Y0019711D02*
X0360839Y0014600D01*
X0360839Y0021755D02*
X0360873Y0021856D01*
X0360911Y0021955D01*
X0360953Y0022053D01*
X0360998Y0022149D01*
X0361047Y0022243D01*
X0361099Y0022336D01*
X0361154Y0022426D01*
X0361212Y0022515D01*
X0361274Y0022602D01*
X0361338Y0022686D01*
X0361406Y0022768D01*
X0361477Y0022847D01*
X0361550Y0022924D01*
X0361626Y0022998D01*
X0361705Y0023069D01*
X0361786Y0023138D01*
X0361869Y0023203D01*
X0361955Y0023266D01*
X0362043Y0023325D01*
X0362133Y0023381D01*
X0362225Y0023434D01*
X0362319Y0023483D01*
X0362415Y0023530D01*
X0362512Y0023572D01*
X0362611Y0023611D01*
X0362711Y0023647D01*
X0362812Y0023679D01*
X0362915Y0023707D01*
X0363018Y0023732D01*
X0363122Y0023752D01*
X0363227Y0023770D01*
X0363332Y0023783D01*
X0363438Y0023792D01*
X0363544Y0023798D01*
X0363650Y0023800D01*
X0363745Y0023798D01*
X0363840Y0023792D01*
X0363934Y0023782D01*
X0364029Y0023769D01*
X0364122Y0023751D01*
X0364215Y0023730D01*
X0364306Y0023704D01*
X0364397Y0023675D01*
X0364486Y0023643D01*
X0364574Y0023606D01*
X0364660Y0023566D01*
X0364745Y0023523D01*
X0364827Y0023476D01*
X0364908Y0023425D01*
X0364986Y0023372D01*
X0365063Y0023315D01*
X0365136Y0023255D01*
X0365208Y0023192D01*
X0365276Y0023126D01*
X0365342Y0023058D01*
X0365405Y0022986D01*
X0365465Y0022913D01*
X0365522Y0022836D01*
X0365575Y0022758D01*
X0365626Y0022677D01*
X0365673Y0022595D01*
X0365716Y0022510D01*
X0365756Y0022424D01*
X0365793Y0022336D01*
X0365825Y0022247D01*
X0365854Y0022156D01*
X0365880Y0022065D01*
X0365901Y0021972D01*
X0365919Y0021879D01*
X0365932Y0021784D01*
X0365942Y0021690D01*
X0365948Y0021595D01*
X0365950Y0021500D01*
X0365948Y0021405D01*
X0365943Y0021310D01*
X0365933Y0021215D01*
X0365921Y0021121D01*
X0365904Y0021027D01*
X0365884Y0020934D01*
X0365861Y0020841D01*
X0365833Y0020750D01*
X0365803Y0020660D01*
X0365769Y0020571D01*
X0365731Y0020483D01*
X0365690Y0020397D01*
X0365646Y0020313D01*
X0365599Y0020230D01*
X0365548Y0020150D01*
X0365495Y0020071D01*
X0365438Y0019994D01*
X0365379Y0019920D01*
X0365316Y0019848D01*
X0365251Y0019778D01*
X0365183Y0019711D01*
X0358241Y0023800D02*
X0352108Y0014600D01*
X0369059Y0019200D02*
X0369061Y0019019D01*
X0369068Y0018838D01*
X0369078Y0018657D01*
X0369094Y0018477D01*
X0369113Y0018297D01*
X0369137Y0018118D01*
X0369165Y0017939D01*
X0369197Y0017761D01*
X0369233Y0017583D01*
X0369274Y0017407D01*
X0369319Y0017232D01*
X0369368Y0017058D01*
X0369421Y0016885D01*
X0369479Y0016713D01*
X0369540Y0016543D01*
X0369605Y0016374D01*
X0369675Y0016207D01*
X0369748Y0016041D01*
X0369826Y0015878D01*
X0377590Y0014600D02*
X0377590Y0023800D01*
X0380656Y0018689D01*
X0383723Y0023800D01*
X0383723Y0014600D01*
X0387454Y0014600D02*
X0387454Y0023800D01*
X0390520Y0018689D01*
X0393587Y0023800D01*
X0393587Y0014600D01*
X0326220Y0014600D02*
X0321109Y0023800D01*
X0279818Y0052600D02*
X0274707Y0052600D01*
X0277263Y0052600D02*
X0277263Y0061800D01*
X0274707Y0059756D01*
X0271956Y0061800D02*
X0267867Y0061800D01*
X0267867Y0052600D01*
X0267867Y0057711D02*
X0271956Y0057711D01*
D20*
X0129467Y0242200D03*
X0119467Y0242200D03*
X0109467Y0242200D03*
X0099467Y0242200D03*
X0099467Y0272200D03*
X0109467Y0272200D03*
X0119467Y0272200D03*
X0129467Y0272200D03*
D21*
X0129467Y0299231D02*
X0129467Y0305169D01*
X0119467Y0305169D02*
X0119467Y0299231D01*
X0109467Y0299231D02*
X0109467Y0305169D01*
X0049467Y0035169D02*
X0049467Y0029231D01*
X0039467Y0029231D02*
X0039467Y0035169D01*
X0029467Y0035169D02*
X0029467Y0029231D01*
D22*
X0159191Y0097909D03*
X0171002Y0097909D03*
X0182813Y0097909D03*
X0194624Y0097909D03*
X0214309Y0097909D03*
X0245805Y0097909D03*
X0210372Y0192397D03*
X0198561Y0192397D03*
X0186750Y0192397D03*
X0159191Y0192397D03*
D23*
X0182813Y0097909D02*
X0182465Y0097554D01*
X0174785Y0089874D01*
X0174785Y0067286D01*
X0174467Y0067200D01*
X0174333Y0065930D01*
X0174333Y0056443D01*
X0145871Y0027981D01*
X0144967Y0027200D01*
X0144516Y0027078D01*
X0140450Y0023012D01*
X0036542Y0023012D01*
X0029766Y0029789D01*
X0029766Y0032047D01*
X0029467Y0032200D01*
X0203967Y0027200D02*
X0204150Y0027530D01*
X0204150Y0045149D01*
X0265139Y0045149D01*
X0272819Y0037469D01*
X0319352Y0037469D01*
X0319467Y0037200D01*
X0214309Y0097909D02*
X0214089Y0097554D01*
X0204602Y0088067D01*
X0204602Y0067286D01*
X0204467Y0067200D01*
X0204150Y0066382D01*
X0204150Y0045149D01*
D24*
X0198561Y0192397D02*
X0198277Y0192426D01*
X0198277Y0193782D01*
X0149937Y0242121D01*
X0149937Y0242573D01*
X0159424Y0252060D01*
X0159467Y0252200D01*
X0159876Y0252512D01*
X0184272Y0276908D01*
X0224028Y0276908D01*
X0224467Y0277200D01*
X0214540Y0292268D02*
X0221995Y0299722D01*
X0244357Y0277359D01*
X0244467Y0277200D01*
X0264687Y0292268D02*
X0249779Y0307176D01*
X0249467Y0307200D01*
X0241195Y0307176D02*
X0295859Y0252512D01*
X0299022Y0252512D01*
X0299467Y0252200D01*
X0329290Y0252512D02*
X0329467Y0252200D01*
X0329290Y0252512D02*
X0289535Y0292268D01*
X0289467Y0292200D01*
X0289083Y0292268D01*
X0264687Y0292268D01*
X0241195Y0307176D02*
X0239840Y0307176D01*
X0239467Y0307200D01*
X0239388Y0307628D01*
X0233063Y0313953D01*
X0131414Y0313953D01*
X0119668Y0302207D01*
X0119467Y0302200D01*
X0119668Y0301755D01*
X0123734Y0297689D01*
X0123734Y0270583D01*
X0119668Y0266517D01*
X0119668Y0242573D01*
X0119467Y0242200D01*
X0125541Y0247091D02*
X0129607Y0243025D01*
X0129467Y0242200D01*
X0129607Y0242573D01*
X0149937Y0242573D01*
X0125541Y0247091D02*
X0125541Y0274197D01*
X0129156Y0277811D01*
X0129156Y0301755D01*
X0129467Y0302200D01*
X0113795Y0297689D02*
X0113795Y0292268D01*
X0044674Y0292268D01*
X0044467Y0292200D01*
X0069070Y0262451D02*
X0078557Y0271938D01*
X0099339Y0271938D01*
X0099467Y0272200D01*
X0099790Y0262451D02*
X0109278Y0271938D01*
X0109467Y0272200D01*
X0113795Y0270583D02*
X0113795Y0292268D01*
X0113795Y0297689D02*
X0109729Y0301755D01*
X0109467Y0302200D01*
X0119467Y0272200D02*
X0119217Y0271938D01*
X0109729Y0262451D01*
X0109729Y0242573D01*
X0109467Y0242200D01*
X0100242Y0242573D02*
X0099467Y0242200D01*
X0099790Y0242573D01*
X0099790Y0256578D01*
X0113795Y0270583D01*
X0129467Y0272200D02*
X0129607Y0272390D01*
X0144968Y0272390D01*
X0164394Y0291816D01*
X0164467Y0292200D01*
X0184467Y0292200D02*
X0184724Y0292268D01*
X0214540Y0292268D01*
X0221995Y0299722D02*
X0229449Y0307176D01*
X0229467Y0307200D01*
X0309467Y0292200D02*
X0309864Y0292268D01*
X0311671Y0294075D01*
X0341037Y0294075D01*
X0347813Y0287298D01*
X0349168Y0287298D01*
X0349467Y0287200D01*
X0339681Y0286847D02*
X0339467Y0287200D01*
X0339681Y0286847D02*
X0374016Y0252512D01*
X0379437Y0252512D01*
X0379467Y0252200D01*
X0159191Y0192397D02*
X0158973Y0192426D01*
X0150389Y0192426D01*
X0100242Y0242573D01*
X0099790Y0262451D02*
X0074491Y0262451D01*
X0074467Y0262200D01*
X0069070Y0262451D02*
X0024796Y0262451D01*
X0024467Y0262200D01*
M02*
