%
M48
M72
T01C0.01378
T02C0.03200
T03C0.03937
T04C0.04000
T05C0.04724
T06C0.05600
%
T01
X202066Y270518
X189417Y289492
X215168Y289944
X262152Y333314
X255375Y340091
X332628Y296720
X113519Y287685
X109453Y291751
T02
X88342Y291500
X113342Y261500
X133342Y261500
X138342Y291500
X163342Y301500
X173342Y301500
X183342Y301500
X193342Y301500
X223342Y281500
X193342Y271500
X183342Y271500
X173342Y271500
X163342Y271500
X108342Y321500
X98342Y321500
X228342Y321500
X248342Y321500
X273342Y336500
X283342Y336500
X293342Y336500
X303342Y336500
X313342Y336500
X338342Y301500
X348342Y276500
X368342Y276500
X393342Y281500
X408342Y316500
X418342Y316500
X443342Y281500
X288342Y301500
X273342Y281500
T03
X98342Y91500
X98342Y101500
X98342Y111500
X78342Y241500
X173342Y331500
X183342Y331500
X193342Y331500
X78342Y341500
X448342Y341500
X448342Y241500
T04
X308342Y106000
X378342Y91500
X378342Y61500
X308342Y47000
T05
X333066Y147209
X344877Y147209
X356688Y147209
X368499Y147209
X388184Y147209
X419680Y147209
X384247Y241697
X372436Y241697
X360625Y241697
X333066Y241697
T06
X188342Y61500
X128342Y61500
M30
