G75*
%MOIN*%
%OFA0B0*%
%FSLAX25Y25*%
%IPPOS*%
%LPD*%
%AMOC8*
5,1,8,0,0,1.08239X$1,22.5*
%
%ADD10OC8,0.05200*%
%ADD11OC8,0.06000*%
%ADD12OC8,0.12400*%
%ADD13C,0.12400*%
%ADD14R,0.09000X0.09000*%
%ADD15C,0.05200*%
%ADD16C,0.05937*%
%ADD17C,0.05200*%
%ADD18C,0.09843*%
%ADD19C,0.01000*%
%ADD20C,0.02978*%
%ADD21C,0.02500*%
D10*
X0113342Y0261500D03*
X0133342Y0261500D03*
X0138342Y0291500D03*
X0108342Y0321500D03*
X0098342Y0321500D03*
X0088342Y0291500D03*
X0223342Y0281500D03*
X0228342Y0321500D03*
X0248342Y0321500D03*
X0288342Y0301500D03*
X0273342Y0281500D03*
X0338342Y0301500D03*
X0348342Y0276500D03*
X0368342Y0276500D03*
X0393342Y0281500D03*
X0408342Y0316500D03*
X0418342Y0316500D03*
X0443342Y0281500D03*
D11*
X0308342Y0106000D03*
X0308342Y0047000D03*
D12*
X0378342Y0091500D03*
D13*
X0378342Y0061500D03*
D14*
X0188342Y0061500D03*
X0128342Y0061500D03*
D15*
X0163342Y0271500D03*
X0173342Y0271500D03*
X0183342Y0271500D03*
X0193342Y0271500D03*
X0193342Y0301500D03*
X0183342Y0301500D03*
X0173342Y0301500D03*
X0163342Y0301500D03*
D16*
X0173342Y0328531D02*
X0173342Y0334469D01*
X0183342Y0334469D02*
X0183342Y0328531D01*
X0193342Y0328531D02*
X0193342Y0334469D01*
X0101310Y0111500D02*
X0095373Y0111500D01*
X0095373Y0101500D02*
X0101310Y0101500D01*
X0101310Y0091500D02*
X0095373Y0091500D01*
D17*
X0273342Y0333900D02*
X0273342Y0339100D01*
X0283342Y0339100D02*
X0283342Y0333900D01*
X0293342Y0333900D02*
X0293342Y0339100D01*
X0303342Y0339100D02*
X0303342Y0333900D01*
X0313342Y0333900D02*
X0313342Y0339100D01*
D18*
X0333066Y0241697D03*
X0360625Y0241697D03*
X0372436Y0241697D03*
X0384247Y0241697D03*
X0388184Y0147209D03*
X0368499Y0147209D03*
X0356688Y0147209D03*
X0344877Y0147209D03*
X0333066Y0147209D03*
X0419680Y0147209D03*
D19*
X0053342Y0026500D02*
X0053342Y0361500D01*
X0453342Y0361500D01*
X0458881Y0355961D01*
X0067447Y0355961D01*
X0065793Y0355276D01*
X0064527Y0354010D01*
X0063842Y0352356D01*
X0063842Y0035605D01*
X0064527Y0033951D01*
X0065793Y0032685D01*
X0067447Y0032000D01*
X0069237Y0032000D01*
X0461147Y0032000D01*
X0462938Y0032000D01*
X0464592Y0032685D01*
X0465858Y0033951D01*
X0466543Y0035605D01*
X0466543Y0348299D01*
X0473342Y0341500D01*
X0473342Y0031500D01*
X0463342Y0021500D01*
X0058342Y0021500D01*
X0053342Y0026500D01*
X0053342Y0026515D02*
X0468357Y0026515D01*
X0469355Y0027513D02*
X0053342Y0027513D01*
X0053342Y0028512D02*
X0470354Y0028512D01*
X0471352Y0029510D02*
X0053342Y0029510D01*
X0053342Y0030509D02*
X0472351Y0030509D01*
X0473342Y0031507D02*
X0053342Y0031507D01*
X0053342Y0032506D02*
X0066225Y0032506D01*
X0064973Y0033504D02*
X0053342Y0033504D01*
X0053342Y0034503D02*
X0064298Y0034503D01*
X0063885Y0035501D02*
X0053342Y0035501D01*
X0053342Y0036500D02*
X0063842Y0036500D01*
X0063842Y0037499D02*
X0053342Y0037499D01*
X0053342Y0038497D02*
X0063842Y0038497D01*
X0063842Y0039496D02*
X0053342Y0039496D01*
X0053342Y0040494D02*
X0063842Y0040494D01*
X0063842Y0041493D02*
X0053342Y0041493D01*
X0053342Y0042491D02*
X0063842Y0042491D01*
X0063842Y0043490D02*
X0053342Y0043490D01*
X0053342Y0044488D02*
X0063842Y0044488D01*
X0063842Y0045487D02*
X0053342Y0045487D01*
X0053342Y0046485D02*
X0063842Y0046485D01*
X0063842Y0047484D02*
X0053342Y0047484D01*
X0053342Y0048482D02*
X0063842Y0048482D01*
X0063842Y0049481D02*
X0053342Y0049481D01*
X0053342Y0050479D02*
X0063842Y0050479D01*
X0063842Y0051478D02*
X0053342Y0051478D01*
X0053342Y0052476D02*
X0063842Y0052476D01*
X0063842Y0053475D02*
X0053342Y0053475D01*
X0053342Y0054473D02*
X0063842Y0054473D01*
X0063842Y0055472D02*
X0053342Y0055472D01*
X0053342Y0056470D02*
X0063842Y0056470D01*
X0063842Y0057469D02*
X0053342Y0057469D01*
X0053342Y0058467D02*
X0063842Y0058467D01*
X0063842Y0059466D02*
X0053342Y0059466D01*
X0053342Y0060464D02*
X0063842Y0060464D01*
X0063842Y0061463D02*
X0053342Y0061463D01*
X0053342Y0062461D02*
X0063842Y0062461D01*
X0063842Y0063460D02*
X0053342Y0063460D01*
X0053342Y0064458D02*
X0063842Y0064458D01*
X0063842Y0065457D02*
X0053342Y0065457D01*
X0053342Y0066455D02*
X0063842Y0066455D01*
X0063842Y0067454D02*
X0053342Y0067454D01*
X0053342Y0068452D02*
X0063842Y0068452D01*
X0063842Y0069451D02*
X0053342Y0069451D01*
X0053342Y0070449D02*
X0063842Y0070449D01*
X0063842Y0071448D02*
X0053342Y0071448D01*
X0053342Y0072446D02*
X0063842Y0072446D01*
X0063842Y0073445D02*
X0053342Y0073445D01*
X0053342Y0074443D02*
X0063842Y0074443D01*
X0063842Y0075442D02*
X0053342Y0075442D01*
X0053342Y0076440D02*
X0063842Y0076440D01*
X0063842Y0077439D02*
X0053342Y0077439D01*
X0053342Y0078437D02*
X0063842Y0078437D01*
X0063842Y0079436D02*
X0053342Y0079436D01*
X0053342Y0080434D02*
X0063842Y0080434D01*
X0063842Y0081433D02*
X0053342Y0081433D01*
X0053342Y0082432D02*
X0063842Y0082432D01*
X0063842Y0083430D02*
X0053342Y0083430D01*
X0053342Y0084429D02*
X0063842Y0084429D01*
X0063842Y0085427D02*
X0053342Y0085427D01*
X0053342Y0086426D02*
X0063842Y0086426D01*
X0063842Y0087424D02*
X0053342Y0087424D01*
X0053342Y0088423D02*
X0063842Y0088423D01*
X0063842Y0089421D02*
X0053342Y0089421D01*
X0053342Y0090420D02*
X0063842Y0090420D01*
X0063842Y0091418D02*
X0053342Y0091418D01*
X0053342Y0092417D02*
X0063842Y0092417D01*
X0063842Y0093415D02*
X0053342Y0093415D01*
X0053342Y0094414D02*
X0063842Y0094414D01*
X0063842Y0095412D02*
X0053342Y0095412D01*
X0053342Y0096411D02*
X0063842Y0096411D01*
X0063842Y0097409D02*
X0053342Y0097409D01*
X0053342Y0098408D02*
X0063842Y0098408D01*
X0063842Y0099406D02*
X0053342Y0099406D01*
X0053342Y0100405D02*
X0063842Y0100405D01*
X0063842Y0101403D02*
X0053342Y0101403D01*
X0053342Y0102402D02*
X0063842Y0102402D01*
X0063842Y0103400D02*
X0053342Y0103400D01*
X0053342Y0104399D02*
X0063842Y0104399D01*
X0063842Y0105397D02*
X0053342Y0105397D01*
X0053342Y0106396D02*
X0063842Y0106396D01*
X0063842Y0107394D02*
X0053342Y0107394D01*
X0053342Y0108393D02*
X0063842Y0108393D01*
X0063842Y0109391D02*
X0053342Y0109391D01*
X0053342Y0110390D02*
X0063842Y0110390D01*
X0063842Y0111388D02*
X0053342Y0111388D01*
X0053342Y0112387D02*
X0063842Y0112387D01*
X0063842Y0113385D02*
X0053342Y0113385D01*
X0053342Y0114384D02*
X0063842Y0114384D01*
X0063842Y0115382D02*
X0053342Y0115382D01*
X0053342Y0116381D02*
X0063842Y0116381D01*
X0063842Y0117379D02*
X0053342Y0117379D01*
X0053342Y0118378D02*
X0063842Y0118378D01*
X0063842Y0119376D02*
X0053342Y0119376D01*
X0053342Y0120375D02*
X0063842Y0120375D01*
X0063842Y0121373D02*
X0053342Y0121373D01*
X0053342Y0122372D02*
X0063842Y0122372D01*
X0063842Y0123370D02*
X0053342Y0123370D01*
X0053342Y0124369D02*
X0063842Y0124369D01*
X0063842Y0125368D02*
X0053342Y0125368D01*
X0053342Y0126366D02*
X0063842Y0126366D01*
X0063842Y0127365D02*
X0053342Y0127365D01*
X0053342Y0128363D02*
X0063842Y0128363D01*
X0063842Y0129362D02*
X0053342Y0129362D01*
X0053342Y0130360D02*
X0063842Y0130360D01*
X0063842Y0131359D02*
X0053342Y0131359D01*
X0053342Y0132357D02*
X0063842Y0132357D01*
X0063842Y0133356D02*
X0053342Y0133356D01*
X0053342Y0134354D02*
X0063842Y0134354D01*
X0063842Y0135353D02*
X0053342Y0135353D01*
X0053342Y0136351D02*
X0063842Y0136351D01*
X0063842Y0137350D02*
X0053342Y0137350D01*
X0053342Y0138348D02*
X0063842Y0138348D01*
X0063842Y0139347D02*
X0053342Y0139347D01*
X0053342Y0140345D02*
X0063842Y0140345D01*
X0063842Y0141344D02*
X0053342Y0141344D01*
X0053342Y0142342D02*
X0063842Y0142342D01*
X0063842Y0143341D02*
X0053342Y0143341D01*
X0053342Y0144339D02*
X0063842Y0144339D01*
X0063842Y0145338D02*
X0053342Y0145338D01*
X0053342Y0146336D02*
X0063842Y0146336D01*
X0063842Y0147335D02*
X0053342Y0147335D01*
X0053342Y0148333D02*
X0063842Y0148333D01*
X0063842Y0149332D02*
X0053342Y0149332D01*
X0053342Y0150330D02*
X0063842Y0150330D01*
X0063842Y0151329D02*
X0053342Y0151329D01*
X0053342Y0152327D02*
X0063842Y0152327D01*
X0063842Y0153326D02*
X0053342Y0153326D01*
X0053342Y0154324D02*
X0063842Y0154324D01*
X0063842Y0155323D02*
X0053342Y0155323D01*
X0053342Y0156321D02*
X0063842Y0156321D01*
X0063842Y0157320D02*
X0053342Y0157320D01*
X0053342Y0158318D02*
X0063842Y0158318D01*
X0063842Y0159317D02*
X0053342Y0159317D01*
X0053342Y0160315D02*
X0063842Y0160315D01*
X0063842Y0161314D02*
X0053342Y0161314D01*
X0053342Y0162312D02*
X0063842Y0162312D01*
X0063842Y0163311D02*
X0053342Y0163311D01*
X0053342Y0164309D02*
X0063842Y0164309D01*
X0063842Y0165308D02*
X0053342Y0165308D01*
X0053342Y0166306D02*
X0063842Y0166306D01*
X0063842Y0167305D02*
X0053342Y0167305D01*
X0053342Y0168303D02*
X0063842Y0168303D01*
X0063842Y0169302D02*
X0053342Y0169302D01*
X0053342Y0170301D02*
X0063842Y0170301D01*
X0063842Y0171299D02*
X0053342Y0171299D01*
X0053342Y0172298D02*
X0063842Y0172298D01*
X0063842Y0173296D02*
X0053342Y0173296D01*
X0053342Y0174295D02*
X0063842Y0174295D01*
X0063842Y0175293D02*
X0053342Y0175293D01*
X0053342Y0176292D02*
X0063842Y0176292D01*
X0063842Y0177290D02*
X0053342Y0177290D01*
X0053342Y0178289D02*
X0063842Y0178289D01*
X0063842Y0179287D02*
X0053342Y0179287D01*
X0053342Y0180286D02*
X0063842Y0180286D01*
X0063842Y0181284D02*
X0053342Y0181284D01*
X0053342Y0182283D02*
X0063842Y0182283D01*
X0063842Y0183281D02*
X0053342Y0183281D01*
X0053342Y0184280D02*
X0063842Y0184280D01*
X0063842Y0185278D02*
X0053342Y0185278D01*
X0053342Y0186277D02*
X0063842Y0186277D01*
X0063842Y0187275D02*
X0053342Y0187275D01*
X0053342Y0188274D02*
X0063842Y0188274D01*
X0063842Y0189272D02*
X0053342Y0189272D01*
X0053342Y0190271D02*
X0063842Y0190271D01*
X0063842Y0191269D02*
X0053342Y0191269D01*
X0053342Y0192268D02*
X0063842Y0192268D01*
X0063842Y0193266D02*
X0053342Y0193266D01*
X0053342Y0194265D02*
X0063842Y0194265D01*
X0063842Y0195263D02*
X0053342Y0195263D01*
X0053342Y0196262D02*
X0063842Y0196262D01*
X0063842Y0197260D02*
X0053342Y0197260D01*
X0053342Y0198259D02*
X0063842Y0198259D01*
X0063842Y0199257D02*
X0053342Y0199257D01*
X0053342Y0200256D02*
X0063842Y0200256D01*
X0063842Y0201254D02*
X0053342Y0201254D01*
X0053342Y0202253D02*
X0063842Y0202253D01*
X0063842Y0203251D02*
X0053342Y0203251D01*
X0053342Y0204250D02*
X0063842Y0204250D01*
X0063842Y0205248D02*
X0053342Y0205248D01*
X0053342Y0206247D02*
X0063842Y0206247D01*
X0063842Y0207245D02*
X0053342Y0207245D01*
X0053342Y0208244D02*
X0063842Y0208244D01*
X0063842Y0209242D02*
X0053342Y0209242D01*
X0053342Y0210241D02*
X0063842Y0210241D01*
X0063842Y0211239D02*
X0053342Y0211239D01*
X0053342Y0212238D02*
X0063842Y0212238D01*
X0063842Y0213237D02*
X0053342Y0213237D01*
X0053342Y0214235D02*
X0063842Y0214235D01*
X0063842Y0215234D02*
X0053342Y0215234D01*
X0053342Y0216232D02*
X0063842Y0216232D01*
X0063842Y0217231D02*
X0053342Y0217231D01*
X0053342Y0218229D02*
X0063842Y0218229D01*
X0063842Y0219228D02*
X0053342Y0219228D01*
X0053342Y0220226D02*
X0063842Y0220226D01*
X0063842Y0221225D02*
X0053342Y0221225D01*
X0053342Y0222223D02*
X0063842Y0222223D01*
X0063842Y0223222D02*
X0053342Y0223222D01*
X0053342Y0224220D02*
X0063842Y0224220D01*
X0063842Y0225219D02*
X0053342Y0225219D01*
X0053342Y0226217D02*
X0063842Y0226217D01*
X0063842Y0227216D02*
X0053342Y0227216D01*
X0053342Y0228214D02*
X0063842Y0228214D01*
X0063842Y0229213D02*
X0053342Y0229213D01*
X0053342Y0230211D02*
X0063842Y0230211D01*
X0063842Y0231210D02*
X0053342Y0231210D01*
X0053342Y0232208D02*
X0063842Y0232208D01*
X0063842Y0233207D02*
X0053342Y0233207D01*
X0053342Y0234205D02*
X0063842Y0234205D01*
X0063842Y0235204D02*
X0053342Y0235204D01*
X0053342Y0236202D02*
X0063842Y0236202D01*
X0063842Y0237201D02*
X0053342Y0237201D01*
X0053342Y0238199D02*
X0063842Y0238199D01*
X0063842Y0239198D02*
X0053342Y0239198D01*
X0053342Y0240196D02*
X0063842Y0240196D01*
X0063842Y0241195D02*
X0053342Y0241195D01*
X0053342Y0242193D02*
X0063842Y0242193D01*
X0063842Y0243192D02*
X0053342Y0243192D01*
X0053342Y0244190D02*
X0063842Y0244190D01*
X0063842Y0245189D02*
X0053342Y0245189D01*
X0053342Y0246187D02*
X0063842Y0246187D01*
X0063842Y0247186D02*
X0053342Y0247186D01*
X0053342Y0248184D02*
X0063842Y0248184D01*
X0063842Y0249183D02*
X0053342Y0249183D01*
X0053342Y0250181D02*
X0063842Y0250181D01*
X0063842Y0251180D02*
X0053342Y0251180D01*
X0053342Y0252178D02*
X0063842Y0252178D01*
X0063842Y0253177D02*
X0053342Y0253177D01*
X0053342Y0254175D02*
X0063842Y0254175D01*
X0063842Y0255174D02*
X0053342Y0255174D01*
X0053342Y0256172D02*
X0063842Y0256172D01*
X0063842Y0257171D02*
X0053342Y0257171D01*
X0053342Y0258170D02*
X0063842Y0258170D01*
X0063842Y0259168D02*
X0053342Y0259168D01*
X0053342Y0260167D02*
X0063842Y0260167D01*
X0063842Y0261165D02*
X0053342Y0261165D01*
X0053342Y0262164D02*
X0063842Y0262164D01*
X0063842Y0263162D02*
X0053342Y0263162D01*
X0053342Y0264161D02*
X0063842Y0264161D01*
X0063842Y0265159D02*
X0053342Y0265159D01*
X0053342Y0266158D02*
X0063842Y0266158D01*
X0063842Y0267156D02*
X0053342Y0267156D01*
X0053342Y0268155D02*
X0063842Y0268155D01*
X0063842Y0269153D02*
X0053342Y0269153D01*
X0053342Y0270152D02*
X0063842Y0270152D01*
X0063842Y0271150D02*
X0053342Y0271150D01*
X0053342Y0272149D02*
X0063842Y0272149D01*
X0063842Y0273147D02*
X0053342Y0273147D01*
X0053342Y0274146D02*
X0063842Y0274146D01*
X0063842Y0275144D02*
X0053342Y0275144D01*
X0053342Y0276143D02*
X0063842Y0276143D01*
X0063842Y0277141D02*
X0053342Y0277141D01*
X0053342Y0278140D02*
X0063842Y0278140D01*
X0063842Y0279138D02*
X0053342Y0279138D01*
X0053342Y0280137D02*
X0063842Y0280137D01*
X0063842Y0281135D02*
X0053342Y0281135D01*
X0053342Y0282134D02*
X0063842Y0282134D01*
X0063842Y0283132D02*
X0053342Y0283132D01*
X0053342Y0284131D02*
X0063842Y0284131D01*
X0063842Y0285129D02*
X0053342Y0285129D01*
X0053342Y0286128D02*
X0063842Y0286128D01*
X0063842Y0287126D02*
X0053342Y0287126D01*
X0053342Y0288125D02*
X0063842Y0288125D01*
X0063842Y0289123D02*
X0053342Y0289123D01*
X0053342Y0290122D02*
X0063842Y0290122D01*
X0063842Y0291120D02*
X0053342Y0291120D01*
X0053342Y0292119D02*
X0063842Y0292119D01*
X0063842Y0293117D02*
X0053342Y0293117D01*
X0053342Y0294116D02*
X0063842Y0294116D01*
X0063842Y0295114D02*
X0053342Y0295114D01*
X0053342Y0296113D02*
X0063842Y0296113D01*
X0063842Y0297111D02*
X0053342Y0297111D01*
X0053342Y0298110D02*
X0063842Y0298110D01*
X0063842Y0299108D02*
X0053342Y0299108D01*
X0053342Y0300107D02*
X0063842Y0300107D01*
X0063842Y0301105D02*
X0053342Y0301105D01*
X0053342Y0302104D02*
X0063842Y0302104D01*
X0063842Y0303103D02*
X0053342Y0303103D01*
X0053342Y0304101D02*
X0063842Y0304101D01*
X0063842Y0305100D02*
X0053342Y0305100D01*
X0053342Y0306098D02*
X0063842Y0306098D01*
X0063842Y0307097D02*
X0053342Y0307097D01*
X0053342Y0308095D02*
X0063842Y0308095D01*
X0063842Y0309094D02*
X0053342Y0309094D01*
X0053342Y0310092D02*
X0063842Y0310092D01*
X0063842Y0311091D02*
X0053342Y0311091D01*
X0053342Y0312089D02*
X0063842Y0312089D01*
X0063842Y0313088D02*
X0053342Y0313088D01*
X0053342Y0314086D02*
X0063842Y0314086D01*
X0063842Y0315085D02*
X0053342Y0315085D01*
X0053342Y0316083D02*
X0063842Y0316083D01*
X0063842Y0317082D02*
X0053342Y0317082D01*
X0053342Y0318080D02*
X0063842Y0318080D01*
X0063842Y0319079D02*
X0053342Y0319079D01*
X0053342Y0320077D02*
X0063842Y0320077D01*
X0063842Y0321076D02*
X0053342Y0321076D01*
X0053342Y0322074D02*
X0063842Y0322074D01*
X0063842Y0323073D02*
X0053342Y0323073D01*
X0053342Y0324071D02*
X0063842Y0324071D01*
X0063842Y0325070D02*
X0053342Y0325070D01*
X0053342Y0326068D02*
X0063842Y0326068D01*
X0063842Y0327067D02*
X0053342Y0327067D01*
X0053342Y0328065D02*
X0063842Y0328065D01*
X0063842Y0329064D02*
X0053342Y0329064D01*
X0053342Y0330062D02*
X0063842Y0330062D01*
X0063842Y0331061D02*
X0053342Y0331061D01*
X0053342Y0332059D02*
X0063842Y0332059D01*
X0063842Y0333058D02*
X0053342Y0333058D01*
X0053342Y0334056D02*
X0063842Y0334056D01*
X0063842Y0335055D02*
X0053342Y0335055D01*
X0053342Y0336053D02*
X0063842Y0336053D01*
X0063842Y0337052D02*
X0053342Y0337052D01*
X0053342Y0338050D02*
X0063842Y0338050D01*
X0063842Y0339049D02*
X0053342Y0339049D01*
X0053342Y0340047D02*
X0063842Y0340047D01*
X0063842Y0341046D02*
X0053342Y0341046D01*
X0053342Y0342044D02*
X0063842Y0342044D01*
X0063842Y0343043D02*
X0053342Y0343043D01*
X0053342Y0344041D02*
X0063842Y0344041D01*
X0063842Y0345040D02*
X0053342Y0345040D01*
X0053342Y0346039D02*
X0063842Y0346039D01*
X0063842Y0347037D02*
X0053342Y0347037D01*
X0053342Y0348036D02*
X0063842Y0348036D01*
X0063842Y0349034D02*
X0053342Y0349034D01*
X0053342Y0350033D02*
X0063842Y0350033D01*
X0063842Y0351031D02*
X0053342Y0351031D01*
X0053342Y0352030D02*
X0063842Y0352030D01*
X0064120Y0353028D02*
X0053342Y0353028D01*
X0053342Y0354027D02*
X0064544Y0354027D01*
X0065542Y0355025D02*
X0053342Y0355025D01*
X0053342Y0356024D02*
X0458818Y0356024D01*
X0457820Y0357022D02*
X0053342Y0357022D01*
X0053342Y0358021D02*
X0456821Y0358021D01*
X0455823Y0359019D02*
X0053342Y0359019D01*
X0053342Y0360018D02*
X0454824Y0360018D01*
X0453826Y0361016D02*
X0053342Y0361016D01*
X0072842Y0346961D02*
X0072842Y0345125D01*
X0072858Y0345164D01*
X0074655Y0346961D01*
X0072842Y0346961D01*
X0072842Y0346039D02*
X0073732Y0346039D01*
X0072842Y0337875D02*
X0072858Y0337836D01*
X0074678Y0336016D01*
X0077055Y0335031D01*
X0079628Y0335031D01*
X0082006Y0336016D01*
X0083826Y0337836D01*
X0084810Y0340213D01*
X0084810Y0342787D01*
X0083826Y0345164D01*
X0082029Y0346961D01*
X0444655Y0346961D01*
X0442858Y0345164D01*
X0441873Y0342787D01*
X0441873Y0340213D01*
X0442858Y0337836D01*
X0444678Y0336016D01*
X0447055Y0335031D01*
X0449628Y0335031D01*
X0452006Y0336016D01*
X0453826Y0337836D01*
X0454810Y0340213D01*
X0454810Y0342787D01*
X0453826Y0345164D01*
X0452029Y0346961D01*
X0457543Y0346961D01*
X0457543Y0041000D01*
X0072842Y0041000D01*
X0072842Y0237875D01*
X0072858Y0237836D01*
X0074678Y0236016D01*
X0077055Y0235031D01*
X0079628Y0235031D01*
X0082006Y0236016D01*
X0083826Y0237836D01*
X0084810Y0240213D01*
X0084810Y0242787D01*
X0083826Y0245164D01*
X0082006Y0246984D01*
X0079628Y0247968D01*
X0077055Y0247968D01*
X0074678Y0246984D01*
X0072858Y0245164D01*
X0072842Y0245125D01*
X0072842Y0337875D01*
X0072842Y0337052D02*
X0073642Y0337052D01*
X0072842Y0336053D02*
X0074641Y0336053D01*
X0072842Y0335055D02*
X0076999Y0335055D01*
X0079685Y0335055D02*
X0169066Y0335055D01*
X0169066Y0335319D02*
X0169066Y0327681D01*
X0169717Y0326110D01*
X0170920Y0324907D01*
X0172491Y0324256D01*
X0174192Y0324256D01*
X0175764Y0324907D01*
X0176966Y0326110D01*
X0177617Y0327681D01*
X0177617Y0332235D01*
X0179066Y0333684D01*
X0179066Y0327681D01*
X0179717Y0326110D01*
X0180920Y0324907D01*
X0182491Y0324256D01*
X0184192Y0324256D01*
X0185764Y0324907D01*
X0186966Y0326110D01*
X0187617Y0327681D01*
X0187617Y0335319D01*
X0186966Y0336890D01*
X0186920Y0336937D01*
X0189764Y0336937D01*
X0189717Y0336890D01*
X0189066Y0335319D01*
X0189066Y0327681D01*
X0189717Y0326110D01*
X0190920Y0324907D01*
X0192491Y0324256D01*
X0194192Y0324256D01*
X0195764Y0324907D01*
X0196966Y0326110D01*
X0197617Y0327681D01*
X0197617Y0335319D01*
X0196966Y0336890D01*
X0196920Y0336937D01*
X0230349Y0336937D01*
X0244435Y0322851D01*
X0244435Y0319882D01*
X0246723Y0317593D01*
X0249960Y0317593D01*
X0252249Y0319882D01*
X0252249Y0323118D01*
X0249960Y0325407D01*
X0246990Y0325407D01*
X0232905Y0339493D01*
X0231846Y0340551D01*
X0180822Y0340551D01*
X0179764Y0339493D01*
X0177024Y0336752D01*
X0176966Y0336890D01*
X0175764Y0338093D01*
X0174192Y0338744D01*
X0172491Y0338744D01*
X0170920Y0338093D01*
X0169717Y0336890D01*
X0169066Y0335319D01*
X0169370Y0336053D02*
X0082043Y0336053D01*
X0083042Y0337052D02*
X0169879Y0337052D01*
X0170877Y0338050D02*
X0083914Y0338050D01*
X0084328Y0339049D02*
X0179320Y0339049D01*
X0180319Y0340047D02*
X0084742Y0340047D01*
X0084810Y0341046D02*
X0252745Y0341046D01*
X0252579Y0340647D02*
X0252579Y0339534D01*
X0253005Y0338507D01*
X0253791Y0337720D01*
X0254819Y0337294D01*
X0255616Y0337294D01*
X0259356Y0333554D01*
X0259356Y0332758D01*
X0259781Y0331730D01*
X0260568Y0330944D01*
X0261596Y0330518D01*
X0262708Y0330518D01*
X0263736Y0330944D01*
X0264522Y0331730D01*
X0264948Y0332758D01*
X0264948Y0333870D01*
X0264522Y0334898D01*
X0263736Y0335684D01*
X0262708Y0336110D01*
X0261911Y0336110D01*
X0258171Y0339850D01*
X0258171Y0340647D01*
X0257746Y0341674D01*
X0256959Y0342461D01*
X0255931Y0342887D01*
X0254819Y0342887D01*
X0253791Y0342461D01*
X0253005Y0341674D01*
X0252579Y0340647D01*
X0252579Y0340047D02*
X0232350Y0340047D01*
X0233348Y0339049D02*
X0252780Y0339049D01*
X0253461Y0338050D02*
X0234347Y0338050D01*
X0235345Y0337052D02*
X0255858Y0337052D01*
X0256857Y0336053D02*
X0236344Y0336053D01*
X0237343Y0335055D02*
X0257855Y0335055D01*
X0258854Y0334056D02*
X0238341Y0334056D01*
X0239340Y0333058D02*
X0259356Y0333058D01*
X0259645Y0332059D02*
X0240338Y0332059D01*
X0241337Y0331061D02*
X0260451Y0331061D01*
X0262152Y0333314D02*
X0255375Y0340091D01*
X0253375Y0342044D02*
X0084810Y0342044D01*
X0084704Y0343043D02*
X0279204Y0343043D01*
X0280202Y0344041D02*
X0084291Y0344041D01*
X0083877Y0345040D02*
X0442807Y0345040D01*
X0442393Y0344041D02*
X0286481Y0344041D01*
X0286767Y0343756D02*
X0285709Y0344814D01*
X0280975Y0344814D01*
X0276894Y0340733D01*
X0276654Y0341313D01*
X0275555Y0342412D01*
X0274119Y0343007D01*
X0272565Y0343007D01*
X0271129Y0342412D01*
X0270030Y0341313D01*
X0269435Y0339877D01*
X0269435Y0333123D01*
X0270030Y0331687D01*
X0271129Y0330588D01*
X0272565Y0329993D01*
X0274119Y0329993D01*
X0275555Y0330588D01*
X0276654Y0331687D01*
X0277249Y0333123D01*
X0277249Y0335977D01*
X0279435Y0338163D01*
X0279435Y0333123D01*
X0280030Y0331687D01*
X0281129Y0330588D01*
X0282565Y0329993D01*
X0284119Y0329993D01*
X0285555Y0330588D01*
X0286654Y0331687D01*
X0286894Y0332267D01*
X0290975Y0328186D01*
X0294100Y0328186D01*
X0344435Y0277851D01*
X0344435Y0274882D01*
X0346723Y0272593D01*
X0349960Y0272593D01*
X0352249Y0274882D01*
X0352249Y0277851D01*
X0385183Y0310786D01*
X0410709Y0310786D01*
X0411767Y0311844D01*
X0414616Y0314693D01*
X0414623Y0314693D01*
X0416723Y0312593D01*
X0419960Y0312593D01*
X0422249Y0314882D01*
X0422249Y0318118D01*
X0419960Y0320407D01*
X0416723Y0320407D01*
X0414623Y0318307D01*
X0413119Y0318307D01*
X0412249Y0317437D01*
X0412249Y0318118D01*
X0409960Y0320407D01*
X0406723Y0320407D01*
X0404435Y0318118D01*
X0404435Y0314882D01*
X0404916Y0314400D01*
X0383686Y0314400D01*
X0382628Y0313341D01*
X0349693Y0280407D01*
X0346990Y0280407D01*
X0333388Y0294009D01*
X0334212Y0294350D01*
X0334999Y0295137D01*
X0335424Y0296164D01*
X0335424Y0296961D01*
X0336390Y0297927D01*
X0336723Y0297593D01*
X0339960Y0297593D01*
X0342249Y0299882D01*
X0342249Y0303118D01*
X0339960Y0305407D01*
X0336723Y0305407D01*
X0334435Y0303118D01*
X0334435Y0301083D01*
X0332869Y0299517D01*
X0332072Y0299517D01*
X0331044Y0299091D01*
X0330258Y0298304D01*
X0329917Y0297481D01*
X0296656Y0330741D01*
X0296182Y0331215D01*
X0296654Y0331687D01*
X0297249Y0333123D01*
X0297249Y0339877D01*
X0296654Y0341313D01*
X0295555Y0342412D01*
X0294119Y0343007D01*
X0292565Y0343007D01*
X0291129Y0342412D01*
X0290030Y0341313D01*
X0289435Y0339877D01*
X0289435Y0334837D01*
X0289056Y0335216D01*
X0289056Y0341467D01*
X0287997Y0342525D01*
X0286767Y0343756D01*
X0287480Y0343043D02*
X0441979Y0343043D01*
X0441873Y0342044D02*
X0315923Y0342044D01*
X0315555Y0342412D02*
X0314119Y0343007D01*
X0312565Y0343007D01*
X0311129Y0342412D01*
X0310030Y0341313D01*
X0309435Y0339877D01*
X0309435Y0333123D01*
X0310030Y0331687D01*
X0311129Y0330588D01*
X0312565Y0329993D01*
X0314119Y0329993D01*
X0315555Y0330588D01*
X0316654Y0331687D01*
X0317249Y0333123D01*
X0317249Y0339877D01*
X0316654Y0341313D01*
X0315555Y0342412D01*
X0316765Y0341046D02*
X0441873Y0341046D01*
X0441942Y0340047D02*
X0317178Y0340047D01*
X0317249Y0339049D02*
X0442356Y0339049D01*
X0442769Y0338050D02*
X0317249Y0338050D01*
X0317249Y0337052D02*
X0443642Y0337052D01*
X0444641Y0336053D02*
X0317249Y0336053D01*
X0317249Y0335055D02*
X0446999Y0335055D01*
X0449685Y0335055D02*
X0457543Y0335055D01*
X0457543Y0336053D02*
X0452043Y0336053D01*
X0453042Y0337052D02*
X0457543Y0337052D01*
X0457543Y0338050D02*
X0453914Y0338050D01*
X0454328Y0339049D02*
X0457543Y0339049D01*
X0457543Y0340047D02*
X0454742Y0340047D01*
X0454810Y0341046D02*
X0457543Y0341046D01*
X0457543Y0342044D02*
X0454810Y0342044D01*
X0454704Y0343043D02*
X0457543Y0343043D01*
X0457543Y0344041D02*
X0454291Y0344041D01*
X0453877Y0345040D02*
X0457543Y0345040D01*
X0457543Y0346039D02*
X0452951Y0346039D01*
X0443732Y0346039D02*
X0082951Y0346039D01*
X0072842Y0334056D02*
X0169066Y0334056D01*
X0169066Y0333058D02*
X0072842Y0333058D01*
X0072842Y0332059D02*
X0169066Y0332059D01*
X0169066Y0331061D02*
X0072842Y0331061D01*
X0072842Y0330062D02*
X0169066Y0330062D01*
X0169066Y0329064D02*
X0072842Y0329064D01*
X0072842Y0328065D02*
X0169066Y0328065D01*
X0169321Y0327067D02*
X0072842Y0327067D01*
X0072842Y0326068D02*
X0169758Y0326068D01*
X0170757Y0325070D02*
X0110297Y0325070D01*
X0109960Y0325407D02*
X0106723Y0325407D01*
X0104435Y0323118D01*
X0104435Y0319882D01*
X0106723Y0317593D01*
X0109960Y0317593D01*
X0112249Y0319882D01*
X0112249Y0323118D01*
X0109960Y0325407D01*
X0111296Y0324071D02*
X0225388Y0324071D01*
X0224435Y0323118D02*
X0224435Y0319882D01*
X0226723Y0317593D01*
X0229960Y0317593D01*
X0232249Y0319882D01*
X0232249Y0323118D01*
X0229960Y0325407D01*
X0226723Y0325407D01*
X0224435Y0323118D01*
X0224435Y0323073D02*
X0112249Y0323073D01*
X0112249Y0322074D02*
X0224435Y0322074D01*
X0224435Y0321076D02*
X0112249Y0321076D01*
X0112249Y0320077D02*
X0224435Y0320077D01*
X0225238Y0319079D02*
X0111446Y0319079D01*
X0110447Y0318080D02*
X0226236Y0318080D01*
X0230447Y0318080D02*
X0246236Y0318080D01*
X0245238Y0319079D02*
X0231446Y0319079D01*
X0232249Y0320077D02*
X0244435Y0320077D01*
X0244435Y0321076D02*
X0232249Y0321076D01*
X0232249Y0322074D02*
X0244435Y0322074D01*
X0244213Y0323073D02*
X0232249Y0323073D01*
X0231296Y0324071D02*
X0243215Y0324071D01*
X0242216Y0325070D02*
X0230297Y0325070D01*
X0226386Y0325070D02*
X0195927Y0325070D01*
X0196925Y0326068D02*
X0241218Y0326068D01*
X0240219Y0327067D02*
X0197363Y0327067D01*
X0197617Y0328065D02*
X0239221Y0328065D01*
X0238222Y0329064D02*
X0197617Y0329064D01*
X0197617Y0330062D02*
X0237224Y0330062D01*
X0236225Y0331061D02*
X0197617Y0331061D01*
X0197617Y0332059D02*
X0235227Y0332059D01*
X0234228Y0333058D02*
X0197617Y0333058D01*
X0197617Y0334056D02*
X0233230Y0334056D01*
X0232231Y0335055D02*
X0197617Y0335055D01*
X0197313Y0336053D02*
X0231233Y0336053D01*
X0231098Y0338744D02*
X0181571Y0338744D01*
X0174327Y0331500D01*
X0173342Y0331500D01*
X0177617Y0331061D02*
X0179066Y0331061D01*
X0179066Y0332059D02*
X0177617Y0332059D01*
X0178440Y0333058D02*
X0179066Y0333058D01*
X0179066Y0330062D02*
X0177617Y0330062D01*
X0177617Y0329064D02*
X0179066Y0329064D01*
X0179066Y0328065D02*
X0177617Y0328065D01*
X0177363Y0327067D02*
X0179321Y0327067D01*
X0179758Y0326068D02*
X0176925Y0326068D01*
X0175927Y0325070D02*
X0180757Y0325070D01*
X0185927Y0325070D02*
X0190757Y0325070D01*
X0189758Y0326068D02*
X0186925Y0326068D01*
X0187363Y0327067D02*
X0189321Y0327067D01*
X0189066Y0328065D02*
X0187617Y0328065D01*
X0187617Y0329064D02*
X0189066Y0329064D01*
X0189066Y0330062D02*
X0187617Y0330062D01*
X0187617Y0331061D02*
X0189066Y0331061D01*
X0189066Y0332059D02*
X0187617Y0332059D01*
X0187617Y0333058D02*
X0189066Y0333058D01*
X0189066Y0334056D02*
X0187617Y0334056D01*
X0187617Y0335055D02*
X0189066Y0335055D01*
X0189370Y0336053D02*
X0187313Y0336053D01*
X0178322Y0338050D02*
X0175806Y0338050D01*
X0176805Y0337052D02*
X0177323Y0337052D01*
X0174119Y0305407D02*
X0172565Y0305407D01*
X0171129Y0304812D01*
X0170030Y0303713D01*
X0169435Y0302277D01*
X0169435Y0300723D01*
X0170030Y0299287D01*
X0171129Y0298188D01*
X0172565Y0297593D01*
X0174119Y0297593D01*
X0175555Y0298188D01*
X0176654Y0299287D01*
X0177249Y0300723D01*
X0177249Y0302277D01*
X0176654Y0303713D01*
X0175555Y0304812D01*
X0174119Y0305407D01*
X0174861Y0305100D02*
X0181822Y0305100D01*
X0181129Y0304812D02*
X0180030Y0303713D01*
X0179435Y0302277D01*
X0179435Y0300723D01*
X0180030Y0299287D01*
X0181129Y0298188D01*
X0182565Y0297593D01*
X0184119Y0297593D01*
X0185555Y0298188D01*
X0186654Y0299287D01*
X0187249Y0300723D01*
X0187249Y0302277D01*
X0186654Y0303713D01*
X0185555Y0304812D01*
X0184119Y0305407D01*
X0182565Y0305407D01*
X0181129Y0304812D01*
X0180417Y0304101D02*
X0176266Y0304101D01*
X0176907Y0303103D02*
X0179777Y0303103D01*
X0179435Y0302104D02*
X0177249Y0302104D01*
X0177249Y0301105D02*
X0179435Y0301105D01*
X0179690Y0300107D02*
X0176994Y0300107D01*
X0176476Y0299108D02*
X0180208Y0299108D01*
X0181316Y0298110D02*
X0175367Y0298110D01*
X0171316Y0298110D02*
X0165367Y0298110D01*
X0165555Y0298188D02*
X0166654Y0299287D01*
X0167249Y0300723D01*
X0167249Y0302277D01*
X0166654Y0303713D01*
X0165555Y0304812D01*
X0164119Y0305407D01*
X0162565Y0305407D01*
X0161129Y0304812D01*
X0160030Y0303713D01*
X0159435Y0302277D01*
X0159435Y0300723D01*
X0160030Y0299287D01*
X0161129Y0298188D01*
X0162565Y0297593D01*
X0164119Y0297593D01*
X0165555Y0298188D01*
X0166476Y0299108D02*
X0170208Y0299108D01*
X0169690Y0300107D02*
X0166994Y0300107D01*
X0167249Y0301105D02*
X0169435Y0301105D01*
X0169435Y0302104D02*
X0167249Y0302104D01*
X0166907Y0303103D02*
X0169777Y0303103D01*
X0170417Y0304101D02*
X0166266Y0304101D01*
X0164861Y0305100D02*
X0171822Y0305100D01*
X0161822Y0305100D02*
X0072842Y0305100D01*
X0072842Y0306098D02*
X0316188Y0306098D01*
X0315190Y0307097D02*
X0072842Y0307097D01*
X0072842Y0308095D02*
X0314191Y0308095D01*
X0313193Y0309094D02*
X0072842Y0309094D01*
X0072842Y0310092D02*
X0312194Y0310092D01*
X0311196Y0311091D02*
X0072842Y0311091D01*
X0072842Y0312089D02*
X0310197Y0312089D01*
X0309199Y0313088D02*
X0072842Y0313088D01*
X0072842Y0314086D02*
X0308200Y0314086D01*
X0307202Y0315085D02*
X0072842Y0315085D01*
X0072842Y0316083D02*
X0306203Y0316083D01*
X0305205Y0317082D02*
X0072842Y0317082D01*
X0072842Y0318080D02*
X0096236Y0318080D01*
X0096723Y0317593D02*
X0099960Y0317593D01*
X0102249Y0319882D01*
X0102249Y0323118D01*
X0099960Y0325407D01*
X0096723Y0325407D01*
X0094435Y0323118D01*
X0094435Y0319882D01*
X0096723Y0317593D01*
X0095238Y0319079D02*
X0072842Y0319079D01*
X0072842Y0320077D02*
X0094435Y0320077D01*
X0094435Y0321076D02*
X0072842Y0321076D01*
X0072842Y0322074D02*
X0094435Y0322074D01*
X0094435Y0323073D02*
X0072842Y0323073D01*
X0072842Y0324071D02*
X0095388Y0324071D01*
X0096386Y0325070D02*
X0072842Y0325070D01*
X0072842Y0304101D02*
X0160417Y0304101D01*
X0159777Y0303103D02*
X0072842Y0303103D01*
X0072842Y0302104D02*
X0159435Y0302104D01*
X0159435Y0301105D02*
X0072842Y0301105D01*
X0072842Y0300107D02*
X0159690Y0300107D01*
X0160208Y0299108D02*
X0072842Y0299108D01*
X0072842Y0298110D02*
X0161316Y0298110D01*
X0142249Y0293118D02*
X0142249Y0289882D01*
X0139960Y0287593D01*
X0136723Y0287593D01*
X0134435Y0289882D01*
X0134435Y0293118D01*
X0136723Y0295407D01*
X0139960Y0295407D01*
X0142249Y0293118D01*
X0142249Y0293117D02*
X0329169Y0293117D01*
X0330167Y0292119D02*
X0216947Y0292119D01*
X0216751Y0292314D02*
X0215724Y0292740D01*
X0214611Y0292740D01*
X0213584Y0292314D01*
X0212797Y0291528D01*
X0212372Y0290500D01*
X0212372Y0289388D01*
X0212797Y0288360D01*
X0213584Y0287574D01*
X0214611Y0287148D01*
X0215408Y0287148D01*
X0219436Y0283120D01*
X0219435Y0283118D01*
X0219435Y0279882D01*
X0221723Y0277593D01*
X0224960Y0277593D01*
X0227249Y0279882D01*
X0227249Y0283118D01*
X0224960Y0285407D01*
X0222260Y0285407D01*
X0217964Y0289703D01*
X0217964Y0290500D01*
X0217538Y0291528D01*
X0216751Y0292314D01*
X0217707Y0291120D02*
X0331166Y0291120D01*
X0332164Y0290122D02*
X0217964Y0290122D01*
X0218544Y0289123D02*
X0333163Y0289123D01*
X0334161Y0288125D02*
X0219542Y0288125D01*
X0220541Y0287126D02*
X0335160Y0287126D01*
X0336158Y0286128D02*
X0221539Y0286128D01*
X0219424Y0283132D02*
X0191224Y0283132D01*
X0191224Y0282134D02*
X0219435Y0282134D01*
X0219435Y0281135D02*
X0191224Y0281135D01*
X0191224Y0280137D02*
X0219435Y0280137D01*
X0220178Y0279138D02*
X0191224Y0279138D01*
X0191224Y0279101D02*
X0191224Y0287345D01*
X0191787Y0287908D01*
X0192213Y0288936D01*
X0192213Y0290048D01*
X0191787Y0291076D01*
X0191000Y0291863D01*
X0189973Y0292288D01*
X0188860Y0292288D01*
X0187833Y0291863D01*
X0187046Y0291076D01*
X0186621Y0290048D01*
X0186621Y0288936D01*
X0187046Y0287908D01*
X0187610Y0287345D01*
X0187610Y0277139D01*
X0185362Y0274892D01*
X0184119Y0275407D01*
X0182565Y0275407D01*
X0181129Y0274812D01*
X0180030Y0273713D01*
X0179435Y0272277D01*
X0179435Y0270723D01*
X0180030Y0269287D01*
X0181129Y0268188D01*
X0182565Y0267593D01*
X0184119Y0267593D01*
X0185555Y0268188D01*
X0186654Y0269287D01*
X0187249Y0270723D01*
X0187249Y0271667D01*
X0190165Y0274584D01*
X0191069Y0275487D01*
X0194541Y0275487D01*
X0194976Y0275052D01*
X0194119Y0275407D01*
X0192565Y0275407D01*
X0191129Y0274812D01*
X0190030Y0273713D01*
X0189435Y0272277D01*
X0189435Y0270723D01*
X0190030Y0269287D01*
X0191129Y0268188D01*
X0192565Y0267593D01*
X0194119Y0267593D01*
X0195555Y0268188D01*
X0196654Y0269287D01*
X0197249Y0270723D01*
X0197249Y0272277D01*
X0196894Y0273135D01*
X0199270Y0270758D01*
X0199270Y0269962D01*
X0199696Y0268934D01*
X0200482Y0268147D01*
X0201510Y0267722D01*
X0202622Y0267722D01*
X0203650Y0268147D01*
X0204437Y0268934D01*
X0204862Y0269962D01*
X0204862Y0271074D01*
X0204437Y0272102D01*
X0203650Y0272888D01*
X0202622Y0273314D01*
X0201826Y0273314D01*
X0196038Y0279101D01*
X0191224Y0279101D01*
X0189417Y0277294D02*
X0195290Y0277294D01*
X0202066Y0270518D01*
X0203025Y0273147D02*
X0346169Y0273147D01*
X0345171Y0274146D02*
X0200994Y0274146D01*
X0199995Y0275144D02*
X0344435Y0275144D01*
X0344435Y0276143D02*
X0198997Y0276143D01*
X0197998Y0277141D02*
X0344435Y0277141D01*
X0344146Y0278140D02*
X0275507Y0278140D01*
X0274960Y0277593D02*
X0277249Y0279882D01*
X0277249Y0283118D01*
X0274960Y0285407D01*
X0271723Y0285407D01*
X0269435Y0283118D01*
X0269435Y0279882D01*
X0271723Y0277593D01*
X0274960Y0277593D01*
X0276505Y0279138D02*
X0343148Y0279138D01*
X0342149Y0280137D02*
X0277249Y0280137D01*
X0277249Y0281135D02*
X0341151Y0281135D01*
X0340152Y0282134D02*
X0277249Y0282134D01*
X0277235Y0283132D02*
X0339154Y0283132D01*
X0338155Y0284131D02*
X0276236Y0284131D01*
X0275238Y0285129D02*
X0337157Y0285129D01*
X0339273Y0288125D02*
X0357411Y0288125D01*
X0358410Y0289123D02*
X0338274Y0289123D01*
X0337276Y0290122D02*
X0359408Y0290122D01*
X0360407Y0291120D02*
X0336277Y0291120D01*
X0335278Y0292119D02*
X0361405Y0292119D01*
X0362404Y0293117D02*
X0334280Y0293117D01*
X0333647Y0294116D02*
X0363402Y0294116D01*
X0364401Y0295114D02*
X0334976Y0295114D01*
X0335403Y0296113D02*
X0365399Y0296113D01*
X0366398Y0297111D02*
X0335575Y0297111D01*
X0332628Y0296720D02*
X0337146Y0301238D01*
X0338049Y0301238D01*
X0338342Y0301500D01*
X0341266Y0304101D02*
X0373387Y0304101D01*
X0372389Y0303103D02*
X0342249Y0303103D01*
X0342249Y0302104D02*
X0371390Y0302104D01*
X0370392Y0301105D02*
X0342249Y0301105D01*
X0342249Y0300107D02*
X0369393Y0300107D01*
X0368395Y0299108D02*
X0341476Y0299108D01*
X0340477Y0298110D02*
X0367396Y0298110D01*
X0369512Y0295114D02*
X0457543Y0295114D01*
X0457543Y0294116D02*
X0368513Y0294116D01*
X0367515Y0293117D02*
X0457543Y0293117D01*
X0457543Y0292119D02*
X0366516Y0292119D01*
X0365518Y0291120D02*
X0457543Y0291120D01*
X0457543Y0290122D02*
X0364519Y0290122D01*
X0363521Y0289123D02*
X0457543Y0289123D01*
X0457543Y0288125D02*
X0362522Y0288125D01*
X0361524Y0287126D02*
X0457543Y0287126D01*
X0457543Y0286128D02*
X0360525Y0286128D01*
X0359527Y0285129D02*
X0391446Y0285129D01*
X0391723Y0285407D02*
X0389435Y0283118D01*
X0389435Y0279882D01*
X0391723Y0277593D01*
X0394960Y0277593D01*
X0397249Y0279882D01*
X0397249Y0283118D01*
X0394960Y0285407D01*
X0391723Y0285407D01*
X0390447Y0284131D02*
X0358528Y0284131D01*
X0357530Y0283132D02*
X0389449Y0283132D01*
X0389435Y0282134D02*
X0356531Y0282134D01*
X0355533Y0281135D02*
X0389435Y0281135D01*
X0389435Y0280137D02*
X0370230Y0280137D01*
X0369960Y0280407D02*
X0366723Y0280407D01*
X0364435Y0278118D01*
X0364435Y0274882D01*
X0366723Y0272593D01*
X0369960Y0272593D01*
X0372249Y0274882D01*
X0372249Y0278118D01*
X0369960Y0280407D01*
X0371229Y0279138D02*
X0390178Y0279138D01*
X0391177Y0278140D02*
X0372227Y0278140D01*
X0372249Y0277141D02*
X0457543Y0277141D01*
X0457543Y0276143D02*
X0372249Y0276143D01*
X0372249Y0275144D02*
X0457543Y0275144D01*
X0457543Y0274146D02*
X0371513Y0274146D01*
X0370514Y0273147D02*
X0457543Y0273147D01*
X0457543Y0272149D02*
X0204389Y0272149D01*
X0204831Y0271150D02*
X0457543Y0271150D01*
X0457543Y0270152D02*
X0204862Y0270152D01*
X0204527Y0269153D02*
X0457543Y0269153D01*
X0457543Y0268155D02*
X0203657Y0268155D01*
X0200475Y0268155D02*
X0195475Y0268155D01*
X0196520Y0269153D02*
X0199605Y0269153D01*
X0199270Y0270152D02*
X0197012Y0270152D01*
X0197249Y0271150D02*
X0198878Y0271150D01*
X0197880Y0272149D02*
X0197249Y0272149D01*
X0194884Y0275144D02*
X0194754Y0275144D01*
X0191930Y0275144D02*
X0190726Y0275144D01*
X0190462Y0274146D02*
X0189727Y0274146D01*
X0189795Y0273147D02*
X0188729Y0273147D01*
X0189435Y0272149D02*
X0187730Y0272149D01*
X0187249Y0271150D02*
X0189435Y0271150D01*
X0189671Y0270152D02*
X0187012Y0270152D01*
X0186520Y0269153D02*
X0190163Y0269153D01*
X0191209Y0268155D02*
X0185475Y0268155D01*
X0184899Y0271873D02*
X0189417Y0276391D01*
X0189417Y0277294D01*
X0189417Y0289492D01*
X0190381Y0292119D02*
X0213388Y0292119D01*
X0212628Y0291120D02*
X0191743Y0291120D01*
X0192182Y0290122D02*
X0212372Y0290122D01*
X0212481Y0289123D02*
X0192213Y0289123D01*
X0191877Y0288125D02*
X0213032Y0288125D01*
X0215430Y0287126D02*
X0191224Y0287126D01*
X0191224Y0286128D02*
X0216428Y0286128D01*
X0217427Y0285129D02*
X0191224Y0285129D01*
X0191224Y0284131D02*
X0218425Y0284131D01*
X0223299Y0281812D02*
X0223342Y0281500D01*
X0223299Y0281812D02*
X0215168Y0289944D01*
X0225238Y0285129D02*
X0271446Y0285129D01*
X0270447Y0284131D02*
X0226236Y0284131D01*
X0227235Y0283132D02*
X0269449Y0283132D01*
X0269435Y0282134D02*
X0227249Y0282134D01*
X0227249Y0281135D02*
X0269435Y0281135D01*
X0269435Y0280137D02*
X0227249Y0280137D01*
X0226505Y0279138D02*
X0270178Y0279138D01*
X0271177Y0278140D02*
X0225507Y0278140D01*
X0221177Y0278140D02*
X0197000Y0278140D01*
X0187610Y0278140D02*
X0072842Y0278140D01*
X0072842Y0279138D02*
X0187610Y0279138D01*
X0187610Y0280137D02*
X0072842Y0280137D01*
X0072842Y0281135D02*
X0187610Y0281135D01*
X0187610Y0282134D02*
X0072842Y0282134D01*
X0072842Y0283132D02*
X0187610Y0283132D01*
X0187610Y0284131D02*
X0072842Y0284131D01*
X0072842Y0285129D02*
X0112383Y0285129D01*
X0111935Y0285315D02*
X0112963Y0284889D01*
X0114075Y0284889D01*
X0115103Y0285315D01*
X0115889Y0286101D01*
X0116315Y0287129D01*
X0116315Y0288241D01*
X0115889Y0289269D01*
X0115103Y0290055D01*
X0114075Y0290481D01*
X0113278Y0290481D01*
X0112249Y0291511D01*
X0112249Y0292307D01*
X0111823Y0293335D01*
X0111037Y0294121D01*
X0110009Y0294547D01*
X0108897Y0294547D01*
X0107869Y0294121D01*
X0107083Y0293335D01*
X0106657Y0292307D01*
X0106657Y0291195D01*
X0107083Y0290167D01*
X0107869Y0289381D01*
X0108897Y0288955D01*
X0109693Y0288955D01*
X0110723Y0287926D01*
X0110723Y0287129D01*
X0111149Y0286101D01*
X0111935Y0285315D01*
X0111138Y0286128D02*
X0072842Y0286128D01*
X0072842Y0287126D02*
X0110724Y0287126D01*
X0110524Y0288125D02*
X0090492Y0288125D01*
X0089960Y0287593D02*
X0092249Y0289882D01*
X0092249Y0293118D01*
X0089960Y0295407D01*
X0086723Y0295407D01*
X0084435Y0293118D01*
X0084435Y0289882D01*
X0086723Y0287593D01*
X0089960Y0287593D01*
X0091491Y0289123D02*
X0108490Y0289123D01*
X0107128Y0290122D02*
X0092249Y0290122D01*
X0092249Y0291120D02*
X0106688Y0291120D01*
X0106657Y0292119D02*
X0092249Y0292119D01*
X0092249Y0293117D02*
X0106993Y0293117D01*
X0107864Y0294116D02*
X0091251Y0294116D01*
X0090253Y0295114D02*
X0136431Y0295114D01*
X0135432Y0294116D02*
X0111042Y0294116D01*
X0111913Y0293117D02*
X0134435Y0293117D01*
X0134435Y0292119D02*
X0112249Y0292119D01*
X0112639Y0291120D02*
X0134435Y0291120D01*
X0134435Y0290122D02*
X0114942Y0290122D01*
X0115950Y0289123D02*
X0135193Y0289123D01*
X0136191Y0288125D02*
X0116315Y0288125D01*
X0116314Y0287126D02*
X0187610Y0287126D01*
X0187610Y0286128D02*
X0115900Y0286128D01*
X0114655Y0285129D02*
X0187610Y0285129D01*
X0186957Y0288125D02*
X0140492Y0288125D01*
X0141491Y0289123D02*
X0186621Y0289123D01*
X0186651Y0290122D02*
X0142249Y0290122D01*
X0142249Y0291120D02*
X0187091Y0291120D01*
X0188452Y0292119D02*
X0142249Y0292119D01*
X0141251Y0294116D02*
X0328170Y0294116D01*
X0327172Y0295114D02*
X0140253Y0295114D01*
X0161129Y0274812D02*
X0160030Y0273713D01*
X0159435Y0272277D01*
X0159435Y0270723D01*
X0160030Y0269287D01*
X0161129Y0268188D01*
X0162565Y0267593D01*
X0164119Y0267593D01*
X0165555Y0268188D01*
X0166654Y0269287D01*
X0167249Y0270723D01*
X0167249Y0272277D01*
X0166654Y0273713D01*
X0165555Y0274812D01*
X0164119Y0275407D01*
X0162565Y0275407D01*
X0161129Y0274812D01*
X0161930Y0275144D02*
X0072842Y0275144D01*
X0072842Y0274146D02*
X0160462Y0274146D01*
X0159795Y0273147D02*
X0072842Y0273147D01*
X0072842Y0272149D02*
X0159435Y0272149D01*
X0159435Y0271150D02*
X0072842Y0271150D01*
X0072842Y0270152D02*
X0159671Y0270152D01*
X0160163Y0269153D02*
X0072842Y0269153D01*
X0072842Y0268155D02*
X0161209Y0268155D01*
X0165475Y0268155D02*
X0171209Y0268155D01*
X0171129Y0268188D02*
X0172565Y0267593D01*
X0174119Y0267593D01*
X0175555Y0268188D01*
X0176654Y0269287D01*
X0177249Y0270723D01*
X0177249Y0272277D01*
X0176654Y0273713D01*
X0175555Y0274812D01*
X0174119Y0275407D01*
X0172565Y0275407D01*
X0171129Y0274812D01*
X0170030Y0273713D01*
X0169435Y0272277D01*
X0169435Y0270723D01*
X0170030Y0269287D01*
X0171129Y0268188D01*
X0170163Y0269153D02*
X0166520Y0269153D01*
X0167012Y0270152D02*
X0169671Y0270152D01*
X0169435Y0271150D02*
X0167249Y0271150D01*
X0167249Y0272149D02*
X0169435Y0272149D01*
X0169795Y0273147D02*
X0166889Y0273147D01*
X0166222Y0274146D02*
X0170462Y0274146D01*
X0171930Y0275144D02*
X0164754Y0275144D01*
X0174754Y0275144D02*
X0181930Y0275144D01*
X0180462Y0274146D02*
X0176222Y0274146D01*
X0176889Y0273147D02*
X0179795Y0273147D01*
X0179435Y0272149D02*
X0177249Y0272149D01*
X0177249Y0271150D02*
X0179435Y0271150D01*
X0179671Y0270152D02*
X0177012Y0270152D01*
X0176520Y0269153D02*
X0180163Y0269153D01*
X0181209Y0268155D02*
X0175475Y0268155D01*
X0183342Y0271500D02*
X0183544Y0271873D01*
X0184899Y0271873D01*
X0184754Y0275144D02*
X0185614Y0275144D01*
X0186613Y0276143D02*
X0072842Y0276143D01*
X0072842Y0277141D02*
X0187610Y0277141D01*
X0192565Y0297593D02*
X0191129Y0298188D01*
X0190030Y0299287D01*
X0189435Y0300723D01*
X0189435Y0302277D01*
X0190030Y0303713D01*
X0191129Y0304812D01*
X0192565Y0305407D01*
X0194119Y0305407D01*
X0195555Y0304812D01*
X0196654Y0303713D01*
X0197249Y0302277D01*
X0197249Y0300723D01*
X0196654Y0299287D01*
X0195555Y0298188D01*
X0194119Y0297593D01*
X0192565Y0297593D01*
X0191316Y0298110D02*
X0185367Y0298110D01*
X0186476Y0299108D02*
X0190208Y0299108D01*
X0189690Y0300107D02*
X0186994Y0300107D01*
X0187249Y0301105D02*
X0189435Y0301105D01*
X0189435Y0302104D02*
X0187249Y0302104D01*
X0186907Y0303103D02*
X0189777Y0303103D01*
X0190417Y0304101D02*
X0186266Y0304101D01*
X0184861Y0305100D02*
X0191822Y0305100D01*
X0194861Y0305100D02*
X0286416Y0305100D01*
X0286723Y0305407D02*
X0284435Y0303118D01*
X0284435Y0299882D01*
X0286723Y0297593D01*
X0289960Y0297593D01*
X0292249Y0299882D01*
X0292249Y0303118D01*
X0289960Y0305407D01*
X0286723Y0305407D01*
X0285417Y0304101D02*
X0196266Y0304101D01*
X0196907Y0303103D02*
X0284435Y0303103D01*
X0284435Y0302104D02*
X0197249Y0302104D01*
X0197249Y0301105D02*
X0284435Y0301105D01*
X0284435Y0300107D02*
X0196994Y0300107D01*
X0196476Y0299108D02*
X0285208Y0299108D01*
X0286206Y0298110D02*
X0195367Y0298110D01*
X0231098Y0338744D02*
X0248342Y0321500D01*
X0251296Y0324071D02*
X0298215Y0324071D01*
X0299213Y0323073D02*
X0252249Y0323073D01*
X0252249Y0322074D02*
X0300212Y0322074D01*
X0301210Y0321076D02*
X0252249Y0321076D01*
X0252249Y0320077D02*
X0302209Y0320077D01*
X0303207Y0319079D02*
X0251446Y0319079D01*
X0250447Y0318080D02*
X0304206Y0318080D01*
X0306322Y0321076D02*
X0457543Y0321076D01*
X0457543Y0322074D02*
X0305323Y0322074D01*
X0304325Y0323073D02*
X0457543Y0323073D01*
X0457543Y0324071D02*
X0303326Y0324071D01*
X0302328Y0325070D02*
X0457543Y0325070D01*
X0457543Y0326068D02*
X0301329Y0326068D01*
X0300331Y0327067D02*
X0457543Y0327067D01*
X0457543Y0328065D02*
X0299332Y0328065D01*
X0298334Y0329064D02*
X0457543Y0329064D01*
X0457543Y0330062D02*
X0314287Y0330062D01*
X0312397Y0330062D02*
X0304287Y0330062D01*
X0304119Y0329993D02*
X0305555Y0330588D01*
X0306654Y0331687D01*
X0307249Y0333123D01*
X0307249Y0339877D01*
X0306654Y0341313D01*
X0305555Y0342412D01*
X0304119Y0343007D01*
X0302565Y0343007D01*
X0301129Y0342412D01*
X0300030Y0341313D01*
X0299435Y0339877D01*
X0299435Y0333123D01*
X0300030Y0331687D01*
X0301129Y0330588D01*
X0302565Y0329993D01*
X0304119Y0329993D01*
X0302397Y0330062D02*
X0297335Y0330062D01*
X0296337Y0331061D02*
X0300656Y0331061D01*
X0299875Y0332059D02*
X0296808Y0332059D01*
X0297222Y0333058D02*
X0299462Y0333058D01*
X0299435Y0334056D02*
X0297249Y0334056D01*
X0297249Y0335055D02*
X0299435Y0335055D01*
X0299435Y0336053D02*
X0297249Y0336053D01*
X0297249Y0337052D02*
X0299435Y0337052D01*
X0299435Y0338050D02*
X0297249Y0338050D01*
X0297249Y0339049D02*
X0299435Y0339049D01*
X0299505Y0340047D02*
X0297178Y0340047D01*
X0296765Y0341046D02*
X0299919Y0341046D01*
X0300761Y0342044D02*
X0295923Y0342044D01*
X0290761Y0342044D02*
X0288478Y0342044D01*
X0287997Y0342525D02*
X0287997Y0342525D01*
X0289056Y0341046D02*
X0289919Y0341046D01*
X0289505Y0340047D02*
X0289056Y0340047D01*
X0289056Y0339049D02*
X0289435Y0339049D01*
X0289435Y0338050D02*
X0289056Y0338050D01*
X0289056Y0337052D02*
X0289435Y0337052D01*
X0289435Y0336053D02*
X0289056Y0336053D01*
X0289217Y0335055D02*
X0289435Y0335055D01*
X0287249Y0334467D02*
X0291723Y0329993D01*
X0294849Y0329993D01*
X0348342Y0276500D01*
X0384435Y0312593D01*
X0409960Y0312593D01*
X0413867Y0316500D01*
X0418342Y0316500D01*
X0421289Y0319079D02*
X0457543Y0319079D01*
X0457543Y0320077D02*
X0420290Y0320077D01*
X0422249Y0318080D02*
X0457543Y0318080D01*
X0457543Y0317082D02*
X0422249Y0317082D01*
X0422249Y0316083D02*
X0457543Y0316083D01*
X0457543Y0315085D02*
X0422249Y0315085D01*
X0421453Y0314086D02*
X0457543Y0314086D01*
X0457543Y0313088D02*
X0420455Y0313088D01*
X0416229Y0313088D02*
X0413011Y0313088D01*
X0414009Y0314086D02*
X0415230Y0314086D01*
X0412012Y0312089D02*
X0457543Y0312089D01*
X0457543Y0311091D02*
X0411013Y0311091D01*
X0404435Y0315085D02*
X0312313Y0315085D01*
X0311314Y0316083D02*
X0404435Y0316083D01*
X0404435Y0317082D02*
X0310316Y0317082D01*
X0309317Y0318080D02*
X0404435Y0318080D01*
X0405395Y0319079D02*
X0308319Y0319079D01*
X0307320Y0320077D02*
X0406394Y0320077D01*
X0410290Y0320077D02*
X0416394Y0320077D01*
X0415395Y0319079D02*
X0411289Y0319079D01*
X0412249Y0318080D02*
X0412892Y0318080D01*
X0384489Y0310092D02*
X0457543Y0310092D01*
X0457543Y0309094D02*
X0383491Y0309094D01*
X0382492Y0308095D02*
X0457543Y0308095D01*
X0457543Y0307097D02*
X0381494Y0307097D01*
X0380495Y0306098D02*
X0457543Y0306098D01*
X0457543Y0305100D02*
X0379497Y0305100D01*
X0378498Y0304101D02*
X0457543Y0304101D01*
X0457543Y0303103D02*
X0377500Y0303103D01*
X0376501Y0302104D02*
X0457543Y0302104D01*
X0457543Y0301105D02*
X0375503Y0301105D01*
X0374504Y0300107D02*
X0457543Y0300107D01*
X0457543Y0299108D02*
X0373506Y0299108D01*
X0372507Y0298110D02*
X0457543Y0298110D01*
X0457543Y0297111D02*
X0371509Y0297111D01*
X0370510Y0296113D02*
X0457543Y0296113D01*
X0466543Y0296113D02*
X0473342Y0296113D01*
X0473342Y0297111D02*
X0466543Y0297111D01*
X0466543Y0298110D02*
X0473342Y0298110D01*
X0473342Y0299108D02*
X0466543Y0299108D01*
X0466543Y0300107D02*
X0473342Y0300107D01*
X0473342Y0301105D02*
X0466543Y0301105D01*
X0466543Y0302104D02*
X0473342Y0302104D01*
X0473342Y0303103D02*
X0466543Y0303103D01*
X0466543Y0304101D02*
X0473342Y0304101D01*
X0473342Y0305100D02*
X0466543Y0305100D01*
X0466543Y0306098D02*
X0473342Y0306098D01*
X0473342Y0307097D02*
X0466543Y0307097D01*
X0466543Y0308095D02*
X0473342Y0308095D01*
X0473342Y0309094D02*
X0466543Y0309094D01*
X0466543Y0310092D02*
X0473342Y0310092D01*
X0473342Y0311091D02*
X0466543Y0311091D01*
X0466543Y0312089D02*
X0473342Y0312089D01*
X0473342Y0313088D02*
X0466543Y0313088D01*
X0466543Y0314086D02*
X0473342Y0314086D01*
X0473342Y0315085D02*
X0466543Y0315085D01*
X0466543Y0316083D02*
X0473342Y0316083D01*
X0473342Y0317082D02*
X0466543Y0317082D01*
X0466543Y0318080D02*
X0473342Y0318080D01*
X0473342Y0319079D02*
X0466543Y0319079D01*
X0466543Y0320077D02*
X0473342Y0320077D01*
X0473342Y0321076D02*
X0466543Y0321076D01*
X0466543Y0322074D02*
X0473342Y0322074D01*
X0473342Y0323073D02*
X0466543Y0323073D01*
X0466543Y0324071D02*
X0473342Y0324071D01*
X0473342Y0325070D02*
X0466543Y0325070D01*
X0466543Y0326068D02*
X0473342Y0326068D01*
X0473342Y0327067D02*
X0466543Y0327067D01*
X0466543Y0328065D02*
X0473342Y0328065D01*
X0473342Y0329064D02*
X0466543Y0329064D01*
X0466543Y0330062D02*
X0473342Y0330062D01*
X0473342Y0331061D02*
X0466543Y0331061D01*
X0466543Y0332059D02*
X0473342Y0332059D01*
X0473342Y0333058D02*
X0466543Y0333058D01*
X0466543Y0334056D02*
X0473342Y0334056D01*
X0473342Y0335055D02*
X0466543Y0335055D01*
X0466543Y0336053D02*
X0473342Y0336053D01*
X0473342Y0337052D02*
X0466543Y0337052D01*
X0466543Y0338050D02*
X0473342Y0338050D01*
X0473342Y0339049D02*
X0466543Y0339049D01*
X0466543Y0340047D02*
X0473342Y0340047D01*
X0473342Y0341046D02*
X0466543Y0341046D01*
X0466543Y0342044D02*
X0472797Y0342044D01*
X0471799Y0343043D02*
X0466543Y0343043D01*
X0466543Y0344041D02*
X0470800Y0344041D01*
X0469802Y0345040D02*
X0466543Y0345040D01*
X0466543Y0346039D02*
X0468803Y0346039D01*
X0467805Y0347037D02*
X0466543Y0347037D01*
X0466543Y0348036D02*
X0466806Y0348036D01*
X0457543Y0334056D02*
X0317249Y0334056D01*
X0317222Y0333058D02*
X0457543Y0333058D01*
X0457543Y0332059D02*
X0316808Y0332059D01*
X0316028Y0331061D02*
X0457543Y0331061D01*
X0466543Y0295114D02*
X0473342Y0295114D01*
X0473342Y0294116D02*
X0466543Y0294116D01*
X0466543Y0293117D02*
X0473342Y0293117D01*
X0473342Y0292119D02*
X0466543Y0292119D01*
X0466543Y0291120D02*
X0473342Y0291120D01*
X0473342Y0290122D02*
X0466543Y0290122D01*
X0466543Y0289123D02*
X0473342Y0289123D01*
X0473342Y0288125D02*
X0466543Y0288125D01*
X0466543Y0287126D02*
X0473342Y0287126D01*
X0473342Y0286128D02*
X0466543Y0286128D01*
X0466543Y0285129D02*
X0473342Y0285129D01*
X0473342Y0284131D02*
X0466543Y0284131D01*
X0466543Y0283132D02*
X0473342Y0283132D01*
X0473342Y0282134D02*
X0466543Y0282134D01*
X0466543Y0281135D02*
X0473342Y0281135D01*
X0473342Y0280137D02*
X0466543Y0280137D01*
X0466543Y0279138D02*
X0473342Y0279138D01*
X0473342Y0278140D02*
X0466543Y0278140D01*
X0466543Y0277141D02*
X0473342Y0277141D01*
X0473342Y0276143D02*
X0466543Y0276143D01*
X0466543Y0275144D02*
X0473342Y0275144D01*
X0473342Y0274146D02*
X0466543Y0274146D01*
X0466543Y0273147D02*
X0473342Y0273147D01*
X0473342Y0272149D02*
X0466543Y0272149D01*
X0466543Y0271150D02*
X0473342Y0271150D01*
X0473342Y0270152D02*
X0466543Y0270152D01*
X0466543Y0269153D02*
X0473342Y0269153D01*
X0473342Y0268155D02*
X0466543Y0268155D01*
X0466543Y0267156D02*
X0473342Y0267156D01*
X0473342Y0266158D02*
X0466543Y0266158D01*
X0466543Y0265159D02*
X0473342Y0265159D01*
X0473342Y0264161D02*
X0466543Y0264161D01*
X0466543Y0263162D02*
X0473342Y0263162D01*
X0473342Y0262164D02*
X0466543Y0262164D01*
X0466543Y0261165D02*
X0473342Y0261165D01*
X0473342Y0260167D02*
X0466543Y0260167D01*
X0466543Y0259168D02*
X0473342Y0259168D01*
X0473342Y0258170D02*
X0466543Y0258170D01*
X0466543Y0257171D02*
X0473342Y0257171D01*
X0473342Y0256172D02*
X0466543Y0256172D01*
X0466543Y0255174D02*
X0473342Y0255174D01*
X0473342Y0254175D02*
X0466543Y0254175D01*
X0466543Y0253177D02*
X0473342Y0253177D01*
X0473342Y0252178D02*
X0466543Y0252178D01*
X0466543Y0251180D02*
X0473342Y0251180D01*
X0473342Y0250181D02*
X0466543Y0250181D01*
X0466543Y0249183D02*
X0473342Y0249183D01*
X0473342Y0248184D02*
X0466543Y0248184D01*
X0466543Y0247186D02*
X0473342Y0247186D01*
X0473342Y0246187D02*
X0466543Y0246187D01*
X0466543Y0245189D02*
X0473342Y0245189D01*
X0473342Y0244190D02*
X0466543Y0244190D01*
X0466543Y0243192D02*
X0473342Y0243192D01*
X0473342Y0242193D02*
X0466543Y0242193D01*
X0466543Y0241195D02*
X0473342Y0241195D01*
X0473342Y0240196D02*
X0466543Y0240196D01*
X0466543Y0239198D02*
X0473342Y0239198D01*
X0473342Y0238199D02*
X0466543Y0238199D01*
X0466543Y0237201D02*
X0473342Y0237201D01*
X0473342Y0236202D02*
X0466543Y0236202D01*
X0466543Y0235204D02*
X0473342Y0235204D01*
X0473342Y0234205D02*
X0466543Y0234205D01*
X0466543Y0233207D02*
X0473342Y0233207D01*
X0473342Y0232208D02*
X0466543Y0232208D01*
X0466543Y0231210D02*
X0473342Y0231210D01*
X0473342Y0230211D02*
X0466543Y0230211D01*
X0466543Y0229213D02*
X0473342Y0229213D01*
X0473342Y0228214D02*
X0466543Y0228214D01*
X0466543Y0227216D02*
X0473342Y0227216D01*
X0473342Y0226217D02*
X0466543Y0226217D01*
X0466543Y0225219D02*
X0473342Y0225219D01*
X0473342Y0224220D02*
X0466543Y0224220D01*
X0466543Y0223222D02*
X0473342Y0223222D01*
X0473342Y0222223D02*
X0466543Y0222223D01*
X0466543Y0221225D02*
X0473342Y0221225D01*
X0473342Y0220226D02*
X0466543Y0220226D01*
X0466543Y0219228D02*
X0473342Y0219228D01*
X0473342Y0218229D02*
X0466543Y0218229D01*
X0466543Y0217231D02*
X0473342Y0217231D01*
X0473342Y0216232D02*
X0466543Y0216232D01*
X0466543Y0215234D02*
X0473342Y0215234D01*
X0473342Y0214235D02*
X0466543Y0214235D01*
X0466543Y0213237D02*
X0473342Y0213237D01*
X0473342Y0212238D02*
X0466543Y0212238D01*
X0466543Y0211239D02*
X0473342Y0211239D01*
X0473342Y0210241D02*
X0466543Y0210241D01*
X0466543Y0209242D02*
X0473342Y0209242D01*
X0473342Y0208244D02*
X0466543Y0208244D01*
X0466543Y0207245D02*
X0473342Y0207245D01*
X0473342Y0206247D02*
X0466543Y0206247D01*
X0466543Y0205248D02*
X0473342Y0205248D01*
X0473342Y0204250D02*
X0466543Y0204250D01*
X0466543Y0203251D02*
X0473342Y0203251D01*
X0473342Y0202253D02*
X0466543Y0202253D01*
X0466543Y0201254D02*
X0473342Y0201254D01*
X0473342Y0200256D02*
X0466543Y0200256D01*
X0466543Y0199257D02*
X0473342Y0199257D01*
X0473342Y0198259D02*
X0466543Y0198259D01*
X0466543Y0197260D02*
X0473342Y0197260D01*
X0473342Y0196262D02*
X0466543Y0196262D01*
X0466543Y0195263D02*
X0473342Y0195263D01*
X0473342Y0194265D02*
X0466543Y0194265D01*
X0466543Y0193266D02*
X0473342Y0193266D01*
X0473342Y0192268D02*
X0466543Y0192268D01*
X0466543Y0191269D02*
X0473342Y0191269D01*
X0473342Y0190271D02*
X0466543Y0190271D01*
X0466543Y0189272D02*
X0473342Y0189272D01*
X0473342Y0188274D02*
X0466543Y0188274D01*
X0466543Y0187275D02*
X0473342Y0187275D01*
X0473342Y0186277D02*
X0466543Y0186277D01*
X0466543Y0185278D02*
X0473342Y0185278D01*
X0473342Y0184280D02*
X0466543Y0184280D01*
X0466543Y0183281D02*
X0473342Y0183281D01*
X0473342Y0182283D02*
X0466543Y0182283D01*
X0466543Y0181284D02*
X0473342Y0181284D01*
X0473342Y0180286D02*
X0466543Y0180286D01*
X0466543Y0179287D02*
X0473342Y0179287D01*
X0473342Y0178289D02*
X0466543Y0178289D01*
X0466543Y0177290D02*
X0473342Y0177290D01*
X0473342Y0176292D02*
X0466543Y0176292D01*
X0466543Y0175293D02*
X0473342Y0175293D01*
X0473342Y0174295D02*
X0466543Y0174295D01*
X0466543Y0173296D02*
X0473342Y0173296D01*
X0473342Y0172298D02*
X0466543Y0172298D01*
X0466543Y0171299D02*
X0473342Y0171299D01*
X0473342Y0170301D02*
X0466543Y0170301D01*
X0466543Y0169302D02*
X0473342Y0169302D01*
X0473342Y0168303D02*
X0466543Y0168303D01*
X0466543Y0167305D02*
X0473342Y0167305D01*
X0473342Y0166306D02*
X0466543Y0166306D01*
X0466543Y0165308D02*
X0473342Y0165308D01*
X0473342Y0164309D02*
X0466543Y0164309D01*
X0466543Y0163311D02*
X0473342Y0163311D01*
X0473342Y0162312D02*
X0466543Y0162312D01*
X0466543Y0161314D02*
X0473342Y0161314D01*
X0473342Y0160315D02*
X0466543Y0160315D01*
X0466543Y0159317D02*
X0473342Y0159317D01*
X0473342Y0158318D02*
X0466543Y0158318D01*
X0466543Y0157320D02*
X0473342Y0157320D01*
X0473342Y0156321D02*
X0466543Y0156321D01*
X0466543Y0155323D02*
X0473342Y0155323D01*
X0473342Y0154324D02*
X0466543Y0154324D01*
X0466543Y0153326D02*
X0473342Y0153326D01*
X0473342Y0152327D02*
X0466543Y0152327D01*
X0466543Y0151329D02*
X0473342Y0151329D01*
X0473342Y0150330D02*
X0466543Y0150330D01*
X0466543Y0149332D02*
X0473342Y0149332D01*
X0473342Y0148333D02*
X0466543Y0148333D01*
X0466543Y0147335D02*
X0473342Y0147335D01*
X0473342Y0146336D02*
X0466543Y0146336D01*
X0466543Y0145338D02*
X0473342Y0145338D01*
X0473342Y0144339D02*
X0466543Y0144339D01*
X0466543Y0143341D02*
X0473342Y0143341D01*
X0473342Y0142342D02*
X0466543Y0142342D01*
X0466543Y0141344D02*
X0473342Y0141344D01*
X0473342Y0140345D02*
X0466543Y0140345D01*
X0466543Y0139347D02*
X0473342Y0139347D01*
X0473342Y0138348D02*
X0466543Y0138348D01*
X0466543Y0137350D02*
X0473342Y0137350D01*
X0473342Y0136351D02*
X0466543Y0136351D01*
X0466543Y0135353D02*
X0473342Y0135353D01*
X0473342Y0134354D02*
X0466543Y0134354D01*
X0466543Y0133356D02*
X0473342Y0133356D01*
X0473342Y0132357D02*
X0466543Y0132357D01*
X0466543Y0131359D02*
X0473342Y0131359D01*
X0473342Y0130360D02*
X0466543Y0130360D01*
X0466543Y0129362D02*
X0473342Y0129362D01*
X0473342Y0128363D02*
X0466543Y0128363D01*
X0466543Y0127365D02*
X0473342Y0127365D01*
X0473342Y0126366D02*
X0466543Y0126366D01*
X0466543Y0125368D02*
X0473342Y0125368D01*
X0473342Y0124369D02*
X0466543Y0124369D01*
X0466543Y0123370D02*
X0473342Y0123370D01*
X0473342Y0122372D02*
X0466543Y0122372D01*
X0466543Y0121373D02*
X0473342Y0121373D01*
X0473342Y0120375D02*
X0466543Y0120375D01*
X0466543Y0119376D02*
X0473342Y0119376D01*
X0473342Y0118378D02*
X0466543Y0118378D01*
X0466543Y0117379D02*
X0473342Y0117379D01*
X0473342Y0116381D02*
X0466543Y0116381D01*
X0466543Y0115382D02*
X0473342Y0115382D01*
X0473342Y0114384D02*
X0466543Y0114384D01*
X0466543Y0113385D02*
X0473342Y0113385D01*
X0473342Y0112387D02*
X0466543Y0112387D01*
X0466543Y0111388D02*
X0473342Y0111388D01*
X0473342Y0110390D02*
X0466543Y0110390D01*
X0466543Y0109391D02*
X0473342Y0109391D01*
X0473342Y0108393D02*
X0466543Y0108393D01*
X0466543Y0107394D02*
X0473342Y0107394D01*
X0473342Y0106396D02*
X0466543Y0106396D01*
X0466543Y0105397D02*
X0473342Y0105397D01*
X0473342Y0104399D02*
X0466543Y0104399D01*
X0466543Y0103400D02*
X0473342Y0103400D01*
X0473342Y0102402D02*
X0466543Y0102402D01*
X0466543Y0101403D02*
X0473342Y0101403D01*
X0473342Y0100405D02*
X0466543Y0100405D01*
X0466543Y0099406D02*
X0473342Y0099406D01*
X0473342Y0098408D02*
X0466543Y0098408D01*
X0466543Y0097409D02*
X0473342Y0097409D01*
X0473342Y0096411D02*
X0466543Y0096411D01*
X0466543Y0095412D02*
X0473342Y0095412D01*
X0473342Y0094414D02*
X0466543Y0094414D01*
X0466543Y0093415D02*
X0473342Y0093415D01*
X0473342Y0092417D02*
X0466543Y0092417D01*
X0466543Y0091418D02*
X0473342Y0091418D01*
X0473342Y0090420D02*
X0466543Y0090420D01*
X0466543Y0089421D02*
X0473342Y0089421D01*
X0473342Y0088423D02*
X0466543Y0088423D01*
X0466543Y0087424D02*
X0473342Y0087424D01*
X0473342Y0086426D02*
X0466543Y0086426D01*
X0466543Y0085427D02*
X0473342Y0085427D01*
X0473342Y0084429D02*
X0466543Y0084429D01*
X0466543Y0083430D02*
X0473342Y0083430D01*
X0473342Y0082432D02*
X0466543Y0082432D01*
X0466543Y0081433D02*
X0473342Y0081433D01*
X0473342Y0080434D02*
X0466543Y0080434D01*
X0466543Y0079436D02*
X0473342Y0079436D01*
X0473342Y0078437D02*
X0466543Y0078437D01*
X0466543Y0077439D02*
X0473342Y0077439D01*
X0473342Y0076440D02*
X0466543Y0076440D01*
X0466543Y0075442D02*
X0473342Y0075442D01*
X0473342Y0074443D02*
X0466543Y0074443D01*
X0466543Y0073445D02*
X0473342Y0073445D01*
X0473342Y0072446D02*
X0466543Y0072446D01*
X0466543Y0071448D02*
X0473342Y0071448D01*
X0473342Y0070449D02*
X0466543Y0070449D01*
X0466543Y0069451D02*
X0473342Y0069451D01*
X0473342Y0068452D02*
X0466543Y0068452D01*
X0466543Y0067454D02*
X0473342Y0067454D01*
X0473342Y0066455D02*
X0466543Y0066455D01*
X0466543Y0065457D02*
X0473342Y0065457D01*
X0473342Y0064458D02*
X0466543Y0064458D01*
X0466543Y0063460D02*
X0473342Y0063460D01*
X0473342Y0062461D02*
X0466543Y0062461D01*
X0466543Y0061463D02*
X0473342Y0061463D01*
X0473342Y0060464D02*
X0466543Y0060464D01*
X0466543Y0059466D02*
X0473342Y0059466D01*
X0473342Y0058467D02*
X0466543Y0058467D01*
X0466543Y0057469D02*
X0473342Y0057469D01*
X0473342Y0056470D02*
X0466543Y0056470D01*
X0466543Y0055472D02*
X0473342Y0055472D01*
X0473342Y0054473D02*
X0466543Y0054473D01*
X0466543Y0053475D02*
X0473342Y0053475D01*
X0473342Y0052476D02*
X0466543Y0052476D01*
X0466543Y0051478D02*
X0473342Y0051478D01*
X0473342Y0050479D02*
X0466543Y0050479D01*
X0466543Y0049481D02*
X0473342Y0049481D01*
X0473342Y0048482D02*
X0466543Y0048482D01*
X0466543Y0047484D02*
X0473342Y0047484D01*
X0473342Y0046485D02*
X0466543Y0046485D01*
X0466543Y0045487D02*
X0473342Y0045487D01*
X0473342Y0044488D02*
X0466543Y0044488D01*
X0466543Y0043490D02*
X0473342Y0043490D01*
X0473342Y0042491D02*
X0466543Y0042491D01*
X0466543Y0041493D02*
X0473342Y0041493D01*
X0473342Y0040494D02*
X0466543Y0040494D01*
X0466543Y0039496D02*
X0473342Y0039496D01*
X0473342Y0038497D02*
X0466543Y0038497D01*
X0466543Y0037499D02*
X0473342Y0037499D01*
X0473342Y0036500D02*
X0466543Y0036500D01*
X0466500Y0035501D02*
X0473342Y0035501D01*
X0473342Y0034503D02*
X0466086Y0034503D01*
X0465411Y0033504D02*
X0473342Y0033504D01*
X0473342Y0032506D02*
X0464159Y0032506D01*
X0467358Y0025516D02*
X0054325Y0025516D01*
X0055324Y0024518D02*
X0466360Y0024518D01*
X0465361Y0023519D02*
X0056322Y0023519D01*
X0057321Y0022521D02*
X0464363Y0022521D01*
X0463364Y0021522D02*
X0058319Y0021522D01*
X0072842Y0041493D02*
X0457543Y0041493D01*
X0457543Y0042491D02*
X0311566Y0042491D01*
X0310607Y0041531D02*
X0313810Y0044735D01*
X0313810Y0049265D01*
X0310607Y0052468D01*
X0306077Y0052468D01*
X0302873Y0049265D01*
X0302873Y0044735D01*
X0306077Y0041531D01*
X0310607Y0041531D01*
X0312565Y0043490D02*
X0457543Y0043490D01*
X0457543Y0044488D02*
X0313564Y0044488D01*
X0313810Y0045487D02*
X0457543Y0045487D01*
X0457543Y0046485D02*
X0313810Y0046485D01*
X0313810Y0047484D02*
X0457543Y0047484D01*
X0457543Y0048482D02*
X0313810Y0048482D01*
X0313595Y0049481D02*
X0457543Y0049481D01*
X0457543Y0050479D02*
X0312596Y0050479D01*
X0311598Y0051478D02*
X0457543Y0051478D01*
X0457543Y0052476D02*
X0072842Y0052476D01*
X0072842Y0051478D02*
X0305086Y0051478D01*
X0304087Y0050479D02*
X0072842Y0050479D01*
X0072842Y0049481D02*
X0303089Y0049481D01*
X0302873Y0048482D02*
X0072842Y0048482D01*
X0072842Y0047484D02*
X0302873Y0047484D01*
X0302873Y0046485D02*
X0072842Y0046485D01*
X0072842Y0045487D02*
X0302873Y0045487D01*
X0303120Y0044488D02*
X0072842Y0044488D01*
X0072842Y0043490D02*
X0304119Y0043490D01*
X0305117Y0042491D02*
X0072842Y0042491D01*
X0072842Y0053475D02*
X0375065Y0053475D01*
X0376618Y0052831D02*
X0380066Y0052831D01*
X0383252Y0054151D01*
X0385691Y0056590D01*
X0387010Y0059776D01*
X0387010Y0063224D01*
X0385691Y0066410D01*
X0383252Y0068849D01*
X0380066Y0070168D01*
X0376618Y0070168D01*
X0373431Y0068849D01*
X0370993Y0066410D01*
X0369673Y0063224D01*
X0369673Y0059776D01*
X0370993Y0056590D01*
X0373431Y0054151D01*
X0376618Y0052831D01*
X0373109Y0054473D02*
X0072842Y0054473D01*
X0072842Y0055472D02*
X0121879Y0055472D01*
X0121749Y0055602D02*
X0122444Y0054907D01*
X0123351Y0054531D01*
X0133333Y0054531D01*
X0134240Y0054907D01*
X0134934Y0055602D01*
X0135310Y0056509D01*
X0135310Y0066491D01*
X0134934Y0067398D01*
X0134240Y0068093D01*
X0133333Y0068468D01*
X0123351Y0068468D01*
X0122444Y0068093D01*
X0121749Y0067398D01*
X0121373Y0066491D01*
X0121373Y0056509D01*
X0121749Y0055602D01*
X0121389Y0056470D02*
X0072842Y0056470D01*
X0072842Y0057469D02*
X0121373Y0057469D01*
X0121373Y0058467D02*
X0072842Y0058467D01*
X0072842Y0059466D02*
X0121373Y0059466D01*
X0121373Y0060464D02*
X0072842Y0060464D01*
X0072842Y0061463D02*
X0121373Y0061463D01*
X0121373Y0062461D02*
X0072842Y0062461D01*
X0072842Y0063460D02*
X0121373Y0063460D01*
X0121373Y0064458D02*
X0072842Y0064458D01*
X0072842Y0065457D02*
X0121373Y0065457D01*
X0121373Y0066455D02*
X0072842Y0066455D01*
X0072842Y0067454D02*
X0121805Y0067454D01*
X0123312Y0068452D02*
X0072842Y0068452D01*
X0072842Y0069451D02*
X0374885Y0069451D01*
X0373035Y0068452D02*
X0193372Y0068452D01*
X0193333Y0068468D02*
X0183351Y0068468D01*
X0182444Y0068093D01*
X0181749Y0067398D01*
X0181373Y0066491D01*
X0181373Y0056509D01*
X0181749Y0055602D01*
X0182444Y0054907D01*
X0183351Y0054531D01*
X0193333Y0054531D01*
X0194240Y0054907D01*
X0194934Y0055602D01*
X0195310Y0056509D01*
X0195310Y0066491D01*
X0194934Y0067398D01*
X0194240Y0068093D01*
X0193333Y0068468D01*
X0194879Y0067454D02*
X0372037Y0067454D01*
X0371038Y0066455D02*
X0195310Y0066455D01*
X0195310Y0065457D02*
X0370598Y0065457D01*
X0370184Y0064458D02*
X0195310Y0064458D01*
X0195310Y0063460D02*
X0369771Y0063460D01*
X0369673Y0062461D02*
X0195310Y0062461D01*
X0195310Y0061463D02*
X0369673Y0061463D01*
X0369673Y0060464D02*
X0195310Y0060464D01*
X0195310Y0059466D02*
X0369802Y0059466D01*
X0370215Y0058467D02*
X0195310Y0058467D01*
X0195310Y0057469D02*
X0370629Y0057469D01*
X0371112Y0056470D02*
X0195294Y0056470D01*
X0194805Y0055472D02*
X0372111Y0055472D01*
X0381619Y0053475D02*
X0457543Y0053475D01*
X0457543Y0054473D02*
X0383574Y0054473D01*
X0384573Y0055472D02*
X0457543Y0055472D01*
X0457543Y0056470D02*
X0385571Y0056470D01*
X0386055Y0057469D02*
X0457543Y0057469D01*
X0457543Y0058467D02*
X0386468Y0058467D01*
X0386882Y0059466D02*
X0457543Y0059466D01*
X0457543Y0060464D02*
X0387010Y0060464D01*
X0387010Y0061463D02*
X0457543Y0061463D01*
X0457543Y0062461D02*
X0387010Y0062461D01*
X0386913Y0063460D02*
X0457543Y0063460D01*
X0457543Y0064458D02*
X0386499Y0064458D01*
X0386086Y0065457D02*
X0457543Y0065457D01*
X0457543Y0066455D02*
X0385646Y0066455D01*
X0384647Y0067454D02*
X0457543Y0067454D01*
X0457543Y0068452D02*
X0383649Y0068452D01*
X0381799Y0069451D02*
X0457543Y0069451D01*
X0457543Y0070449D02*
X0072842Y0070449D01*
X0072842Y0071448D02*
X0457543Y0071448D01*
X0457543Y0072446D02*
X0072842Y0072446D01*
X0072842Y0073445D02*
X0457543Y0073445D01*
X0457543Y0074443D02*
X0072842Y0074443D01*
X0072842Y0075442D02*
X0457543Y0075442D01*
X0457543Y0076440D02*
X0072842Y0076440D01*
X0072842Y0077439D02*
X0457543Y0077439D01*
X0457543Y0078437D02*
X0072842Y0078437D01*
X0072842Y0079436D02*
X0457543Y0079436D01*
X0457543Y0080434D02*
X0072842Y0080434D01*
X0072842Y0081433D02*
X0457543Y0081433D01*
X0457543Y0082432D02*
X0072842Y0082432D01*
X0072842Y0083430D02*
X0374153Y0083430D01*
X0374751Y0082831D02*
X0369801Y0087781D01*
X0322102Y0087781D01*
X0320735Y0088348D01*
X0319689Y0089394D01*
X0308552Y0100531D01*
X0306077Y0100531D01*
X0302873Y0103735D01*
X0302873Y0106210D01*
X0291302Y0117781D01*
X0104882Y0117781D01*
X0103556Y0116455D01*
X0104390Y0116109D01*
X0105920Y0114580D01*
X0106747Y0112581D01*
X0106747Y0110419D01*
X0105920Y0108420D01*
X0104390Y0106891D01*
X0102392Y0106063D01*
X0094292Y0106063D01*
X0092293Y0106891D01*
X0090764Y0108420D01*
X0089936Y0110419D01*
X0089936Y0112581D01*
X0090764Y0114580D01*
X0092293Y0116109D01*
X0094292Y0116937D01*
X0094623Y0116937D01*
X0094623Y0117240D01*
X0095189Y0118606D01*
X0100189Y0123606D01*
X0101235Y0124652D01*
X0102602Y0125218D01*
X0293581Y0125218D01*
X0294948Y0124652D01*
X0308132Y0111468D01*
X0310607Y0111468D01*
X0313810Y0108265D01*
X0313810Y0105790D01*
X0324382Y0095218D01*
X0369801Y0095218D01*
X0374751Y0100168D01*
X0381932Y0100168D01*
X0387010Y0095091D01*
X0387010Y0087909D01*
X0381932Y0082831D01*
X0374751Y0082831D01*
X0373154Y0084429D02*
X0072842Y0084429D01*
X0072842Y0085427D02*
X0372156Y0085427D01*
X0371157Y0086426D02*
X0103267Y0086426D01*
X0102392Y0086063D02*
X0104390Y0086891D01*
X0105920Y0088420D01*
X0106747Y0090419D01*
X0106747Y0092581D01*
X0105920Y0094580D01*
X0104390Y0096109D01*
X0102392Y0096937D01*
X0094292Y0096937D01*
X0092293Y0096109D01*
X0090764Y0094580D01*
X0089936Y0092581D01*
X0089936Y0090419D01*
X0090764Y0088420D01*
X0092293Y0086891D01*
X0094292Y0086063D01*
X0102392Y0086063D01*
X0104923Y0087424D02*
X0370159Y0087424D01*
X0369995Y0095412D02*
X0324188Y0095412D01*
X0323190Y0096411D02*
X0370993Y0096411D01*
X0371992Y0097409D02*
X0322191Y0097409D01*
X0321193Y0098408D02*
X0372990Y0098408D01*
X0373989Y0099406D02*
X0320194Y0099406D01*
X0319196Y0100405D02*
X0457543Y0100405D01*
X0457543Y0101403D02*
X0318197Y0101403D01*
X0317199Y0102402D02*
X0457543Y0102402D01*
X0457543Y0103400D02*
X0316200Y0103400D01*
X0315202Y0104399D02*
X0457543Y0104399D01*
X0457543Y0105397D02*
X0314203Y0105397D01*
X0313810Y0106396D02*
X0457543Y0106396D01*
X0457543Y0107394D02*
X0313810Y0107394D01*
X0313683Y0108393D02*
X0457543Y0108393D01*
X0457543Y0109391D02*
X0312684Y0109391D01*
X0311686Y0110390D02*
X0457543Y0110390D01*
X0457543Y0111388D02*
X0310687Y0111388D01*
X0307214Y0112387D02*
X0457543Y0112387D01*
X0457543Y0113385D02*
X0306215Y0113385D01*
X0305217Y0114384D02*
X0457543Y0114384D01*
X0457543Y0115382D02*
X0304218Y0115382D01*
X0303220Y0116381D02*
X0457543Y0116381D01*
X0457543Y0117379D02*
X0302221Y0117379D01*
X0301223Y0118378D02*
X0457543Y0118378D01*
X0457543Y0119376D02*
X0300224Y0119376D01*
X0299226Y0120375D02*
X0457543Y0120375D01*
X0457543Y0121373D02*
X0298227Y0121373D01*
X0297229Y0122372D02*
X0457543Y0122372D01*
X0457543Y0123370D02*
X0296230Y0123370D01*
X0295232Y0124369D02*
X0457543Y0124369D01*
X0457543Y0125368D02*
X0072842Y0125368D01*
X0072842Y0126366D02*
X0457543Y0126366D01*
X0457543Y0127365D02*
X0072842Y0127365D01*
X0072842Y0128363D02*
X0457543Y0128363D01*
X0457543Y0129362D02*
X0072842Y0129362D01*
X0072842Y0130360D02*
X0457543Y0130360D01*
X0457543Y0131359D02*
X0072842Y0131359D01*
X0072842Y0132357D02*
X0457543Y0132357D01*
X0457543Y0133356D02*
X0072842Y0133356D01*
X0072842Y0134354D02*
X0457543Y0134354D01*
X0457543Y0135353D02*
X0072842Y0135353D01*
X0072842Y0136351D02*
X0457543Y0136351D01*
X0457543Y0137350D02*
X0072842Y0137350D01*
X0072842Y0138348D02*
X0457543Y0138348D01*
X0457543Y0139347D02*
X0072842Y0139347D01*
X0072842Y0140345D02*
X0353948Y0140345D01*
X0355218Y0139819D02*
X0352502Y0140944D01*
X0350424Y0143023D01*
X0350153Y0143676D01*
X0348405Y0141929D01*
X0346116Y0140980D01*
X0343638Y0140980D01*
X0341349Y0141929D01*
X0339597Y0143681D01*
X0338972Y0145190D01*
X0338346Y0143681D01*
X0336594Y0141929D01*
X0334305Y0140980D01*
X0331827Y0140980D01*
X0329538Y0141929D01*
X0327786Y0143681D01*
X0326838Y0145970D01*
X0326838Y0148448D01*
X0327786Y0150737D01*
X0329538Y0152489D01*
X0331827Y0153437D01*
X0334305Y0153437D01*
X0336594Y0152489D01*
X0338346Y0150737D01*
X0338972Y0149227D01*
X0339597Y0150737D01*
X0341349Y0152489D01*
X0343638Y0153437D01*
X0346116Y0153437D01*
X0348405Y0152489D01*
X0350153Y0150741D01*
X0350424Y0151395D01*
X0352502Y0153473D01*
X0355218Y0154598D01*
X0358158Y0154598D01*
X0360874Y0153473D01*
X0362953Y0151395D01*
X0363224Y0150741D01*
X0364971Y0152489D01*
X0367260Y0153437D01*
X0369738Y0153437D01*
X0372027Y0152489D01*
X0373779Y0150737D01*
X0374728Y0148448D01*
X0374728Y0145970D01*
X0373779Y0143681D01*
X0372027Y0141929D01*
X0369738Y0140980D01*
X0367260Y0140980D01*
X0364971Y0141929D01*
X0363224Y0143676D01*
X0362953Y0143023D01*
X0360874Y0140944D01*
X0358158Y0139819D01*
X0355218Y0139819D01*
X0352103Y0141344D02*
X0346993Y0141344D01*
X0348819Y0142342D02*
X0351104Y0142342D01*
X0350292Y0143341D02*
X0349817Y0143341D01*
X0342761Y0141344D02*
X0335182Y0141344D01*
X0337008Y0142342D02*
X0340935Y0142342D01*
X0339937Y0143341D02*
X0338006Y0143341D01*
X0338619Y0144339D02*
X0339324Y0144339D01*
X0339015Y0149332D02*
X0338928Y0149332D01*
X0338515Y0150330D02*
X0339429Y0150330D01*
X0340189Y0151329D02*
X0337754Y0151329D01*
X0336756Y0152327D02*
X0341188Y0152327D01*
X0343370Y0153326D02*
X0334573Y0153326D01*
X0331559Y0153326D02*
X0072842Y0153326D01*
X0072842Y0154324D02*
X0354557Y0154324D01*
X0352355Y0153326D02*
X0346385Y0153326D01*
X0348567Y0152327D02*
X0351356Y0152327D01*
X0350396Y0151329D02*
X0349565Y0151329D01*
X0358820Y0154324D02*
X0386053Y0154324D01*
X0386714Y0154598D02*
X0383998Y0153473D01*
X0381920Y0151395D01*
X0380795Y0148679D01*
X0380795Y0145739D01*
X0381920Y0143023D01*
X0383998Y0140944D01*
X0386714Y0139819D01*
X0389654Y0139819D01*
X0392370Y0140944D01*
X0394449Y0143023D01*
X0395574Y0145739D01*
X0395574Y0148679D01*
X0394449Y0151395D01*
X0392370Y0153473D01*
X0389654Y0154598D01*
X0386714Y0154598D01*
X0383851Y0153326D02*
X0370007Y0153326D01*
X0372189Y0152327D02*
X0382852Y0152327D01*
X0381892Y0151329D02*
X0373187Y0151329D01*
X0373948Y0150330D02*
X0381479Y0150330D01*
X0381065Y0149332D02*
X0374361Y0149332D01*
X0374728Y0148333D02*
X0380795Y0148333D01*
X0380795Y0147335D02*
X0374728Y0147335D01*
X0374728Y0146336D02*
X0380795Y0146336D01*
X0380961Y0145338D02*
X0374466Y0145338D01*
X0374052Y0144339D02*
X0381374Y0144339D01*
X0381788Y0143341D02*
X0373440Y0143341D01*
X0372441Y0142342D02*
X0382600Y0142342D01*
X0383599Y0141344D02*
X0370615Y0141344D01*
X0366383Y0141344D02*
X0361274Y0141344D01*
X0362273Y0142342D02*
X0364558Y0142342D01*
X0363559Y0143341D02*
X0363085Y0143341D01*
X0359429Y0140345D02*
X0385444Y0140345D01*
X0390925Y0140345D02*
X0457543Y0140345D01*
X0457543Y0141344D02*
X0421797Y0141344D01*
X0420919Y0140980D02*
X0423208Y0141929D01*
X0424961Y0143681D01*
X0425909Y0145970D01*
X0425909Y0148448D01*
X0424961Y0150737D01*
X0423208Y0152489D01*
X0420919Y0153437D01*
X0418441Y0153437D01*
X0416152Y0152489D01*
X0414400Y0150737D01*
X0413452Y0148448D01*
X0413452Y0145970D01*
X0414400Y0143681D01*
X0416152Y0141929D01*
X0418441Y0140980D01*
X0420919Y0140980D01*
X0423622Y0142342D02*
X0457543Y0142342D01*
X0457543Y0143341D02*
X0424621Y0143341D01*
X0425233Y0144339D02*
X0457543Y0144339D01*
X0457543Y0145338D02*
X0425647Y0145338D01*
X0425909Y0146336D02*
X0457543Y0146336D01*
X0457543Y0147335D02*
X0425909Y0147335D01*
X0425909Y0148333D02*
X0457543Y0148333D01*
X0457543Y0149332D02*
X0425542Y0149332D01*
X0425129Y0150330D02*
X0457543Y0150330D01*
X0457543Y0151329D02*
X0424368Y0151329D01*
X0423370Y0152327D02*
X0457543Y0152327D01*
X0457543Y0153326D02*
X0421188Y0153326D01*
X0418173Y0153326D02*
X0392518Y0153326D01*
X0393516Y0152327D02*
X0415991Y0152327D01*
X0414992Y0151329D02*
X0394476Y0151329D01*
X0394890Y0150330D02*
X0414232Y0150330D01*
X0413818Y0149332D02*
X0395304Y0149332D01*
X0395574Y0148333D02*
X0413452Y0148333D01*
X0413452Y0147335D02*
X0395574Y0147335D01*
X0395574Y0146336D02*
X0413452Y0146336D01*
X0413714Y0145338D02*
X0395408Y0145338D01*
X0394994Y0144339D02*
X0414127Y0144339D01*
X0414740Y0143341D02*
X0394581Y0143341D01*
X0393769Y0142342D02*
X0415739Y0142342D01*
X0417564Y0141344D02*
X0392770Y0141344D01*
X0390316Y0154324D02*
X0457543Y0154324D01*
X0457543Y0155323D02*
X0072842Y0155323D01*
X0072842Y0156321D02*
X0457543Y0156321D01*
X0457543Y0157320D02*
X0072842Y0157320D01*
X0072842Y0158318D02*
X0457543Y0158318D01*
X0457543Y0159317D02*
X0072842Y0159317D01*
X0072842Y0160315D02*
X0457543Y0160315D01*
X0457543Y0161314D02*
X0072842Y0161314D01*
X0072842Y0162312D02*
X0457543Y0162312D01*
X0457543Y0163311D02*
X0072842Y0163311D01*
X0072842Y0164309D02*
X0457543Y0164309D01*
X0457543Y0165308D02*
X0072842Y0165308D01*
X0072842Y0166306D02*
X0457543Y0166306D01*
X0457543Y0167305D02*
X0072842Y0167305D01*
X0072842Y0168303D02*
X0457543Y0168303D01*
X0457543Y0169302D02*
X0072842Y0169302D01*
X0072842Y0170301D02*
X0457543Y0170301D01*
X0457543Y0171299D02*
X0072842Y0171299D01*
X0072842Y0172298D02*
X0457543Y0172298D01*
X0457543Y0173296D02*
X0072842Y0173296D01*
X0072842Y0174295D02*
X0457543Y0174295D01*
X0457543Y0175293D02*
X0072842Y0175293D01*
X0072842Y0176292D02*
X0457543Y0176292D01*
X0457543Y0177290D02*
X0072842Y0177290D01*
X0072842Y0178289D02*
X0457543Y0178289D01*
X0457543Y0179287D02*
X0072842Y0179287D01*
X0072842Y0180286D02*
X0457543Y0180286D01*
X0457543Y0181284D02*
X0072842Y0181284D01*
X0072842Y0182283D02*
X0457543Y0182283D01*
X0457543Y0183281D02*
X0072842Y0183281D01*
X0072842Y0184280D02*
X0457543Y0184280D01*
X0457543Y0185278D02*
X0072842Y0185278D01*
X0072842Y0186277D02*
X0457543Y0186277D01*
X0457543Y0187275D02*
X0072842Y0187275D01*
X0072842Y0188274D02*
X0457543Y0188274D01*
X0457543Y0189272D02*
X0072842Y0189272D01*
X0072842Y0190271D02*
X0457543Y0190271D01*
X0457543Y0191269D02*
X0072842Y0191269D01*
X0072842Y0192268D02*
X0457543Y0192268D01*
X0457543Y0193266D02*
X0072842Y0193266D01*
X0072842Y0194265D02*
X0457543Y0194265D01*
X0457543Y0195263D02*
X0072842Y0195263D01*
X0072842Y0196262D02*
X0457543Y0196262D01*
X0457543Y0197260D02*
X0072842Y0197260D01*
X0072842Y0198259D02*
X0457543Y0198259D01*
X0457543Y0199257D02*
X0072842Y0199257D01*
X0072842Y0200256D02*
X0457543Y0200256D01*
X0457543Y0201254D02*
X0072842Y0201254D01*
X0072842Y0202253D02*
X0457543Y0202253D01*
X0457543Y0203251D02*
X0072842Y0203251D01*
X0072842Y0204250D02*
X0457543Y0204250D01*
X0457543Y0205248D02*
X0072842Y0205248D01*
X0072842Y0206247D02*
X0457543Y0206247D01*
X0457543Y0207245D02*
X0072842Y0207245D01*
X0072842Y0208244D02*
X0457543Y0208244D01*
X0457543Y0209242D02*
X0072842Y0209242D01*
X0072842Y0210241D02*
X0457543Y0210241D01*
X0457543Y0211239D02*
X0072842Y0211239D01*
X0072842Y0212238D02*
X0457543Y0212238D01*
X0457543Y0213237D02*
X0072842Y0213237D01*
X0072842Y0214235D02*
X0457543Y0214235D01*
X0457543Y0215234D02*
X0072842Y0215234D01*
X0072842Y0216232D02*
X0457543Y0216232D01*
X0457543Y0217231D02*
X0072842Y0217231D01*
X0072842Y0218229D02*
X0457543Y0218229D01*
X0457543Y0219228D02*
X0072842Y0219228D01*
X0072842Y0220226D02*
X0457543Y0220226D01*
X0457543Y0221225D02*
X0072842Y0221225D01*
X0072842Y0222223D02*
X0457543Y0222223D01*
X0457543Y0223222D02*
X0072842Y0223222D01*
X0072842Y0224220D02*
X0457543Y0224220D01*
X0457543Y0225219D02*
X0072842Y0225219D01*
X0072842Y0226217D02*
X0457543Y0226217D01*
X0457543Y0227216D02*
X0072842Y0227216D01*
X0072842Y0228214D02*
X0457543Y0228214D01*
X0457543Y0229213D02*
X0072842Y0229213D01*
X0072842Y0230211D02*
X0457543Y0230211D01*
X0457543Y0231210D02*
X0072842Y0231210D01*
X0072842Y0232208D02*
X0457543Y0232208D01*
X0457543Y0233207D02*
X0072842Y0233207D01*
X0072842Y0234205D02*
X0457543Y0234205D01*
X0457543Y0235204D02*
X0450044Y0235204D01*
X0449628Y0235031D02*
X0452006Y0236016D01*
X0453826Y0237836D01*
X0454810Y0240213D01*
X0454810Y0242787D01*
X0453826Y0245164D01*
X0452006Y0246984D01*
X0449628Y0247968D01*
X0447055Y0247968D01*
X0444678Y0246984D01*
X0442858Y0245164D01*
X0441873Y0242787D01*
X0441873Y0240213D01*
X0442858Y0237836D01*
X0444678Y0236016D01*
X0447055Y0235031D01*
X0449628Y0235031D01*
X0452192Y0236202D02*
X0457543Y0236202D01*
X0457543Y0237201D02*
X0453190Y0237201D01*
X0453976Y0238199D02*
X0457543Y0238199D01*
X0457543Y0239198D02*
X0454390Y0239198D01*
X0454803Y0240196D02*
X0457543Y0240196D01*
X0457543Y0241195D02*
X0454810Y0241195D01*
X0454810Y0242193D02*
X0457543Y0242193D01*
X0457543Y0243192D02*
X0454642Y0243192D01*
X0454229Y0244190D02*
X0457543Y0244190D01*
X0457543Y0245189D02*
X0453801Y0245189D01*
X0452802Y0246187D02*
X0457543Y0246187D01*
X0457543Y0247186D02*
X0451518Y0247186D01*
X0457543Y0248184D02*
X0072842Y0248184D01*
X0072842Y0247186D02*
X0075166Y0247186D01*
X0073881Y0246187D02*
X0072842Y0246187D01*
X0072842Y0245189D02*
X0072883Y0245189D01*
X0072842Y0249183D02*
X0457543Y0249183D01*
X0457543Y0250181D02*
X0072842Y0250181D01*
X0072842Y0251180D02*
X0457543Y0251180D01*
X0457543Y0252178D02*
X0072842Y0252178D01*
X0072842Y0253177D02*
X0457543Y0253177D01*
X0457543Y0254175D02*
X0072842Y0254175D01*
X0072842Y0255174D02*
X0457543Y0255174D01*
X0457543Y0256172D02*
X0072842Y0256172D01*
X0072842Y0257171D02*
X0457543Y0257171D01*
X0457543Y0258170D02*
X0135537Y0258170D01*
X0134960Y0257593D02*
X0137249Y0259882D01*
X0137249Y0263118D01*
X0134960Y0265407D01*
X0131723Y0265407D01*
X0129435Y0263118D01*
X0129435Y0259882D01*
X0131723Y0257593D01*
X0134960Y0257593D01*
X0136535Y0259168D02*
X0457543Y0259168D01*
X0457543Y0260167D02*
X0137249Y0260167D01*
X0137249Y0261165D02*
X0457543Y0261165D01*
X0457543Y0262164D02*
X0137249Y0262164D01*
X0137205Y0263162D02*
X0457543Y0263162D01*
X0457543Y0264161D02*
X0136207Y0264161D01*
X0135208Y0265159D02*
X0457543Y0265159D01*
X0457543Y0266158D02*
X0072842Y0266158D01*
X0072842Y0267156D02*
X0457543Y0267156D01*
X0457543Y0278140D02*
X0445507Y0278140D01*
X0444960Y0277593D02*
X0447249Y0279882D01*
X0447249Y0283118D01*
X0444960Y0285407D01*
X0441723Y0285407D01*
X0439435Y0283118D01*
X0439435Y0279882D01*
X0441723Y0277593D01*
X0444960Y0277593D01*
X0446505Y0279138D02*
X0457543Y0279138D01*
X0457543Y0280137D02*
X0447249Y0280137D01*
X0447249Y0281135D02*
X0457543Y0281135D01*
X0457543Y0282134D02*
X0447249Y0282134D01*
X0447235Y0283132D02*
X0457543Y0283132D01*
X0457543Y0284131D02*
X0446236Y0284131D01*
X0445238Y0285129D02*
X0457543Y0285129D01*
X0441446Y0285129D02*
X0395238Y0285129D01*
X0396236Y0284131D02*
X0440447Y0284131D01*
X0439449Y0283132D02*
X0397235Y0283132D01*
X0397249Y0282134D02*
X0439435Y0282134D01*
X0439435Y0281135D02*
X0397249Y0281135D01*
X0397249Y0280137D02*
X0439435Y0280137D01*
X0440178Y0279138D02*
X0396505Y0279138D01*
X0395507Y0278140D02*
X0441177Y0278140D01*
X0445166Y0247186D02*
X0387271Y0247186D01*
X0387775Y0246977D02*
X0385486Y0247925D01*
X0383008Y0247925D01*
X0380719Y0246977D01*
X0378967Y0245225D01*
X0378342Y0243715D01*
X0377716Y0245225D01*
X0375964Y0246977D01*
X0373675Y0247925D01*
X0371197Y0247925D01*
X0368908Y0246977D01*
X0367156Y0245225D01*
X0366531Y0243715D01*
X0365905Y0245225D01*
X0364153Y0246977D01*
X0361864Y0247925D01*
X0359386Y0247925D01*
X0357097Y0246977D01*
X0355345Y0245225D01*
X0354397Y0242936D01*
X0354397Y0240458D01*
X0355345Y0238169D01*
X0357097Y0236417D01*
X0359386Y0235469D01*
X0361864Y0235469D01*
X0364153Y0236417D01*
X0365905Y0238169D01*
X0366531Y0239679D01*
X0367156Y0238169D01*
X0368908Y0236417D01*
X0371197Y0235469D01*
X0373675Y0235469D01*
X0375964Y0236417D01*
X0377716Y0238169D01*
X0378342Y0239679D01*
X0378967Y0238169D01*
X0380719Y0236417D01*
X0383008Y0235469D01*
X0385486Y0235469D01*
X0387775Y0236417D01*
X0389527Y0238169D01*
X0390476Y0240458D01*
X0390476Y0242936D01*
X0389527Y0245225D01*
X0387775Y0246977D01*
X0388565Y0246187D02*
X0443881Y0246187D01*
X0442883Y0245189D02*
X0389542Y0245189D01*
X0389956Y0244190D02*
X0442455Y0244190D01*
X0442041Y0243192D02*
X0390370Y0243192D01*
X0390476Y0242193D02*
X0441873Y0242193D01*
X0441873Y0241195D02*
X0390476Y0241195D01*
X0390367Y0240196D02*
X0441880Y0240196D01*
X0442294Y0239198D02*
X0389954Y0239198D01*
X0389540Y0238199D02*
X0442708Y0238199D01*
X0443493Y0237201D02*
X0388559Y0237201D01*
X0387258Y0236202D02*
X0444492Y0236202D01*
X0446639Y0235204D02*
X0080044Y0235204D01*
X0082192Y0236202D02*
X0330056Y0236202D01*
X0329538Y0236417D02*
X0331827Y0235469D01*
X0334305Y0235469D01*
X0336594Y0236417D01*
X0338346Y0238169D01*
X0339295Y0240458D01*
X0339295Y0242936D01*
X0338346Y0245225D01*
X0336594Y0246977D01*
X0334305Y0247925D01*
X0331827Y0247925D01*
X0329538Y0246977D01*
X0327786Y0245225D01*
X0326838Y0242936D01*
X0326838Y0240458D01*
X0327786Y0238169D01*
X0329538Y0236417D01*
X0328754Y0237201D02*
X0083190Y0237201D01*
X0083976Y0238199D02*
X0327773Y0238199D01*
X0327360Y0239198D02*
X0084390Y0239198D01*
X0084803Y0240196D02*
X0326946Y0240196D01*
X0326838Y0241195D02*
X0084810Y0241195D01*
X0084810Y0242193D02*
X0326838Y0242193D01*
X0326944Y0243192D02*
X0084642Y0243192D01*
X0084229Y0244190D02*
X0327358Y0244190D01*
X0327771Y0245189D02*
X0083801Y0245189D01*
X0082802Y0246187D02*
X0328749Y0246187D01*
X0330042Y0247186D02*
X0081518Y0247186D01*
X0073493Y0237201D02*
X0072842Y0237201D01*
X0072842Y0236202D02*
X0074492Y0236202D01*
X0072842Y0235204D02*
X0076639Y0235204D01*
X0072842Y0258170D02*
X0111147Y0258170D01*
X0111723Y0257593D02*
X0114960Y0257593D01*
X0117249Y0259882D01*
X0117249Y0263118D01*
X0114960Y0265407D01*
X0111723Y0265407D01*
X0109435Y0263118D01*
X0109435Y0259882D01*
X0111723Y0257593D01*
X0110148Y0259168D02*
X0072842Y0259168D01*
X0072842Y0260167D02*
X0109435Y0260167D01*
X0109435Y0261165D02*
X0072842Y0261165D01*
X0072842Y0262164D02*
X0109435Y0262164D01*
X0109478Y0263162D02*
X0072842Y0263162D01*
X0072842Y0264161D02*
X0110477Y0264161D01*
X0111475Y0265159D02*
X0072842Y0265159D01*
X0072842Y0288125D02*
X0086191Y0288125D01*
X0085193Y0289123D02*
X0072842Y0289123D01*
X0072842Y0290122D02*
X0084435Y0290122D01*
X0084435Y0291120D02*
X0072842Y0291120D01*
X0072842Y0292119D02*
X0084435Y0292119D01*
X0084435Y0293117D02*
X0072842Y0293117D01*
X0072842Y0294116D02*
X0085432Y0294116D01*
X0086431Y0295114D02*
X0072842Y0295114D01*
X0072842Y0296113D02*
X0326173Y0296113D01*
X0325175Y0297111D02*
X0072842Y0297111D01*
X0100447Y0318080D02*
X0106236Y0318080D01*
X0105238Y0319079D02*
X0101446Y0319079D01*
X0102249Y0320077D02*
X0104435Y0320077D01*
X0104435Y0321076D02*
X0102249Y0321076D01*
X0102249Y0322074D02*
X0104435Y0322074D01*
X0104435Y0323073D02*
X0102249Y0323073D01*
X0101296Y0324071D02*
X0105388Y0324071D01*
X0106386Y0325070D02*
X0100297Y0325070D01*
X0109453Y0291751D02*
X0113519Y0287685D01*
X0115208Y0265159D02*
X0131475Y0265159D01*
X0130477Y0264161D02*
X0116207Y0264161D01*
X0117205Y0263162D02*
X0129478Y0263162D01*
X0129435Y0262164D02*
X0117249Y0262164D01*
X0117249Y0261165D02*
X0129435Y0261165D01*
X0129435Y0260167D02*
X0117249Y0260167D01*
X0116535Y0259168D02*
X0130148Y0259168D01*
X0131147Y0258170D02*
X0115537Y0258170D01*
X0242335Y0330062D02*
X0272397Y0330062D01*
X0274287Y0330062D02*
X0282397Y0330062D01*
X0284287Y0330062D02*
X0289098Y0330062D01*
X0288100Y0331061D02*
X0286028Y0331061D01*
X0286808Y0332059D02*
X0287101Y0332059D01*
X0287249Y0334467D02*
X0287249Y0340718D01*
X0284960Y0343007D01*
X0281723Y0343007D01*
X0275216Y0336500D01*
X0273342Y0336500D01*
X0269435Y0336053D02*
X0262845Y0336053D01*
X0264365Y0335055D02*
X0269435Y0335055D01*
X0269435Y0334056D02*
X0264871Y0334056D01*
X0264948Y0333058D02*
X0269462Y0333058D01*
X0269875Y0332059D02*
X0264659Y0332059D01*
X0263853Y0331061D02*
X0270656Y0331061D01*
X0276028Y0331061D02*
X0280656Y0331061D01*
X0279875Y0332059D02*
X0276808Y0332059D01*
X0277222Y0333058D02*
X0279462Y0333058D01*
X0279435Y0334056D02*
X0277249Y0334056D01*
X0277249Y0335055D02*
X0279435Y0335055D01*
X0279435Y0336053D02*
X0277325Y0336053D01*
X0278324Y0337052D02*
X0279435Y0337052D01*
X0279435Y0338050D02*
X0279322Y0338050D01*
X0277207Y0341046D02*
X0276765Y0341046D01*
X0275923Y0342044D02*
X0278205Y0342044D01*
X0270761Y0342044D02*
X0257376Y0342044D01*
X0258006Y0341046D02*
X0269919Y0341046D01*
X0269505Y0340047D02*
X0258171Y0340047D01*
X0258972Y0339049D02*
X0269435Y0339049D01*
X0269435Y0338050D02*
X0259971Y0338050D01*
X0260970Y0337052D02*
X0269435Y0337052D01*
X0290097Y0329064D02*
X0243334Y0329064D01*
X0244332Y0328065D02*
X0294221Y0328065D01*
X0295219Y0327067D02*
X0245331Y0327067D01*
X0246329Y0326068D02*
X0296218Y0326068D01*
X0297216Y0325070D02*
X0250297Y0325070D01*
X0290268Y0305100D02*
X0317187Y0305100D01*
X0318185Y0304101D02*
X0291266Y0304101D01*
X0292249Y0303103D02*
X0319184Y0303103D01*
X0320182Y0302104D02*
X0292249Y0302104D01*
X0292249Y0301105D02*
X0321181Y0301105D01*
X0322179Y0300107D02*
X0292249Y0300107D01*
X0291476Y0299108D02*
X0323178Y0299108D01*
X0324176Y0298110D02*
X0290477Y0298110D01*
X0313311Y0314086D02*
X0383372Y0314086D01*
X0382374Y0313088D02*
X0314310Y0313088D01*
X0315308Y0312089D02*
X0381375Y0312089D01*
X0380377Y0311091D02*
X0316307Y0311091D01*
X0317305Y0310092D02*
X0379378Y0310092D01*
X0378380Y0309094D02*
X0318304Y0309094D01*
X0319302Y0308095D02*
X0377381Y0308095D01*
X0376383Y0307097D02*
X0320301Y0307097D01*
X0321299Y0306098D02*
X0375384Y0306098D01*
X0374386Y0305100D02*
X0340268Y0305100D01*
X0336416Y0305100D02*
X0322298Y0305100D01*
X0323296Y0304101D02*
X0335417Y0304101D01*
X0334435Y0303103D02*
X0324295Y0303103D01*
X0325293Y0302104D02*
X0334435Y0302104D01*
X0334435Y0301105D02*
X0326292Y0301105D01*
X0327290Y0300107D02*
X0333459Y0300107D01*
X0331087Y0299108D02*
X0328289Y0299108D01*
X0329287Y0298110D02*
X0330177Y0298110D01*
X0340271Y0287126D02*
X0356413Y0287126D01*
X0355414Y0286128D02*
X0341270Y0286128D01*
X0342268Y0285129D02*
X0354416Y0285129D01*
X0353417Y0284131D02*
X0343267Y0284131D01*
X0344265Y0283132D02*
X0352419Y0283132D01*
X0351420Y0282134D02*
X0345264Y0282134D01*
X0346262Y0281135D02*
X0350421Y0281135D01*
X0352537Y0278140D02*
X0364456Y0278140D01*
X0364435Y0277141D02*
X0352249Y0277141D01*
X0352249Y0276143D02*
X0364435Y0276143D01*
X0364435Y0275144D02*
X0352249Y0275144D01*
X0351513Y0274146D02*
X0365171Y0274146D01*
X0366169Y0273147D02*
X0350514Y0273147D01*
X0353536Y0279138D02*
X0365455Y0279138D01*
X0366453Y0280137D02*
X0354534Y0280137D01*
X0357602Y0247186D02*
X0336090Y0247186D01*
X0337384Y0246187D02*
X0356308Y0246187D01*
X0355330Y0245189D02*
X0338361Y0245189D01*
X0338775Y0244190D02*
X0354917Y0244190D01*
X0354503Y0243192D02*
X0339188Y0243192D01*
X0339295Y0242193D02*
X0354397Y0242193D01*
X0354397Y0241195D02*
X0339295Y0241195D01*
X0339186Y0240196D02*
X0354505Y0240196D01*
X0354919Y0239198D02*
X0338773Y0239198D01*
X0338359Y0238199D02*
X0355332Y0238199D01*
X0356313Y0237201D02*
X0337378Y0237201D01*
X0336077Y0236202D02*
X0357615Y0236202D01*
X0363636Y0236202D02*
X0369426Y0236202D01*
X0368124Y0237201D02*
X0364937Y0237201D01*
X0365918Y0238199D02*
X0367144Y0238199D01*
X0366730Y0239198D02*
X0366332Y0239198D01*
X0366334Y0244190D02*
X0366728Y0244190D01*
X0367141Y0245189D02*
X0365920Y0245189D01*
X0364943Y0246187D02*
X0368119Y0246187D01*
X0369413Y0247186D02*
X0363649Y0247186D01*
X0375460Y0247186D02*
X0381224Y0247186D01*
X0379930Y0246187D02*
X0376754Y0246187D01*
X0377731Y0245189D02*
X0378952Y0245189D01*
X0378539Y0244190D02*
X0378145Y0244190D01*
X0378143Y0239198D02*
X0378541Y0239198D01*
X0378955Y0238199D02*
X0377729Y0238199D01*
X0376748Y0237201D02*
X0379935Y0237201D01*
X0381237Y0236202D02*
X0375447Y0236202D01*
X0366992Y0153326D02*
X0361022Y0153326D01*
X0362020Y0152327D02*
X0364810Y0152327D01*
X0363811Y0151329D02*
X0362980Y0151329D01*
X0330950Y0141344D02*
X0072842Y0141344D01*
X0072842Y0142342D02*
X0329124Y0142342D01*
X0328126Y0143341D02*
X0072842Y0143341D01*
X0072842Y0144339D02*
X0327513Y0144339D01*
X0327100Y0145338D02*
X0072842Y0145338D01*
X0072842Y0146336D02*
X0326838Y0146336D01*
X0326838Y0147335D02*
X0072842Y0147335D01*
X0072842Y0148333D02*
X0326838Y0148333D01*
X0327204Y0149332D02*
X0072842Y0149332D01*
X0072842Y0150330D02*
X0327618Y0150330D01*
X0328378Y0151329D02*
X0072842Y0151329D01*
X0072842Y0152327D02*
X0329377Y0152327D01*
X0291704Y0117379D02*
X0104480Y0117379D01*
X0103734Y0116381D02*
X0292702Y0116381D01*
X0293701Y0115382D02*
X0105117Y0115382D01*
X0106001Y0114384D02*
X0294699Y0114384D01*
X0295698Y0113385D02*
X0106414Y0113385D01*
X0106747Y0112387D02*
X0296696Y0112387D01*
X0297695Y0111388D02*
X0106747Y0111388D01*
X0106735Y0110390D02*
X0298693Y0110390D01*
X0299692Y0109391D02*
X0106322Y0109391D01*
X0105892Y0108393D02*
X0300690Y0108393D01*
X0301689Y0107394D02*
X0104894Y0107394D01*
X0103195Y0106396D02*
X0302687Y0106396D01*
X0302873Y0105397D02*
X0103074Y0105397D01*
X0103732Y0105125D02*
X0102161Y0105776D01*
X0094523Y0105776D01*
X0092951Y0105125D01*
X0091749Y0103922D01*
X0091098Y0102350D01*
X0091098Y0100650D01*
X0091749Y0099078D01*
X0092951Y0097875D01*
X0094523Y0097224D01*
X0102161Y0097224D01*
X0103732Y0097875D01*
X0104935Y0099078D01*
X0105586Y0100650D01*
X0105586Y0102350D01*
X0104935Y0103922D01*
X0103732Y0105125D01*
X0104458Y0104399D02*
X0302873Y0104399D01*
X0303208Y0103400D02*
X0105151Y0103400D01*
X0105565Y0102402D02*
X0304206Y0102402D01*
X0305205Y0101403D02*
X0105586Y0101403D01*
X0105484Y0100405D02*
X0308678Y0100405D01*
X0309677Y0099406D02*
X0105071Y0099406D01*
X0104265Y0098408D02*
X0310675Y0098408D01*
X0311674Y0097409D02*
X0102607Y0097409D01*
X0103662Y0096411D02*
X0312672Y0096411D01*
X0313671Y0095412D02*
X0105087Y0095412D01*
X0105988Y0094414D02*
X0314669Y0094414D01*
X0315668Y0093415D02*
X0106402Y0093415D01*
X0106747Y0092417D02*
X0316666Y0092417D01*
X0317665Y0091418D02*
X0106747Y0091418D01*
X0106747Y0090420D02*
X0318663Y0090420D01*
X0319662Y0089421D02*
X0106334Y0089421D01*
X0105921Y0088423D02*
X0320660Y0088423D01*
X0382531Y0083430D02*
X0457543Y0083430D01*
X0457543Y0084429D02*
X0383529Y0084429D01*
X0384528Y0085427D02*
X0457543Y0085427D01*
X0457543Y0086426D02*
X0385526Y0086426D01*
X0386525Y0087424D02*
X0457543Y0087424D01*
X0457543Y0088423D02*
X0387010Y0088423D01*
X0387010Y0089421D02*
X0457543Y0089421D01*
X0457543Y0090420D02*
X0387010Y0090420D01*
X0387010Y0091418D02*
X0457543Y0091418D01*
X0457543Y0092417D02*
X0387010Y0092417D01*
X0387010Y0093415D02*
X0457543Y0093415D01*
X0457543Y0094414D02*
X0387010Y0094414D01*
X0386689Y0095412D02*
X0457543Y0095412D01*
X0457543Y0096411D02*
X0385690Y0096411D01*
X0384692Y0097409D02*
X0457543Y0097409D01*
X0457543Y0098408D02*
X0383693Y0098408D01*
X0382695Y0099406D02*
X0457543Y0099406D01*
X0183312Y0068452D02*
X0133372Y0068452D01*
X0134879Y0067454D02*
X0181805Y0067454D01*
X0181373Y0066455D02*
X0135310Y0066455D01*
X0135310Y0065457D02*
X0181373Y0065457D01*
X0181373Y0064458D02*
X0135310Y0064458D01*
X0135310Y0063460D02*
X0181373Y0063460D01*
X0181373Y0062461D02*
X0135310Y0062461D01*
X0135310Y0061463D02*
X0181373Y0061463D01*
X0181373Y0060464D02*
X0135310Y0060464D01*
X0135310Y0059466D02*
X0181373Y0059466D01*
X0181373Y0058467D02*
X0135310Y0058467D01*
X0135310Y0057469D02*
X0181373Y0057469D01*
X0181389Y0056470D02*
X0135294Y0056470D01*
X0134805Y0055472D02*
X0181879Y0055472D01*
X0100952Y0124369D02*
X0072842Y0124369D01*
X0072842Y0123370D02*
X0099954Y0123370D01*
X0098955Y0122372D02*
X0072842Y0122372D01*
X0072842Y0121373D02*
X0097957Y0121373D01*
X0096958Y0120375D02*
X0072842Y0120375D01*
X0072842Y0119376D02*
X0095959Y0119376D01*
X0095095Y0118378D02*
X0072842Y0118378D01*
X0072842Y0117379D02*
X0094681Y0117379D01*
X0092949Y0116381D02*
X0072842Y0116381D01*
X0072842Y0115382D02*
X0091567Y0115382D01*
X0090683Y0114384D02*
X0072842Y0114384D01*
X0072842Y0113385D02*
X0090269Y0113385D01*
X0089936Y0112387D02*
X0072842Y0112387D01*
X0072842Y0111388D02*
X0089936Y0111388D01*
X0089948Y0110390D02*
X0072842Y0110390D01*
X0072842Y0109391D02*
X0090362Y0109391D01*
X0090791Y0108393D02*
X0072842Y0108393D01*
X0072842Y0107394D02*
X0091790Y0107394D01*
X0093488Y0106396D02*
X0072842Y0106396D01*
X0072842Y0105397D02*
X0093610Y0105397D01*
X0092225Y0104399D02*
X0072842Y0104399D01*
X0072842Y0103400D02*
X0091533Y0103400D01*
X0091119Y0102402D02*
X0072842Y0102402D01*
X0072842Y0101403D02*
X0091098Y0101403D01*
X0091199Y0100405D02*
X0072842Y0100405D01*
X0072842Y0099406D02*
X0091613Y0099406D01*
X0092419Y0098408D02*
X0072842Y0098408D01*
X0072842Y0097409D02*
X0094077Y0097409D01*
X0093021Y0096411D02*
X0072842Y0096411D01*
X0072842Y0095412D02*
X0091596Y0095412D01*
X0090695Y0094414D02*
X0072842Y0094414D01*
X0072842Y0093415D02*
X0090282Y0093415D01*
X0089936Y0092417D02*
X0072842Y0092417D01*
X0072842Y0091418D02*
X0089936Y0091418D01*
X0089936Y0090420D02*
X0072842Y0090420D01*
X0072842Y0089421D02*
X0090349Y0089421D01*
X0090763Y0088423D02*
X0072842Y0088423D01*
X0072842Y0087424D02*
X0091760Y0087424D01*
X0093416Y0086426D02*
X0072842Y0086426D01*
X0306028Y0331061D02*
X0310656Y0331061D01*
X0309875Y0332059D02*
X0306808Y0332059D01*
X0307222Y0333058D02*
X0309462Y0333058D01*
X0309435Y0334056D02*
X0307249Y0334056D01*
X0307249Y0335055D02*
X0309435Y0335055D01*
X0309435Y0336053D02*
X0307249Y0336053D01*
X0307249Y0337052D02*
X0309435Y0337052D01*
X0309435Y0338050D02*
X0307249Y0338050D01*
X0307249Y0339049D02*
X0309435Y0339049D01*
X0309505Y0340047D02*
X0307178Y0340047D01*
X0306765Y0341046D02*
X0309919Y0341046D01*
X0310761Y0342044D02*
X0305923Y0342044D01*
D20*
X0262152Y0333314D03*
X0255375Y0340091D03*
X0215168Y0289944D03*
X0202066Y0270518D03*
X0189417Y0289492D03*
X0113519Y0287685D03*
X0109453Y0291751D03*
X0332628Y0296720D03*
D21*
X0292842Y0121500D02*
X0308342Y0106000D01*
X0322842Y0091500D01*
X0378342Y0091500D01*
X0292842Y0121500D02*
X0103342Y0121500D01*
X0098342Y0116500D01*
X0098342Y0111500D01*
M02*
