G75*
%MOIN*%
%OFA0B0*%
%FSLAX25Y25*%
%IPPOS*%
%LPD*%
%AMOC8*
5,1,8,0,0,1.08239X$1,22.5*
%
%ADD10C,0.00000*%
%ADD11C,0.00600*%
%ADD12C,0.02000*%
%ADD13C,0.01600*%
%ADD14C,0.00500*%
%ADD15C,0.01200*%
%ADD16C,0.00800*%
%ADD17C,0.01000*%
%ADD18C,0.00400*%
%ADD19R,0.03400X0.02400*%
%ADD20C,0.00200*%
D10*
X0004467Y0007200D02*
X0004467Y0322161D01*
X0398167Y0322161D01*
X0398167Y0007200D01*
X0004467Y0007200D01*
D11*
X0138967Y0011700D02*
X0138967Y0042700D01*
X0138969Y0042787D01*
X0138975Y0042874D01*
X0138984Y0042961D01*
X0138997Y0043047D01*
X0139014Y0043133D01*
X0139035Y0043218D01*
X0139060Y0043301D01*
X0139088Y0043384D01*
X0139119Y0043465D01*
X0139154Y0043545D01*
X0139193Y0043623D01*
X0139235Y0043700D01*
X0139280Y0043775D01*
X0139329Y0043847D01*
X0139380Y0043918D01*
X0139435Y0043986D01*
X0139492Y0044051D01*
X0139553Y0044114D01*
X0139616Y0044175D01*
X0139681Y0044232D01*
X0139749Y0044287D01*
X0139820Y0044338D01*
X0139892Y0044387D01*
X0139967Y0044432D01*
X0140044Y0044474D01*
X0140122Y0044513D01*
X0140202Y0044548D01*
X0140283Y0044579D01*
X0140366Y0044607D01*
X0140449Y0044632D01*
X0140534Y0044653D01*
X0140620Y0044670D01*
X0140706Y0044683D01*
X0140793Y0044692D01*
X0140880Y0044698D01*
X0140967Y0044700D01*
X0207967Y0044700D01*
X0208054Y0044698D01*
X0208141Y0044692D01*
X0208228Y0044683D01*
X0208314Y0044670D01*
X0208400Y0044653D01*
X0208485Y0044632D01*
X0208568Y0044607D01*
X0208651Y0044579D01*
X0208732Y0044548D01*
X0208812Y0044513D01*
X0208890Y0044474D01*
X0208967Y0044432D01*
X0209042Y0044387D01*
X0209114Y0044338D01*
X0209185Y0044287D01*
X0209253Y0044232D01*
X0209318Y0044175D01*
X0209381Y0044114D01*
X0209442Y0044051D01*
X0209499Y0043986D01*
X0209554Y0043918D01*
X0209605Y0043847D01*
X0209654Y0043775D01*
X0209699Y0043700D01*
X0209741Y0043623D01*
X0209780Y0043545D01*
X0209815Y0043465D01*
X0209846Y0043384D01*
X0209874Y0043301D01*
X0209899Y0043218D01*
X0209920Y0043133D01*
X0209937Y0043047D01*
X0209950Y0042961D01*
X0209959Y0042874D01*
X0209965Y0042787D01*
X0209967Y0042700D01*
X0209967Y0011700D01*
X0209965Y0011613D01*
X0209959Y0011526D01*
X0209950Y0011439D01*
X0209937Y0011353D01*
X0209920Y0011267D01*
X0209899Y0011182D01*
X0209874Y0011099D01*
X0209846Y0011016D01*
X0209815Y0010935D01*
X0209780Y0010855D01*
X0209741Y0010777D01*
X0209699Y0010700D01*
X0209654Y0010625D01*
X0209605Y0010553D01*
X0209554Y0010482D01*
X0209499Y0010414D01*
X0209442Y0010349D01*
X0209381Y0010286D01*
X0209318Y0010225D01*
X0209253Y0010168D01*
X0209185Y0010113D01*
X0209114Y0010062D01*
X0209042Y0010013D01*
X0208967Y0009968D01*
X0208890Y0009926D01*
X0208812Y0009887D01*
X0208732Y0009852D01*
X0208651Y0009821D01*
X0208568Y0009793D01*
X0208485Y0009768D01*
X0208400Y0009747D01*
X0208314Y0009730D01*
X0208228Y0009717D01*
X0208141Y0009708D01*
X0208054Y0009702D01*
X0207967Y0009700D01*
X0140967Y0009700D01*
X0140880Y0009702D01*
X0140793Y0009708D01*
X0140706Y0009717D01*
X0140620Y0009730D01*
X0140534Y0009747D01*
X0140449Y0009768D01*
X0140366Y0009793D01*
X0140283Y0009821D01*
X0140202Y0009852D01*
X0140122Y0009887D01*
X0140044Y0009926D01*
X0139967Y0009968D01*
X0139892Y0010013D01*
X0139820Y0010062D01*
X0139749Y0010113D01*
X0139681Y0010168D01*
X0139616Y0010225D01*
X0139553Y0010286D01*
X0139492Y0010349D01*
X0139435Y0010414D01*
X0139380Y0010482D01*
X0139329Y0010553D01*
X0139280Y0010625D01*
X0139235Y0010700D01*
X0139193Y0010777D01*
X0139154Y0010855D01*
X0139119Y0010935D01*
X0139088Y0011016D01*
X0139060Y0011099D01*
X0139035Y0011182D01*
X0139014Y0011267D01*
X0138997Y0011353D01*
X0138984Y0011439D01*
X0138975Y0011526D01*
X0138969Y0011613D01*
X0138967Y0011700D01*
X0150467Y0027200D02*
X0190967Y0027200D01*
X0194467Y0027200D02*
X0198467Y0027200D01*
X0208467Y0061200D02*
X0170467Y0061200D01*
X0170407Y0061202D01*
X0170346Y0061207D01*
X0170287Y0061216D01*
X0170228Y0061229D01*
X0170169Y0061245D01*
X0170112Y0061265D01*
X0170057Y0061288D01*
X0170002Y0061315D01*
X0169950Y0061344D01*
X0169899Y0061377D01*
X0169850Y0061413D01*
X0169804Y0061451D01*
X0169760Y0061493D01*
X0169718Y0061537D01*
X0169680Y0061583D01*
X0169644Y0061632D01*
X0169611Y0061683D01*
X0169582Y0061735D01*
X0169555Y0061790D01*
X0169532Y0061845D01*
X0169512Y0061902D01*
X0169496Y0061961D01*
X0169483Y0062020D01*
X0169474Y0062079D01*
X0169469Y0062140D01*
X0169467Y0062200D01*
X0169467Y0072200D01*
X0169469Y0072260D01*
X0169474Y0072321D01*
X0169483Y0072380D01*
X0169496Y0072439D01*
X0169512Y0072498D01*
X0169532Y0072555D01*
X0169555Y0072610D01*
X0169582Y0072665D01*
X0169611Y0072717D01*
X0169644Y0072768D01*
X0169680Y0072817D01*
X0169718Y0072863D01*
X0169760Y0072907D01*
X0169804Y0072949D01*
X0169850Y0072987D01*
X0169899Y0073023D01*
X0169950Y0073056D01*
X0170002Y0073085D01*
X0170057Y0073112D01*
X0170112Y0073135D01*
X0170169Y0073155D01*
X0170228Y0073171D01*
X0170287Y0073184D01*
X0170346Y0073193D01*
X0170407Y0073198D01*
X0170467Y0073200D01*
X0208467Y0073200D01*
X0208527Y0073198D01*
X0208588Y0073193D01*
X0208647Y0073184D01*
X0208706Y0073171D01*
X0208765Y0073155D01*
X0208822Y0073135D01*
X0208877Y0073112D01*
X0208932Y0073085D01*
X0208984Y0073056D01*
X0209035Y0073023D01*
X0209084Y0072987D01*
X0209130Y0072949D01*
X0209174Y0072907D01*
X0209216Y0072863D01*
X0209254Y0072817D01*
X0209290Y0072768D01*
X0209323Y0072717D01*
X0209352Y0072665D01*
X0209379Y0072610D01*
X0209402Y0072555D01*
X0209422Y0072498D01*
X0209438Y0072439D01*
X0209451Y0072380D01*
X0209460Y0072321D01*
X0209465Y0072260D01*
X0209467Y0072200D01*
X0209467Y0062200D01*
X0209465Y0062140D01*
X0209460Y0062079D01*
X0209451Y0062020D01*
X0209438Y0061961D01*
X0209422Y0061902D01*
X0209402Y0061845D01*
X0209379Y0061790D01*
X0209352Y0061735D01*
X0209323Y0061683D01*
X0209290Y0061632D01*
X0209254Y0061583D01*
X0209216Y0061537D01*
X0209174Y0061493D01*
X0209130Y0061451D01*
X0209084Y0061413D01*
X0209035Y0061377D01*
X0208984Y0061344D01*
X0208932Y0061315D01*
X0208877Y0061288D01*
X0208822Y0061265D01*
X0208765Y0061245D01*
X0208706Y0061229D01*
X0208647Y0061216D01*
X0208588Y0061207D01*
X0208527Y0061202D01*
X0208467Y0061200D01*
X0199467Y0067200D02*
X0191467Y0067200D01*
X0187467Y0067200D02*
X0179467Y0067200D01*
X0170967Y0246200D02*
X0171467Y0246700D01*
X0197467Y0246700D01*
X0197967Y0246200D01*
X0200467Y0246200D01*
X0200527Y0246202D01*
X0200588Y0246207D01*
X0200647Y0246216D01*
X0200706Y0246229D01*
X0200765Y0246245D01*
X0200822Y0246265D01*
X0200877Y0246288D01*
X0200932Y0246315D01*
X0200984Y0246344D01*
X0201035Y0246377D01*
X0201084Y0246413D01*
X0201130Y0246451D01*
X0201174Y0246493D01*
X0201216Y0246537D01*
X0201254Y0246583D01*
X0201290Y0246632D01*
X0201323Y0246683D01*
X0201352Y0246735D01*
X0201379Y0246790D01*
X0201402Y0246845D01*
X0201422Y0246902D01*
X0201438Y0246961D01*
X0201451Y0247020D01*
X0201460Y0247079D01*
X0201465Y0247140D01*
X0201467Y0247200D01*
X0201467Y0257200D01*
X0201465Y0257260D01*
X0201460Y0257321D01*
X0201451Y0257380D01*
X0201438Y0257439D01*
X0201422Y0257498D01*
X0201402Y0257555D01*
X0201379Y0257610D01*
X0201352Y0257665D01*
X0201323Y0257717D01*
X0201290Y0257768D01*
X0201254Y0257817D01*
X0201216Y0257863D01*
X0201174Y0257907D01*
X0201130Y0257949D01*
X0201084Y0257987D01*
X0201035Y0258023D01*
X0200984Y0258056D01*
X0200932Y0258085D01*
X0200877Y0258112D01*
X0200822Y0258135D01*
X0200765Y0258155D01*
X0200706Y0258171D01*
X0200647Y0258184D01*
X0200588Y0258193D01*
X0200527Y0258198D01*
X0200467Y0258200D01*
X0197967Y0258200D01*
X0197467Y0257700D01*
X0171467Y0257700D01*
X0170967Y0258200D01*
X0168467Y0258200D01*
X0168407Y0258198D01*
X0168346Y0258193D01*
X0168287Y0258184D01*
X0168228Y0258171D01*
X0168169Y0258155D01*
X0168112Y0258135D01*
X0168057Y0258112D01*
X0168002Y0258085D01*
X0167950Y0258056D01*
X0167899Y0258023D01*
X0167850Y0257987D01*
X0167804Y0257949D01*
X0167760Y0257907D01*
X0167718Y0257863D01*
X0167680Y0257817D01*
X0167644Y0257768D01*
X0167611Y0257717D01*
X0167582Y0257665D01*
X0167555Y0257610D01*
X0167532Y0257555D01*
X0167512Y0257498D01*
X0167496Y0257439D01*
X0167483Y0257380D01*
X0167474Y0257321D01*
X0167469Y0257260D01*
X0167467Y0257200D01*
X0167467Y0247200D01*
X0167469Y0247140D01*
X0167474Y0247079D01*
X0167483Y0247020D01*
X0167496Y0246961D01*
X0167512Y0246902D01*
X0167532Y0246845D01*
X0167555Y0246790D01*
X0167582Y0246735D01*
X0167611Y0246683D01*
X0167644Y0246632D01*
X0167680Y0246583D01*
X0167718Y0246537D01*
X0167760Y0246493D01*
X0167804Y0246451D01*
X0167850Y0246413D01*
X0167899Y0246377D01*
X0167950Y0246344D01*
X0168002Y0246315D01*
X0168057Y0246288D01*
X0168112Y0246265D01*
X0168169Y0246245D01*
X0168228Y0246229D01*
X0168287Y0246216D01*
X0168346Y0246207D01*
X0168407Y0246202D01*
X0168467Y0246200D01*
X0170967Y0246200D01*
X0160967Y0277700D02*
X0187967Y0277700D01*
X0188027Y0277702D01*
X0188088Y0277707D01*
X0188147Y0277716D01*
X0188206Y0277729D01*
X0188265Y0277745D01*
X0188322Y0277765D01*
X0188377Y0277788D01*
X0188432Y0277815D01*
X0188484Y0277844D01*
X0188535Y0277877D01*
X0188584Y0277913D01*
X0188630Y0277951D01*
X0188674Y0277993D01*
X0188716Y0278037D01*
X0188754Y0278083D01*
X0188790Y0278132D01*
X0188823Y0278183D01*
X0188852Y0278235D01*
X0188879Y0278290D01*
X0188902Y0278345D01*
X0188922Y0278402D01*
X0188938Y0278461D01*
X0188951Y0278520D01*
X0188960Y0278579D01*
X0188965Y0278640D01*
X0188967Y0278700D01*
X0188967Y0305700D01*
X0188965Y0305760D01*
X0188960Y0305821D01*
X0188951Y0305880D01*
X0188938Y0305939D01*
X0188922Y0305998D01*
X0188902Y0306055D01*
X0188879Y0306110D01*
X0188852Y0306165D01*
X0188823Y0306217D01*
X0188790Y0306268D01*
X0188754Y0306317D01*
X0188716Y0306363D01*
X0188674Y0306407D01*
X0188630Y0306449D01*
X0188584Y0306487D01*
X0188535Y0306523D01*
X0188484Y0306556D01*
X0188432Y0306585D01*
X0188377Y0306612D01*
X0188322Y0306635D01*
X0188265Y0306655D01*
X0188206Y0306671D01*
X0188147Y0306684D01*
X0188088Y0306693D01*
X0188027Y0306698D01*
X0187967Y0306700D01*
X0160967Y0306700D01*
X0160907Y0306698D01*
X0160846Y0306693D01*
X0160787Y0306684D01*
X0160728Y0306671D01*
X0160669Y0306655D01*
X0160612Y0306635D01*
X0160557Y0306612D01*
X0160502Y0306585D01*
X0160450Y0306556D01*
X0160399Y0306523D01*
X0160350Y0306487D01*
X0160304Y0306449D01*
X0160260Y0306407D01*
X0160218Y0306363D01*
X0160180Y0306317D01*
X0160144Y0306268D01*
X0160111Y0306217D01*
X0160082Y0306165D01*
X0160055Y0306110D01*
X0160032Y0306055D01*
X0160012Y0305998D01*
X0159996Y0305939D01*
X0159983Y0305880D01*
X0159974Y0305821D01*
X0159969Y0305760D01*
X0159967Y0305700D01*
X0159967Y0278700D01*
X0159969Y0278640D01*
X0159974Y0278579D01*
X0159983Y0278520D01*
X0159996Y0278461D01*
X0160012Y0278402D01*
X0160032Y0278345D01*
X0160055Y0278290D01*
X0160082Y0278235D01*
X0160111Y0278183D01*
X0160144Y0278132D01*
X0160180Y0278083D01*
X0160218Y0278037D01*
X0160260Y0277993D01*
X0160304Y0277951D01*
X0160350Y0277913D01*
X0160399Y0277877D01*
X0160450Y0277844D01*
X0160502Y0277815D01*
X0160557Y0277788D01*
X0160612Y0277765D01*
X0160669Y0277745D01*
X0160728Y0277729D01*
X0160787Y0277716D01*
X0160846Y0277707D01*
X0160907Y0277702D01*
X0160967Y0277700D01*
X0168467Y0292200D02*
X0172667Y0292200D01*
X0176167Y0292200D02*
X0180467Y0292200D01*
X0204467Y0311200D02*
X0204467Y0313200D01*
X0213467Y0313200D01*
X0214967Y0313200D01*
X0214967Y0342200D01*
X0216467Y0342200D01*
X0223467Y0342200D01*
X0224967Y0342200D01*
X0224967Y0313200D01*
X0226467Y0313200D01*
X0233467Y0313200D01*
X0234967Y0313200D01*
X0234967Y0342200D01*
X0236467Y0342200D01*
X0243467Y0342200D01*
X0244967Y0342200D01*
X0244967Y0313200D01*
X0246467Y0313200D01*
X0254467Y0313200D01*
X0254467Y0311200D01*
X0204467Y0311200D01*
X0204467Y0313200D02*
X0204467Y0342200D01*
X0213467Y0342200D01*
X0214967Y0342200D01*
X0224967Y0342200D02*
X0226467Y0342200D01*
X0233467Y0342200D01*
X0234967Y0342200D01*
X0244967Y0342200D02*
X0246467Y0342200D01*
X0254467Y0342200D01*
X0254467Y0313200D01*
X0244967Y0313200D02*
X0243467Y0313200D01*
X0236467Y0313200D01*
X0234967Y0313200D01*
X0224967Y0313200D02*
X0223467Y0313200D01*
X0216467Y0313200D01*
X0214967Y0313200D01*
X0220967Y0288200D02*
X0247967Y0288200D01*
X0248027Y0288198D01*
X0248088Y0288193D01*
X0248147Y0288184D01*
X0248206Y0288171D01*
X0248265Y0288155D01*
X0248322Y0288135D01*
X0248377Y0288112D01*
X0248432Y0288085D01*
X0248484Y0288056D01*
X0248535Y0288023D01*
X0248584Y0287987D01*
X0248630Y0287949D01*
X0248674Y0287907D01*
X0248716Y0287863D01*
X0248754Y0287817D01*
X0248790Y0287768D01*
X0248823Y0287717D01*
X0248852Y0287665D01*
X0248879Y0287610D01*
X0248902Y0287555D01*
X0248922Y0287498D01*
X0248938Y0287439D01*
X0248951Y0287380D01*
X0248960Y0287321D01*
X0248965Y0287260D01*
X0248967Y0287200D01*
X0248967Y0267200D01*
X0248965Y0267140D01*
X0248960Y0267079D01*
X0248951Y0267020D01*
X0248938Y0266961D01*
X0248922Y0266902D01*
X0248902Y0266845D01*
X0248879Y0266790D01*
X0248852Y0266735D01*
X0248823Y0266683D01*
X0248790Y0266632D01*
X0248754Y0266583D01*
X0248716Y0266537D01*
X0248674Y0266493D01*
X0248630Y0266451D01*
X0248584Y0266413D01*
X0248535Y0266377D01*
X0248484Y0266344D01*
X0248432Y0266315D01*
X0248377Y0266288D01*
X0248322Y0266265D01*
X0248265Y0266245D01*
X0248206Y0266229D01*
X0248147Y0266216D01*
X0248088Y0266207D01*
X0248027Y0266202D01*
X0247967Y0266200D01*
X0220967Y0266200D01*
X0220907Y0266202D01*
X0220846Y0266207D01*
X0220787Y0266216D01*
X0220728Y0266229D01*
X0220669Y0266245D01*
X0220612Y0266265D01*
X0220557Y0266288D01*
X0220502Y0266315D01*
X0220450Y0266344D01*
X0220399Y0266377D01*
X0220350Y0266413D01*
X0220304Y0266451D01*
X0220260Y0266493D01*
X0220218Y0266537D01*
X0220180Y0266583D01*
X0220144Y0266632D01*
X0220111Y0266683D01*
X0220082Y0266735D01*
X0220055Y0266790D01*
X0220032Y0266845D01*
X0220012Y0266902D01*
X0219996Y0266961D01*
X0219983Y0267020D01*
X0219974Y0267079D01*
X0219969Y0267140D01*
X0219967Y0267200D01*
X0219967Y0287200D01*
X0219969Y0287260D01*
X0219974Y0287321D01*
X0219983Y0287380D01*
X0219996Y0287439D01*
X0220012Y0287498D01*
X0220032Y0287555D01*
X0220055Y0287610D01*
X0220082Y0287665D01*
X0220111Y0287717D01*
X0220144Y0287768D01*
X0220180Y0287817D01*
X0220218Y0287863D01*
X0220260Y0287907D01*
X0220304Y0287949D01*
X0220350Y0287987D01*
X0220399Y0288023D01*
X0220450Y0288056D01*
X0220502Y0288085D01*
X0220557Y0288112D01*
X0220612Y0288135D01*
X0220669Y0288155D01*
X0220728Y0288171D01*
X0220787Y0288184D01*
X0220846Y0288193D01*
X0220907Y0288198D01*
X0220967Y0288200D01*
X0228467Y0277200D02*
X0233267Y0277200D01*
X0235767Y0277200D02*
X0240467Y0277200D01*
X0258467Y0258200D02*
X0260967Y0258200D01*
X0261467Y0257700D01*
X0287467Y0257700D01*
X0287967Y0258200D01*
X0290467Y0258200D01*
X0290527Y0258198D01*
X0290588Y0258193D01*
X0290647Y0258184D01*
X0290706Y0258171D01*
X0290765Y0258155D01*
X0290822Y0258135D01*
X0290877Y0258112D01*
X0290932Y0258085D01*
X0290984Y0258056D01*
X0291035Y0258023D01*
X0291084Y0257987D01*
X0291130Y0257949D01*
X0291174Y0257907D01*
X0291216Y0257863D01*
X0291254Y0257817D01*
X0291290Y0257768D01*
X0291323Y0257717D01*
X0291352Y0257665D01*
X0291379Y0257610D01*
X0291402Y0257555D01*
X0291422Y0257498D01*
X0291438Y0257439D01*
X0291451Y0257380D01*
X0291460Y0257321D01*
X0291465Y0257260D01*
X0291467Y0257200D01*
X0291467Y0247200D01*
X0291465Y0247140D01*
X0291460Y0247079D01*
X0291451Y0247020D01*
X0291438Y0246961D01*
X0291422Y0246902D01*
X0291402Y0246845D01*
X0291379Y0246790D01*
X0291352Y0246735D01*
X0291323Y0246683D01*
X0291290Y0246632D01*
X0291254Y0246583D01*
X0291216Y0246537D01*
X0291174Y0246493D01*
X0291130Y0246451D01*
X0291084Y0246413D01*
X0291035Y0246377D01*
X0290984Y0246344D01*
X0290932Y0246315D01*
X0290877Y0246288D01*
X0290822Y0246265D01*
X0290765Y0246245D01*
X0290706Y0246229D01*
X0290647Y0246216D01*
X0290588Y0246207D01*
X0290527Y0246202D01*
X0290467Y0246200D01*
X0287967Y0246200D01*
X0287467Y0246700D01*
X0261467Y0246700D01*
X0260967Y0246200D01*
X0258467Y0246200D01*
X0258407Y0246202D01*
X0258346Y0246207D01*
X0258287Y0246216D01*
X0258228Y0246229D01*
X0258169Y0246245D01*
X0258112Y0246265D01*
X0258057Y0246288D01*
X0258002Y0246315D01*
X0257950Y0246344D01*
X0257899Y0246377D01*
X0257850Y0246413D01*
X0257804Y0246451D01*
X0257760Y0246493D01*
X0257718Y0246537D01*
X0257680Y0246583D01*
X0257644Y0246632D01*
X0257611Y0246683D01*
X0257582Y0246735D01*
X0257555Y0246790D01*
X0257532Y0246845D01*
X0257512Y0246902D01*
X0257496Y0246961D01*
X0257483Y0247020D01*
X0257474Y0247079D01*
X0257469Y0247140D01*
X0257467Y0247200D01*
X0257467Y0257200D01*
X0257469Y0257260D01*
X0257474Y0257321D01*
X0257483Y0257380D01*
X0257496Y0257439D01*
X0257512Y0257498D01*
X0257532Y0257555D01*
X0257555Y0257610D01*
X0257582Y0257665D01*
X0257611Y0257717D01*
X0257644Y0257768D01*
X0257680Y0257817D01*
X0257718Y0257863D01*
X0257760Y0257907D01*
X0257804Y0257949D01*
X0257850Y0257987D01*
X0257899Y0258023D01*
X0257950Y0258056D01*
X0258002Y0258085D01*
X0258057Y0258112D01*
X0258112Y0258135D01*
X0258169Y0258155D01*
X0258228Y0258171D01*
X0258287Y0258184D01*
X0258346Y0258193D01*
X0258407Y0258198D01*
X0258467Y0258200D01*
X0284967Y0278700D02*
X0284967Y0305700D01*
X0284969Y0305760D01*
X0284974Y0305821D01*
X0284983Y0305880D01*
X0284996Y0305939D01*
X0285012Y0305998D01*
X0285032Y0306055D01*
X0285055Y0306110D01*
X0285082Y0306165D01*
X0285111Y0306217D01*
X0285144Y0306268D01*
X0285180Y0306317D01*
X0285218Y0306363D01*
X0285260Y0306407D01*
X0285304Y0306449D01*
X0285350Y0306487D01*
X0285399Y0306523D01*
X0285450Y0306556D01*
X0285502Y0306585D01*
X0285557Y0306612D01*
X0285612Y0306635D01*
X0285669Y0306655D01*
X0285728Y0306671D01*
X0285787Y0306684D01*
X0285846Y0306693D01*
X0285907Y0306698D01*
X0285967Y0306700D01*
X0312967Y0306700D01*
X0313027Y0306698D01*
X0313088Y0306693D01*
X0313147Y0306684D01*
X0313206Y0306671D01*
X0313265Y0306655D01*
X0313322Y0306635D01*
X0313377Y0306612D01*
X0313432Y0306585D01*
X0313484Y0306556D01*
X0313535Y0306523D01*
X0313584Y0306487D01*
X0313630Y0306449D01*
X0313674Y0306407D01*
X0313716Y0306363D01*
X0313754Y0306317D01*
X0313790Y0306268D01*
X0313823Y0306217D01*
X0313852Y0306165D01*
X0313879Y0306110D01*
X0313902Y0306055D01*
X0313922Y0305998D01*
X0313938Y0305939D01*
X0313951Y0305880D01*
X0313960Y0305821D01*
X0313965Y0305760D01*
X0313967Y0305700D01*
X0313967Y0278700D01*
X0313965Y0278640D01*
X0313960Y0278579D01*
X0313951Y0278520D01*
X0313938Y0278461D01*
X0313922Y0278402D01*
X0313902Y0278345D01*
X0313879Y0278290D01*
X0313852Y0278235D01*
X0313823Y0278183D01*
X0313790Y0278132D01*
X0313754Y0278083D01*
X0313716Y0278037D01*
X0313674Y0277993D01*
X0313630Y0277951D01*
X0313584Y0277913D01*
X0313535Y0277877D01*
X0313484Y0277844D01*
X0313432Y0277815D01*
X0313377Y0277788D01*
X0313322Y0277765D01*
X0313265Y0277745D01*
X0313206Y0277729D01*
X0313147Y0277716D01*
X0313088Y0277707D01*
X0313027Y0277702D01*
X0312967Y0277700D01*
X0285967Y0277700D01*
X0285907Y0277702D01*
X0285846Y0277707D01*
X0285787Y0277716D01*
X0285728Y0277729D01*
X0285669Y0277745D01*
X0285612Y0277765D01*
X0285557Y0277788D01*
X0285502Y0277815D01*
X0285450Y0277844D01*
X0285399Y0277877D01*
X0285350Y0277913D01*
X0285304Y0277951D01*
X0285260Y0277993D01*
X0285218Y0278037D01*
X0285180Y0278083D01*
X0285144Y0278132D01*
X0285111Y0278183D01*
X0285082Y0278235D01*
X0285055Y0278290D01*
X0285032Y0278345D01*
X0285012Y0278402D01*
X0284996Y0278461D01*
X0284983Y0278520D01*
X0284974Y0278579D01*
X0284969Y0278640D01*
X0284967Y0278700D01*
X0293467Y0292200D02*
X0297667Y0292200D01*
X0301167Y0292200D02*
X0305467Y0292200D01*
X0331467Y0288200D02*
X0331467Y0286200D01*
X0332467Y0285200D02*
X0332467Y0289200D01*
X0333467Y0289700D02*
X0333467Y0284700D01*
X0333467Y0283700D02*
X0334967Y0283700D01*
X0334967Y0290700D01*
X0334967Y0292200D01*
X0355967Y0292200D01*
X0355967Y0282200D01*
X0334967Y0282200D01*
X0334967Y0283700D01*
X0333467Y0283700D02*
X0333349Y0283702D01*
X0333231Y0283708D01*
X0333113Y0283718D01*
X0332996Y0283732D01*
X0332879Y0283750D01*
X0332762Y0283772D01*
X0332647Y0283797D01*
X0332533Y0283827D01*
X0332419Y0283861D01*
X0332307Y0283898D01*
X0332196Y0283939D01*
X0332087Y0283984D01*
X0331979Y0284032D01*
X0331873Y0284084D01*
X0331768Y0284140D01*
X0331666Y0284199D01*
X0331566Y0284261D01*
X0331468Y0284327D01*
X0331372Y0284396D01*
X0331278Y0284469D01*
X0331187Y0284544D01*
X0331099Y0284623D01*
X0331013Y0284704D01*
X0330930Y0284789D01*
X0330850Y0284876D01*
X0330773Y0284965D01*
X0330699Y0285058D01*
X0330629Y0285152D01*
X0330561Y0285249D01*
X0330497Y0285349D01*
X0330436Y0285450D01*
X0330379Y0285553D01*
X0330325Y0285659D01*
X0330274Y0285766D01*
X0330228Y0285874D01*
X0330185Y0285984D01*
X0330146Y0286096D01*
X0330110Y0286209D01*
X0330079Y0286323D01*
X0330051Y0286438D01*
X0330027Y0286553D01*
X0330007Y0286670D01*
X0329991Y0286787D01*
X0329979Y0286905D01*
X0329971Y0287023D01*
X0329967Y0287141D01*
X0329967Y0287259D01*
X0329971Y0287377D01*
X0329979Y0287495D01*
X0329991Y0287613D01*
X0330007Y0287730D01*
X0330027Y0287847D01*
X0330051Y0287962D01*
X0330079Y0288077D01*
X0330110Y0288191D01*
X0330146Y0288304D01*
X0330185Y0288416D01*
X0330228Y0288526D01*
X0330274Y0288634D01*
X0330325Y0288741D01*
X0330379Y0288847D01*
X0330436Y0288950D01*
X0330497Y0289051D01*
X0330561Y0289151D01*
X0330629Y0289248D01*
X0330699Y0289342D01*
X0330773Y0289435D01*
X0330850Y0289524D01*
X0330930Y0289611D01*
X0331013Y0289696D01*
X0331099Y0289777D01*
X0331187Y0289856D01*
X0331278Y0289931D01*
X0331372Y0290004D01*
X0331468Y0290073D01*
X0331566Y0290139D01*
X0331666Y0290201D01*
X0331768Y0290260D01*
X0331873Y0290316D01*
X0331979Y0290368D01*
X0332087Y0290416D01*
X0332196Y0290461D01*
X0332307Y0290502D01*
X0332419Y0290539D01*
X0332533Y0290573D01*
X0332647Y0290603D01*
X0332762Y0290628D01*
X0332879Y0290650D01*
X0332996Y0290668D01*
X0333113Y0290682D01*
X0333231Y0290692D01*
X0333349Y0290698D01*
X0333467Y0290700D01*
X0334967Y0290700D01*
X0338322Y0303922D02*
X0338320Y0303997D01*
X0338314Y0304072D01*
X0338305Y0304146D01*
X0338291Y0304220D01*
X0338274Y0304293D01*
X0338253Y0304365D01*
X0338228Y0304435D01*
X0338199Y0304505D01*
X0338167Y0304572D01*
X0338132Y0304638D01*
X0338093Y0304703D01*
X0338051Y0304765D01*
X0338005Y0304824D01*
X0337957Y0304882D01*
X0337906Y0304936D01*
X0337852Y0304988D01*
X0337795Y0305037D01*
X0337736Y0305083D01*
X0337675Y0305126D01*
X0337611Y0305166D01*
X0337611Y0305167D02*
X0335656Y0306233D01*
X0336367Y0308900D02*
X0336468Y0308898D01*
X0336569Y0308892D01*
X0336669Y0308883D01*
X0336769Y0308869D01*
X0336869Y0308852D01*
X0336968Y0308832D01*
X0337065Y0308807D01*
X0337162Y0308779D01*
X0337258Y0308747D01*
X0337353Y0308711D01*
X0337446Y0308672D01*
X0337537Y0308630D01*
X0337627Y0308584D01*
X0337715Y0308534D01*
X0337801Y0308482D01*
X0337885Y0308426D01*
X0337967Y0308367D01*
X0335656Y0306234D02*
X0335592Y0306274D01*
X0335531Y0306317D01*
X0335472Y0306363D01*
X0335415Y0306412D01*
X0335361Y0306464D01*
X0335310Y0306518D01*
X0335262Y0306576D01*
X0335216Y0306635D01*
X0335174Y0306697D01*
X0335135Y0306762D01*
X0335100Y0306828D01*
X0335068Y0306895D01*
X0335039Y0306965D01*
X0335014Y0307035D01*
X0334993Y0307107D01*
X0334976Y0307180D01*
X0334962Y0307254D01*
X0334953Y0307328D01*
X0334947Y0307403D01*
X0334945Y0307478D01*
X0334947Y0307552D01*
X0334953Y0307627D01*
X0334963Y0307700D01*
X0334976Y0307774D01*
X0334993Y0307846D01*
X0335015Y0307917D01*
X0335039Y0307988D01*
X0335068Y0308056D01*
X0335100Y0308124D01*
X0335136Y0308189D01*
X0335174Y0308252D01*
X0335217Y0308314D01*
X0335262Y0308373D01*
X0335310Y0308430D01*
X0335361Y0308484D01*
X0335416Y0308535D01*
X0335472Y0308583D01*
X0335531Y0308628D01*
X0335593Y0308671D01*
X0335656Y0308709D01*
X0335721Y0308745D01*
X0335789Y0308777D01*
X0335857Y0308806D01*
X0335928Y0308830D01*
X0335999Y0308852D01*
X0336071Y0308869D01*
X0336145Y0308882D01*
X0336218Y0308892D01*
X0336293Y0308898D01*
X0336367Y0308900D01*
X0334767Y0303389D02*
X0334844Y0303314D01*
X0334924Y0303241D01*
X0335007Y0303172D01*
X0335092Y0303105D01*
X0335179Y0303042D01*
X0335268Y0302982D01*
X0335360Y0302925D01*
X0335453Y0302871D01*
X0335549Y0302821D01*
X0335646Y0302774D01*
X0335745Y0302731D01*
X0335845Y0302691D01*
X0335946Y0302655D01*
X0336049Y0302623D01*
X0336153Y0302594D01*
X0336258Y0302569D01*
X0336364Y0302548D01*
X0336470Y0302531D01*
X0336577Y0302517D01*
X0336685Y0302508D01*
X0336792Y0302502D01*
X0336900Y0302500D01*
X0336974Y0302502D01*
X0337049Y0302508D01*
X0337122Y0302518D01*
X0337196Y0302531D01*
X0337268Y0302548D01*
X0337339Y0302570D01*
X0337410Y0302594D01*
X0337478Y0302623D01*
X0337546Y0302655D01*
X0337611Y0302691D01*
X0337674Y0302729D01*
X0337736Y0302772D01*
X0337795Y0302817D01*
X0337852Y0302865D01*
X0337906Y0302916D01*
X0337957Y0302970D01*
X0338005Y0303027D01*
X0338050Y0303086D01*
X0338093Y0303148D01*
X0338131Y0303211D01*
X0338167Y0303276D01*
X0338199Y0303344D01*
X0338228Y0303412D01*
X0338252Y0303483D01*
X0338274Y0303554D01*
X0338291Y0303626D01*
X0338304Y0303700D01*
X0338314Y0303773D01*
X0338320Y0303848D01*
X0338322Y0303922D01*
X0340861Y0303567D02*
X0340861Y0308900D01*
X0340150Y0306767D02*
X0342283Y0306767D01*
X0344558Y0305344D02*
X0344558Y0303567D01*
X0344558Y0304633D02*
X0347403Y0304633D01*
X0347403Y0305344D01*
X0347401Y0305418D01*
X0347395Y0305493D01*
X0347385Y0305566D01*
X0347372Y0305640D01*
X0347355Y0305712D01*
X0347333Y0305783D01*
X0347309Y0305854D01*
X0347280Y0305922D01*
X0347248Y0305990D01*
X0347212Y0306055D01*
X0347174Y0306118D01*
X0347131Y0306180D01*
X0347086Y0306239D01*
X0347038Y0306296D01*
X0346987Y0306350D01*
X0346933Y0306401D01*
X0346876Y0306449D01*
X0346817Y0306494D01*
X0346755Y0306537D01*
X0346692Y0306575D01*
X0346627Y0306611D01*
X0346559Y0306643D01*
X0346491Y0306672D01*
X0346420Y0306696D01*
X0346349Y0306718D01*
X0346277Y0306735D01*
X0346203Y0306748D01*
X0346130Y0306758D01*
X0346055Y0306764D01*
X0345981Y0306766D01*
X0345907Y0306764D01*
X0345832Y0306758D01*
X0345759Y0306748D01*
X0345685Y0306735D01*
X0345613Y0306718D01*
X0345542Y0306696D01*
X0345471Y0306672D01*
X0345403Y0306643D01*
X0345335Y0306611D01*
X0345270Y0306575D01*
X0345207Y0306537D01*
X0345145Y0306494D01*
X0345086Y0306449D01*
X0345029Y0306401D01*
X0344975Y0306350D01*
X0344924Y0306296D01*
X0344876Y0306239D01*
X0344831Y0306180D01*
X0344788Y0306118D01*
X0344750Y0306055D01*
X0344714Y0305990D01*
X0344682Y0305922D01*
X0344653Y0305854D01*
X0344629Y0305783D01*
X0344607Y0305712D01*
X0344590Y0305640D01*
X0344577Y0305566D01*
X0344567Y0305493D01*
X0344561Y0305418D01*
X0344559Y0305344D01*
X0344558Y0303567D02*
X0344560Y0303503D01*
X0344566Y0303438D01*
X0344575Y0303375D01*
X0344589Y0303312D01*
X0344606Y0303250D01*
X0344627Y0303189D01*
X0344652Y0303129D01*
X0344680Y0303071D01*
X0344712Y0303015D01*
X0344747Y0302961D01*
X0344785Y0302909D01*
X0344826Y0302859D01*
X0344871Y0302813D01*
X0344917Y0302768D01*
X0344967Y0302727D01*
X0345019Y0302689D01*
X0345073Y0302654D01*
X0345129Y0302622D01*
X0345187Y0302594D01*
X0345247Y0302569D01*
X0345308Y0302548D01*
X0345370Y0302531D01*
X0345433Y0302517D01*
X0345496Y0302508D01*
X0345561Y0302502D01*
X0345625Y0302500D01*
X0347403Y0302500D01*
X0351107Y0302500D02*
X0352707Y0302500D01*
X0352707Y0305700D01*
X0352707Y0304989D02*
X0351107Y0304989D01*
X0352708Y0305700D02*
X0352706Y0305764D01*
X0352700Y0305829D01*
X0352691Y0305892D01*
X0352677Y0305955D01*
X0352660Y0306017D01*
X0352639Y0306078D01*
X0352614Y0306138D01*
X0352586Y0306196D01*
X0352554Y0306252D01*
X0352519Y0306306D01*
X0352481Y0306358D01*
X0352440Y0306408D01*
X0352395Y0306454D01*
X0352349Y0306499D01*
X0352299Y0306540D01*
X0352247Y0306578D01*
X0352193Y0306613D01*
X0352137Y0306645D01*
X0352079Y0306673D01*
X0352019Y0306698D01*
X0351958Y0306719D01*
X0351896Y0306736D01*
X0351833Y0306750D01*
X0351770Y0306759D01*
X0351705Y0306765D01*
X0351641Y0306767D01*
X0350219Y0306767D01*
X0351107Y0304988D02*
X0351037Y0304986D01*
X0350968Y0304980D01*
X0350899Y0304970D01*
X0350830Y0304957D01*
X0350763Y0304939D01*
X0350696Y0304918D01*
X0350631Y0304893D01*
X0350567Y0304865D01*
X0350505Y0304833D01*
X0350445Y0304797D01*
X0350387Y0304759D01*
X0350331Y0304717D01*
X0350278Y0304672D01*
X0350227Y0304624D01*
X0350179Y0304573D01*
X0350134Y0304520D01*
X0350092Y0304464D01*
X0350054Y0304406D01*
X0350018Y0304346D01*
X0349986Y0304284D01*
X0349958Y0304220D01*
X0349933Y0304155D01*
X0349912Y0304088D01*
X0349894Y0304021D01*
X0349881Y0303952D01*
X0349871Y0303883D01*
X0349865Y0303814D01*
X0349863Y0303744D01*
X0349865Y0303674D01*
X0349871Y0303605D01*
X0349881Y0303536D01*
X0349894Y0303467D01*
X0349912Y0303400D01*
X0349933Y0303333D01*
X0349958Y0303268D01*
X0349986Y0303204D01*
X0350018Y0303142D01*
X0350054Y0303082D01*
X0350092Y0303024D01*
X0350134Y0302968D01*
X0350179Y0302915D01*
X0350227Y0302864D01*
X0350278Y0302816D01*
X0350331Y0302771D01*
X0350387Y0302729D01*
X0350445Y0302691D01*
X0350505Y0302655D01*
X0350567Y0302623D01*
X0350631Y0302595D01*
X0350696Y0302570D01*
X0350763Y0302549D01*
X0350830Y0302531D01*
X0350899Y0302518D01*
X0350968Y0302508D01*
X0351037Y0302502D01*
X0351107Y0302500D01*
X0355402Y0303567D02*
X0355402Y0305700D01*
X0355401Y0305700D02*
X0355403Y0305764D01*
X0355409Y0305829D01*
X0355418Y0305892D01*
X0355432Y0305955D01*
X0355449Y0306017D01*
X0355470Y0306078D01*
X0355495Y0306138D01*
X0355523Y0306196D01*
X0355555Y0306252D01*
X0355590Y0306306D01*
X0355628Y0306358D01*
X0355669Y0306408D01*
X0355714Y0306454D01*
X0355760Y0306499D01*
X0355810Y0306540D01*
X0355862Y0306578D01*
X0355916Y0306613D01*
X0355972Y0306645D01*
X0356030Y0306673D01*
X0356090Y0306698D01*
X0356151Y0306719D01*
X0356213Y0306736D01*
X0356276Y0306750D01*
X0356339Y0306759D01*
X0356404Y0306765D01*
X0356468Y0306767D01*
X0358246Y0306767D01*
X0358246Y0308900D02*
X0358246Y0302500D01*
X0356468Y0302500D01*
X0356404Y0302502D01*
X0356339Y0302508D01*
X0356276Y0302517D01*
X0356213Y0302531D01*
X0356151Y0302548D01*
X0356090Y0302569D01*
X0356030Y0302594D01*
X0355972Y0302622D01*
X0355916Y0302654D01*
X0355862Y0302689D01*
X0355810Y0302727D01*
X0355760Y0302768D01*
X0355714Y0302813D01*
X0355669Y0302859D01*
X0355628Y0302909D01*
X0355590Y0302961D01*
X0355555Y0303015D01*
X0355523Y0303071D01*
X0355495Y0303129D01*
X0355470Y0303189D01*
X0355449Y0303250D01*
X0355432Y0303312D01*
X0355418Y0303375D01*
X0355409Y0303438D01*
X0355403Y0303503D01*
X0355401Y0303567D01*
X0360764Y0306767D02*
X0362186Y0302500D01*
X0361475Y0300367D02*
X0363608Y0306767D01*
X0361475Y0300367D02*
X0360764Y0300367D01*
X0342283Y0302500D02*
X0341928Y0302500D01*
X0341864Y0302502D01*
X0341799Y0302508D01*
X0341736Y0302517D01*
X0341673Y0302531D01*
X0341611Y0302548D01*
X0341550Y0302569D01*
X0341490Y0302594D01*
X0341432Y0302622D01*
X0341376Y0302654D01*
X0341322Y0302689D01*
X0341270Y0302727D01*
X0341220Y0302768D01*
X0341174Y0302813D01*
X0341129Y0302859D01*
X0341088Y0302909D01*
X0341050Y0302961D01*
X0341015Y0303015D01*
X0340983Y0303071D01*
X0340955Y0303129D01*
X0340930Y0303189D01*
X0340909Y0303250D01*
X0340892Y0303312D01*
X0340878Y0303375D01*
X0340869Y0303438D01*
X0340863Y0303503D01*
X0340861Y0303567D01*
X0340967Y0258200D02*
X0338467Y0258200D01*
X0338407Y0258198D01*
X0338346Y0258193D01*
X0338287Y0258184D01*
X0338228Y0258171D01*
X0338169Y0258155D01*
X0338112Y0258135D01*
X0338057Y0258112D01*
X0338002Y0258085D01*
X0337950Y0258056D01*
X0337899Y0258023D01*
X0337850Y0257987D01*
X0337804Y0257949D01*
X0337760Y0257907D01*
X0337718Y0257863D01*
X0337680Y0257817D01*
X0337644Y0257768D01*
X0337611Y0257717D01*
X0337582Y0257665D01*
X0337555Y0257610D01*
X0337532Y0257555D01*
X0337512Y0257498D01*
X0337496Y0257439D01*
X0337483Y0257380D01*
X0337474Y0257321D01*
X0337469Y0257260D01*
X0337467Y0257200D01*
X0337467Y0247200D01*
X0337469Y0247140D01*
X0337474Y0247079D01*
X0337483Y0247020D01*
X0337496Y0246961D01*
X0337512Y0246902D01*
X0337532Y0246845D01*
X0337555Y0246790D01*
X0337582Y0246735D01*
X0337611Y0246683D01*
X0337644Y0246632D01*
X0337680Y0246583D01*
X0337718Y0246537D01*
X0337760Y0246493D01*
X0337804Y0246451D01*
X0337850Y0246413D01*
X0337899Y0246377D01*
X0337950Y0246344D01*
X0338002Y0246315D01*
X0338057Y0246288D01*
X0338112Y0246265D01*
X0338169Y0246245D01*
X0338228Y0246229D01*
X0338287Y0246216D01*
X0338346Y0246207D01*
X0338407Y0246202D01*
X0338467Y0246200D01*
X0340967Y0246200D01*
X0341467Y0246700D01*
X0367467Y0246700D01*
X0367967Y0246200D01*
X0370467Y0246200D01*
X0370527Y0246202D01*
X0370588Y0246207D01*
X0370647Y0246216D01*
X0370706Y0246229D01*
X0370765Y0246245D01*
X0370822Y0246265D01*
X0370877Y0246288D01*
X0370932Y0246315D01*
X0370984Y0246344D01*
X0371035Y0246377D01*
X0371084Y0246413D01*
X0371130Y0246451D01*
X0371174Y0246493D01*
X0371216Y0246537D01*
X0371254Y0246583D01*
X0371290Y0246632D01*
X0371323Y0246683D01*
X0371352Y0246735D01*
X0371379Y0246790D01*
X0371402Y0246845D01*
X0371422Y0246902D01*
X0371438Y0246961D01*
X0371451Y0247020D01*
X0371460Y0247079D01*
X0371465Y0247140D01*
X0371467Y0247200D01*
X0371467Y0257200D01*
X0371465Y0257260D01*
X0371460Y0257321D01*
X0371451Y0257380D01*
X0371438Y0257439D01*
X0371422Y0257498D01*
X0371402Y0257555D01*
X0371379Y0257610D01*
X0371352Y0257665D01*
X0371323Y0257717D01*
X0371290Y0257768D01*
X0371254Y0257817D01*
X0371216Y0257863D01*
X0371174Y0257907D01*
X0371130Y0257949D01*
X0371084Y0257987D01*
X0371035Y0258023D01*
X0370984Y0258056D01*
X0370932Y0258085D01*
X0370877Y0258112D01*
X0370822Y0258135D01*
X0370765Y0258155D01*
X0370706Y0258171D01*
X0370647Y0258184D01*
X0370588Y0258193D01*
X0370527Y0258198D01*
X0370467Y0258200D01*
X0367967Y0258200D01*
X0367467Y0257700D01*
X0341467Y0257700D01*
X0340967Y0258200D01*
X0134467Y0268700D02*
X0134467Y0245700D01*
X0094467Y0245700D01*
X0094467Y0253200D01*
X0094593Y0253202D01*
X0094718Y0253208D01*
X0094843Y0253218D01*
X0094968Y0253232D01*
X0095093Y0253249D01*
X0095217Y0253271D01*
X0095340Y0253296D01*
X0095462Y0253326D01*
X0095583Y0253359D01*
X0095703Y0253396D01*
X0095822Y0253436D01*
X0095939Y0253481D01*
X0096056Y0253529D01*
X0096170Y0253581D01*
X0096283Y0253636D01*
X0096394Y0253695D01*
X0096503Y0253757D01*
X0096610Y0253823D01*
X0096715Y0253892D01*
X0096818Y0253964D01*
X0096919Y0254039D01*
X0097017Y0254118D01*
X0097112Y0254200D01*
X0097205Y0254284D01*
X0097295Y0254372D01*
X0097383Y0254462D01*
X0097467Y0254555D01*
X0097549Y0254650D01*
X0097628Y0254748D01*
X0097703Y0254849D01*
X0097775Y0254952D01*
X0097844Y0255057D01*
X0097910Y0255164D01*
X0097972Y0255273D01*
X0098031Y0255384D01*
X0098086Y0255497D01*
X0098138Y0255611D01*
X0098186Y0255728D01*
X0098231Y0255845D01*
X0098271Y0255964D01*
X0098308Y0256084D01*
X0098341Y0256205D01*
X0098371Y0256327D01*
X0098396Y0256450D01*
X0098418Y0256574D01*
X0098435Y0256699D01*
X0098449Y0256824D01*
X0098459Y0256949D01*
X0098465Y0257074D01*
X0098467Y0257200D01*
X0098465Y0257326D01*
X0098459Y0257451D01*
X0098449Y0257576D01*
X0098435Y0257701D01*
X0098418Y0257826D01*
X0098396Y0257950D01*
X0098371Y0258073D01*
X0098341Y0258195D01*
X0098308Y0258316D01*
X0098271Y0258436D01*
X0098231Y0258555D01*
X0098186Y0258672D01*
X0098138Y0258789D01*
X0098086Y0258903D01*
X0098031Y0259016D01*
X0097972Y0259127D01*
X0097910Y0259236D01*
X0097844Y0259343D01*
X0097775Y0259448D01*
X0097703Y0259551D01*
X0097628Y0259652D01*
X0097549Y0259750D01*
X0097467Y0259845D01*
X0097383Y0259938D01*
X0097295Y0260028D01*
X0097205Y0260116D01*
X0097112Y0260200D01*
X0097017Y0260282D01*
X0096919Y0260361D01*
X0096818Y0260436D01*
X0096715Y0260508D01*
X0096610Y0260577D01*
X0096503Y0260643D01*
X0096394Y0260705D01*
X0096283Y0260764D01*
X0096170Y0260819D01*
X0096056Y0260871D01*
X0095939Y0260919D01*
X0095822Y0260964D01*
X0095703Y0261004D01*
X0095583Y0261041D01*
X0095462Y0261074D01*
X0095340Y0261104D01*
X0095217Y0261129D01*
X0095093Y0261151D01*
X0094968Y0261168D01*
X0094843Y0261182D01*
X0094718Y0261192D01*
X0094593Y0261198D01*
X0094467Y0261200D01*
X0094467Y0268700D01*
X0134467Y0268700D01*
X0066467Y0267200D02*
X0066467Y0257200D01*
X0066465Y0257140D01*
X0066460Y0257079D01*
X0066451Y0257020D01*
X0066438Y0256961D01*
X0066422Y0256902D01*
X0066402Y0256845D01*
X0066379Y0256790D01*
X0066352Y0256735D01*
X0066323Y0256683D01*
X0066290Y0256632D01*
X0066254Y0256583D01*
X0066216Y0256537D01*
X0066174Y0256493D01*
X0066130Y0256451D01*
X0066084Y0256413D01*
X0066035Y0256377D01*
X0065984Y0256344D01*
X0065932Y0256315D01*
X0065877Y0256288D01*
X0065822Y0256265D01*
X0065765Y0256245D01*
X0065706Y0256229D01*
X0065647Y0256216D01*
X0065588Y0256207D01*
X0065527Y0256202D01*
X0065467Y0256200D01*
X0062967Y0256200D01*
X0062467Y0256700D01*
X0036467Y0256700D01*
X0035967Y0256200D01*
X0033467Y0256200D01*
X0033407Y0256202D01*
X0033346Y0256207D01*
X0033287Y0256216D01*
X0033228Y0256229D01*
X0033169Y0256245D01*
X0033112Y0256265D01*
X0033057Y0256288D01*
X0033002Y0256315D01*
X0032950Y0256344D01*
X0032899Y0256377D01*
X0032850Y0256413D01*
X0032804Y0256451D01*
X0032760Y0256493D01*
X0032718Y0256537D01*
X0032680Y0256583D01*
X0032644Y0256632D01*
X0032611Y0256683D01*
X0032582Y0256735D01*
X0032555Y0256790D01*
X0032532Y0256845D01*
X0032512Y0256902D01*
X0032496Y0256961D01*
X0032483Y0257020D01*
X0032474Y0257079D01*
X0032469Y0257140D01*
X0032467Y0257200D01*
X0032467Y0267200D01*
X0032469Y0267260D01*
X0032474Y0267321D01*
X0032483Y0267380D01*
X0032496Y0267439D01*
X0032512Y0267498D01*
X0032532Y0267555D01*
X0032555Y0267610D01*
X0032582Y0267665D01*
X0032611Y0267717D01*
X0032644Y0267768D01*
X0032680Y0267817D01*
X0032718Y0267863D01*
X0032760Y0267907D01*
X0032804Y0267949D01*
X0032850Y0267987D01*
X0032899Y0268023D01*
X0032950Y0268056D01*
X0033002Y0268085D01*
X0033057Y0268112D01*
X0033112Y0268135D01*
X0033169Y0268155D01*
X0033228Y0268171D01*
X0033287Y0268184D01*
X0033346Y0268193D01*
X0033407Y0268198D01*
X0033467Y0268200D01*
X0035967Y0268200D01*
X0036467Y0267700D01*
X0062467Y0267700D01*
X0062967Y0268200D01*
X0065467Y0268200D01*
X0065527Y0268198D01*
X0065588Y0268193D01*
X0065647Y0268184D01*
X0065706Y0268171D01*
X0065765Y0268155D01*
X0065822Y0268135D01*
X0065877Y0268112D01*
X0065932Y0268085D01*
X0065984Y0268056D01*
X0066035Y0268023D01*
X0066084Y0267987D01*
X0066130Y0267949D01*
X0066174Y0267907D01*
X0066216Y0267863D01*
X0066254Y0267817D01*
X0066290Y0267768D01*
X0066323Y0267717D01*
X0066352Y0267665D01*
X0066379Y0267610D01*
X0066402Y0267555D01*
X0066422Y0267498D01*
X0066438Y0267439D01*
X0066451Y0267380D01*
X0066460Y0267321D01*
X0066465Y0267260D01*
X0066467Y0267200D01*
X0050967Y0287200D02*
X0050967Y0297200D01*
X0029967Y0297200D01*
X0029967Y0295700D01*
X0029967Y0288700D01*
X0028467Y0288700D01*
X0028467Y0289700D02*
X0028467Y0294700D01*
X0028467Y0295700D02*
X0029967Y0295700D01*
X0027467Y0294200D02*
X0027467Y0290200D01*
X0026467Y0291200D02*
X0026467Y0293200D01*
X0028467Y0295700D02*
X0028349Y0295698D01*
X0028231Y0295692D01*
X0028113Y0295682D01*
X0027996Y0295668D01*
X0027879Y0295650D01*
X0027762Y0295628D01*
X0027647Y0295603D01*
X0027533Y0295573D01*
X0027419Y0295539D01*
X0027307Y0295502D01*
X0027196Y0295461D01*
X0027087Y0295416D01*
X0026979Y0295368D01*
X0026873Y0295316D01*
X0026768Y0295260D01*
X0026666Y0295201D01*
X0026566Y0295139D01*
X0026468Y0295073D01*
X0026372Y0295004D01*
X0026278Y0294931D01*
X0026187Y0294856D01*
X0026099Y0294777D01*
X0026013Y0294696D01*
X0025930Y0294611D01*
X0025850Y0294524D01*
X0025773Y0294435D01*
X0025699Y0294342D01*
X0025629Y0294248D01*
X0025561Y0294151D01*
X0025497Y0294051D01*
X0025436Y0293950D01*
X0025379Y0293847D01*
X0025325Y0293741D01*
X0025274Y0293634D01*
X0025228Y0293526D01*
X0025185Y0293416D01*
X0025146Y0293304D01*
X0025110Y0293191D01*
X0025079Y0293077D01*
X0025051Y0292962D01*
X0025027Y0292847D01*
X0025007Y0292730D01*
X0024991Y0292613D01*
X0024979Y0292495D01*
X0024971Y0292377D01*
X0024967Y0292259D01*
X0024967Y0292141D01*
X0024971Y0292023D01*
X0024979Y0291905D01*
X0024991Y0291787D01*
X0025007Y0291670D01*
X0025027Y0291553D01*
X0025051Y0291438D01*
X0025079Y0291323D01*
X0025110Y0291209D01*
X0025146Y0291096D01*
X0025185Y0290984D01*
X0025228Y0290874D01*
X0025274Y0290766D01*
X0025325Y0290659D01*
X0025379Y0290553D01*
X0025436Y0290450D01*
X0025497Y0290349D01*
X0025561Y0290249D01*
X0025629Y0290152D01*
X0025699Y0290058D01*
X0025773Y0289965D01*
X0025850Y0289876D01*
X0025930Y0289789D01*
X0026013Y0289704D01*
X0026099Y0289623D01*
X0026187Y0289544D01*
X0026278Y0289469D01*
X0026372Y0289396D01*
X0026468Y0289327D01*
X0026566Y0289261D01*
X0026666Y0289199D01*
X0026768Y0289140D01*
X0026873Y0289084D01*
X0026979Y0289032D01*
X0027087Y0288984D01*
X0027196Y0288939D01*
X0027307Y0288898D01*
X0027419Y0288861D01*
X0027533Y0288827D01*
X0027647Y0288797D01*
X0027762Y0288772D01*
X0027879Y0288750D01*
X0027996Y0288732D01*
X0028113Y0288718D01*
X0028231Y0288708D01*
X0028349Y0288702D01*
X0028467Y0288700D01*
X0029967Y0288700D02*
X0029967Y0287200D01*
X0050967Y0287200D01*
X0052194Y0305367D02*
X0052905Y0305367D01*
X0055038Y0311767D01*
X0052194Y0311767D02*
X0053616Y0307500D01*
X0050181Y0307500D02*
X0048581Y0310522D01*
X0047337Y0309633D02*
X0050181Y0311767D01*
X0047337Y0313900D02*
X0047337Y0307500D01*
X0044371Y0307500D02*
X0044371Y0310700D01*
X0044369Y0310764D01*
X0044363Y0310829D01*
X0044354Y0310892D01*
X0044340Y0310955D01*
X0044323Y0311017D01*
X0044302Y0311078D01*
X0044277Y0311138D01*
X0044249Y0311196D01*
X0044217Y0311252D01*
X0044182Y0311306D01*
X0044144Y0311358D01*
X0044103Y0311408D01*
X0044058Y0311454D01*
X0044012Y0311499D01*
X0043962Y0311540D01*
X0043910Y0311578D01*
X0043856Y0311613D01*
X0043800Y0311645D01*
X0043742Y0311673D01*
X0043682Y0311698D01*
X0043621Y0311719D01*
X0043559Y0311736D01*
X0043496Y0311750D01*
X0043433Y0311759D01*
X0043368Y0311765D01*
X0043304Y0311767D01*
X0041527Y0311767D01*
X0041527Y0307500D01*
X0038846Y0307500D02*
X0038846Y0311767D01*
X0039024Y0313544D02*
X0038668Y0313544D01*
X0038668Y0313900D01*
X0039024Y0313900D01*
X0039024Y0313544D01*
X0035671Y0313900D02*
X0035671Y0308567D01*
X0035673Y0308503D01*
X0035679Y0308438D01*
X0035688Y0308375D01*
X0035702Y0308312D01*
X0035719Y0308250D01*
X0035740Y0308189D01*
X0035765Y0308129D01*
X0035793Y0308071D01*
X0035825Y0308015D01*
X0035860Y0307961D01*
X0035898Y0307909D01*
X0035939Y0307859D01*
X0035984Y0307813D01*
X0036030Y0307768D01*
X0036080Y0307727D01*
X0036132Y0307689D01*
X0036186Y0307654D01*
X0036242Y0307622D01*
X0036300Y0307594D01*
X0036360Y0307569D01*
X0036421Y0307548D01*
X0036483Y0307531D01*
X0036546Y0307517D01*
X0036609Y0307508D01*
X0036674Y0307502D01*
X0036738Y0307500D01*
X0031544Y0307500D02*
X0029767Y0307500D01*
X0029767Y0313900D01*
X0031544Y0313900D01*
X0031618Y0313898D01*
X0031693Y0313892D01*
X0031766Y0313882D01*
X0031840Y0313869D01*
X0031912Y0313852D01*
X0031983Y0313830D01*
X0032054Y0313806D01*
X0032122Y0313777D01*
X0032190Y0313745D01*
X0032255Y0313709D01*
X0032318Y0313671D01*
X0032380Y0313628D01*
X0032439Y0313583D01*
X0032496Y0313535D01*
X0032550Y0313484D01*
X0032601Y0313430D01*
X0032649Y0313373D01*
X0032694Y0313314D01*
X0032737Y0313252D01*
X0032775Y0313189D01*
X0032811Y0313124D01*
X0032843Y0313056D01*
X0032872Y0312988D01*
X0032896Y0312917D01*
X0032918Y0312846D01*
X0032935Y0312774D01*
X0032948Y0312700D01*
X0032958Y0312627D01*
X0032964Y0312552D01*
X0032966Y0312478D01*
X0032964Y0312404D01*
X0032958Y0312329D01*
X0032948Y0312256D01*
X0032935Y0312182D01*
X0032918Y0312110D01*
X0032896Y0312039D01*
X0032872Y0311968D01*
X0032843Y0311900D01*
X0032811Y0311832D01*
X0032775Y0311767D01*
X0032737Y0311704D01*
X0032694Y0311642D01*
X0032649Y0311583D01*
X0032601Y0311526D01*
X0032550Y0311472D01*
X0032496Y0311421D01*
X0032439Y0311373D01*
X0032380Y0311328D01*
X0032318Y0311285D01*
X0032255Y0311247D01*
X0032190Y0311211D01*
X0032122Y0311179D01*
X0032054Y0311150D01*
X0031983Y0311126D01*
X0031912Y0311104D01*
X0031840Y0311087D01*
X0031766Y0311074D01*
X0031693Y0311064D01*
X0031618Y0311058D01*
X0031544Y0311056D01*
X0029767Y0311056D01*
X0031544Y0311056D02*
X0031627Y0311054D01*
X0031710Y0311048D01*
X0031793Y0311038D01*
X0031876Y0311025D01*
X0031957Y0311007D01*
X0032038Y0310986D01*
X0032117Y0310961D01*
X0032195Y0310932D01*
X0032272Y0310900D01*
X0032347Y0310864D01*
X0032421Y0310825D01*
X0032492Y0310782D01*
X0032562Y0310736D01*
X0032629Y0310686D01*
X0032694Y0310634D01*
X0032756Y0310579D01*
X0032816Y0310520D01*
X0032873Y0310459D01*
X0032927Y0310396D01*
X0032978Y0310330D01*
X0033025Y0310261D01*
X0033070Y0310191D01*
X0033111Y0310118D01*
X0033148Y0310044D01*
X0033183Y0309968D01*
X0033213Y0309890D01*
X0033240Y0309812D01*
X0033263Y0309731D01*
X0033283Y0309650D01*
X0033298Y0309568D01*
X0033310Y0309486D01*
X0033318Y0309403D01*
X0033322Y0309320D01*
X0033322Y0309236D01*
X0033318Y0309153D01*
X0033310Y0309070D01*
X0033298Y0308988D01*
X0033283Y0308906D01*
X0033263Y0308825D01*
X0033240Y0308744D01*
X0033213Y0308666D01*
X0033183Y0308588D01*
X0033148Y0308512D01*
X0033111Y0308438D01*
X0033070Y0308365D01*
X0033025Y0308295D01*
X0032978Y0308226D01*
X0032927Y0308160D01*
X0032873Y0308097D01*
X0032816Y0308036D01*
X0032756Y0307977D01*
X0032694Y0307922D01*
X0032629Y0307870D01*
X0032562Y0307820D01*
X0032492Y0307774D01*
X0032421Y0307731D01*
X0032347Y0307692D01*
X0032272Y0307656D01*
X0032195Y0307624D01*
X0032117Y0307595D01*
X0032038Y0307570D01*
X0031957Y0307549D01*
X0031876Y0307531D01*
X0031793Y0307518D01*
X0031710Y0307508D01*
X0031627Y0307502D01*
X0031544Y0307500D01*
D12*
X0044042Y0226600D02*
X0049242Y0203200D01*
X0054442Y0218800D01*
X0059642Y0203200D01*
X0064842Y0226600D01*
X0039352Y0220100D02*
X0039352Y0209700D01*
X0039350Y0209540D01*
X0039344Y0209381D01*
X0039334Y0209222D01*
X0039321Y0209063D01*
X0039303Y0208904D01*
X0039282Y0208746D01*
X0039256Y0208589D01*
X0039227Y0208432D01*
X0039194Y0208276D01*
X0039157Y0208121D01*
X0039117Y0207966D01*
X0039072Y0207813D01*
X0039024Y0207661D01*
X0038972Y0207510D01*
X0038916Y0207361D01*
X0038857Y0207213D01*
X0038794Y0207066D01*
X0038728Y0206921D01*
X0038658Y0206778D01*
X0038584Y0206636D01*
X0038508Y0206496D01*
X0038427Y0206358D01*
X0038344Y0206223D01*
X0038257Y0206089D01*
X0038166Y0205957D01*
X0038073Y0205828D01*
X0037976Y0205701D01*
X0037877Y0205576D01*
X0037774Y0205454D01*
X0037668Y0205335D01*
X0037560Y0205218D01*
X0037448Y0205104D01*
X0037334Y0204992D01*
X0037217Y0204884D01*
X0037098Y0204778D01*
X0036976Y0204675D01*
X0036851Y0204576D01*
X0036724Y0204479D01*
X0036595Y0204386D01*
X0036463Y0204295D01*
X0036329Y0204208D01*
X0036194Y0204125D01*
X0036056Y0204044D01*
X0035916Y0203968D01*
X0035774Y0203894D01*
X0035631Y0203824D01*
X0035486Y0203758D01*
X0035339Y0203695D01*
X0035191Y0203636D01*
X0035042Y0203580D01*
X0034891Y0203528D01*
X0034739Y0203480D01*
X0034586Y0203435D01*
X0034431Y0203395D01*
X0034276Y0203358D01*
X0034120Y0203325D01*
X0033963Y0203296D01*
X0033806Y0203270D01*
X0033648Y0203249D01*
X0033489Y0203231D01*
X0033330Y0203218D01*
X0033171Y0203208D01*
X0033012Y0203202D01*
X0032852Y0203200D01*
X0032692Y0203202D01*
X0032533Y0203208D01*
X0032374Y0203218D01*
X0032215Y0203231D01*
X0032056Y0203249D01*
X0031898Y0203270D01*
X0031741Y0203296D01*
X0031584Y0203325D01*
X0031428Y0203358D01*
X0031273Y0203395D01*
X0031118Y0203435D01*
X0030965Y0203480D01*
X0030813Y0203528D01*
X0030662Y0203580D01*
X0030513Y0203636D01*
X0030365Y0203695D01*
X0030218Y0203758D01*
X0030073Y0203824D01*
X0029930Y0203894D01*
X0029788Y0203968D01*
X0029648Y0204044D01*
X0029510Y0204125D01*
X0029375Y0204208D01*
X0029241Y0204295D01*
X0029109Y0204386D01*
X0028980Y0204479D01*
X0028853Y0204576D01*
X0028728Y0204675D01*
X0028606Y0204778D01*
X0028487Y0204884D01*
X0028370Y0204992D01*
X0028256Y0205104D01*
X0028144Y0205218D01*
X0028036Y0205335D01*
X0027930Y0205454D01*
X0027827Y0205576D01*
X0027728Y0205701D01*
X0027631Y0205828D01*
X0027538Y0205957D01*
X0027447Y0206089D01*
X0027360Y0206223D01*
X0027277Y0206358D01*
X0027196Y0206496D01*
X0027120Y0206636D01*
X0027046Y0206778D01*
X0026976Y0206921D01*
X0026910Y0207066D01*
X0026847Y0207213D01*
X0026788Y0207361D01*
X0026732Y0207510D01*
X0026680Y0207661D01*
X0026632Y0207813D01*
X0026587Y0207966D01*
X0026547Y0208121D01*
X0026510Y0208276D01*
X0026477Y0208432D01*
X0026448Y0208589D01*
X0026422Y0208746D01*
X0026401Y0208904D01*
X0026383Y0209063D01*
X0026370Y0209222D01*
X0026360Y0209381D01*
X0026354Y0209540D01*
X0026352Y0209700D01*
X0026352Y0220100D01*
X0026354Y0220260D01*
X0026360Y0220419D01*
X0026370Y0220578D01*
X0026383Y0220737D01*
X0026401Y0220896D01*
X0026422Y0221054D01*
X0026448Y0221211D01*
X0026477Y0221368D01*
X0026510Y0221524D01*
X0026547Y0221679D01*
X0026587Y0221834D01*
X0026632Y0221987D01*
X0026680Y0222139D01*
X0026732Y0222290D01*
X0026788Y0222439D01*
X0026847Y0222587D01*
X0026910Y0222734D01*
X0026976Y0222879D01*
X0027046Y0223022D01*
X0027120Y0223164D01*
X0027196Y0223304D01*
X0027277Y0223442D01*
X0027360Y0223577D01*
X0027447Y0223711D01*
X0027538Y0223843D01*
X0027631Y0223972D01*
X0027728Y0224099D01*
X0027827Y0224224D01*
X0027930Y0224346D01*
X0028036Y0224465D01*
X0028144Y0224582D01*
X0028256Y0224696D01*
X0028370Y0224808D01*
X0028487Y0224916D01*
X0028606Y0225022D01*
X0028728Y0225125D01*
X0028853Y0225224D01*
X0028980Y0225321D01*
X0029109Y0225414D01*
X0029241Y0225505D01*
X0029375Y0225592D01*
X0029510Y0225675D01*
X0029648Y0225756D01*
X0029788Y0225832D01*
X0029930Y0225906D01*
X0030073Y0225976D01*
X0030218Y0226042D01*
X0030365Y0226105D01*
X0030513Y0226164D01*
X0030662Y0226220D01*
X0030813Y0226272D01*
X0030965Y0226320D01*
X0031118Y0226365D01*
X0031273Y0226405D01*
X0031428Y0226442D01*
X0031584Y0226475D01*
X0031741Y0226504D01*
X0031898Y0226530D01*
X0032056Y0226551D01*
X0032215Y0226569D01*
X0032374Y0226582D01*
X0032533Y0226592D01*
X0032692Y0226598D01*
X0032852Y0226600D01*
X0033012Y0226598D01*
X0033171Y0226592D01*
X0033330Y0226582D01*
X0033489Y0226569D01*
X0033648Y0226551D01*
X0033806Y0226530D01*
X0033963Y0226504D01*
X0034120Y0226475D01*
X0034276Y0226442D01*
X0034431Y0226405D01*
X0034586Y0226365D01*
X0034739Y0226320D01*
X0034891Y0226272D01*
X0035042Y0226220D01*
X0035191Y0226164D01*
X0035339Y0226105D01*
X0035486Y0226042D01*
X0035631Y0225976D01*
X0035774Y0225906D01*
X0035916Y0225832D01*
X0036056Y0225756D01*
X0036194Y0225675D01*
X0036329Y0225592D01*
X0036463Y0225505D01*
X0036595Y0225414D01*
X0036724Y0225321D01*
X0036851Y0225224D01*
X0036976Y0225125D01*
X0037098Y0225022D01*
X0037217Y0224916D01*
X0037334Y0224808D01*
X0037448Y0224696D01*
X0037560Y0224582D01*
X0037668Y0224465D01*
X0037774Y0224346D01*
X0037877Y0224224D01*
X0037976Y0224099D01*
X0038073Y0223972D01*
X0038166Y0223843D01*
X0038257Y0223711D01*
X0038344Y0223577D01*
X0038427Y0223442D01*
X0038508Y0223304D01*
X0038584Y0223164D01*
X0038658Y0223022D01*
X0038728Y0222879D01*
X0038794Y0222734D01*
X0038857Y0222587D01*
X0038916Y0222439D01*
X0038972Y0222290D01*
X0039024Y0222139D01*
X0039072Y0221987D01*
X0039117Y0221834D01*
X0039157Y0221679D01*
X0039194Y0221524D01*
X0039227Y0221368D01*
X0039256Y0221211D01*
X0039282Y0221054D01*
X0039303Y0220896D01*
X0039321Y0220737D01*
X0039334Y0220578D01*
X0039344Y0220419D01*
X0039350Y0220260D01*
X0039352Y0220100D01*
X0020867Y0203200D02*
X0010467Y0203200D01*
X0010467Y0226600D01*
X0035467Y0081600D02*
X0035467Y0058200D01*
X0048467Y0058200D02*
X0048467Y0081600D01*
X0055242Y0081600D02*
X0060442Y0081600D01*
X0057842Y0081600D02*
X0057842Y0058200D01*
X0055242Y0058200D02*
X0060442Y0058200D01*
X0067217Y0063400D02*
X0067217Y0076400D01*
X0067219Y0076543D01*
X0067225Y0076686D01*
X0067235Y0076829D01*
X0067249Y0076972D01*
X0067266Y0077114D01*
X0067288Y0077256D01*
X0067313Y0077397D01*
X0067343Y0077537D01*
X0067376Y0077677D01*
X0067413Y0077815D01*
X0067454Y0077952D01*
X0067499Y0078088D01*
X0067547Y0078223D01*
X0067599Y0078357D01*
X0067655Y0078489D01*
X0067714Y0078619D01*
X0067777Y0078748D01*
X0067844Y0078875D01*
X0067914Y0079000D01*
X0067987Y0079123D01*
X0068064Y0079244D01*
X0068144Y0079363D01*
X0068227Y0079480D01*
X0068313Y0079594D01*
X0068403Y0079706D01*
X0068496Y0079815D01*
X0068591Y0079922D01*
X0068690Y0080026D01*
X0068791Y0080127D01*
X0068895Y0080226D01*
X0069002Y0080321D01*
X0069111Y0080414D01*
X0069223Y0080504D01*
X0069337Y0080590D01*
X0069454Y0080673D01*
X0069573Y0080753D01*
X0069694Y0080830D01*
X0069817Y0080903D01*
X0069942Y0080973D01*
X0070069Y0081040D01*
X0070198Y0081103D01*
X0070328Y0081162D01*
X0070460Y0081218D01*
X0070594Y0081270D01*
X0070729Y0081318D01*
X0070865Y0081363D01*
X0071002Y0081404D01*
X0071140Y0081441D01*
X0071280Y0081474D01*
X0071420Y0081504D01*
X0071561Y0081529D01*
X0071703Y0081551D01*
X0071845Y0081568D01*
X0071988Y0081582D01*
X0072131Y0081592D01*
X0072274Y0081598D01*
X0072417Y0081600D01*
X0080217Y0081600D01*
X0087537Y0081600D02*
X0087537Y0058200D01*
X0080217Y0058200D02*
X0072417Y0058200D01*
X0072274Y0058202D01*
X0072131Y0058208D01*
X0071988Y0058218D01*
X0071845Y0058232D01*
X0071703Y0058249D01*
X0071561Y0058271D01*
X0071420Y0058296D01*
X0071280Y0058326D01*
X0071140Y0058359D01*
X0071002Y0058396D01*
X0070865Y0058437D01*
X0070729Y0058482D01*
X0070594Y0058530D01*
X0070460Y0058582D01*
X0070328Y0058638D01*
X0070198Y0058697D01*
X0070069Y0058760D01*
X0069942Y0058827D01*
X0069817Y0058897D01*
X0069694Y0058970D01*
X0069573Y0059047D01*
X0069454Y0059127D01*
X0069337Y0059210D01*
X0069223Y0059296D01*
X0069111Y0059386D01*
X0069002Y0059479D01*
X0068895Y0059574D01*
X0068791Y0059673D01*
X0068690Y0059774D01*
X0068591Y0059878D01*
X0068496Y0059985D01*
X0068403Y0060094D01*
X0068313Y0060206D01*
X0068227Y0060320D01*
X0068144Y0060437D01*
X0068064Y0060556D01*
X0067987Y0060677D01*
X0067914Y0060800D01*
X0067844Y0060925D01*
X0067777Y0061052D01*
X0067714Y0061181D01*
X0067655Y0061311D01*
X0067599Y0061443D01*
X0067547Y0061577D01*
X0067499Y0061712D01*
X0067454Y0061848D01*
X0067413Y0061985D01*
X0067376Y0062123D01*
X0067343Y0062263D01*
X0067313Y0062403D01*
X0067288Y0062544D01*
X0067266Y0062686D01*
X0067249Y0062828D01*
X0067235Y0062971D01*
X0067225Y0063114D01*
X0067219Y0063257D01*
X0067217Y0063400D01*
X0076317Y0071200D02*
X0080217Y0071200D01*
X0080217Y0058200D01*
X0087537Y0071200D02*
X0100537Y0071200D01*
X0100537Y0081600D02*
X0100537Y0058200D01*
X0048467Y0071200D02*
X0035467Y0071200D01*
X0228267Y0213200D02*
X0220467Y0236600D01*
X0236067Y0236600D02*
X0228267Y0213200D01*
X0240817Y0219700D02*
X0240817Y0230100D01*
X0240819Y0230260D01*
X0240825Y0230419D01*
X0240835Y0230578D01*
X0240848Y0230737D01*
X0240866Y0230896D01*
X0240887Y0231054D01*
X0240913Y0231211D01*
X0240942Y0231368D01*
X0240975Y0231524D01*
X0241012Y0231679D01*
X0241052Y0231834D01*
X0241097Y0231987D01*
X0241145Y0232139D01*
X0241197Y0232290D01*
X0241253Y0232439D01*
X0241312Y0232587D01*
X0241375Y0232734D01*
X0241441Y0232879D01*
X0241511Y0233022D01*
X0241585Y0233164D01*
X0241661Y0233304D01*
X0241742Y0233442D01*
X0241825Y0233577D01*
X0241912Y0233711D01*
X0242003Y0233843D01*
X0242096Y0233972D01*
X0242193Y0234099D01*
X0242292Y0234224D01*
X0242395Y0234346D01*
X0242501Y0234465D01*
X0242609Y0234582D01*
X0242721Y0234696D01*
X0242835Y0234808D01*
X0242952Y0234916D01*
X0243071Y0235022D01*
X0243193Y0235125D01*
X0243318Y0235224D01*
X0243445Y0235321D01*
X0243574Y0235414D01*
X0243706Y0235505D01*
X0243840Y0235592D01*
X0243975Y0235675D01*
X0244113Y0235756D01*
X0244253Y0235832D01*
X0244395Y0235906D01*
X0244538Y0235976D01*
X0244683Y0236042D01*
X0244830Y0236105D01*
X0244978Y0236164D01*
X0245127Y0236220D01*
X0245278Y0236272D01*
X0245430Y0236320D01*
X0245583Y0236365D01*
X0245738Y0236405D01*
X0245893Y0236442D01*
X0246049Y0236475D01*
X0246206Y0236504D01*
X0246363Y0236530D01*
X0246521Y0236551D01*
X0246680Y0236569D01*
X0246839Y0236582D01*
X0246998Y0236592D01*
X0247157Y0236598D01*
X0247317Y0236600D01*
X0247477Y0236598D01*
X0247636Y0236592D01*
X0247795Y0236582D01*
X0247954Y0236569D01*
X0248113Y0236551D01*
X0248271Y0236530D01*
X0248428Y0236504D01*
X0248585Y0236475D01*
X0248741Y0236442D01*
X0248896Y0236405D01*
X0249051Y0236365D01*
X0249204Y0236320D01*
X0249356Y0236272D01*
X0249507Y0236220D01*
X0249656Y0236164D01*
X0249804Y0236105D01*
X0249951Y0236042D01*
X0250096Y0235976D01*
X0250239Y0235906D01*
X0250381Y0235832D01*
X0250521Y0235756D01*
X0250659Y0235675D01*
X0250794Y0235592D01*
X0250928Y0235505D01*
X0251060Y0235414D01*
X0251189Y0235321D01*
X0251316Y0235224D01*
X0251441Y0235125D01*
X0251563Y0235022D01*
X0251682Y0234916D01*
X0251799Y0234808D01*
X0251913Y0234696D01*
X0252025Y0234582D01*
X0252133Y0234465D01*
X0252239Y0234346D01*
X0252342Y0234224D01*
X0252441Y0234099D01*
X0252538Y0233972D01*
X0252631Y0233843D01*
X0252722Y0233711D01*
X0252809Y0233577D01*
X0252892Y0233442D01*
X0252973Y0233304D01*
X0253049Y0233164D01*
X0253123Y0233022D01*
X0253193Y0232879D01*
X0253259Y0232734D01*
X0253322Y0232587D01*
X0253381Y0232439D01*
X0253437Y0232290D01*
X0253489Y0232139D01*
X0253537Y0231987D01*
X0253582Y0231834D01*
X0253622Y0231679D01*
X0253659Y0231524D01*
X0253692Y0231368D01*
X0253721Y0231211D01*
X0253747Y0231054D01*
X0253768Y0230896D01*
X0253786Y0230737D01*
X0253799Y0230578D01*
X0253809Y0230419D01*
X0253815Y0230260D01*
X0253817Y0230100D01*
X0253817Y0219700D01*
X0253815Y0219540D01*
X0253809Y0219381D01*
X0253799Y0219222D01*
X0253786Y0219063D01*
X0253768Y0218904D01*
X0253747Y0218746D01*
X0253721Y0218589D01*
X0253692Y0218432D01*
X0253659Y0218276D01*
X0253622Y0218121D01*
X0253582Y0217966D01*
X0253537Y0217813D01*
X0253489Y0217661D01*
X0253437Y0217510D01*
X0253381Y0217361D01*
X0253322Y0217213D01*
X0253259Y0217066D01*
X0253193Y0216921D01*
X0253123Y0216778D01*
X0253049Y0216636D01*
X0252973Y0216496D01*
X0252892Y0216358D01*
X0252809Y0216223D01*
X0252722Y0216089D01*
X0252631Y0215957D01*
X0252538Y0215828D01*
X0252441Y0215701D01*
X0252342Y0215576D01*
X0252239Y0215454D01*
X0252133Y0215335D01*
X0252025Y0215218D01*
X0251913Y0215104D01*
X0251799Y0214992D01*
X0251682Y0214884D01*
X0251563Y0214778D01*
X0251441Y0214675D01*
X0251316Y0214576D01*
X0251189Y0214479D01*
X0251060Y0214386D01*
X0250928Y0214295D01*
X0250794Y0214208D01*
X0250659Y0214125D01*
X0250521Y0214044D01*
X0250381Y0213968D01*
X0250239Y0213894D01*
X0250096Y0213824D01*
X0249951Y0213758D01*
X0249804Y0213695D01*
X0249656Y0213636D01*
X0249507Y0213580D01*
X0249356Y0213528D01*
X0249204Y0213480D01*
X0249051Y0213435D01*
X0248896Y0213395D01*
X0248741Y0213358D01*
X0248585Y0213325D01*
X0248428Y0213296D01*
X0248271Y0213270D01*
X0248113Y0213249D01*
X0247954Y0213231D01*
X0247795Y0213218D01*
X0247636Y0213208D01*
X0247477Y0213202D01*
X0247317Y0213200D01*
X0247157Y0213202D01*
X0246998Y0213208D01*
X0246839Y0213218D01*
X0246680Y0213231D01*
X0246521Y0213249D01*
X0246363Y0213270D01*
X0246206Y0213296D01*
X0246049Y0213325D01*
X0245893Y0213358D01*
X0245738Y0213395D01*
X0245583Y0213435D01*
X0245430Y0213480D01*
X0245278Y0213528D01*
X0245127Y0213580D01*
X0244978Y0213636D01*
X0244830Y0213695D01*
X0244683Y0213758D01*
X0244538Y0213824D01*
X0244395Y0213894D01*
X0244253Y0213968D01*
X0244113Y0214044D01*
X0243975Y0214125D01*
X0243840Y0214208D01*
X0243706Y0214295D01*
X0243574Y0214386D01*
X0243445Y0214479D01*
X0243318Y0214576D01*
X0243193Y0214675D01*
X0243071Y0214778D01*
X0242952Y0214884D01*
X0242835Y0214992D01*
X0242721Y0215104D01*
X0242609Y0215218D01*
X0242501Y0215335D01*
X0242395Y0215454D01*
X0242292Y0215576D01*
X0242193Y0215701D01*
X0242096Y0215828D01*
X0242003Y0215957D01*
X0241912Y0216089D01*
X0241825Y0216223D01*
X0241742Y0216358D01*
X0241661Y0216496D01*
X0241585Y0216636D01*
X0241511Y0216778D01*
X0241441Y0216921D01*
X0241375Y0217066D01*
X0241312Y0217213D01*
X0241253Y0217361D01*
X0241197Y0217510D01*
X0241145Y0217661D01*
X0241097Y0217813D01*
X0241052Y0217966D01*
X0241012Y0218121D01*
X0240975Y0218276D01*
X0240942Y0218432D01*
X0240913Y0218589D01*
X0240887Y0218746D01*
X0240866Y0218904D01*
X0240848Y0219063D01*
X0240835Y0219222D01*
X0240825Y0219381D01*
X0240819Y0219540D01*
X0240817Y0219700D01*
X0260492Y0213200D02*
X0260492Y0236600D01*
X0275107Y0236600D02*
X0288107Y0236600D01*
X0281607Y0236600D02*
X0281607Y0213200D01*
X0291587Y0213200D02*
X0299387Y0236600D01*
X0307187Y0213200D01*
X0305237Y0219050D02*
X0293537Y0219050D01*
X0312572Y0218400D02*
X0312572Y0231400D01*
X0312574Y0231543D01*
X0312580Y0231686D01*
X0312590Y0231829D01*
X0312604Y0231972D01*
X0312621Y0232114D01*
X0312643Y0232256D01*
X0312668Y0232397D01*
X0312698Y0232537D01*
X0312731Y0232677D01*
X0312768Y0232815D01*
X0312809Y0232952D01*
X0312854Y0233088D01*
X0312902Y0233223D01*
X0312954Y0233357D01*
X0313010Y0233489D01*
X0313069Y0233619D01*
X0313132Y0233748D01*
X0313199Y0233875D01*
X0313269Y0234000D01*
X0313342Y0234123D01*
X0313419Y0234244D01*
X0313499Y0234363D01*
X0313582Y0234480D01*
X0313668Y0234594D01*
X0313758Y0234706D01*
X0313851Y0234815D01*
X0313946Y0234922D01*
X0314045Y0235026D01*
X0314146Y0235127D01*
X0314250Y0235226D01*
X0314357Y0235321D01*
X0314466Y0235414D01*
X0314578Y0235504D01*
X0314692Y0235590D01*
X0314809Y0235673D01*
X0314928Y0235753D01*
X0315049Y0235830D01*
X0315172Y0235903D01*
X0315297Y0235973D01*
X0315424Y0236040D01*
X0315553Y0236103D01*
X0315683Y0236162D01*
X0315815Y0236218D01*
X0315949Y0236270D01*
X0316084Y0236318D01*
X0316220Y0236363D01*
X0316357Y0236404D01*
X0316495Y0236441D01*
X0316635Y0236474D01*
X0316775Y0236504D01*
X0316916Y0236529D01*
X0317058Y0236551D01*
X0317200Y0236568D01*
X0317343Y0236582D01*
X0317486Y0236592D01*
X0317629Y0236598D01*
X0317772Y0236600D01*
X0325572Y0236600D01*
X0332882Y0236600D02*
X0343282Y0236600D01*
X0332882Y0236600D02*
X0332882Y0213200D01*
X0343282Y0213200D01*
X0340682Y0226200D02*
X0332882Y0226200D01*
X0325572Y0226200D02*
X0325572Y0213200D01*
X0317772Y0213200D01*
X0317629Y0213202D01*
X0317486Y0213208D01*
X0317343Y0213218D01*
X0317200Y0213232D01*
X0317058Y0213249D01*
X0316916Y0213271D01*
X0316775Y0213296D01*
X0316635Y0213326D01*
X0316495Y0213359D01*
X0316357Y0213396D01*
X0316220Y0213437D01*
X0316084Y0213482D01*
X0315949Y0213530D01*
X0315815Y0213582D01*
X0315683Y0213638D01*
X0315553Y0213697D01*
X0315424Y0213760D01*
X0315297Y0213827D01*
X0315172Y0213897D01*
X0315049Y0213970D01*
X0314928Y0214047D01*
X0314809Y0214127D01*
X0314692Y0214210D01*
X0314578Y0214296D01*
X0314466Y0214386D01*
X0314357Y0214479D01*
X0314250Y0214574D01*
X0314146Y0214673D01*
X0314045Y0214774D01*
X0313946Y0214878D01*
X0313851Y0214985D01*
X0313758Y0215094D01*
X0313668Y0215206D01*
X0313582Y0215320D01*
X0313499Y0215437D01*
X0313419Y0215556D01*
X0313342Y0215677D01*
X0313269Y0215800D01*
X0313199Y0215925D01*
X0313132Y0216052D01*
X0313069Y0216181D01*
X0313010Y0216311D01*
X0312954Y0216443D01*
X0312902Y0216577D01*
X0312854Y0216712D01*
X0312809Y0216848D01*
X0312768Y0216985D01*
X0312731Y0217123D01*
X0312698Y0217263D01*
X0312668Y0217403D01*
X0312643Y0217544D01*
X0312621Y0217686D01*
X0312604Y0217828D01*
X0312590Y0217971D01*
X0312580Y0218114D01*
X0312574Y0218257D01*
X0312572Y0218400D01*
X0321672Y0226200D02*
X0325572Y0226200D01*
X0270892Y0213200D02*
X0260492Y0213200D01*
X0261067Y0081600D02*
X0253267Y0058200D01*
X0245467Y0081600D01*
X0265817Y0075100D02*
X0265817Y0064700D01*
X0265819Y0064540D01*
X0265825Y0064381D01*
X0265835Y0064222D01*
X0265848Y0064063D01*
X0265866Y0063904D01*
X0265887Y0063746D01*
X0265913Y0063589D01*
X0265942Y0063432D01*
X0265975Y0063276D01*
X0266012Y0063121D01*
X0266052Y0062966D01*
X0266097Y0062813D01*
X0266145Y0062661D01*
X0266197Y0062510D01*
X0266253Y0062361D01*
X0266312Y0062213D01*
X0266375Y0062066D01*
X0266441Y0061921D01*
X0266511Y0061778D01*
X0266585Y0061636D01*
X0266661Y0061496D01*
X0266742Y0061358D01*
X0266825Y0061223D01*
X0266912Y0061089D01*
X0267003Y0060957D01*
X0267096Y0060828D01*
X0267193Y0060701D01*
X0267292Y0060576D01*
X0267395Y0060454D01*
X0267501Y0060335D01*
X0267609Y0060218D01*
X0267721Y0060104D01*
X0267835Y0059992D01*
X0267952Y0059884D01*
X0268071Y0059778D01*
X0268193Y0059675D01*
X0268318Y0059576D01*
X0268445Y0059479D01*
X0268574Y0059386D01*
X0268706Y0059295D01*
X0268840Y0059208D01*
X0268975Y0059125D01*
X0269113Y0059044D01*
X0269253Y0058968D01*
X0269395Y0058894D01*
X0269538Y0058824D01*
X0269683Y0058758D01*
X0269830Y0058695D01*
X0269978Y0058636D01*
X0270127Y0058580D01*
X0270278Y0058528D01*
X0270430Y0058480D01*
X0270583Y0058435D01*
X0270738Y0058395D01*
X0270893Y0058358D01*
X0271049Y0058325D01*
X0271206Y0058296D01*
X0271363Y0058270D01*
X0271521Y0058249D01*
X0271680Y0058231D01*
X0271839Y0058218D01*
X0271998Y0058208D01*
X0272157Y0058202D01*
X0272317Y0058200D01*
X0272477Y0058202D01*
X0272636Y0058208D01*
X0272795Y0058218D01*
X0272954Y0058231D01*
X0273113Y0058249D01*
X0273271Y0058270D01*
X0273428Y0058296D01*
X0273585Y0058325D01*
X0273741Y0058358D01*
X0273896Y0058395D01*
X0274051Y0058435D01*
X0274204Y0058480D01*
X0274356Y0058528D01*
X0274507Y0058580D01*
X0274656Y0058636D01*
X0274804Y0058695D01*
X0274951Y0058758D01*
X0275096Y0058824D01*
X0275239Y0058894D01*
X0275381Y0058968D01*
X0275521Y0059044D01*
X0275659Y0059125D01*
X0275794Y0059208D01*
X0275928Y0059295D01*
X0276060Y0059386D01*
X0276189Y0059479D01*
X0276316Y0059576D01*
X0276441Y0059675D01*
X0276563Y0059778D01*
X0276682Y0059884D01*
X0276799Y0059992D01*
X0276913Y0060104D01*
X0277025Y0060218D01*
X0277133Y0060335D01*
X0277239Y0060454D01*
X0277342Y0060576D01*
X0277441Y0060701D01*
X0277538Y0060828D01*
X0277631Y0060957D01*
X0277722Y0061089D01*
X0277809Y0061223D01*
X0277892Y0061358D01*
X0277973Y0061496D01*
X0278049Y0061636D01*
X0278123Y0061778D01*
X0278193Y0061921D01*
X0278259Y0062066D01*
X0278322Y0062213D01*
X0278381Y0062361D01*
X0278437Y0062510D01*
X0278489Y0062661D01*
X0278537Y0062813D01*
X0278582Y0062966D01*
X0278622Y0063121D01*
X0278659Y0063276D01*
X0278692Y0063432D01*
X0278721Y0063589D01*
X0278747Y0063746D01*
X0278768Y0063904D01*
X0278786Y0064063D01*
X0278799Y0064222D01*
X0278809Y0064381D01*
X0278815Y0064540D01*
X0278817Y0064700D01*
X0278817Y0075100D01*
X0278815Y0075260D01*
X0278809Y0075419D01*
X0278799Y0075578D01*
X0278786Y0075737D01*
X0278768Y0075896D01*
X0278747Y0076054D01*
X0278721Y0076211D01*
X0278692Y0076368D01*
X0278659Y0076524D01*
X0278622Y0076679D01*
X0278582Y0076834D01*
X0278537Y0076987D01*
X0278489Y0077139D01*
X0278437Y0077290D01*
X0278381Y0077439D01*
X0278322Y0077587D01*
X0278259Y0077734D01*
X0278193Y0077879D01*
X0278123Y0078022D01*
X0278049Y0078164D01*
X0277973Y0078304D01*
X0277892Y0078442D01*
X0277809Y0078577D01*
X0277722Y0078711D01*
X0277631Y0078843D01*
X0277538Y0078972D01*
X0277441Y0079099D01*
X0277342Y0079224D01*
X0277239Y0079346D01*
X0277133Y0079465D01*
X0277025Y0079582D01*
X0276913Y0079696D01*
X0276799Y0079808D01*
X0276682Y0079916D01*
X0276563Y0080022D01*
X0276441Y0080125D01*
X0276316Y0080224D01*
X0276189Y0080321D01*
X0276060Y0080414D01*
X0275928Y0080505D01*
X0275794Y0080592D01*
X0275659Y0080675D01*
X0275521Y0080756D01*
X0275381Y0080832D01*
X0275239Y0080906D01*
X0275096Y0080976D01*
X0274951Y0081042D01*
X0274804Y0081105D01*
X0274656Y0081164D01*
X0274507Y0081220D01*
X0274356Y0081272D01*
X0274204Y0081320D01*
X0274051Y0081365D01*
X0273896Y0081405D01*
X0273741Y0081442D01*
X0273585Y0081475D01*
X0273428Y0081504D01*
X0273271Y0081530D01*
X0273113Y0081551D01*
X0272954Y0081569D01*
X0272795Y0081582D01*
X0272636Y0081592D01*
X0272477Y0081598D01*
X0272317Y0081600D01*
X0272157Y0081598D01*
X0271998Y0081592D01*
X0271839Y0081582D01*
X0271680Y0081569D01*
X0271521Y0081551D01*
X0271363Y0081530D01*
X0271206Y0081504D01*
X0271049Y0081475D01*
X0270893Y0081442D01*
X0270738Y0081405D01*
X0270583Y0081365D01*
X0270430Y0081320D01*
X0270278Y0081272D01*
X0270127Y0081220D01*
X0269978Y0081164D01*
X0269830Y0081105D01*
X0269683Y0081042D01*
X0269538Y0080976D01*
X0269395Y0080906D01*
X0269253Y0080832D01*
X0269113Y0080756D01*
X0268975Y0080675D01*
X0268840Y0080592D01*
X0268706Y0080505D01*
X0268574Y0080414D01*
X0268445Y0080321D01*
X0268318Y0080224D01*
X0268193Y0080125D01*
X0268071Y0080022D01*
X0267952Y0079916D01*
X0267835Y0079808D01*
X0267721Y0079696D01*
X0267609Y0079582D01*
X0267501Y0079465D01*
X0267395Y0079346D01*
X0267292Y0079224D01*
X0267193Y0079099D01*
X0267096Y0078972D01*
X0267003Y0078843D01*
X0266912Y0078711D01*
X0266825Y0078577D01*
X0266742Y0078442D01*
X0266661Y0078304D01*
X0266585Y0078164D01*
X0266511Y0078022D01*
X0266441Y0077879D01*
X0266375Y0077734D01*
X0266312Y0077587D01*
X0266253Y0077439D01*
X0266197Y0077290D01*
X0266145Y0077139D01*
X0266097Y0076987D01*
X0266052Y0076834D01*
X0266012Y0076679D01*
X0265975Y0076524D01*
X0265942Y0076368D01*
X0265913Y0076211D01*
X0265887Y0076054D01*
X0265866Y0075896D01*
X0265848Y0075737D01*
X0265835Y0075578D01*
X0265825Y0075419D01*
X0265819Y0075260D01*
X0265817Y0075100D01*
X0285492Y0081600D02*
X0285492Y0058200D01*
X0295892Y0058200D01*
X0306607Y0058200D02*
X0306607Y0081600D01*
X0300107Y0081600D02*
X0313107Y0081600D01*
X0324387Y0081600D02*
X0332187Y0058200D01*
X0330237Y0064050D02*
X0318537Y0064050D01*
X0316587Y0058200D02*
X0324387Y0081600D01*
X0337572Y0076400D02*
X0337572Y0063400D01*
X0337574Y0063257D01*
X0337580Y0063114D01*
X0337590Y0062971D01*
X0337604Y0062828D01*
X0337621Y0062686D01*
X0337643Y0062544D01*
X0337668Y0062403D01*
X0337698Y0062263D01*
X0337731Y0062123D01*
X0337768Y0061985D01*
X0337809Y0061848D01*
X0337854Y0061712D01*
X0337902Y0061577D01*
X0337954Y0061443D01*
X0338010Y0061311D01*
X0338069Y0061181D01*
X0338132Y0061052D01*
X0338199Y0060925D01*
X0338269Y0060800D01*
X0338342Y0060677D01*
X0338419Y0060556D01*
X0338499Y0060437D01*
X0338582Y0060320D01*
X0338668Y0060206D01*
X0338758Y0060094D01*
X0338851Y0059985D01*
X0338946Y0059878D01*
X0339045Y0059774D01*
X0339146Y0059673D01*
X0339250Y0059574D01*
X0339357Y0059479D01*
X0339466Y0059386D01*
X0339578Y0059296D01*
X0339692Y0059210D01*
X0339809Y0059127D01*
X0339928Y0059047D01*
X0340049Y0058970D01*
X0340172Y0058897D01*
X0340297Y0058827D01*
X0340424Y0058760D01*
X0340553Y0058697D01*
X0340683Y0058638D01*
X0340815Y0058582D01*
X0340949Y0058530D01*
X0341084Y0058482D01*
X0341220Y0058437D01*
X0341357Y0058396D01*
X0341495Y0058359D01*
X0341635Y0058326D01*
X0341775Y0058296D01*
X0341916Y0058271D01*
X0342058Y0058249D01*
X0342200Y0058232D01*
X0342343Y0058218D01*
X0342486Y0058208D01*
X0342629Y0058202D01*
X0342772Y0058200D01*
X0350572Y0058200D01*
X0350572Y0071200D01*
X0346672Y0071200D01*
X0337572Y0076400D02*
X0337574Y0076543D01*
X0337580Y0076686D01*
X0337590Y0076829D01*
X0337604Y0076972D01*
X0337621Y0077114D01*
X0337643Y0077256D01*
X0337668Y0077397D01*
X0337698Y0077537D01*
X0337731Y0077677D01*
X0337768Y0077815D01*
X0337809Y0077952D01*
X0337854Y0078088D01*
X0337902Y0078223D01*
X0337954Y0078357D01*
X0338010Y0078489D01*
X0338069Y0078619D01*
X0338132Y0078748D01*
X0338199Y0078875D01*
X0338269Y0079000D01*
X0338342Y0079123D01*
X0338419Y0079244D01*
X0338499Y0079363D01*
X0338582Y0079480D01*
X0338668Y0079594D01*
X0338758Y0079706D01*
X0338851Y0079815D01*
X0338946Y0079922D01*
X0339045Y0080026D01*
X0339146Y0080127D01*
X0339250Y0080226D01*
X0339357Y0080321D01*
X0339466Y0080414D01*
X0339578Y0080504D01*
X0339692Y0080590D01*
X0339809Y0080673D01*
X0339928Y0080753D01*
X0340049Y0080830D01*
X0340172Y0080903D01*
X0340297Y0080973D01*
X0340424Y0081040D01*
X0340553Y0081103D01*
X0340683Y0081162D01*
X0340815Y0081218D01*
X0340949Y0081270D01*
X0341084Y0081318D01*
X0341220Y0081363D01*
X0341357Y0081404D01*
X0341495Y0081441D01*
X0341635Y0081474D01*
X0341775Y0081504D01*
X0341916Y0081529D01*
X0342058Y0081551D01*
X0342200Y0081568D01*
X0342343Y0081582D01*
X0342486Y0081592D01*
X0342629Y0081598D01*
X0342772Y0081600D01*
X0350572Y0081600D01*
X0357882Y0081600D02*
X0368282Y0081600D01*
X0357882Y0081600D02*
X0357882Y0058200D01*
X0368282Y0058200D01*
X0365682Y0071200D02*
X0357882Y0071200D01*
D13*
X0194467Y0032200D02*
X0194467Y0027200D01*
X0194467Y0022200D01*
X0190967Y0022200D02*
X0190967Y0027200D01*
X0190967Y0032200D01*
X0191467Y0063700D02*
X0191467Y0067200D01*
X0191467Y0070700D01*
X0187467Y0070700D02*
X0187467Y0067200D01*
X0187467Y0063700D01*
X0176167Y0289200D02*
X0176167Y0292200D01*
X0176167Y0295200D01*
X0172667Y0295200D02*
X0172667Y0292200D01*
X0172667Y0289200D01*
X0297667Y0289200D02*
X0297667Y0292200D01*
X0297667Y0295200D01*
X0301167Y0295200D02*
X0301167Y0292200D01*
X0301167Y0289200D01*
D14*
X0292481Y0308450D02*
X0289981Y0308450D01*
X0291231Y0308450D02*
X0291231Y0312950D01*
X0289981Y0311950D01*
X0288217Y0312950D02*
X0287217Y0312950D01*
X0287157Y0312948D01*
X0287096Y0312943D01*
X0287037Y0312934D01*
X0286978Y0312921D01*
X0286919Y0312905D01*
X0286862Y0312885D01*
X0286807Y0312862D01*
X0286752Y0312835D01*
X0286700Y0312806D01*
X0286649Y0312773D01*
X0286600Y0312737D01*
X0286554Y0312699D01*
X0286510Y0312657D01*
X0286468Y0312613D01*
X0286430Y0312567D01*
X0286394Y0312518D01*
X0286361Y0312467D01*
X0286332Y0312415D01*
X0286305Y0312360D01*
X0286282Y0312305D01*
X0286262Y0312248D01*
X0286246Y0312189D01*
X0286233Y0312130D01*
X0286224Y0312071D01*
X0286219Y0312010D01*
X0286217Y0311950D01*
X0286217Y0309450D01*
X0286219Y0309390D01*
X0286224Y0309329D01*
X0286233Y0309270D01*
X0286246Y0309211D01*
X0286262Y0309152D01*
X0286282Y0309095D01*
X0286305Y0309040D01*
X0286332Y0308985D01*
X0286361Y0308933D01*
X0286394Y0308882D01*
X0286430Y0308833D01*
X0286468Y0308787D01*
X0286510Y0308743D01*
X0286554Y0308701D01*
X0286600Y0308663D01*
X0286649Y0308627D01*
X0286700Y0308594D01*
X0286752Y0308565D01*
X0286807Y0308538D01*
X0286862Y0308515D01*
X0286919Y0308495D01*
X0286978Y0308479D01*
X0287037Y0308466D01*
X0287096Y0308457D01*
X0287157Y0308452D01*
X0287217Y0308450D01*
X0288217Y0308450D01*
X0252717Y0317450D02*
X0252717Y0318950D01*
X0252715Y0319010D01*
X0252710Y0319071D01*
X0252701Y0319130D01*
X0252688Y0319189D01*
X0252672Y0319248D01*
X0252652Y0319305D01*
X0252629Y0319360D01*
X0252602Y0319415D01*
X0252573Y0319467D01*
X0252540Y0319518D01*
X0252504Y0319567D01*
X0252466Y0319613D01*
X0252424Y0319657D01*
X0252380Y0319699D01*
X0252334Y0319737D01*
X0252285Y0319773D01*
X0252234Y0319806D01*
X0252182Y0319835D01*
X0252127Y0319862D01*
X0252072Y0319885D01*
X0252015Y0319905D01*
X0251956Y0319921D01*
X0251897Y0319934D01*
X0251838Y0319943D01*
X0251777Y0319948D01*
X0251717Y0319950D01*
X0251217Y0319950D01*
X0251157Y0319948D01*
X0251096Y0319943D01*
X0251037Y0319934D01*
X0250978Y0319921D01*
X0250919Y0319905D01*
X0250862Y0319885D01*
X0250807Y0319862D01*
X0250752Y0319835D01*
X0250700Y0319806D01*
X0250649Y0319773D01*
X0250600Y0319737D01*
X0250554Y0319699D01*
X0250510Y0319657D01*
X0250468Y0319613D01*
X0250430Y0319567D01*
X0250394Y0319518D01*
X0250361Y0319467D01*
X0250332Y0319415D01*
X0250305Y0319360D01*
X0250282Y0319305D01*
X0250262Y0319248D01*
X0250246Y0319189D01*
X0250233Y0319130D01*
X0250224Y0319071D01*
X0250219Y0319010D01*
X0250217Y0318950D01*
X0250217Y0317450D01*
X0248217Y0317450D01*
X0248217Y0319950D01*
X0242217Y0319200D02*
X0240217Y0319200D01*
X0241217Y0319950D02*
X0241217Y0317450D01*
X0237717Y0318450D01*
X0232217Y0318700D02*
X0232217Y0317450D01*
X0232217Y0318700D02*
X0232215Y0318769D01*
X0232209Y0318838D01*
X0232200Y0318906D01*
X0232187Y0318973D01*
X0232170Y0319040D01*
X0232149Y0319106D01*
X0232125Y0319170D01*
X0232097Y0319233D01*
X0232066Y0319295D01*
X0232032Y0319355D01*
X0231994Y0319412D01*
X0231953Y0319468D01*
X0231910Y0319521D01*
X0231863Y0319572D01*
X0231814Y0319620D01*
X0231762Y0319665D01*
X0231707Y0319707D01*
X0231651Y0319746D01*
X0231592Y0319783D01*
X0231531Y0319815D01*
X0231469Y0319845D01*
X0231405Y0319871D01*
X0231340Y0319893D01*
X0231274Y0319912D01*
X0231207Y0319927D01*
X0231139Y0319938D01*
X0231070Y0319946D01*
X0231001Y0319950D01*
X0230933Y0319950D01*
X0230864Y0319946D01*
X0230795Y0319938D01*
X0230727Y0319927D01*
X0230660Y0319912D01*
X0230594Y0319893D01*
X0230529Y0319871D01*
X0230465Y0319845D01*
X0230403Y0319815D01*
X0230342Y0319783D01*
X0230283Y0319746D01*
X0230227Y0319707D01*
X0230172Y0319665D01*
X0230120Y0319620D01*
X0230071Y0319572D01*
X0230024Y0319521D01*
X0229981Y0319468D01*
X0229940Y0319412D01*
X0229902Y0319355D01*
X0229868Y0319295D01*
X0229837Y0319233D01*
X0229809Y0319170D01*
X0229785Y0319106D01*
X0229764Y0319040D01*
X0229747Y0318973D01*
X0229734Y0318906D01*
X0229725Y0318838D01*
X0229719Y0318769D01*
X0229717Y0318700D01*
X0229717Y0318950D02*
X0229717Y0317950D01*
X0229717Y0318950D02*
X0229715Y0319012D01*
X0229709Y0319073D01*
X0229700Y0319134D01*
X0229687Y0319194D01*
X0229670Y0319253D01*
X0229649Y0319311D01*
X0229625Y0319368D01*
X0229598Y0319423D01*
X0229567Y0319476D01*
X0229533Y0319528D01*
X0229496Y0319577D01*
X0229456Y0319624D01*
X0229413Y0319668D01*
X0229368Y0319709D01*
X0229320Y0319748D01*
X0229269Y0319784D01*
X0229217Y0319816D01*
X0229163Y0319845D01*
X0229107Y0319871D01*
X0229049Y0319893D01*
X0228991Y0319912D01*
X0228931Y0319927D01*
X0228870Y0319938D01*
X0228809Y0319946D01*
X0228748Y0319950D01*
X0228686Y0319950D01*
X0228625Y0319946D01*
X0228564Y0319938D01*
X0228503Y0319927D01*
X0228443Y0319912D01*
X0228385Y0319893D01*
X0228327Y0319871D01*
X0228271Y0319845D01*
X0228217Y0319816D01*
X0228165Y0319784D01*
X0228114Y0319748D01*
X0228066Y0319709D01*
X0228021Y0319668D01*
X0227978Y0319624D01*
X0227938Y0319577D01*
X0227901Y0319528D01*
X0227867Y0319476D01*
X0227836Y0319423D01*
X0227809Y0319368D01*
X0227785Y0319311D01*
X0227764Y0319253D01*
X0227747Y0319194D01*
X0227734Y0319134D01*
X0227725Y0319073D01*
X0227719Y0319012D01*
X0227717Y0318950D01*
X0227717Y0317450D01*
X0222217Y0317450D02*
X0222217Y0319950D01*
X0222217Y0317450D02*
X0219717Y0319575D01*
X0217717Y0318825D02*
X0217719Y0318752D01*
X0217724Y0318680D01*
X0217733Y0318608D01*
X0217746Y0318536D01*
X0217762Y0318465D01*
X0217782Y0318395D01*
X0217806Y0318327D01*
X0217832Y0318259D01*
X0217863Y0318193D01*
X0217896Y0318128D01*
X0217933Y0318066D01*
X0217972Y0318005D01*
X0218015Y0317946D01*
X0218061Y0317889D01*
X0218109Y0317835D01*
X0218160Y0317784D01*
X0218214Y0317734D01*
X0218270Y0317688D01*
X0218328Y0317645D01*
X0218389Y0317604D01*
X0218451Y0317567D01*
X0218515Y0317533D01*
X0218581Y0317502D01*
X0218648Y0317474D01*
X0218717Y0317450D01*
X0219717Y0319575D02*
X0219671Y0319621D01*
X0219622Y0319665D01*
X0219571Y0319705D01*
X0219518Y0319743D01*
X0219463Y0319778D01*
X0219406Y0319810D01*
X0219348Y0319839D01*
X0219288Y0319865D01*
X0219226Y0319887D01*
X0219164Y0319906D01*
X0219101Y0319922D01*
X0219037Y0319934D01*
X0218972Y0319943D01*
X0218907Y0319948D01*
X0218842Y0319950D01*
X0218777Y0319948D01*
X0218711Y0319942D01*
X0218647Y0319933D01*
X0218583Y0319920D01*
X0218519Y0319903D01*
X0218457Y0319882D01*
X0218396Y0319858D01*
X0218337Y0319830D01*
X0218280Y0319799D01*
X0218224Y0319765D01*
X0218170Y0319727D01*
X0218119Y0319687D01*
X0218070Y0319643D01*
X0218024Y0319597D01*
X0217980Y0319548D01*
X0217940Y0319497D01*
X0217902Y0319443D01*
X0217868Y0319388D01*
X0217837Y0319330D01*
X0217809Y0319271D01*
X0217785Y0319210D01*
X0217764Y0319148D01*
X0217747Y0319084D01*
X0217734Y0319020D01*
X0217725Y0318956D01*
X0217719Y0318890D01*
X0217717Y0318825D01*
X0214817Y0301950D02*
X0214817Y0297450D01*
X0213567Y0297450D02*
X0216067Y0297450D01*
X0213567Y0300950D02*
X0214817Y0301950D01*
X0211817Y0301950D02*
X0210317Y0297450D01*
X0208817Y0301950D01*
X0205341Y0300075D02*
X0205289Y0300108D01*
X0205238Y0300144D01*
X0205190Y0300183D01*
X0205145Y0300225D01*
X0205102Y0300270D01*
X0205062Y0300318D01*
X0205025Y0300367D01*
X0204991Y0300419D01*
X0204960Y0300473D01*
X0204932Y0300529D01*
X0204908Y0300586D01*
X0204888Y0300645D01*
X0204871Y0300704D01*
X0204858Y0300765D01*
X0204849Y0300826D01*
X0204843Y0300888D01*
X0204841Y0300950D01*
X0204842Y0300950D02*
X0204844Y0301010D01*
X0204849Y0301071D01*
X0204858Y0301130D01*
X0204871Y0301189D01*
X0204887Y0301248D01*
X0204907Y0301305D01*
X0204930Y0301360D01*
X0204957Y0301415D01*
X0204986Y0301467D01*
X0205019Y0301518D01*
X0205055Y0301567D01*
X0205093Y0301613D01*
X0205135Y0301657D01*
X0205179Y0301699D01*
X0205225Y0301737D01*
X0205274Y0301773D01*
X0205325Y0301806D01*
X0205377Y0301835D01*
X0205432Y0301862D01*
X0205487Y0301885D01*
X0205544Y0301905D01*
X0205603Y0301921D01*
X0205662Y0301934D01*
X0205721Y0301943D01*
X0205782Y0301948D01*
X0205842Y0301950D01*
X0205922Y0301948D01*
X0206003Y0301943D01*
X0206083Y0301934D01*
X0206162Y0301922D01*
X0206241Y0301907D01*
X0206319Y0301888D01*
X0206397Y0301866D01*
X0206473Y0301841D01*
X0206548Y0301812D01*
X0206622Y0301780D01*
X0206694Y0301745D01*
X0206765Y0301707D01*
X0206834Y0301666D01*
X0206902Y0301622D01*
X0206967Y0301575D01*
X0204717Y0298075D02*
X0204780Y0298014D01*
X0204845Y0297956D01*
X0204913Y0297900D01*
X0204984Y0297847D01*
X0205056Y0297798D01*
X0205130Y0297751D01*
X0205206Y0297707D01*
X0205284Y0297667D01*
X0205364Y0297630D01*
X0205445Y0297596D01*
X0205527Y0297566D01*
X0205611Y0297539D01*
X0205696Y0297515D01*
X0205781Y0297495D01*
X0205867Y0297479D01*
X0205954Y0297466D01*
X0206042Y0297457D01*
X0206129Y0297452D01*
X0206217Y0297450D01*
X0206277Y0297452D01*
X0206338Y0297457D01*
X0206397Y0297466D01*
X0206456Y0297479D01*
X0206515Y0297495D01*
X0206572Y0297515D01*
X0206627Y0297538D01*
X0206682Y0297565D01*
X0206734Y0297594D01*
X0206785Y0297627D01*
X0206834Y0297663D01*
X0206880Y0297701D01*
X0206924Y0297743D01*
X0206966Y0297787D01*
X0207004Y0297833D01*
X0207040Y0297882D01*
X0207073Y0297933D01*
X0207102Y0297985D01*
X0207129Y0298040D01*
X0207152Y0298095D01*
X0207172Y0298152D01*
X0207188Y0298211D01*
X0207201Y0298270D01*
X0207210Y0298329D01*
X0207215Y0298390D01*
X0207217Y0298450D01*
X0206717Y0299325D02*
X0205342Y0300075D01*
X0206717Y0299325D02*
X0206769Y0299292D01*
X0206820Y0299256D01*
X0206868Y0299217D01*
X0206913Y0299175D01*
X0206956Y0299130D01*
X0206996Y0299082D01*
X0207033Y0299033D01*
X0207067Y0298981D01*
X0207098Y0298927D01*
X0207126Y0298871D01*
X0207150Y0298814D01*
X0207170Y0298755D01*
X0207187Y0298696D01*
X0207200Y0298635D01*
X0207209Y0298574D01*
X0207215Y0298512D01*
X0207217Y0298450D01*
X0221217Y0293450D02*
X0221217Y0290950D01*
X0221219Y0290890D01*
X0221224Y0290829D01*
X0221233Y0290770D01*
X0221246Y0290711D01*
X0221262Y0290652D01*
X0221282Y0290595D01*
X0221305Y0290540D01*
X0221332Y0290485D01*
X0221361Y0290433D01*
X0221394Y0290382D01*
X0221430Y0290333D01*
X0221468Y0290287D01*
X0221510Y0290243D01*
X0221554Y0290201D01*
X0221600Y0290163D01*
X0221649Y0290127D01*
X0221700Y0290094D01*
X0221752Y0290065D01*
X0221807Y0290038D01*
X0221862Y0290015D01*
X0221919Y0289995D01*
X0221978Y0289979D01*
X0222037Y0289966D01*
X0222096Y0289957D01*
X0222157Y0289952D01*
X0222217Y0289950D01*
X0223217Y0289950D01*
X0224981Y0291200D02*
X0224981Y0292450D01*
X0226481Y0292450D01*
X0224981Y0292450D02*
X0224983Y0292537D01*
X0224989Y0292624D01*
X0224998Y0292711D01*
X0225011Y0292797D01*
X0225028Y0292883D01*
X0225049Y0292968D01*
X0225074Y0293051D01*
X0225102Y0293134D01*
X0225133Y0293215D01*
X0225168Y0293295D01*
X0225207Y0293373D01*
X0225249Y0293450D01*
X0225294Y0293525D01*
X0225343Y0293597D01*
X0225394Y0293668D01*
X0225449Y0293736D01*
X0225506Y0293801D01*
X0225567Y0293864D01*
X0225630Y0293925D01*
X0225695Y0293982D01*
X0225763Y0294037D01*
X0225834Y0294088D01*
X0225906Y0294137D01*
X0225981Y0294182D01*
X0226058Y0294224D01*
X0226136Y0294263D01*
X0226216Y0294298D01*
X0226297Y0294329D01*
X0226380Y0294357D01*
X0226463Y0294382D01*
X0226548Y0294403D01*
X0226634Y0294420D01*
X0226720Y0294433D01*
X0226807Y0294442D01*
X0226894Y0294448D01*
X0226981Y0294450D01*
X0226481Y0292450D02*
X0226541Y0292448D01*
X0226602Y0292443D01*
X0226661Y0292434D01*
X0226720Y0292421D01*
X0226779Y0292405D01*
X0226836Y0292385D01*
X0226891Y0292362D01*
X0226946Y0292335D01*
X0226998Y0292306D01*
X0227049Y0292273D01*
X0227098Y0292237D01*
X0227144Y0292199D01*
X0227188Y0292157D01*
X0227230Y0292113D01*
X0227268Y0292067D01*
X0227304Y0292018D01*
X0227337Y0291967D01*
X0227366Y0291915D01*
X0227393Y0291860D01*
X0227416Y0291805D01*
X0227436Y0291748D01*
X0227452Y0291689D01*
X0227465Y0291630D01*
X0227474Y0291571D01*
X0227479Y0291510D01*
X0227481Y0291450D01*
X0227481Y0291200D01*
X0227479Y0291131D01*
X0227473Y0291062D01*
X0227464Y0290994D01*
X0227451Y0290927D01*
X0227434Y0290860D01*
X0227413Y0290794D01*
X0227389Y0290730D01*
X0227361Y0290667D01*
X0227330Y0290605D01*
X0227296Y0290545D01*
X0227258Y0290488D01*
X0227217Y0290432D01*
X0227174Y0290379D01*
X0227127Y0290328D01*
X0227078Y0290280D01*
X0227026Y0290235D01*
X0226971Y0290193D01*
X0226915Y0290154D01*
X0226856Y0290117D01*
X0226795Y0290085D01*
X0226733Y0290055D01*
X0226669Y0290029D01*
X0226604Y0290007D01*
X0226538Y0289988D01*
X0226471Y0289973D01*
X0226403Y0289962D01*
X0226334Y0289954D01*
X0226265Y0289950D01*
X0226197Y0289950D01*
X0226128Y0289954D01*
X0226059Y0289962D01*
X0225991Y0289973D01*
X0225924Y0289988D01*
X0225858Y0290007D01*
X0225793Y0290029D01*
X0225729Y0290055D01*
X0225667Y0290085D01*
X0225606Y0290117D01*
X0225547Y0290154D01*
X0225491Y0290193D01*
X0225436Y0290235D01*
X0225384Y0290280D01*
X0225335Y0290328D01*
X0225288Y0290379D01*
X0225245Y0290432D01*
X0225204Y0290488D01*
X0225166Y0290545D01*
X0225132Y0290605D01*
X0225101Y0290667D01*
X0225073Y0290730D01*
X0225049Y0290794D01*
X0225028Y0290860D01*
X0225011Y0290927D01*
X0224998Y0290994D01*
X0224989Y0291062D01*
X0224983Y0291131D01*
X0224981Y0291200D01*
X0222217Y0294450D02*
X0222157Y0294448D01*
X0222096Y0294443D01*
X0222037Y0294434D01*
X0221978Y0294421D01*
X0221919Y0294405D01*
X0221862Y0294385D01*
X0221807Y0294362D01*
X0221752Y0294335D01*
X0221700Y0294306D01*
X0221649Y0294273D01*
X0221600Y0294237D01*
X0221554Y0294199D01*
X0221510Y0294157D01*
X0221468Y0294113D01*
X0221430Y0294067D01*
X0221394Y0294018D01*
X0221361Y0293967D01*
X0221332Y0293915D01*
X0221305Y0293860D01*
X0221282Y0293805D01*
X0221262Y0293748D01*
X0221246Y0293689D01*
X0221233Y0293630D01*
X0221224Y0293571D01*
X0221219Y0293510D01*
X0221217Y0293450D01*
X0222217Y0294450D02*
X0223217Y0294450D01*
X0258217Y0264450D02*
X0259467Y0264450D01*
X0259536Y0264448D01*
X0259605Y0264442D01*
X0259673Y0264433D01*
X0259740Y0264420D01*
X0259807Y0264403D01*
X0259873Y0264382D01*
X0259937Y0264358D01*
X0260000Y0264330D01*
X0260062Y0264299D01*
X0260122Y0264265D01*
X0260179Y0264227D01*
X0260235Y0264186D01*
X0260288Y0264143D01*
X0260339Y0264096D01*
X0260387Y0264047D01*
X0260432Y0263995D01*
X0260474Y0263940D01*
X0260513Y0263884D01*
X0260550Y0263825D01*
X0260582Y0263764D01*
X0260612Y0263702D01*
X0260638Y0263638D01*
X0260660Y0263573D01*
X0260679Y0263507D01*
X0260694Y0263440D01*
X0260705Y0263372D01*
X0260713Y0263303D01*
X0260717Y0263234D01*
X0260717Y0263166D01*
X0260713Y0263097D01*
X0260705Y0263028D01*
X0260694Y0262960D01*
X0260679Y0262893D01*
X0260660Y0262827D01*
X0260638Y0262762D01*
X0260612Y0262698D01*
X0260582Y0262636D01*
X0260550Y0262575D01*
X0260513Y0262516D01*
X0260474Y0262460D01*
X0260432Y0262405D01*
X0260387Y0262353D01*
X0260339Y0262304D01*
X0260288Y0262257D01*
X0260235Y0262214D01*
X0260179Y0262173D01*
X0260122Y0262135D01*
X0260062Y0262101D01*
X0260000Y0262070D01*
X0259937Y0262042D01*
X0259873Y0262018D01*
X0259807Y0261997D01*
X0259740Y0261980D01*
X0259673Y0261967D01*
X0259605Y0261958D01*
X0259536Y0261952D01*
X0259467Y0261950D01*
X0258217Y0261950D01*
X0259717Y0261950D02*
X0260717Y0259950D01*
X0262684Y0259950D02*
X0263934Y0259950D01*
X0264003Y0259952D01*
X0264072Y0259958D01*
X0264140Y0259967D01*
X0264207Y0259980D01*
X0264274Y0259997D01*
X0264340Y0260018D01*
X0264404Y0260042D01*
X0264467Y0260070D01*
X0264529Y0260101D01*
X0264589Y0260135D01*
X0264646Y0260173D01*
X0264702Y0260214D01*
X0264755Y0260257D01*
X0264806Y0260304D01*
X0264854Y0260353D01*
X0264899Y0260405D01*
X0264941Y0260460D01*
X0264980Y0260516D01*
X0265017Y0260575D01*
X0265049Y0260636D01*
X0265079Y0260698D01*
X0265105Y0260762D01*
X0265127Y0260827D01*
X0265146Y0260893D01*
X0265161Y0260960D01*
X0265172Y0261028D01*
X0265180Y0261097D01*
X0265184Y0261166D01*
X0265184Y0261234D01*
X0265180Y0261303D01*
X0265172Y0261372D01*
X0265161Y0261440D01*
X0265146Y0261507D01*
X0265127Y0261573D01*
X0265105Y0261638D01*
X0265079Y0261702D01*
X0265049Y0261764D01*
X0265017Y0261825D01*
X0264980Y0261884D01*
X0264941Y0261940D01*
X0264899Y0261995D01*
X0264854Y0262047D01*
X0264806Y0262096D01*
X0264755Y0262143D01*
X0264702Y0262186D01*
X0264646Y0262227D01*
X0264589Y0262265D01*
X0264529Y0262299D01*
X0264467Y0262330D01*
X0264404Y0262358D01*
X0264340Y0262382D01*
X0264274Y0262403D01*
X0264207Y0262420D01*
X0264140Y0262433D01*
X0264072Y0262442D01*
X0264003Y0262448D01*
X0263934Y0262450D01*
X0264184Y0262450D02*
X0263184Y0262450D01*
X0264184Y0262450D02*
X0264246Y0262452D01*
X0264307Y0262458D01*
X0264368Y0262467D01*
X0264428Y0262480D01*
X0264487Y0262497D01*
X0264545Y0262518D01*
X0264602Y0262542D01*
X0264657Y0262569D01*
X0264710Y0262600D01*
X0264762Y0262634D01*
X0264811Y0262671D01*
X0264858Y0262711D01*
X0264902Y0262754D01*
X0264943Y0262799D01*
X0264982Y0262847D01*
X0265018Y0262898D01*
X0265050Y0262950D01*
X0265079Y0263004D01*
X0265105Y0263060D01*
X0265127Y0263118D01*
X0265146Y0263176D01*
X0265161Y0263236D01*
X0265172Y0263297D01*
X0265180Y0263358D01*
X0265184Y0263419D01*
X0265184Y0263481D01*
X0265180Y0263542D01*
X0265172Y0263603D01*
X0265161Y0263664D01*
X0265146Y0263724D01*
X0265127Y0263782D01*
X0265105Y0263840D01*
X0265079Y0263896D01*
X0265050Y0263950D01*
X0265018Y0264002D01*
X0264982Y0264053D01*
X0264943Y0264101D01*
X0264902Y0264146D01*
X0264858Y0264189D01*
X0264811Y0264229D01*
X0264762Y0264266D01*
X0264710Y0264300D01*
X0264657Y0264331D01*
X0264602Y0264358D01*
X0264545Y0264382D01*
X0264487Y0264403D01*
X0264428Y0264420D01*
X0264368Y0264433D01*
X0264307Y0264442D01*
X0264246Y0264448D01*
X0264184Y0264450D01*
X0262684Y0264450D01*
X0258217Y0264450D02*
X0258217Y0259950D01*
X0338217Y0259950D02*
X0338217Y0264450D01*
X0339467Y0264450D01*
X0339536Y0264448D01*
X0339605Y0264442D01*
X0339673Y0264433D01*
X0339740Y0264420D01*
X0339807Y0264403D01*
X0339873Y0264382D01*
X0339937Y0264358D01*
X0340000Y0264330D01*
X0340062Y0264299D01*
X0340122Y0264265D01*
X0340179Y0264227D01*
X0340235Y0264186D01*
X0340288Y0264143D01*
X0340339Y0264096D01*
X0340387Y0264047D01*
X0340432Y0263995D01*
X0340474Y0263940D01*
X0340513Y0263884D01*
X0340550Y0263825D01*
X0340582Y0263764D01*
X0340612Y0263702D01*
X0340638Y0263638D01*
X0340660Y0263573D01*
X0340679Y0263507D01*
X0340694Y0263440D01*
X0340705Y0263372D01*
X0340713Y0263303D01*
X0340717Y0263234D01*
X0340717Y0263166D01*
X0340713Y0263097D01*
X0340705Y0263028D01*
X0340694Y0262960D01*
X0340679Y0262893D01*
X0340660Y0262827D01*
X0340638Y0262762D01*
X0340612Y0262698D01*
X0340582Y0262636D01*
X0340550Y0262575D01*
X0340513Y0262516D01*
X0340474Y0262460D01*
X0340432Y0262405D01*
X0340387Y0262353D01*
X0340339Y0262304D01*
X0340288Y0262257D01*
X0340235Y0262214D01*
X0340179Y0262173D01*
X0340122Y0262135D01*
X0340062Y0262101D01*
X0340000Y0262070D01*
X0339937Y0262042D01*
X0339873Y0262018D01*
X0339807Y0261997D01*
X0339740Y0261980D01*
X0339673Y0261967D01*
X0339605Y0261958D01*
X0339536Y0261952D01*
X0339467Y0261950D01*
X0338217Y0261950D01*
X0339717Y0261950D02*
X0340717Y0259950D01*
X0342684Y0259950D02*
X0344184Y0259950D01*
X0344244Y0259952D01*
X0344305Y0259957D01*
X0344364Y0259966D01*
X0344423Y0259979D01*
X0344482Y0259995D01*
X0344539Y0260015D01*
X0344594Y0260038D01*
X0344649Y0260065D01*
X0344701Y0260094D01*
X0344752Y0260127D01*
X0344801Y0260163D01*
X0344847Y0260201D01*
X0344891Y0260243D01*
X0344933Y0260287D01*
X0344971Y0260333D01*
X0345007Y0260382D01*
X0345040Y0260433D01*
X0345069Y0260485D01*
X0345096Y0260540D01*
X0345119Y0260595D01*
X0345139Y0260652D01*
X0345155Y0260711D01*
X0345168Y0260770D01*
X0345177Y0260829D01*
X0345182Y0260890D01*
X0345184Y0260950D01*
X0345184Y0261450D01*
X0345182Y0261510D01*
X0345177Y0261571D01*
X0345168Y0261630D01*
X0345155Y0261689D01*
X0345139Y0261748D01*
X0345119Y0261805D01*
X0345096Y0261860D01*
X0345069Y0261915D01*
X0345040Y0261967D01*
X0345007Y0262018D01*
X0344971Y0262067D01*
X0344933Y0262113D01*
X0344891Y0262157D01*
X0344847Y0262199D01*
X0344801Y0262237D01*
X0344752Y0262273D01*
X0344701Y0262306D01*
X0344649Y0262335D01*
X0344594Y0262362D01*
X0344539Y0262385D01*
X0344482Y0262405D01*
X0344423Y0262421D01*
X0344364Y0262434D01*
X0344305Y0262443D01*
X0344244Y0262448D01*
X0344184Y0262450D01*
X0342684Y0262450D01*
X0342684Y0264450D01*
X0345184Y0264450D01*
X0358217Y0287950D02*
X0359467Y0287950D01*
X0359535Y0287952D01*
X0359602Y0287957D01*
X0359669Y0287966D01*
X0359736Y0287979D01*
X0359801Y0287996D01*
X0359866Y0288015D01*
X0359930Y0288039D01*
X0359992Y0288066D01*
X0360053Y0288096D01*
X0360111Y0288129D01*
X0360168Y0288165D01*
X0360223Y0288205D01*
X0360276Y0288247D01*
X0360327Y0288293D01*
X0360374Y0288340D01*
X0360420Y0288391D01*
X0360462Y0288444D01*
X0360502Y0288499D01*
X0360538Y0288556D01*
X0360571Y0288614D01*
X0360601Y0288675D01*
X0360628Y0288737D01*
X0360652Y0288801D01*
X0360671Y0288866D01*
X0360688Y0288931D01*
X0360701Y0288998D01*
X0360710Y0289065D01*
X0360715Y0289132D01*
X0360717Y0289200D01*
X0360717Y0291200D01*
X0360715Y0291268D01*
X0360710Y0291335D01*
X0360701Y0291402D01*
X0360688Y0291469D01*
X0360671Y0291534D01*
X0360652Y0291599D01*
X0360628Y0291663D01*
X0360601Y0291725D01*
X0360571Y0291786D01*
X0360538Y0291844D01*
X0360502Y0291901D01*
X0360462Y0291956D01*
X0360420Y0292009D01*
X0360374Y0292060D01*
X0360327Y0292107D01*
X0360276Y0292153D01*
X0360223Y0292195D01*
X0360168Y0292235D01*
X0360111Y0292271D01*
X0360053Y0292304D01*
X0359992Y0292334D01*
X0359930Y0292361D01*
X0359866Y0292385D01*
X0359801Y0292404D01*
X0359736Y0292421D01*
X0359669Y0292434D01*
X0359602Y0292443D01*
X0359535Y0292448D01*
X0359467Y0292450D01*
X0358217Y0292450D01*
X0358217Y0287950D01*
X0362867Y0289200D02*
X0362867Y0290450D01*
X0364367Y0290450D01*
X0362867Y0290450D02*
X0362869Y0290537D01*
X0362875Y0290624D01*
X0362884Y0290711D01*
X0362897Y0290797D01*
X0362914Y0290883D01*
X0362935Y0290968D01*
X0362960Y0291051D01*
X0362988Y0291134D01*
X0363019Y0291215D01*
X0363054Y0291295D01*
X0363093Y0291373D01*
X0363135Y0291450D01*
X0363180Y0291525D01*
X0363229Y0291597D01*
X0363280Y0291668D01*
X0363335Y0291736D01*
X0363392Y0291801D01*
X0363453Y0291864D01*
X0363516Y0291925D01*
X0363581Y0291982D01*
X0363649Y0292037D01*
X0363720Y0292088D01*
X0363792Y0292137D01*
X0363867Y0292182D01*
X0363944Y0292224D01*
X0364022Y0292263D01*
X0364102Y0292298D01*
X0364183Y0292329D01*
X0364266Y0292357D01*
X0364349Y0292382D01*
X0364434Y0292403D01*
X0364520Y0292420D01*
X0364606Y0292433D01*
X0364693Y0292442D01*
X0364780Y0292448D01*
X0364867Y0292450D01*
X0365367Y0289450D02*
X0365367Y0289200D01*
X0365367Y0289450D02*
X0365365Y0289510D01*
X0365360Y0289571D01*
X0365351Y0289630D01*
X0365338Y0289689D01*
X0365322Y0289748D01*
X0365302Y0289805D01*
X0365279Y0289860D01*
X0365252Y0289915D01*
X0365223Y0289967D01*
X0365190Y0290018D01*
X0365154Y0290067D01*
X0365116Y0290113D01*
X0365074Y0290157D01*
X0365030Y0290199D01*
X0364984Y0290237D01*
X0364935Y0290273D01*
X0364884Y0290306D01*
X0364832Y0290335D01*
X0364777Y0290362D01*
X0364722Y0290385D01*
X0364665Y0290405D01*
X0364606Y0290421D01*
X0364547Y0290434D01*
X0364488Y0290443D01*
X0364427Y0290448D01*
X0364367Y0290450D01*
X0365367Y0289200D02*
X0365365Y0289131D01*
X0365359Y0289062D01*
X0365350Y0288994D01*
X0365337Y0288927D01*
X0365320Y0288860D01*
X0365299Y0288794D01*
X0365275Y0288730D01*
X0365247Y0288667D01*
X0365216Y0288605D01*
X0365182Y0288545D01*
X0365144Y0288488D01*
X0365103Y0288432D01*
X0365060Y0288379D01*
X0365013Y0288328D01*
X0364964Y0288280D01*
X0364912Y0288235D01*
X0364857Y0288193D01*
X0364801Y0288154D01*
X0364742Y0288117D01*
X0364681Y0288085D01*
X0364619Y0288055D01*
X0364555Y0288029D01*
X0364490Y0288007D01*
X0364424Y0287988D01*
X0364357Y0287973D01*
X0364289Y0287962D01*
X0364220Y0287954D01*
X0364151Y0287950D01*
X0364083Y0287950D01*
X0364014Y0287954D01*
X0363945Y0287962D01*
X0363877Y0287973D01*
X0363810Y0287988D01*
X0363744Y0288007D01*
X0363679Y0288029D01*
X0363615Y0288055D01*
X0363553Y0288085D01*
X0363492Y0288117D01*
X0363433Y0288154D01*
X0363377Y0288193D01*
X0363322Y0288235D01*
X0363270Y0288280D01*
X0363221Y0288328D01*
X0363174Y0288379D01*
X0363131Y0288432D01*
X0363090Y0288488D01*
X0363052Y0288545D01*
X0363018Y0288605D01*
X0362987Y0288667D01*
X0362959Y0288730D01*
X0362935Y0288794D01*
X0362914Y0288860D01*
X0362897Y0288927D01*
X0362884Y0288994D01*
X0362875Y0289062D01*
X0362869Y0289131D01*
X0362867Y0289200D01*
X0175184Y0259950D02*
X0172684Y0259950D01*
X0174809Y0262450D01*
X0174059Y0264450D02*
X0173986Y0264448D01*
X0173914Y0264443D01*
X0173842Y0264434D01*
X0173770Y0264421D01*
X0173699Y0264405D01*
X0173629Y0264385D01*
X0173561Y0264361D01*
X0173493Y0264335D01*
X0173427Y0264304D01*
X0173362Y0264271D01*
X0173300Y0264234D01*
X0173239Y0264195D01*
X0173180Y0264152D01*
X0173123Y0264106D01*
X0173069Y0264058D01*
X0173018Y0264007D01*
X0172968Y0263953D01*
X0172922Y0263897D01*
X0172879Y0263839D01*
X0172838Y0263778D01*
X0172801Y0263716D01*
X0172767Y0263652D01*
X0172736Y0263586D01*
X0172708Y0263519D01*
X0172684Y0263450D01*
X0174809Y0262450D02*
X0174855Y0262496D01*
X0174899Y0262545D01*
X0174939Y0262596D01*
X0174977Y0262649D01*
X0175012Y0262704D01*
X0175044Y0262761D01*
X0175073Y0262819D01*
X0175099Y0262879D01*
X0175121Y0262941D01*
X0175140Y0263003D01*
X0175156Y0263066D01*
X0175168Y0263130D01*
X0175177Y0263195D01*
X0175182Y0263260D01*
X0175184Y0263325D01*
X0175182Y0263390D01*
X0175176Y0263456D01*
X0175167Y0263520D01*
X0175154Y0263584D01*
X0175137Y0263648D01*
X0175116Y0263710D01*
X0175092Y0263771D01*
X0175064Y0263830D01*
X0175033Y0263888D01*
X0174999Y0263943D01*
X0174961Y0263997D01*
X0174921Y0264048D01*
X0174877Y0264097D01*
X0174831Y0264143D01*
X0174782Y0264187D01*
X0174731Y0264227D01*
X0174677Y0264265D01*
X0174622Y0264299D01*
X0174564Y0264330D01*
X0174505Y0264358D01*
X0174444Y0264382D01*
X0174382Y0264403D01*
X0174318Y0264420D01*
X0174254Y0264433D01*
X0174190Y0264442D01*
X0174124Y0264448D01*
X0174059Y0264450D01*
X0169467Y0264450D02*
X0168217Y0264450D01*
X0168217Y0259950D01*
X0168217Y0261950D02*
X0169467Y0261950D01*
X0169717Y0261950D02*
X0170717Y0259950D01*
X0169467Y0261950D02*
X0169536Y0261952D01*
X0169605Y0261958D01*
X0169673Y0261967D01*
X0169740Y0261980D01*
X0169807Y0261997D01*
X0169873Y0262018D01*
X0169937Y0262042D01*
X0170000Y0262070D01*
X0170062Y0262101D01*
X0170122Y0262135D01*
X0170179Y0262173D01*
X0170235Y0262214D01*
X0170288Y0262257D01*
X0170339Y0262304D01*
X0170387Y0262353D01*
X0170432Y0262405D01*
X0170474Y0262460D01*
X0170513Y0262516D01*
X0170550Y0262575D01*
X0170582Y0262636D01*
X0170612Y0262698D01*
X0170638Y0262762D01*
X0170660Y0262827D01*
X0170679Y0262893D01*
X0170694Y0262960D01*
X0170705Y0263028D01*
X0170713Y0263097D01*
X0170717Y0263166D01*
X0170717Y0263234D01*
X0170713Y0263303D01*
X0170705Y0263372D01*
X0170694Y0263440D01*
X0170679Y0263507D01*
X0170660Y0263573D01*
X0170638Y0263638D01*
X0170612Y0263702D01*
X0170582Y0263764D01*
X0170550Y0263825D01*
X0170513Y0263884D01*
X0170474Y0263940D01*
X0170432Y0263995D01*
X0170387Y0264047D01*
X0170339Y0264096D01*
X0170288Y0264143D01*
X0170235Y0264186D01*
X0170179Y0264227D01*
X0170122Y0264265D01*
X0170062Y0264299D01*
X0170000Y0264330D01*
X0169937Y0264358D01*
X0169873Y0264382D01*
X0169807Y0264403D01*
X0169740Y0264420D01*
X0169673Y0264433D01*
X0169605Y0264442D01*
X0169536Y0264448D01*
X0169467Y0264450D01*
X0167481Y0308450D02*
X0164981Y0308450D01*
X0167106Y0310950D01*
X0166356Y0312950D02*
X0166283Y0312948D01*
X0166211Y0312943D01*
X0166139Y0312934D01*
X0166067Y0312921D01*
X0165996Y0312905D01*
X0165926Y0312885D01*
X0165858Y0312861D01*
X0165790Y0312835D01*
X0165724Y0312804D01*
X0165659Y0312771D01*
X0165597Y0312734D01*
X0165536Y0312695D01*
X0165477Y0312652D01*
X0165420Y0312606D01*
X0165366Y0312558D01*
X0165315Y0312507D01*
X0165265Y0312453D01*
X0165219Y0312397D01*
X0165176Y0312339D01*
X0165135Y0312278D01*
X0165098Y0312216D01*
X0165064Y0312152D01*
X0165033Y0312086D01*
X0165005Y0312019D01*
X0164981Y0311950D01*
X0167106Y0310950D02*
X0167152Y0310996D01*
X0167196Y0311045D01*
X0167236Y0311096D01*
X0167274Y0311149D01*
X0167309Y0311204D01*
X0167341Y0311261D01*
X0167370Y0311319D01*
X0167396Y0311379D01*
X0167418Y0311441D01*
X0167437Y0311503D01*
X0167453Y0311566D01*
X0167465Y0311630D01*
X0167474Y0311695D01*
X0167479Y0311760D01*
X0167481Y0311825D01*
X0167479Y0311890D01*
X0167473Y0311956D01*
X0167464Y0312020D01*
X0167451Y0312084D01*
X0167434Y0312148D01*
X0167413Y0312210D01*
X0167389Y0312271D01*
X0167361Y0312330D01*
X0167330Y0312388D01*
X0167296Y0312443D01*
X0167258Y0312497D01*
X0167218Y0312548D01*
X0167174Y0312597D01*
X0167128Y0312643D01*
X0167079Y0312687D01*
X0167028Y0312727D01*
X0166974Y0312765D01*
X0166919Y0312799D01*
X0166861Y0312830D01*
X0166802Y0312858D01*
X0166741Y0312882D01*
X0166679Y0312903D01*
X0166615Y0312920D01*
X0166551Y0312933D01*
X0166487Y0312942D01*
X0166421Y0312948D01*
X0166356Y0312950D01*
X0163217Y0312950D02*
X0162217Y0312950D01*
X0162157Y0312948D01*
X0162096Y0312943D01*
X0162037Y0312934D01*
X0161978Y0312921D01*
X0161919Y0312905D01*
X0161862Y0312885D01*
X0161807Y0312862D01*
X0161752Y0312835D01*
X0161700Y0312806D01*
X0161649Y0312773D01*
X0161600Y0312737D01*
X0161554Y0312699D01*
X0161510Y0312657D01*
X0161468Y0312613D01*
X0161430Y0312567D01*
X0161394Y0312518D01*
X0161361Y0312467D01*
X0161332Y0312415D01*
X0161305Y0312360D01*
X0161282Y0312305D01*
X0161262Y0312248D01*
X0161246Y0312189D01*
X0161233Y0312130D01*
X0161224Y0312071D01*
X0161219Y0312010D01*
X0161217Y0311950D01*
X0161217Y0309450D01*
X0161219Y0309390D01*
X0161224Y0309329D01*
X0161233Y0309270D01*
X0161246Y0309211D01*
X0161262Y0309152D01*
X0161282Y0309095D01*
X0161305Y0309040D01*
X0161332Y0308985D01*
X0161361Y0308933D01*
X0161394Y0308882D01*
X0161430Y0308833D01*
X0161468Y0308787D01*
X0161510Y0308743D01*
X0161554Y0308701D01*
X0161600Y0308663D01*
X0161649Y0308627D01*
X0161700Y0308594D01*
X0161752Y0308565D01*
X0161807Y0308538D01*
X0161862Y0308515D01*
X0161919Y0308495D01*
X0161978Y0308479D01*
X0162037Y0308466D01*
X0162096Y0308457D01*
X0162157Y0308452D01*
X0162217Y0308450D01*
X0163217Y0308450D01*
X0093217Y0255050D02*
X0093217Y0252550D01*
X0093217Y0253800D02*
X0088717Y0253800D01*
X0089717Y0252550D01*
X0088717Y0250785D02*
X0088717Y0249785D01*
X0088719Y0249725D01*
X0088724Y0249664D01*
X0088733Y0249605D01*
X0088746Y0249546D01*
X0088762Y0249487D01*
X0088782Y0249430D01*
X0088805Y0249375D01*
X0088832Y0249320D01*
X0088861Y0249268D01*
X0088894Y0249217D01*
X0088930Y0249168D01*
X0088968Y0249122D01*
X0089010Y0249078D01*
X0089054Y0249036D01*
X0089100Y0248998D01*
X0089149Y0248962D01*
X0089200Y0248929D01*
X0089252Y0248900D01*
X0089307Y0248873D01*
X0089362Y0248850D01*
X0089419Y0248830D01*
X0089478Y0248814D01*
X0089537Y0248801D01*
X0089596Y0248792D01*
X0089657Y0248787D01*
X0089717Y0248785D01*
X0092217Y0248785D01*
X0092277Y0248787D01*
X0092338Y0248792D01*
X0092397Y0248801D01*
X0092456Y0248814D01*
X0092515Y0248830D01*
X0092572Y0248850D01*
X0092627Y0248873D01*
X0092682Y0248900D01*
X0092734Y0248929D01*
X0092785Y0248962D01*
X0092834Y0248998D01*
X0092880Y0249036D01*
X0092924Y0249078D01*
X0092966Y0249122D01*
X0093004Y0249168D01*
X0093040Y0249217D01*
X0093073Y0249268D01*
X0093102Y0249320D01*
X0093129Y0249375D01*
X0093152Y0249430D01*
X0093172Y0249487D01*
X0093188Y0249546D01*
X0093201Y0249605D01*
X0093210Y0249664D01*
X0093215Y0249725D01*
X0093217Y0249785D01*
X0093217Y0250785D01*
X0093217Y0246950D02*
X0093217Y0245950D01*
X0093217Y0246450D02*
X0088717Y0246450D01*
X0088717Y0245950D02*
X0088717Y0246950D01*
X0040184Y0269950D02*
X0037684Y0269950D01*
X0038934Y0269950D02*
X0038934Y0274450D01*
X0037684Y0273450D01*
X0034467Y0274450D02*
X0034536Y0274448D01*
X0034605Y0274442D01*
X0034673Y0274433D01*
X0034740Y0274420D01*
X0034807Y0274403D01*
X0034873Y0274382D01*
X0034937Y0274358D01*
X0035000Y0274330D01*
X0035062Y0274299D01*
X0035122Y0274265D01*
X0035179Y0274227D01*
X0035235Y0274186D01*
X0035288Y0274143D01*
X0035339Y0274096D01*
X0035387Y0274047D01*
X0035432Y0273995D01*
X0035474Y0273940D01*
X0035513Y0273884D01*
X0035550Y0273825D01*
X0035582Y0273764D01*
X0035612Y0273702D01*
X0035638Y0273638D01*
X0035660Y0273573D01*
X0035679Y0273507D01*
X0035694Y0273440D01*
X0035705Y0273372D01*
X0035713Y0273303D01*
X0035717Y0273234D01*
X0035717Y0273166D01*
X0035713Y0273097D01*
X0035705Y0273028D01*
X0035694Y0272960D01*
X0035679Y0272893D01*
X0035660Y0272827D01*
X0035638Y0272762D01*
X0035612Y0272698D01*
X0035582Y0272636D01*
X0035550Y0272575D01*
X0035513Y0272516D01*
X0035474Y0272460D01*
X0035432Y0272405D01*
X0035387Y0272353D01*
X0035339Y0272304D01*
X0035288Y0272257D01*
X0035235Y0272214D01*
X0035179Y0272173D01*
X0035122Y0272135D01*
X0035062Y0272101D01*
X0035000Y0272070D01*
X0034937Y0272042D01*
X0034873Y0272018D01*
X0034807Y0271997D01*
X0034740Y0271980D01*
X0034673Y0271967D01*
X0034605Y0271958D01*
X0034536Y0271952D01*
X0034467Y0271950D01*
X0033217Y0271950D01*
X0034717Y0271950D02*
X0035717Y0269950D01*
X0033217Y0269950D02*
X0033217Y0274450D01*
X0034467Y0274450D01*
X0053217Y0292950D02*
X0054467Y0292950D01*
X0054535Y0292952D01*
X0054602Y0292957D01*
X0054669Y0292966D01*
X0054736Y0292979D01*
X0054801Y0292996D01*
X0054866Y0293015D01*
X0054930Y0293039D01*
X0054992Y0293066D01*
X0055053Y0293096D01*
X0055111Y0293129D01*
X0055168Y0293165D01*
X0055223Y0293205D01*
X0055276Y0293247D01*
X0055327Y0293293D01*
X0055374Y0293340D01*
X0055420Y0293391D01*
X0055462Y0293444D01*
X0055502Y0293499D01*
X0055538Y0293556D01*
X0055571Y0293614D01*
X0055601Y0293675D01*
X0055628Y0293737D01*
X0055652Y0293801D01*
X0055671Y0293866D01*
X0055688Y0293931D01*
X0055701Y0293998D01*
X0055710Y0294065D01*
X0055715Y0294132D01*
X0055717Y0294200D01*
X0055717Y0296200D01*
X0055715Y0296268D01*
X0055710Y0296335D01*
X0055701Y0296402D01*
X0055688Y0296469D01*
X0055671Y0296534D01*
X0055652Y0296599D01*
X0055628Y0296663D01*
X0055601Y0296725D01*
X0055571Y0296786D01*
X0055538Y0296844D01*
X0055502Y0296901D01*
X0055462Y0296956D01*
X0055420Y0297009D01*
X0055374Y0297060D01*
X0055327Y0297107D01*
X0055276Y0297153D01*
X0055223Y0297195D01*
X0055168Y0297235D01*
X0055111Y0297271D01*
X0055053Y0297304D01*
X0054992Y0297334D01*
X0054930Y0297361D01*
X0054866Y0297385D01*
X0054801Y0297404D01*
X0054736Y0297421D01*
X0054669Y0297434D01*
X0054602Y0297443D01*
X0054535Y0297448D01*
X0054467Y0297450D01*
X0053217Y0297450D01*
X0053217Y0292950D01*
X0057867Y0292950D02*
X0059367Y0292950D01*
X0059427Y0292952D01*
X0059488Y0292957D01*
X0059547Y0292966D01*
X0059606Y0292979D01*
X0059665Y0292995D01*
X0059722Y0293015D01*
X0059777Y0293038D01*
X0059832Y0293065D01*
X0059884Y0293094D01*
X0059935Y0293127D01*
X0059984Y0293163D01*
X0060030Y0293201D01*
X0060074Y0293243D01*
X0060116Y0293287D01*
X0060154Y0293333D01*
X0060190Y0293382D01*
X0060223Y0293433D01*
X0060252Y0293485D01*
X0060279Y0293540D01*
X0060302Y0293595D01*
X0060322Y0293652D01*
X0060338Y0293711D01*
X0060351Y0293770D01*
X0060360Y0293829D01*
X0060365Y0293890D01*
X0060367Y0293950D01*
X0060367Y0294450D01*
X0060365Y0294510D01*
X0060360Y0294571D01*
X0060351Y0294630D01*
X0060338Y0294689D01*
X0060322Y0294748D01*
X0060302Y0294805D01*
X0060279Y0294860D01*
X0060252Y0294915D01*
X0060223Y0294967D01*
X0060190Y0295018D01*
X0060154Y0295067D01*
X0060116Y0295113D01*
X0060074Y0295157D01*
X0060030Y0295199D01*
X0059984Y0295237D01*
X0059935Y0295273D01*
X0059884Y0295306D01*
X0059832Y0295335D01*
X0059777Y0295362D01*
X0059722Y0295385D01*
X0059665Y0295405D01*
X0059606Y0295421D01*
X0059547Y0295434D01*
X0059488Y0295443D01*
X0059427Y0295448D01*
X0059367Y0295450D01*
X0057867Y0295450D01*
X0057867Y0297450D01*
X0060367Y0297450D01*
X0202952Y0059450D02*
X0203952Y0059450D01*
X0202952Y0059450D02*
X0202892Y0059448D01*
X0202831Y0059443D01*
X0202772Y0059434D01*
X0202713Y0059421D01*
X0202654Y0059405D01*
X0202597Y0059385D01*
X0202542Y0059362D01*
X0202487Y0059335D01*
X0202435Y0059306D01*
X0202384Y0059273D01*
X0202335Y0059237D01*
X0202289Y0059199D01*
X0202245Y0059157D01*
X0202203Y0059113D01*
X0202165Y0059067D01*
X0202129Y0059018D01*
X0202096Y0058967D01*
X0202067Y0058915D01*
X0202040Y0058860D01*
X0202017Y0058805D01*
X0201997Y0058748D01*
X0201981Y0058689D01*
X0201968Y0058630D01*
X0201959Y0058571D01*
X0201954Y0058510D01*
X0201952Y0058450D01*
X0201952Y0055950D01*
X0201954Y0055890D01*
X0201959Y0055829D01*
X0201968Y0055770D01*
X0201981Y0055711D01*
X0201997Y0055652D01*
X0202017Y0055595D01*
X0202040Y0055540D01*
X0202067Y0055485D01*
X0202096Y0055433D01*
X0202129Y0055382D01*
X0202165Y0055333D01*
X0202203Y0055287D01*
X0202245Y0055243D01*
X0202289Y0055201D01*
X0202335Y0055163D01*
X0202384Y0055127D01*
X0202435Y0055094D01*
X0202487Y0055065D01*
X0202542Y0055038D01*
X0202597Y0055015D01*
X0202654Y0054995D01*
X0202713Y0054979D01*
X0202772Y0054966D01*
X0202831Y0054957D01*
X0202892Y0054952D01*
X0202952Y0054950D01*
X0203952Y0054950D01*
X0205717Y0054950D02*
X0207217Y0054950D01*
X0207277Y0054952D01*
X0207338Y0054957D01*
X0207397Y0054966D01*
X0207456Y0054979D01*
X0207515Y0054995D01*
X0207572Y0055015D01*
X0207627Y0055038D01*
X0207682Y0055065D01*
X0207734Y0055094D01*
X0207785Y0055127D01*
X0207834Y0055163D01*
X0207880Y0055201D01*
X0207924Y0055243D01*
X0207966Y0055287D01*
X0208004Y0055333D01*
X0208040Y0055382D01*
X0208073Y0055433D01*
X0208102Y0055485D01*
X0208129Y0055540D01*
X0208152Y0055595D01*
X0208172Y0055652D01*
X0208188Y0055711D01*
X0208201Y0055770D01*
X0208210Y0055829D01*
X0208215Y0055890D01*
X0208217Y0055950D01*
X0208217Y0056450D01*
X0208215Y0056510D01*
X0208210Y0056571D01*
X0208201Y0056630D01*
X0208188Y0056689D01*
X0208172Y0056748D01*
X0208152Y0056805D01*
X0208129Y0056860D01*
X0208102Y0056915D01*
X0208073Y0056967D01*
X0208040Y0057018D01*
X0208004Y0057067D01*
X0207966Y0057113D01*
X0207924Y0057157D01*
X0207880Y0057199D01*
X0207834Y0057237D01*
X0207785Y0057273D01*
X0207734Y0057306D01*
X0207682Y0057335D01*
X0207627Y0057362D01*
X0207572Y0057385D01*
X0207515Y0057405D01*
X0207456Y0057421D01*
X0207397Y0057434D01*
X0207338Y0057443D01*
X0207277Y0057448D01*
X0207217Y0057450D01*
X0205717Y0057450D01*
X0205717Y0059450D01*
X0208217Y0059450D01*
X0206717Y0007950D02*
X0205217Y0007950D01*
X0203452Y0007950D02*
X0202452Y0007950D01*
X0202392Y0007948D01*
X0202331Y0007943D01*
X0202272Y0007934D01*
X0202213Y0007921D01*
X0202154Y0007905D01*
X0202097Y0007885D01*
X0202042Y0007862D01*
X0201987Y0007835D01*
X0201935Y0007806D01*
X0201884Y0007773D01*
X0201835Y0007737D01*
X0201789Y0007699D01*
X0201745Y0007657D01*
X0201703Y0007613D01*
X0201665Y0007567D01*
X0201629Y0007518D01*
X0201596Y0007467D01*
X0201567Y0007415D01*
X0201540Y0007360D01*
X0201517Y0007305D01*
X0201497Y0007248D01*
X0201481Y0007189D01*
X0201468Y0007130D01*
X0201459Y0007071D01*
X0201454Y0007010D01*
X0201452Y0006950D01*
X0201452Y0004450D01*
X0201454Y0004390D01*
X0201459Y0004329D01*
X0201468Y0004270D01*
X0201481Y0004211D01*
X0201497Y0004152D01*
X0201517Y0004095D01*
X0201540Y0004040D01*
X0201567Y0003985D01*
X0201596Y0003933D01*
X0201629Y0003882D01*
X0201665Y0003833D01*
X0201703Y0003787D01*
X0201745Y0003743D01*
X0201789Y0003701D01*
X0201835Y0003663D01*
X0201884Y0003627D01*
X0201935Y0003594D01*
X0201987Y0003565D01*
X0202042Y0003538D01*
X0202097Y0003515D01*
X0202154Y0003495D01*
X0202213Y0003479D01*
X0202272Y0003466D01*
X0202331Y0003457D01*
X0202392Y0003452D01*
X0202452Y0003450D01*
X0203452Y0003450D01*
X0205217Y0003450D02*
X0206467Y0003450D01*
X0206536Y0003452D01*
X0206605Y0003458D01*
X0206673Y0003467D01*
X0206740Y0003480D01*
X0206807Y0003497D01*
X0206873Y0003518D01*
X0206937Y0003542D01*
X0207000Y0003570D01*
X0207062Y0003601D01*
X0207122Y0003635D01*
X0207179Y0003673D01*
X0207235Y0003714D01*
X0207288Y0003757D01*
X0207339Y0003804D01*
X0207387Y0003853D01*
X0207432Y0003905D01*
X0207474Y0003960D01*
X0207513Y0004016D01*
X0207550Y0004075D01*
X0207582Y0004136D01*
X0207612Y0004198D01*
X0207638Y0004262D01*
X0207660Y0004327D01*
X0207679Y0004393D01*
X0207694Y0004460D01*
X0207705Y0004528D01*
X0207713Y0004597D01*
X0207717Y0004666D01*
X0207717Y0004734D01*
X0207713Y0004803D01*
X0207705Y0004872D01*
X0207694Y0004940D01*
X0207679Y0005007D01*
X0207660Y0005073D01*
X0207638Y0005138D01*
X0207612Y0005202D01*
X0207582Y0005264D01*
X0207550Y0005325D01*
X0207513Y0005384D01*
X0207474Y0005440D01*
X0207432Y0005495D01*
X0207387Y0005547D01*
X0207339Y0005596D01*
X0207288Y0005643D01*
X0207235Y0005686D01*
X0207179Y0005727D01*
X0207122Y0005765D01*
X0207062Y0005799D01*
X0207000Y0005830D01*
X0206937Y0005858D01*
X0206873Y0005882D01*
X0206807Y0005903D01*
X0206740Y0005920D01*
X0206673Y0005933D01*
X0206605Y0005942D01*
X0206536Y0005948D01*
X0206467Y0005950D01*
X0206717Y0005950D02*
X0205717Y0005950D01*
X0206717Y0005950D02*
X0206779Y0005952D01*
X0206840Y0005958D01*
X0206901Y0005967D01*
X0206961Y0005980D01*
X0207020Y0005997D01*
X0207078Y0006018D01*
X0207135Y0006042D01*
X0207190Y0006069D01*
X0207243Y0006100D01*
X0207295Y0006134D01*
X0207344Y0006171D01*
X0207391Y0006211D01*
X0207435Y0006254D01*
X0207476Y0006299D01*
X0207515Y0006347D01*
X0207551Y0006398D01*
X0207583Y0006450D01*
X0207612Y0006504D01*
X0207638Y0006560D01*
X0207660Y0006618D01*
X0207679Y0006676D01*
X0207694Y0006736D01*
X0207705Y0006797D01*
X0207713Y0006858D01*
X0207717Y0006919D01*
X0207717Y0006981D01*
X0207713Y0007042D01*
X0207705Y0007103D01*
X0207694Y0007164D01*
X0207679Y0007224D01*
X0207660Y0007282D01*
X0207638Y0007340D01*
X0207612Y0007396D01*
X0207583Y0007450D01*
X0207551Y0007502D01*
X0207515Y0007553D01*
X0207476Y0007601D01*
X0207435Y0007646D01*
X0207391Y0007689D01*
X0207344Y0007729D01*
X0207295Y0007766D01*
X0207243Y0007800D01*
X0207190Y0007831D01*
X0207135Y0007858D01*
X0207078Y0007882D01*
X0207020Y0007903D01*
X0206961Y0007920D01*
X0206901Y0007933D01*
X0206840Y0007942D01*
X0206779Y0007948D01*
X0206717Y0007950D01*
D15*
X0247467Y0025200D02*
X0247467Y0030200D01*
X0249467Y0027200D02*
X0251467Y0027200D01*
X0251467Y0028200D01*
X0263467Y0028200D01*
X0263467Y0027200D01*
X0263467Y0023200D01*
X0251467Y0023200D01*
X0251467Y0027200D01*
X0249467Y0027200D02*
X0249467Y0047200D01*
X0251467Y0047200D01*
X0251467Y0051200D01*
X0263467Y0051200D01*
X0263467Y0047200D01*
X0263467Y0046200D01*
X0251467Y0046200D01*
X0251467Y0047200D01*
X0263467Y0047200D02*
X0265467Y0047200D01*
X0313467Y0047200D01*
X0315467Y0047200D01*
X0315467Y0051200D01*
X0327467Y0051200D01*
X0327467Y0047200D01*
X0329467Y0047200D01*
X0329467Y0027200D01*
X0327467Y0027200D01*
X0327467Y0023200D01*
X0315467Y0023200D01*
X0315467Y0027200D01*
X0315467Y0028200D01*
X0327467Y0028200D01*
X0327467Y0027200D01*
X0315467Y0027200D02*
X0313467Y0027200D01*
X0265467Y0027200D01*
X0263467Y0027200D01*
X0265467Y0027200D02*
X0265467Y0047200D01*
X0250467Y0025200D02*
X0247467Y0025200D01*
X0313467Y0027200D02*
X0313467Y0047200D01*
X0315467Y0047200D02*
X0315467Y0046200D01*
X0327467Y0046200D01*
X0327467Y0047200D01*
X0328467Y0049200D02*
X0331467Y0049200D01*
X0331467Y0044200D01*
X0235767Y0274700D02*
X0235767Y0277200D01*
X0235767Y0279700D01*
X0233267Y0279700D02*
X0233267Y0277200D01*
X0233267Y0274700D01*
D16*
X0267867Y0061800D02*
X0271956Y0061800D01*
X0274707Y0059756D02*
X0277263Y0061800D01*
X0277263Y0052600D01*
X0279818Y0052600D02*
X0274707Y0052600D01*
X0271956Y0057711D02*
X0267867Y0057711D01*
X0267867Y0061800D02*
X0267867Y0052600D01*
D17*
X0054467Y0044700D02*
X0054467Y0037200D01*
X0024467Y0037200D01*
X0024467Y0044700D01*
X0054467Y0044700D01*
X0054467Y0037200D02*
X0054467Y0019700D01*
X0024467Y0019700D01*
X0024467Y0037200D01*
X0104467Y0289700D02*
X0104467Y0297200D01*
X0134467Y0297200D01*
X0134467Y0289700D01*
X0104467Y0289700D01*
X0104467Y0297200D02*
X0104467Y0314700D01*
X0134467Y0314700D01*
X0134467Y0297200D01*
D18*
X0130867Y0287000D02*
X0128467Y0283400D01*
X0130867Y0283400D02*
X0128467Y0287000D01*
X0133967Y0285400D02*
X0134009Y0285443D01*
X0134049Y0285488D01*
X0134085Y0285536D01*
X0134119Y0285586D01*
X0134149Y0285638D01*
X0134177Y0285692D01*
X0134200Y0285747D01*
X0134220Y0285804D01*
X0134237Y0285862D01*
X0134250Y0285920D01*
X0134260Y0285980D01*
X0134265Y0286040D01*
X0134267Y0286100D01*
X0133967Y0285400D02*
X0132267Y0283400D01*
X0134267Y0283400D01*
X0132267Y0286200D02*
X0132289Y0286262D01*
X0132315Y0286323D01*
X0132344Y0286383D01*
X0132377Y0286440D01*
X0132412Y0286496D01*
X0132451Y0286549D01*
X0132493Y0286600D01*
X0132538Y0286649D01*
X0132585Y0286695D01*
X0132635Y0286739D01*
X0132687Y0286779D01*
X0132742Y0286816D01*
X0132798Y0286850D01*
X0132857Y0286881D01*
X0132917Y0286909D01*
X0132978Y0286933D01*
X0133041Y0286953D01*
X0133105Y0286970D01*
X0133170Y0286983D01*
X0133235Y0286992D01*
X0133301Y0286998D01*
X0133367Y0287000D01*
X0133426Y0286998D01*
X0133484Y0286992D01*
X0133543Y0286983D01*
X0133600Y0286969D01*
X0133656Y0286952D01*
X0133711Y0286931D01*
X0133765Y0286907D01*
X0133817Y0286879D01*
X0133867Y0286848D01*
X0133915Y0286814D01*
X0133960Y0286777D01*
X0134003Y0286736D01*
X0134044Y0286693D01*
X0134081Y0286648D01*
X0134115Y0286600D01*
X0134146Y0286550D01*
X0134174Y0286498D01*
X0134198Y0286444D01*
X0134219Y0286389D01*
X0134236Y0286333D01*
X0134250Y0286276D01*
X0134259Y0286217D01*
X0134265Y0286159D01*
X0134267Y0286100D01*
X0029067Y0051000D02*
X0029067Y0047400D01*
X0027067Y0051000D01*
X0027067Y0047400D01*
X0025467Y0047400D02*
X0024667Y0047400D01*
X0025067Y0047400D02*
X0025067Y0051000D01*
X0024667Y0051000D02*
X0025467Y0051000D01*
D19*
X0165767Y0252200D03*
X0203167Y0252200D03*
X0255767Y0252200D03*
X0293167Y0252200D03*
X0335767Y0252200D03*
X0373167Y0252200D03*
X0068167Y0262200D03*
X0030767Y0262200D03*
D20*
X0213467Y0313200D02*
X0213467Y0342200D01*
X0216467Y0342200D02*
X0216467Y0313200D01*
X0223467Y0313200D02*
X0223467Y0342200D01*
X0226467Y0342200D02*
X0226467Y0313200D01*
X0233467Y0313200D02*
X0233467Y0342200D01*
X0236467Y0342200D02*
X0236467Y0313200D01*
X0243467Y0313200D02*
X0243467Y0342200D01*
X0246467Y0342200D02*
X0246467Y0313200D01*
M02*
