G75*
%MOIN*%
%OFA0B0*%
%FSLAX25Y25*%
%IPPOS*%
%LPD*%
%AMOC8*
5,1,8,0,0,1.08239X$1,22.5*
%
%ADD10OC8,0.05200*%
%ADD11OC8,0.06000*%
%ADD12OC8,0.05600*%
%ADD13C,0.05200*%
%ADD14R,0.09000X0.09000*%
%ADD15C,0.05200*%
%ADD16C,0.05937*%
%ADD17C,0.09843*%
%ADD18C,0.01000*%
%ADD19C,0.02500*%
D10*
X0159467Y0252200D03*
X0164467Y0292200D03*
X0184467Y0292200D03*
X0224467Y0277200D03*
X0244467Y0277200D03*
X0249467Y0252200D03*
X0209467Y0252200D03*
X0289467Y0292200D03*
X0309467Y0292200D03*
X0299467Y0252200D03*
X0329467Y0252200D03*
X0379467Y0252200D03*
X0074467Y0262200D03*
X0024467Y0262200D03*
D11*
X0144967Y0027200D03*
X0203967Y0027200D03*
D12*
X0204467Y0067200D03*
X0174467Y0067200D03*
D13*
X0339467Y0284600D02*
X0339467Y0289800D01*
X0349467Y0289800D02*
X0349467Y0284600D01*
X0249467Y0304600D02*
X0249467Y0309800D01*
X0239467Y0309800D02*
X0239467Y0304600D01*
X0229467Y0304600D02*
X0229467Y0309800D01*
X0219467Y0309800D02*
X0219467Y0304600D01*
X0209467Y0304600D02*
X0209467Y0309800D01*
X0044467Y0294800D02*
X0044467Y0289600D01*
X0034467Y0289600D02*
X0034467Y0294800D01*
D14*
X0259467Y0037200D03*
X0319467Y0037200D03*
D15*
X0129467Y0242200D03*
X0119467Y0242200D03*
X0109467Y0242200D03*
X0099467Y0242200D03*
X0099467Y0272200D03*
X0109467Y0272200D03*
X0119467Y0272200D03*
X0129467Y0272200D03*
D16*
X0029467Y0035169D02*
X0029467Y0029231D01*
X0039467Y0029231D02*
X0039467Y0035169D01*
X0049467Y0035169D02*
X0049467Y0029231D01*
X0109467Y0299231D02*
X0109467Y0305169D01*
X0119467Y0305169D02*
X0119467Y0299231D01*
X0129467Y0299231D02*
X0129467Y0305169D01*
D17*
X0159191Y0192397D03*
X0186750Y0192397D03*
X0198561Y0192397D03*
X0210372Y0192397D03*
X0214309Y0097909D03*
X0194624Y0097909D03*
X0182813Y0097909D03*
X0171002Y0097909D03*
X0159191Y0097909D03*
X0245805Y0097909D03*
D18*
X0129467Y0242200D02*
X0129156Y0242573D01*
X0099790Y0271938D01*
X0099467Y0272200D01*
X0109467Y0272200D02*
X0109729Y0271938D01*
X0113795Y0267872D01*
X0149485Y0267872D01*
X0164846Y0252512D01*
X0209119Y0252512D01*
X0209467Y0252200D01*
X0214992Y0252512D02*
X0182013Y0285491D01*
X0041060Y0285491D01*
X0034735Y0291816D01*
X0034467Y0292200D01*
X0109467Y0302200D02*
X0109729Y0301755D01*
X0116958Y0294527D01*
X0130963Y0294527D01*
X0132770Y0296334D01*
X0166201Y0296334D01*
X0170267Y0292268D01*
X0184272Y0292268D01*
X0184467Y0292200D01*
X0224479Y0282329D02*
X0224479Y0277359D01*
X0224467Y0277200D01*
X0224479Y0282329D02*
X0249327Y0307176D01*
X0249467Y0307200D01*
X0244809Y0277359D02*
X0244467Y0277200D01*
X0244809Y0277359D02*
X0280499Y0277359D01*
X0294956Y0291816D01*
X0309413Y0291816D01*
X0309467Y0292200D01*
X0249327Y0252512D02*
X0249467Y0252200D01*
X0249327Y0252512D02*
X0214992Y0252512D01*
D19*
X0259467Y0037200D02*
X0259266Y0037017D01*
X0145871Y0037017D01*
X0141353Y0032499D01*
X0049644Y0032499D01*
X0049467Y0032200D01*
M02*
