G75*
%MOIN*%
%OFA0B0*%
%FSLAX25Y25*%
%IPPOS*%
%LPD*%
%AMOC8*
5,1,8,0,0,1.08239X$1,22.5*
%
%ADD10OC8,0.05200*%
%ADD11OC8,0.06000*%
%ADD12OC8,0.05600*%
%ADD13R,0.09000X0.09000*%
%ADD14C,0.05200*%
%ADD15C,0.05937*%
%ADD16C,0.05200*%
%ADD17C,0.09843*%
%ADD18C,0.01000*%
%ADD19C,0.02500*%
%ADD20C,0.00600*%
D10*
X0203342Y0256300D03*
X0208342Y0296300D03*
X0228342Y0296300D03*
X0268342Y0281300D03*
X0288342Y0281300D03*
X0293342Y0256300D03*
X0253342Y0256300D03*
X0333342Y0296300D03*
X0353342Y0296300D03*
X0388342Y0291300D03*
X0398342Y0291300D03*
X0423342Y0256300D03*
X0373342Y0256300D03*
X0343342Y0256300D03*
X0118342Y0266300D03*
X0088342Y0296300D03*
X0078342Y0296300D03*
X0068342Y0266300D03*
D11*
X0188842Y0031300D03*
X0247842Y0031300D03*
D12*
X0248342Y0071300D03*
X0218342Y0071300D03*
D13*
X0303342Y0041300D03*
X0363342Y0041300D03*
D14*
X0173342Y0246300D03*
X0163342Y0246300D03*
X0153342Y0246300D03*
X0143342Y0246300D03*
X0143342Y0276300D03*
X0153342Y0276300D03*
X0163342Y0276300D03*
X0173342Y0276300D03*
D15*
X0173342Y0303331D02*
X0173342Y0309269D01*
X0163342Y0309269D02*
X0163342Y0303331D01*
X0153342Y0303331D02*
X0153342Y0309269D01*
X0093342Y0039269D02*
X0093342Y0033331D01*
X0083342Y0033331D02*
X0083342Y0039269D01*
X0073342Y0039269D02*
X0073342Y0033331D01*
D16*
X0253342Y0308700D02*
X0253342Y0313900D01*
X0263342Y0313900D02*
X0263342Y0308700D01*
X0273342Y0308700D02*
X0273342Y0313900D01*
X0283342Y0313900D02*
X0283342Y0308700D01*
X0293342Y0308700D02*
X0293342Y0313900D01*
D17*
X0254247Y0196497D03*
X0242436Y0196497D03*
X0230625Y0196497D03*
X0203066Y0196497D03*
X0203066Y0102009D03*
X0214877Y0102009D03*
X0226688Y0102009D03*
X0238499Y0102009D03*
X0258184Y0102009D03*
X0289680Y0102009D03*
D18*
X0173342Y0246300D02*
X0173031Y0246673D01*
X0143666Y0276038D01*
X0143342Y0276300D01*
X0153342Y0276300D02*
X0153605Y0276038D01*
X0157671Y0271972D01*
X0193361Y0271972D01*
X0208721Y0256612D01*
X0252994Y0256612D01*
X0253342Y0256300D01*
X0268342Y0281300D02*
X0268355Y0281459D01*
X0268355Y0286429D01*
X0293202Y0311276D01*
X0293342Y0311300D01*
X0288684Y0281459D02*
X0288342Y0281300D01*
X0288684Y0281459D02*
X0324374Y0281459D01*
X0338831Y0295916D01*
X0353288Y0295916D01*
X0353342Y0296300D01*
X0228342Y0296300D02*
X0228147Y0296368D01*
X0214142Y0296368D01*
X0210076Y0300434D01*
X0176645Y0300434D01*
X0174838Y0298627D01*
X0160833Y0298627D01*
X0153605Y0305855D01*
X0153342Y0306300D01*
D19*
X0189746Y0041117D02*
X0303141Y0041117D01*
X0303342Y0041300D01*
X0189746Y0041117D02*
X0185229Y0036599D01*
X0093519Y0036599D01*
X0093342Y0036300D01*
D20*
X0028342Y0001300D02*
X0448342Y0001300D01*
X0448342Y0336300D01*
X0028342Y0336300D01*
X0028342Y0001300D01*
X0028342Y0001724D02*
X0448342Y0001724D01*
X0448342Y0002322D02*
X0028342Y0002322D01*
X0028342Y0002921D02*
X0448342Y0002921D01*
X0448342Y0003519D02*
X0028342Y0003519D01*
X0028342Y0004118D02*
X0448342Y0004118D01*
X0448342Y0004716D02*
X0028342Y0004716D01*
X0028342Y0005315D02*
X0448342Y0005315D01*
X0448342Y0005913D02*
X0028342Y0005913D01*
X0028342Y0006512D02*
X0448342Y0006512D01*
X0448342Y0007110D02*
X0443164Y0007110D01*
X0442898Y0007000D02*
X0444478Y0007655D01*
X0445688Y0008864D01*
X0446343Y0010445D01*
X0446343Y0327116D01*
X0445688Y0328696D01*
X0444478Y0329906D01*
X0442898Y0330561D01*
X0047486Y0330561D01*
X0045906Y0329906D01*
X0044696Y0328696D01*
X0044042Y0327116D01*
X0044042Y0010445D01*
X0044696Y0008864D01*
X0045906Y0007655D01*
X0047486Y0007000D01*
X0049197Y0007000D01*
X0441187Y0007000D01*
X0442898Y0007000D01*
X0444533Y0007709D02*
X0448342Y0007709D01*
X0448342Y0008307D02*
X0445131Y0008307D01*
X0445705Y0008906D02*
X0448342Y0008906D01*
X0448342Y0009504D02*
X0445953Y0009504D01*
X0446201Y0010103D02*
X0448342Y0010103D01*
X0448342Y0010701D02*
X0446343Y0010701D01*
X0446343Y0011300D02*
X0448342Y0011300D01*
X0448342Y0011899D02*
X0446343Y0011899D01*
X0446343Y0012497D02*
X0448342Y0012497D01*
X0448342Y0013096D02*
X0446343Y0013096D01*
X0446343Y0013694D02*
X0448342Y0013694D01*
X0448342Y0014293D02*
X0446343Y0014293D01*
X0446343Y0014891D02*
X0448342Y0014891D01*
X0448342Y0015490D02*
X0446343Y0015490D01*
X0446343Y0016088D02*
X0448342Y0016088D01*
X0448342Y0016687D02*
X0446343Y0016687D01*
X0446343Y0017285D02*
X0448342Y0017285D01*
X0448342Y0017884D02*
X0446343Y0017884D01*
X0446343Y0018482D02*
X0448342Y0018482D01*
X0448342Y0019081D02*
X0446343Y0019081D01*
X0446343Y0019679D02*
X0448342Y0019679D01*
X0448342Y0020278D02*
X0446343Y0020278D01*
X0446343Y0020876D02*
X0448342Y0020876D01*
X0448342Y0021475D02*
X0446343Y0021475D01*
X0446343Y0022073D02*
X0448342Y0022073D01*
X0448342Y0022672D02*
X0446343Y0022672D01*
X0446343Y0023270D02*
X0448342Y0023270D01*
X0448342Y0023869D02*
X0446343Y0023869D01*
X0446343Y0024467D02*
X0448342Y0024467D01*
X0448342Y0025066D02*
X0446343Y0025066D01*
X0446343Y0025664D02*
X0448342Y0025664D01*
X0448342Y0026263D02*
X0446343Y0026263D01*
X0446343Y0026861D02*
X0448342Y0026861D01*
X0448342Y0027460D02*
X0446343Y0027460D01*
X0446343Y0028058D02*
X0448342Y0028058D01*
X0448342Y0028657D02*
X0446343Y0028657D01*
X0446343Y0029255D02*
X0448342Y0029255D01*
X0448342Y0029854D02*
X0446343Y0029854D01*
X0446343Y0030452D02*
X0448342Y0030452D01*
X0448342Y0031051D02*
X0446343Y0031051D01*
X0446343Y0031649D02*
X0448342Y0031649D01*
X0448342Y0032248D02*
X0446343Y0032248D01*
X0446343Y0032846D02*
X0448342Y0032846D01*
X0448342Y0033445D02*
X0446343Y0033445D01*
X0446343Y0034043D02*
X0448342Y0034043D01*
X0448342Y0034642D02*
X0446343Y0034642D01*
X0446343Y0035240D02*
X0448342Y0035240D01*
X0448342Y0035839D02*
X0446343Y0035839D01*
X0446343Y0036437D02*
X0448342Y0036437D01*
X0448342Y0037036D02*
X0446343Y0037036D01*
X0446343Y0037634D02*
X0448342Y0037634D01*
X0448342Y0038233D02*
X0446343Y0038233D01*
X0446343Y0038832D02*
X0448342Y0038832D01*
X0448342Y0039430D02*
X0446343Y0039430D01*
X0446343Y0040029D02*
X0448342Y0040029D01*
X0448342Y0040627D02*
X0446343Y0040627D01*
X0446343Y0041226D02*
X0448342Y0041226D01*
X0448342Y0041824D02*
X0446343Y0041824D01*
X0446343Y0042423D02*
X0448342Y0042423D01*
X0448342Y0043021D02*
X0446343Y0043021D01*
X0446343Y0043620D02*
X0448342Y0043620D01*
X0448342Y0044218D02*
X0446343Y0044218D01*
X0446343Y0044817D02*
X0448342Y0044817D01*
X0448342Y0045415D02*
X0446343Y0045415D01*
X0446343Y0046014D02*
X0448342Y0046014D01*
X0448342Y0046612D02*
X0446343Y0046612D01*
X0446343Y0047211D02*
X0448342Y0047211D01*
X0448342Y0047809D02*
X0446343Y0047809D01*
X0446343Y0048408D02*
X0448342Y0048408D01*
X0448342Y0049006D02*
X0446343Y0049006D01*
X0446343Y0049605D02*
X0448342Y0049605D01*
X0448342Y0050203D02*
X0446343Y0050203D01*
X0446343Y0050802D02*
X0448342Y0050802D01*
X0448342Y0051400D02*
X0446343Y0051400D01*
X0446343Y0051999D02*
X0448342Y0051999D01*
X0448342Y0052597D02*
X0446343Y0052597D01*
X0446343Y0053196D02*
X0448342Y0053196D01*
X0448342Y0053794D02*
X0446343Y0053794D01*
X0446343Y0054393D02*
X0448342Y0054393D01*
X0448342Y0054991D02*
X0446343Y0054991D01*
X0446343Y0055590D02*
X0448342Y0055590D01*
X0448342Y0056188D02*
X0446343Y0056188D01*
X0446343Y0056787D02*
X0448342Y0056787D01*
X0448342Y0057385D02*
X0446343Y0057385D01*
X0446343Y0057984D02*
X0448342Y0057984D01*
X0448342Y0058582D02*
X0446343Y0058582D01*
X0446343Y0059181D02*
X0448342Y0059181D01*
X0448342Y0059779D02*
X0446343Y0059779D01*
X0446343Y0060378D02*
X0448342Y0060378D01*
X0448342Y0060976D02*
X0446343Y0060976D01*
X0446343Y0061575D02*
X0448342Y0061575D01*
X0448342Y0062173D02*
X0446343Y0062173D01*
X0446343Y0062772D02*
X0448342Y0062772D01*
X0448342Y0063370D02*
X0446343Y0063370D01*
X0446343Y0063969D02*
X0448342Y0063969D01*
X0448342Y0064568D02*
X0446343Y0064568D01*
X0446343Y0065166D02*
X0448342Y0065166D01*
X0448342Y0065765D02*
X0446343Y0065765D01*
X0446343Y0066363D02*
X0448342Y0066363D01*
X0448342Y0066962D02*
X0446343Y0066962D01*
X0446343Y0067560D02*
X0448342Y0067560D01*
X0448342Y0068159D02*
X0446343Y0068159D01*
X0446343Y0068757D02*
X0448342Y0068757D01*
X0448342Y0069356D02*
X0446343Y0069356D01*
X0446343Y0069954D02*
X0448342Y0069954D01*
X0448342Y0070553D02*
X0446343Y0070553D01*
X0446343Y0071151D02*
X0448342Y0071151D01*
X0448342Y0071750D02*
X0446343Y0071750D01*
X0446343Y0072348D02*
X0448342Y0072348D01*
X0448342Y0072947D02*
X0446343Y0072947D01*
X0446343Y0073545D02*
X0448342Y0073545D01*
X0448342Y0074144D02*
X0446343Y0074144D01*
X0446343Y0074742D02*
X0448342Y0074742D01*
X0448342Y0075341D02*
X0446343Y0075341D01*
X0446343Y0075939D02*
X0448342Y0075939D01*
X0448342Y0076538D02*
X0446343Y0076538D01*
X0446343Y0077136D02*
X0448342Y0077136D01*
X0448342Y0077735D02*
X0446343Y0077735D01*
X0446343Y0078333D02*
X0448342Y0078333D01*
X0448342Y0078932D02*
X0446343Y0078932D01*
X0446343Y0079530D02*
X0448342Y0079530D01*
X0448342Y0080129D02*
X0446343Y0080129D01*
X0446343Y0080727D02*
X0448342Y0080727D01*
X0448342Y0081326D02*
X0446343Y0081326D01*
X0446343Y0081924D02*
X0448342Y0081924D01*
X0448342Y0082523D02*
X0446343Y0082523D01*
X0446343Y0083121D02*
X0448342Y0083121D01*
X0448342Y0083720D02*
X0446343Y0083720D01*
X0446343Y0084318D02*
X0448342Y0084318D01*
X0448342Y0084917D02*
X0446343Y0084917D01*
X0446343Y0085515D02*
X0448342Y0085515D01*
X0448342Y0086114D02*
X0446343Y0086114D01*
X0446343Y0086712D02*
X0448342Y0086712D01*
X0448342Y0087311D02*
X0446343Y0087311D01*
X0446343Y0087909D02*
X0448342Y0087909D01*
X0448342Y0088508D02*
X0446343Y0088508D01*
X0446343Y0089106D02*
X0448342Y0089106D01*
X0448342Y0089705D02*
X0446343Y0089705D01*
X0446343Y0090303D02*
X0448342Y0090303D01*
X0448342Y0090902D02*
X0446343Y0090902D01*
X0446343Y0091501D02*
X0448342Y0091501D01*
X0448342Y0092099D02*
X0446343Y0092099D01*
X0446343Y0092698D02*
X0448342Y0092698D01*
X0448342Y0093296D02*
X0446343Y0093296D01*
X0446343Y0093895D02*
X0448342Y0093895D01*
X0448342Y0094493D02*
X0446343Y0094493D01*
X0446343Y0095092D02*
X0448342Y0095092D01*
X0448342Y0095690D02*
X0446343Y0095690D01*
X0446343Y0096289D02*
X0448342Y0096289D01*
X0448342Y0096887D02*
X0446343Y0096887D01*
X0446343Y0097486D02*
X0448342Y0097486D01*
X0448342Y0098084D02*
X0446343Y0098084D01*
X0446343Y0098683D02*
X0448342Y0098683D01*
X0448342Y0099281D02*
X0446343Y0099281D01*
X0446343Y0099880D02*
X0448342Y0099880D01*
X0448342Y0100478D02*
X0446343Y0100478D01*
X0446343Y0101077D02*
X0448342Y0101077D01*
X0448342Y0101675D02*
X0446343Y0101675D01*
X0446343Y0102274D02*
X0448342Y0102274D01*
X0448342Y0102872D02*
X0446343Y0102872D01*
X0446343Y0103471D02*
X0448342Y0103471D01*
X0448342Y0104069D02*
X0446343Y0104069D01*
X0446343Y0104668D02*
X0448342Y0104668D01*
X0448342Y0105266D02*
X0446343Y0105266D01*
X0446343Y0105865D02*
X0448342Y0105865D01*
X0448342Y0106463D02*
X0446343Y0106463D01*
X0446343Y0107062D02*
X0448342Y0107062D01*
X0448342Y0107660D02*
X0446343Y0107660D01*
X0446343Y0108259D02*
X0448342Y0108259D01*
X0448342Y0108857D02*
X0446343Y0108857D01*
X0446343Y0109456D02*
X0448342Y0109456D01*
X0448342Y0110054D02*
X0446343Y0110054D01*
X0446343Y0110653D02*
X0448342Y0110653D01*
X0448342Y0111251D02*
X0446343Y0111251D01*
X0446343Y0111850D02*
X0448342Y0111850D01*
X0448342Y0112448D02*
X0446343Y0112448D01*
X0446343Y0113047D02*
X0448342Y0113047D01*
X0448342Y0113645D02*
X0446343Y0113645D01*
X0446343Y0114244D02*
X0448342Y0114244D01*
X0448342Y0114842D02*
X0446343Y0114842D01*
X0446343Y0115441D02*
X0448342Y0115441D01*
X0448342Y0116039D02*
X0446343Y0116039D01*
X0446343Y0116638D02*
X0448342Y0116638D01*
X0448342Y0117237D02*
X0446343Y0117237D01*
X0446343Y0117835D02*
X0448342Y0117835D01*
X0448342Y0118434D02*
X0446343Y0118434D01*
X0446343Y0119032D02*
X0448342Y0119032D01*
X0448342Y0119631D02*
X0446343Y0119631D01*
X0446343Y0120229D02*
X0448342Y0120229D01*
X0448342Y0120828D02*
X0446343Y0120828D01*
X0446343Y0121426D02*
X0448342Y0121426D01*
X0448342Y0122025D02*
X0446343Y0122025D01*
X0446343Y0122623D02*
X0448342Y0122623D01*
X0448342Y0123222D02*
X0446343Y0123222D01*
X0446343Y0123820D02*
X0448342Y0123820D01*
X0448342Y0124419D02*
X0446343Y0124419D01*
X0446343Y0125017D02*
X0448342Y0125017D01*
X0448342Y0125616D02*
X0446343Y0125616D01*
X0446343Y0126214D02*
X0448342Y0126214D01*
X0448342Y0126813D02*
X0446343Y0126813D01*
X0446343Y0127411D02*
X0448342Y0127411D01*
X0448342Y0128010D02*
X0446343Y0128010D01*
X0446343Y0128608D02*
X0448342Y0128608D01*
X0448342Y0129207D02*
X0446343Y0129207D01*
X0446343Y0129805D02*
X0448342Y0129805D01*
X0448342Y0130404D02*
X0446343Y0130404D01*
X0446343Y0131002D02*
X0448342Y0131002D01*
X0448342Y0131601D02*
X0446343Y0131601D01*
X0446343Y0132199D02*
X0448342Y0132199D01*
X0448342Y0132798D02*
X0446343Y0132798D01*
X0446343Y0133396D02*
X0448342Y0133396D01*
X0448342Y0133995D02*
X0446343Y0133995D01*
X0446343Y0134593D02*
X0448342Y0134593D01*
X0448342Y0135192D02*
X0446343Y0135192D01*
X0446343Y0135790D02*
X0448342Y0135790D01*
X0448342Y0136389D02*
X0446343Y0136389D01*
X0446343Y0136987D02*
X0448342Y0136987D01*
X0448342Y0137586D02*
X0446343Y0137586D01*
X0446343Y0138184D02*
X0448342Y0138184D01*
X0448342Y0138783D02*
X0446343Y0138783D01*
X0446343Y0139381D02*
X0448342Y0139381D01*
X0448342Y0139980D02*
X0446343Y0139980D01*
X0446343Y0140578D02*
X0448342Y0140578D01*
X0448342Y0141177D02*
X0446343Y0141177D01*
X0446343Y0141775D02*
X0448342Y0141775D01*
X0448342Y0142374D02*
X0446343Y0142374D01*
X0446343Y0142972D02*
X0448342Y0142972D01*
X0448342Y0143571D02*
X0446343Y0143571D01*
X0446343Y0144170D02*
X0448342Y0144170D01*
X0448342Y0144768D02*
X0446343Y0144768D01*
X0446343Y0145367D02*
X0448342Y0145367D01*
X0448342Y0145965D02*
X0446343Y0145965D01*
X0446343Y0146564D02*
X0448342Y0146564D01*
X0448342Y0147162D02*
X0446343Y0147162D01*
X0446343Y0147761D02*
X0448342Y0147761D01*
X0448342Y0148359D02*
X0446343Y0148359D01*
X0446343Y0148958D02*
X0448342Y0148958D01*
X0448342Y0149556D02*
X0446343Y0149556D01*
X0446343Y0150155D02*
X0448342Y0150155D01*
X0448342Y0150753D02*
X0446343Y0150753D01*
X0446343Y0151352D02*
X0448342Y0151352D01*
X0448342Y0151950D02*
X0446343Y0151950D01*
X0446343Y0152549D02*
X0448342Y0152549D01*
X0448342Y0153147D02*
X0446343Y0153147D01*
X0446343Y0153746D02*
X0448342Y0153746D01*
X0448342Y0154344D02*
X0446343Y0154344D01*
X0446343Y0154943D02*
X0448342Y0154943D01*
X0448342Y0155541D02*
X0446343Y0155541D01*
X0446343Y0156140D02*
X0448342Y0156140D01*
X0448342Y0156738D02*
X0446343Y0156738D01*
X0446343Y0157337D02*
X0448342Y0157337D01*
X0448342Y0157935D02*
X0446343Y0157935D01*
X0446343Y0158534D02*
X0448342Y0158534D01*
X0448342Y0159132D02*
X0446343Y0159132D01*
X0446343Y0159731D02*
X0448342Y0159731D01*
X0448342Y0160329D02*
X0446343Y0160329D01*
X0446343Y0160928D02*
X0448342Y0160928D01*
X0448342Y0161526D02*
X0446343Y0161526D01*
X0446343Y0162125D02*
X0448342Y0162125D01*
X0448342Y0162723D02*
X0446343Y0162723D01*
X0446343Y0163322D02*
X0448342Y0163322D01*
X0448342Y0163920D02*
X0446343Y0163920D01*
X0446343Y0164519D02*
X0448342Y0164519D01*
X0448342Y0165117D02*
X0446343Y0165117D01*
X0446343Y0165716D02*
X0448342Y0165716D01*
X0448342Y0166314D02*
X0446343Y0166314D01*
X0446343Y0166913D02*
X0448342Y0166913D01*
X0448342Y0167511D02*
X0446343Y0167511D01*
X0446343Y0168110D02*
X0448342Y0168110D01*
X0448342Y0168708D02*
X0446343Y0168708D01*
X0446343Y0169307D02*
X0448342Y0169307D01*
X0448342Y0169905D02*
X0446343Y0169905D01*
X0446343Y0170504D02*
X0448342Y0170504D01*
X0448342Y0171103D02*
X0446343Y0171103D01*
X0446343Y0171701D02*
X0448342Y0171701D01*
X0448342Y0172300D02*
X0446343Y0172300D01*
X0446343Y0172898D02*
X0448342Y0172898D01*
X0448342Y0173497D02*
X0446343Y0173497D01*
X0446343Y0174095D02*
X0448342Y0174095D01*
X0448342Y0174694D02*
X0446343Y0174694D01*
X0446343Y0175292D02*
X0448342Y0175292D01*
X0448342Y0175891D02*
X0446343Y0175891D01*
X0446343Y0176489D02*
X0448342Y0176489D01*
X0448342Y0177088D02*
X0446343Y0177088D01*
X0446343Y0177686D02*
X0448342Y0177686D01*
X0448342Y0178285D02*
X0446343Y0178285D01*
X0446343Y0178883D02*
X0448342Y0178883D01*
X0448342Y0179482D02*
X0446343Y0179482D01*
X0446343Y0180080D02*
X0448342Y0180080D01*
X0448342Y0180679D02*
X0446343Y0180679D01*
X0446343Y0181277D02*
X0448342Y0181277D01*
X0448342Y0181876D02*
X0446343Y0181876D01*
X0446343Y0182474D02*
X0448342Y0182474D01*
X0448342Y0183073D02*
X0446343Y0183073D01*
X0446343Y0183671D02*
X0448342Y0183671D01*
X0448342Y0184270D02*
X0446343Y0184270D01*
X0446343Y0184868D02*
X0448342Y0184868D01*
X0448342Y0185467D02*
X0446343Y0185467D01*
X0446343Y0186065D02*
X0448342Y0186065D01*
X0448342Y0186664D02*
X0446343Y0186664D01*
X0446343Y0187262D02*
X0448342Y0187262D01*
X0448342Y0187861D02*
X0446343Y0187861D01*
X0446343Y0188459D02*
X0448342Y0188459D01*
X0448342Y0189058D02*
X0446343Y0189058D01*
X0446343Y0189656D02*
X0448342Y0189656D01*
X0448342Y0190255D02*
X0446343Y0190255D01*
X0446343Y0190853D02*
X0448342Y0190853D01*
X0448342Y0191452D02*
X0446343Y0191452D01*
X0446343Y0192050D02*
X0448342Y0192050D01*
X0448342Y0192649D02*
X0446343Y0192649D01*
X0446343Y0193247D02*
X0448342Y0193247D01*
X0448342Y0193846D02*
X0446343Y0193846D01*
X0446343Y0194444D02*
X0448342Y0194444D01*
X0448342Y0195043D02*
X0446343Y0195043D01*
X0446343Y0195641D02*
X0448342Y0195641D01*
X0448342Y0196240D02*
X0446343Y0196240D01*
X0446343Y0196839D02*
X0448342Y0196839D01*
X0448342Y0197437D02*
X0446343Y0197437D01*
X0446343Y0198036D02*
X0448342Y0198036D01*
X0448342Y0198634D02*
X0446343Y0198634D01*
X0446343Y0199233D02*
X0448342Y0199233D01*
X0448342Y0199831D02*
X0446343Y0199831D01*
X0446343Y0200430D02*
X0448342Y0200430D01*
X0448342Y0201028D02*
X0446343Y0201028D01*
X0446343Y0201627D02*
X0448342Y0201627D01*
X0448342Y0202225D02*
X0446343Y0202225D01*
X0446343Y0202824D02*
X0448342Y0202824D01*
X0448342Y0203422D02*
X0446343Y0203422D01*
X0446343Y0204021D02*
X0448342Y0204021D01*
X0448342Y0204619D02*
X0446343Y0204619D01*
X0446343Y0205218D02*
X0448342Y0205218D01*
X0448342Y0205816D02*
X0446343Y0205816D01*
X0446343Y0206415D02*
X0448342Y0206415D01*
X0448342Y0207013D02*
X0446343Y0207013D01*
X0446343Y0207612D02*
X0448342Y0207612D01*
X0448342Y0208210D02*
X0446343Y0208210D01*
X0446343Y0208809D02*
X0448342Y0208809D01*
X0448342Y0209407D02*
X0446343Y0209407D01*
X0446343Y0210006D02*
X0448342Y0210006D01*
X0448342Y0210604D02*
X0446343Y0210604D01*
X0446343Y0211203D02*
X0448342Y0211203D01*
X0448342Y0211801D02*
X0446343Y0211801D01*
X0446343Y0212400D02*
X0448342Y0212400D01*
X0448342Y0212998D02*
X0446343Y0212998D01*
X0446343Y0213597D02*
X0448342Y0213597D01*
X0448342Y0214195D02*
X0446343Y0214195D01*
X0446343Y0214794D02*
X0448342Y0214794D01*
X0448342Y0215392D02*
X0446343Y0215392D01*
X0446343Y0215991D02*
X0448342Y0215991D01*
X0448342Y0216589D02*
X0446343Y0216589D01*
X0446343Y0217188D02*
X0448342Y0217188D01*
X0448342Y0217786D02*
X0446343Y0217786D01*
X0446343Y0218385D02*
X0448342Y0218385D01*
X0448342Y0218983D02*
X0446343Y0218983D01*
X0446343Y0219582D02*
X0448342Y0219582D01*
X0448342Y0220180D02*
X0446343Y0220180D01*
X0446343Y0220779D02*
X0448342Y0220779D01*
X0448342Y0221377D02*
X0446343Y0221377D01*
X0446343Y0221976D02*
X0448342Y0221976D01*
X0448342Y0222574D02*
X0446343Y0222574D01*
X0446343Y0223173D02*
X0448342Y0223173D01*
X0448342Y0223772D02*
X0446343Y0223772D01*
X0446343Y0224370D02*
X0448342Y0224370D01*
X0448342Y0224969D02*
X0446343Y0224969D01*
X0446343Y0225567D02*
X0448342Y0225567D01*
X0448342Y0226166D02*
X0446343Y0226166D01*
X0446343Y0226764D02*
X0448342Y0226764D01*
X0448342Y0227363D02*
X0446343Y0227363D01*
X0446343Y0227961D02*
X0448342Y0227961D01*
X0448342Y0228560D02*
X0446343Y0228560D01*
X0446343Y0229158D02*
X0448342Y0229158D01*
X0448342Y0229757D02*
X0446343Y0229757D01*
X0446343Y0230355D02*
X0448342Y0230355D01*
X0448342Y0230954D02*
X0446343Y0230954D01*
X0446343Y0231552D02*
X0448342Y0231552D01*
X0448342Y0232151D02*
X0446343Y0232151D01*
X0446343Y0232749D02*
X0448342Y0232749D01*
X0448342Y0233348D02*
X0446343Y0233348D01*
X0446343Y0233946D02*
X0448342Y0233946D01*
X0448342Y0234545D02*
X0446343Y0234545D01*
X0446343Y0235143D02*
X0448342Y0235143D01*
X0448342Y0235742D02*
X0446343Y0235742D01*
X0446343Y0236340D02*
X0448342Y0236340D01*
X0448342Y0236939D02*
X0446343Y0236939D01*
X0446343Y0237537D02*
X0448342Y0237537D01*
X0448342Y0238136D02*
X0446343Y0238136D01*
X0446343Y0238734D02*
X0448342Y0238734D01*
X0448342Y0239333D02*
X0446343Y0239333D01*
X0446343Y0239931D02*
X0448342Y0239931D01*
X0448342Y0240530D02*
X0446343Y0240530D01*
X0446343Y0241128D02*
X0448342Y0241128D01*
X0448342Y0241727D02*
X0446343Y0241727D01*
X0446343Y0242325D02*
X0448342Y0242325D01*
X0448342Y0242924D02*
X0446343Y0242924D01*
X0446343Y0243522D02*
X0448342Y0243522D01*
X0448342Y0244121D02*
X0446343Y0244121D01*
X0446343Y0244719D02*
X0448342Y0244719D01*
X0448342Y0245318D02*
X0446343Y0245318D01*
X0446343Y0245916D02*
X0448342Y0245916D01*
X0448342Y0246515D02*
X0446343Y0246515D01*
X0446343Y0247113D02*
X0448342Y0247113D01*
X0448342Y0247712D02*
X0446343Y0247712D01*
X0446343Y0248310D02*
X0448342Y0248310D01*
X0448342Y0248909D02*
X0446343Y0248909D01*
X0446343Y0249508D02*
X0448342Y0249508D01*
X0448342Y0250106D02*
X0446343Y0250106D01*
X0446343Y0250705D02*
X0448342Y0250705D01*
X0448342Y0251303D02*
X0446343Y0251303D01*
X0446343Y0251902D02*
X0448342Y0251902D01*
X0448342Y0252500D02*
X0446343Y0252500D01*
X0446343Y0253099D02*
X0448342Y0253099D01*
X0448342Y0253697D02*
X0446343Y0253697D01*
X0446343Y0254296D02*
X0448342Y0254296D01*
X0448342Y0254894D02*
X0446343Y0254894D01*
X0446343Y0255493D02*
X0448342Y0255493D01*
X0448342Y0256091D02*
X0446343Y0256091D01*
X0446343Y0256690D02*
X0448342Y0256690D01*
X0448342Y0257288D02*
X0446343Y0257288D01*
X0446343Y0257887D02*
X0448342Y0257887D01*
X0448342Y0258485D02*
X0446343Y0258485D01*
X0446343Y0259084D02*
X0448342Y0259084D01*
X0448342Y0259682D02*
X0446343Y0259682D01*
X0446343Y0260281D02*
X0448342Y0260281D01*
X0448342Y0260879D02*
X0446343Y0260879D01*
X0446343Y0261478D02*
X0448342Y0261478D01*
X0448342Y0262076D02*
X0446343Y0262076D01*
X0446343Y0262675D02*
X0448342Y0262675D01*
X0448342Y0263273D02*
X0446343Y0263273D01*
X0446343Y0263872D02*
X0448342Y0263872D01*
X0448342Y0264470D02*
X0446343Y0264470D01*
X0446343Y0265069D02*
X0448342Y0265069D01*
X0448342Y0265667D02*
X0446343Y0265667D01*
X0446343Y0266266D02*
X0448342Y0266266D01*
X0448342Y0266864D02*
X0446343Y0266864D01*
X0446343Y0267463D02*
X0448342Y0267463D01*
X0448342Y0268061D02*
X0446343Y0268061D01*
X0446343Y0268660D02*
X0448342Y0268660D01*
X0448342Y0269258D02*
X0446343Y0269258D01*
X0446343Y0269857D02*
X0448342Y0269857D01*
X0448342Y0270455D02*
X0446343Y0270455D01*
X0446343Y0271054D02*
X0448342Y0271054D01*
X0448342Y0271652D02*
X0446343Y0271652D01*
X0446343Y0272251D02*
X0448342Y0272251D01*
X0448342Y0272849D02*
X0446343Y0272849D01*
X0446343Y0273448D02*
X0448342Y0273448D01*
X0448342Y0274046D02*
X0446343Y0274046D01*
X0446343Y0274645D02*
X0448342Y0274645D01*
X0448342Y0275243D02*
X0446343Y0275243D01*
X0446343Y0275842D02*
X0448342Y0275842D01*
X0448342Y0276441D02*
X0446343Y0276441D01*
X0446343Y0277039D02*
X0448342Y0277039D01*
X0448342Y0277638D02*
X0446343Y0277638D01*
X0446343Y0278236D02*
X0448342Y0278236D01*
X0448342Y0278835D02*
X0446343Y0278835D01*
X0446343Y0279433D02*
X0448342Y0279433D01*
X0448342Y0280032D02*
X0446343Y0280032D01*
X0446343Y0280630D02*
X0448342Y0280630D01*
X0448342Y0281229D02*
X0446343Y0281229D01*
X0446343Y0281827D02*
X0448342Y0281827D01*
X0448342Y0282426D02*
X0446343Y0282426D01*
X0446343Y0283024D02*
X0448342Y0283024D01*
X0448342Y0283623D02*
X0446343Y0283623D01*
X0446343Y0284221D02*
X0448342Y0284221D01*
X0448342Y0284820D02*
X0446343Y0284820D01*
X0446343Y0285418D02*
X0448342Y0285418D01*
X0448342Y0286017D02*
X0446343Y0286017D01*
X0446343Y0286615D02*
X0448342Y0286615D01*
X0448342Y0287214D02*
X0446343Y0287214D01*
X0446343Y0287812D02*
X0448342Y0287812D01*
X0448342Y0288411D02*
X0446343Y0288411D01*
X0446343Y0289009D02*
X0448342Y0289009D01*
X0448342Y0289608D02*
X0446343Y0289608D01*
X0446343Y0290206D02*
X0448342Y0290206D01*
X0448342Y0290805D02*
X0446343Y0290805D01*
X0446343Y0291403D02*
X0448342Y0291403D01*
X0448342Y0292002D02*
X0446343Y0292002D01*
X0446343Y0292600D02*
X0448342Y0292600D01*
X0448342Y0293199D02*
X0446343Y0293199D01*
X0446343Y0293797D02*
X0448342Y0293797D01*
X0448342Y0294396D02*
X0446343Y0294396D01*
X0446343Y0294994D02*
X0448342Y0294994D01*
X0448342Y0295593D02*
X0446343Y0295593D01*
X0446343Y0296191D02*
X0448342Y0296191D01*
X0448342Y0296790D02*
X0446343Y0296790D01*
X0446343Y0297388D02*
X0448342Y0297388D01*
X0448342Y0297987D02*
X0446343Y0297987D01*
X0446343Y0298585D02*
X0448342Y0298585D01*
X0448342Y0299184D02*
X0446343Y0299184D01*
X0446343Y0299782D02*
X0448342Y0299782D01*
X0448342Y0300381D02*
X0446343Y0300381D01*
X0446343Y0300979D02*
X0448342Y0300979D01*
X0448342Y0301578D02*
X0446343Y0301578D01*
X0446343Y0302177D02*
X0448342Y0302177D01*
X0448342Y0302775D02*
X0446343Y0302775D01*
X0446343Y0303374D02*
X0448342Y0303374D01*
X0448342Y0303972D02*
X0446343Y0303972D01*
X0446343Y0304571D02*
X0448342Y0304571D01*
X0448342Y0305169D02*
X0446343Y0305169D01*
X0446343Y0305768D02*
X0448342Y0305768D01*
X0448342Y0306366D02*
X0446343Y0306366D01*
X0446343Y0306965D02*
X0448342Y0306965D01*
X0448342Y0307563D02*
X0446343Y0307563D01*
X0446343Y0308162D02*
X0448342Y0308162D01*
X0448342Y0308760D02*
X0446343Y0308760D01*
X0446343Y0309359D02*
X0448342Y0309359D01*
X0448342Y0309957D02*
X0446343Y0309957D01*
X0446343Y0310556D02*
X0448342Y0310556D01*
X0448342Y0311154D02*
X0446343Y0311154D01*
X0446343Y0311753D02*
X0448342Y0311753D01*
X0448342Y0312351D02*
X0446343Y0312351D01*
X0446343Y0312950D02*
X0448342Y0312950D01*
X0448342Y0313548D02*
X0446343Y0313548D01*
X0446343Y0314147D02*
X0448342Y0314147D01*
X0448342Y0314745D02*
X0446343Y0314745D01*
X0446343Y0315344D02*
X0448342Y0315344D01*
X0448342Y0315942D02*
X0446343Y0315942D01*
X0446343Y0316541D02*
X0448342Y0316541D01*
X0448342Y0317139D02*
X0446343Y0317139D01*
X0446343Y0317738D02*
X0448342Y0317738D01*
X0448342Y0318336D02*
X0446343Y0318336D01*
X0446343Y0318935D02*
X0448342Y0318935D01*
X0448342Y0319533D02*
X0446343Y0319533D01*
X0446343Y0320132D02*
X0448342Y0320132D01*
X0448342Y0320730D02*
X0446343Y0320730D01*
X0446343Y0321329D02*
X0448342Y0321329D01*
X0448342Y0321927D02*
X0446343Y0321927D01*
X0446343Y0322526D02*
X0448342Y0322526D01*
X0448342Y0323124D02*
X0446343Y0323124D01*
X0446343Y0323723D02*
X0448342Y0323723D01*
X0448342Y0324321D02*
X0446343Y0324321D01*
X0446343Y0324920D02*
X0448342Y0324920D01*
X0448342Y0325518D02*
X0446343Y0325518D01*
X0446343Y0326117D02*
X0448342Y0326117D01*
X0448342Y0326715D02*
X0446343Y0326715D01*
X0446261Y0327314D02*
X0448342Y0327314D01*
X0448342Y0327912D02*
X0446013Y0327912D01*
X0445765Y0328511D02*
X0448342Y0328511D01*
X0448342Y0329110D02*
X0445275Y0329110D01*
X0444676Y0329708D02*
X0448342Y0329708D01*
X0448342Y0330307D02*
X0443511Y0330307D01*
X0448342Y0330905D02*
X0028342Y0330905D01*
X0028342Y0330307D02*
X0046873Y0330307D01*
X0045708Y0329708D02*
X0028342Y0329708D01*
X0028342Y0329110D02*
X0045110Y0329110D01*
X0044620Y0328511D02*
X0028342Y0328511D01*
X0028342Y0327912D02*
X0044372Y0327912D01*
X0044124Y0327314D02*
X0028342Y0327314D01*
X0028342Y0326715D02*
X0044042Y0326715D01*
X0044042Y0326117D02*
X0028342Y0326117D01*
X0028342Y0325518D02*
X0044042Y0325518D01*
X0044042Y0324920D02*
X0028342Y0324920D01*
X0028342Y0324321D02*
X0044042Y0324321D01*
X0044042Y0323723D02*
X0028342Y0323723D01*
X0028342Y0323124D02*
X0044042Y0323124D01*
X0044042Y0322526D02*
X0028342Y0322526D01*
X0028342Y0321927D02*
X0044042Y0321927D01*
X0044042Y0321329D02*
X0028342Y0321329D01*
X0028342Y0320730D02*
X0044042Y0320730D01*
X0044042Y0320132D02*
X0028342Y0320132D01*
X0028342Y0319533D02*
X0044042Y0319533D01*
X0044042Y0318935D02*
X0028342Y0318935D01*
X0028342Y0318336D02*
X0044042Y0318336D01*
X0044042Y0317738D02*
X0028342Y0317738D01*
X0028342Y0317139D02*
X0044042Y0317139D01*
X0044042Y0316541D02*
X0028342Y0316541D01*
X0028342Y0315942D02*
X0044042Y0315942D01*
X0044042Y0315344D02*
X0028342Y0315344D01*
X0028342Y0314745D02*
X0044042Y0314745D01*
X0044042Y0314147D02*
X0028342Y0314147D01*
X0028342Y0313548D02*
X0044042Y0313548D01*
X0044042Y0312950D02*
X0028342Y0312950D01*
X0028342Y0312351D02*
X0044042Y0312351D01*
X0044042Y0311753D02*
X0028342Y0311753D01*
X0028342Y0311154D02*
X0044042Y0311154D01*
X0044042Y0310556D02*
X0028342Y0310556D01*
X0028342Y0309957D02*
X0044042Y0309957D01*
X0044042Y0309359D02*
X0028342Y0309359D01*
X0028342Y0308760D02*
X0044042Y0308760D01*
X0044042Y0308162D02*
X0028342Y0308162D01*
X0028342Y0307563D02*
X0044042Y0307563D01*
X0044042Y0306965D02*
X0028342Y0306965D01*
X0028342Y0306366D02*
X0044042Y0306366D01*
X0044042Y0305768D02*
X0028342Y0305768D01*
X0028342Y0305169D02*
X0044042Y0305169D01*
X0044042Y0304571D02*
X0028342Y0304571D01*
X0028342Y0303972D02*
X0044042Y0303972D01*
X0044042Y0303374D02*
X0028342Y0303374D01*
X0028342Y0302775D02*
X0044042Y0302775D01*
X0044042Y0302177D02*
X0028342Y0302177D01*
X0028342Y0301578D02*
X0044042Y0301578D01*
X0044042Y0300979D02*
X0028342Y0300979D01*
X0028342Y0300381D02*
X0044042Y0300381D01*
X0044042Y0299782D02*
X0028342Y0299782D01*
X0028342Y0299184D02*
X0044042Y0299184D01*
X0044042Y0298585D02*
X0028342Y0298585D01*
X0028342Y0297987D02*
X0044042Y0297987D01*
X0044042Y0297388D02*
X0028342Y0297388D01*
X0028342Y0296790D02*
X0044042Y0296790D01*
X0044042Y0296191D02*
X0028342Y0296191D01*
X0028342Y0295593D02*
X0044042Y0295593D01*
X0044042Y0294994D02*
X0028342Y0294994D01*
X0028342Y0294396D02*
X0044042Y0294396D01*
X0044042Y0293797D02*
X0028342Y0293797D01*
X0028342Y0293199D02*
X0044042Y0293199D01*
X0044042Y0292600D02*
X0028342Y0292600D01*
X0028342Y0292002D02*
X0044042Y0292002D01*
X0044042Y0291403D02*
X0028342Y0291403D01*
X0028342Y0290805D02*
X0044042Y0290805D01*
X0044042Y0290206D02*
X0028342Y0290206D01*
X0028342Y0289608D02*
X0044042Y0289608D01*
X0044042Y0289009D02*
X0028342Y0289009D01*
X0028342Y0288411D02*
X0044042Y0288411D01*
X0044042Y0287812D02*
X0028342Y0287812D01*
X0028342Y0287214D02*
X0044042Y0287214D01*
X0044042Y0286615D02*
X0028342Y0286615D01*
X0028342Y0286017D02*
X0044042Y0286017D01*
X0044042Y0285418D02*
X0028342Y0285418D01*
X0028342Y0284820D02*
X0044042Y0284820D01*
X0044042Y0284221D02*
X0028342Y0284221D01*
X0028342Y0283623D02*
X0044042Y0283623D01*
X0044042Y0283024D02*
X0028342Y0283024D01*
X0028342Y0282426D02*
X0044042Y0282426D01*
X0044042Y0281827D02*
X0028342Y0281827D01*
X0028342Y0281229D02*
X0044042Y0281229D01*
X0044042Y0280630D02*
X0028342Y0280630D01*
X0028342Y0280032D02*
X0044042Y0280032D01*
X0044042Y0279433D02*
X0028342Y0279433D01*
X0028342Y0278835D02*
X0044042Y0278835D01*
X0044042Y0278236D02*
X0028342Y0278236D01*
X0028342Y0277638D02*
X0044042Y0277638D01*
X0044042Y0277039D02*
X0028342Y0277039D01*
X0028342Y0276441D02*
X0044042Y0276441D01*
X0044042Y0275842D02*
X0028342Y0275842D01*
X0028342Y0275243D02*
X0044042Y0275243D01*
X0044042Y0274645D02*
X0028342Y0274645D01*
X0028342Y0274046D02*
X0044042Y0274046D01*
X0044042Y0273448D02*
X0028342Y0273448D01*
X0028342Y0272849D02*
X0044042Y0272849D01*
X0044042Y0272251D02*
X0028342Y0272251D01*
X0028342Y0271652D02*
X0044042Y0271652D01*
X0044042Y0271054D02*
X0028342Y0271054D01*
X0028342Y0270455D02*
X0044042Y0270455D01*
X0044042Y0269857D02*
X0028342Y0269857D01*
X0028342Y0269258D02*
X0044042Y0269258D01*
X0044042Y0268660D02*
X0028342Y0268660D01*
X0028342Y0268061D02*
X0044042Y0268061D01*
X0044042Y0267463D02*
X0028342Y0267463D01*
X0028342Y0266864D02*
X0044042Y0266864D01*
X0044042Y0266266D02*
X0028342Y0266266D01*
X0028342Y0265667D02*
X0044042Y0265667D01*
X0044042Y0265069D02*
X0028342Y0265069D01*
X0028342Y0264470D02*
X0044042Y0264470D01*
X0044042Y0263872D02*
X0028342Y0263872D01*
X0028342Y0263273D02*
X0044042Y0263273D01*
X0044042Y0262675D02*
X0028342Y0262675D01*
X0028342Y0262076D02*
X0044042Y0262076D01*
X0044042Y0261478D02*
X0028342Y0261478D01*
X0028342Y0260879D02*
X0044042Y0260879D01*
X0044042Y0260281D02*
X0028342Y0260281D01*
X0028342Y0259682D02*
X0044042Y0259682D01*
X0044042Y0259084D02*
X0028342Y0259084D01*
X0028342Y0258485D02*
X0044042Y0258485D01*
X0044042Y0257887D02*
X0028342Y0257887D01*
X0028342Y0257288D02*
X0044042Y0257288D01*
X0044042Y0256690D02*
X0028342Y0256690D01*
X0028342Y0256091D02*
X0044042Y0256091D01*
X0044042Y0255493D02*
X0028342Y0255493D01*
X0028342Y0254894D02*
X0044042Y0254894D01*
X0044042Y0254296D02*
X0028342Y0254296D01*
X0028342Y0253697D02*
X0044042Y0253697D01*
X0044042Y0253099D02*
X0028342Y0253099D01*
X0028342Y0252500D02*
X0044042Y0252500D01*
X0044042Y0251902D02*
X0028342Y0251902D01*
X0028342Y0251303D02*
X0044042Y0251303D01*
X0044042Y0250705D02*
X0028342Y0250705D01*
X0028342Y0250106D02*
X0044042Y0250106D01*
X0044042Y0249508D02*
X0028342Y0249508D01*
X0028342Y0248909D02*
X0044042Y0248909D01*
X0044042Y0248310D02*
X0028342Y0248310D01*
X0028342Y0247712D02*
X0044042Y0247712D01*
X0044042Y0247113D02*
X0028342Y0247113D01*
X0028342Y0246515D02*
X0044042Y0246515D01*
X0044042Y0245916D02*
X0028342Y0245916D01*
X0028342Y0245318D02*
X0044042Y0245318D01*
X0044042Y0244719D02*
X0028342Y0244719D01*
X0028342Y0244121D02*
X0044042Y0244121D01*
X0044042Y0243522D02*
X0028342Y0243522D01*
X0028342Y0242924D02*
X0044042Y0242924D01*
X0044042Y0242325D02*
X0028342Y0242325D01*
X0028342Y0241727D02*
X0044042Y0241727D01*
X0044042Y0241128D02*
X0028342Y0241128D01*
X0028342Y0240530D02*
X0044042Y0240530D01*
X0044042Y0239931D02*
X0028342Y0239931D01*
X0028342Y0239333D02*
X0044042Y0239333D01*
X0044042Y0238734D02*
X0028342Y0238734D01*
X0028342Y0238136D02*
X0044042Y0238136D01*
X0044042Y0237537D02*
X0028342Y0237537D01*
X0028342Y0236939D02*
X0044042Y0236939D01*
X0044042Y0236340D02*
X0028342Y0236340D01*
X0028342Y0235742D02*
X0044042Y0235742D01*
X0044042Y0235143D02*
X0028342Y0235143D01*
X0028342Y0234545D02*
X0044042Y0234545D01*
X0044042Y0233946D02*
X0028342Y0233946D01*
X0028342Y0233348D02*
X0044042Y0233348D01*
X0044042Y0232749D02*
X0028342Y0232749D01*
X0028342Y0232151D02*
X0044042Y0232151D01*
X0044042Y0231552D02*
X0028342Y0231552D01*
X0028342Y0230954D02*
X0044042Y0230954D01*
X0044042Y0230355D02*
X0028342Y0230355D01*
X0028342Y0229757D02*
X0044042Y0229757D01*
X0044042Y0229158D02*
X0028342Y0229158D01*
X0028342Y0228560D02*
X0044042Y0228560D01*
X0044042Y0227961D02*
X0028342Y0227961D01*
X0028342Y0227363D02*
X0044042Y0227363D01*
X0044042Y0226764D02*
X0028342Y0226764D01*
X0028342Y0226166D02*
X0044042Y0226166D01*
X0044042Y0225567D02*
X0028342Y0225567D01*
X0028342Y0224969D02*
X0044042Y0224969D01*
X0044042Y0224370D02*
X0028342Y0224370D01*
X0028342Y0223772D02*
X0044042Y0223772D01*
X0044042Y0223173D02*
X0028342Y0223173D01*
X0028342Y0222574D02*
X0044042Y0222574D01*
X0044042Y0221976D02*
X0028342Y0221976D01*
X0028342Y0221377D02*
X0044042Y0221377D01*
X0044042Y0220779D02*
X0028342Y0220779D01*
X0028342Y0220180D02*
X0044042Y0220180D01*
X0044042Y0219582D02*
X0028342Y0219582D01*
X0028342Y0218983D02*
X0044042Y0218983D01*
X0044042Y0218385D02*
X0028342Y0218385D01*
X0028342Y0217786D02*
X0044042Y0217786D01*
X0044042Y0217188D02*
X0028342Y0217188D01*
X0028342Y0216589D02*
X0044042Y0216589D01*
X0044042Y0215991D02*
X0028342Y0215991D01*
X0028342Y0215392D02*
X0044042Y0215392D01*
X0044042Y0214794D02*
X0028342Y0214794D01*
X0028342Y0214195D02*
X0044042Y0214195D01*
X0044042Y0213597D02*
X0028342Y0213597D01*
X0028342Y0212998D02*
X0044042Y0212998D01*
X0044042Y0212400D02*
X0028342Y0212400D01*
X0028342Y0211801D02*
X0044042Y0211801D01*
X0044042Y0211203D02*
X0028342Y0211203D01*
X0028342Y0210604D02*
X0044042Y0210604D01*
X0044042Y0210006D02*
X0028342Y0210006D01*
X0028342Y0209407D02*
X0044042Y0209407D01*
X0044042Y0208809D02*
X0028342Y0208809D01*
X0028342Y0208210D02*
X0044042Y0208210D01*
X0044042Y0207612D02*
X0028342Y0207612D01*
X0028342Y0207013D02*
X0044042Y0207013D01*
X0044042Y0206415D02*
X0028342Y0206415D01*
X0028342Y0205816D02*
X0044042Y0205816D01*
X0044042Y0205218D02*
X0028342Y0205218D01*
X0028342Y0204619D02*
X0044042Y0204619D01*
X0044042Y0204021D02*
X0028342Y0204021D01*
X0028342Y0203422D02*
X0044042Y0203422D01*
X0044042Y0202824D02*
X0028342Y0202824D01*
X0028342Y0202225D02*
X0044042Y0202225D01*
X0044042Y0201627D02*
X0028342Y0201627D01*
X0028342Y0201028D02*
X0044042Y0201028D01*
X0044042Y0200430D02*
X0028342Y0200430D01*
X0028342Y0199831D02*
X0044042Y0199831D01*
X0044042Y0199233D02*
X0028342Y0199233D01*
X0028342Y0198634D02*
X0044042Y0198634D01*
X0044042Y0198036D02*
X0028342Y0198036D01*
X0028342Y0197437D02*
X0044042Y0197437D01*
X0044042Y0196839D02*
X0028342Y0196839D01*
X0028342Y0196240D02*
X0044042Y0196240D01*
X0044042Y0195641D02*
X0028342Y0195641D01*
X0028342Y0195043D02*
X0044042Y0195043D01*
X0044042Y0194444D02*
X0028342Y0194444D01*
X0028342Y0193846D02*
X0044042Y0193846D01*
X0044042Y0193247D02*
X0028342Y0193247D01*
X0028342Y0192649D02*
X0044042Y0192649D01*
X0044042Y0192050D02*
X0028342Y0192050D01*
X0028342Y0191452D02*
X0044042Y0191452D01*
X0044042Y0190853D02*
X0028342Y0190853D01*
X0028342Y0190255D02*
X0044042Y0190255D01*
X0044042Y0189656D02*
X0028342Y0189656D01*
X0028342Y0189058D02*
X0044042Y0189058D01*
X0044042Y0188459D02*
X0028342Y0188459D01*
X0028342Y0187861D02*
X0044042Y0187861D01*
X0044042Y0187262D02*
X0028342Y0187262D01*
X0028342Y0186664D02*
X0044042Y0186664D01*
X0044042Y0186065D02*
X0028342Y0186065D01*
X0028342Y0185467D02*
X0044042Y0185467D01*
X0044042Y0184868D02*
X0028342Y0184868D01*
X0028342Y0184270D02*
X0044042Y0184270D01*
X0044042Y0183671D02*
X0028342Y0183671D01*
X0028342Y0183073D02*
X0044042Y0183073D01*
X0044042Y0182474D02*
X0028342Y0182474D01*
X0028342Y0181876D02*
X0044042Y0181876D01*
X0044042Y0181277D02*
X0028342Y0181277D01*
X0028342Y0180679D02*
X0044042Y0180679D01*
X0044042Y0180080D02*
X0028342Y0180080D01*
X0028342Y0179482D02*
X0044042Y0179482D01*
X0044042Y0178883D02*
X0028342Y0178883D01*
X0028342Y0178285D02*
X0044042Y0178285D01*
X0044042Y0177686D02*
X0028342Y0177686D01*
X0028342Y0177088D02*
X0044042Y0177088D01*
X0044042Y0176489D02*
X0028342Y0176489D01*
X0028342Y0175891D02*
X0044042Y0175891D01*
X0044042Y0175292D02*
X0028342Y0175292D01*
X0028342Y0174694D02*
X0044042Y0174694D01*
X0044042Y0174095D02*
X0028342Y0174095D01*
X0028342Y0173497D02*
X0044042Y0173497D01*
X0044042Y0172898D02*
X0028342Y0172898D01*
X0028342Y0172300D02*
X0044042Y0172300D01*
X0044042Y0171701D02*
X0028342Y0171701D01*
X0028342Y0171103D02*
X0044042Y0171103D01*
X0044042Y0170504D02*
X0028342Y0170504D01*
X0028342Y0169905D02*
X0044042Y0169905D01*
X0044042Y0169307D02*
X0028342Y0169307D01*
X0028342Y0168708D02*
X0044042Y0168708D01*
X0044042Y0168110D02*
X0028342Y0168110D01*
X0028342Y0167511D02*
X0044042Y0167511D01*
X0044042Y0166913D02*
X0028342Y0166913D01*
X0028342Y0166314D02*
X0044042Y0166314D01*
X0044042Y0165716D02*
X0028342Y0165716D01*
X0028342Y0165117D02*
X0044042Y0165117D01*
X0044042Y0164519D02*
X0028342Y0164519D01*
X0028342Y0163920D02*
X0044042Y0163920D01*
X0044042Y0163322D02*
X0028342Y0163322D01*
X0028342Y0162723D02*
X0044042Y0162723D01*
X0044042Y0162125D02*
X0028342Y0162125D01*
X0028342Y0161526D02*
X0044042Y0161526D01*
X0044042Y0160928D02*
X0028342Y0160928D01*
X0028342Y0160329D02*
X0044042Y0160329D01*
X0044042Y0159731D02*
X0028342Y0159731D01*
X0028342Y0159132D02*
X0044042Y0159132D01*
X0044042Y0158534D02*
X0028342Y0158534D01*
X0028342Y0157935D02*
X0044042Y0157935D01*
X0044042Y0157337D02*
X0028342Y0157337D01*
X0028342Y0156738D02*
X0044042Y0156738D01*
X0044042Y0156140D02*
X0028342Y0156140D01*
X0028342Y0155541D02*
X0044042Y0155541D01*
X0044042Y0154943D02*
X0028342Y0154943D01*
X0028342Y0154344D02*
X0044042Y0154344D01*
X0044042Y0153746D02*
X0028342Y0153746D01*
X0028342Y0153147D02*
X0044042Y0153147D01*
X0044042Y0152549D02*
X0028342Y0152549D01*
X0028342Y0151950D02*
X0044042Y0151950D01*
X0044042Y0151352D02*
X0028342Y0151352D01*
X0028342Y0150753D02*
X0044042Y0150753D01*
X0044042Y0150155D02*
X0028342Y0150155D01*
X0028342Y0149556D02*
X0044042Y0149556D01*
X0044042Y0148958D02*
X0028342Y0148958D01*
X0028342Y0148359D02*
X0044042Y0148359D01*
X0044042Y0147761D02*
X0028342Y0147761D01*
X0028342Y0147162D02*
X0044042Y0147162D01*
X0044042Y0146564D02*
X0028342Y0146564D01*
X0028342Y0145965D02*
X0044042Y0145965D01*
X0044042Y0145367D02*
X0028342Y0145367D01*
X0028342Y0144768D02*
X0044042Y0144768D01*
X0044042Y0144170D02*
X0028342Y0144170D01*
X0028342Y0143571D02*
X0044042Y0143571D01*
X0044042Y0142972D02*
X0028342Y0142972D01*
X0028342Y0142374D02*
X0044042Y0142374D01*
X0044042Y0141775D02*
X0028342Y0141775D01*
X0028342Y0141177D02*
X0044042Y0141177D01*
X0044042Y0140578D02*
X0028342Y0140578D01*
X0028342Y0139980D02*
X0044042Y0139980D01*
X0044042Y0139381D02*
X0028342Y0139381D01*
X0028342Y0138783D02*
X0044042Y0138783D01*
X0044042Y0138184D02*
X0028342Y0138184D01*
X0028342Y0137586D02*
X0044042Y0137586D01*
X0044042Y0136987D02*
X0028342Y0136987D01*
X0028342Y0136389D02*
X0044042Y0136389D01*
X0044042Y0135790D02*
X0028342Y0135790D01*
X0028342Y0135192D02*
X0044042Y0135192D01*
X0044042Y0134593D02*
X0028342Y0134593D01*
X0028342Y0133995D02*
X0044042Y0133995D01*
X0044042Y0133396D02*
X0028342Y0133396D01*
X0028342Y0132798D02*
X0044042Y0132798D01*
X0044042Y0132199D02*
X0028342Y0132199D01*
X0028342Y0131601D02*
X0044042Y0131601D01*
X0044042Y0131002D02*
X0028342Y0131002D01*
X0028342Y0130404D02*
X0044042Y0130404D01*
X0044042Y0129805D02*
X0028342Y0129805D01*
X0028342Y0129207D02*
X0044042Y0129207D01*
X0044042Y0128608D02*
X0028342Y0128608D01*
X0028342Y0128010D02*
X0044042Y0128010D01*
X0044042Y0127411D02*
X0028342Y0127411D01*
X0028342Y0126813D02*
X0044042Y0126813D01*
X0044042Y0126214D02*
X0028342Y0126214D01*
X0028342Y0125616D02*
X0044042Y0125616D01*
X0044042Y0125017D02*
X0028342Y0125017D01*
X0028342Y0124419D02*
X0044042Y0124419D01*
X0044042Y0123820D02*
X0028342Y0123820D01*
X0028342Y0123222D02*
X0044042Y0123222D01*
X0044042Y0122623D02*
X0028342Y0122623D01*
X0028342Y0122025D02*
X0044042Y0122025D01*
X0044042Y0121426D02*
X0028342Y0121426D01*
X0028342Y0120828D02*
X0044042Y0120828D01*
X0044042Y0120229D02*
X0028342Y0120229D01*
X0028342Y0119631D02*
X0044042Y0119631D01*
X0044042Y0119032D02*
X0028342Y0119032D01*
X0028342Y0118434D02*
X0044042Y0118434D01*
X0044042Y0117835D02*
X0028342Y0117835D01*
X0028342Y0117237D02*
X0044042Y0117237D01*
X0044042Y0116638D02*
X0028342Y0116638D01*
X0028342Y0116039D02*
X0044042Y0116039D01*
X0044042Y0115441D02*
X0028342Y0115441D01*
X0028342Y0114842D02*
X0044042Y0114842D01*
X0044042Y0114244D02*
X0028342Y0114244D01*
X0028342Y0113645D02*
X0044042Y0113645D01*
X0044042Y0113047D02*
X0028342Y0113047D01*
X0028342Y0112448D02*
X0044042Y0112448D01*
X0044042Y0111850D02*
X0028342Y0111850D01*
X0028342Y0111251D02*
X0044042Y0111251D01*
X0044042Y0110653D02*
X0028342Y0110653D01*
X0028342Y0110054D02*
X0044042Y0110054D01*
X0044042Y0109456D02*
X0028342Y0109456D01*
X0028342Y0108857D02*
X0044042Y0108857D01*
X0044042Y0108259D02*
X0028342Y0108259D01*
X0028342Y0107660D02*
X0044042Y0107660D01*
X0044042Y0107062D02*
X0028342Y0107062D01*
X0028342Y0106463D02*
X0044042Y0106463D01*
X0044042Y0105865D02*
X0028342Y0105865D01*
X0028342Y0105266D02*
X0044042Y0105266D01*
X0044042Y0104668D02*
X0028342Y0104668D01*
X0028342Y0104069D02*
X0044042Y0104069D01*
X0044042Y0103471D02*
X0028342Y0103471D01*
X0028342Y0102872D02*
X0044042Y0102872D01*
X0044042Y0102274D02*
X0028342Y0102274D01*
X0028342Y0101675D02*
X0044042Y0101675D01*
X0044042Y0101077D02*
X0028342Y0101077D01*
X0028342Y0100478D02*
X0044042Y0100478D01*
X0044042Y0099880D02*
X0028342Y0099880D01*
X0028342Y0099281D02*
X0044042Y0099281D01*
X0044042Y0098683D02*
X0028342Y0098683D01*
X0028342Y0098084D02*
X0044042Y0098084D01*
X0044042Y0097486D02*
X0028342Y0097486D01*
X0028342Y0096887D02*
X0044042Y0096887D01*
X0044042Y0096289D02*
X0028342Y0096289D01*
X0028342Y0095690D02*
X0044042Y0095690D01*
X0044042Y0095092D02*
X0028342Y0095092D01*
X0028342Y0094493D02*
X0044042Y0094493D01*
X0044042Y0093895D02*
X0028342Y0093895D01*
X0028342Y0093296D02*
X0044042Y0093296D01*
X0044042Y0092698D02*
X0028342Y0092698D01*
X0028342Y0092099D02*
X0044042Y0092099D01*
X0044042Y0091501D02*
X0028342Y0091501D01*
X0028342Y0090902D02*
X0044042Y0090902D01*
X0044042Y0090303D02*
X0028342Y0090303D01*
X0028342Y0089705D02*
X0044042Y0089705D01*
X0044042Y0089106D02*
X0028342Y0089106D01*
X0028342Y0088508D02*
X0044042Y0088508D01*
X0044042Y0087909D02*
X0028342Y0087909D01*
X0028342Y0087311D02*
X0044042Y0087311D01*
X0044042Y0086712D02*
X0028342Y0086712D01*
X0028342Y0086114D02*
X0044042Y0086114D01*
X0044042Y0085515D02*
X0028342Y0085515D01*
X0028342Y0084917D02*
X0044042Y0084917D01*
X0044042Y0084318D02*
X0028342Y0084318D01*
X0028342Y0083720D02*
X0044042Y0083720D01*
X0044042Y0083121D02*
X0028342Y0083121D01*
X0028342Y0082523D02*
X0044042Y0082523D01*
X0044042Y0081924D02*
X0028342Y0081924D01*
X0028342Y0081326D02*
X0044042Y0081326D01*
X0044042Y0080727D02*
X0028342Y0080727D01*
X0028342Y0080129D02*
X0044042Y0080129D01*
X0044042Y0079530D02*
X0028342Y0079530D01*
X0028342Y0078932D02*
X0044042Y0078932D01*
X0044042Y0078333D02*
X0028342Y0078333D01*
X0028342Y0077735D02*
X0044042Y0077735D01*
X0044042Y0077136D02*
X0028342Y0077136D01*
X0028342Y0076538D02*
X0044042Y0076538D01*
X0044042Y0075939D02*
X0028342Y0075939D01*
X0028342Y0075341D02*
X0044042Y0075341D01*
X0044042Y0074742D02*
X0028342Y0074742D01*
X0028342Y0074144D02*
X0044042Y0074144D01*
X0044042Y0073545D02*
X0028342Y0073545D01*
X0028342Y0072947D02*
X0044042Y0072947D01*
X0044042Y0072348D02*
X0028342Y0072348D01*
X0028342Y0071750D02*
X0044042Y0071750D01*
X0044042Y0071151D02*
X0028342Y0071151D01*
X0028342Y0070553D02*
X0044042Y0070553D01*
X0044042Y0069954D02*
X0028342Y0069954D01*
X0028342Y0069356D02*
X0044042Y0069356D01*
X0044042Y0068757D02*
X0028342Y0068757D01*
X0028342Y0068159D02*
X0044042Y0068159D01*
X0044042Y0067560D02*
X0028342Y0067560D01*
X0028342Y0066962D02*
X0044042Y0066962D01*
X0044042Y0066363D02*
X0028342Y0066363D01*
X0028342Y0065765D02*
X0044042Y0065765D01*
X0044042Y0065166D02*
X0028342Y0065166D01*
X0028342Y0064568D02*
X0044042Y0064568D01*
X0044042Y0063969D02*
X0028342Y0063969D01*
X0028342Y0063370D02*
X0044042Y0063370D01*
X0044042Y0062772D02*
X0028342Y0062772D01*
X0028342Y0062173D02*
X0044042Y0062173D01*
X0044042Y0061575D02*
X0028342Y0061575D01*
X0028342Y0060976D02*
X0044042Y0060976D01*
X0044042Y0060378D02*
X0028342Y0060378D01*
X0028342Y0059779D02*
X0044042Y0059779D01*
X0044042Y0059181D02*
X0028342Y0059181D01*
X0028342Y0058582D02*
X0044042Y0058582D01*
X0044042Y0057984D02*
X0028342Y0057984D01*
X0028342Y0057385D02*
X0044042Y0057385D01*
X0044042Y0056787D02*
X0028342Y0056787D01*
X0028342Y0056188D02*
X0044042Y0056188D01*
X0044042Y0055590D02*
X0028342Y0055590D01*
X0028342Y0054991D02*
X0044042Y0054991D01*
X0044042Y0054393D02*
X0028342Y0054393D01*
X0028342Y0053794D02*
X0044042Y0053794D01*
X0044042Y0053196D02*
X0028342Y0053196D01*
X0028342Y0052597D02*
X0044042Y0052597D01*
X0044042Y0051999D02*
X0028342Y0051999D01*
X0028342Y0051400D02*
X0044042Y0051400D01*
X0044042Y0050802D02*
X0028342Y0050802D01*
X0028342Y0050203D02*
X0044042Y0050203D01*
X0044042Y0049605D02*
X0028342Y0049605D01*
X0028342Y0049006D02*
X0044042Y0049006D01*
X0044042Y0048408D02*
X0028342Y0048408D01*
X0028342Y0047809D02*
X0044042Y0047809D01*
X0044042Y0047211D02*
X0028342Y0047211D01*
X0028342Y0046612D02*
X0044042Y0046612D01*
X0044042Y0046014D02*
X0028342Y0046014D01*
X0028342Y0045415D02*
X0044042Y0045415D01*
X0044042Y0044817D02*
X0028342Y0044817D01*
X0028342Y0044218D02*
X0044042Y0044218D01*
X0044042Y0043620D02*
X0028342Y0043620D01*
X0028342Y0043021D02*
X0044042Y0043021D01*
X0044042Y0042423D02*
X0028342Y0042423D01*
X0028342Y0041824D02*
X0044042Y0041824D01*
X0044042Y0041226D02*
X0028342Y0041226D01*
X0028342Y0040627D02*
X0044042Y0040627D01*
X0044042Y0040029D02*
X0028342Y0040029D01*
X0028342Y0039430D02*
X0044042Y0039430D01*
X0044042Y0038832D02*
X0028342Y0038832D01*
X0028342Y0038233D02*
X0044042Y0038233D01*
X0044042Y0037634D02*
X0028342Y0037634D01*
X0028342Y0037036D02*
X0044042Y0037036D01*
X0044042Y0036437D02*
X0028342Y0036437D01*
X0028342Y0035839D02*
X0044042Y0035839D01*
X0044042Y0035240D02*
X0028342Y0035240D01*
X0028342Y0034642D02*
X0044042Y0034642D01*
X0044042Y0034043D02*
X0028342Y0034043D01*
X0028342Y0033445D02*
X0044042Y0033445D01*
X0044042Y0032846D02*
X0028342Y0032846D01*
X0028342Y0032248D02*
X0044042Y0032248D01*
X0044042Y0031649D02*
X0028342Y0031649D01*
X0028342Y0031051D02*
X0044042Y0031051D01*
X0044042Y0030452D02*
X0028342Y0030452D01*
X0028342Y0029854D02*
X0044042Y0029854D01*
X0044042Y0029255D02*
X0028342Y0029255D01*
X0028342Y0028657D02*
X0044042Y0028657D01*
X0044042Y0028058D02*
X0028342Y0028058D01*
X0028342Y0027460D02*
X0044042Y0027460D01*
X0044042Y0026861D02*
X0028342Y0026861D01*
X0028342Y0026263D02*
X0044042Y0026263D01*
X0044042Y0025664D02*
X0028342Y0025664D01*
X0028342Y0025066D02*
X0044042Y0025066D01*
X0044042Y0024467D02*
X0028342Y0024467D01*
X0028342Y0023869D02*
X0044042Y0023869D01*
X0044042Y0023270D02*
X0028342Y0023270D01*
X0028342Y0022672D02*
X0044042Y0022672D01*
X0044042Y0022073D02*
X0028342Y0022073D01*
X0028342Y0021475D02*
X0044042Y0021475D01*
X0044042Y0020876D02*
X0028342Y0020876D01*
X0028342Y0020278D02*
X0044042Y0020278D01*
X0044042Y0019679D02*
X0028342Y0019679D01*
X0028342Y0019081D02*
X0044042Y0019081D01*
X0044042Y0018482D02*
X0028342Y0018482D01*
X0028342Y0017884D02*
X0044042Y0017884D01*
X0044042Y0017285D02*
X0028342Y0017285D01*
X0028342Y0016687D02*
X0044042Y0016687D01*
X0044042Y0016088D02*
X0028342Y0016088D01*
X0028342Y0015490D02*
X0044042Y0015490D01*
X0044042Y0014891D02*
X0028342Y0014891D01*
X0028342Y0014293D02*
X0044042Y0014293D01*
X0044042Y0013694D02*
X0028342Y0013694D01*
X0028342Y0013096D02*
X0044042Y0013096D01*
X0044042Y0012497D02*
X0028342Y0012497D01*
X0028342Y0011899D02*
X0044042Y0011899D01*
X0044042Y0011300D02*
X0028342Y0011300D01*
X0028342Y0010701D02*
X0044042Y0010701D01*
X0044183Y0010103D02*
X0028342Y0010103D01*
X0028342Y0009504D02*
X0044431Y0009504D01*
X0044679Y0008906D02*
X0028342Y0008906D01*
X0028342Y0008307D02*
X0045253Y0008307D01*
X0045852Y0007709D02*
X0028342Y0007709D01*
X0028342Y0007110D02*
X0047220Y0007110D01*
X0052642Y0015600D02*
X0052642Y0193681D01*
X0053028Y0192749D01*
X0054791Y0190986D01*
X0057095Y0190031D01*
X0059589Y0190031D01*
X0061893Y0190986D01*
X0063656Y0192749D01*
X0064610Y0195053D01*
X0064610Y0197547D01*
X0063656Y0199851D01*
X0061893Y0201614D01*
X0059589Y0202568D01*
X0057095Y0202568D01*
X0054791Y0201614D01*
X0053028Y0199851D01*
X0052642Y0198919D01*
X0052642Y0313681D01*
X0053028Y0312749D01*
X0054791Y0310986D01*
X0057095Y0310031D01*
X0059589Y0310031D01*
X0061893Y0310986D01*
X0063656Y0312749D01*
X0064610Y0315053D01*
X0064610Y0317547D01*
X0063656Y0319851D01*
X0061893Y0321614D01*
X0061056Y0321961D01*
X0425627Y0321961D01*
X0424791Y0321614D01*
X0423028Y0319851D01*
X0422073Y0317547D01*
X0422073Y0315053D01*
X0423028Y0312749D01*
X0424791Y0310986D01*
X0427095Y0310031D01*
X0429589Y0310031D01*
X0431893Y0310986D01*
X0433656Y0312749D01*
X0434610Y0315053D01*
X0434610Y0317547D01*
X0433656Y0319851D01*
X0431893Y0321614D01*
X0431056Y0321961D01*
X0437743Y0321961D01*
X0437743Y0015600D01*
X0052642Y0015600D01*
X0052642Y0016088D02*
X0437743Y0016088D01*
X0437743Y0016687D02*
X0052642Y0016687D01*
X0052642Y0017285D02*
X0437743Y0017285D01*
X0437743Y0017884D02*
X0052642Y0017884D01*
X0052642Y0018482D02*
X0437743Y0018482D01*
X0437743Y0019081D02*
X0052642Y0019081D01*
X0052642Y0019679D02*
X0437743Y0019679D01*
X0437743Y0020278D02*
X0052642Y0020278D01*
X0052642Y0020876D02*
X0437743Y0020876D01*
X0437743Y0021475D02*
X0052642Y0021475D01*
X0052642Y0022073D02*
X0437743Y0022073D01*
X0437743Y0022672D02*
X0052642Y0022672D01*
X0052642Y0023270D02*
X0437743Y0023270D01*
X0437743Y0023869D02*
X0052642Y0023869D01*
X0052642Y0024467D02*
X0437743Y0024467D01*
X0437743Y0025066D02*
X0052642Y0025066D01*
X0052642Y0025664D02*
X0437743Y0025664D01*
X0437743Y0026263D02*
X0250255Y0026263D01*
X0250024Y0026031D02*
X0253110Y0029118D01*
X0253110Y0033482D01*
X0250024Y0036568D01*
X0245660Y0036568D01*
X0242573Y0033482D01*
X0242573Y0029118D01*
X0245660Y0026031D01*
X0250024Y0026031D01*
X0250854Y0026861D02*
X0437743Y0026861D01*
X0437743Y0027460D02*
X0251452Y0027460D01*
X0252051Y0028058D02*
X0437743Y0028058D01*
X0437743Y0028657D02*
X0252649Y0028657D01*
X0253110Y0029255D02*
X0437743Y0029255D01*
X0437743Y0029854D02*
X0253110Y0029854D01*
X0253110Y0030452D02*
X0437743Y0030452D01*
X0437743Y0031051D02*
X0253110Y0031051D01*
X0253110Y0031649D02*
X0437743Y0031649D01*
X0437743Y0032248D02*
X0253110Y0032248D01*
X0253110Y0032846D02*
X0437743Y0032846D01*
X0437743Y0033445D02*
X0253110Y0033445D01*
X0252549Y0034043D02*
X0437743Y0034043D01*
X0437743Y0034642D02*
X0368892Y0034642D01*
X0368781Y0034531D02*
X0370110Y0035860D01*
X0370110Y0046740D01*
X0368781Y0048068D01*
X0357902Y0048068D01*
X0356573Y0046740D01*
X0356573Y0035860D01*
X0357902Y0034531D01*
X0368781Y0034531D01*
X0369490Y0035240D02*
X0437743Y0035240D01*
X0437743Y0035839D02*
X0370089Y0035839D01*
X0370110Y0036437D02*
X0437743Y0036437D01*
X0437743Y0037036D02*
X0370110Y0037036D01*
X0370110Y0037634D02*
X0437743Y0037634D01*
X0437743Y0038233D02*
X0370110Y0038233D01*
X0370110Y0038832D02*
X0437743Y0038832D01*
X0437743Y0039430D02*
X0370110Y0039430D01*
X0370110Y0040029D02*
X0437743Y0040029D01*
X0437743Y0040627D02*
X0370110Y0040627D01*
X0370110Y0041226D02*
X0437743Y0041226D01*
X0437743Y0041824D02*
X0370110Y0041824D01*
X0370110Y0042423D02*
X0437743Y0042423D01*
X0437743Y0043021D02*
X0370110Y0043021D01*
X0370110Y0043620D02*
X0437743Y0043620D01*
X0437743Y0044218D02*
X0370110Y0044218D01*
X0370110Y0044817D02*
X0437743Y0044817D01*
X0437743Y0045415D02*
X0370110Y0045415D01*
X0370110Y0046014D02*
X0437743Y0046014D01*
X0437743Y0046612D02*
X0370110Y0046612D01*
X0369639Y0047211D02*
X0437743Y0047211D01*
X0437743Y0047809D02*
X0369041Y0047809D01*
X0357643Y0047809D02*
X0309041Y0047809D01*
X0308781Y0048068D02*
X0297902Y0048068D01*
X0296573Y0046740D01*
X0296573Y0044635D01*
X0189046Y0044635D01*
X0187753Y0044100D01*
X0186763Y0043110D01*
X0183771Y0040118D01*
X0098579Y0040118D01*
X0098579Y0040310D01*
X0097782Y0042235D01*
X0096308Y0043708D01*
X0094384Y0044505D01*
X0092300Y0044505D01*
X0090375Y0043708D01*
X0088902Y0042235D01*
X0088105Y0040310D01*
X0088105Y0032290D01*
X0088902Y0030365D01*
X0090375Y0028892D01*
X0092300Y0028094D01*
X0094384Y0028094D01*
X0096308Y0028892D01*
X0097782Y0030365D01*
X0098579Y0032290D01*
X0098579Y0033081D01*
X0183573Y0033081D01*
X0183573Y0029118D01*
X0186660Y0026031D01*
X0191024Y0026031D01*
X0194110Y0029118D01*
X0194110Y0033482D01*
X0191024Y0036568D01*
X0190174Y0036568D01*
X0191204Y0037598D01*
X0296573Y0037598D01*
X0296573Y0035860D01*
X0297902Y0034531D01*
X0308781Y0034531D01*
X0310110Y0035860D01*
X0310110Y0046740D01*
X0308781Y0048068D01*
X0309639Y0047211D02*
X0357044Y0047211D01*
X0356573Y0046612D02*
X0310110Y0046612D01*
X0310110Y0046014D02*
X0356573Y0046014D01*
X0356573Y0045415D02*
X0310110Y0045415D01*
X0310110Y0044817D02*
X0356573Y0044817D01*
X0356573Y0044218D02*
X0310110Y0044218D01*
X0310110Y0043620D02*
X0356573Y0043620D01*
X0356573Y0043021D02*
X0310110Y0043021D01*
X0310110Y0042423D02*
X0356573Y0042423D01*
X0356573Y0041824D02*
X0310110Y0041824D01*
X0310110Y0041226D02*
X0356573Y0041226D01*
X0356573Y0040627D02*
X0310110Y0040627D01*
X0310110Y0040029D02*
X0356573Y0040029D01*
X0356573Y0039430D02*
X0310110Y0039430D01*
X0310110Y0038832D02*
X0356573Y0038832D01*
X0356573Y0038233D02*
X0310110Y0038233D01*
X0310110Y0037634D02*
X0356573Y0037634D01*
X0356573Y0037036D02*
X0310110Y0037036D01*
X0310110Y0036437D02*
X0356573Y0036437D01*
X0356595Y0035839D02*
X0310089Y0035839D01*
X0309490Y0035240D02*
X0357193Y0035240D01*
X0357792Y0034642D02*
X0308892Y0034642D01*
X0297792Y0034642D02*
X0251951Y0034642D01*
X0251352Y0035240D02*
X0297193Y0035240D01*
X0296595Y0035839D02*
X0250754Y0035839D01*
X0250155Y0036437D02*
X0296573Y0036437D01*
X0296573Y0037036D02*
X0190641Y0037036D01*
X0191155Y0036437D02*
X0245529Y0036437D01*
X0244930Y0035839D02*
X0191754Y0035839D01*
X0192352Y0035240D02*
X0244331Y0035240D01*
X0243733Y0034642D02*
X0192951Y0034642D01*
X0193549Y0034043D02*
X0243134Y0034043D01*
X0242573Y0033445D02*
X0194110Y0033445D01*
X0194110Y0032846D02*
X0242573Y0032846D01*
X0242573Y0032248D02*
X0194110Y0032248D01*
X0194110Y0031649D02*
X0242573Y0031649D01*
X0242573Y0031051D02*
X0194110Y0031051D01*
X0194110Y0030452D02*
X0242573Y0030452D01*
X0242573Y0029854D02*
X0194110Y0029854D01*
X0194110Y0029255D02*
X0242573Y0029255D01*
X0243034Y0028657D02*
X0193649Y0028657D01*
X0193051Y0028058D02*
X0243633Y0028058D01*
X0244231Y0027460D02*
X0192452Y0027460D01*
X0191854Y0026861D02*
X0244830Y0026861D01*
X0245428Y0026263D02*
X0191255Y0026263D01*
X0186428Y0026263D02*
X0052642Y0026263D01*
X0052642Y0026861D02*
X0185830Y0026861D01*
X0185231Y0027460D02*
X0052642Y0027460D01*
X0052642Y0028058D02*
X0184633Y0028058D01*
X0184034Y0028657D02*
X0095741Y0028657D01*
X0096672Y0029255D02*
X0183573Y0029255D01*
X0183573Y0029854D02*
X0097270Y0029854D01*
X0097818Y0030452D02*
X0183573Y0030452D01*
X0183573Y0031051D02*
X0098066Y0031051D01*
X0098314Y0031649D02*
X0183573Y0031649D01*
X0183573Y0032248D02*
X0098561Y0032248D01*
X0098579Y0032846D02*
X0183573Y0032846D01*
X0184281Y0040627D02*
X0098448Y0040627D01*
X0098200Y0041226D02*
X0184879Y0041226D01*
X0185478Y0041824D02*
X0097952Y0041824D01*
X0097594Y0042423D02*
X0186076Y0042423D01*
X0186675Y0043021D02*
X0096995Y0043021D01*
X0096397Y0043620D02*
X0187273Y0043620D01*
X0188039Y0044218D02*
X0095077Y0044218D01*
X0091606Y0044218D02*
X0075077Y0044218D01*
X0074384Y0044505D02*
X0072300Y0044505D01*
X0070375Y0043708D01*
X0068902Y0042235D01*
X0068105Y0040310D01*
X0068105Y0032290D01*
X0068902Y0030365D01*
X0070375Y0028892D01*
X0072300Y0028094D01*
X0074384Y0028094D01*
X0076308Y0028892D01*
X0077782Y0030365D01*
X0078579Y0032290D01*
X0078579Y0040310D01*
X0077782Y0042235D01*
X0076308Y0043708D01*
X0074384Y0044505D01*
X0076397Y0043620D02*
X0090287Y0043620D01*
X0089688Y0043021D02*
X0084932Y0043021D01*
X0085650Y0042724D02*
X0084152Y0043344D01*
X0082531Y0043344D01*
X0081033Y0042724D01*
X0079887Y0041577D01*
X0079266Y0040079D01*
X0079266Y0032521D01*
X0079887Y0031023D01*
X0081033Y0029876D01*
X0082531Y0029256D01*
X0084152Y0029256D01*
X0085650Y0029876D01*
X0086797Y0031023D01*
X0087417Y0032521D01*
X0087417Y0040079D01*
X0086797Y0041577D01*
X0085650Y0042724D01*
X0085951Y0042423D02*
X0089090Y0042423D01*
X0088732Y0041824D02*
X0086550Y0041824D01*
X0086943Y0041226D02*
X0088484Y0041226D01*
X0088236Y0040627D02*
X0087190Y0040627D01*
X0087417Y0040029D02*
X0088105Y0040029D01*
X0088105Y0039430D02*
X0087417Y0039430D01*
X0087417Y0038832D02*
X0088105Y0038832D01*
X0088105Y0038233D02*
X0087417Y0038233D01*
X0087417Y0037634D02*
X0088105Y0037634D01*
X0088105Y0037036D02*
X0087417Y0037036D01*
X0087417Y0036437D02*
X0088105Y0036437D01*
X0088105Y0035839D02*
X0087417Y0035839D01*
X0087417Y0035240D02*
X0088105Y0035240D01*
X0088105Y0034642D02*
X0087417Y0034642D01*
X0087417Y0034043D02*
X0088105Y0034043D01*
X0088105Y0033445D02*
X0087417Y0033445D01*
X0087417Y0032846D02*
X0088105Y0032846D01*
X0088122Y0032248D02*
X0087304Y0032248D01*
X0087056Y0031649D02*
X0088370Y0031649D01*
X0088618Y0031051D02*
X0086809Y0031051D01*
X0086226Y0030452D02*
X0088866Y0030452D01*
X0089413Y0029854D02*
X0085596Y0029854D01*
X0090012Y0029255D02*
X0076672Y0029255D01*
X0077270Y0029854D02*
X0081088Y0029854D01*
X0080457Y0030452D02*
X0077818Y0030452D01*
X0078066Y0031051D02*
X0079875Y0031051D01*
X0079627Y0031649D02*
X0078314Y0031649D01*
X0078561Y0032248D02*
X0079379Y0032248D01*
X0079266Y0032846D02*
X0078579Y0032846D01*
X0078579Y0033445D02*
X0079266Y0033445D01*
X0079266Y0034043D02*
X0078579Y0034043D01*
X0078579Y0034642D02*
X0079266Y0034642D01*
X0079266Y0035240D02*
X0078579Y0035240D01*
X0078579Y0035839D02*
X0079266Y0035839D01*
X0079266Y0036437D02*
X0078579Y0036437D01*
X0078579Y0037036D02*
X0079266Y0037036D01*
X0079266Y0037634D02*
X0078579Y0037634D01*
X0078579Y0038233D02*
X0079266Y0038233D01*
X0079266Y0038832D02*
X0078579Y0038832D01*
X0078579Y0039430D02*
X0079266Y0039430D01*
X0079266Y0040029D02*
X0078579Y0040029D01*
X0078448Y0040627D02*
X0079493Y0040627D01*
X0079741Y0041226D02*
X0078200Y0041226D01*
X0077952Y0041824D02*
X0080134Y0041824D01*
X0080732Y0042423D02*
X0077594Y0042423D01*
X0076995Y0043021D02*
X0081751Y0043021D01*
X0071606Y0044218D02*
X0052642Y0044218D01*
X0052642Y0043620D02*
X0070287Y0043620D01*
X0069688Y0043021D02*
X0052642Y0043021D01*
X0052642Y0042423D02*
X0069090Y0042423D01*
X0068732Y0041824D02*
X0052642Y0041824D01*
X0052642Y0041226D02*
X0068484Y0041226D01*
X0068236Y0040627D02*
X0052642Y0040627D01*
X0052642Y0040029D02*
X0068105Y0040029D01*
X0068105Y0039430D02*
X0052642Y0039430D01*
X0052642Y0038832D02*
X0068105Y0038832D01*
X0068105Y0038233D02*
X0052642Y0038233D01*
X0052642Y0037634D02*
X0068105Y0037634D01*
X0068105Y0037036D02*
X0052642Y0037036D01*
X0052642Y0036437D02*
X0068105Y0036437D01*
X0068105Y0035839D02*
X0052642Y0035839D01*
X0052642Y0035240D02*
X0068105Y0035240D01*
X0068105Y0034642D02*
X0052642Y0034642D01*
X0052642Y0034043D02*
X0068105Y0034043D01*
X0068105Y0033445D02*
X0052642Y0033445D01*
X0052642Y0032846D02*
X0068105Y0032846D01*
X0068122Y0032248D02*
X0052642Y0032248D01*
X0052642Y0031649D02*
X0068370Y0031649D01*
X0068618Y0031051D02*
X0052642Y0031051D01*
X0052642Y0030452D02*
X0068866Y0030452D01*
X0069413Y0029854D02*
X0052642Y0029854D01*
X0052642Y0029255D02*
X0070012Y0029255D01*
X0070942Y0028657D02*
X0052642Y0028657D01*
X0052642Y0044817D02*
X0296573Y0044817D01*
X0296573Y0045415D02*
X0052642Y0045415D01*
X0052642Y0046014D02*
X0296573Y0046014D01*
X0296573Y0046612D02*
X0052642Y0046612D01*
X0052642Y0047211D02*
X0297044Y0047211D01*
X0297643Y0047809D02*
X0052642Y0047809D01*
X0052642Y0048408D02*
X0437743Y0048408D01*
X0437743Y0049006D02*
X0052642Y0049006D01*
X0052642Y0049605D02*
X0437743Y0049605D01*
X0437743Y0050203D02*
X0052642Y0050203D01*
X0052642Y0050802D02*
X0437743Y0050802D01*
X0437743Y0051400D02*
X0052642Y0051400D01*
X0052642Y0051999D02*
X0437743Y0051999D01*
X0437743Y0052597D02*
X0052642Y0052597D01*
X0052642Y0053196D02*
X0437743Y0053196D01*
X0437743Y0053794D02*
X0052642Y0053794D01*
X0052642Y0054393D02*
X0437743Y0054393D01*
X0437743Y0054991D02*
X0052642Y0054991D01*
X0052642Y0055590D02*
X0437743Y0055590D01*
X0437743Y0056188D02*
X0052642Y0056188D01*
X0052642Y0056787D02*
X0437743Y0056787D01*
X0437743Y0057385D02*
X0052642Y0057385D01*
X0052642Y0057984D02*
X0437743Y0057984D01*
X0437743Y0058582D02*
X0052642Y0058582D01*
X0052642Y0059181D02*
X0437743Y0059181D01*
X0437743Y0059779D02*
X0052642Y0059779D01*
X0052642Y0060378D02*
X0437743Y0060378D01*
X0437743Y0060976D02*
X0052642Y0060976D01*
X0052642Y0061575D02*
X0437743Y0061575D01*
X0437743Y0062173D02*
X0052642Y0062173D01*
X0052642Y0062772D02*
X0437743Y0062772D01*
X0437743Y0063370D02*
X0052642Y0063370D01*
X0052642Y0063969D02*
X0437743Y0063969D01*
X0437743Y0064568D02*
X0052642Y0064568D01*
X0052642Y0065166D02*
X0437743Y0065166D01*
X0437743Y0065765D02*
X0052642Y0065765D01*
X0052642Y0066363D02*
X0216111Y0066363D01*
X0216242Y0066231D02*
X0220441Y0066231D01*
X0223410Y0069201D01*
X0223410Y0073399D01*
X0220441Y0076368D01*
X0216242Y0076368D01*
X0213273Y0073399D01*
X0213273Y0069201D01*
X0216242Y0066231D01*
X0215512Y0066962D02*
X0052642Y0066962D01*
X0052642Y0067560D02*
X0214914Y0067560D01*
X0214315Y0068159D02*
X0052642Y0068159D01*
X0052642Y0068757D02*
X0213717Y0068757D01*
X0213273Y0069356D02*
X0052642Y0069356D01*
X0052642Y0069954D02*
X0213273Y0069954D01*
X0213273Y0070553D02*
X0052642Y0070553D01*
X0052642Y0071151D02*
X0213273Y0071151D01*
X0213273Y0071750D02*
X0052642Y0071750D01*
X0052642Y0072348D02*
X0213273Y0072348D01*
X0213273Y0072947D02*
X0052642Y0072947D01*
X0052642Y0073545D02*
X0213419Y0073545D01*
X0214018Y0074144D02*
X0052642Y0074144D01*
X0052642Y0074742D02*
X0214616Y0074742D01*
X0215215Y0075341D02*
X0052642Y0075341D01*
X0052642Y0075939D02*
X0215813Y0075939D01*
X0220871Y0075939D02*
X0245813Y0075939D01*
X0246242Y0076368D02*
X0243273Y0073399D01*
X0243273Y0069201D01*
X0246242Y0066231D01*
X0250441Y0066231D01*
X0253410Y0069201D01*
X0253410Y0073399D01*
X0250441Y0076368D01*
X0246242Y0076368D01*
X0245215Y0075341D02*
X0221469Y0075341D01*
X0222068Y0074742D02*
X0244616Y0074742D01*
X0244018Y0074144D02*
X0222666Y0074144D01*
X0223265Y0073545D02*
X0243419Y0073545D01*
X0243273Y0072947D02*
X0223410Y0072947D01*
X0223410Y0072348D02*
X0243273Y0072348D01*
X0243273Y0071750D02*
X0223410Y0071750D01*
X0223410Y0071151D02*
X0243273Y0071151D01*
X0243273Y0070553D02*
X0223410Y0070553D01*
X0223410Y0069954D02*
X0243273Y0069954D01*
X0243273Y0069356D02*
X0223410Y0069356D01*
X0222967Y0068757D02*
X0243717Y0068757D01*
X0244315Y0068159D02*
X0222368Y0068159D01*
X0221770Y0067560D02*
X0244914Y0067560D01*
X0245512Y0066962D02*
X0221171Y0066962D01*
X0220573Y0066363D02*
X0246111Y0066363D01*
X0250573Y0066363D02*
X0437743Y0066363D01*
X0437743Y0066962D02*
X0251171Y0066962D01*
X0251770Y0067560D02*
X0437743Y0067560D01*
X0437743Y0068159D02*
X0252368Y0068159D01*
X0252967Y0068757D02*
X0437743Y0068757D01*
X0437743Y0069356D02*
X0253410Y0069356D01*
X0253410Y0069954D02*
X0437743Y0069954D01*
X0437743Y0070553D02*
X0253410Y0070553D01*
X0253410Y0071151D02*
X0437743Y0071151D01*
X0437743Y0071750D02*
X0253410Y0071750D01*
X0253410Y0072348D02*
X0437743Y0072348D01*
X0437743Y0072947D02*
X0253410Y0072947D01*
X0253265Y0073545D02*
X0437743Y0073545D01*
X0437743Y0074144D02*
X0252666Y0074144D01*
X0252068Y0074742D02*
X0437743Y0074742D01*
X0437743Y0075341D02*
X0251469Y0075341D01*
X0250871Y0075939D02*
X0437743Y0075939D01*
X0437743Y0076538D02*
X0052642Y0076538D01*
X0052642Y0077136D02*
X0437743Y0077136D01*
X0437743Y0077735D02*
X0052642Y0077735D01*
X0052642Y0078333D02*
X0437743Y0078333D01*
X0437743Y0078932D02*
X0052642Y0078932D01*
X0052642Y0079530D02*
X0437743Y0079530D01*
X0437743Y0080129D02*
X0052642Y0080129D01*
X0052642Y0080727D02*
X0437743Y0080727D01*
X0437743Y0081326D02*
X0052642Y0081326D01*
X0052642Y0081924D02*
X0437743Y0081924D01*
X0437743Y0082523D02*
X0052642Y0082523D01*
X0052642Y0083121D02*
X0437743Y0083121D01*
X0437743Y0083720D02*
X0052642Y0083720D01*
X0052642Y0084318D02*
X0437743Y0084318D01*
X0437743Y0084917D02*
X0052642Y0084917D01*
X0052642Y0085515D02*
X0437743Y0085515D01*
X0437743Y0086114D02*
X0052642Y0086114D01*
X0052642Y0086712D02*
X0437743Y0086712D01*
X0437743Y0087311D02*
X0052642Y0087311D01*
X0052642Y0087909D02*
X0437743Y0087909D01*
X0437743Y0088508D02*
X0052642Y0088508D01*
X0052642Y0089106D02*
X0437743Y0089106D01*
X0437743Y0089705D02*
X0052642Y0089705D01*
X0052642Y0090303D02*
X0437743Y0090303D01*
X0437743Y0090902D02*
X0052642Y0090902D01*
X0052642Y0091501D02*
X0437743Y0091501D01*
X0437743Y0092099D02*
X0052642Y0092099D01*
X0052642Y0092698D02*
X0437743Y0092698D01*
X0437743Y0093296D02*
X0052642Y0093296D01*
X0052642Y0093895D02*
X0437743Y0093895D01*
X0437743Y0094493D02*
X0052642Y0094493D01*
X0052642Y0095092D02*
X0224600Y0095092D01*
X0225258Y0094819D02*
X0228118Y0094819D01*
X0230761Y0095913D01*
X0232783Y0097936D01*
X0233222Y0098996D01*
X0233389Y0098594D01*
X0235084Y0096898D01*
X0237300Y0095980D01*
X0239698Y0095980D01*
X0241914Y0096898D01*
X0243610Y0098594D01*
X0244528Y0100810D01*
X0244528Y0103208D01*
X0243610Y0105423D01*
X0241914Y0107119D01*
X0239698Y0108037D01*
X0237300Y0108037D01*
X0235084Y0107119D01*
X0233389Y0105423D01*
X0233222Y0105022D01*
X0232783Y0106081D01*
X0230761Y0108104D01*
X0228118Y0109198D01*
X0225258Y0109198D01*
X0222616Y0108104D01*
X0220593Y0106081D01*
X0220154Y0105022D01*
X0219988Y0105423D01*
X0218292Y0107119D01*
X0216076Y0108037D01*
X0213678Y0108037D01*
X0211462Y0107119D01*
X0209767Y0105423D01*
X0208972Y0103504D01*
X0208177Y0105423D01*
X0206481Y0107119D01*
X0204265Y0108037D01*
X0201867Y0108037D01*
X0199651Y0107119D01*
X0197956Y0105423D01*
X0197038Y0103208D01*
X0197038Y0100810D01*
X0197956Y0098594D01*
X0199651Y0096898D01*
X0201867Y0095980D01*
X0204265Y0095980D01*
X0206481Y0096898D01*
X0208177Y0098594D01*
X0208972Y0100513D01*
X0209767Y0098594D01*
X0211462Y0096898D01*
X0213678Y0095980D01*
X0216076Y0095980D01*
X0218292Y0096898D01*
X0219988Y0098594D01*
X0220154Y0098996D01*
X0220593Y0097936D01*
X0222616Y0095913D01*
X0225258Y0094819D01*
X0223155Y0095690D02*
X0052642Y0095690D01*
X0052642Y0096289D02*
X0201123Y0096289D01*
X0199678Y0096887D02*
X0052642Y0096887D01*
X0052642Y0097486D02*
X0199064Y0097486D01*
X0198465Y0098084D02*
X0052642Y0098084D01*
X0052642Y0098683D02*
X0197919Y0098683D01*
X0197671Y0099281D02*
X0052642Y0099281D01*
X0052642Y0099880D02*
X0197423Y0099880D01*
X0197175Y0100478D02*
X0052642Y0100478D01*
X0052642Y0101077D02*
X0197038Y0101077D01*
X0197038Y0101675D02*
X0052642Y0101675D01*
X0052642Y0102274D02*
X0197038Y0102274D01*
X0197038Y0102872D02*
X0052642Y0102872D01*
X0052642Y0103471D02*
X0197147Y0103471D01*
X0197395Y0104069D02*
X0052642Y0104069D01*
X0052642Y0104668D02*
X0197643Y0104668D01*
X0197891Y0105266D02*
X0052642Y0105266D01*
X0052642Y0105865D02*
X0198397Y0105865D01*
X0198995Y0106463D02*
X0052642Y0106463D01*
X0052642Y0107062D02*
X0199594Y0107062D01*
X0200958Y0107660D02*
X0052642Y0107660D01*
X0052642Y0108259D02*
X0222990Y0108259D01*
X0222172Y0107660D02*
X0216986Y0107660D01*
X0218349Y0107062D02*
X0221574Y0107062D01*
X0220975Y0106463D02*
X0218948Y0106463D01*
X0219546Y0105865D02*
X0220503Y0105865D01*
X0220255Y0105266D02*
X0220053Y0105266D01*
X0224435Y0108857D02*
X0052642Y0108857D01*
X0052642Y0109456D02*
X0437743Y0109456D01*
X0437743Y0110054D02*
X0052642Y0110054D01*
X0052642Y0110653D02*
X0437743Y0110653D01*
X0437743Y0111251D02*
X0052642Y0111251D01*
X0052642Y0111850D02*
X0437743Y0111850D01*
X0437743Y0112448D02*
X0052642Y0112448D01*
X0052642Y0113047D02*
X0437743Y0113047D01*
X0437743Y0113645D02*
X0052642Y0113645D01*
X0052642Y0114244D02*
X0437743Y0114244D01*
X0437743Y0114842D02*
X0052642Y0114842D01*
X0052642Y0115441D02*
X0437743Y0115441D01*
X0437743Y0116039D02*
X0052642Y0116039D01*
X0052642Y0116638D02*
X0437743Y0116638D01*
X0437743Y0117237D02*
X0052642Y0117237D01*
X0052642Y0117835D02*
X0437743Y0117835D01*
X0437743Y0118434D02*
X0052642Y0118434D01*
X0052642Y0119032D02*
X0437743Y0119032D01*
X0437743Y0119631D02*
X0052642Y0119631D01*
X0052642Y0120229D02*
X0437743Y0120229D01*
X0437743Y0120828D02*
X0052642Y0120828D01*
X0052642Y0121426D02*
X0437743Y0121426D01*
X0437743Y0122025D02*
X0052642Y0122025D01*
X0052642Y0122623D02*
X0437743Y0122623D01*
X0437743Y0123222D02*
X0052642Y0123222D01*
X0052642Y0123820D02*
X0437743Y0123820D01*
X0437743Y0124419D02*
X0052642Y0124419D01*
X0052642Y0125017D02*
X0437743Y0125017D01*
X0437743Y0125616D02*
X0052642Y0125616D01*
X0052642Y0126214D02*
X0437743Y0126214D01*
X0437743Y0126813D02*
X0052642Y0126813D01*
X0052642Y0127411D02*
X0437743Y0127411D01*
X0437743Y0128010D02*
X0052642Y0128010D01*
X0052642Y0128608D02*
X0437743Y0128608D01*
X0437743Y0129207D02*
X0052642Y0129207D01*
X0052642Y0129805D02*
X0437743Y0129805D01*
X0437743Y0130404D02*
X0052642Y0130404D01*
X0052642Y0131002D02*
X0437743Y0131002D01*
X0437743Y0131601D02*
X0052642Y0131601D01*
X0052642Y0132199D02*
X0437743Y0132199D01*
X0437743Y0132798D02*
X0052642Y0132798D01*
X0052642Y0133396D02*
X0437743Y0133396D01*
X0437743Y0133995D02*
X0052642Y0133995D01*
X0052642Y0134593D02*
X0437743Y0134593D01*
X0437743Y0135192D02*
X0052642Y0135192D01*
X0052642Y0135790D02*
X0437743Y0135790D01*
X0437743Y0136389D02*
X0052642Y0136389D01*
X0052642Y0136987D02*
X0437743Y0136987D01*
X0437743Y0137586D02*
X0052642Y0137586D01*
X0052642Y0138184D02*
X0437743Y0138184D01*
X0437743Y0138783D02*
X0052642Y0138783D01*
X0052642Y0139381D02*
X0437743Y0139381D01*
X0437743Y0139980D02*
X0052642Y0139980D01*
X0052642Y0140578D02*
X0437743Y0140578D01*
X0437743Y0141177D02*
X0052642Y0141177D01*
X0052642Y0141775D02*
X0437743Y0141775D01*
X0437743Y0142374D02*
X0052642Y0142374D01*
X0052642Y0142972D02*
X0437743Y0142972D01*
X0437743Y0143571D02*
X0052642Y0143571D01*
X0052642Y0144170D02*
X0437743Y0144170D01*
X0437743Y0144768D02*
X0052642Y0144768D01*
X0052642Y0145367D02*
X0437743Y0145367D01*
X0437743Y0145965D02*
X0052642Y0145965D01*
X0052642Y0146564D02*
X0437743Y0146564D01*
X0437743Y0147162D02*
X0052642Y0147162D01*
X0052642Y0147761D02*
X0437743Y0147761D01*
X0437743Y0148359D02*
X0052642Y0148359D01*
X0052642Y0148958D02*
X0437743Y0148958D01*
X0437743Y0149556D02*
X0052642Y0149556D01*
X0052642Y0150155D02*
X0437743Y0150155D01*
X0437743Y0150753D02*
X0052642Y0150753D01*
X0052642Y0151352D02*
X0437743Y0151352D01*
X0437743Y0151950D02*
X0052642Y0151950D01*
X0052642Y0152549D02*
X0437743Y0152549D01*
X0437743Y0153147D02*
X0052642Y0153147D01*
X0052642Y0153746D02*
X0437743Y0153746D01*
X0437743Y0154344D02*
X0052642Y0154344D01*
X0052642Y0154943D02*
X0437743Y0154943D01*
X0437743Y0155541D02*
X0052642Y0155541D01*
X0052642Y0156140D02*
X0437743Y0156140D01*
X0437743Y0156738D02*
X0052642Y0156738D01*
X0052642Y0157337D02*
X0437743Y0157337D01*
X0437743Y0157935D02*
X0052642Y0157935D01*
X0052642Y0158534D02*
X0437743Y0158534D01*
X0437743Y0159132D02*
X0052642Y0159132D01*
X0052642Y0159731D02*
X0437743Y0159731D01*
X0437743Y0160329D02*
X0052642Y0160329D01*
X0052642Y0160928D02*
X0437743Y0160928D01*
X0437743Y0161526D02*
X0052642Y0161526D01*
X0052642Y0162125D02*
X0437743Y0162125D01*
X0437743Y0162723D02*
X0052642Y0162723D01*
X0052642Y0163322D02*
X0437743Y0163322D01*
X0437743Y0163920D02*
X0052642Y0163920D01*
X0052642Y0164519D02*
X0437743Y0164519D01*
X0437743Y0165117D02*
X0052642Y0165117D01*
X0052642Y0165716D02*
X0437743Y0165716D01*
X0437743Y0166314D02*
X0052642Y0166314D01*
X0052642Y0166913D02*
X0437743Y0166913D01*
X0437743Y0167511D02*
X0052642Y0167511D01*
X0052642Y0168110D02*
X0437743Y0168110D01*
X0437743Y0168708D02*
X0052642Y0168708D01*
X0052642Y0169307D02*
X0437743Y0169307D01*
X0437743Y0169905D02*
X0052642Y0169905D01*
X0052642Y0170504D02*
X0437743Y0170504D01*
X0437743Y0171103D02*
X0052642Y0171103D01*
X0052642Y0171701D02*
X0437743Y0171701D01*
X0437743Y0172300D02*
X0052642Y0172300D01*
X0052642Y0172898D02*
X0437743Y0172898D01*
X0437743Y0173497D02*
X0052642Y0173497D01*
X0052642Y0174095D02*
X0437743Y0174095D01*
X0437743Y0174694D02*
X0052642Y0174694D01*
X0052642Y0175292D02*
X0437743Y0175292D01*
X0437743Y0175891D02*
X0052642Y0175891D01*
X0052642Y0176489D02*
X0437743Y0176489D01*
X0437743Y0177088D02*
X0052642Y0177088D01*
X0052642Y0177686D02*
X0437743Y0177686D01*
X0437743Y0178285D02*
X0052642Y0178285D01*
X0052642Y0178883D02*
X0437743Y0178883D01*
X0437743Y0179482D02*
X0052642Y0179482D01*
X0052642Y0180080D02*
X0437743Y0180080D01*
X0437743Y0180679D02*
X0052642Y0180679D01*
X0052642Y0181277D02*
X0437743Y0181277D01*
X0437743Y0181876D02*
X0052642Y0181876D01*
X0052642Y0182474D02*
X0437743Y0182474D01*
X0437743Y0183073D02*
X0052642Y0183073D01*
X0052642Y0183671D02*
X0437743Y0183671D01*
X0437743Y0184270D02*
X0052642Y0184270D01*
X0052642Y0184868D02*
X0437743Y0184868D01*
X0437743Y0185467D02*
X0052642Y0185467D01*
X0052642Y0186065D02*
X0437743Y0186065D01*
X0437743Y0186664D02*
X0052642Y0186664D01*
X0052642Y0187262D02*
X0437743Y0187262D01*
X0437743Y0187861D02*
X0052642Y0187861D01*
X0052642Y0188459D02*
X0437743Y0188459D01*
X0437743Y0189058D02*
X0052642Y0189058D01*
X0052642Y0189656D02*
X0437743Y0189656D01*
X0437743Y0190255D02*
X0060128Y0190255D01*
X0061573Y0190853D02*
X0200938Y0190853D01*
X0201867Y0190469D02*
X0204265Y0190469D01*
X0206481Y0191386D01*
X0208177Y0193082D01*
X0209095Y0195298D01*
X0209095Y0197696D01*
X0208177Y0199912D01*
X0206481Y0201607D01*
X0204265Y0202525D01*
X0201867Y0202525D01*
X0199651Y0201607D01*
X0197956Y0199912D01*
X0197038Y0197696D01*
X0197038Y0195298D01*
X0197956Y0193082D01*
X0199651Y0191386D01*
X0201867Y0190469D01*
X0199586Y0191452D02*
X0062359Y0191452D01*
X0062957Y0192050D02*
X0198987Y0192050D01*
X0198389Y0192649D02*
X0063556Y0192649D01*
X0063862Y0193247D02*
X0197887Y0193247D01*
X0197639Y0193846D02*
X0064110Y0193846D01*
X0064358Y0194444D02*
X0197391Y0194444D01*
X0197143Y0195043D02*
X0064606Y0195043D01*
X0064610Y0195641D02*
X0197038Y0195641D01*
X0197038Y0196240D02*
X0064610Y0196240D01*
X0064610Y0196839D02*
X0197038Y0196839D01*
X0197038Y0197437D02*
X0064610Y0197437D01*
X0064408Y0198036D02*
X0197179Y0198036D01*
X0197426Y0198634D02*
X0064160Y0198634D01*
X0063912Y0199233D02*
X0197674Y0199233D01*
X0197922Y0199831D02*
X0063664Y0199831D01*
X0063077Y0200430D02*
X0198474Y0200430D01*
X0199072Y0201028D02*
X0062479Y0201028D01*
X0061863Y0201627D02*
X0199698Y0201627D01*
X0201143Y0202225D02*
X0060418Y0202225D01*
X0056266Y0202225D02*
X0052642Y0202225D01*
X0052642Y0201627D02*
X0054821Y0201627D01*
X0054205Y0201028D02*
X0052642Y0201028D01*
X0052642Y0200430D02*
X0053606Y0200430D01*
X0053019Y0199831D02*
X0052642Y0199831D01*
X0052642Y0199233D02*
X0052772Y0199233D01*
X0052642Y0202824D02*
X0422997Y0202824D01*
X0423028Y0202749D02*
X0424791Y0200986D01*
X0427095Y0200031D01*
X0429589Y0200031D01*
X0431893Y0200986D01*
X0433656Y0202749D01*
X0434610Y0205053D01*
X0434610Y0207547D01*
X0433656Y0209851D01*
X0431893Y0211614D01*
X0429589Y0212568D01*
X0427095Y0212568D01*
X0424791Y0211614D01*
X0423028Y0209851D01*
X0422073Y0207547D01*
X0422073Y0205053D01*
X0423028Y0202749D01*
X0422749Y0203422D02*
X0052642Y0203422D01*
X0052642Y0204021D02*
X0422501Y0204021D01*
X0422253Y0204619D02*
X0052642Y0204619D01*
X0052642Y0205218D02*
X0422073Y0205218D01*
X0422073Y0205816D02*
X0052642Y0205816D01*
X0052642Y0206415D02*
X0422073Y0206415D01*
X0422073Y0207013D02*
X0052642Y0207013D01*
X0052642Y0207612D02*
X0422100Y0207612D01*
X0422348Y0208210D02*
X0052642Y0208210D01*
X0052642Y0208809D02*
X0422596Y0208809D01*
X0422844Y0209407D02*
X0052642Y0209407D01*
X0052642Y0210006D02*
X0423183Y0210006D01*
X0423781Y0210604D02*
X0052642Y0210604D01*
X0052642Y0211203D02*
X0424380Y0211203D01*
X0425243Y0211801D02*
X0052642Y0211801D01*
X0052642Y0212400D02*
X0426688Y0212400D01*
X0429996Y0212400D02*
X0437743Y0212400D01*
X0437743Y0212998D02*
X0052642Y0212998D01*
X0052642Y0213597D02*
X0437743Y0213597D01*
X0437743Y0214195D02*
X0052642Y0214195D01*
X0052642Y0214794D02*
X0437743Y0214794D01*
X0437743Y0215392D02*
X0052642Y0215392D01*
X0052642Y0215991D02*
X0437743Y0215991D01*
X0437743Y0216589D02*
X0052642Y0216589D01*
X0052642Y0217188D02*
X0437743Y0217188D01*
X0437743Y0217786D02*
X0052642Y0217786D01*
X0052642Y0218385D02*
X0437743Y0218385D01*
X0437743Y0218983D02*
X0052642Y0218983D01*
X0052642Y0219582D02*
X0437743Y0219582D01*
X0437743Y0220180D02*
X0052642Y0220180D01*
X0052642Y0220779D02*
X0437743Y0220779D01*
X0437743Y0221377D02*
X0052642Y0221377D01*
X0052642Y0221976D02*
X0437743Y0221976D01*
X0437743Y0222574D02*
X0052642Y0222574D01*
X0052642Y0223173D02*
X0437743Y0223173D01*
X0437743Y0223772D02*
X0052642Y0223772D01*
X0052642Y0224370D02*
X0437743Y0224370D01*
X0437743Y0224969D02*
X0052642Y0224969D01*
X0052642Y0225567D02*
X0437743Y0225567D01*
X0437743Y0226166D02*
X0052642Y0226166D01*
X0052642Y0226764D02*
X0437743Y0226764D01*
X0437743Y0227363D02*
X0052642Y0227363D01*
X0052642Y0227961D02*
X0437743Y0227961D01*
X0437743Y0228560D02*
X0052642Y0228560D01*
X0052642Y0229158D02*
X0437743Y0229158D01*
X0437743Y0229757D02*
X0052642Y0229757D01*
X0052642Y0230355D02*
X0437743Y0230355D01*
X0437743Y0230954D02*
X0052642Y0230954D01*
X0052642Y0231552D02*
X0437743Y0231552D01*
X0437743Y0232151D02*
X0052642Y0232151D01*
X0052642Y0232749D02*
X0437743Y0232749D01*
X0437743Y0233348D02*
X0052642Y0233348D01*
X0052642Y0233946D02*
X0437743Y0233946D01*
X0437743Y0234545D02*
X0052642Y0234545D01*
X0052642Y0235143D02*
X0437743Y0235143D01*
X0437743Y0235742D02*
X0052642Y0235742D01*
X0052642Y0236340D02*
X0437743Y0236340D01*
X0437743Y0236939D02*
X0052642Y0236939D01*
X0052642Y0237537D02*
X0437743Y0237537D01*
X0437743Y0238136D02*
X0052642Y0238136D01*
X0052642Y0238734D02*
X0437743Y0238734D01*
X0437743Y0239333D02*
X0052642Y0239333D01*
X0052642Y0239931D02*
X0437743Y0239931D01*
X0437743Y0240530D02*
X0052642Y0240530D01*
X0052642Y0241128D02*
X0437743Y0241128D01*
X0437743Y0241727D02*
X0052642Y0241727D01*
X0052642Y0242325D02*
X0437743Y0242325D01*
X0437743Y0242924D02*
X0174878Y0242924D01*
X0175442Y0243157D02*
X0176485Y0244200D01*
X0177049Y0245563D01*
X0177049Y0247037D01*
X0176485Y0248400D01*
X0175442Y0249443D01*
X0174079Y0250007D01*
X0172604Y0250007D01*
X0172155Y0249821D01*
X0146863Y0275114D01*
X0147049Y0275563D01*
X0147049Y0277037D01*
X0146485Y0278400D01*
X0145442Y0279443D01*
X0144079Y0280007D01*
X0142604Y0280007D01*
X0141242Y0279443D01*
X0140199Y0278400D01*
X0139635Y0277037D01*
X0139635Y0275563D01*
X0140199Y0274200D01*
X0141242Y0273157D01*
X0142604Y0272593D01*
X0144079Y0272593D01*
X0144616Y0272815D01*
X0169857Y0247574D01*
X0169635Y0247037D01*
X0169635Y0245563D01*
X0170199Y0244200D01*
X0171242Y0243157D01*
X0172604Y0242593D01*
X0174079Y0242593D01*
X0175442Y0243157D01*
X0175807Y0243522D02*
X0437743Y0243522D01*
X0437743Y0244121D02*
X0176405Y0244121D01*
X0176700Y0244719D02*
X0437743Y0244719D01*
X0437743Y0245318D02*
X0176948Y0245318D01*
X0177049Y0245916D02*
X0437743Y0245916D01*
X0437743Y0246515D02*
X0177049Y0246515D01*
X0177017Y0247113D02*
X0437743Y0247113D01*
X0437743Y0247712D02*
X0176769Y0247712D01*
X0176522Y0248310D02*
X0437743Y0248310D01*
X0437743Y0248909D02*
X0175975Y0248909D01*
X0175285Y0249508D02*
X0437743Y0249508D01*
X0437743Y0250106D02*
X0171871Y0250106D01*
X0171272Y0250705D02*
X0437743Y0250705D01*
X0437743Y0251303D02*
X0170674Y0251303D01*
X0170075Y0251902D02*
X0437743Y0251902D01*
X0437743Y0252500D02*
X0169476Y0252500D01*
X0168878Y0253099D02*
X0201301Y0253099D01*
X0201806Y0252593D02*
X0204877Y0252593D01*
X0207049Y0254764D01*
X0207049Y0256011D01*
X0208055Y0255005D01*
X0249635Y0255005D01*
X0249635Y0254764D01*
X0251806Y0252593D01*
X0254877Y0252593D01*
X0257049Y0254764D01*
X0257049Y0257836D01*
X0254877Y0260007D01*
X0251806Y0260007D01*
X0250018Y0258219D01*
X0209386Y0258219D01*
X0194968Y0272638D01*
X0194026Y0273579D01*
X0175864Y0273579D01*
X0176485Y0274200D01*
X0177049Y0275563D01*
X0177049Y0277037D01*
X0176485Y0278400D01*
X0175442Y0279443D01*
X0174079Y0280007D01*
X0172604Y0280007D01*
X0171242Y0279443D01*
X0170199Y0278400D01*
X0169635Y0277037D01*
X0169635Y0275563D01*
X0170199Y0274200D01*
X0170820Y0273579D01*
X0165864Y0273579D01*
X0166485Y0274200D01*
X0167049Y0275563D01*
X0167049Y0277037D01*
X0166485Y0278400D01*
X0165442Y0279443D01*
X0164079Y0280007D01*
X0162604Y0280007D01*
X0161242Y0279443D01*
X0160199Y0278400D01*
X0159635Y0277037D01*
X0159635Y0275563D01*
X0160199Y0274200D01*
X0160820Y0273579D01*
X0158336Y0273579D01*
X0156845Y0275070D01*
X0157049Y0275563D01*
X0157049Y0277037D01*
X0156485Y0278400D01*
X0155442Y0279443D01*
X0154079Y0280007D01*
X0152604Y0280007D01*
X0151242Y0279443D01*
X0150199Y0278400D01*
X0149635Y0277037D01*
X0149635Y0275563D01*
X0150199Y0274200D01*
X0151242Y0273157D01*
X0152604Y0272593D01*
X0154079Y0272593D01*
X0154573Y0272797D01*
X0157005Y0270365D01*
X0192695Y0270365D01*
X0203053Y0260007D01*
X0201806Y0260007D01*
X0199635Y0257836D01*
X0199635Y0254764D01*
X0201806Y0252593D01*
X0200702Y0253697D02*
X0168279Y0253697D01*
X0167681Y0254296D02*
X0200104Y0254296D01*
X0199635Y0254894D02*
X0167082Y0254894D01*
X0166484Y0255493D02*
X0199635Y0255493D01*
X0199635Y0256091D02*
X0165885Y0256091D01*
X0165287Y0256690D02*
X0199635Y0256690D01*
X0199635Y0257288D02*
X0164688Y0257288D01*
X0164090Y0257887D02*
X0199686Y0257887D01*
X0200284Y0258485D02*
X0163491Y0258485D01*
X0162893Y0259084D02*
X0200883Y0259084D01*
X0201481Y0259682D02*
X0162294Y0259682D01*
X0161696Y0260281D02*
X0202779Y0260281D01*
X0202181Y0260879D02*
X0161097Y0260879D01*
X0160499Y0261478D02*
X0201582Y0261478D01*
X0200984Y0262076D02*
X0159900Y0262076D01*
X0159302Y0262675D02*
X0200385Y0262675D01*
X0199787Y0263273D02*
X0158703Y0263273D01*
X0158105Y0263872D02*
X0199188Y0263872D01*
X0198590Y0264470D02*
X0157506Y0264470D01*
X0156908Y0265069D02*
X0197991Y0265069D01*
X0197393Y0265667D02*
X0156309Y0265667D01*
X0155711Y0266266D02*
X0196794Y0266266D01*
X0196196Y0266864D02*
X0155112Y0266864D01*
X0154514Y0267463D02*
X0195597Y0267463D01*
X0194999Y0268061D02*
X0153915Y0268061D01*
X0153317Y0268660D02*
X0194400Y0268660D01*
X0193802Y0269258D02*
X0152718Y0269258D01*
X0152120Y0269857D02*
X0193203Y0269857D01*
X0195355Y0272251D02*
X0437743Y0272251D01*
X0437743Y0272849D02*
X0194756Y0272849D01*
X0194158Y0273448D02*
X0437743Y0273448D01*
X0437743Y0274046D02*
X0176331Y0274046D01*
X0176669Y0274645D02*
X0437743Y0274645D01*
X0437743Y0275243D02*
X0176917Y0275243D01*
X0177049Y0275842D02*
X0437743Y0275842D01*
X0437743Y0276441D02*
X0177049Y0276441D01*
X0177048Y0277039D02*
X0437743Y0277039D01*
X0437743Y0277638D02*
X0289922Y0277638D01*
X0289877Y0277593D02*
X0292049Y0279764D01*
X0292049Y0279852D01*
X0325040Y0279852D01*
X0325981Y0280794D01*
X0339497Y0294309D01*
X0350090Y0294309D01*
X0351806Y0292593D01*
X0354877Y0292593D01*
X0357049Y0294764D01*
X0357049Y0297836D01*
X0354877Y0300007D01*
X0351806Y0300007D01*
X0349635Y0297836D01*
X0349635Y0297523D01*
X0338165Y0297523D01*
X0337049Y0296407D01*
X0337049Y0297836D01*
X0334877Y0300007D01*
X0331806Y0300007D01*
X0329635Y0297836D01*
X0329635Y0294764D01*
X0331806Y0292593D01*
X0333235Y0292593D01*
X0323709Y0283067D01*
X0291818Y0283067D01*
X0289877Y0285007D01*
X0286806Y0285007D01*
X0284635Y0282836D01*
X0284635Y0279764D01*
X0286806Y0277593D01*
X0289877Y0277593D01*
X0290520Y0278236D02*
X0437743Y0278236D01*
X0437743Y0278835D02*
X0291119Y0278835D01*
X0291717Y0279433D02*
X0437743Y0279433D01*
X0437743Y0280032D02*
X0325219Y0280032D01*
X0325818Y0280630D02*
X0437743Y0280630D01*
X0437743Y0281229D02*
X0326416Y0281229D01*
X0327015Y0281827D02*
X0437743Y0281827D01*
X0437743Y0282426D02*
X0327613Y0282426D01*
X0328212Y0283024D02*
X0437743Y0283024D01*
X0437743Y0283623D02*
X0328810Y0283623D01*
X0329409Y0284221D02*
X0437743Y0284221D01*
X0437743Y0284820D02*
X0330007Y0284820D01*
X0330606Y0285418D02*
X0437743Y0285418D01*
X0437743Y0286017D02*
X0331204Y0286017D01*
X0331803Y0286615D02*
X0437743Y0286615D01*
X0437743Y0287214D02*
X0332401Y0287214D01*
X0333000Y0287812D02*
X0386587Y0287812D01*
X0386806Y0287593D02*
X0389877Y0287593D01*
X0392049Y0289764D01*
X0392049Y0292836D01*
X0389877Y0295007D01*
X0386806Y0295007D01*
X0384635Y0292836D01*
X0384635Y0289764D01*
X0386806Y0287593D01*
X0385988Y0288411D02*
X0333598Y0288411D01*
X0334197Y0289009D02*
X0385390Y0289009D01*
X0384791Y0289608D02*
X0334795Y0289608D01*
X0335394Y0290206D02*
X0384635Y0290206D01*
X0384635Y0290805D02*
X0335992Y0290805D01*
X0336591Y0291403D02*
X0384635Y0291403D01*
X0384635Y0292002D02*
X0337189Y0292002D01*
X0337788Y0292600D02*
X0351799Y0292600D01*
X0351200Y0293199D02*
X0338386Y0293199D01*
X0338985Y0293797D02*
X0350602Y0293797D01*
X0354885Y0292600D02*
X0384635Y0292600D01*
X0384998Y0293199D02*
X0355483Y0293199D01*
X0356082Y0293797D02*
X0385597Y0293797D01*
X0386195Y0294396D02*
X0356680Y0294396D01*
X0357049Y0294994D02*
X0386794Y0294994D01*
X0389890Y0294994D02*
X0396794Y0294994D01*
X0396806Y0295007D02*
X0394635Y0292836D01*
X0394635Y0289764D01*
X0396806Y0287593D01*
X0399877Y0287593D01*
X0402049Y0289764D01*
X0402049Y0292836D01*
X0399877Y0295007D01*
X0396806Y0295007D01*
X0396195Y0294396D02*
X0390489Y0294396D01*
X0391087Y0293797D02*
X0395597Y0293797D01*
X0394998Y0293199D02*
X0391686Y0293199D01*
X0392049Y0292600D02*
X0394635Y0292600D01*
X0394635Y0292002D02*
X0392049Y0292002D01*
X0392049Y0291403D02*
X0394635Y0291403D01*
X0394635Y0290805D02*
X0392049Y0290805D01*
X0392049Y0290206D02*
X0394635Y0290206D01*
X0394791Y0289608D02*
X0391892Y0289608D01*
X0391294Y0289009D02*
X0395390Y0289009D01*
X0395988Y0288411D02*
X0390695Y0288411D01*
X0390097Y0287812D02*
X0396587Y0287812D01*
X0400097Y0287812D02*
X0437743Y0287812D01*
X0437743Y0288411D02*
X0400695Y0288411D01*
X0401294Y0289009D02*
X0437743Y0289009D01*
X0437743Y0289608D02*
X0401892Y0289608D01*
X0402049Y0290206D02*
X0437743Y0290206D01*
X0437743Y0290805D02*
X0402049Y0290805D01*
X0402049Y0291403D02*
X0437743Y0291403D01*
X0437743Y0292002D02*
X0402049Y0292002D01*
X0402049Y0292600D02*
X0437743Y0292600D01*
X0437743Y0293199D02*
X0401686Y0293199D01*
X0401087Y0293797D02*
X0437743Y0293797D01*
X0437743Y0294396D02*
X0400489Y0294396D01*
X0399890Y0294994D02*
X0437743Y0294994D01*
X0437743Y0295593D02*
X0357049Y0295593D01*
X0357049Y0296191D02*
X0437743Y0296191D01*
X0437743Y0296790D02*
X0357049Y0296790D01*
X0357049Y0297388D02*
X0437743Y0297388D01*
X0437743Y0297987D02*
X0356897Y0297987D01*
X0356299Y0298585D02*
X0437743Y0298585D01*
X0437743Y0299184D02*
X0355700Y0299184D01*
X0355102Y0299782D02*
X0437743Y0299782D01*
X0437743Y0300381D02*
X0284579Y0300381D01*
X0283981Y0299782D02*
X0331582Y0299782D01*
X0330983Y0299184D02*
X0283382Y0299184D01*
X0282784Y0298585D02*
X0330385Y0298585D01*
X0329786Y0297987D02*
X0282185Y0297987D01*
X0281587Y0297388D02*
X0329635Y0297388D01*
X0329635Y0296790D02*
X0280988Y0296790D01*
X0280390Y0296191D02*
X0329635Y0296191D01*
X0329635Y0295593D02*
X0279791Y0295593D01*
X0279193Y0294994D02*
X0329635Y0294994D01*
X0330003Y0294396D02*
X0278594Y0294396D01*
X0277996Y0293797D02*
X0330602Y0293797D01*
X0331200Y0293199D02*
X0277397Y0293199D01*
X0276799Y0292600D02*
X0331799Y0292600D01*
X0332644Y0292002D02*
X0276200Y0292002D01*
X0275602Y0291403D02*
X0332045Y0291403D01*
X0331447Y0290805D02*
X0275003Y0290805D01*
X0274405Y0290206D02*
X0330848Y0290206D01*
X0330250Y0289608D02*
X0273806Y0289608D01*
X0273208Y0289009D02*
X0329651Y0289009D01*
X0329053Y0288411D02*
X0272609Y0288411D01*
X0272011Y0287812D02*
X0328454Y0287812D01*
X0327856Y0287214D02*
X0271412Y0287214D01*
X0270814Y0286615D02*
X0327257Y0286615D01*
X0326659Y0286017D02*
X0270215Y0286017D01*
X0269962Y0285763D02*
X0290499Y0306300D01*
X0291242Y0305557D01*
X0292604Y0304993D01*
X0294079Y0304993D01*
X0295442Y0305557D01*
X0296485Y0306600D01*
X0297049Y0307963D01*
X0297049Y0314637D01*
X0296485Y0316000D01*
X0295442Y0317043D01*
X0294079Y0317607D01*
X0292604Y0317607D01*
X0291242Y0317043D01*
X0290199Y0316000D01*
X0289635Y0314637D01*
X0289635Y0309982D01*
X0286648Y0306995D01*
X0287049Y0307963D01*
X0287049Y0314637D01*
X0286485Y0316000D01*
X0285442Y0317043D01*
X0284079Y0317607D01*
X0282604Y0317607D01*
X0281242Y0317043D01*
X0280199Y0316000D01*
X0279635Y0314637D01*
X0279635Y0307963D01*
X0280199Y0306600D01*
X0281242Y0305557D01*
X0282604Y0304993D01*
X0284079Y0304993D01*
X0285047Y0305394D01*
X0267689Y0288036D01*
X0267689Y0288036D01*
X0266748Y0287095D01*
X0266748Y0284948D01*
X0264635Y0282836D01*
X0264635Y0279764D01*
X0266806Y0277593D01*
X0269877Y0277593D01*
X0272049Y0279764D01*
X0272049Y0282836D01*
X0269962Y0284923D01*
X0269962Y0285763D01*
X0269962Y0285418D02*
X0326060Y0285418D01*
X0325462Y0284820D02*
X0290065Y0284820D01*
X0290663Y0284221D02*
X0324863Y0284221D01*
X0324265Y0283623D02*
X0291262Y0283623D01*
X0286619Y0284820D02*
X0270065Y0284820D01*
X0270663Y0284221D02*
X0286020Y0284221D01*
X0285422Y0283623D02*
X0271262Y0283623D01*
X0271860Y0283024D02*
X0284823Y0283024D01*
X0284635Y0282426D02*
X0272049Y0282426D01*
X0272049Y0281827D02*
X0284635Y0281827D01*
X0284635Y0281229D02*
X0272049Y0281229D01*
X0272049Y0280630D02*
X0284635Y0280630D01*
X0284635Y0280032D02*
X0272049Y0280032D01*
X0271717Y0279433D02*
X0284966Y0279433D01*
X0285565Y0278835D02*
X0271119Y0278835D01*
X0270520Y0278236D02*
X0286163Y0278236D01*
X0286762Y0277638D02*
X0269922Y0277638D01*
X0266762Y0277638D02*
X0176800Y0277638D01*
X0176552Y0278236D02*
X0266163Y0278236D01*
X0265565Y0278835D02*
X0176050Y0278835D01*
X0175451Y0279433D02*
X0264966Y0279433D01*
X0264635Y0280032D02*
X0052642Y0280032D01*
X0052642Y0280630D02*
X0264635Y0280630D01*
X0264635Y0281229D02*
X0052642Y0281229D01*
X0052642Y0281827D02*
X0264635Y0281827D01*
X0264635Y0282426D02*
X0052642Y0282426D01*
X0052642Y0283024D02*
X0264823Y0283024D01*
X0265422Y0283623D02*
X0052642Y0283623D01*
X0052642Y0284221D02*
X0266020Y0284221D01*
X0266619Y0284820D02*
X0052642Y0284820D01*
X0052642Y0285418D02*
X0266748Y0285418D01*
X0266748Y0286017D02*
X0052642Y0286017D01*
X0052642Y0286615D02*
X0266748Y0286615D01*
X0266867Y0287214D02*
X0052642Y0287214D01*
X0052642Y0287812D02*
X0267465Y0287812D01*
X0268064Y0288411D02*
X0052642Y0288411D01*
X0052642Y0289009D02*
X0268662Y0289009D01*
X0269261Y0289608D02*
X0052642Y0289608D01*
X0052642Y0290206D02*
X0269859Y0290206D01*
X0270458Y0290805D02*
X0052642Y0290805D01*
X0052642Y0291403D02*
X0271056Y0291403D01*
X0271655Y0292002D02*
X0052642Y0292002D01*
X0052642Y0292600D02*
X0076799Y0292600D01*
X0076806Y0292593D02*
X0079877Y0292593D01*
X0082049Y0294764D01*
X0082049Y0297836D01*
X0079877Y0300007D01*
X0076806Y0300007D01*
X0074635Y0297836D01*
X0074635Y0294764D01*
X0076806Y0292593D01*
X0076200Y0293199D02*
X0052642Y0293199D01*
X0052642Y0293797D02*
X0075602Y0293797D01*
X0075003Y0294396D02*
X0052642Y0294396D01*
X0052642Y0294994D02*
X0074635Y0294994D01*
X0074635Y0295593D02*
X0052642Y0295593D01*
X0052642Y0296191D02*
X0074635Y0296191D01*
X0074635Y0296790D02*
X0052642Y0296790D01*
X0052642Y0297388D02*
X0074635Y0297388D01*
X0074786Y0297987D02*
X0052642Y0297987D01*
X0052642Y0298585D02*
X0075385Y0298585D01*
X0075983Y0299184D02*
X0052642Y0299184D01*
X0052642Y0299782D02*
X0076582Y0299782D01*
X0080102Y0299782D02*
X0086582Y0299782D01*
X0086806Y0300007D02*
X0084635Y0297836D01*
X0084635Y0294764D01*
X0086806Y0292593D01*
X0089877Y0292593D01*
X0092049Y0294764D01*
X0092049Y0297836D01*
X0089877Y0300007D01*
X0086806Y0300007D01*
X0085983Y0299184D02*
X0080700Y0299184D01*
X0081299Y0298585D02*
X0085385Y0298585D01*
X0084786Y0297987D02*
X0081897Y0297987D01*
X0082049Y0297388D02*
X0084635Y0297388D01*
X0084635Y0296790D02*
X0082049Y0296790D01*
X0082049Y0296191D02*
X0084635Y0296191D01*
X0084635Y0295593D02*
X0082049Y0295593D01*
X0082049Y0294994D02*
X0084635Y0294994D01*
X0085003Y0294396D02*
X0081680Y0294396D01*
X0081082Y0293797D02*
X0085602Y0293797D01*
X0086200Y0293199D02*
X0080483Y0293199D01*
X0079885Y0292600D02*
X0086799Y0292600D01*
X0089885Y0292600D02*
X0206799Y0292600D01*
X0206806Y0292593D02*
X0209877Y0292593D01*
X0212049Y0294764D01*
X0212049Y0296188D01*
X0213476Y0294761D01*
X0224638Y0294761D01*
X0226806Y0292593D01*
X0229877Y0292593D01*
X0232049Y0294764D01*
X0232049Y0297836D01*
X0229877Y0300007D01*
X0226806Y0300007D01*
X0224774Y0297975D01*
X0214808Y0297975D01*
X0211683Y0301100D01*
X0210742Y0302041D01*
X0177219Y0302041D01*
X0177417Y0302521D01*
X0177417Y0310079D01*
X0176797Y0311577D01*
X0175650Y0312724D01*
X0174152Y0313344D01*
X0172531Y0313344D01*
X0171033Y0312724D01*
X0169887Y0311577D01*
X0169266Y0310079D01*
X0169266Y0302521D01*
X0169887Y0301023D01*
X0170676Y0300234D01*
X0166008Y0300234D01*
X0166797Y0301023D01*
X0167417Y0302521D01*
X0167417Y0310079D01*
X0166797Y0311577D01*
X0165650Y0312724D01*
X0164152Y0313344D01*
X0162531Y0313344D01*
X0161033Y0312724D01*
X0159887Y0311577D01*
X0159266Y0310079D01*
X0159266Y0302521D01*
X0159305Y0302428D01*
X0157417Y0304315D01*
X0157417Y0310079D01*
X0156797Y0311577D01*
X0155650Y0312724D01*
X0154152Y0313344D01*
X0152531Y0313344D01*
X0151033Y0312724D01*
X0149887Y0311577D01*
X0149266Y0310079D01*
X0149266Y0302521D01*
X0149887Y0301023D01*
X0151033Y0299876D01*
X0152531Y0299256D01*
X0154152Y0299256D01*
X0155650Y0299876D01*
X0156480Y0300706D01*
X0160167Y0297020D01*
X0175504Y0297020D01*
X0176445Y0297961D01*
X0177311Y0298827D01*
X0205626Y0298827D01*
X0204635Y0297836D01*
X0204635Y0294764D01*
X0206806Y0292593D01*
X0206200Y0293199D02*
X0090483Y0293199D01*
X0091082Y0293797D02*
X0205602Y0293797D01*
X0205003Y0294396D02*
X0091680Y0294396D01*
X0092049Y0294994D02*
X0204635Y0294994D01*
X0204635Y0295593D02*
X0092049Y0295593D01*
X0092049Y0296191D02*
X0204635Y0296191D01*
X0204635Y0296790D02*
X0092049Y0296790D01*
X0092049Y0297388D02*
X0159799Y0297388D01*
X0159200Y0297987D02*
X0091897Y0297987D01*
X0091299Y0298585D02*
X0158602Y0298585D01*
X0158003Y0299184D02*
X0090700Y0299184D01*
X0090102Y0299782D02*
X0151260Y0299782D01*
X0150529Y0300381D02*
X0052642Y0300381D01*
X0052642Y0300979D02*
X0149930Y0300979D01*
X0149657Y0301578D02*
X0052642Y0301578D01*
X0052642Y0302177D02*
X0149409Y0302177D01*
X0149266Y0302775D02*
X0052642Y0302775D01*
X0052642Y0303374D02*
X0149266Y0303374D01*
X0149266Y0303972D02*
X0052642Y0303972D01*
X0052642Y0304571D02*
X0149266Y0304571D01*
X0149266Y0305169D02*
X0052642Y0305169D01*
X0052642Y0305768D02*
X0149266Y0305768D01*
X0149266Y0306366D02*
X0052642Y0306366D01*
X0052642Y0306965D02*
X0149266Y0306965D01*
X0149266Y0307563D02*
X0052642Y0307563D01*
X0052642Y0308162D02*
X0149266Y0308162D01*
X0149266Y0308760D02*
X0052642Y0308760D01*
X0052642Y0309359D02*
X0149266Y0309359D01*
X0149266Y0309957D02*
X0052642Y0309957D01*
X0052642Y0310556D02*
X0055829Y0310556D01*
X0054623Y0311154D02*
X0052642Y0311154D01*
X0052642Y0311753D02*
X0054024Y0311753D01*
X0053426Y0312351D02*
X0052642Y0312351D01*
X0052642Y0312950D02*
X0052945Y0312950D01*
X0052697Y0313548D02*
X0052642Y0313548D01*
X0052642Y0318919D02*
X0052642Y0321961D01*
X0055627Y0321961D01*
X0054791Y0321614D01*
X0053028Y0319851D01*
X0052642Y0318919D01*
X0052642Y0318935D02*
X0052648Y0318935D01*
X0052642Y0319533D02*
X0052896Y0319533D01*
X0052642Y0320132D02*
X0053309Y0320132D01*
X0053907Y0320730D02*
X0052642Y0320730D01*
X0052642Y0321329D02*
X0054506Y0321329D01*
X0055547Y0321927D02*
X0052642Y0321927D01*
X0061136Y0321927D02*
X0425547Y0321927D01*
X0424506Y0321329D02*
X0062178Y0321329D01*
X0062776Y0320730D02*
X0423907Y0320730D01*
X0423309Y0320132D02*
X0063375Y0320132D01*
X0063787Y0319533D02*
X0422896Y0319533D01*
X0422648Y0318935D02*
X0064035Y0318935D01*
X0064283Y0318336D02*
X0422400Y0318336D01*
X0422152Y0317738D02*
X0064531Y0317738D01*
X0064610Y0317139D02*
X0251475Y0317139D01*
X0251242Y0317043D02*
X0250199Y0316000D01*
X0249635Y0314637D01*
X0249635Y0307963D01*
X0250199Y0306600D01*
X0251242Y0305557D01*
X0252604Y0304993D01*
X0254079Y0304993D01*
X0255442Y0305557D01*
X0256485Y0306600D01*
X0257049Y0307963D01*
X0257049Y0314637D01*
X0256485Y0316000D01*
X0255442Y0317043D01*
X0254079Y0317607D01*
X0252604Y0317607D01*
X0251242Y0317043D01*
X0250740Y0316541D02*
X0064610Y0316541D01*
X0064610Y0315942D02*
X0250175Y0315942D01*
X0249927Y0315344D02*
X0064610Y0315344D01*
X0064483Y0314745D02*
X0249679Y0314745D01*
X0249635Y0314147D02*
X0064235Y0314147D01*
X0063987Y0313548D02*
X0249635Y0313548D01*
X0249635Y0312950D02*
X0175105Y0312950D01*
X0176023Y0312351D02*
X0249635Y0312351D01*
X0249635Y0311753D02*
X0176621Y0311753D01*
X0176972Y0311154D02*
X0249635Y0311154D01*
X0249635Y0310556D02*
X0177220Y0310556D01*
X0177417Y0309957D02*
X0249635Y0309957D01*
X0249635Y0309359D02*
X0177417Y0309359D01*
X0177417Y0308760D02*
X0249635Y0308760D01*
X0249635Y0308162D02*
X0177417Y0308162D01*
X0177417Y0307563D02*
X0249800Y0307563D01*
X0250048Y0306965D02*
X0177417Y0306965D01*
X0177417Y0306366D02*
X0250433Y0306366D01*
X0251032Y0305768D02*
X0177417Y0305768D01*
X0177417Y0305169D02*
X0252179Y0305169D01*
X0254504Y0305169D02*
X0262179Y0305169D01*
X0262604Y0304993D02*
X0264079Y0304993D01*
X0265442Y0305557D01*
X0266485Y0306600D01*
X0267049Y0307963D01*
X0267049Y0314637D01*
X0266485Y0316000D01*
X0265442Y0317043D01*
X0264079Y0317607D01*
X0262604Y0317607D01*
X0261242Y0317043D01*
X0260199Y0316000D01*
X0259635Y0314637D01*
X0259635Y0307963D01*
X0260199Y0306600D01*
X0261242Y0305557D01*
X0262604Y0304993D01*
X0261032Y0305768D02*
X0255652Y0305768D01*
X0256250Y0306366D02*
X0260433Y0306366D01*
X0260048Y0306965D02*
X0256635Y0306965D01*
X0256883Y0307563D02*
X0259800Y0307563D01*
X0259635Y0308162D02*
X0257049Y0308162D01*
X0257049Y0308760D02*
X0259635Y0308760D01*
X0259635Y0309359D02*
X0257049Y0309359D01*
X0257049Y0309957D02*
X0259635Y0309957D01*
X0259635Y0310556D02*
X0257049Y0310556D01*
X0257049Y0311154D02*
X0259635Y0311154D01*
X0259635Y0311753D02*
X0257049Y0311753D01*
X0257049Y0312351D02*
X0259635Y0312351D01*
X0259635Y0312950D02*
X0257049Y0312950D01*
X0257049Y0313548D02*
X0259635Y0313548D01*
X0259635Y0314147D02*
X0257049Y0314147D01*
X0257004Y0314745D02*
X0259679Y0314745D01*
X0259927Y0315344D02*
X0256756Y0315344D01*
X0256508Y0315942D02*
X0260175Y0315942D01*
X0260740Y0316541D02*
X0255944Y0316541D01*
X0255209Y0317139D02*
X0261475Y0317139D01*
X0265209Y0317139D02*
X0271475Y0317139D01*
X0271242Y0317043D02*
X0270199Y0316000D01*
X0269635Y0314637D01*
X0269635Y0307963D01*
X0270199Y0306600D01*
X0271242Y0305557D01*
X0272604Y0304993D01*
X0274079Y0304993D01*
X0275442Y0305557D01*
X0276485Y0306600D01*
X0277049Y0307963D01*
X0277049Y0314637D01*
X0276485Y0316000D01*
X0275442Y0317043D01*
X0274079Y0317607D01*
X0272604Y0317607D01*
X0271242Y0317043D01*
X0270740Y0316541D02*
X0265944Y0316541D01*
X0266508Y0315942D02*
X0270175Y0315942D01*
X0269927Y0315344D02*
X0266756Y0315344D01*
X0267004Y0314745D02*
X0269679Y0314745D01*
X0269635Y0314147D02*
X0267049Y0314147D01*
X0267049Y0313548D02*
X0269635Y0313548D01*
X0269635Y0312950D02*
X0267049Y0312950D01*
X0267049Y0312351D02*
X0269635Y0312351D01*
X0269635Y0311753D02*
X0267049Y0311753D01*
X0267049Y0311154D02*
X0269635Y0311154D01*
X0269635Y0310556D02*
X0267049Y0310556D01*
X0267049Y0309957D02*
X0269635Y0309957D01*
X0269635Y0309359D02*
X0267049Y0309359D01*
X0267049Y0308760D02*
X0269635Y0308760D01*
X0269635Y0308162D02*
X0267049Y0308162D01*
X0266883Y0307563D02*
X0269800Y0307563D01*
X0270048Y0306965D02*
X0266635Y0306965D01*
X0266250Y0306366D02*
X0270433Y0306366D01*
X0271032Y0305768D02*
X0265652Y0305768D01*
X0264504Y0305169D02*
X0272179Y0305169D01*
X0274504Y0305169D02*
X0282179Y0305169D01*
X0281032Y0305768D02*
X0275652Y0305768D01*
X0276250Y0306366D02*
X0280433Y0306366D01*
X0280048Y0306965D02*
X0276635Y0306965D01*
X0276883Y0307563D02*
X0279800Y0307563D01*
X0279635Y0308162D02*
X0277049Y0308162D01*
X0277049Y0308760D02*
X0279635Y0308760D01*
X0279635Y0309359D02*
X0277049Y0309359D01*
X0277049Y0309957D02*
X0279635Y0309957D01*
X0279635Y0310556D02*
X0277049Y0310556D01*
X0277049Y0311154D02*
X0279635Y0311154D01*
X0279635Y0311753D02*
X0277049Y0311753D01*
X0277049Y0312351D02*
X0279635Y0312351D01*
X0279635Y0312950D02*
X0277049Y0312950D01*
X0277049Y0313548D02*
X0279635Y0313548D01*
X0279635Y0314147D02*
X0277049Y0314147D01*
X0277004Y0314745D02*
X0279679Y0314745D01*
X0279927Y0315344D02*
X0276756Y0315344D01*
X0276508Y0315942D02*
X0280175Y0315942D01*
X0280740Y0316541D02*
X0275944Y0316541D01*
X0275209Y0317139D02*
X0281475Y0317139D01*
X0285209Y0317139D02*
X0291475Y0317139D01*
X0290740Y0316541D02*
X0285944Y0316541D01*
X0286508Y0315942D02*
X0290175Y0315942D01*
X0289927Y0315344D02*
X0286756Y0315344D01*
X0287004Y0314745D02*
X0289679Y0314745D01*
X0289635Y0314147D02*
X0287049Y0314147D01*
X0287049Y0313548D02*
X0289635Y0313548D01*
X0289635Y0312950D02*
X0287049Y0312950D01*
X0287049Y0312351D02*
X0289635Y0312351D01*
X0289635Y0311753D02*
X0287049Y0311753D01*
X0287049Y0311154D02*
X0289635Y0311154D01*
X0289635Y0310556D02*
X0287049Y0310556D01*
X0287049Y0309957D02*
X0289610Y0309957D01*
X0289012Y0309359D02*
X0287049Y0309359D01*
X0287049Y0308760D02*
X0288413Y0308760D01*
X0287815Y0308162D02*
X0287049Y0308162D01*
X0286883Y0307563D02*
X0287216Y0307563D01*
X0289367Y0305169D02*
X0292179Y0305169D01*
X0291032Y0305768D02*
X0289966Y0305768D01*
X0288769Y0304571D02*
X0437743Y0304571D01*
X0437743Y0305169D02*
X0294504Y0305169D01*
X0295652Y0305768D02*
X0437743Y0305768D01*
X0437743Y0306366D02*
X0296250Y0306366D01*
X0296635Y0306965D02*
X0437743Y0306965D01*
X0437743Y0307563D02*
X0296883Y0307563D01*
X0297049Y0308162D02*
X0437743Y0308162D01*
X0437743Y0308760D02*
X0297049Y0308760D01*
X0297049Y0309359D02*
X0437743Y0309359D01*
X0437743Y0309957D02*
X0297049Y0309957D01*
X0297049Y0310556D02*
X0425829Y0310556D01*
X0424623Y0311154D02*
X0297049Y0311154D01*
X0297049Y0311753D02*
X0424024Y0311753D01*
X0423426Y0312351D02*
X0297049Y0312351D01*
X0297049Y0312950D02*
X0422945Y0312950D01*
X0422697Y0313548D02*
X0297049Y0313548D01*
X0297049Y0314147D02*
X0422449Y0314147D01*
X0422201Y0314745D02*
X0297004Y0314745D01*
X0296756Y0315344D02*
X0422073Y0315344D01*
X0422073Y0315942D02*
X0296508Y0315942D01*
X0295944Y0316541D02*
X0422073Y0316541D01*
X0422073Y0317139D02*
X0295209Y0317139D01*
X0284822Y0305169D02*
X0284504Y0305169D01*
X0284223Y0304571D02*
X0177417Y0304571D01*
X0177417Y0303972D02*
X0283625Y0303972D01*
X0283026Y0303374D02*
X0177417Y0303374D01*
X0177417Y0302775D02*
X0282428Y0302775D01*
X0281829Y0302177D02*
X0177275Y0302177D01*
X0177069Y0298585D02*
X0205385Y0298585D01*
X0204786Y0297987D02*
X0176471Y0297987D01*
X0175872Y0297388D02*
X0204635Y0297388D01*
X0209885Y0292600D02*
X0226799Y0292600D01*
X0226200Y0293199D02*
X0210483Y0293199D01*
X0211082Y0293797D02*
X0225602Y0293797D01*
X0225003Y0294396D02*
X0211680Y0294396D01*
X0212049Y0294994D02*
X0213243Y0294994D01*
X0212644Y0295593D02*
X0212049Y0295593D01*
X0214796Y0297987D02*
X0224786Y0297987D01*
X0225385Y0298585D02*
X0214197Y0298585D01*
X0213599Y0299184D02*
X0225983Y0299184D01*
X0226582Y0299782D02*
X0213000Y0299782D01*
X0212402Y0300381D02*
X0280034Y0300381D01*
X0280632Y0300979D02*
X0211803Y0300979D01*
X0211205Y0301578D02*
X0281231Y0301578D01*
X0279435Y0299782D02*
X0230102Y0299782D01*
X0230700Y0299184D02*
X0278837Y0299184D01*
X0278238Y0298585D02*
X0231299Y0298585D01*
X0231897Y0297987D02*
X0277640Y0297987D01*
X0277041Y0297388D02*
X0232049Y0297388D01*
X0232049Y0296790D02*
X0276443Y0296790D01*
X0275844Y0296191D02*
X0232049Y0296191D01*
X0232049Y0295593D02*
X0275246Y0295593D01*
X0274647Y0294994D02*
X0232049Y0294994D01*
X0231680Y0294396D02*
X0274049Y0294396D01*
X0273450Y0293797D02*
X0231082Y0293797D01*
X0230483Y0293199D02*
X0272852Y0293199D01*
X0272253Y0292600D02*
X0229885Y0292600D01*
X0201340Y0266266D02*
X0437743Y0266266D01*
X0437743Y0266864D02*
X0200741Y0266864D01*
X0200143Y0267463D02*
X0437743Y0267463D01*
X0437743Y0268061D02*
X0199544Y0268061D01*
X0198946Y0268660D02*
X0437743Y0268660D01*
X0437743Y0269258D02*
X0198347Y0269258D01*
X0197749Y0269857D02*
X0437743Y0269857D01*
X0437743Y0270455D02*
X0197150Y0270455D01*
X0196552Y0271054D02*
X0437743Y0271054D01*
X0437743Y0271652D02*
X0195953Y0271652D01*
X0201938Y0265667D02*
X0437743Y0265667D01*
X0437743Y0265069D02*
X0202537Y0265069D01*
X0203135Y0264470D02*
X0437743Y0264470D01*
X0437743Y0263872D02*
X0203734Y0263872D01*
X0204332Y0263273D02*
X0437743Y0263273D01*
X0437743Y0262675D02*
X0204931Y0262675D01*
X0205529Y0262076D02*
X0437743Y0262076D01*
X0437743Y0261478D02*
X0206128Y0261478D01*
X0206726Y0260879D02*
X0437743Y0260879D01*
X0437743Y0260281D02*
X0207325Y0260281D01*
X0207923Y0259682D02*
X0251481Y0259682D01*
X0250883Y0259084D02*
X0208522Y0259084D01*
X0209120Y0258485D02*
X0250284Y0258485D01*
X0249635Y0254894D02*
X0207049Y0254894D01*
X0207049Y0255493D02*
X0207567Y0255493D01*
X0206580Y0254296D02*
X0250104Y0254296D01*
X0250702Y0253697D02*
X0205981Y0253697D01*
X0205383Y0253099D02*
X0251301Y0253099D01*
X0255383Y0253099D02*
X0291301Y0253099D01*
X0291806Y0252593D02*
X0294877Y0252593D01*
X0297049Y0254764D01*
X0297049Y0257836D01*
X0294877Y0260007D01*
X0291806Y0260007D01*
X0289635Y0257836D01*
X0289635Y0254764D01*
X0291806Y0252593D01*
X0290702Y0253697D02*
X0255981Y0253697D01*
X0256580Y0254296D02*
X0290104Y0254296D01*
X0289635Y0254894D02*
X0257049Y0254894D01*
X0257049Y0255493D02*
X0289635Y0255493D01*
X0289635Y0256091D02*
X0257049Y0256091D01*
X0257049Y0256690D02*
X0289635Y0256690D01*
X0289635Y0257288D02*
X0257049Y0257288D01*
X0256998Y0257887D02*
X0289686Y0257887D01*
X0290284Y0258485D02*
X0256399Y0258485D01*
X0255801Y0259084D02*
X0290883Y0259084D01*
X0291481Y0259682D02*
X0255202Y0259682D01*
X0295202Y0259682D02*
X0341481Y0259682D01*
X0341806Y0260007D02*
X0339635Y0257836D01*
X0339635Y0254764D01*
X0341806Y0252593D01*
X0344877Y0252593D01*
X0347049Y0254764D01*
X0347049Y0257836D01*
X0344877Y0260007D01*
X0341806Y0260007D01*
X0340883Y0259084D02*
X0295801Y0259084D01*
X0296399Y0258485D02*
X0340284Y0258485D01*
X0339686Y0257887D02*
X0296998Y0257887D01*
X0297049Y0257288D02*
X0339635Y0257288D01*
X0339635Y0256690D02*
X0297049Y0256690D01*
X0297049Y0256091D02*
X0339635Y0256091D01*
X0339635Y0255493D02*
X0297049Y0255493D01*
X0297049Y0254894D02*
X0339635Y0254894D01*
X0340104Y0254296D02*
X0296580Y0254296D01*
X0295981Y0253697D02*
X0340702Y0253697D01*
X0341301Y0253099D02*
X0295383Y0253099D01*
X0345383Y0253099D02*
X0371301Y0253099D01*
X0371806Y0252593D02*
X0374877Y0252593D01*
X0377049Y0254764D01*
X0377049Y0257836D01*
X0374877Y0260007D01*
X0371806Y0260007D01*
X0369635Y0257836D01*
X0369635Y0254764D01*
X0371806Y0252593D01*
X0370702Y0253697D02*
X0345981Y0253697D01*
X0346580Y0254296D02*
X0370104Y0254296D01*
X0369635Y0254894D02*
X0347049Y0254894D01*
X0347049Y0255493D02*
X0369635Y0255493D01*
X0369635Y0256091D02*
X0347049Y0256091D01*
X0347049Y0256690D02*
X0369635Y0256690D01*
X0369635Y0257288D02*
X0347049Y0257288D01*
X0346998Y0257887D02*
X0369686Y0257887D01*
X0370284Y0258485D02*
X0346399Y0258485D01*
X0345801Y0259084D02*
X0370883Y0259084D01*
X0371481Y0259682D02*
X0345202Y0259682D01*
X0375202Y0259682D02*
X0421481Y0259682D01*
X0421806Y0260007D02*
X0419635Y0257836D01*
X0419635Y0254764D01*
X0421806Y0252593D01*
X0424877Y0252593D01*
X0427049Y0254764D01*
X0427049Y0257836D01*
X0424877Y0260007D01*
X0421806Y0260007D01*
X0420883Y0259084D02*
X0375801Y0259084D01*
X0376399Y0258485D02*
X0420284Y0258485D01*
X0419686Y0257887D02*
X0376998Y0257887D01*
X0377049Y0257288D02*
X0419635Y0257288D01*
X0419635Y0256690D02*
X0377049Y0256690D01*
X0377049Y0256091D02*
X0419635Y0256091D01*
X0419635Y0255493D02*
X0377049Y0255493D01*
X0377049Y0254894D02*
X0419635Y0254894D01*
X0420104Y0254296D02*
X0376580Y0254296D01*
X0375981Y0253697D02*
X0420702Y0253697D01*
X0421301Y0253099D02*
X0375383Y0253099D01*
X0425383Y0253099D02*
X0437743Y0253099D01*
X0437743Y0253697D02*
X0425981Y0253697D01*
X0426580Y0254296D02*
X0437743Y0254296D01*
X0437743Y0254894D02*
X0427049Y0254894D01*
X0427049Y0255493D02*
X0437743Y0255493D01*
X0437743Y0256091D02*
X0427049Y0256091D01*
X0427049Y0256690D02*
X0437743Y0256690D01*
X0437743Y0257288D02*
X0427049Y0257288D01*
X0426998Y0257887D02*
X0437743Y0257887D01*
X0437743Y0258485D02*
X0426399Y0258485D01*
X0425801Y0259084D02*
X0437743Y0259084D01*
X0437743Y0259682D02*
X0425202Y0259682D01*
X0437743Y0300979D02*
X0285178Y0300979D01*
X0285776Y0301578D02*
X0437743Y0301578D01*
X0437743Y0302177D02*
X0286375Y0302177D01*
X0286973Y0302775D02*
X0437743Y0302775D01*
X0437743Y0303374D02*
X0287572Y0303374D01*
X0288170Y0303972D02*
X0437743Y0303972D01*
X0437743Y0310556D02*
X0430854Y0310556D01*
X0432061Y0311154D02*
X0437743Y0311154D01*
X0437743Y0311753D02*
X0432659Y0311753D01*
X0433258Y0312351D02*
X0437743Y0312351D01*
X0437743Y0312950D02*
X0433739Y0312950D01*
X0433987Y0313548D02*
X0437743Y0313548D01*
X0437743Y0314147D02*
X0434235Y0314147D01*
X0434483Y0314745D02*
X0437743Y0314745D01*
X0437743Y0315344D02*
X0434610Y0315344D01*
X0434610Y0315942D02*
X0437743Y0315942D01*
X0437743Y0316541D02*
X0434610Y0316541D01*
X0434610Y0317139D02*
X0437743Y0317139D01*
X0437743Y0317738D02*
X0434531Y0317738D01*
X0434283Y0318336D02*
X0437743Y0318336D01*
X0437743Y0318935D02*
X0434035Y0318935D01*
X0433787Y0319533D02*
X0437743Y0319533D01*
X0437743Y0320132D02*
X0433375Y0320132D01*
X0432776Y0320730D02*
X0437743Y0320730D01*
X0437743Y0321329D02*
X0432178Y0321329D01*
X0431136Y0321927D02*
X0437743Y0321927D01*
X0448342Y0331504D02*
X0028342Y0331504D01*
X0028342Y0332102D02*
X0448342Y0332102D01*
X0448342Y0332701D02*
X0028342Y0332701D01*
X0028342Y0333299D02*
X0448342Y0333299D01*
X0448342Y0333898D02*
X0028342Y0333898D01*
X0028342Y0334496D02*
X0448342Y0334496D01*
X0448342Y0335095D02*
X0028342Y0335095D01*
X0028342Y0335693D02*
X0448342Y0335693D01*
X0448342Y0336292D02*
X0028342Y0336292D01*
X0060854Y0310556D02*
X0149464Y0310556D01*
X0149712Y0311154D02*
X0062061Y0311154D01*
X0062659Y0311753D02*
X0150062Y0311753D01*
X0150661Y0312351D02*
X0063258Y0312351D01*
X0063739Y0312950D02*
X0151579Y0312950D01*
X0155105Y0312950D02*
X0161579Y0312950D01*
X0160661Y0312351D02*
X0156023Y0312351D01*
X0156621Y0311753D02*
X0160062Y0311753D01*
X0159712Y0311154D02*
X0156972Y0311154D01*
X0157220Y0310556D02*
X0159464Y0310556D01*
X0159266Y0309957D02*
X0157417Y0309957D01*
X0157417Y0309359D02*
X0159266Y0309359D01*
X0159266Y0308760D02*
X0157417Y0308760D01*
X0157417Y0308162D02*
X0159266Y0308162D01*
X0159266Y0307563D02*
X0157417Y0307563D01*
X0157417Y0306965D02*
X0159266Y0306965D01*
X0159266Y0306366D02*
X0157417Y0306366D01*
X0157417Y0305768D02*
X0159266Y0305768D01*
X0159266Y0305169D02*
X0157417Y0305169D01*
X0157417Y0304571D02*
X0159266Y0304571D01*
X0159266Y0303972D02*
X0157760Y0303972D01*
X0158359Y0303374D02*
X0159266Y0303374D01*
X0159266Y0302775D02*
X0158957Y0302775D01*
X0156806Y0300381D02*
X0156155Y0300381D01*
X0155424Y0299782D02*
X0157404Y0299782D01*
X0166155Y0300381D02*
X0170529Y0300381D01*
X0169930Y0300979D02*
X0166754Y0300979D01*
X0167027Y0301578D02*
X0169657Y0301578D01*
X0169409Y0302177D02*
X0167275Y0302177D01*
X0167417Y0302775D02*
X0169266Y0302775D01*
X0169266Y0303374D02*
X0167417Y0303374D01*
X0167417Y0303972D02*
X0169266Y0303972D01*
X0169266Y0304571D02*
X0167417Y0304571D01*
X0167417Y0305169D02*
X0169266Y0305169D01*
X0169266Y0305768D02*
X0167417Y0305768D01*
X0167417Y0306366D02*
X0169266Y0306366D01*
X0169266Y0306965D02*
X0167417Y0306965D01*
X0167417Y0307563D02*
X0169266Y0307563D01*
X0169266Y0308162D02*
X0167417Y0308162D01*
X0167417Y0308760D02*
X0169266Y0308760D01*
X0169266Y0309359D02*
X0167417Y0309359D01*
X0167417Y0309957D02*
X0169266Y0309957D01*
X0169464Y0310556D02*
X0167220Y0310556D01*
X0166972Y0311154D02*
X0169712Y0311154D01*
X0170062Y0311753D02*
X0166621Y0311753D01*
X0166023Y0312351D02*
X0170661Y0312351D01*
X0171579Y0312950D02*
X0165105Y0312950D01*
X0165451Y0279433D02*
X0171232Y0279433D01*
X0170634Y0278835D02*
X0166050Y0278835D01*
X0166552Y0278236D02*
X0170131Y0278236D01*
X0169883Y0277638D02*
X0166800Y0277638D01*
X0167048Y0277039D02*
X0169635Y0277039D01*
X0169635Y0276441D02*
X0167049Y0276441D01*
X0167049Y0275842D02*
X0169635Y0275842D01*
X0169767Y0275243D02*
X0166917Y0275243D01*
X0166669Y0274645D02*
X0170015Y0274645D01*
X0170353Y0274046D02*
X0166331Y0274046D01*
X0160353Y0274046D02*
X0157869Y0274046D01*
X0157271Y0274645D02*
X0160015Y0274645D01*
X0159767Y0275243D02*
X0156917Y0275243D01*
X0157049Y0275842D02*
X0159635Y0275842D01*
X0159635Y0276441D02*
X0157049Y0276441D01*
X0157048Y0277039D02*
X0159635Y0277039D01*
X0159883Y0277638D02*
X0156800Y0277638D01*
X0156552Y0278236D02*
X0160131Y0278236D01*
X0160634Y0278835D02*
X0156050Y0278835D01*
X0155451Y0279433D02*
X0161232Y0279433D01*
X0155119Y0272251D02*
X0149726Y0272251D01*
X0150324Y0271652D02*
X0155718Y0271652D01*
X0156316Y0271054D02*
X0150923Y0271054D01*
X0151521Y0270455D02*
X0156915Y0270455D01*
X0151985Y0272849D02*
X0149127Y0272849D01*
X0148529Y0273448D02*
X0150951Y0273448D01*
X0150353Y0274046D02*
X0147930Y0274046D01*
X0147332Y0274645D02*
X0150015Y0274645D01*
X0149767Y0275243D02*
X0146917Y0275243D01*
X0147049Y0275842D02*
X0149635Y0275842D01*
X0149635Y0276441D02*
X0147049Y0276441D01*
X0147048Y0277039D02*
X0149635Y0277039D01*
X0149883Y0277638D02*
X0146800Y0277638D01*
X0146552Y0278236D02*
X0150131Y0278236D01*
X0150634Y0278835D02*
X0146050Y0278835D01*
X0145451Y0279433D02*
X0151232Y0279433D01*
X0145180Y0272251D02*
X0052642Y0272251D01*
X0052642Y0272849D02*
X0141985Y0272849D01*
X0140951Y0273448D02*
X0052642Y0273448D01*
X0052642Y0274046D02*
X0140353Y0274046D01*
X0140015Y0274645D02*
X0052642Y0274645D01*
X0052642Y0275243D02*
X0139767Y0275243D01*
X0139635Y0275842D02*
X0052642Y0275842D01*
X0052642Y0276441D02*
X0139635Y0276441D01*
X0139635Y0277039D02*
X0052642Y0277039D01*
X0052642Y0277638D02*
X0139883Y0277638D01*
X0140131Y0278236D02*
X0052642Y0278236D01*
X0052642Y0278835D02*
X0140634Y0278835D01*
X0141232Y0279433D02*
X0052642Y0279433D01*
X0052642Y0271652D02*
X0145779Y0271652D01*
X0146377Y0271054D02*
X0052642Y0271054D01*
X0052642Y0270455D02*
X0146976Y0270455D01*
X0147574Y0269857D02*
X0120028Y0269857D01*
X0119877Y0270007D02*
X0116806Y0270007D01*
X0114635Y0267836D01*
X0114635Y0264764D01*
X0116806Y0262593D01*
X0119877Y0262593D01*
X0122049Y0264764D01*
X0122049Y0267836D01*
X0119877Y0270007D01*
X0120626Y0269258D02*
X0148173Y0269258D01*
X0148771Y0268660D02*
X0121225Y0268660D01*
X0121823Y0268061D02*
X0149370Y0268061D01*
X0149968Y0267463D02*
X0122049Y0267463D01*
X0122049Y0266864D02*
X0150567Y0266864D01*
X0151165Y0266266D02*
X0122049Y0266266D01*
X0122049Y0265667D02*
X0151764Y0265667D01*
X0152362Y0265069D02*
X0122049Y0265069D01*
X0121755Y0264470D02*
X0152961Y0264470D01*
X0153559Y0263872D02*
X0121156Y0263872D01*
X0120558Y0263273D02*
X0154158Y0263273D01*
X0154756Y0262675D02*
X0119959Y0262675D01*
X0116724Y0262675D02*
X0069959Y0262675D01*
X0069877Y0262593D02*
X0072049Y0264764D01*
X0072049Y0267836D01*
X0069877Y0270007D01*
X0066806Y0270007D01*
X0064635Y0267836D01*
X0064635Y0264764D01*
X0066806Y0262593D01*
X0069877Y0262593D01*
X0070558Y0263273D02*
X0116126Y0263273D01*
X0115527Y0263872D02*
X0071156Y0263872D01*
X0071755Y0264470D02*
X0114929Y0264470D01*
X0114635Y0265069D02*
X0072049Y0265069D01*
X0072049Y0265667D02*
X0114635Y0265667D01*
X0114635Y0266266D02*
X0072049Y0266266D01*
X0072049Y0266864D02*
X0114635Y0266864D01*
X0114635Y0267463D02*
X0072049Y0267463D01*
X0071823Y0268061D02*
X0114861Y0268061D01*
X0115459Y0268660D02*
X0071225Y0268660D01*
X0070626Y0269258D02*
X0116058Y0269258D01*
X0116656Y0269857D02*
X0070028Y0269857D01*
X0066656Y0269857D02*
X0052642Y0269857D01*
X0052642Y0269258D02*
X0066058Y0269258D01*
X0065459Y0268660D02*
X0052642Y0268660D01*
X0052642Y0268061D02*
X0064861Y0268061D01*
X0064635Y0267463D02*
X0052642Y0267463D01*
X0052642Y0266864D02*
X0064635Y0266864D01*
X0064635Y0266266D02*
X0052642Y0266266D01*
X0052642Y0265667D02*
X0064635Y0265667D01*
X0064635Y0265069D02*
X0052642Y0265069D01*
X0052642Y0264470D02*
X0064929Y0264470D01*
X0065527Y0263872D02*
X0052642Y0263872D01*
X0052642Y0263273D02*
X0066126Y0263273D01*
X0066724Y0262675D02*
X0052642Y0262675D01*
X0052642Y0262076D02*
X0155355Y0262076D01*
X0155953Y0261478D02*
X0052642Y0261478D01*
X0052642Y0260879D02*
X0156552Y0260879D01*
X0157150Y0260281D02*
X0052642Y0260281D01*
X0052642Y0259682D02*
X0157749Y0259682D01*
X0158347Y0259084D02*
X0052642Y0259084D01*
X0052642Y0258485D02*
X0158946Y0258485D01*
X0159544Y0257887D02*
X0052642Y0257887D01*
X0052642Y0257288D02*
X0160143Y0257288D01*
X0160741Y0256690D02*
X0052642Y0256690D01*
X0052642Y0256091D02*
X0161340Y0256091D01*
X0161938Y0255493D02*
X0052642Y0255493D01*
X0052642Y0254894D02*
X0162537Y0254894D01*
X0163135Y0254296D02*
X0052642Y0254296D01*
X0052642Y0253697D02*
X0163734Y0253697D01*
X0164332Y0253099D02*
X0052642Y0253099D01*
X0052642Y0252500D02*
X0164931Y0252500D01*
X0165530Y0251902D02*
X0052642Y0251902D01*
X0052642Y0251303D02*
X0166128Y0251303D01*
X0166727Y0250705D02*
X0052642Y0250705D01*
X0052642Y0250106D02*
X0167325Y0250106D01*
X0167924Y0249508D02*
X0165285Y0249508D01*
X0165442Y0249443D02*
X0164079Y0250007D01*
X0162604Y0250007D01*
X0161242Y0249443D01*
X0160199Y0248400D01*
X0159635Y0247037D01*
X0159635Y0245563D01*
X0160199Y0244200D01*
X0161242Y0243157D01*
X0162604Y0242593D01*
X0164079Y0242593D01*
X0165442Y0243157D01*
X0166485Y0244200D01*
X0167049Y0245563D01*
X0167049Y0247037D01*
X0166485Y0248400D01*
X0165442Y0249443D01*
X0165975Y0248909D02*
X0168522Y0248909D01*
X0169121Y0248310D02*
X0166522Y0248310D01*
X0166769Y0247712D02*
X0169719Y0247712D01*
X0169666Y0247113D02*
X0167017Y0247113D01*
X0167049Y0246515D02*
X0169635Y0246515D01*
X0169635Y0245916D02*
X0167049Y0245916D01*
X0166948Y0245318D02*
X0169736Y0245318D01*
X0169984Y0244719D02*
X0166700Y0244719D01*
X0166405Y0244121D02*
X0170278Y0244121D01*
X0170877Y0243522D02*
X0165807Y0243522D01*
X0164878Y0242924D02*
X0171805Y0242924D01*
X0161805Y0242924D02*
X0154878Y0242924D01*
X0155442Y0243157D02*
X0156485Y0244200D01*
X0157049Y0245563D01*
X0157049Y0247037D01*
X0156485Y0248400D01*
X0155442Y0249443D01*
X0154079Y0250007D01*
X0152604Y0250007D01*
X0151242Y0249443D01*
X0150199Y0248400D01*
X0149635Y0247037D01*
X0149635Y0245563D01*
X0150199Y0244200D01*
X0151242Y0243157D01*
X0152604Y0242593D01*
X0154079Y0242593D01*
X0155442Y0243157D01*
X0155807Y0243522D02*
X0160877Y0243522D01*
X0160278Y0244121D02*
X0156405Y0244121D01*
X0156700Y0244719D02*
X0159984Y0244719D01*
X0159736Y0245318D02*
X0156948Y0245318D01*
X0157049Y0245916D02*
X0159635Y0245916D01*
X0159635Y0246515D02*
X0157049Y0246515D01*
X0157017Y0247113D02*
X0159666Y0247113D01*
X0159914Y0247712D02*
X0156769Y0247712D01*
X0156522Y0248310D02*
X0160162Y0248310D01*
X0160708Y0248909D02*
X0155975Y0248909D01*
X0155285Y0249508D02*
X0161398Y0249508D01*
X0151398Y0249508D02*
X0145285Y0249508D01*
X0145442Y0249443D02*
X0144079Y0250007D01*
X0142604Y0250007D01*
X0141242Y0249443D01*
X0140199Y0248400D01*
X0139635Y0247037D01*
X0139635Y0245563D01*
X0140199Y0244200D01*
X0141242Y0243157D01*
X0142604Y0242593D01*
X0144079Y0242593D01*
X0145442Y0243157D01*
X0146485Y0244200D01*
X0147049Y0245563D01*
X0147049Y0247037D01*
X0146485Y0248400D01*
X0145442Y0249443D01*
X0145975Y0248909D02*
X0150708Y0248909D01*
X0150162Y0248310D02*
X0146522Y0248310D01*
X0146769Y0247712D02*
X0149914Y0247712D01*
X0149666Y0247113D02*
X0147017Y0247113D01*
X0147049Y0246515D02*
X0149635Y0246515D01*
X0149635Y0245916D02*
X0147049Y0245916D01*
X0146948Y0245318D02*
X0149736Y0245318D01*
X0149984Y0244719D02*
X0146700Y0244719D01*
X0146405Y0244121D02*
X0150278Y0244121D01*
X0150877Y0243522D02*
X0145807Y0243522D01*
X0144878Y0242924D02*
X0151805Y0242924D01*
X0141805Y0242924D02*
X0052642Y0242924D01*
X0052642Y0243522D02*
X0140877Y0243522D01*
X0140278Y0244121D02*
X0052642Y0244121D01*
X0052642Y0244719D02*
X0139984Y0244719D01*
X0139736Y0245318D02*
X0052642Y0245318D01*
X0052642Y0245916D02*
X0139635Y0245916D01*
X0139635Y0246515D02*
X0052642Y0246515D01*
X0052642Y0247113D02*
X0139666Y0247113D01*
X0139914Y0247712D02*
X0052642Y0247712D01*
X0052642Y0248310D02*
X0140162Y0248310D01*
X0140708Y0248909D02*
X0052642Y0248909D01*
X0052642Y0249508D02*
X0141398Y0249508D01*
X0204990Y0202225D02*
X0228702Y0202225D01*
X0229426Y0202525D02*
X0227210Y0201607D01*
X0225515Y0199912D01*
X0224597Y0197696D01*
X0224597Y0195298D01*
X0225515Y0193082D01*
X0227210Y0191386D01*
X0229426Y0190469D01*
X0231824Y0190469D01*
X0234040Y0191386D01*
X0235736Y0193082D01*
X0236531Y0195001D01*
X0237326Y0193082D01*
X0239022Y0191386D01*
X0241237Y0190469D01*
X0243635Y0190469D01*
X0245851Y0191386D01*
X0247547Y0193082D01*
X0248342Y0195001D01*
X0249137Y0193082D01*
X0250833Y0191386D01*
X0253048Y0190469D01*
X0255446Y0190469D01*
X0257662Y0191386D01*
X0259358Y0193082D01*
X0260276Y0195298D01*
X0260276Y0197696D01*
X0259358Y0199912D01*
X0257662Y0201607D01*
X0255446Y0202525D01*
X0253048Y0202525D01*
X0250833Y0201607D01*
X0249137Y0199912D01*
X0248342Y0197992D01*
X0247547Y0199912D01*
X0245851Y0201607D01*
X0243635Y0202525D01*
X0241237Y0202525D01*
X0239022Y0201607D01*
X0237326Y0199912D01*
X0236531Y0197992D01*
X0235736Y0199912D01*
X0234040Y0201607D01*
X0231824Y0202525D01*
X0229426Y0202525D01*
X0227257Y0201627D02*
X0206435Y0201627D01*
X0207060Y0201028D02*
X0226631Y0201028D01*
X0226033Y0200430D02*
X0207659Y0200430D01*
X0208210Y0199831D02*
X0225481Y0199831D01*
X0225233Y0199233D02*
X0208458Y0199233D01*
X0208706Y0198634D02*
X0224985Y0198634D01*
X0224738Y0198036D02*
X0208954Y0198036D01*
X0209095Y0197437D02*
X0224597Y0197437D01*
X0224597Y0196839D02*
X0209095Y0196839D01*
X0209095Y0196240D02*
X0224597Y0196240D01*
X0224597Y0195641D02*
X0209095Y0195641D01*
X0208989Y0195043D02*
X0224702Y0195043D01*
X0224950Y0194444D02*
X0208741Y0194444D01*
X0208493Y0193846D02*
X0225198Y0193846D01*
X0225446Y0193247D02*
X0208245Y0193247D01*
X0207744Y0192649D02*
X0225948Y0192649D01*
X0226546Y0192050D02*
X0207145Y0192050D01*
X0206547Y0191452D02*
X0227145Y0191452D01*
X0228497Y0190853D02*
X0205195Y0190853D01*
X0232754Y0190853D02*
X0240308Y0190853D01*
X0238956Y0191452D02*
X0234106Y0191452D01*
X0234704Y0192050D02*
X0238357Y0192050D01*
X0237759Y0192649D02*
X0235303Y0192649D01*
X0235804Y0193247D02*
X0237257Y0193247D01*
X0237009Y0193846D02*
X0236052Y0193846D01*
X0236300Y0194444D02*
X0236761Y0194444D01*
X0236549Y0198036D02*
X0236513Y0198036D01*
X0236265Y0198634D02*
X0236797Y0198634D01*
X0237044Y0199233D02*
X0236017Y0199233D01*
X0235769Y0199831D02*
X0237292Y0199831D01*
X0237844Y0200430D02*
X0235218Y0200430D01*
X0234619Y0201028D02*
X0238442Y0201028D01*
X0239068Y0201627D02*
X0233994Y0201627D01*
X0232549Y0202225D02*
X0240513Y0202225D01*
X0244360Y0202225D02*
X0252324Y0202225D01*
X0250879Y0201627D02*
X0245805Y0201627D01*
X0246430Y0201028D02*
X0250253Y0201028D01*
X0249655Y0200430D02*
X0247029Y0200430D01*
X0247580Y0199831D02*
X0249103Y0199831D01*
X0248855Y0199233D02*
X0247828Y0199233D01*
X0248076Y0198634D02*
X0248608Y0198634D01*
X0248360Y0198036D02*
X0248324Y0198036D01*
X0248111Y0194444D02*
X0248572Y0194444D01*
X0248820Y0193846D02*
X0247863Y0193846D01*
X0247615Y0193247D02*
X0249068Y0193247D01*
X0249570Y0192649D02*
X0247114Y0192649D01*
X0246515Y0192050D02*
X0250168Y0192050D01*
X0250767Y0191452D02*
X0245917Y0191452D01*
X0244565Y0190853D02*
X0252119Y0190853D01*
X0256376Y0190853D02*
X0437743Y0190853D01*
X0437743Y0191452D02*
X0257728Y0191452D01*
X0258326Y0192050D02*
X0437743Y0192050D01*
X0437743Y0192649D02*
X0258925Y0192649D01*
X0259426Y0193247D02*
X0437743Y0193247D01*
X0437743Y0193846D02*
X0259674Y0193846D01*
X0259922Y0194444D02*
X0437743Y0194444D01*
X0437743Y0195043D02*
X0260170Y0195043D01*
X0260276Y0195641D02*
X0437743Y0195641D01*
X0437743Y0196240D02*
X0260276Y0196240D01*
X0260276Y0196839D02*
X0437743Y0196839D01*
X0437743Y0197437D02*
X0260276Y0197437D01*
X0260135Y0198036D02*
X0437743Y0198036D01*
X0437743Y0198634D02*
X0259887Y0198634D01*
X0259639Y0199233D02*
X0437743Y0199233D01*
X0437743Y0199831D02*
X0259391Y0199831D01*
X0258840Y0200430D02*
X0426134Y0200430D01*
X0424749Y0201028D02*
X0258241Y0201028D01*
X0257616Y0201627D02*
X0424150Y0201627D01*
X0423552Y0202225D02*
X0256171Y0202225D01*
X0337049Y0296790D02*
X0337432Y0296790D01*
X0337049Y0297388D02*
X0338030Y0297388D01*
X0336897Y0297987D02*
X0349786Y0297987D01*
X0350385Y0298585D02*
X0336299Y0298585D01*
X0335700Y0299184D02*
X0350983Y0299184D01*
X0351582Y0299782D02*
X0335102Y0299782D01*
X0431441Y0211801D02*
X0437743Y0211801D01*
X0437743Y0211203D02*
X0432304Y0211203D01*
X0432903Y0210604D02*
X0437743Y0210604D01*
X0437743Y0210006D02*
X0433501Y0210006D01*
X0433840Y0209407D02*
X0437743Y0209407D01*
X0437743Y0208809D02*
X0434088Y0208809D01*
X0434336Y0208210D02*
X0437743Y0208210D01*
X0437743Y0207612D02*
X0434583Y0207612D01*
X0434610Y0207013D02*
X0437743Y0207013D01*
X0437743Y0206415D02*
X0434610Y0206415D01*
X0434610Y0205816D02*
X0437743Y0205816D01*
X0437743Y0205218D02*
X0434610Y0205218D01*
X0434431Y0204619D02*
X0437743Y0204619D01*
X0437743Y0204021D02*
X0434183Y0204021D01*
X0433935Y0203422D02*
X0437743Y0203422D01*
X0437743Y0202824D02*
X0433687Y0202824D01*
X0433132Y0202225D02*
X0437743Y0202225D01*
X0437743Y0201627D02*
X0432533Y0201627D01*
X0431935Y0201028D02*
X0437743Y0201028D01*
X0437743Y0200430D02*
X0430550Y0200430D01*
X0437743Y0108857D02*
X0260438Y0108857D01*
X0259614Y0109198D02*
X0256754Y0109198D01*
X0254112Y0108104D01*
X0252089Y0106081D01*
X0250995Y0103439D01*
X0250995Y0100579D01*
X0252089Y0097936D01*
X0254112Y0095913D01*
X0256754Y0094819D01*
X0259614Y0094819D01*
X0262257Y0095913D01*
X0264280Y0097936D01*
X0265374Y0100579D01*
X0265374Y0103439D01*
X0264280Y0106081D01*
X0262257Y0108104D01*
X0259614Y0109198D01*
X0261883Y0108259D02*
X0437743Y0108259D01*
X0437743Y0107660D02*
X0291789Y0107660D01*
X0290880Y0108037D02*
X0293095Y0107119D01*
X0294791Y0105423D01*
X0295709Y0103208D01*
X0295709Y0100810D01*
X0294791Y0098594D01*
X0293095Y0096898D01*
X0290880Y0095980D01*
X0288481Y0095980D01*
X0286266Y0096898D01*
X0284570Y0098594D01*
X0283652Y0100810D01*
X0283652Y0103208D01*
X0284570Y0105423D01*
X0286266Y0107119D01*
X0288481Y0108037D01*
X0290880Y0108037D01*
X0293153Y0107062D02*
X0437743Y0107062D01*
X0437743Y0106463D02*
X0293751Y0106463D01*
X0294350Y0105865D02*
X0437743Y0105865D01*
X0437743Y0105266D02*
X0294856Y0105266D01*
X0295104Y0104668D02*
X0437743Y0104668D01*
X0437743Y0104069D02*
X0295352Y0104069D01*
X0295600Y0103471D02*
X0437743Y0103471D01*
X0437743Y0102872D02*
X0295709Y0102872D01*
X0295709Y0102274D02*
X0437743Y0102274D01*
X0437743Y0101675D02*
X0295709Y0101675D01*
X0295709Y0101077D02*
X0437743Y0101077D01*
X0437743Y0100478D02*
X0295571Y0100478D01*
X0295324Y0099880D02*
X0437743Y0099880D01*
X0437743Y0099281D02*
X0295076Y0099281D01*
X0294828Y0098683D02*
X0437743Y0098683D01*
X0437743Y0098084D02*
X0294281Y0098084D01*
X0293683Y0097486D02*
X0437743Y0097486D01*
X0437743Y0096887D02*
X0293069Y0096887D01*
X0291624Y0096289D02*
X0437743Y0096289D01*
X0437743Y0095690D02*
X0261718Y0095690D01*
X0262632Y0096289D02*
X0287737Y0096289D01*
X0286292Y0096887D02*
X0263231Y0096887D01*
X0263829Y0097486D02*
X0285678Y0097486D01*
X0285080Y0098084D02*
X0264341Y0098084D01*
X0264589Y0098683D02*
X0284533Y0098683D01*
X0284285Y0099281D02*
X0264837Y0099281D01*
X0265085Y0099880D02*
X0284037Y0099880D01*
X0283789Y0100478D02*
X0265333Y0100478D01*
X0265374Y0101077D02*
X0283652Y0101077D01*
X0283652Y0101675D02*
X0265374Y0101675D01*
X0265374Y0102274D02*
X0283652Y0102274D01*
X0283652Y0102872D02*
X0265374Y0102872D01*
X0265361Y0103471D02*
X0283761Y0103471D01*
X0284009Y0104069D02*
X0265113Y0104069D01*
X0264865Y0104668D02*
X0284257Y0104668D01*
X0284505Y0105266D02*
X0264617Y0105266D01*
X0264369Y0105865D02*
X0285011Y0105865D01*
X0285610Y0106463D02*
X0263898Y0106463D01*
X0263299Y0107062D02*
X0286208Y0107062D01*
X0287572Y0107660D02*
X0262701Y0107660D01*
X0255931Y0108857D02*
X0228942Y0108857D01*
X0230387Y0108259D02*
X0254486Y0108259D01*
X0253668Y0107660D02*
X0240608Y0107660D01*
X0241971Y0107062D02*
X0253070Y0107062D01*
X0252471Y0106463D02*
X0242570Y0106463D01*
X0243169Y0105865D02*
X0251999Y0105865D01*
X0251752Y0105266D02*
X0243675Y0105266D01*
X0243923Y0104668D02*
X0251504Y0104668D01*
X0251256Y0104069D02*
X0244171Y0104069D01*
X0244419Y0103471D02*
X0251008Y0103471D01*
X0250995Y0102872D02*
X0244528Y0102872D01*
X0244528Y0102274D02*
X0250995Y0102274D01*
X0250995Y0101675D02*
X0244528Y0101675D01*
X0244528Y0101077D02*
X0250995Y0101077D01*
X0251036Y0100478D02*
X0244390Y0100478D01*
X0244142Y0099880D02*
X0251284Y0099880D01*
X0251532Y0099281D02*
X0243895Y0099281D01*
X0243647Y0098683D02*
X0251780Y0098683D01*
X0252028Y0098084D02*
X0243100Y0098084D01*
X0242502Y0097486D02*
X0252539Y0097486D01*
X0253138Y0096887D02*
X0241888Y0096887D01*
X0240443Y0096289D02*
X0253737Y0096289D01*
X0254651Y0095690D02*
X0230222Y0095690D01*
X0231136Y0096289D02*
X0236556Y0096289D01*
X0235111Y0096887D02*
X0231735Y0096887D01*
X0232333Y0097486D02*
X0234497Y0097486D01*
X0233898Y0098084D02*
X0232845Y0098084D01*
X0233093Y0098683D02*
X0233352Y0098683D01*
X0228777Y0095092D02*
X0256096Y0095092D01*
X0260273Y0095092D02*
X0437743Y0095092D01*
X0236391Y0107660D02*
X0231204Y0107660D01*
X0231803Y0107062D02*
X0235027Y0107062D01*
X0234429Y0106463D02*
X0232401Y0106463D01*
X0232873Y0105865D02*
X0233830Y0105865D01*
X0233324Y0105266D02*
X0233121Y0105266D01*
X0222240Y0096289D02*
X0216821Y0096289D01*
X0218266Y0096887D02*
X0221642Y0096887D01*
X0221043Y0097486D02*
X0218880Y0097486D01*
X0219478Y0098084D02*
X0220532Y0098084D01*
X0220284Y0098683D02*
X0220025Y0098683D01*
X0212934Y0096289D02*
X0205010Y0096289D01*
X0206455Y0096887D02*
X0211489Y0096887D01*
X0210875Y0097486D02*
X0207069Y0097486D01*
X0207667Y0098084D02*
X0210276Y0098084D01*
X0209730Y0098683D02*
X0208214Y0098683D01*
X0208461Y0099281D02*
X0209482Y0099281D01*
X0209234Y0099880D02*
X0208709Y0099880D01*
X0208957Y0100478D02*
X0208986Y0100478D01*
X0209206Y0104069D02*
X0208738Y0104069D01*
X0208490Y0104668D02*
X0209454Y0104668D01*
X0209702Y0105266D02*
X0208242Y0105266D01*
X0207735Y0105865D02*
X0210208Y0105865D01*
X0210807Y0106463D02*
X0207137Y0106463D01*
X0206538Y0107062D02*
X0211405Y0107062D01*
X0212769Y0107660D02*
X0205175Y0107660D01*
X0090942Y0028657D02*
X0075741Y0028657D01*
X0056556Y0190255D02*
X0052642Y0190255D01*
X0052642Y0190853D02*
X0055111Y0190853D01*
X0054325Y0191452D02*
X0052642Y0191452D01*
X0052642Y0192050D02*
X0053726Y0192050D01*
X0053128Y0192649D02*
X0052642Y0192649D01*
X0052642Y0193247D02*
X0052821Y0193247D01*
M02*
