G75*
%MOIN*%
%OFA0B0*%
%FSLAX25Y25*%
%IPPOS*%
%LPD*%
%AMOC8*
5,1,8,0,0,1.08239X$1,22.5*
%
%ADD10OC8,0.05200*%
%ADD11OC8,0.06000*%
%ADD12OC8,0.12400*%
%ADD13C,0.12400*%
%ADD14R,0.09000X0.09000*%
%ADD15C,0.05200*%
%ADD16C,0.05937*%
%ADD17C,0.05200*%
%ADD18C,0.09843*%
%ADD19C,0.02978*%
D10*
X0203342Y0261300D03*
X0208342Y0301300D03*
X0228342Y0301300D03*
X0268342Y0286300D03*
X0288342Y0286300D03*
X0293342Y0261300D03*
X0253342Y0261300D03*
X0333342Y0301300D03*
X0353342Y0301300D03*
X0388342Y0296300D03*
X0398342Y0296300D03*
X0423342Y0261300D03*
X0373342Y0261300D03*
X0343342Y0261300D03*
X0118342Y0271300D03*
X0088342Y0301300D03*
X0078342Y0301300D03*
X0068342Y0271300D03*
D11*
X0288342Y0085800D03*
X0288342Y0026800D03*
D12*
X0388342Y0071300D03*
D13*
X0388342Y0041300D03*
D14*
X0168342Y0041300D03*
X0108342Y0041300D03*
D15*
X0143342Y0251300D03*
X0153342Y0251300D03*
X0163342Y0251300D03*
X0173342Y0251300D03*
X0173342Y0281300D03*
X0163342Y0281300D03*
X0153342Y0281300D03*
X0143342Y0281300D03*
D16*
X0081310Y0071300D02*
X0075373Y0071300D01*
X0075373Y0081300D02*
X0081310Y0081300D01*
X0081310Y0091300D02*
X0075373Y0091300D01*
X0153342Y0308331D02*
X0153342Y0314269D01*
X0163342Y0314269D02*
X0163342Y0308331D01*
X0173342Y0308331D02*
X0173342Y0314269D01*
D17*
X0253342Y0313700D02*
X0253342Y0318900D01*
X0263342Y0318900D02*
X0263342Y0313700D01*
X0273342Y0313700D02*
X0273342Y0318900D01*
X0283342Y0318900D02*
X0283342Y0313700D01*
X0293342Y0313700D02*
X0293342Y0318900D01*
D18*
X0328066Y0201497D03*
X0355625Y0201497D03*
X0367436Y0201497D03*
X0379247Y0201497D03*
X0383184Y0107009D03*
X0363499Y0107009D03*
X0351688Y0107009D03*
X0339877Y0107009D03*
X0328066Y0107009D03*
X0414680Y0107009D03*
D19*
X0261126Y0293688D03*
X0178000Y0302723D03*
X0155412Y0274713D03*
X0083580Y0296398D03*
M02*
